<?xml version="1.0" encoding="utf-8"?>
<!-- Generator: Adobe Illustrator 27.3.1, SVG Export Plug-In . SVG Version: 6.00 Build 0)  -->
<svg xmlns="http://www.w3.org/2000/svg" xmlns:xlink="http://www.w3.org/1999/xlink" version="1.1" x="0px" y="0px" viewBox="0 0 740 130" style="enable-background:new 0 0 740 130;" xml:space="preserve">
<style type="text/css">
	.st0{fill:#613FA4;}
	.st1{fill:#CF0063;}
	.st2{fill:#9966FF;}
	.st3{fill-rule:evenodd;clip-rule:evenodd;fill:#FFFFFF;}
</style>
<g id="Vignettes">
	<g id="_x34_">
		<path class="st0" d="M665.8,39.3c0.4,0.1,0.7,0.1,1,0.2c0.7,0.1,1.2,0.5,1.3,1.3c0.1,0.8-0.1,1.5-0.7,2c-0.8,0.6-1.5,1.2-2.3,1.8    c-2.6,2.2-5,4.7-7.2,7.4c-0.5,0.6-1.1,1.1-1.6,1.7c-1.1-0.2-1.8-0.8-2.4-1.7c-1.4-2-2.9-4-4.4-5.9c-0.2-0.3-0.4-0.5-0.9-0.9    c-0.3,5.3-0.8,10.2-0.9,15.1c-0.7,0.6-1.1,0.3-1.6-0.1c-0.5-0.5-0.9-1-0.9-1.8c0.1-2.1,0.2-4.3,0.3-6.4c0.1-2.5,0.3-4.9,0.3-7.4    c-3,3.9-5.5,8.2-8,12.6c-1-0.1-2-0.2-2.9-0.3c-0.6-0.1-1-0.5-1.2-1.2c-0.3-1,0.1-1.7,1-1.7c1.4,0.1,2-0.8,2.5-2.1    c0.3-0.7,0.7-1.3,1.1-1.9c1.6-2.4,3.3-4.9,4.9-7.3c0.8-1.2,1.5-2.4,2.1-3.7c0.6-1.1,1.5-1.1,2.4-1c0.7,0.1,1.5,1.3,1.3,2.3    c-0.2,1.3,0.4,2.2,1,3c1.3,1.8,2.6,3.5,3.9,5.3c1,1.3,1.4,1.4,2.5,0.2c2.5-2.4,4.9-4.8,7.3-7.2C664.3,40.8,665,40.1,665.8,39.3"/>
		<path d="M658.7,74.7c-1.1-0.1-2-0.3-3-0.3c-3.2,0.2-6.4,0.5-9.7,0.7c-1.8,0.1-3.6-0.1-5.4-0.1c-1.2,0-2.3,0-3.6,0    c-0.2,2.3-0.3,4.5-0.5,6.6c-0.1,0.7-0.2,1.4-0.4,2c-0.3,0.9-1.1,1-1.6,0.3c-0.6-0.9-0.8-2-0.6-3.2c0.4-1.7,0.5-3.4,0.4-5.1    c-1.3,0-2.4-0.6-3.7-0.4c-0.9,0.1-1.8-1.6-1.5-2.6c0-0.2,0.1-0.4,0.2-0.4c0.8-0.3,1.7-1,2.4-0.7c1.3,0.4,2.6,0.2,4,0.2    c2.4,0,4.8,0.2,7.2,0.1c3.2-0.1,6.3-0.5,9.5-0.7c2.6-0.1,5.1,0,7.7,0c1.3,0,2.5-0.2,3.8-0.3c1.2-0.1,1.9,0.4,2.1,1.7    c0.2,1-0.1,1.6-1,1.8c-1,0.2-1.9,0.3-2.9,0.4c-0.7,0.1-1.1,0.3-1.1,1.2c0.1,2.1,0.1,4.3,0.2,6.4c0,1.1,0,2.1-0.1,3.2    c0,0.4-0.4,0.9-0.7,1c-0.2,0.1-0.7-0.2-0.9-0.4c-0.8-0.9-1.2-1.9-1.1-3.3C659,80,658.8,77.5,658.7,74.7"/>
		<path class="st0" d="M646.5,25.6c-0.1,0.1-0.2,0.1-0.4,0.2c0.4,1.5,0.7,3.1,1.1,4.5c0.4,1.1,1,1.2,1.8,0.5    c0.6-0.6,1.2-1.1,1.5-2.1c0.7-2.3,1.1-4.6,0.8-7c-0.1-0.9-0.1-1.9-0.4-2.8c-0.2-0.5-0.6-1.1-1.1-1.3c-0.3-0.1-0.8,0.5-1.2,0.9    c-0.2,0.3-0.4,0.7-0.5,1.1c-0.6,2-1.1,4,0.5,5.7c0.3,0.4,0.4,1,0.6,1.6C648.2,27.2,647.3,26.6,646.5,25.6 M643.9,19.3    c0.1-1.5,0.3-2.9,1.5-3.7c0.3-0.2,0.6-0.5,0.8-0.4c1,0.5,1.7-0.2,2.6-0.4c1.5-0.4,2.6,0.8,3.5,2.1c0.4,0.5,0.6,1.1,0.8,1.7    c1.2,4.5,1.2,9-0.7,13.3c-1.1,2.5-3.4,3.1-5.3,1.4c-1.3-1.2-2-2.8-2.4-4.6C644,25.5,643.7,22.4,643.9,19.3"/>
		<path d="M687.5,61.8c0.5-2.9,0.8-5.8,0.5-8.8c-0.1-0.7-0.2-1.3-0.3-1.9c0-0.2-0.1-0.6-0.2-0.6c-0.7-0.3-1.2-1-1.6-1.8    c-0.1-0.2-0.4-0.1-0.6,0c-0.2,0.2-0.5,0.4-0.6,0.8c-0.7,2.3-1.6,4.6-1.7,7.3c-0.1,1.6-0.1,3.2-0.1,4.8c0,0.5,0.1,1,0.2,1.5    c0.3,1.4,1,2.2,1.8,1.6c0.6-0.5,1.1-0.3,1.6,0.1C687,63.8,687.3,62.8,687.5,61.8 M680.6,54.4c0.3-3.7,1.4-6.5,3.5-8.3    c2-1.7,4.2-1.3,5.2,2.6c0.6,2.2,0.9,4.5,0.9,6.9c-0.1,2.4-0.1,4.9-0.7,7.2c-0.4,1.5-0.8,3-1.7,3.8c-1.7,1.6-3.5,1.9-5.3,0.5    c-0.8-0.6-1.4-1.5-1.6-2.9c-0.2-1.2-0.2-2.5-0.3-3.7c-0.1-0.9-0.2-1.8-0.3-3.2C680.6,56.6,680.5,55.5,680.6,54.4"/>
		<path d="M611.4,50.2c-0.5,0.1-0.7,0.5-0.9,1c-1,2.5-1.5,5.1-1,7.9c0.1,0.5,0.1,1.1,0.2,1.6c0.3,2.1,1.3,3.8,3,4.8    c1.4,0.9,2.5,0.5,3.1-1.3c0.5-1.4,0.6-2.9,0.6-4.4c0-3.6-0.8-7-2.2-10.1c-0.2-0.5-0.4-1-1.1-1.2C612.7,49.5,612.2,50,611.4,50.2     M617.5,65.2c-0.8,2.1-2.7,3.3-4.6,2.7c-2.6-0.7-4.5-2.4-5-5.7c-0.1-0.7-0.2-1.3-0.4-2c-0.5-3.4-0.3-6.6,1-9.8    c0.2-0.5,0.6-1.1,0.9-1.5c0.7-0.8,1.5-1.6,2.2-2.3c0.2-0.2,0.5-0.3,0.7-0.3c1.1-0.1,2,0.1,2.7,1.1c0.5,0.7,1,1.4,1.2,2.1    c0.9,2.9,1.7,5.9,1.9,9.1C618.6,60.8,618.3,63.1,617.5,65.2"/>
		<path d="M610.7,80.1c0,0.7,0.1,1.2,0.1,1.7c-0.1,2.6-0.3,5.2-0.5,7.8c-0.1,0.8-0.2,1.6-0.7,2.2c-0.4,0.6-0.5,1.2-0.2,1.9    c0.1,0.2,0,0.6,0,1c-1.6-0.5-3.1-0.9-4.6-1.4c-1.4-0.5-2.9-0.9-4.4-1.7C603.1,88.1,609.5,80.9,610.7,80.1 M597.5,93.8    c0.3,0.1,0.6,0.2,0.9,0.3c3.5,0.8,7,1.9,10.4,3.1c0.4,0.1,0.8,0.4,1.1,0.6c0.2,1.9,0.1,3.6-0.1,5.3c-0.1,0.8-0.1,1.5,0,2.2h3.7    c0-0.2,0-0.4,0-0.6c-0.1-1.5-0.4-3.1-0.6-4.6c-0.1-0.5-0.3-1.1,0-1.7c0.9,0,1.8,0.3,2.6,0.6c1.1,0.4,2.3,0.4,3.4,1    c0.7,0.3,1.4-0.2,1.9-0.7c0.5-0.5,0.8-1.2,0.3-2.1c-0.7-0.3-1.4-0.8-2.3-0.3c-0.2,0.1-0.4,0.1-0.6,0.1c-1.8-0.4-3.6-0.5-5.4-1.4    c0-0.3,0-0.7,0-1c0-0.3,0.1-0.6,0-0.9c-0.6-1.7-0.7-3.4-0.5-5.2c0.2-2.6,0.3-5.3,0.4-8c0-0.5,0-1.1,0.3-1.5    c0.1,0.1,0.3,0.1,0.3,0.2c1.1,1.7,2.2,3.4,3.3,5c0.3,0.4,0.5,0.8,0.8,1.1c1.1,1.1,2,2.4,2.8,3.8c0.5,0.8,1,1,1.8,0.5    c0.8-0.5,1.2-0.8,1.1-2.2c-0.2-1.7-0.2-3.3-0.2-5c0.1-3.1,0.2-6.2-0.2-9.3c-0.1-1,0-1.8,0.4-2.7c0.4-0.7,0.6-1.6,0.9-2.4    c0.1-0.3,0.1-0.6,0.2-0.9c0.1-0.6-0.3-1.2-0.7-1.3c-0.5-0.1-1,0.1-1.2,0.6c-0.1,0.3-0.2,0.7-0.3,1c-0.2,0.7-0.5,1.2-1,1.7    c-0.4,0.3-0.7,0.8-0.9,1.3c-0.5,0.9-0.4,1.1,0.2,2c0.2,0.2,0.3,0.5,0.4,0.8c0.2,1.7,0.5,3.4,0.4,5.1c-0.1,1.5-0.1,3-0.2,4.4    c0,0.7-0.1,1.3-0.2,2.2c-0.4-0.3-0.7-0.4-0.9-0.6c-1.1-1.4-2.3-2.7-3-4.3c-0.1-0.3-0.3-0.6-0.5-0.9c-0.8-1.3-1.5-2.7-1.8-4.3    c-0.2-0.9-1-1.5-1.8-1.5c-0.8,0-1.6,0.6-1.7,1.6c-0.1,1.1-0.6,1.8-1.1,2.6c-1.3,1.9-2.8,3.7-4.4,5.4c-0.7,0.8-1.5,1.6-2.1,2.5    c-1.6,2.1-3.5,4-5.4,5.8c-0.3,0.2-0.5,0.4-0.7,0.7C596.5,92.4,596.8,93.5,597.5,93.8"/>
		<path d="M683.7,80.8c0,0-0.1,0-0.1-0.1c0-0.1,0-0.1,0.1-0.2c0,0,0.1,0,0.1,0.1C683.7,80.7,683.7,80.8,683.7,80.8 M699.4,90.5    c-0.1-0.3-0.3-0.5-0.4-0.7c-0.6-0.8-1.1-1.5-1.7-2.3c-1.1-1.6-2.3-2.9-3.7-4c-1.9-1.6-3.8-3.5-5.6-5.3c-0.5-0.5-0.9-1.2-1.3-1.8    c-0.4-0.7-1-1.1-1.5-1.2c-0.8-0.2-1.5,0.1-2,1.2c-0.4,0.8-0.7,1.7-1,2.6c-1.2,3.7-3.1,6.4-5.1,9c0,0-0.1,0-0.2,0    c-0.3-0.6-0.3-1.4-0.3-2.1c0-3.7,0.3-7.2,1.2-10.7c0.1-0.4,0.2-0.8,0.3-1.2c0.7-1.7,0.3-3.4,0-5.1c-0.1-0.5-0.3-0.9-0.7-0.9    c-0.4,0-0.6,0.3-0.7,0.8c-0.1,0.5-0.2,1-0.3,1.4c-0.6,3.6-1.2,7.2-1.7,10.8c-0.3,2-0.3,4-0.3,6c-0.1,1.2-0.1,2.4-0.1,3.5    c0,0.9,0.3,1.5,0.8,1.6c0.7,0.2,1.2,0,1.8-0.8c2-2.6,3.9-5.2,5.5-8.5c0.2-0.4,0.4-0.7,0.7-1.1c0.6,0.6,0.5,1.4,0.5,2    c-0.1,1.4-0.3,2.8,0,4.3c0,0.1,0,0.3,0,0.5c-0.3,4.5-0.5,8.9-0.8,13.4c-0.1,1.1-0.2,2.2-0.3,3.3h2.1c0.1-0.9,0.2-1.7,0.3-2.6    c0-0.1,0.1-0.2,0.3-0.5c0.1,1.1,0.1,2.1,0.2,3.1h1.8c-0.1-2.6-0.3-5.2-0.4-7.8c-0.1-1.6-0.1-3.2-0.1-4.8c-0.1-3-0.2-6.1-0.2-9.1    c0-0.3,0-0.7,0-1.1c0.5-0.3,1-0.6,1.4-0.9c1.6,1.1,7.4,6.4,8.2,7.4c0.1,0.2,0.2,0.5,0.3,0.8c-0.5,0.5-0.9,0.4-1.3,0.4    c-1.9-0.1-3.6,1-5.3,1.8c-0.3,0.1-0.5,0.4-0.7,0.6c-0.8,0.8-0.8,1.9-0.1,2.9c0.2,0.3,0.5,0.7,0.8,0.8c0.9,0.5,1.8,0.9,2.3,2.4    c0.3,0.8,1.1,0.4,1.3-0.5c0.2-0.9,0.3-1.8,0-2.7c-0.2-0.6-0.4-1.1-0.7-1.6c0.1-0.6,0.4-0.6,0.7-0.7c1.5-0.6,3-0.9,4.6-0.8    c0.5,0,1,0.1,1.4-0.4C699.5,91.6,699.6,91,699.4,90.5"/>
		<path class="st1" d="M599.2,39.8c-1.2-1.7-2-3.7-2.8-5.7c-0.3-0.8-0.6-1.7-0.9-2.6c-0.2-0.5-0.3-1-0.3-1.5    c-0.1-0.6,0.2-1.1,0.8-1.2c1.6-0.3,2.4-1.5,2.9-2.9c0.7-1.9,0.9-3.8,0.4-5.8c-0.3-1.2-0.7-2.4-1.3-3.4c-0.8-1.5-1.7-2.9-2.9-4.1    c-1.5-1.5-3.3-2.5-5.2-3.1c-1.2-0.4-2.4-0.6-3.6-0.5c-2.1,0.2-3.8,1.2-5.2,2.9c-0.4,0.4-0.6,1-0.8,1.5c-0.4,0.9-0.8,1.9-0.9,2.9    c0,0.3-0.1,0.6-0.2,1c-0.4,1.8-0.4,3.5,0,5.3c0.2,0.9,0.7,1.7,1.1,2.4c1.1,1.8,2.4,3.4,4,4.7c1.1,0.8,2.2,1.4,3.6,1.3    c0.9,0,1.8,0.3,2.7,0.6c0.5,0.2,1,0.4,1.6,0.4c0.4,0,0.6,0.2,0.7,0.6c0.3,1.1,0.9,2,1.6,2.9c0.5,0.8,1.2,1.5,1.8,2.2    c0.1,0.1,0.2,0.3,0.4,0.3c1,0.4,1.8,1.2,2.5,2c0,0,0.1,0,0.3,0C599.3,40,599.3,39.9,599.2,39.8 M590,33.3    c-0.8-0.3-1.7-0.5-2.6-0.5c-1.6,0-3.1-0.7-4.3-1.8c-1.9-1.6-3.4-3.6-4.7-5.8c-0.9-1.6-1.3-3.2-1.1-5c0.2-2.3,0.6-4.6,1.4-6.7    c0.3-0.8,0.6-1.5,1.1-2.2c1-1.3,2.3-2.2,3.7-2.9c0.7-0.3,1.4-0.6,2.1-0.6c0.5,0,1-0.1,1.4-0.1c0.6,0,1.2,0,1.8,0.2    c1.2,0.3,2.4,0.6,3.5,1.1c1.8,0.9,3.4,2.1,4.8,3.6c0.5,0.5,0.8,1.2,1.2,1.7c0.5,0.7,0.8,1.4,1.2,2.1c0.7,1.3,1,2.7,1.3,4.1    c0.2,0.9,0.2,1.9,0.1,2.8c-0.1,0.7-0.3,1.4-0.5,2.1c-0.3,1-0.6,2-1.4,2.7c-0.7,0.7-1.5,1.3-2.2,1.9c-0.1,0.1-0.3,0.2-0.4,0.3    c0.2,0.5,0.5,1,0.6,1.4c0.2,0.6,0.4,1.3,0.7,1.9c0.6,1.4,1.3,2.7,2,3.9c0.7,1.3,1.7,2.3,2.7,3.4c0.4,0.4,0.7,0.8,0.9,1.2    c-0.1,0.6-0.2,1.1-0.3,1.6c-0.2,0.8-0.8,1-1.4,0.4c-0.2-0.2-0.3-0.4-0.5-0.5c-1.5-1-2.8-2.2-4.1-3.4c-1.4-1.2-2.6-2.6-3.6-4.2    c-0.6-0.9-1.4-1.7-1.8-2.9C591.2,33.8,590.6,33.5,590,33.3"/>
		<path class="st2" d="M599.2,39.8c-1.2-1.7-2-3.7-2.8-5.7c-0.3-0.8-0.6-1.7-0.9-2.6c-0.2-0.5-0.3-1-0.3-1.5    c-0.1-0.6,0.2-1.1,0.8-1.2c1.6-0.3,2.4-1.5,2.9-2.9c0.7-1.9,0.9-3.8,0.4-5.8c-0.3-1.2-0.7-2.4-1.3-3.4c-0.8-1.5-1.7-2.9-2.9-4.1    c-1.5-1.5-3.3-2.5-5.2-3.1c-1.2-0.4-2.4-0.6-3.6-0.5c-2.1,0.2-3.8,1.2-5.2,2.9c-0.4,0.4-0.6,1-0.8,1.5c-0.4,0.9-0.8,1.9-0.9,2.9    c0,0.3-0.1,0.6-0.2,1c-0.4,1.8-0.4,3.5,0,5.3c0.2,0.9,0.7,1.7,1.1,2.4c1.1,1.8,2.4,3.4,4,4.7c1.1,0.8,2.2,1.4,3.6,1.3    c0.9,0,1.8,0.3,2.7,0.6c0.5,0.2,1,0.4,1.6,0.4c0.4,0,0.6,0.2,0.7,0.6c0.3,1.1,0.9,2,1.6,2.9c0.5,0.8,1.2,1.5,1.8,2.2    c0.1,0.1,0.2,0.3,0.4,0.3c1,0.4,1.8,1.2,2.5,2c0,0,0.1,0,0.3,0C599.3,40,599.3,39.9,599.2,39.8z M590,33.3    c-0.8-0.3-1.7-0.5-2.6-0.5c-1.6,0-3.1-0.7-4.3-1.8c-1.9-1.6-3.4-3.6-4.7-5.8c-0.9-1.6-1.3-3.2-1.1-5c0.2-2.3,0.6-4.6,1.4-6.7    c0.3-0.8,0.6-1.5,1.1-2.2c1-1.3,2.3-2.2,3.7-2.9c0.7-0.3,1.4-0.6,2.1-0.6c0.5,0,1-0.1,1.4-0.1c0.6,0,1.2,0,1.8,0.2    c1.2,0.3,2.4,0.6,3.5,1.1c1.8,0.9,3.4,2.1,4.8,3.6c0.5,0.5,0.8,1.2,1.2,1.7c0.5,0.7,0.8,1.4,1.2,2.1c0.7,1.3,1,2.7,1.3,4.1    c0.2,0.9,0.2,1.9,0.1,2.8c-0.1,0.7-0.3,1.4-0.5,2.1c-0.3,1-0.6,2-1.4,2.7c-0.7,0.7-1.5,1.3-2.2,1.9c-0.1,0.1-0.3,0.2-0.4,0.3    c0.2,0.5,0.5,1,0.6,1.4c0.2,0.6,0.4,1.3,0.7,1.9c0.6,1.4,1.3,2.7,2,3.9c0.7,1.3,1.7,2.3,2.7,3.4c0.4,0.4,0.7,0.8,0.9,1.2    c-0.1,0.6-0.2,1.1-0.3,1.6c-0.2,0.8-0.8,1-1.4,0.4c-0.2-0.2-0.3-0.4-0.5-0.5c-1.5-1-2.8-2.2-4.1-3.4c-1.4-1.2-2.6-2.6-3.6-4.2    c-0.6-0.9-1.4-1.7-1.8-2.9C591.2,33.8,590.6,33.5,590,33.3z"/>
		<path class="st2" d="M695.7,35.4c0,0.1,0,0.2,0.1,0.3c0.6-0.5,1-1.2,1.5-1.7c0.4-0.5,0.8-1.2,1.2-1.7c0.4-0.5,0.9-0.9,1.4-1.2    c0.2-0.1,0.5-0.1,0.8-0.1c0.2,0,0.4,0.2,0.6,0.3c1.4,1,2.9,1.7,4.4,2.1c0.9,0.2,1.8,0.4,2.7,0.4c1.6,0,3-0.6,4.3-1.5    c1.1-0.8,1.8-1.9,2.1-3.5c0.4-2.7-0.2-5-1.5-7.2c-0.6-0.9-1.1-1.9-1.7-2.8c-0.6-0.9-1.2-1.7-1.8-2.5c-2.1-2.9-4.7-4.9-7.5-6.8    c-1.3-0.9-2.9-1.3-4.4-1.3c-1.4,0-2.8,0.5-3.8,1.6c-1.3,1.4-2,3.1-2.1,5.2c-0.1,2.8,0.4,5.4,1.4,7.9c0.5,1.3,1.1,2.6,2,3.7    c0.8,0.9,1.5,1.8,2.6,2.3c0.2,0.1,0.4,0.2,0.6,0.4c0.4,0.3,0.4,0.8,0.1,1.1c-0.4,0.3-0.9,0.6-1.5,1    C696.7,32.7,696.2,34,695.7,35.4 M692,24.9c-1.1-2.7-1.8-5.6-1.8-8.7c0-1.1,0-2.2,0.4-3.2c0.5-1.2,1.1-2.3,1.6-3.5    c0.1-0.3,0.3-0.5,0.6-0.7c1.3-1.1,2.6-2.1,4.2-2.2c1.9-0.2,3.8,0,5.5,1c0.7,0.4,1.3,0.9,2,1.2c1.8,1,3.4,2.4,4.9,4    c0.5,0.6,1,1.1,1.5,1.7c0.4,0.4,0.7,0.9,1,1.3c0.5,0.7,1,1.4,1.5,2.1c0.8,1,1.3,2.3,2,3.4c0.7,1.1,1.1,2.3,1.3,3.6    c0.1,0.9,0.2,1.8,0.1,2.7c-0.1,2.1-0.7,4-2.1,5.4c-0.7,0.6-1.4,1.1-2.2,1.6c-2.3,1.4-4.8,1.7-7.3,0.9c-0.6-0.2-1.3-0.4-1.9-0.5    c-0.2-0.1-0.4-0.2-0.7-0.3c-0.7-0.3-1.4-0.7-2.1-1c-0.5-0.2-0.9-0.1-1.3,0.4c-0.2,0.3-0.5,0.8-0.7,1.1c-1.1,1.3-2.1,2.7-3.1,4.1    c-0.3,0.4-0.6,0.7-1,1c-0.5,0.3-0.9,0.2-1.3-0.2c-0.4-0.3-0.6-0.7-0.5-1.3c0.1-0.5,0.3-0.9,0.4-1.4c0.4-1.8,1.1-3.5,1.7-5.2    c0.3-0.7,0.5-1.5,0.4-2.4C693.9,28.3,692.7,26.7,692,24.9"/>
		<path d="M588.5,71.6c0,0,0-0.1-0.1-0.2c0,0,0.1-0.1,0.1,0c0,0,0,0.1,0.1,0.1C588.6,71.5,588.6,71.6,588.5,71.6 M589.8,73.3    c1.5,2.7,3.4,4.8,5.3,6.9c0.5,0.6,1.1,0.8,1.7,0.6c0.5-0.1,0.8-0.6,0.8-1.3c0-1,0-1.9-0.1-2.9c-0.1-1.6-0.1-3.3-0.3-4.9    c-0.5-3-1.1-5.9-1.6-8.8c-0.1-0.4-0.2-0.8-0.3-1.2c-0.1-0.4-0.4-0.7-0.7-0.7c-0.4,0-0.6,0.3-0.7,0.7c-0.3,1.4-0.7,2.8,0,4.2    c0.1,0.3,0.2,0.6,0.3,1c0.9,2.8,1.2,5.7,1.2,8.7c0,0.6,0.1,1.2-0.3,1.7c-0.1,0-0.2,0-0.2,0c-1.9-2.1-3.7-4.3-4.9-7.3    c-0.3-0.7-0.7-1.4-1-2.1c-0.5-0.9-1.1-1.2-1.9-1c-0.6,0.1-1.1,0.4-1.5,1c-0.4,0.5-0.8,1.1-1.3,1.5c-1.8,1.5-3.6,3.1-5.4,4.4    c-1.3,0.9-2.5,2-3.5,3.3c-0.5,0.6-1.1,1.3-1.6,1.9c-0.2,0.2-0.3,0.4-0.4,0.6c-0.2,0.4-0.2,0.9,0.2,1.3c0.4,0.4,0.9,0.3,1.3,0.3    c1.5-0.1,3,0.1,4.4,0.6c0.2,0.1,0.5,0,0.6,0.5c-0.2,0.4-0.4,0.8-0.6,1.3c-0.3,0.7-0.2,1.5,0,2.2c0.2,0.7,1,1,1.3,0.4    c0.5-1.2,1.4-1.6,2.2-2c0.3-0.1,0.5-0.4,0.8-0.7c0.7-0.8,0.6-1.7-0.1-2.4c-0.2-0.2-0.4-0.4-0.7-0.5c-1.7-0.6-3.3-1.5-5.1-1.4    c-0.4,0-0.8,0.1-1.3-0.3c0.1-0.3,0.2-0.5,0.3-0.7c0.7-0.9,6.4-5.2,7.9-6.1c0.5,0.2,0.9,0.5,1.4,0.7c0,0.4,0,0.6,0,0.9    c-0.1,2.5-0.2,5-0.2,7.4c0,1.3-0.1,2.6-0.1,3.9c-0.2,3-0.4,5.9-0.5,8.9c-0.1,1.4-0.1,2.8-0.2,4.1c-0.3,3.1-0.6,6.3-0.9,9.4    c-0.2,2.1-0.3,4.1-0.7,6.1c-0.1,0.7-0.3,1.3-0.4,2c-0.1,0.9,0.2,1.5,0.8,1.7c0.1,0,0.2,0.1,0.3,0.1c0.7,0.2,1.1-0.2,1.2-1.1    c0.1-1.1,0.2-2.2,0.3-3.3c0.1-1.2,0.2-2.3,0.3-3.5c0.2-2.3,0.2-4.7,0.5-7c0.4-2.9,0.5-5.7,0.6-8.6c0.1-1.6,0.2-3.2,0.3-4.9    c0.2,0.2,0.3,0.3,0.3,0.4c0.5,3.2,1,6.3,1.3,9.5c0.3,3.1,0.6,6.1,1.2,9.2c0.2,1.2,0.5,2.4,0.7,3.6c0.2,1.4,1.2,2.6,2.3,2.5    c0.3,0,0.6-0.2,0.8-0.5c0.4-0.6,0.3-1.7-0.1-2.3c-0.4-0.6-0.7-1.2-0.7-2c0-0.3-0.1-0.7-0.3-0.9c-0.8-0.9-1-2.2-1.2-3.5    c-0.3-2-0.6-3.9-0.7-5.9c-0.1-1.3-0.2-2.6-0.4-3.9c-0.3-2.2-0.6-4.3-0.8-6.5c-0.3-3.6-0.5-7.3-0.8-10.9c0-0.1,0-0.3,0-0.4    c0.3-1.2,0.1-2.3,0-3.5c0-0.5-0.1-1.1,0.5-1.6C589.4,72.7,589.6,72.9,589.8,73.3"/>
		<path d="M584.9,56c-0.5-2.3-0.7-4.7-0.5-7.1c0.1-0.5,0.2-1.1,0.3-1.6c0-0.2,0.1-0.5,0.2-0.5c0.7-0.2,1.1-0.8,1.6-1.5    c0.1-0.1,0.4-0.1,0.6,0c0.2,0.1,0.5,0.3,0.6,0.6c0.7,1.9,1.5,3.8,1.7,5.9c0.1,1.3,0.1,2.6,0.1,3.9c0,0.4-0.1,0.8-0.2,1.2    c-0.3,1.1-1,1.8-1.8,1.3c-0.6-0.4-1.1-0.3-1.6,0.1C585.4,57.7,585,56.9,584.9,56 M591.5,50c-0.3-3-1.4-5.3-3.4-6.7    c-1.9-1.4-4-1.1-5,2.1c-0.5,1.8-0.9,3.6-0.9,5.6c0.1,2,0.1,4,0.7,5.9c0.4,1.2,0.8,2.4,1.7,3.1c1.6,1.3,3.4,1.6,5.2,0.4    c0.8-0.5,1.4-1.3,1.6-2.4c0.2-1,0.2-2,0.3-3c0.1-0.7,0.2-1.5,0.3-2.6C591.5,51.8,591.6,50.9,591.5,50"/>
		<path d="M705.5,71.5c0,0,0-0.1,0.1-0.2c0,0-0.1-0.1-0.1,0c0,0,0,0.1-0.1,0.1C705.4,71.5,705.4,71.5,705.5,71.5 M704.2,73.2    c-1.5,2.7-3.4,4.8-5.3,6.9c-0.5,0.6-1.1,0.8-1.7,0.6c-0.5-0.1-0.8-0.6-0.8-1.3c0-1,0-1.9,0.1-2.9c0.1-1.6,0.1-3.3,0.3-4.9    c0.5-3,1.1-5.9,1.6-8.8c0.1-0.4,0.2-0.8,0.3-1.2c0.1-0.4,0.4-0.7,0.7-0.7c0.4,0,0.6,0.3,0.7,0.7c0.3,1.4,0.7,2.8,0,4.2    c-0.1,0.3-0.2,0.6-0.3,1c-0.9,2.8-1.2,5.7-1.2,8.7c0,0.6-0.1,1.2,0.3,1.7c0.1,0,0.2,0,0.2,0c1.9-2.1,3.7-4.3,4.9-7.3    c0.3-0.7,0.7-1.4,1-2.1c0.5-0.9,1.1-1.2,1.9-1c0.6,0.1,1.1,0.4,1.5,1c0.4,0.5,0.8,1.1,1.3,1.5c1.8,1.5,3.6,3.1,5.4,4.4    c1.3,0.9,2.5,2,3.5,3.3c0.5,0.6,1.1,1.3,1.6,1.9c0.2,0.2,0.3,0.4,0.4,0.6c0.2,0.4,0.2,0.9-0.2,1.3c-0.4,0.4-0.9,0.3-1.3,0.3    c-1.5-0.1-3,0.1-4.4,0.6c-0.2,0.1-0.5,0-0.6,0.5c0.2,0.4,0.4,0.8,0.6,1.3c0.3,0.7,0.2,1.5,0,2.2c-0.2,0.7-1,1-1.3,0.4    c-0.5-1.2-1.4-1.6-2.2-2c-0.3-0.1-0.5-0.4-0.8-0.7c-0.7-0.8-0.6-1.7,0.1-2.4c0.2-0.2,0.4-0.4,0.7-0.5c1.7-0.6,3.3-1.5,5.1-1.4    c0.4,0,0.8,0.1,1.3-0.3c-0.1-0.3-0.2-0.5-0.3-0.7c-0.7-0.9-6.4-5.2-7.9-6.1c-0.5,0.2-0.9,0.5-1.4,0.7c0,0.4,0,0.6,0,0.9    c0.1,2.5,0.2,5,0.2,7.4c0,1.3,0.1,2.6,0.1,3.9c0.2,3,0.4,5.9,0.5,8.9c0.1,1.4,0.1,2.8,0.2,4.1c0.3,3.1,0.6,6.3,0.9,9.4    c0.2,2.1,0.3,4.1,0.7,6.1c0.1,0.7,0.3,1.3,0.4,2c0.1,0.9-0.2,1.5-0.8,1.7c-0.1,0-0.2,0.1-0.3,0.1c-0.7,0.2-1.1-0.2-1.2-1.1    c-0.1-1.1-0.2-2.2-0.3-3.3c-0.1-1.2-0.2-2.3-0.3-3.5c-0.2-2.3-0.2-4.7-0.5-7c-0.4-2.9-0.5-5.7-0.6-8.6c-0.1-1.6-0.2-3.2-0.3-4.9    c-0.2,0.2-0.3,0.3-0.3,0.4c-0.5,3.2-1,6.3-1.3,9.5c-0.3,3.1-0.6,6.1-1.2,9.2c-0.2,1.2-0.5,2.4-0.7,3.6c-0.2,1.4-1.2,2.6-2.3,2.5    c-0.3,0-0.6-0.2-0.8-0.5c-0.4-0.6-0.3-1.7,0.1-2.3s0.7-1.2,0.7-2c0-0.3,0.1-0.7,0.3-0.9c0.8-0.9,1-2.2,1.2-3.5    c0.3-2,0.6-3.9,0.7-5.9c0.1-1.3,0.2-2.6,0.4-3.9c0.3-2.2,0.6-4.3,0.8-6.5c0.3-3.6,0.5-7.3,0.8-10.9c0-0.1,0-0.3,0-0.4    c-0.3-1.2-0.1-2.3,0-3.5c0-0.5,0.1-1.1-0.5-1.6C704.6,72.6,704.4,72.9,704.2,73.2"/>
		<path d="M709.1,55.9c0.5-2.3,0.7-4.7,0.5-7.1c-0.1-0.5-0.2-1.1-0.3-1.6c0-0.2-0.1-0.5-0.2-0.5c-0.7-0.2-1.1-0.8-1.6-1.5    c-0.1-0.1-0.4-0.1-0.6,0c-0.2,0.1-0.5,0.3-0.6,0.6c-0.7,1.9-1.5,3.8-1.7,5.9c-0.1,1.3-0.1,2.6-0.1,3.9c0,0.4,0.1,0.8,0.2,1.2    c0.3,1.1,1,1.8,1.8,1.3c0.6-0.4,1.1-0.3,1.6,0.1C708.6,57.6,709,56.8,709.1,55.9 M702.5,49.9c0.3-3,1.4-5.3,3.4-6.7    c1.9-1.4,4-1.1,5,2.1c0.5,1.8,0.9,3.6,0.9,5.6c-0.1,2-0.1,4-0.7,5.9c-0.4,1.2-0.8,2.4-1.7,3.1c-1.6,1.3-3.4,1.6-5.2,0.4    c-0.8-0.5-1.4-1.3-1.6-2.4c-0.2-1-0.2-2-0.3-3c-0.1-0.7-0.2-1.5-0.3-2.6C702.5,51.8,702.4,50.8,702.5,49.9"/>
		<path class="st2" d="M620.6,37.6c0.2-0.7,0.5-1.3,1.1-1.7c0.1-0.1,0.1-0.2,0.2-0.3c0.2-0.3,0.4-0.4,0.8-0.5c0.2,0,0.4-0.1,0.6-0.1    c1.3-0.3,2.2-0.9,2.9-2c0.5-0.8,0.8-1.7,0.7-2.7c-0.2-1.1-0.4-2.2-1-3.2c-0.2-0.4-0.5-0.7-0.8-0.9c-0.8-0.4-1.6-0.9-2.5-1.3    c-1.2-0.5-2.3-0.2-3.3,0.3c-0.8,0.5-1.4,1.2-2,2c-0.3,0.5-0.5,1-0.6,1.6c-0.2,0.9-0.1,1.8,0.1,2.6c0.2,1.1,0.6,2.1,1.5,2.7    c0.1,0.4,0.1,0.6,0.1,0.9c0.1,0.6,0.3,1.2,0.4,1.8c0,0.1,0.1,0.3,0.1,0.4C619.3,37.4,619.9,37.7,620.6,37.6 M621.4,39    c-0.4,0.1-0.7,0-1-0.1c-0.3-0.1-0.7-0.2-1-0.3c-0.3-0.1-0.7-0.1-1.1-0.1c-0.8,0.1-1.5-0.7-1.2-1.5c0.1-0.3,0.2-0.6,0.1-1    c-0.1-0.7-0.4-1.4-0.8-1.9c-0.5-0.6-0.7-1.2-0.9-1.9c-0.1-0.5-0.2-1-0.4-1.5c-0.2-0.6,0-1.3,0-1.9c0.1-0.9,0.4-1.7,1-2.4    c0.3-0.4,0.6-0.8,0.9-1.1c1.2-1.2,2.7-1.7,4.4-1.7c0.2,0,0.4,0,0.5,0.1c1,0.4,1.9,0.8,2.9,1.2c0.3,0.1,0.6,0.3,0.9,0.5    c0.6,0.4,1.1,1,1.4,1.7c0,0.1,0.1,0.2,0.1,0.3c0.5,0.8,0.7,1.8,0.9,2.7c0.2,0.8,0.1,1.5-0.1,2.3c-0.3,0.7-0.7,1.4-1.2,1.9    c-0.7,0.8-1.5,1.4-2.6,1.6c-0.1,0-0.2,0.1-0.3,0.1c-0.8,0.2-1.3,0.8-1.7,1.5c-0.2,0.4-0.4,0.9-0.6,1.3    C621.5,38.8,621.5,38.9,621.4,39"/>
		<path class="st2" d="M618.6,40.5c-0.1-0.1-0.2-0.2-0.4-0.1C618.2,40.6,618.4,40.5,618.6,40.5 M619.7,40.9c0,0.3,0.3,0.6,0,1    c-0.3,0.1-0.6,0.1-1-0.1c-0.3-0.2-0.6-0.3-1-0.5c-0.1-0.1-0.2-0.1-0.3-0.2c-0.5-0.4-0.5-0.6,0.1-1c-0.1-0.1-0.2-0.2-0.3-0.4    c-0.2-0.3,0.1-0.7,0.4-0.7c0.7,0.1,1.4,0.3,2.1,0.6c0.5,0.2,0.5,0.7,0.1,1C619.9,40.8,619.8,40.9,619.7,40.9"/>
		<path class="st2" d="M629.8,22.6c-0.2,0.6-0.7,0.9-1.2,1.2c-0.2,0.1-0.4,0.2-0.6,0.3c-0.2,0.1-0.3,0.1-0.5,0    c-0.2-0.1-0.3-0.4-0.3-0.6c0-0.2,0.1-0.3,0.3-0.5c0.4-0.4,0.7-0.7,1.1-1c0.2-0.2,0.7-0.1,1,0.2C629.7,22.3,629.7,22.4,629.8,22.6"/>
		<path class="st2" d="M613.8,26.6c-0.2,0-0.4,0-0.6-0.1c-0.5-0.2-0.9-0.3-1.3-0.5c-0.3-0.1-0.5-0.4-0.6-0.6    c-0.1-0.1-0.1-0.3,0.1-0.4c0.1-0.1,0.2-0.1,0.3-0.1c0.1,0,0.3,0.1,0.4,0.1c0.5,0.3,1,0.4,1.5,0.5c0.3,0,0.5,0.2,0.6,0.4    c0.1,0.2,0.1,0.6-0.1,0.7C614,26.6,613.9,26.6,613.8,26.6"/>
		<path class="st2" d="M622.6,19.1c0,0,0.2,0,0.2,0c0.4,0.1,0.6,0.5,0.5,0.8c-0.1,0.4-0.2,0.8-0.2,1.2c0,0.2,0,0.4-0.2,0.4    c-0.2,0.1-0.5,0-0.6-0.2c-0.1-0.2-0.2-0.4-0.2-0.6c0-0.4,0-0.9,0-1.3C622,19.2,622.2,19.1,622.6,19.1"/>
		<path class="st2" d="M628.4,35.7c0.1,0.1,0.3,0.1,0.4,0.2c0.3,0.3,0.7,0.5,1.1,0.7c0.3,0.1,0.4,0.3,0.5,0.6c0,0.2,0,0.3-0.1,0.4    c-0.2,0.1-0.4,0.2-0.6,0.1c-0.7-0.4-1.3-0.8-1.7-1.3c0,0,0-0.1-0.1-0.1c-0.1-0.3,0-0.5,0.3-0.5C628.2,35.7,628.3,35.7,628.4,35.7"/>
		<path class="st2" d="M631.4,30.7c-0.3,0-0.6-0.1-0.9-0.1c-0.1,0-0.2-0.1-0.3-0.2c-0.2-0.1-0.3-0.3-0.3-0.5c0-0.2,0.2-0.3,0.5-0.3    c0.4,0,0.8,0,1.2-0.1c0.4-0.1,0.7,0,0.9,0.4c0.2,0.3,0.1,0.5-0.2,0.7c-0.1,0-0.1,0.1-0.2,0.1C631.8,30.7,631.6,30.7,631.4,30.7    C631.4,30.7,631.4,30.7,631.4,30.7"/>
		<path class="st2" d="M618,22.4c-0.1,0.1-0.1,0.2-0.2,0.2c-0.1,0-0.3,0-0.4,0c-0.3-0.2-0.6-0.4-0.7-0.7c-0.1-0.4-0.3-0.8-0.4-1.2    c-0.1-0.2,0.1-0.5,0.4-0.6c0.4-0.1,0.8,0.2,0.9,0.5c0,0.2,0,0.4,0,0.5c0,0.4,0,0.7,0.3,1C617.9,22.2,617.9,22.3,618,22.4"/>
		<path class="st2" d="M611.8,32.3c-0.3,0-0.6-0.1-0.7-0.4c-0.2-0.3-0.1-0.6,0.1-0.7c0.1,0,0.1-0.1,0.2-0.1c0.2-0.1,0.5-0.2,0.7-0.2    c0.4-0.2,0.7-0.1,0.9,0.3c0.2,0.3,0.1,0.8-0.2,0.9C612.5,32.2,612.1,32.2,611.8,32.3"/>
		<path class="st2" d="M621.7,32.1c-0.4,1.1-0.8,2.2-1.1,3.2c-0.1,0.2-0.1,0.3-0.2,0.5c-0.1,0.2-0.3,0.2-0.5,0.2    c-0.2-0.1-0.3-0.2-0.2-0.4c0.2-0.8,0.3-1.6,0.5-2.5c0.1-0.3,0.2-0.6,0.2-1c-0.3-0.1-0.6-0.2-0.9-0.2c-0.1,0-0.3-0.1-0.4-0.2    c-0.1-0.1-0.2-0.2-0.1-0.3c0.1-0.1,0.2-0.2,0.3-0.3c0.1,0,0.1,0,0.2,0c0.7,0,1.5,0,2.2,0c0.4,0,0.7,0.1,1.1,0.2    c0.1,0,0.1,0.1,0.2,0.1c0.2,0.2,0.3,0.4,0.2,0.6c-0.1,0.2-0.4,0.4-0.6,0.3C622.2,32.2,622,32.1,621.7,32.1"/>
	</g>
	<g id="_x33_">
		<path class="st2" d="M484.7,20.3c-0.3,0.1-0.6,0.2-0.8,0.3c-0.9,0.4-1.9,0.8-2.8,1.2c-0.9,0.4-1.8,0.7-2.6,1.1    c-1.2,0.5-2.3,1.1-3.5,1.6c-0.2,0.1-0.5,0.2-0.7,0.5c0.9,0,1.6,0,2.4-0.2c0.7-0.1,1.4-0.3,2.1-0.4c0.8-0.1,1.5-0.2,2.3-0.4    c0.2,0,0.4-0.1,0.6-0.2c1-0.1,2-0.2,3-0.3c0.4,0,0.5-0.2,0.5-0.6c-0.1-0.8-0.2-1.6-0.3-2.4C484.8,20.5,484.8,20.5,484.7,20.3     M474.7,22.7c0,0,0.1,0.1,0.1,0.1c0.2,0,0.3-0.1,0.5-0.1c0.8-0.4,1.6-0.8,2.4-1.2c0.8-0.3,1.6-0.6,2.4-0.9c0.1,0,0.3-0.1,0.4-0.1    c0.8-0.5,1.8-0.7,2.6-1.3c0.1-0.1,0.3-0.2,0.5-0.2c0.3,0,0.5-0.2,0.7-0.4c0-0.6-0.2-1.2-0.5-1.7c-0.1-0.2-0.2-0.4-0.2-0.6    c-0.3-1.1-1.1-1.9-1.7-2.8c-0.1-0.2-0.3-0.2-0.5,0c-0.1,0.1-0.2,0.2-0.3,0.3c-0.5,0.7-1.1,1.3-1.6,2c-0.6,0.9-1.2,1.7-1.8,2.6    c-0.7,1.1-1.5,2.1-2.2,3.2C475.2,21.9,474.9,22.3,474.7,22.7 M462.4,15.4c-0.1,0.3-0.2,0.4-0.3,0.6c-0.3,0.6-0.5,1.2-0.7,1.9    c-0.4,0.9-0.7,1.9-1.1,2.8c-0.5,1.1-0.7,2.3-0.7,3.5c0,1.2,0.1,2.4,0.4,3.5c0.1,0.3,0.2,0.5,0.2,0.8c0.3,1.3,0.7,2.6,1.4,3.8    c0.4,0.7,0.8,1.4,1.3,2c0.9,1,2,1.6,3.1,2.2c1.7,0.9,3.6,1.2,5.5,1c1-0.1,1.9-0.2,2.9-0.5c1.5-0.4,2.9-0.9,4.2-1.5    c1-0.5,1.9-1.2,2.7-1.9c0.6-0.6,1.1-1.2,1.5-1.9c0.3-0.4,0.6-0.7,0.7-1.1c0.1-0.2,0.2-0.4,0.2-0.6c0.2-0.6,0.8-1.1,0.7-1.8    c0-0.1,0.1-0.1,0.1-0.2c0.1-0.4,0.3-0.8,0.4-1.2c0.1-0.4,0.1-0.9,0.1-1.3c0-0.1-0.1-0.2-0.1-0.4c-1,0.2-2,0.3-3,0.5    c-0.5,0.1-1.1,0.2-1.6,0.2c-0.7,0-1.4,0.1-2,0.3c-1,0.3-2,0.4-3.1,0.3c-0.6,0-1.1,0.1-1.6,0.1c-0.3,0.1-0.7,0.1-0.9,0.2    c-0.6-0.4-1-0.8-1.5-1.1c-0.4-0.3-0.8-0.6-1.1-1c-0.4-0.5-0.7-1-1.1-1.4c-0.4-0.4-0.8-0.8-1.2-1.3c-0.6-0.7-1.3-1.4-1.9-2.1    c-1-1-2-2-2.8-3.2C463,16.2,462.7,15.9,462.4,15.4 M471.8,24.3c0.6-0.8,1.1-1.6,1.5-2.5c0.2-0.4,0.6-0.8,0.8-1.2    c0.4-0.6,0.9-1,1.2-1.7c0.1-0.2,0.3-0.4,0.5-0.6c0.2-0.3,0.4-0.5,0.5-0.9c0-0.1,0.1-0.2,0.1-0.2c0.4-0.5,0.7-1,1.1-1.5    c0.8-1,1.5-2.2,2.4-3.1c0.2-0.2,0.4-0.3,0.6-0.4c-0.2-0.4-0.4-0.6-0.8-0.8c-0.4-0.2-0.8-0.5-1.2-0.8c-0.8-0.5-1.6-0.7-2.5-0.8    c-0.1,0-0.3,0-0.4,0c-0.4,0.3-0.7,0-1.1,0c-0.1,0-0.3-0.2-0.4-0.3c-0.2-0.3-0.2-0.6,0.2-0.6c0.7-0.1,1.3-0.1,2-0.1    c1.7,0.2,3.2,0.9,4.6,1.9c0.5,0.4,0.9,0.8,1.4,1.3c0.5,0.5,0.9,1,1.4,1.5c0.8,0.8,1.2,1.8,1.6,2.8c0.4,0.8,0.6,1.6,0.7,2.5    c0.2,1,0.5,2,0.7,3c0.1,0.3,0.1,0.7,0.1,1c0.2,2.2-0.1,4.3-0.8,6.4c-0.4,1.1-1,2.2-1.7,3.2c-0.5,0.7-1.1,1.4-1.7,2    c-0.7,0.8-1.6,1.4-2.6,1.8c-1.2,0.6-2.4,1.1-3.7,1.5c-1.9,0.6-3.8,0.9-5.8,0.9c-1.3,0-2.5-0.3-3.7-0.7c-0.6-0.2-1.2-0.4-1.8-0.7    c-1.4-0.8-2.8-1.6-3.7-3c-0.2-0.3-0.6-0.6-0.8-1c-0.6-1.2-1.2-2.4-1.7-3.6c-0.2-0.4-0.3-0.9-0.4-1.3c-0.2-0.9-0.4-1.7-0.5-2.6    c-0.1-1-0.2-1.9-0.1-2.9c0.1-1.1,0.4-2,0.8-3c0.6-1.5,1.1-2.9,1.7-4.4c0.2-0.6,0.4-1.1,0.7-1.7c0.4-0.8,1-1.5,1.6-2.2    c0.2-0.2,0.4-0.4,0.6-0.6c0.7-0.6,1.3-1.3,2-1.9c0.6-0.4,1.2-0.7,1.8-1.1c0.2-0.1,0.4-0.3,0.6-0.4c1.3-0.6,2.7-1.1,4.1-1.2    c0.8-0.1,1.6,0,2.3,0.3c0.6,0.2,1.1,0.6,1.6,0.9c0.1,0.1,0.2,0.2,0.2,0.3c0.1,0.2,0.1,0.4-0.2,0.4c-0.4,0.1-0.7,0.2-1.1-0.1    c-1.2-0.9-2.6-0.7-3.9-0.3c-1.4,0.4-2.5,1.1-3.7,1.9c-0.9,0.6-1.6,1.2-2.3,2c-0.6,0.6-1,1.3-1.6,2c-0.2,0.2-0.1,0.5,0.1,0.7    c0.2,0.3,0.5,0.5,0.7,0.8c0.2,0.3,0.4,0.7,0.6,1c0.7,1.1,1.6,2.1,2.6,3.1c1.5,1.5,2.8,3.1,4.2,4.6C471.5,24,471.7,24.1,471.8,24.3    "/>
		<path class="st2" d="M494,30.9c0,0.1,0,0.3,0,0.4c-0.1,0.9-0.2,1.8-0.2,2.7c0,0.6,0.1,1.2,0.4,1.8c0.5,0,1.1-0.2,1.6,0.1    c0.1,0,0.1,0,0.2,0c1,0,2.1-0.1,3.1-0.1c0,0,0.1-0.1,0,0c0-0.3,0-0.6,0-0.9c0-0.5,0-1,0-1.6c0-1-0.2-2-0.1-3.1c0-0.3,0-0.7,0-1    C498.2,29.1,495.1,30.1,494,30.9 M492.3,30.6c0.2-0.1,0.3-0.1,0.5-0.2c-0.1-0.1-0.1-0.2-0.2-0.3c-0.1-0.3,0-0.4,0.3-0.5    c1.2-0.4,2.4-1,3.6-1.3c1.1-0.3,2.2-0.4,3.3-0.1c0.7,0.2,1,0.7,1,1.4c-0.2,1.3-0.1,2.6-0.1,3.9c0,0.5,0,1.1,0,1.6    c0,0.4-0.2,0.8-0.6,1c0,0,0,0.1,0,0.1c0.2,0.7,0.1,0.9-0.6,0.9c-1,0-2,0.1-2.9,0c-0.7,0-1.3-0.1-2-0.2c-0.1,0-0.2-0.1-0.4-0.2    c-0.2-0.1-0.3-0.2-0.5-0.2c-0.7,0-1.1-0.2-1.2-0.9c-0.1-0.8-0.2-1.7-0.2-2.6C492.3,32.3,492.3,31.5,492.3,30.6"/>
		<path class="st2" d="M493.9,9.3c0,0.4,0,0.9,0,1.3c-0.1,1.1-0.1,2.3,0.1,3.4c0,0.1,0.1,0.2,0.2,0.4c1.6-0.2,3.1-0.3,4.7-0.5    c0-0.5,0-1,0.1-1.5c0.1-1.3,0.4-2.5,0.6-3.8c0.1-0.3,0.3-0.7,0.1-1.1C498.8,7.5,495.9,8.3,493.9,9.3 M492.1,8.7    c0.1-0.2,0.3-0.3,0.6-0.4c0.3-0.1,0.7-0.3,1-0.4c0.5-0.2,0.9-0.3,1.4-0.3c0.3,0,0.7-0.3,1-0.4c0.5-0.2,1-0.3,1.6-0.5    c1-0.2,1.9-0.4,2.9,0c0.2,0.1,0.3,0.1,0.5,0.2c0.3,0.2,0.4,0.4,0.4,0.7c-0.1,0.8-0.3,1.6-0.5,2.4c-0.3,1-0.4,2-0.5,3    c0,0.3-0.1,0.5-0.1,0.8c0,0.1,0,0.3,0,0.4c0.1,0.5-0.1,0.8-0.6,0.7c-0.5-0.1-1,0-1.6,0.1c-0.8,0.1-1.6,0.1-2.4,0.2    c-0.3,0-0.7,0-1,0c-0.2,0-0.4,0-0.6,0.2c-0.5,0.4-1.3-0.1-1.4-0.7c0-0.4-0.1-0.8-0.2-1.2c-0.1-0.7-0.2-1.4-0.2-2.2    c0-0.7-0.1-1.5-0.1-2.2C492.2,9,492.2,8.9,492.1,8.7"/>
		<path class="st2" d="M499,25c0-0.4,0.1-0.7,0.1-1c0-0.4,0-0.7,0-1.1c0.1-0.9,0.2-1.8,0.3-2.7c0.1-0.6-0.1-0.9-0.7-1    c-1-0.2-2-0.1-2.9,0.4c-0.5,0.3-1,0.6-1.6,0.6c-0.2,1.2-0.1,4.2,0.2,4.9C496,25,497.5,24.7,499,25 M500.7,25.9    c-0.2,0.2-0.3,0.3-0.7,0.3c-0.9-0.1-1.9-0.3-2.8-0.1c-0.4,0.1-0.8,0.1-1.2,0.2c-0.2,0-0.4,0-0.6,0.1c-0.7,0.3-1.4,0-2-0.3    c-0.3-0.2-0.5-0.4-0.5-0.8c0-1.1-0.1-2.1-0.2-3.2c0-0.3,0-0.5,0-0.8c0-0.5-0.1-1.1-0.1-1.6c0-0.3,0.1-0.5,0.3-0.5    c0.7,0,1.3-0.3,1.8-0.6c1.3-0.7,2.6-0.7,4-0.5c0.5,0.1,1,0.2,1.4,0.3c0.3,0.1,0.5,0.3,0.7,0.5c0.3,0.2,0.2,0.5,0.2,0.7    c0.1,0.9-0.2,1.8-0.2,2.7c0,1-0.2,2-0.2,3C500.6,25.6,500.7,25.7,500.7,25.9"/>
		<path class="st2" d="M496.4,11c0.3-0.5,0.5-0.9,0.8-1.3c0.2-0.3,0.6-0.6,0.9-0.9c0.1-0.1,0.6,0,0.7,0.2c0.2,0.2,0.1,0.4,0,0.6    c-0.5,0.9-1,1.9-1.5,2.8c-0.1,0.1-0.2,0.2-0.2,0.4c-0.1,0.3-0.3,0.5-0.6,0.4c-0.3,0-0.7-0.1-0.8-0.5c-0.2-0.6-0.4-1.3-0.6-1.9    c-0.1-0.3,0.1-0.4,0.4-0.4c0.2,0,0.4,0.1,0.5,0.2C496.1,10.7,496.2,10.8,496.4,11"/>
		<path class="st0" d="M465.7,43.4c0.4,0.1,0.7,0.1,1,0.2c0.7,0.1,1.2,0.5,1.3,1.3c0.1,0.8-0.1,1.5-0.7,2c-0.8,0.6-1.5,1.2-2.3,1.8    c-2.6,2.2-5,4.7-7.2,7.4c-0.5,0.6-1.1,1.1-1.6,1.7c-1.1-0.2-1.8-0.8-2.4-1.7c-1.4-2-2.9-4-4.4-5.9c-0.2-0.3-0.4-0.5-0.9-0.9    c-0.3,5.3-0.8,10.2-0.9,15.1c-0.7,0.6-1.1,0.3-1.6-0.1c-0.5-0.5-0.9-1-0.9-1.8c0.1-2.1,0.2-4.3,0.3-6.4c0.1-2.5,0.3-4.9,0.3-7.4    c-3,3.9-5.5,8.2-8,12.6c-1-0.1-2-0.2-2.9-0.3c-0.6-0.1-1-0.5-1.2-1.2c-0.3-1,0.1-1.7,1-1.7c1.4,0.1,2-0.8,2.5-2.1    c0.3-0.7,0.7-1.3,1.1-1.9c1.6-2.4,3.3-4.9,4.9-7.3c0.8-1.2,1.5-2.4,2.1-3.7c0.6-1.1,1.5-1.1,2.4-1c0.7,0.1,1.5,1.3,1.3,2.3    c-0.2,1.3,0.4,2.2,1,3c1.3,1.8,2.6,3.5,3.9,5.3c1,1.3,1.4,1.4,2.5,0.2c2.5-2.4,4.9-4.8,7.3-7.2C464.3,44.9,465,44.2,465.7,43.4"/>
		<path d="M458.7,78.8c-1.1-0.1-2-0.3-3-0.3c-3.2,0.2-6.4,0.5-9.7,0.7c-1.8,0.1-3.6-0.1-5.4-0.1c-1.2,0-2.3,0-3.6,0    c-0.2,2.3-0.3,4.5-0.5,6.6c-0.1,0.7-0.2,1.4-0.4,2c-0.3,0.9-1.1,1-1.6,0.3c-0.6-0.9-0.8-2-0.6-3.2c0.4-1.7,0.5-3.4,0.4-5.1    c-1.3,0-2.4-0.6-3.7-0.4c-0.9,0.1-1.8-1.6-1.5-2.6c0-0.2,0.1-0.4,0.2-0.4c0.8-0.3,1.7-1,2.4-0.7c1.3,0.4,2.6,0.2,4,0.2    c2.4,0,4.8,0.2,7.2,0.1c3.2-0.1,6.3-0.5,9.5-0.7c2.6-0.1,5.1,0,7.7,0c1.3,0,2.5-0.2,3.8-0.3c1.2-0.1,1.9,0.4,2.1,1.7    c0.2,1-0.1,1.6-1,1.8c-1,0.2-1.9,0.3-2.9,0.4c-0.7,0.1-1.1,0.3-1.1,1.2c0.1,2.1,0.1,4.3,0.2,6.4c0,1.1,0,2.1-0.1,3.2    c0,0.4-0.4,0.9-0.7,1c-0.2,0.1-0.7-0.2-0.9-0.4c-0.8-0.9-1.2-1.9-1.1-3.3C458.9,84.1,458.7,81.6,458.7,78.8"/>
		<path class="st0" d="M446.5,29.8c-0.1,0.1-0.2,0.1-0.4,0.2c0.4,1.5,0.7,3.1,1.1,4.5c0.4,1.1,1,1.2,1.8,0.5    c0.6-0.6,1.2-1.1,1.5-2.1c0.7-2.3,1.1-4.6,0.8-7c-0.1-0.9-0.1-1.9-0.4-2.8c-0.2-0.5-0.6-1.1-1.1-1.3c-0.3-0.1-0.8,0.5-1.2,0.9    c-0.2,0.3-0.4,0.7-0.5,1.1c-0.6,2-1.1,4,0.5,5.7c0.3,0.4,0.4,1,0.6,1.6C448.2,31.3,447.3,30.7,446.5,29.8 M443.8,23.4    c0.1-1.5,0.3-2.9,1.5-3.7c0.3-0.2,0.6-0.5,0.8-0.4c1,0.5,1.7-0.2,2.6-0.4c1.5-0.4,2.6,0.8,3.5,2.1c0.4,0.5,0.6,1.1,0.8,1.7    c1.2,4.5,1.2,9-0.7,13.3c-1.1,2.5-3.4,3.1-5.3,1.4c-1.3-1.2-2-2.8-2.4-4.6C443.9,29.6,443.7,26.5,443.8,23.4"/>
		<path d="M519.3,64.8c0.5-2.9,0.8-5.8,0.5-8.8c-0.1-0.7-0.2-1.3-0.3-1.9c0-0.2-0.1-0.6-0.2-0.6c-0.7-0.3-1.2-1-1.6-1.8    c-0.1-0.2-0.4-0.1-0.6,0c-0.2,0.2-0.5,0.4-0.6,0.8c-0.7,2.3-1.6,4.6-1.7,7.3c-0.1,1.6-0.1,3.2-0.1,4.8c0,0.5,0.1,1,0.2,1.5    c0.3,1.4,1,2.2,1.8,1.6c0.6-0.5,1.1-0.3,1.6,0.1C518.7,66.8,519.1,65.9,519.3,64.8 M512.4,57.4c0.3-3.7,1.4-6.5,3.5-8.3    c2-1.7,4.2-1.3,5.2,2.6c0.6,2.2,0.9,4.5,0.9,6.9c-0.1,2.4-0.1,4.9-0.7,7.2c-0.4,1.5-0.8,3-1.7,3.8c-1.7,1.6-3.5,1.9-5.3,0.5    c-0.8-0.6-1.4-1.5-1.6-2.9c-0.2-1.2-0.2-2.5-0.3-3.7c-0.1-0.9-0.2-1.8-0.3-3.2C512.4,59.7,512.3,58.5,512.4,57.4"/>
		<path d="M411.4,54.4c-0.5,0.1-0.7,0.5-0.9,1c-1,2.5-1.5,5.1-1,7.9c0.1,0.5,0.1,1.1,0.2,1.6c0.3,2.1,1.3,3.8,3,4.8    c1.4,0.9,2.5,0.5,3.1-1.3c0.5-1.4,0.6-2.9,0.6-4.4c0-3.6-0.8-7-2.2-10.1c-0.2-0.5-0.4-1-1.1-1.2C412.7,53.6,412.1,54.2,411.4,54.4     M417.4,69.3c-0.8,2.1-2.7,3.3-4.6,2.7c-2.6-0.7-4.5-2.4-5-5.7c-0.1-0.7-0.2-1.3-0.4-2c-0.5-3.4-0.3-6.6,1-9.8    c0.2-0.5,0.6-1.1,0.9-1.5c0.7-0.8,1.5-1.6,2.2-2.3c0.2-0.2,0.5-0.3,0.7-0.3c1.1-0.1,2,0.1,2.7,1.1c0.5,0.7,1,1.4,1.2,2.1    c0.9,2.9,1.7,5.9,1.9,9.1C418.5,64.9,418.2,67.2,417.4,69.3"/>
		<path d="M410.6,84.2c0,0.7,0.1,1.2,0.1,1.7c-0.1,2.6-0.3,5.2-0.5,7.8c-0.1,0.8-0.2,1.6-0.7,2.2c-0.4,0.6-0.5,1.2-0.2,1.9    c0.1,0.2,0,0.6,0,1c-1.6-0.5-3.1-0.9-4.6-1.4c-1.4-0.5-2.9-0.9-4.4-1.7C403.1,92.2,409.5,85,410.6,84.2 M397.5,97.9    c0.3,0.1,0.6,0.2,0.9,0.3c3.5,0.8,7,1.9,10.4,3.1c0.4,0.1,0.8,0.4,1.1,0.6c0.2,1.9,0.1,3.6-0.1,5.3c-0.1,0.8-0.1,1.5,0,2.2h3.7    c0-0.2,0-0.4,0-0.6c-0.1-1.5-0.4-3.1-0.6-4.6c-0.1-0.5-0.3-1.1,0-1.7c0.9,0,1.8,0.3,2.6,0.6c1.1,0.4,2.3,0.4,3.4,1    c0.7,0.3,1.4-0.2,1.9-0.7c0.5-0.5,0.8-1.2,0.3-2.1c-0.7-0.3-1.4-0.8-2.3-0.3c-0.2,0.1-0.4,0.1-0.6,0.1c-1.8-0.4-3.6-0.5-5.4-1.4    c0-0.3,0-0.7,0-1c0-0.3,0.1-0.6,0-0.9c-0.6-1.7-0.7-3.4-0.5-5.2c0.2-2.6,0.3-5.3,0.4-8c0-0.5,0-1.1,0.3-1.5    c0.1,0.1,0.3,0.1,0.3,0.2c1.1,1.7,2.2,3.4,3.3,5c0.3,0.4,0.5,0.8,0.8,1.1c1.1,1.1,2,2.4,2.8,3.8c0.5,0.8,1,1,1.8,0.5    c0.8-0.5,1.2-0.8,1.1-2.2c-0.2-1.7-0.2-3.3-0.2-5c0.1-3.1,0.2-6.2-0.2-9.3c-0.1-1,0-1.8,0.4-2.7c0.4-0.7,0.6-1.6,0.9-2.4    c0.1-0.3,0.1-0.6,0.2-0.9c0.1-0.6-0.3-1.2-0.7-1.3c-0.5-0.1-1,0.1-1.2,0.6c-0.1,0.3-0.2,0.7-0.3,1c-0.2,0.7-0.5,1.2-1,1.7    c-0.4,0.3-0.7,0.8-0.9,1.3c-0.5,0.9-0.4,1.1,0.2,2c0.2,0.2,0.3,0.5,0.4,0.8c0.2,1.7,0.5,3.4,0.4,5.1c-0.1,1.5-0.1,3-0.2,4.4    c0,0.7-0.1,1.3-0.2,2.2c-0.4-0.3-0.7-0.4-0.9-0.6c-1.1-1.4-2.3-2.7-3-4.3c-0.1-0.3-0.3-0.6-0.5-0.9c-0.8-1.3-1.5-2.7-1.8-4.3    c-0.2-0.9-1-1.5-1.8-1.5c-0.8,0-1.6,0.6-1.7,1.6c-0.1,1.1-0.6,1.8-1.1,2.6c-1.3,1.9-2.8,3.7-4.4,5.4c-0.7,0.8-1.5,1.6-2.1,2.5    c-1.6,2.1-3.5,4-5.4,5.8c-0.3,0.2-0.5,0.4-0.7,0.7C396.5,96.5,396.7,97.6,397.5,97.9"/>
		<path d="M515.5,83.9c0,0-0.1,0-0.1-0.1c0-0.1,0-0.1,0.1-0.2c0,0,0.1,0,0.1,0.1C515.5,83.7,515.5,83.8,515.5,83.9 M531.1,93.5    c-0.1-0.3-0.3-0.5-0.4-0.7c-0.6-0.8-1.1-1.5-1.7-2.3c-1.1-1.6-2.3-2.9-3.7-4c-1.9-1.6-3.8-3.5-5.6-5.3c-0.5-0.5-0.9-1.2-1.3-1.8    c-0.4-0.7-1-1.1-1.5-1.2c-0.8-0.2-1.5,0.1-2,1.2c-0.4,0.8-0.7,1.7-1,2.6c-1.2,3.7-3.1,6.4-5.1,9c0,0-0.1,0-0.2,0    c-0.3-0.6-0.3-1.4-0.3-2.1c0-3.7,0.3-7.2,1.2-10.7c0.1-0.4,0.2-0.8,0.3-1.2c0.7-1.7,0.3-3.4,0-5.1c-0.1-0.5-0.3-0.9-0.7-0.9    c-0.4,0-0.6,0.3-0.7,0.8c-0.1,0.5-0.2,1-0.3,1.4c-0.6,3.6-1.2,7.2-1.7,10.8c-0.3,2-0.3,4-0.3,6c-0.1,1.2-0.1,2.4-0.1,3.5    c0,0.9,0.3,1.5,0.8,1.6c0.7,0.2,1.2,0,1.8-0.8c2-2.6,3.9-5.2,5.5-8.5c0.2-0.4,0.4-0.7,0.7-1.1c0.6,0.6,0.5,1.4,0.5,2    c-0.1,1.4-0.3,2.8,0,4.3c0,0.1,0,0.3,0,0.5c-0.3,4.5-0.5,8.9-0.8,13.4c-0.1,1.1-0.2,2.2-0.3,3.3h2.1c0.1-0.9,0.2-1.7,0.3-2.6    c0-0.1,0.1-0.2,0.3-0.5c0.1,1.1,0.1,2.1,0.2,3.1h1.8c-0.1-2.6-0.3-5.2-0.4-7.8c-0.1-1.6-0.1-3.2-0.1-4.8c-0.1-3-0.2-6.1-0.2-9.1    c0-0.3,0-0.7,0-1.1c0.5-0.3,1-0.6,1.4-0.9c1.6,1.1,7.4,6.4,8.2,7.4c0.1,0.2,0.2,0.5,0.3,0.8c-0.5,0.5-0.9,0.4-1.3,0.4    c-1.9-0.1-3.6,1-5.3,1.8c-0.3,0.1-0.5,0.4-0.7,0.6c-0.8,0.8-0.8,1.9-0.1,2.9c0.2,0.3,0.5,0.7,0.8,0.8c0.9,0.5,1.8,0.9,2.3,2.4    c0.3,0.8,1.1,0.4,1.3-0.5c0.2-0.9,0.3-1.8,0-2.7c-0.2-0.6-0.4-1.1-0.7-1.6c0.1-0.6,0.4-0.6,0.7-0.7c1.5-0.6,3-0.9,4.6-0.8    c0.5,0,1,0.1,1.4-0.4C531.3,94.7,531.4,94,531.1,93.5"/>
		<path d="M503,89.6c-1.9-2.3-3.8-4.6-5.7-6.8c-1.7-1.9-3.5-3.7-5.2-5.6c-0.4-0.4-0.7-1-1-1.5c-0.3-0.4-0.6-0.6-1-0.6    c-0.6,0.1-1.2,0-1.7,0.3c-1.6,0.9-3.3,1.2-5,1.6c-2.1,0.5-4.1,0.8-6.2,1.1c-0.7,0.1-1.5,0.3-2.2,0.5c-0.3,0.1-0.7,0.2-1,0.4    c-0.4,0.3-0.6,0.8-0.4,1.3c0.1,0.3,0.2,0.6,0.4,0.8c0.8,1.5,1.5,3,2.3,4.4c0.5,0.8,1,1.7,1.6,2.4c1,1.3,1.8,2.7,2.5,4.3    c-0.4,0.4-0.7,0.9-1.1,1.1c-1.3,0.8-2.1,2.2-3.1,3.3c-0.6,0.7-0.3,1.6,0.5,1.9c0.9,0.4,1.8,0.1,2.2-1c0.4-1.1,1.1-1.7,1.9-2.3    c0.3-0.2,0.7-0.5,1.1-0.7c0.4-0.2,0.8-0.4,1.3-0.7c0.2-0.4,0.4-0.9,0.6-1.4c-0.1-0.2-0.1-0.4-0.2-0.5c-2.1-2.3-3.5-5.1-5.3-7.6    c-0.8-1.1-1.2-2.4-1.5-3.6c0.4-0.6,0.9-0.7,1.4-0.8c2-0.4,3.9-0.7,5.9-1.1c0.7-0.1,1.5-0.3,2.2-0.5c0.7-0.1,1.3,0.2,1.2,1.1    c0,2.2,0,4.5-0.1,6.7c-0.1,2.8-0.2,5.6-0.2,8.4c0,2.2-0.2,4.4-0.5,6.6c-0.3,2.1-0.3,4.2-0.6,6.3c0,0.2,0,0.3-0.1,0.5    c0.7,0,1.4,0.1,2.1,0.1c0.2-1.3,0.4-2.7,0.3-4c0-0.4,0.1-0.7,0.2-1.1c0.5-2.1,0.6-4.2,0.7-6.3c0.1-1.4,0.3-2.8,0.2-4.2    c0.2,0.1,0.3,0.2,0.3,0.3c0.3,1.4,0.7,2.9,1,4.3c0.2,1.6,0.3,3.3,0.5,5c0,0.1,0,0.3,0,0.4c0.6,1.6,0.5,3.3,0.7,4.9    c0,0,0,0.1,0,0.1c0.6,0.2,1.3,0.4,2,0.5c-0.1-0.4-0.1-0.8-0.2-1.2c-0.2-1.3-0.2-2.6-0.3-3.9c-0.1-1.3-0.3-2.6-0.5-3.9    c-0.4-2.9-0.7-5.9-1-8.8c-0.3-2.8-0.5-5.5-0.8-8.3c0-0.5,0-1,0-1.7c0.5,0.3,0.9,0.5,1.2,0.8c2.8,2.6,5.5,5.2,7.4,8.7    c-0.3,0.7-0.9,0.9-1.5,1.2c-0.5,0.2-0.9,0.5-1.4,0.8c-0.8,0.5-1.1,1.3-1,2.2c0.1,0.4,0.2,0.8,0.4,1.2c0.3,0.6,0.5,1.1,0.9,1.6    c0.5,0.8,1,1.5,1.1,2.5c0.1,0.5,0.6,0.8,1.1,0.7c0.9-0.2,1.4-0.8,1.3-1.7c-0.1-1.1-0.4-2.1-0.9-3c-0.2-0.3-0.4-0.6-0.5-1    c-0.2-0.5-0.1-0.9,0.3-1.1c0.8-0.5,1.6-1,2.4-1.5c0.3-0.2,0.6-0.4,0.9-0.6C503.4,90.7,503.4,90.1,503,89.6"/>
		<path d="M482.5,57c0-0.6-0.1-1.1-0.1-1.7c0-1.3,0-2.6,0.5-3.8c0.4-1.1,1.1-1.7,2.2-1.8c1.1-0.1,2.2,0,3.1,0.9    c0.4,0.4,0.7,0.5,1.3,0.5c0.8,0,1.4,0.5,1.8,1.2c0.2,0.4,0.4,0.8,0.6,1.1c1.5,3.7,1.8,7.5,1.6,11.5c-0.1,1.5-0.6,2.9-1.9,3.8    c-0.8,0.5-1.6,0.8-2.5,0.5c-0.4-0.2-0.9-0.2-1.3-0.5c-2.7-1.6-4.5-3.9-5-7.2c-0.2-1.5-0.3-3.1-0.4-4.6C482.4,57,482.4,57,482.5,57     M487.4,57.1c0.4-1.2,0.7-2.4,0-3.6c-0.4-0.7-0.6-1.5-1.5-1.7c-0.9,0.6-1.1,1.6-1.2,2.5c-0.2,2.5-0.3,5,0.3,7.4    c0.5,2.1,1.5,3.9,3.2,5.2c0.3,0.2,0.6,0.4,0.9,0.5c0.5,0.2,1.1,0,1.4-0.5c0.2-0.4,0.4-0.9,0.5-1.4c0.5-2.8,0.4-5.7-0.3-8.4    c-0.1-0.3-0.2-0.5-0.4-0.9C489.3,56.6,488.6,57.6,487.4,57.1"/>
	</g>
	<g id="_x32_">
		<path class="st2" d="M256.1,21c0,0,0,0.1,0,0.1c0.2,0.1,0.4,0.3,0.7,0.4V21C256.5,21,256.3,21,256.1,21 M256.4,25.2    c0.1-0.6,0.1-1.1,0.1-1.6c0-0.5,0.3-1,0.1-1.6c-0.9,0.9-1.6,1.9-2.5,2.6c-0.4-0.2-0.8-0.3-0.8-0.7c0-0.3-0.2-0.4-0.4-0.4    c-0.3-0.1-0.6-0.4-0.7-0.7c0.3-0.5,0.3-0.5,0.8-0.3c0.3,0.1,0.6,0.3,0.9,0.5c0.4-0.1,0.6-0.5,0.9-0.8c0.3-0.3,0.6-0.5,0.9-1    c-1.3,0.3-2.4,0.6-3.6,0.9c0,0,0,0,0,0.1c0,0.8-0.1,1.5-0.1,2.3c0,0.1,0.2,0.3,0.3,0.4c0.6,0,1.1,0.1,1.7,0    C254.8,24.7,255.6,24.9,256.4,25.2 M250.7,20.6c0.2,0,0.4,0,0.6,0.1c0.3,0.1,0.5,0.1,0.8,0.1c0.7-0.1,1.4-0.3,2.1-0.5    c0.4-0.1,0.8-0.3,1.3-0.4c0.5-0.1,1-0.1,1.4-0.1c0.5,0,1,0.7,1.1,1.2c0.1,0.8-0.1,1.5-0.2,2.2c-0.2,0.8-0.3,1.6-0.2,2.4    c0,0.1,0,0.2,0,0.3c0,0.6-0.3,0.7-0.8,0.5c-0.4-0.2-0.8-0.3-1.3-0.4c-0.4-0.1-0.9-0.1-1.3-0.1c-0.7,0-1.4,0.1-2.1,0.1    c-0.5,0-1.1-0.5-1.1-1c-0.1-0.7-0.1-1.4-0.1-2.1c0-0.4,0-0.9,0-1.3c0-0.1,0-0.2-0.1-0.3C250.6,21.2,250.6,20.9,250.7,20.6"/>
		<path class="st2" d="M248.2,21c0,0,0,0.1,0,0.1c0.2,0.1,0.4,0.3,0.7,0.4v-0.6C248.6,20.9,248.4,21,248.2,21 M248.5,25    c0-0.5,0.1-1,0.1-1.5c0-0.5,0.3-1,0.1-1.5c-0.8,0.9-1.5,1.8-2.4,2.5c-0.4-0.2-0.7-0.3-0.8-0.7c0-0.3-0.2-0.3-0.4-0.4    c-0.3-0.1-0.6-0.3-0.7-0.7c0.3-0.5,0.3-0.5,0.8-0.3c0.3,0.1,0.6,0.3,0.9,0.5c0.4-0.1,0.6-0.5,0.9-0.8c0.3-0.3,0.6-0.5,0.8-0.9    c-1.2,0.3-2.3,0.6-3.5,0.8c0,0,0,0,0,0.1c0,0.7-0.1,1.4-0.1,2.2c0,0.1,0.2,0.3,0.3,0.3c0.5,0,1.1,0.1,1.6,0    C246.9,24.5,247.7,24.6,248.5,25 M242.9,20.5c0.2,0,0.4,0,0.6,0.1c0.3,0.1,0.5,0.1,0.8,0.1c0.7-0.1,1.4-0.3,2-0.4    c0.4-0.1,0.8-0.3,1.2-0.4c0.5-0.1,0.9-0.1,1.4-0.1c0.5,0,1,0.7,1.1,1.1c0.1,0.7-0.1,1.4-0.2,2.1c-0.1,0.8-0.3,1.5-0.2,2.3    c0,0.1,0,0.2,0,0.2c0,0.6-0.2,0.7-0.8,0.4c-0.4-0.2-0.8-0.3-1.2-0.4c-0.4-0.1-0.8-0.1-1.2-0.1c-0.7,0-1.4,0.1-2,0.1    c-0.4,0-1-0.4-1.1-0.9c-0.1-0.7-0.1-1.3-0.1-2c0-0.4,0-0.8,0-1.2c0-0.1,0-0.2-0.1-0.3C242.9,21.2,242.9,20.9,242.9,20.5"/>
		<path class="st2" d="M240.4,25.3c0-0.1,0-0.2,0.1-0.2c0.1-0.6,0.2-1.2,0.3-1.8c0.1-0.4,0.2-0.7,0.3-1c0.1-0.5,0.1-1,0.2-1.4    c-0.1,0-0.2-0.1-0.3-0.1c-1-0.1-1.9,0.1-2.8,0.5c-0.5,0.2-1,0.5-1.6,0.7c-0.3,0.1-0.4,0.2-0.4,0.5c0,0.8-0.2,1.6-0.1,2.4    c0,0,0,0.1,0,0.1c-0.2,0.5-0.1,0.6,0.4,0.6c0.1,0,0.2,0,0.3,0C237.9,25.3,239.1,25.3,240.4,25.3 M234.5,20.7c0.2,0,0.3,0,0.4,0.1    c0.5,0.1,1,0.1,1.4-0.2c0.1,0,0.2-0.1,0.3-0.1c0.5-0.1,0.9-0.2,1.3-0.4c0.7-0.3,1.6-0.4,2.4-0.4c0.3,0,0.6,0,0.9,0.2    c0.7,0.3,1.1,1,1,1.7c-0.2,0.9-0.3,1.9-0.6,2.7c-0.2,0.5-0.1,1.1-0.3,1.6c-0.1,0.3-0.4,0.5-0.7,0.5c-1.3,0-2.7,0-4,0    c-0.4,0-0.8-0.1-1.2-0.3c-0.3-0.1-0.4-0.4-0.4-0.7c0-0.5,0-1,0-1.6c0-0.6,0.1-1.2,0.1-1.7c0-0.3-0.1-0.5-0.3-0.7    C234.5,21.2,234.5,21.2,234.5,20.7"/>
		<path d="M261.9,52.1c-0.2-0.8-0.7-1.4-1.2-2.2c-0.3-0.4-0.7-0.4-0.8,0.1c-0.2,0.5-0.3,1-0.4,1.5c-0.3,1.4-0.6,2.9-0.8,4.3    c-0.1,0.7-0.3,1.5-0.4,2.2c-0.5,3.8-0.9,7.6-1.4,11.3c0,0.2,0,0.4,0,0.5c0,0.4,0.3,0.7,0.7,0.5c0.4-0.2,0.8-0.5,1.1-0.8    c0.3-0.3,0.7-0.7,1-1c0.5-0.6,1-1.2,1.4-1.9c1.2-1.9,1.7-4.1,1.8-6.3c0.1-1.5,0.1-3,0-4.5C262.7,54.7,262.5,53.4,261.9,52.1     M266.1,60.9c0.5,0.4,0.9,0.3,1.3,0.3c1.1,0.2,1.9,0.9,2,2.1c0.3,3,0.5,6,0.2,9c-0.2,1.9-0.2,3.9-0.3,5.8c0,0.4,0,0.7-0.1,1.1    c-0.2,1.2-0.6,1.5-1.8,1.7c-0.8,0.1-1.6,0.3-2.3,0.3c-1,0.1-2.1,0.1-3.1,0.1c-0.8,0-1.5,0.1-2.2,0.3c-1.2,0.4-2.3,0.1-3.4-0.3    c-0.4-0.1-0.9-0.5-0.9-1c0-0.6,0.5-0.7,0.8-0.9c0.2-0.1,0.5-0.2,0.7-0.2c0.7-0.1,1.4-0.2,2.1-0.4c0.9-0.2,1.8-0.3,2.7,0    c1,0.3,1.9,0,2.8-0.1c0.6-0.1,1-0.6,1.1-1.3c0.1-1,0.2-2,0.3-3c0.1-1.1,0.2-2.3,0.3-3.4c0.2-2,0.3-4.1-0.2-6.1    c-0.1-0.2-0.2-0.5-0.3-0.7c-0.5,0.1-0.6,0.5-0.7,0.9c-0.3,0.8-0.7,1.6-1.1,2.4c-1,1.7-2.4,2.9-4,3.9c-0.8,0.5-1.6,0.9-2.5,1.3    c-0.6,0.3-1,0.7-1.2,1.4c-0.2,0.8-0.5,1-1.2,1c-0.4,0-0.7-0.1-1.1-0.2c-0.8-0.3-1-0.7-0.8-1.7c0.4-2.3,0.8-4.5,1.1-6.8    c0-0.1,0-0.3,0-0.4c0.1-3,0.7-5.9,1-8.9c0.2-2.2,0.7-4.4,1-6.6c0.1-0.7,0.3-1.3,0.5-1.9c0.2-0.7,0.1-1.4-0.3-2    c-0.4-0.6-0.1-1.2,0.6-1.2c1,0,2,0.3,2.8,1c0.8,0.9,1.7,1.6,2.5,2.4c2.2,2.3,3.6,5,3.7,8.3c0,0.9,0,1.8,0,2.7    C266,60.2,266.1,60.5,266.1,60.9"/>
		<path d="M229.5,115.7c-0.1-0.4-0.1-0.9-0.2-1.4c-0.1-0.6-0.1-1.2-0.2-1.8c-0.3-2.2-0.6-4.4-0.6-6.6c0-1.1,0-2.1,0-3.2    c0-0.2,0-0.4-0.1-0.7c-0.1-0.5-0.4-0.7-0.8-0.6c-0.9,0.1-1.7,0.2-2.6,0.4c-1,0.2-1.9,0.5-2.9,0.7c-0.7,0.2-1.4,0.5-2.2,0.6    c-0.6,0.2-1.3,0.3-2,0.4c-0.6,0.1-0.7,0.2-0.8,0.8c-0.2,0.8-0.2,1.7-0.2,2.5c0.1,1.6,0.1,3.1,0.2,4.7c0,0.3,0,0.5-0.1,0.8    c-0.1,0.8-0.2,1.7,0,2.5c0.1,0.3,0.1,0.6,0,0.9c-0.1,0.9-0.5,1.3-1.3,1.4c-0.2,0-0.3,0.1-0.5,0.1c-0.7,0-1.2-0.5-1.2-1.2    c0.1-1.8,0.1-3.5,0.3-5.3c0.1-1.1,0-2.2,0-3.3c0-1.2-0.1-2.5-0.1-3.7c0-0.3,0-0.6,0.1-0.8c0.3-0.8,0.2-1.6,0.2-2.4    c0-1.4-0.1-2.7-0.3-4.1c-0.1-0.8,0-1.6,0.1-2.4c0.2-1.5,0.2-3.1,0.1-4.7c0-1.3-0.1-2.7-0.1-4c0-1-0.1-2-0.2-3.1    c0-0.2-0.1-0.4,0-0.5c0.3-1.7-0.1-3.3-0.2-4.9c-0.1-0.9-0.2-1.9-0.3-2.8c-0.2-1.2,0-2.3,0-3.5c0.1-1.4,0.1-2.7,0.1-4.1    c0-0.5,0.2-0.9,0.5-1.1c0.6-0.4,1.2-0.3,1.5,0.3c0.2,0.4,0.4,0.8,0.4,1.2c0.1,0.6,0.1,1.1,0.1,1.7c0,1.6-0.1,3.2-0.1,4.8    c0,0.5,0,1,0,1.5c0.1,0.7,0.2,1.4,0.2,2.1c0.2,1.9,0.4,3.7,0.3,5.6c0,2.7,0.1,5.4,0.2,8.1c0.1,1.7-0.1,3.4-0.2,5    c-0.1,1.4,0,2.7,0.3,4.1c0.1,0.9,0.5,1.1,1.3,1.1c1.2,0,2.3-0.3,3.4-0.6c1.4-0.4,2.8-0.9,4.2-1c1.1-0.1,2.1,0,3.2-0.4    c0.6-0.2,1.2-0.1,1.8,0.2c0.6,0.3,0.8,1,0.5,1.7c-0.1,0.3-0.3,0.6-0.3,1c-0.1,1.5-0.3,3-0.2,4.5c0.1,1.6,0.2,3.2,0.3,4.8    c0.1,1.5,0.5,3,0.9,4.4c0.4,1.4,0.2,1.7-1.2,1.7C230.4,117,230.1,116.4,229.5,115.7"/>
		<path d="M247.5,111.1c-0.6,0.1-1-0.1-1.5-0.4c-0.4-0.3-0.6-0.6-0.5-1.1c0.2-2.6,0.4-5.2,0.6-7.8c0.1-1.9,0.2-3.7,0.2-5.6    c0-2-0.1-4,0.2-6c0-0.1,0-0.3,0-0.4c0-0.6-0.3-0.9-0.9-0.9c-0.2,0-0.4,0-0.6,0.1c-0.7,0.2-1.4-0.1-2-0.5c-0.5-0.3-0.7-0.7-0.6-1    c0.2-0.5,0.5-0.8,0.9-1c0,0,0.1,0,0.1,0c1.7,0.2,3.3-0.5,4.9-0.5c0.4,0,0.9-0.2,1.3-0.3c1.1-0.2,2.1-0.4,3.2-0.4    c2,0,4-0.3,6.1-0.5c0.9-0.1,1.9,0,2.9-0.1c1-0.1,1.9-0.2,2.8-0.3c1-0.1,2-0.2,2.9-0.5c1.2-0.4,2.2,0.3,3.1,1    c0.5,0.4,0.3,1.1-0.3,1.4c-0.2,0.1-0.5,0.1-0.7,0.2c-0.2,0-0.4,0-0.6,0c-1.3,0.2-1.5,0.4-1.6,1.9c-0.1,2.4-0.2,4.9,0,7.3    c0.2,2.8,0.2,5.6,0.3,8.4c0.1,1.4,0.2,2.8,0.5,4.2c0.2,0.8,0.2,1.6,0.3,2.4c0.1,0.6,0.1,1.2,0.2,1.9c0,0.6-0.2,0.9-0.7,0.9    c-0.5,0-1-0.1-1.5-0.2c-0.6-0.2-1-0.7-1-1.4c0.1-1.9-0.3-3.8-0.6-5.7c-0.1-0.4-0.1-0.9-0.1-1.3c0-2.6-0.1-5.2-0.3-7.8    c-0.1-2.2-0.2-4.3-0.2-6.5c0-0.7,0-1.3-0.1-2c-0.1-1-0.4-1.3-1.4-1.4c-0.7,0-1.5,0-2.2,0.1c-1.1,0.2-2.2,0.2-3.4,0.2    c-1.9,0.1-3.7,0.1-5.6,0.5c-0.4,0.1-0.8,0.1-1.2,0.1c-0.5,0-0.8,0.3-0.9,0.8c-0.4,1.8-0.8,3.6-0.8,5.5c0.1,2.2-0.1,4.3-0.1,6.5    c0,0.8-0.1,1.7-0.2,2.5c-0.1,1.8-0.2,3.6-0.3,5.4c0,0.4,0,0.7-0.1,1.1C248.1,110.4,247.9,110.8,247.5,111.1"/>
		<path d="M225.1,73.8c-0.4,0.6-0.2,1.4-0.4,2.1c-0.2,1.3-0.4,2.6-0.5,4c-0.1,0.9-0.3,1.8-0.4,2.8c-0.2,2.2-0.5,4.4-0.6,6.6    c-0.1,1.2,0.1,2.4,0.1,3.6c0,0.2,0,0.4,0.1,0.5c0.2,0.7,0.7,0.9,1.1,0.3c0.9-1.3,2.3-2,3.4-3.1c1.5-1.4,2.9-2.8,4.4-4.1    c0.7-0.6,1.3-1.2,2.1-1.6c0.5-0.2,0.9-0.2,1.3,0.2c0.7,0.6,1,1.2,0.9,2.2c-0.2,1.5-0.3,3.1-0.5,4.6c-0.4,3.6-0.5,7.2,0.1,10.7    c0.4,2.4,1.1,4.6,1.7,6.9c0.1,0.4,0.3,0.8,0.1,1.3c-0.1,0.2-0.4,0.4-0.5,0.2c-0.2-0.2-0.5-0.5-0.7-0.8c-0.8-1.7-1.6-3.3-2-5.1    c-0.1-0.4-0.3-0.8-0.4-1.3c-0.7-2.4-1.1-4.8-1.2-7.3c-0.1-1.9,0-3.7,0.3-5.6c0.1-0.7,0.1-1.5,0.2-2.3c0-0.4-0.3-0.7-0.7-0.4    c-0.9,0.7-1.8,1.3-2.6,2.1c-1.2,1.1-2.4,2.4-3.6,3.5c-0.9,0.8-1.7,1.7-2.1,2.9c-0.2,0.5-0.5,0.7-1,0.8c-1.2,0.1-2-0.4-2.4-1.6    c-0.2-0.8-0.4-1.6-0.5-2.5c-0.2-1.5-0.2-2.9-0.1-4.4c0.3-3.9,0.5-7.8,1-11.7c0.3-2.3,0.4-4.6,0.6-6.9c0.1-1,0.2-2,0.3-3    c0.1-0.9,0.9-1.4,1.7-1.2c0.7,0.2,1.1,0.7,1,1.5c0,0.7-0.1,1.4-0.2,2.1c0,0.4-0.1,0.8,0,1.2c0.1,0.7,0.5,1.1,1.1,1.3    c0.8,0.2,1.5,0.5,2.3,0.7c0.1,0,0.2,0.1,0.4,0.1c1.5,0.7,3,1.3,4.5,2c0.5,0.2,0.9,0.4,1.4,0.6c1,0.5,1.9,0.3,2.9-0.1    c1.4-0.7,2.7-1.4,4-2.1c0.5-0.3,1-0.4,1.6-0.3c0.2,0,0.4,0.2,0.5,0.3c0.1,0.1-0.1,0.5-0.2,0.6c-0.6,0.5-1.1,0.9-1.7,1.3    c-0.8,0.5-1.6,0.9-2.4,1.3c-0.6,0.3-1.1,0.7-1.5,1.1c-0.9,0.9-2,1-3,0.2c-0.9-0.8-2-1.3-3-1.8c-1.7-0.8-3.4-1.5-5.1-2.2    C226.3,73.8,225.7,73.6,225.1,73.8"/>
		<path d="M223.4,56.2c-0.1,1.1,0.4,2,0.9,2.8c0.3,0.6,0.8,1,1.2,1.5c0.3,0.3,0.7,0.3,1,0.1c0.6-0.4,1.2-0.9,1.6-1.7    c0.8-1.8,1.4-3.6,1.5-5.6c0.1-2.1-0.1-4.3-0.8-6.3c-0.1-0.4-0.3-0.8-0.5-1.2c-0.5-0.8-1.1-0.8-1.5,0c-0.3,0.4-0.5,1-0.6,1.5    c-0.4,1.6-0.7,3.2-1,4.8c-0.1,0.6-0.1,1.2-0.3,1.8C224.6,54.8,224.3,55.7,223.4,56.2 M222.1,58.3c-0.5-1.3-1.2-2.5-1.2-4    c0-0.2,0-0.4-0.1-0.5c-0.5-1.3-0.3-2.6-0.3-4c0-1.1,0.5-1.9,1.1-2.6c0.4-0.6,1.1-0.8,1.7-1c0.4-0.1,0.7-0.3,0.9-0.6    c0.1-0.1,0.2-0.2,0.3-0.4c0.8-1.2,1.7-1.4,3.3-0.8c1.3,0.5,2.1,1.4,2.5,2.7c0.6,1.7,0.7,3.5,0.7,5.2c0,1.1-0.1,2.1-0.2,3.2    c-0.1,0.6-0.2,1.1-0.3,1.7c-0.3,1.5-1.1,2.6-2.2,3.5c-1.3,1.1-3.6,1-4.8-0.2C223,59.8,222.4,59.1,222.1,58.3"/>
		<path d="M246.5,81.6c-0.2-0.5-0.4-0.8-0.5-1.1c-0.2-0.4-0.1-0.8,0.2-1c0.7-0.4,1.4-0.8,2.1-1.1c0.5-0.2,1-0.2,1.4,0.2    c0.6,0.4,1.3,0.9,1.8,1.3c0.2,0.2,0.4,0.5,0.5,0.7c0.3,0.7,0.2,1.1-0.5,1.5c-0.6,0.4-1.1,0.7-1.7,1.1c-0.9,0.6-1.7,0.5-2.6,0    c-0.3-0.2-0.5-0.4-0.6-0.8C246.6,82.1,246.5,81.8,246.5,81.6"/>
		<path d="M294.1,52c0.2-0.8,0.7-1.4,1.2-2.2c0.3-0.4,0.7-0.4,0.8,0.1c0.2,0.5,0.3,1,0.4,1.5c0.3,1.4,0.6,2.9,0.8,4.3    c0.1,0.7,0.3,1.5,0.4,2.2c0.5,3.8,0.9,7.6,1.4,11.3c0,0.2,0,0.4,0,0.5c0,0.4-0.3,0.7-0.7,0.5c-0.4-0.2-0.8-0.5-1.1-0.8    c-0.3-0.3-0.7-0.7-1-1c-0.5-0.6-1-1.2-1.4-1.9c-1.2-1.9-1.7-4.1-1.8-6.3c-0.1-1.5-0.1-3,0-4.5C293.3,54.6,293.5,53.3,294.1,52     M289.9,60.7c-0.5,0.4-0.9,0.3-1.3,0.3c-1.1,0.2-1.9,0.9-2,2.1c-0.3,3-0.5,6-0.2,9c0.2,1.9,0.2,3.9,0.3,5.8c0,0.4,0,0.7,0.1,1.1    c0.2,1.2,0.6,1.5,1.8,1.7c0.8,0.1,1.6,0.3,2.3,0.3c1,0.1,2.1,0.1,3.1,0.1c0.8,0,1.5,0.1,2.2,0.3c1.2,0.4,2.3,0.1,3.4-0.3    c0.4-0.1,0.9-0.5,0.9-1c0-0.6-0.5-0.7-0.8-0.9c-0.2-0.1-0.5-0.2-0.7-0.2c-0.7-0.1-1.4-0.2-2.1-0.4c-0.9-0.2-1.8-0.3-2.7,0    c-1,0.3-1.9,0-2.8-0.1c-0.6-0.1-1-0.6-1.1-1.3c-0.1-1-0.2-2-0.3-3c-0.1-1.1-0.2-2.3-0.3-3.4c-0.2-2-0.3-4.1,0.2-6.1    c0.1-0.2,0.2-0.5,0.3-0.7c0.5,0.1,0.6,0.5,0.7,0.9c0.3,0.8,0.7,1.6,1.1,2.4c1,1.7,2.4,2.9,4,3.9c0.8,0.5,1.6,0.9,2.5,1.3    c0.6,0.3,1,0.7,1.2,1.4c0.2,0.8,0.5,1,1.2,1c0.4,0,0.7-0.1,1.1-0.2c0.8-0.3,1-0.7,0.8-1.7c-0.4-2.3-0.8-4.5-1.1-6.8    c0-0.1,0-0.3,0-0.4c-0.1-3-0.7-5.9-1-8.9c-0.2-2.2-0.7-4.4-1-6.6c-0.1-0.7-0.3-1.3-0.5-1.9c-0.2-0.7-0.1-1.4,0.3-2    c0.4-0.6,0.1-1.2-0.6-1.2c-1,0-2,0.3-2.8,1c-0.8,0.9-1.7,1.6-2.5,2.4c-2.2,2.3-3.6,5-3.7,8.3c0,0.9,0,1.8,0,2.7    C290,60,289.9,60.4,289.9,60.7"/>
		<path d="M326.5,115.6c0.1-0.4,0.1-0.9,0.2-1.4c0.1-0.6,0.1-1.2,0.2-1.8c0.3-2.2,0.6-4.4,0.6-6.6c0-1.1,0-2.1,0-3.2    c0-0.2,0-0.4,0.1-0.7c0.1-0.5,0.4-0.7,0.8-0.6c0.9,0.1,1.7,0.2,2.6,0.4c1,0.2,1.9,0.5,2.9,0.7c0.7,0.2,1.4,0.5,2.2,0.6    c0.6,0.2,1.3,0.3,2,0.4c0.6,0.1,0.7,0.2,0.8,0.8c0.2,0.8,0.2,1.7,0.2,2.5c-0.1,1.6-0.1,3.1-0.2,4.7c0,0.3,0,0.5,0.1,0.8    c0.1,0.8,0.2,1.7,0,2.5c-0.1,0.3-0.1,0.6,0,0.9c0.1,0.9,0.5,1.3,1.3,1.4c0.2,0,0.3,0.1,0.5,0.1c0.7,0,1.2-0.5,1.2-1.2    c-0.1-1.8-0.1-3.5-0.3-5.3c-0.1-1.1,0-2.2,0-3.3c0-1.2,0.1-2.5,0.1-3.7c0-0.3,0-0.6-0.1-0.8c-0.3-0.8-0.2-1.6-0.2-2.4    c0-1.4,0.1-2.7,0.2-4.1c0.1-0.8,0-1.6-0.1-2.4c-0.2-1.5-0.2-3.1-0.1-4.7c0-1.3,0.1-2.7,0.1-4c0-1,0.1-2,0.2-3.1    c0-0.2,0.1-0.4,0-0.5c-0.3-1.7,0.1-3.3,0.2-4.9c0.1-0.9,0.2-1.9,0.3-2.8c0.2-1.2,0-2.3,0-3.5c-0.1-1.4-0.1-2.7-0.1-4.1    c0-0.5-0.2-0.9-0.5-1.1c-0.6-0.4-1.2-0.3-1.5,0.3c-0.2,0.4-0.4,0.8-0.4,1.2c-0.1,0.6-0.1,1.1-0.1,1.7c0,1.6,0.1,3.2,0.1,4.8    c0,0.5,0,1,0,1.5c-0.1,0.7-0.2,1.4-0.2,2.1c-0.2,1.9-0.4,3.7-0.3,5.6c0,2.7-0.1,5.4-0.2,8.1c-0.1,1.7,0.1,3.4,0.2,5    c0.1,1.4,0,2.7-0.3,4.1c-0.1,0.9-0.5,1.1-1.3,1.1c-1.2,0-2.3-0.3-3.4-0.6c-1.4-0.4-2.8-0.9-4.2-1c-1.1-0.1-2.1,0-3.2-0.4    c-0.6-0.2-1.2-0.1-1.8,0.2c-0.6,0.3-0.8,1-0.5,1.7c0.1,0.3,0.3,0.6,0.3,1c0.1,1.5,0.3,3,0.2,4.5c-0.1,1.6-0.2,3.2-0.3,4.8    c-0.1,1.5-0.5,3-0.9,4.4c-0.4,1.4-0.2,1.7,1.2,1.7C325.6,116.9,325.9,116.2,326.5,115.6"/>
		<path d="M308.5,111c0.6,0.1,1-0.1,1.5-0.4c0.4-0.3,0.6-0.6,0.5-1.1c-0.2-2.6-0.4-5.2-0.6-7.8c-0.1-1.9-0.2-3.7-0.2-5.6    c0-2,0.1-4-0.2-6c0-0.1,0-0.3,0-0.4c0-0.6,0.3-0.9,0.9-0.9c0.2,0,0.4,0,0.6,0.1c0.7,0.2,1.4-0.1,2-0.5c0.5-0.3,0.7-0.7,0.6-1    c-0.2-0.5-0.5-0.8-0.9-1c0,0-0.1,0-0.1,0c-1.7,0.2-3.3-0.5-4.9-0.5c-0.4,0-0.9-0.2-1.3-0.3c-1.1-0.2-2.1-0.4-3.2-0.4    c-2,0-4-0.3-6.1-0.5c-0.9-0.1-1.9,0-2.9-0.1c-1-0.1-1.9-0.2-2.8-0.3c-1-0.1-2-0.2-2.9-0.5c-1.2-0.4-2.2,0.3-3.1,1    c-0.5,0.4-0.3,1.1,0.3,1.4c0.2,0.1,0.5,0.1,0.7,0.2c0.2,0,0.4,0,0.6,0c1.3,0.2,1.5,0.4,1.6,1.9c0.1,2.4,0.2,4.9,0,7.3    c-0.2,2.8-0.2,5.6-0.3,8.4c-0.1,1.4-0.2,2.8-0.5,4.2c-0.2,0.8-0.2,1.6-0.3,2.4c-0.1,0.6-0.1,1.2-0.2,1.9c0,0.6,0.2,0.9,0.7,0.9    c0.5,0,1-0.1,1.5-0.2c0.6-0.2,1-0.7,1-1.4c-0.1-1.9,0.3-3.8,0.6-5.7c0.1-0.4,0.1-0.9,0.1-1.3c0-2.6,0.1-5.2,0.3-7.8    c0.1-2.2,0.2-4.3,0.2-6.5c0-0.7,0-1.3,0.1-2c0.1-1,0.4-1.3,1.4-1.4c0.7,0,1.5,0,2.2,0.1c1.1,0.2,2.2,0.2,3.4,0.2    c1.9,0.1,3.7,0.1,5.6,0.5c0.4,0.1,0.8,0.1,1.2,0.1c0.5,0,0.8,0.3,0.9,0.8c0.4,1.8,0.8,3.6,0.8,5.5c-0.1,2.2,0.1,4.3,0.1,6.5    c0,0.8,0.1,1.7,0.2,2.5c0.1,1.8,0.2,3.6,0.3,5.4c0,0.4,0,0.7,0.1,1.1C307.9,110.3,308.1,110.7,308.5,111"/>
		<path d="M330.9,73.7c0.4,0.6,0.2,1.4,0.4,2.1c0.2,1.3,0.4,2.6,0.5,4c0.1,0.9,0.3,1.8,0.4,2.8c0.2,2.2,0.5,4.4,0.6,6.6    c0.1,1.2-0.1,2.4-0.1,3.6c0,0.2,0,0.4-0.1,0.5c-0.2,0.7-0.7,0.9-1.1,0.3c-0.9-1.3-2.3-2-3.4-3.1c-1.5-1.4-2.9-2.8-4.4-4.1    c-0.7-0.6-1.3-1.2-2.1-1.6c-0.5-0.2-0.9-0.2-1.3,0.2c-0.7,0.6-1,1.2-0.9,2.2c0.2,1.5,0.3,3.1,0.5,4.6c0.4,3.6,0.5,7.2-0.1,10.7    c-0.4,2.4-1.1,4.6-1.7,6.9c-0.1,0.4-0.3,0.8-0.1,1.3c0.1,0.2,0.4,0.4,0.5,0.2c0.2-0.2,0.5-0.5,0.7-0.8c0.8-1.7,1.6-3.3,2-5.1    c0.1-0.4,0.3-0.8,0.4-1.3c0.7-2.4,1.1-4.8,1.2-7.3c0.1-1.9,0-3.7-0.3-5.6c-0.1-0.7-0.1-1.5-0.2-2.3c0-0.4,0.3-0.7,0.7-0.4    c0.9,0.7,1.8,1.3,2.6,2.1c1.2,1.1,2.4,2.4,3.6,3.5c0.9,0.8,1.7,1.7,2.1,2.9c0.2,0.5,0.5,0.7,1,0.8c1.2,0.1,2-0.4,2.4-1.6    c0.2-0.8,0.4-1.6,0.5-2.5c0.2-1.5,0.2-2.9,0.1-4.4c-0.3-3.9-0.5-7.8-1-11.7c-0.3-2.3-0.4-4.6-0.6-6.9c-0.1-1-0.2-2-0.3-3    c-0.1-0.9-0.9-1.4-1.7-1.2c-0.7,0.2-1.1,0.7-1,1.5c0,0.7,0.1,1.4,0.2,2.1c0,0.4,0.1,0.8,0,1.2c-0.1,0.7-0.5,1.1-1.1,1.3    c-0.8,0.2-1.5,0.5-2.3,0.7c-0.1,0-0.2,0.1-0.4,0.1c-1.5,0.7-3,1.3-4.5,2c-0.5,0.2-0.9,0.4-1.4,0.6c-1,0.5-1.9,0.3-2.9-0.1    c-1.4-0.7-2.7-1.4-4-2.1c-0.5-0.3-1-0.4-1.6-0.3c-0.2,0-0.4,0.2-0.5,0.3c-0.1,0.1,0.1,0.5,0.2,0.6c0.6,0.5,1.1,0.9,1.7,1.3    c0.8,0.5,1.6,0.9,2.4,1.3c0.6,0.3,1.1,0.7,1.5,1.1c0.9,0.9,2,1,3,0.2c0.9-0.8,2-1.3,3-1.8c1.7-0.8,3.4-1.5,5.1-2.2    C329.7,73.7,330.3,73.5,330.9,73.7"/>
		<path d="M332.6,56c0.1,1.1-0.4,2-0.9,2.8c-0.3,0.6-0.8,1-1.2,1.5c-0.3,0.3-0.7,0.3-1,0.1c-0.6-0.4-1.2-0.9-1.6-1.7    c-0.8-1.8-1.4-3.6-1.5-5.6c-0.1-2.1,0.1-4.3,0.8-6.3c0.1-0.4,0.3-0.8,0.5-1.2c0.5-0.8,1.1-0.8,1.5,0c0.3,0.4,0.5,1,0.6,1.5    c0.4,1.6,0.7,3.2,1,4.8c0.1,0.6,0.1,1.2,0.3,1.8C331.4,54.7,331.7,55.5,332.6,56 M333.9,58.1c0.5-1.3,1.2-2.5,1.2-4    c0-0.2,0-0.4,0.1-0.5c0.5-1.3,0.3-2.6,0.3-4c0-1.1-0.5-1.9-1.1-2.6c-0.4-0.6-1.1-0.8-1.7-1c-0.4-0.1-0.7-0.3-0.9-0.6    c-0.1-0.1-0.2-0.2-0.3-0.4c-0.8-1.2-1.7-1.4-3.3-0.8c-1.3,0.5-2.1,1.4-2.5,2.7c-0.6,1.7-0.7,3.5-0.7,5.2c0,1.1,0.1,2.1,0.2,3.2    c0.1,0.6,0.2,1.1,0.3,1.7c0.3,1.5,1.1,2.6,2.2,3.5c1.3,1.1,3.6,1,4.8-0.2C333,59.7,333.6,59,333.9,58.1"/>
		<path d="M309.5,81.5c0.2-0.5,0.4-0.8,0.5-1.1c0.2-0.4,0.1-0.8-0.2-1c-0.7-0.4-1.4-0.8-2.1-1.1c-0.5-0.2-1-0.2-1.4,0.2    c-0.6,0.4-1.3,0.9-1.8,1.3c-0.2,0.2-0.4,0.5-0.5,0.7c-0.3,0.7-0.2,1.1,0.5,1.5c0.6,0.4,1.1,0.7,1.7,1.1c0.9,0.6,1.7,0.5,2.6,0    c0.3-0.2,0.5-0.4,0.6-0.8C309.4,81.9,309.5,81.6,309.5,81.5"/>
		<path class="st2" d="M312.3,15.9c-0.4,1-1.1,1.3-2.1,1.2c-0.7-0.1-1-0.3-1.2-0.9c-0.1-0.2-0.1-0.4-0.1-0.6    c0.1-0.6-0.3-1.1-0.7-1.5c-1-1-2.1-1.8-3.3-2.5c-0.7-0.4-1.4-0.7-2.1-1c-0.5-0.1-1-0.2-1.5-0.2c-1.1,0.1-1.8,0.7-2,1.8    c-0.1,0.7,0.1,1.3,0.4,2c0.6,1.2,0.4,1.7-0.8,2.1c-0.2,0.1-0.3,0.1-0.5,0.1c-0.1-0.1-0.3-0.2-0.4-0.3c-1.6-1.5-3.5-2.4-5.7-2.8    c-0.8-0.1-1.6-0.1-2.5,0.1c-2,0.5-2.5,2-2.4,3.3c0,1.2,0.3,2.3,0.7,3.4c0.3,0.9,0.6,1.8,0.8,2.7c0.2,0.8,0.4,1.6,0.8,2.3    c0.4,0.7,0.3,1-0.5,1.5c-0.4,0.3-0.9,0.5-1.4,0.5c-1,0.1-1.9,0.4-2.6,1.1c-0.6,0.6-0.8,1.2-0.4,2c0.9,1.9,2.3,3.3,4.2,4.2    c2.3,1.1,4.8,1.6,7.3,1.9c2.1,0.2,4.3,0.1,6.3-0.8c1.4-0.7,2.5-1.6,3.4-2.9c0.2-0.3,0.3-0.7,0.4-1.1c0.2-0.5,0.5-1.1,0.8-1.6    c0.2-0.4,0.5-0.4,0.9-0.2c0.6,0.3,1.1,0.6,1.2,1.2c0.3,1.1,1.1,1.8,2,2.4c2,1.2,4.2,1.3,6.4,0.6c0.6-0.2,1.2-0.6,1.7-1    c1-0.9,1.9-2,2.3-3.3c0.2-0.6,0.2-1.2,0.2-1.9c0-0.6-0.4-1-1-1.2c-0.2-0.1-0.4-0.1-0.6-0.2c-1-0.2-1.9-0.5-2.6-1.3    c-0.2-0.3-0.5-0.4-0.8-0.6c-0.4-0.2-0.7-0.4-1.1-0.6c-0.5-1.8-0.1-2.6,1.7-2.6c0.3-0.3,0.7-0.6,1.1-1c0.5-0.5,0.5-1,0.1-1.5    c-0.9-1.2-2-2-3.3-2.6c-0.6-0.2-1.5-0.3-2.6-0.3C312.4,15.7,312.3,15.8,312.3,15.9 M307,33.5c-0.4,0.4-0.8,0.9-1.2,1.3    c-1,0.7-2,1.4-3.1,2.1c-1.7,1.1-3.7,1.4-5.6,1.2c-2.8-0.2-5.6-0.7-8.2-1.8c-1.2-0.5-2.5-1-3.5-1.9c-1-0.9-1.8-2-2.6-3    c-0.2-0.2-0.3-0.5-0.3-0.8c-0.1-1.1,0-2.1,0.7-3c0.8-1,1.7-1.8,2.9-2.3c0.4-0.2,0.8-0.3,1.1-0.8c-0.2-1.2-0.4-2.5-0.9-3.7    c-0.7-1.6-0.9-3.2-0.7-4.9c0.3-1.7,1-3.2,2.9-3.9c0.2-0.1,0.5-0.2,0.7-0.3c0.6-0.2,1.2-0.5,1.9-0.5c1.7,0,3.3,0.1,4.8,0.9    c0.4,0.2,0.9,0.5,1.5,0.3c0.1-0.5,0.3-1,0.4-1.5c0.4-1.4,1.4-2.2,2.8-2.6c1-0.3,2.1-0.2,3.1,0.2c2.1,0.8,4,2,5.7,3.5    c1.5,1.4,1.5,1.5,3.6,1.4c0.7,0,1.3,0,1.9,0.1c1.6,0.3,2.9,1.2,4.1,2.2c0.6,0.5,1.2,1.1,1.6,1.8c0.7,1.2,0.7,2.1-0.1,3.2    c-0.4,0.5-0.8,0.9-1.1,1.4c-0.1,0.2-0.1,0.4-0.2,0.6c0.4,0.2,0.7,0.2,1,0.4c0.5,0.4,1,0.6,1.6,0.8c0.8,0.2,1.5,0.7,1.8,1.5    c0.6,1.4,0.7,2.7,0.1,4.2c-0.5,1.1-1.1,2-1.8,2.9c-1,1.2-2.1,2.1-3.4,2.9c-0.4,0.2-0.8,0.4-1.2,0.4c-0.9,0.1-1.8,0.3-2.7,0.3    c-2.3-0.1-4.3-0.7-6-2.3c-0.2-0.2-0.5-0.5-0.9-0.8C307.3,33.2,307.2,33.3,307,33.5"/>
		<path class="st2" d="M318.1,40.7c-0.4,0.2-0.8,0.4-1.2,0.6c0,0.2,0,0.5,0.1,0.7c0.3,0.6,0.8,1.1,1.4,1.4c0.7,0.3,1.4,0.4,2.1,0.1    c0.4-0.2,0.5-0.4,0.6-0.8c0.1-0.7-0.2-1.3-0.6-1.9c-0.4-0.4-0.8-0.8-1.3-1C318.8,40.2,318.4,40.5,318.1,40.7 M322.8,43.7    c-0.8,1.5-3,2.3-4.5,1.9c-1.4-0.4-2.5-1.2-3.2-2.5c-0.7-1.3-0.5-2.5,0.3-3.6c0.3-0.4,0.7-0.9,1.1-1.3c0.4-0.5,1-0.7,1.6-0.6    c2.3,0.3,3.9,1.6,4.8,3.6c0.1,0.3,0.1,0.6,0.2,1C323.1,42.7,323,43.2,322.8,43.7"/>
		<path class="st2" d="M323.2,47.6c0-0.2,0-0.3,0-0.5c-0.2-0.7-1-1.1-1.6-0.7c-0.8,0.4-1.3,1.4-1,2.1c0.2,0.6,0.6,0.9,1.1,0.9    c0.7,0,1.2-0.4,1.4-1C323.2,48.1,323.2,47.9,323.2,47.6"/>
		<path class="st2" d="M258.8,26.9c1.1,1,0.9,2.2,0.5,3.4c-0.2,0.6-0.6,1.2-0.9,1.7c-0.6,1-1.6,1.7-2.7,2.1    c-0.7,0.2-1.4,0.4-2.2,0.6c-0.8,0.2-1.7,0.3-2.5,0.1c-0.2,0-0.3-0.1-0.5-0.1c-2.5-0.2-4.8-1-6.9-2.3c-0.6-0.4-1.1-0.9-1.7-1.4    c-0.4-0.4-0.9-0.5-1.4-0.3c-0.3,0.1-0.5,0.3-0.6,0.6c0,0.2-0.1,0.3-0.1,0.5c-0.2,0.6-0.6,1.1-1.1,1.4c-1,0.7-2.1,1.3-3.4,1.5    c-0.7,0.1-1.3,0.2-2,0.2c-1.1,0-2.1-0.4-2.9-1.2c-0.2-0.2-0.3-0.5-0.3-0.8c-0.3-1.3,0-2.5,0.7-3.6c0.5-0.7,0.9-1.5,1.8-1.8    c0.5-0.6,1-1.2,1.4-1.8c0.1-0.1,0.1-0.4,0-0.6c-0.2-0.7-0.6-1.1-1.3-1.4c-0.4-0.2-0.8-0.1-1.1,0.1c-0.6,0.4-1.1,0.2-1.6-0.1    c-0.6-0.3-0.7-0.9-0.7-1.5c0-1.2,0.6-2.2,1.2-3.1c0.3-0.5,0.7-0.9,1-1.4c1.1-1.4,2.9-1.8,4.5-1.1c0.9,0.4,1.9,0.9,2.8,1.3    c0.4,0.2,0.7,0.5,1,0.7c0.8,0.6,1.8,0.4,2.1-0.8c0.1-0.3,0.1-0.6,0.1-0.9c-0.1-0.3,0-0.6,0.2-0.9c0.8-1.2,1.7-2.4,2.7-3.5    c0.6-0.6,1.2-1.2,1.9-1.8c0.3-0.2,0.6-0.4,1-0.5c0.5-0.1,0.9,0,1.1,0.4c0.2,0.4,0.4,0.9,0.5,1.4c0,0.6,0,1.3-0.1,1.9    c-0.2,0.7-0.2,1.4-0.5,2.1c-0.3,0.5,0,1,0.5,1.4c0.6,0.4,1.1,0.4,1.6,0c0.5-0.3,1-0.6,1.5-0.9c1-0.6,2.1-1.2,3.1-1.9    c1.1-0.7,2.2-1.1,3.5-1.4c0.5-0.1,1-0.3,1.5-0.3c1.7-0.2,3.4-0.1,4.7,1.2c0.7,0.6,1,1.4,1.3,2.2c0.2,0.4,0.2,0.8,0.3,1.2    c0.1,0.5,0.1,1,0.1,1.5c-0.2,1.7-0.8,3.2-1.6,4.7c-0.3,0.5-0.6,1.1-0.9,1.6c-0.3,0.5-0.7,0.8-1.3,0.8c-0.9,0.1-1.7,0-2.4-0.5    c-0.1-0.1-0.3-0.2-0.4-0.3c-0.6-0.3-1.1-0.1-1.5,0.4c-0.1,0.2-0.2,0.4-0.3,0.6C258.6,26.6,258.6,26.8,258.8,26.9 M251.1,14.4    c0.1-0.7,0.2-1.4,0.2-2c-0.1-1.3-0.4-2.5-1.6-3.4c-1.3-0.9-2.5-0.9-3.6,0.2c-0.6,0.5-1.2,1-1.7,1.6c-0.5,0.6-1,1.2-1.5,1.7    c-0.9,1-1.9,2.1-2.8,3.1c-0.1,0.1-0.2,0.2-0.3,0.3c-0.3,0.2-0.6,0.3-0.9,0.1c-0.8-0.6-1.7-0.9-2.6-1.2c-0.8-0.4-1.7-0.4-2.6-0.4    c-1.6,0-2.6,1.1-3.6,2.1c-0.4,0.4-0.6,1-1,1.4c-0.9,1-1.4,2.2-1.7,3.5c-0.4,1.4-0.2,2.6,1.1,3.6c0.4,0.3,0.8,0.7,1.3,0.9    c0.2,0.1,0.3,0.3,0.5,0.5c-0.1,0.2-0.2,0.3-0.3,0.5c-0.8,1.1-1.4,2.2-1.8,3.4c-0.6,1.6-0.4,3.1,0.8,4.4c2,2.1,4.5,2.7,7.4,1.9    c1.5-0.4,2.9-1.1,4.1-2.1c0.4-0.4,0.9-0.7,1.4-1c0.4,0.2,0.7,0.3,1.1,0.5c0.7,0.4,1.4,0.8,2.1,1.1c1.7,0.8,3.4,1.2,5.3,1.5    c2.2,0.3,4.4,0.2,6.4-0.6c0.9-0.3,1.8-0.8,2.5-1.4c1.7-1.6,2.4-3.5,2.5-5.8c0-0.2,0-0.4,0-0.6c0.3,0,0.6,0,0.8,0    c0.4,0,0.8,0,1.1,0.1c1.3,0,2.2-0.5,2.7-1.7c0,0,0-0.1,0.1-0.1c0.6-1.6,1.4-3.1,2-4.7c0.5-1.6,0.8-3.1,0.1-4.7    c-0.2-0.4-0.3-0.8-0.4-1.1c-0.4-1.1-1-2.1-1.9-2.9c-1.1-1-2.4-1.6-3.9-1.6c-0.5,0-1,0-1.5,0c-1,0-2,0.2-2.9,0.5    c-1.5,0.5-2.9,1.2-4.3,2c-0.7,0.4-1.5,0.8-2.4,1.2C251.1,14.7,251.1,14.6,251.1,14.4"/>
		<path class="st2" d="M239.7,42.4c0.6-0.7,1.2-1.3,2-1.7c0.3-0.1,0.5-0.3,0.8-0.4c0.7-0.4,1.4-0.4,2.2-0.3c0.6,0.1,0.8,0.5,0.6,1    c-0.3,0.6-0.6,1.3-1,1.8c-0.8,0.9-1.8,1.4-3,1.6c-0.7,0.1-1.3,0.1-1.9-0.4C239.2,43.3,239.4,42.9,239.7,42.4 M242.4,38.2    c-2.3,0.5-3.9,2-5,3.9c-0.2,0.4-0.2,0.8-0.2,1.2c0.1,1.8,2.3,3.7,4.8,3c1.6-0.4,3-1.2,4.1-2.4c0.6-0.6,1-1.3,1.2-2.1    c0.3-0.9,0.2-1.8-0.4-2.4c-0.9-0.9-2-1.5-3.2-1.4C243.2,38,242.8,38.1,242.4,38.2"/>
		<path class="st2" d="M239.2,48.7c-0.1,0.2-0.1,0.3-0.2,0.4c-0.4,0.5-0.8,0.9-1.4,1.2c-0.7,0.3-1.7-0.1-1.9-0.8    c-0.1-0.2,0-0.5,0.1-0.7c0.3-0.3,0.5-0.7,0.7-1.1c0.6-0.9,1.4-0.9,2.1-0.1C238.8,47.9,239,48.4,239.2,48.7"/>
		<path class="st2" d="M237.3,25.3c0-0.1,0-0.1,0.1-0.2c0.1-0.1,0.1-0.3,0.1-0.4c0-0.2,0.1-0.3,0.2-0.5c0.1-0.3,0.3-0.7,0.4-1    c0.1-0.3,0.3-0.7,0.5-1c0.1-0.3,0.3-0.6,0.4-0.9c0.1-0.2,0.3-0.3,0.5-0.2c0.1,0.1,0.2,0.2,0.3,0.3c0.1,0.1,0.1,0.3,0,0.4    c-0.2,0.2-0.3,0.4-0.4,0.6c-0.3,0.5-0.5,1.1-0.8,1.6c-0.1,0.2-0.2,0.4-0.3,0.6c-0.1,0.2-0.3,0.5-0.4,0.7c0,0.1-0.1,0.2-0.2,0.1    C237.4,25.5,237.3,25.4,237.3,25.3"/>
		<path class="st2" d="M237.3,25.3c0-0.1,0-0.1,0.1-0.2c0.1-0.1,0.1-0.3,0.1-0.4c0-0.2,0.1-0.3,0.2-0.5c0.1-0.3,0.3-0.7,0.4-1    c0.1-0.3,0.3-0.7,0.5-1c0.1-0.3,0.3-0.6,0.4-0.9c0.1-0.2,0.3-0.3,0.5-0.2c0.1,0.1,0.2,0.2,0.3,0.3c0.1,0.1,0.1,0.3,0,0.4    c-0.2,0.2-0.3,0.4-0.4,0.6c-0.3,0.5-0.5,1.1-0.8,1.6c-0.1,0.2-0.2,0.4-0.3,0.6c-0.1,0.2-0.3,0.5-0.4,0.7c0,0.1-0.1,0.2-0.2,0.1    C237.4,25.5,237.3,25.4,237.3,25.3z"/>
		<path class="st2" d="M239.4,25.3c0-0.1,0-0.1-0.1-0.2c-0.1-0.1-0.1-0.3-0.1-0.4c0-0.2-0.1-0.3-0.2-0.5c-0.1-0.3-0.3-0.7-0.4-1    c-0.1-0.3-0.3-0.7-0.5-1c-0.1-0.3-0.3-0.6-0.4-0.9c-0.1-0.2-0.3-0.3-0.5-0.2c-0.1,0.1-0.2,0.2-0.3,0.3c-0.1,0.1-0.1,0.3,0,0.4    c0.2,0.2,0.3,0.4,0.4,0.6c0.3,0.5,0.5,1.1,0.8,1.6c0.1,0.2,0.2,0.4,0.3,0.6c0.1,0.2,0.3,0.5,0.4,0.7c0,0.1,0.1,0.2,0.2,0.1    C239.3,25.5,239.3,25.4,239.4,25.3"/>
		<path class="st2" d="M239.4,25.3c0-0.1,0-0.1-0.1-0.2c-0.1-0.1-0.1-0.3-0.1-0.4c0-0.2-0.1-0.3-0.2-0.5c-0.1-0.3-0.3-0.7-0.4-1    c-0.1-0.3-0.3-0.7-0.5-1c-0.1-0.3-0.3-0.6-0.4-0.9c-0.1-0.2-0.3-0.3-0.5-0.2c-0.1,0.1-0.2,0.2-0.3,0.3c-0.1,0.1-0.1,0.3,0,0.4    c0.2,0.2,0.3,0.4,0.4,0.6c0.3,0.5,0.5,1.1,0.8,1.6c0.1,0.2,0.2,0.4,0.3,0.6c0.1,0.2,0.3,0.5,0.4,0.7c0,0.1,0.1,0.2,0.2,0.1    C239.3,25.5,239.3,25.4,239.4,25.3z"/>
		<path class="st2" d="M312.4,21.4c0,0,0,0.1,0,0.1c0.2,0.1,0.4,0.3,0.7,0.4v-0.6C312.8,21.4,312.6,21.4,312.4,21.4 M312.6,25.6    c0.1-0.6,0.1-1.1,0.1-1.6c0-0.5,0.3-1,0.1-1.6c-0.9,0.9-1.6,1.9-2.5,2.6c-0.4-0.2-0.8-0.3-0.8-0.7c0-0.3-0.2-0.4-0.4-0.4    c-0.3-0.1-0.6-0.4-0.7-0.7c0.3-0.5,0.3-0.5,0.8-0.3c0.3,0.1,0.6,0.3,0.9,0.5c0.4-0.1,0.6-0.5,0.9-0.8c0.3-0.3,0.6-0.5,0.9-1    c-1.3,0.3-2.4,0.6-3.6,0.9c0,0,0,0,0,0.1c0,0.8-0.1,1.5-0.1,2.3c0,0.1,0.2,0.3,0.3,0.4c0.6,0,1.1,0.1,1.7,0    C311,25.1,311.8,25.3,312.6,25.6 M306.9,21c0.2,0,0.4,0,0.6,0.1c0.3,0.1,0.5,0.1,0.8,0.1c0.7-0.1,1.4-0.3,2.1-0.5    c0.4-0.1,0.8-0.3,1.3-0.4c0.5-0.1,1-0.1,1.4-0.1c0.5,0,1,0.7,1.1,1.2c0.1,0.8-0.1,1.5-0.2,2.2c-0.2,0.8-0.3,1.6-0.2,2.4    c0,0.1,0,0.2,0,0.3c0,0.6-0.3,0.7-0.8,0.5c-0.4-0.2-0.8-0.3-1.3-0.4c-0.4-0.1-0.9-0.1-1.3-0.1c-0.7,0-1.4,0.1-2.1,0.1    c-0.5,0-1.1-0.5-1.1-1c-0.1-0.7-0.1-1.4-0.1-2.1c0-0.4,0-0.9,0-1.3c0-0.1,0-0.2-0.1-0.3C306.9,21.6,306.9,21.3,306.9,21"/>
		<path class="st2" d="M296.7,25.7c0-0.1,0-0.2,0.1-0.2c0.1-0.6,0.2-1.2,0.3-1.8c0.1-0.4,0.2-0.7,0.3-1c0.1-0.5,0.1-1,0.2-1.4    c-0.1,0-0.2-0.1-0.3-0.1c-1-0.1-1.9,0.1-2.8,0.5c-0.5,0.2-1,0.5-1.6,0.7c-0.3,0.1-0.4,0.2-0.4,0.5c0,0.8-0.2,1.6-0.1,2.4    c0,0,0,0.1,0,0.1c-0.2,0.5-0.1,0.6,0.4,0.6c0.1,0,0.2,0,0.3,0C294.2,25.7,295.4,25.7,296.7,25.7 M290.8,21.1c0.2,0,0.3,0,0.4,0.1    c0.5,0.1,1,0.1,1.4-0.2c0.1,0,0.2-0.1,0.3-0.1c0.5-0.1,0.9-0.2,1.3-0.4c0.7-0.3,1.6-0.4,2.4-0.4c0.3,0,0.6,0,0.9,0.2    c0.7,0.3,1.1,1,1,1.7c-0.2,0.9-0.3,1.9-0.6,2.7c-0.2,0.5-0.1,1.1-0.3,1.6c-0.1,0.3-0.4,0.5-0.7,0.5c-1.3,0-2.7,0-4,0    c-0.4,0-0.8-0.1-1.2-0.3c-0.3-0.1-0.4-0.4-0.4-0.7c0-0.5,0-1,0-1.6c0-0.6,0.1-1.2,0.1-1.7c0-0.3-0.1-0.5-0.3-0.7    C290.8,21.6,290.8,21.6,290.8,21.1"/>
		<path class="st2" d="M303.9,24.9c0-0.1,0-0.1,0-0.2c0.1-0.5,0.1-0.9,0.2-1.4c0.1-0.3,0.2-0.6,0.2-0.8c0.1-0.4,0.1-0.8,0.1-1.2    c-0.1,0-0.2-0.1-0.2-0.1c-0.8-0.1-1.5,0.1-2.3,0.4c-0.4,0.2-0.8,0.4-1.3,0.5c-0.2,0-0.3,0.2-0.3,0.4c0,0.6-0.2,1.2-0.1,1.9    c0,0,0,0,0,0.1c-0.1,0.4-0.1,0.5,0.3,0.5c0.1,0,0.2,0,0.3,0C302,25,302.9,25,303.9,24.9 M299.2,21.3c0.1,0,0.2,0,0.4,0    c0.4,0.1,0.8,0.1,1.1-0.1c0.1,0,0.1,0,0.2-0.1c0.4-0.1,0.7-0.2,1.1-0.3c0.6-0.3,1.2-0.3,1.9-0.3c0.3,0,0.5,0,0.7,0.1    c0.6,0.2,0.9,0.8,0.8,1.4c-0.1,0.7-0.2,1.5-0.5,2.2c-0.1,0.4,0,0.9-0.3,1.3c-0.1,0.2-0.3,0.4-0.6,0.4c-1.1,0-2.1,0-3.2,0    c-0.3,0-0.7-0.1-1-0.2c-0.3-0.1-0.4-0.3-0.4-0.6c0-0.4,0-0.8,0-1.2c0-0.5,0.1-0.9,0.1-1.4c0-0.2-0.1-0.4-0.2-0.5    C299.2,21.7,299.2,21.7,299.2,21.3"/>
		<path class="st2" d="M294.2,23.7c0.3-0.4,0.7-0.8,1-1.2c0.2-0.2,0.4-0.3,0.6-0.1c0.2,0.2,0.3,0.4,0.1,0.7    c-0.4,0.5-0.8,1.1-1.2,1.6c-0.3,0.4-0.6,0.4-1,0.1c-0.3-0.2-0.4-0.5-0.4-0.9c0-0.1,0-0.2-0.1-0.3c-0.1-0.2-0.1-0.3,0.1-0.4    c0.1-0.1,0.3-0.1,0.4,0.1C294,23.3,294.1,23.5,294.2,23.7"/>
		<path class="st2" d="M301.7,24.9c0-0.1,0-0.1,0-0.1c0.1-0.1,0.1-0.2,0.1-0.3c0-0.1,0.1-0.3,0.1-0.4c0.1-0.3,0.2-0.5,0.3-0.8    c0.1-0.3,0.2-0.5,0.4-0.8c0.1-0.2,0.2-0.5,0.3-0.7c0.1-0.1,0.2-0.2,0.4-0.1c0.1,0.1,0.2,0.1,0.2,0.2c0.1,0.1,0.1,0.2,0,0.3    c-0.2,0.1-0.3,0.3-0.3,0.5c-0.2,0.4-0.4,0.8-0.6,1.3c-0.1,0.2-0.2,0.3-0.3,0.5c-0.1,0.2-0.2,0.4-0.4,0.6c0,0.1-0.1,0.1-0.1,0.1    C301.8,25,301.7,24.9,301.7,24.9"/>
		<path class="st2" d="M301.7,24.9c0-0.1,0-0.1,0-0.1c0.1-0.1,0.1-0.2,0.1-0.3c0-0.1,0.1-0.3,0.1-0.4c0.1-0.3,0.2-0.5,0.3-0.8    c0.1-0.3,0.2-0.5,0.4-0.8c0.1-0.2,0.2-0.5,0.3-0.7c0.1-0.1,0.2-0.2,0.4-0.1c0.1,0.1,0.2,0.1,0.2,0.2c0.1,0.1,0.1,0.2,0,0.3    c-0.2,0.1-0.3,0.3-0.3,0.5c-0.2,0.4-0.4,0.8-0.6,1.3c-0.1,0.2-0.2,0.3-0.3,0.5c-0.1,0.2-0.2,0.4-0.4,0.6c0,0.1-0.1,0.1-0.1,0.1    C301.8,25,301.7,24.9,301.7,24.9z"/>
		<path class="st2" d="M303.4,24.9c0-0.1,0-0.1,0-0.1c-0.1-0.1-0.1-0.2-0.1-0.3c0-0.1-0.1-0.3-0.1-0.4c-0.1-0.3-0.2-0.5-0.3-0.8    c-0.1-0.3-0.2-0.5-0.4-0.8c-0.1-0.2-0.2-0.5-0.3-0.7c-0.1-0.1-0.2-0.2-0.4-0.1c-0.1,0.1-0.2,0.1-0.2,0.2c-0.1,0.1-0.1,0.2,0,0.3    c0.2,0.1,0.3,0.3,0.3,0.5c0.2,0.4,0.4,0.8,0.6,1.3c0.1,0.2,0.2,0.3,0.3,0.5c0.1,0.2,0.2,0.4,0.4,0.6c0,0.1,0.1,0.1,0.1,0.1    C303.3,25,303.3,24.9,303.4,24.9"/>
		<path class="st2" d="M303.4,24.9c0-0.1,0-0.1,0-0.1c-0.1-0.1-0.1-0.2-0.1-0.3c0-0.1-0.1-0.3-0.1-0.4c-0.1-0.3-0.2-0.5-0.3-0.8    c-0.1-0.3-0.2-0.5-0.4-0.8c-0.1-0.2-0.2-0.5-0.3-0.7c-0.1-0.1-0.2-0.2-0.4-0.1c-0.1,0.1-0.2,0.1-0.2,0.2c-0.1,0.1-0.1,0.2,0,0.3    c0.2,0.1,0.3,0.3,0.3,0.5c0.2,0.4,0.4,0.8,0.6,1.3c0.1,0.2,0.2,0.3,0.3,0.5c0.1,0.2,0.2,0.4,0.4,0.6c0,0.1,0.1,0.1,0.1,0.1    C303.3,25,303.3,24.9,303.4,24.9z"/>
	</g>
	<g id="_x31_">
		<path d="M117.5,28.5c-0.3-1-0.9-1.9-1.5-2.8c-0.4-0.6-0.8-0.5-1,0.2c-0.2,0.7-0.3,1.3-0.5,2c-0.3,1.9-0.7,3.7-1,5.6    c-0.2,1-0.3,1.9-0.5,2.9c-0.6,4.9-1.1,9.8-1.6,14.7c0,0.2,0,0.5,0,0.7c0,0.6,0.4,0.9,0.8,0.6c0.5-0.3,0.9-0.7,1.3-1.1    c0.4-0.4,0.8-0.9,1.1-1.4c0.6-0.8,1.2-1.6,1.7-2.4c1.4-2.5,2-5.3,2.1-8.2c0.1-1.9,0.2-3.9,0-5.9C118.4,31.8,118.1,30.2,117.5,28.5     M122.5,39.8c0.5,0.5,1.1,0.4,1.5,0.4c1.3,0.2,2.2,1.2,2.3,2.7c0.3,3.9,0.6,7.8,0.2,11.8c-0.3,2.5-0.3,5.1-0.4,7.6    c0,0.5,0,0.9-0.1,1.4c-0.3,1.5-0.8,2-2.1,2.1c-0.9,0.1-1.9,0.3-2.8,0.4c-1.2,0.1-2.5,0.1-3.7,0.1c-0.9,0-1.8,0.1-2.6,0.5    c-1.4,0.5-2.8,0.2-4.1-0.3c-0.5-0.2-1-0.6-1-1.3c0-0.7,0.6-0.9,1-1.1c0.3-0.2,0.6-0.2,0.9-0.3c0.8-0.2,1.7-0.3,2.5-0.5    c1.1-0.3,2.2-0.4,3.2,0c1.2,0.4,2.3,0,3.4-0.2c0.8-0.1,1.2-0.7,1.3-1.6c0.1-1.3,0.3-2.6,0.4-4c0.1-1.5,0.2-3,0.4-4.5    c0.3-2.7,0.4-5.3-0.2-7.9c-0.1-0.3-0.2-0.6-0.3-0.9c-0.6,0.2-0.7,0.7-0.8,1.2c-0.3,1.1-0.8,2.1-1.3,3.1c-1.2,2.3-2.9,3.7-4.8,5    c-0.9,0.6-1.9,1.2-2.9,1.7c-0.7,0.4-1.2,0.9-1.4,1.9c-0.2,1-0.6,1.3-1.5,1.3c-0.4,0-0.9-0.1-1.3-0.3c-1-0.4-1.2-0.9-1-2.1    c0.5-3,0.9-5.9,1.3-8.9c0-0.2,0-0.3,0.1-0.5c0.1-3.9,0.8-7.7,1.2-11.5c0.3-2.9,0.8-5.7,1.2-8.5c0.1-0.8,0.4-1.7,0.6-2.5    c0.2-0.9,0.1-1.8-0.4-2.6c-0.5-0.7-0.1-1.5,0.7-1.5c1.2,0,2.4,0.3,3.3,1.4c0.9,1.1,2,2,3,3.1c2.6,3,4.3,6.5,4.4,10.8    c0,1.2,0,2.3,0,3.5C122.4,38.9,122.4,39.4,122.5,39.8"/>
		<path d="M78.8,111.2c-0.1-0.5-0.2-1.2-0.2-1.9c-0.1-0.8-0.1-1.6-0.2-2.4c-0.4-2.9-0.7-5.7-0.7-8.6c0-1.4,0-2.8,0-4.2    c0-0.3,0-0.6-0.1-0.8c-0.1-0.6-0.4-0.9-1-0.8c-1,0.1-2.1,0.3-3.1,0.5c-1.2,0.3-2.3,0.6-3.5,0.9c-0.9,0.3-1.7,0.6-2.6,0.8    c-0.8,0.2-1.6,0.4-2.3,0.5c-0.7,0.1-0.8,0.2-1,1c-0.2,1.1-0.2,2.2-0.2,3.3c0.1,2,0.1,4,0.2,6.1c0,0.3,0,0.7-0.1,1    c-0.2,1.1-0.2,2.2,0,3.3c0.1,0.4,0.1,0.8,0.1,1.2c-0.1,1.2-0.6,1.7-1.6,1.8c-0.2,0-0.4,0.1-0.6,0.1c-0.9,0-1.4-0.6-1.4-1.6    c0.1-2.3,0.1-4.6,0.4-6.9c0.2-1.4,0-2.9,0-4.3c0-1.6-0.1-3.2-0.2-4.8c0-0.3,0-0.7,0.1-1c0.3-1,0.2-2,0.2-3.1    c0-1.8-0.1-3.6-0.3-5.4c-0.1-1,0-2.1,0.1-3.1c0.3-2,0.2-4,0.2-6c0-1.7-0.1-3.5-0.2-5.2c-0.1-1.3-0.1-2.6-0.2-4    c0-0.2-0.1-0.5,0-0.7c0.4-2.2-0.1-4.3-0.3-6.4c-0.1-1.2-0.2-2.4-0.4-3.6c-0.2-1.5,0-3,0.1-4.5c0.1-1.8,0.1-3.6,0.2-5.4    c0-0.7,0.2-1.1,0.6-1.5c0.7-0.5,1.4-0.3,1.8,0.4c0.3,0.5,0.4,1,0.5,1.6c0.1,0.7,0.2,1.5,0.1,2.2c0,2.1-0.1,4.2-0.1,6.2    c0,0.6,0,1.3,0.1,1.9c0.1,0.9,0.2,1.8,0.3,2.8c0.3,2.4,0.4,4.8,0.4,7.2c0,3.5,0.1,7,0.3,10.6c0.1,2.2-0.1,4.4-0.2,6.6    c-0.1,1.8,0,3.6,0.3,5.3c0.2,1.2,0.5,1.5,1.6,1.4c1.4-0.1,2.7-0.4,4.1-0.8c1.7-0.6,3.3-1.1,5.1-1.4c1.3-0.2,2.6-0.1,3.8-0.6    c0.7-0.3,1.5-0.1,2.2,0.3c0.8,0.4,0.9,1.2,0.6,2.2c-0.2,0.4-0.4,0.8-0.4,1.3c-0.1,2-0.4,3.9-0.3,5.9c0.1,2.1,0.2,4.2,0.3,6.2    c0.1,2,0.6,3.9,1.1,5.7c0.5,1.8,0.2,2.2-1.4,2.2C79.7,112.8,79.4,112,78.8,111.2"/>
		<path d="M100.2,105.2c-0.7,0.1-1.3-0.1-1.8-0.5c-0.5-0.3-0.7-0.8-0.6-1.5c0.2-3.4,0.5-6.8,0.7-10.2c0.1-2.4,0.2-4.8,0.2-7.3    c0-2.6-0.1-5.2,0.3-7.8c0-0.2,0-0.3,0-0.5c0-0.8-0.4-1.2-1-1.1c-0.2,0-0.5,0-0.7,0.1c-0.9,0.3-1.7-0.1-2.4-0.6    c-0.6-0.4-0.9-0.9-0.7-1.4c0.2-0.6,0.6-1.1,1.1-1.3c0,0,0.1,0,0.1,0c2,0.2,3.9-0.6,5.9-0.7c0.5,0,1.1-0.3,1.6-0.4    c1.3-0.2,2.6-0.5,3.8-0.5c2.4,0,4.8-0.4,7.3-0.6c1.1-0.1,2.3,0,3.4-0.1c1.1-0.1,2.3-0.3,3.4-0.3c1.2-0.1,2.4-0.2,3.5-0.6    c1.5-0.5,2.6,0.4,3.7,1.3c0.6,0.5,0.4,1.5-0.3,1.8c-0.3,0.1-0.6,0.2-0.9,0.2c-0.2,0-0.5,0-0.7,0c-1.6,0.2-1.8,0.5-1.9,2.4    c-0.2,3.2-0.2,6.3,0,9.5c0.2,3.6,0.3,7.3,0.4,10.9c0.1,1.9,0.2,3.7,0.6,5.5c0.2,1,0.3,2,0.4,3.1c0.1,0.8,0.2,1.6,0.2,2.4    c0,0.7-0.3,1.1-0.9,1.1c-0.6,0-1.2-0.1-1.7-0.3c-0.7-0.3-1.2-0.9-1.1-1.8c0.2-2.5-0.4-4.9-0.7-7.4c-0.1-0.6-0.1-1.1-0.1-1.7    c0-3.4-0.2-6.8-0.4-10.2c-0.2-2.8-0.2-5.7-0.3-8.5c0-0.9,0-1.7-0.1-2.6c-0.1-1.3-0.5-1.8-1.6-1.8c-0.9,0-1.8,0-2.7,0.1    c-1.3,0.2-2.7,0.3-4,0.3c-2.2,0.1-4.4,0.1-6.6,0.6c-0.5,0.1-1,0.1-1.5,0.1c-0.6,0.1-0.9,0.4-1,1.1c-0.5,2.4-1,4.7-0.9,7.2    c0.1,2.8-0.1,5.7-0.2,8.5c0,1.1-0.2,2.2-0.2,3.3c-0.1,2.4-0.3,4.7-0.4,7.1c0,0.5,0,0.9-0.1,1.4C101,104.2,100.8,104.8,100.2,105.2    "/>
		<path d="M73.4,56.6c-0.4,0.8-0.3,1.8-0.4,2.7c-0.3,1.7-0.4,3.4-0.6,5.1c-0.1,1.2-0.3,2.4-0.4,3.6c-0.3,2.9-0.6,5.7-0.8,8.6    c-0.1,1.5,0.1,3.1,0.1,4.7c0,0.2,0.1,0.5,0.1,0.7c0.2,0.9,0.8,1.2,1.3,0.4c1.1-1.7,2.8-2.6,4.1-4c1.7-1.8,3.5-3.6,5.3-5.3    c0.8-0.8,1.6-1.6,2.5-2.1c0.6-0.3,1-0.2,1.5,0.2c0.8,0.7,1.3,1.6,1.1,2.8c-0.2,2-0.4,4-0.6,6c-0.5,4.7-0.6,9.3,0.2,14    c0.5,3.1,1.3,6,2.1,9c0.1,0.6,0.3,1.1,0.1,1.7c-0.1,0.3-0.4,0.5-0.6,0.3c-0.3-0.3-0.6-0.6-0.8-1c-0.9-2.2-1.9-4.3-2.4-6.7    c-0.1-0.6-0.3-1.1-0.5-1.6c-0.9-3.1-1.3-6.3-1.4-9.5c-0.1-2.4,0-4.8,0.4-7.2c0.1-1,0.2-2,0.2-2.9c0-0.6-0.4-0.9-0.8-0.6    c-1,0.9-2.1,1.7-3.1,2.7c-1.5,1.5-2.8,3.1-4.3,4.5c-1.1,1.1-2.1,2.2-2.5,3.8c-0.2,0.7-0.6,1-1.2,1c-1.4,0.1-2.4-0.5-2.8-2.1    c-0.3-1-0.5-2.1-0.6-3.2c-0.2-1.9-0.2-3.8-0.1-5.7c0.4-5.1,0.6-10.1,1.2-15.2c0.4-3,0.4-6,0.7-9c0.1-1.3,0.3-2.6,0.4-4    c0.1-1.2,1-1.9,2-1.5c0.8,0.3,1.3,0.9,1.2,1.9c0,0.9-0.2,1.8-0.2,2.8c0,0.5-0.1,1,0,1.5c0.1,0.8,0.5,1.5,1.3,1.7    c0.9,0.3,1.8,0.6,2.7,0.9c0.1,0,0.3,0.1,0.4,0.1c1.8,0.9,3.6,1.7,5.3,2.6c0.5,0.3,1.1,0.5,1.6,0.8c1.2,0.6,2.3,0.4,3.4-0.2    c1.6-0.9,3.2-1.8,4.8-2.7c0.6-0.3,1.2-0.6,1.9-0.4c0.2,0,0.5,0.2,0.6,0.4c0.1,0.2-0.1,0.6-0.2,0.7c-0.7,0.6-1.4,1.2-2.1,1.7    c-0.9,0.6-1.9,1.2-2.9,1.7c-0.7,0.4-1.3,0.8-1.8,1.5c-1.1,1.2-2.4,1.3-3.6,0.2c-1.1-1-2.3-1.8-3.6-2.4c-2-1-4-1.9-6.1-2.8    C74.9,56.7,74.2,56.4,73.4,56.6"/>
		<path d="M71.4,33.7c-0.1,1.5,0.5,2.6,1,3.7c0.4,0.7,0.9,1.3,1.4,2c0.3,0.4,0.8,0.4,1.2,0.1c0.8-0.6,1.4-1.2,1.9-2.2    c1-2.3,1.6-4.7,1.8-7.3c0.1-2.8-0.2-5.5-0.9-8.2c-0.2-0.5-0.4-1.1-0.6-1.6c-0.6-1-1.3-1.1-1.8,0c-0.3,0.6-0.6,1.2-0.7,1.9    c-0.4,2.1-0.8,4.2-1.2,6.3c-0.1,0.8-0.2,1.6-0.3,2.4C72.9,32,72.5,33.1,71.4,33.7 M69.8,36.4c-0.6-1.7-1.4-3.3-1.4-5.2    c0-0.2,0-0.5-0.1-0.7c-0.5-1.7-0.3-3.4-0.3-5.1c0-1.4,0.6-2.4,1.3-3.4c0.5-0.8,1.3-1.1,2.1-1.2c0.5-0.1,0.8-0.4,1.1-0.7    c0.1-0.2,0.3-0.3,0.4-0.5c1-1.5,2.1-1.8,4-1.1c1.6,0.7,2.5,1.8,3,3.5c0.7,2.2,0.8,4.5,0.8,6.8c0,1.4-0.1,2.8-0.2,4.1    c-0.1,0.7-0.2,1.5-0.4,2.2c-0.3,1.9-1.3,3.3-2.6,4.5c-1.6,1.5-4.3,1.3-5.8-0.3C70.9,38.5,70.2,37.6,69.8,36.4"/>
		<path d="M99,66.8c-0.3-0.6-0.5-1-0.6-1.4c-0.2-0.6-0.1-1.1,0.3-1.4c0.8-0.5,1.6-1.1,2.5-1.5c0.6-0.3,1.2-0.2,1.7,0.2    c0.7,0.6,1.5,1.1,2.2,1.7c0.3,0.2,0.5,0.6,0.6,0.9c0.4,0.9,0.2,1.4-0.6,2c-0.7,0.5-1.4,0.9-2,1.4c-1,0.8-2.1,0.6-3.1,0    c-0.4-0.2-0.6-0.6-0.7-1C99.2,67.4,99.1,67,99,66.8"/>
	</g>
</g>
<g id="Fleches">
	<path class="st0" d="M181.9,76.4c-0.2,0-0.4,0.1-0.6,0.1c0.1,0.1,0.1,0.1,0.2,0.2c0.1,0,0.4,0.1,0.3,0.3c0,0.1-0.1,0.3-0.2,0.4   c-0.3,0.3-0.7,0.2-1,0.1s-0.6-0.2-0.9-0.4c0.1-0.3,0.2-0.5,0.3-0.8c-0.1,0-0.1-0.1-0.3-0.1c0-0.1,0-0.3,0.1-0.4   c0.3-0.4,0.4-0.9,0.7-1.3s0.6-0.9,0.9-1.3c0.7-0.9,1.3-1.8,2-2.6c0.4-0.5,1-1.1,1.4-1.6c0.5-0.6,1.1-1.3,1.6-1.9   c0.2-0.2,0.5-0.4,0.7-0.6c0.3-0.3,0.5-0.5,0.7-0.8c0.1-0.1,0.1-0.3,0.1-0.5c0-0.1,0-0.3,0-0.5c-0.1-0.1-0.2-0.2-0.4-0.4   c-0.1-0.2-0.3-0.4-0.4-0.4c-0.3-0.1-0.4-0.4-0.4-0.6c0-0.4-0.2-0.7-0.4-0.9c-0.5-0.5-0.8-1.1-1-1.7c-0.1-0.3-0.2-0.7-0.4-1   c0-0.1-0.2-0.2-0.3-0.2c-0.3-0.4-0.7-0.8-0.7-1.4c0-0.1-0.1-0.1-0.2-0.2c-0.1-0.1-0.1-0.1-0.1-0.2c0-0.5-0.3-0.9-0.7-1.2   c-0.1-0.1-0.2-0.2-0.2-0.3c-0.3-0.7-0.7-1.5-0.9-2.2c-0.2-0.8-0.6-1.5-0.6-2.3c0-0.5,0.1-0.6,0.6-0.7c0.4,0,0.7,0,1.1,0   c0.1,0,0.1,0,0.1,0.1c0.2,0.3,0.5,0.7,0.5,1s0.1,0.5,0.3,0.7c-0.1,0.1-0.1,0.2-0.2,0.4c0,0,0,0,0.1,0c0.1,0.1,0.2,0.1,0.3,0.2   c0.2,0.6,0.4,1.2,0.8,1.8c0.2,0.4,0.3,0.8,0.5,1.2c0.4,0.9,0.8,1.8,1.3,2.6c0.2,0.3,0.3,0.6,0.4,0.9c0.1,0.2,0.3,0.4,0.4,0.7   c0.3,0.4,0.5,1,0.8,1.3c0.4,0.4,0.4,0.9,0.8,1.2c0,0.3,0.2,0.5,0.4,0.7c0.2,0.3,0,0.5-0.1,0.7c0.3,0.2,0.7,0.4,0.9,0.6   c0.1,0.1,0.2,0.3,0.2,0.4c-0.2,0.5-0.4,1.1-0.8,1.4c-0.1,0.1-0.2,0.1-0.2,0.2c-0.2,0.2-0.4,0.5-0.7,0.7c-0.2,0.2-0.6,0.4-0.7,0.8   c0,0.1-0.2,0.3-0.3,0.4c-0.6,0.6-1.2,1.2-1.7,1.8c-0.4,0.5-0.8,1.1-1.3,1.6c-0.6,0.6-1.1,1.4-1.6,2.1c-0.4,0.5-0.7,1.1-1.1,1.7   c-0.1,0.1-0.1,0.3-0.2,0.3C181.8,76,182,76.2,181.9,76.4"/>
	<path class="st0" d="M366.9,76.4c-0.2,0-0.4,0.1-0.6,0.1c0.1,0.1,0.1,0.1,0.2,0.2c0.1,0,0.4,0.1,0.3,0.3c0,0.1-0.1,0.3-0.2,0.4   c-0.3,0.3-0.7,0.2-1,0.1s-0.6-0.2-0.9-0.4c0.1-0.3,0.2-0.5,0.3-0.8c-0.1,0-0.1-0.1-0.3-0.1c0-0.1,0-0.3,0.1-0.4   c0.3-0.4,0.4-0.9,0.7-1.3s0.6-0.9,0.9-1.3c0.7-0.9,1.3-1.8,2-2.6c0.4-0.5,1-1.1,1.4-1.6c0.5-0.6,1.1-1.3,1.6-1.9   c0.2-0.2,0.5-0.4,0.7-0.6c0.3-0.3,0.5-0.5,0.7-0.8c0.1-0.1,0.1-0.3,0.1-0.5c0-0.1,0-0.3,0-0.5c-0.1-0.1-0.2-0.2-0.4-0.4   c-0.1-0.2-0.3-0.4-0.4-0.4c-0.3-0.1-0.4-0.4-0.4-0.6c0-0.4-0.2-0.7-0.4-0.9c-0.5-0.5-0.8-1.1-1-1.7c-0.1-0.3-0.2-0.7-0.4-1   c0-0.1-0.2-0.2-0.3-0.2c-0.3-0.4-0.7-0.8-0.7-1.4c0-0.1-0.1-0.1-0.2-0.2c-0.1-0.1-0.1-0.1-0.1-0.2c0-0.5-0.3-0.9-0.7-1.2   c-0.1-0.1-0.2-0.2-0.2-0.3c-0.3-0.7-0.7-1.5-0.9-2.2c-0.2-0.8-0.6-1.5-0.6-2.3c0-0.5,0.1-0.6,0.6-0.7c0.4,0,0.7,0,1.1,0   c0.1,0,0.1,0,0.1,0.1c0.2,0.3,0.5,0.7,0.5,1s0.1,0.5,0.3,0.7c-0.1,0.1-0.1,0.2-0.2,0.4c0,0,0,0,0.1,0c0.1,0.1,0.2,0.1,0.3,0.2   c0.2,0.6,0.4,1.2,0.8,1.8c0.2,0.4,0.3,0.8,0.5,1.2c0.4,0.9,0.8,1.8,1.3,2.6c0.2,0.3,0.3,0.6,0.4,0.9c0.1,0.2,0.3,0.4,0.4,0.7   c0.3,0.4,0.5,1,0.8,1.3c0.4,0.4,0.4,0.9,0.8,1.2c0,0.3,0.2,0.5,0.4,0.7c0.2,0.3,0,0.5-0.1,0.7c0.3,0.2,0.7,0.4,0.9,0.6   c0.1,0.1,0.2,0.3,0.2,0.4c-0.2,0.5-0.4,1.1-0.8,1.4c-0.1,0.1-0.2,0.1-0.2,0.2c-0.2,0.2-0.4,0.5-0.7,0.7c-0.2,0.2-0.6,0.4-0.7,0.8   c0,0.1-0.2,0.3-0.3,0.4c-0.6,0.6-1.2,1.2-1.7,1.8c-0.4,0.5-0.8,1.1-1.3,1.6c-0.6,0.6-1.1,1.4-1.6,2.1c-0.4,0.5-0.7,1.1-1.1,1.7   c-0.1,0.1-0.1,0.3-0.2,0.3C366.8,76,367,76.2,366.9,76.4"/>
	<path class="st0" d="M551,73.6c0.2-0.6,0.4-1.3,0.7-1.8c0.4-0.6,0.6-1.5,0.9-2.4c0.3-1.1,0.7-2.2,1-3.3c0.4-1.1,0.7-2.1,1.1-3.2   c0.4-1.2,0.8-2.5,1.1-3.8c0.3-0.9,0.6-1.7,0.8-2.7c0.2-0.8,0.4-1.8,0.8-2.4c0-0.1,0.1-0.3,0.1-0.4c0.1-0.3,0.2-0.7,0.3-1.1   c0-0.1-0.1-0.3-0.1-0.5c0.2-0.4,0.5-0.8,0.7-1.3c0.2-0.6,0.5-0.8,0.8-0.9c0.1,0,0.3,0.1,0.4,0.1c0.5,0.1,0.8,1.4,0.5,2.4   c-0.2,0.6-0.4,1.2-0.6,1.8c-0.4,1.4-0.9,2.8-1.3,4.2c-0.4,1.3-0.7,2.6-1.2,3.8c-0.6,1.7-1.1,3.6-1.7,5.3c-0.3,0.9-0.6,1.9-0.9,2.8   c-0.2,0.6-0.4,1.2-0.7,1.8c-0.2,0.5-0.3,0.9-0.5,1.5c0,0,0,0.1,0,0.1c-0.1,0.2-0.2,0.5-0.3,0.8c-0.1,0.2-0.2,0.3-0.3,0.5   c-0.3,0.5-0.4,1.1-0.6,1.8c-0.1,0.1-0.1,0.1-0.2,0.2c-0.3-0.9-0.6-1.8-0.9-2.7C550.9,74.2,550.9,73.8,551,73.6"/>
	<g>
		<line class="st3" x1="0" y1="0" x2="740" y2="0"/>
	</g>
</g>
<g id="Reperes">
</g>
</svg>
