<?xml version="1.0" encoding="utf-8"?>
<!-- Generator: Adobe Illustrator 27.3.1, SVG Export Plug-In . SVG Version: 6.00 Build 0)  -->
<svg xmlns="http://www.w3.org/2000/svg" xmlns:xlink="http://www.w3.org/1999/xlink" version="1.1" x="0px" y="0px" viewBox="0 0 740 130" style="enable-background:new 0 0 740 130;" xml:space="preserve">
<style type="text/css">
	.st0{fill:#1D1D1B;}
	.st1{fill:#33CC99;}
	.st2{fill:#269973;}
	.st3{fill-rule:evenodd;clip-rule:evenodd;fill:#FFFFFF;}
</style>
<g id="Vignettes">
	<g id="_x33_">
		<path class="st0" d="M610.7,51.2c-0.2,0.1-0.2,0.2-0.2,0.2c-0.1,0.9-0.2,1.8-0.3,2.7c0,0.2,0,0.4,0,0.6c-0.2,0.4-0.1,0.8-0.1,1.2    c0,0.7,0,1.4-0.7,1.9c0.1,0.6,0.2,1.2,0.1,1.9c-0.1,0.5,0.1,0.9,0.3,1.3c0.3,0.4,0.3,0.9,0.3,1.4c0,0.9,0,1.7-0.1,2.6    c0,0.5-0.1,1-0.2,1.4c-0.2,0.7-0.2,1.3,0.1,2c0.1,0.2,0.1,0.5,0.1,0.8c-0.1,1.4,0.1,2.9-0.1,4.3c0,0.1,0,0.1,0,0.2    c0.2,0.9,0,1.7-0.1,2.5c0,0.4,0,0.7,0,1.1c0,0.9,0,1.7,0,2.6c0,0.5-0.1,1,0,1.6c0.1,0.5,0.1,1,0,1.5c-0.1,0.5,0,1,0.3,1.5    c0.3,0.4,0.4,0.9,0.5,1.4c0,0.5,0.2,1,0.1,1.5c0,0.1,0,0.2,0,0.3c0.3,0.7,0.3,1.5,0.2,2.3c-0.1,0.6-0.1,1.3-0.4,1.8    c0,0.2,0,0.3,0.1,0.3c0.4,0.4,0.5,0.9,0.5,1.4c0,0.4,0,0.8,0.2,1.2c0,0.1,0.1,0.2,0.1,0.3c-0.2,0.7,0.2,1.3,0.2,2c0,0.5,0,1,0,1.5    c-0.1,0.8,0,1.6,0.3,2.4c0.5,1.1,0.6,2.2,0.6,3.4c0,0.6,0,1.3,0,2c0,0.4,0.1,0.6,0.3,0.9c0.3,0.4,0.4,0.9,0.4,1.5    c0,0.4,0,0.7,0,1.1c0.1,0.4,0.3,0.6,0.7,0.6c0.1,0,0.2,0,0.3,0c0.4-0.1,0.8-0.1,1.2,0.3c0.1,0.1,0.2,0.1,0.3,0.1    c0.3,0.1,0.6,0.2,0.6,0.5c0.1,0.4,0.1,0.8-0.1,1.2c-0.1,0.1-0.2,0.2-0.3,0.3c-0.2,0.1-0.5,0.2-0.7,0.3c-0.6,0.2-1.2,0.3-1.8,0.4    c-0.5,0-1-0.2-1.5-0.2c-0.1,0-0.2-0.1-0.3-0.1c-0.3-0.1-0.8-0.1-0.9-0.4c-0.3-0.5-0.7-1-0.6-1.7c0.1-0.4,0-0.8,0.1-1.2    c0.1-0.4-0.1-0.8-0.3-1.1c-0.3-0.5-0.5-1.1-0.6-1.6c0-0.2,0-0.4,0.1-0.7c0.4-0.8,0.4-1.7,0.1-2.6c-0.2-0.7-0.3-1.5-0.4-2.3    c0-0.2,0-0.3,0-0.5c-0.4-1.1-0.4-2.2-0.6-3.4c0-0.3,0-0.5,0-0.8c0.1-1,0-1.9-0.1-2.9c-0.1-0.7-0.1-1.5-0.1-2.2    c0-1.4-0.2-2.8-0.4-4.2c-0.1-0.8-0.2-1.6-0.3-2.3c-0.2-1.1-0.3-2.2-0.6-3.4c-0.1,0.3-0.2,0.4-0.2,0.5c-0.1,0.9-0.4,1.7-0.5,2.5    c0,0.1,0,0.2-0.1,0.3c-0.6,0.8-0.6,1.8-0.5,2.7c0,0.4,0,0.8,0,1.3c0,0.7-0.2,1.4,0,2c0,0,0,0.1,0,0.1c-0.3,0.7-0.1,1.3-0.2,2    c0,0.2,0,0.4-0.1,0.6c-0.5,1-0.3,2.1-0.4,3.2c-0.1,1-0.1,1.9-0.2,2.9c-0.1,0.9-0.3,1.7-0.4,2.6c-0.2,0.9-0.2,1.9-0.3,2.8    c0,0.1,0,0.2,0,0.3c-0.6,0.9-0.4,1.9-0.6,2.9c-0.3,1.2-0.4,2.5-0.6,3.8c-0.1,0.5-0.5,0.9-1,0.8c-0.8,0-1.5-0.3-2.1-0.8    c-0.1-0.1-0.2-0.3-0.2-0.5c0-0.3,0.1-0.6,0.1-0.9c0.1-0.6,0.3-1.2,0.4-1.8c0-0.3,0.1-0.6,0-0.9c-0.1-0.3-0.1-0.6,0.1-0.8    c0.7-1,0.6-2.1,0.9-3.2c0.2-0.9,0.3-1.8,0.5-2.7c0.2-1,0.3-2.1,0.4-3.1c0.2-1.6,0.4-3.3,0.5-5c0-0.5,0.2-0.9,0.2-1.3    c0.2-1.7,0.4-3.5,0.6-5.2c0.1-1.2,0.3-2.4,0.5-3.6c0.1-0.4,0.1-0.8,0.1-1.2c0.1-0.9,0.3-1.9,0.4-2.8c0.1-0.9,0.1-1.8,0.3-2.7    c0-0.1,0.1-0.3,0.1-0.4c0.2-1.8,0.3-3.6,0.5-5.4c0.1-1.2,0.3-2.4,0.5-3.6c0.1-0.7,0.2-1.4,0.4-2.1c0.1-0.4,0.1-0.9,0.1-1.4    c0-0.9,0.3-1.8,0.2-2.7c0-0.2,0-0.3,0.1-0.5c0.2-0.7,0.3-1.4,0.3-2.1c0-0.1,0-0.2,0-0.3c0.3-1.2,0.3-2.5,0.4-3.7    c0-0.5,0.1-0.9,0.2-1.3c0-0.1,0.1-0.3,0.1-0.4c-0.1-1.4,0.2-2.8,0.2-4.2c0-0.1-0.1-0.2-0.1-0.3c-0.1,0-0.3,0-0.4,0.1    c-1,0.5-2,1-2.9,1.5c-0.4,0.2-0.8,0.4-1.2,0.6c-0.9,0.5-1.8,1-2.7,1.5c-0.7,0.4-1.3,0.7-2,1c-1.5,0.7-3,1.4-4.5,2.2    c-1.3,0.7-2.6,1.4-3.7,2.4c-0.3,0.3-0.6,0.6-0.9,0.9c-0.7,0.8-1.5,1.4-2.5,1.9c-0.2,0.1-0.4,0.2-0.5,0.2c-0.5-0.1-1-0.3-1.4-0.4    c-0.5-0.2-1-0.5-1.3-1c-0.3-0.4-0.4-0.9-0.2-1.4c0.5-1.1,1-2.1,1.5-3.1c0.1-0.2,0.2-0.4,0.3-0.6c0.7-1.4,1.4-2.9,2.2-4.2    c0.9-1.5,2-2.9,3.2-4.2c0.6-0.7,1.3-1.5,1.9-2.2c0.4-0.5,1.1-1,1.6-1.4c0.4-0.3,0.8-0.5,1-0.9c0.1-0.1,0.2-0.3,0.3-0.3    c0.5-0.3,0.9-0.6,1.1-1.2c0.3-0.6,0.9-0.9,1.4-1.2c0.3-0.2,0.7-0.3,1-0.1c0.2,0.1,0.5,0.1,0.7,0.2c0.7,0.2,1.4,0.5,2.2,0.3    c0.5-0.1,1,0,1.5,0c0.6,0,1.1,0.2,1.5,0.6c0.1,0.1,0.3,0.2,0.5,0.4c0.3,0.2,0.5,0.4,0.4,0.9c-0.1,0.2,0.1,0.4,0.2,0.6    c0.2,0.5,0.2,0.7-0.2,1.1c-0.2,0.3-0.4,0.6-0.9,0.6c-0.2-0.2-0.5-0.3-0.8-0.5c-0.5-0.3-1-0.5-1.6-0.5c-0.1,0-0.3,0-0.4,0    c-0.4,0-0.7-0.3-1.1-0.1c-0.3,0.2-0.7,0.2-1.1,0.4c-0.3,0.2-0.6,0.5-0.9,0.7c-0.1,0.1-0.2,0.2-0.4,0.3c-1,0.4-1.7,1.2-2.6,1.7    c-0.9,0.6-1.5,1.4-2.2,2.2c-0.7,0.8-1.4,1.6-2,2.4c-0.7,0.9-1.5,1.9-2,3c-0.1,0.1-0.1,0.2-0.1,0.3c0.1,0.2,0.2,0.1,0.4,0.1    c0.7-0.3,1.4-0.6,2-1c1.3-0.7,2.7-1.4,4-2.1c0.6-0.3,1.2-0.7,1.9-1.1c1.5-0.8,3-1.8,4.6-2.5c0.8-0.4,1.6-0.9,2.4-1.3    c0.9-0.4,1.8-0.7,2.7-0.3c0.6-0.5,0.9-0.6,1.5-0.3c0.4,0.2,1,0.2,1.4,0.7c0.4,0.4,0.8,0.9,1,1.4c0.3,0.6,0.6,1.1,0.9,1.6    c0.8,1.7,1.9,3.2,2.8,4.9c0.6,1,1.1,2.1,1.6,3.1c0.6,1,1,2.2,1.8,3.1c0.3,0.3,0.4,0.7,0.6,1.1c0.1,0.1,0.2,0.2,0.3,0.3    c0.1-0.2,0.2-0.3,0.3-0.4c0.2-1.2,0.6-2.3,0.7-3.5c0.1-0.7,0.2-1.4,0.5-2.1c0.1-0.3,0.2-0.6,0.2-0.9c0.1-0.6,0.2-1.3,0.4-1.9    c0.1-0.3,0.2-0.7,0.2-1c0.2-0.8,0.3-1.5,0.5-2.3c0-0.2,0.1-0.4,0.2-0.5c0.3-0.5,0.5-1,0.8-1.5c0.1-0.2,0.3-0.4,0.5-0.4    c1.5-0.4,3.1-0.5,4.6-0.1c0.5,0.1,0.9,0.5,1.5,0.5c0.1,0,0.1,0,0.2,0.1c0.4,0.5,0.9,0.9,1.2,1.4c0.3,0.4,0.1,0.8-0.4,1    c-0.5,0.2-1.1,0.2-1.6,0.1c-0.3-0.1-0.6-0.3-0.9-0.2c-0.3,0.1-0.4-0.2-0.5-0.3c-0.3-0.3-0.5-0.2-0.9,0.1c-0.7,0.6-1.1,1.4-1.6,2.2    c-0.1,0.2-0.2,0.4-0.2,0.5c0,0.1,0,0.3-0.1,0.4c-0.4,0.9-0.5,1.9-0.7,2.8c-0.1,0.4-0.2,0.7,0,1.1c0,0.1,0,0.2,0,0.3    c-0.6,0.6-0.2,1.4-0.3,2.1c-0.2,0.8-0.4,1.5-0.4,2.4c0,0.8-0.2,1.6-0.4,2.4c-0.1,0.3-0.2,0.7-0.3,1c-0.1,0.5-0.3,1-0.2,1.5    c0,0.3-0.1,0.5-0.4,0.6c-0.3,0.1-0.6,0.2-0.9,0.1c-0.3-0.1-0.6-0.1-0.9-0.1c-0.8,0-1.3-0.5-1.7-1.1c-0.4-0.8-0.9-1.5-1.4-2.2    c-0.6-0.8-1-1.7-1.5-2.5c-0.5-0.9-1.1-1.9-1.6-2.8c-0.8-1.4-1.5-2.7-2.3-4.1C611.5,52.5,611.1,51.9,610.7,51.2"/>
		<path class="st1" d="M639.8,41c0,0-0.1,0.1-0.1,0.1c-0.1,0.5-0.2,1.1-0.3,1.6c0,0.1,0,0.2,0,0.3c0.1,0.1,0.1,0.2,0.2,0.3    c0.1,0,0.2,0,0.3-0.1c0.1-0.1,0.2-0.3,0.3-0.5C641,41.8,640.9,41.6,639.8,41C639.9,41,639.9,41,639.8,41 M634.2,36.7    c0-0.1-0.1-0.1-0.1-0.2c-0.2-0.3-0.7-0.3-0.9-0.7c-0.2-0.3-0.4-0.6-0.6-1c-0.2-0.5-0.3-1-0.4-1.6c0-0.9,0.3-1.7,0.6-2.5    c0.5-0.3,0.6-0.8,0.8-1.2c0.1-0.2,0.3-0.3,0.4-0.3c0.6-0.1,0.7-0.3,0.9-0.9c0.1-0.5,0.6-0.9,1-1.2c0.6-0.5,1.3-0.9,1.9-1.3    c0.1-0.1,0.3-0.2,0.4-0.2c0.9-0.2,1.8-0.3,2.8-0.5c0.4-0.1,0.7-0.1,1.1,0.1c0.2,0.1,0.4,0.1,0.6,0c0.5-0.1,1,0,1.3,0.3    c0.4,0.3,0.9,0.6,1.3,0.8c0.8,0.4,1.4,0.9,2.1,1.4c0.2,0.1,0.4,0.3,0.6,0.4c0.5,0.2,0.8,0.6,1.1,1c0.5,0.7,0.6,1.4,0.4,2.2    c0,0.1,0,0.2,0,0.3c0.4,0.9,0.9,1.7,1.3,2.6c0.1,0.3,0.2,0.6,0.2,0.9c0,0.8,0,1.7-0.1,2.5c0,0.6-0.3,1.1-0.7,1.6    c-0.6,0.6-1.1,1.4-1.9,1.8c-0.4,0.3-0.9,0.5-1.3,0.8c-0.8,0.4-1.6,0.8-2.4,1.2c-0.2,0.1-0.3,0.2-0.5,0.3c-0.6,0-1.1-0.5-1.9-0.3    c-0.3,0.6-0.7,1.2-1.1,1.9c-0.5,0.3-1.1,0.3-1.8,0.5c-0.4,0.1-0.7,0-1-0.2c-0.2-0.1-0.4-0.2-0.6-0.4c-0.4-0.2-0.8-0.4-1.3-0.2    c-0.3,0.1-0.6,0.1-0.8,0.2c-0.4,0.2-0.8,0.1-1.2-0.2c-0.4-0.2-0.8-0.4-0.9-0.9c-0.1-0.3-0.3-0.6-0.6-0.6c-0.6-0.1-0.9-0.5-1.3-1    c-0.3-0.4-0.4-0.9-0.4-1.4c0-0.2,0-0.5,0-0.7c0-0.1,0-0.1,0.1-0.1c0.4-0.3,0.8-0.6,1.1-1c0.3-0.4,0.5-0.8,0.7-1.3    C633.5,37.2,633.9,37,634.2,36.7c0.2,0.1,0.3,0.2,0.5,0.3c0.2,0.1,0.3,0.3,0.3,0.5c0,0.2-0.1,0.4-0.1,0.6c0,0.4,0.2,0.7,0.6,0.7    c0.7,0.1,0.9,0.6,1,1.1c0.1,0.2,0,0.4,0,0.6c0,0.1,0.1,0.3,0.3,0.4c0.1,0.1,0.2,0,0.3,0.1c0.3-0.4,0.5-0.7,0.8-1    c0.5-0.6,1.1-0.7,1.8-0.4c0,0,0.1,0,0.2-0.1c0-0.2,0.1-0.4,0.1-0.6c0.5-0.1,1,0,1.5,0.2c0.5,0.3,1,0.6,1.5,0.8    c0.1,0.1,0.2,0.1,0.4,0.1c0.3,0,0.6,0,1,0c-0.1,0.2-0.2,0.4-0.3,0.6c0.3,0.3,0.5,0.3,0.7,0.1c0.2-0.2,0.2-0.4,0.1-0.6    c-0.1-0.3-0.4-0.2-0.6-0.1c0.2-0.2,0.3-0.3,0.5-0.5c0.5-0.3,0.9-0.6,1.4-0.9c0.1-0.1,0.3-0.2,0.4-0.3c0.2-0.6,0.6-1,0.9-1.5    c0.2-0.3,0.3-0.7,0.3-1.1c0.1-0.7,0-1.4,0.1-2.1c0-0.4-0.1-0.6-0.3-0.9c-0.1-0.2-0.4-0.4-0.4-0.6c-0.1-0.3-0.1-0.6-0.1-0.7    c-0.3-0.5-0.7-0.3-1-0.4c0-0.1-0.1-0.2,0-0.3c0.1-0.6-0.2-1-0.5-1.4c-0.2-0.4-0.4-0.7-0.9-0.8c-0.2,0-0.3-0.2-0.5-0.3    c-0.5-0.6-1.2-0.7-1.8-1.1c-0.1-0.1-0.4-0.1-0.6-0.1c-0.5,0.1-1,0.3-1.5,0.6c-0.7,0.4-1.4,0.8-1.9,1.3c-0.4,0.3-0.7,0.7-1,1    c-0.8,0.6-1.2,1.4-1.4,2.3c0,0.2,0,0.3-0.1,0.5c-0.2,0.4-0.2,0.9-0.1,1.3c0,0.1,0.1,0.2,0.1,0.3c0.3,0.1,0.5,0.1,0.8,0.2    c0.1,0.3,0.3,0.6,0.4,0.8c0.1,0.3,0.1,0.6-0.2,0.7c-0.4,0.2-0.8,0.4-1.3,0.5c-0.3,0.1-0.7,0.1-0.9,0.5    C634.7,36.7,634.5,36.6,634.2,36.7"/>
		<path class="st0" d="M607.3,24.2c-0.2,1-0.5,2-0.5,3c0,0.4-0.1,0.8-0.1,1.2c0,0.8-0.1,1.6-0.1,2.3c0,0.5,0,1.1,0.1,1.6    c0.2,0.9,0.4,1.7,0.6,2.6c0.1,0.4,0.3,0.7,0.5,1c0.4,0.1,0.7,0,0.9-0.2c0.4-0.5,1-1,1.2-1.6c0.3-0.7,0.5-1.5,0.7-2.2    c0.4-1.6,0.6-3.3,0.5-5c0-0.4-0.1-0.7,0-1.1c0.2-1.3-0.1-2.5-0.4-3.8c0-0.1-0.1-0.1-0.2-0.2c-0.2,0-0.4,0.1-0.6,0.1    c-0.5,0.2-0.9,0.5-1,1.1c-0.1,0.4-0.3,0.7-0.5,1.1c-0.2-0.2-0.3-0.3-0.5-0.5C607.9,23.8,607.7,24,607.3,24.2 M605.9,20.8    c0.2,0.2,0.3,0.3,0.5,0.4c0.4,0.2,0.7,0.2,0.9-0.2c0.2-0.2,0.3-0.5,0.4-0.8c0.3-0.7,0.9-1.1,1.5-1.5c0.3-0.2,0.7-0.3,1-0.1    c0.2,0.1,0.4,0.2,0.5,0.2c0.7,0,1.2,0.3,1.7,0.8c0.2,0.2,0.5,0.2,0.8,0.3c0.1,0.1,0.2,0.3,0.2,0.5c0,0.6,0.4,1,0.6,1.5    c0.1,0.3,0.2,0.7,0.3,1c0.2,1.1,0.2,2.2,0.2,3.3c0.1,1.5-0.1,3.1-0.2,4.6c0,0,0,0.1,0,0.1c-0.4,0.7-0.4,1.5-0.4,2.2    c0,0.3-0.1,0.6-0.2,0.9c-0.2,0.4-0.3,0.8-0.3,1.2c-0.1,0.5-0.3,1-0.8,1.3c-0.2,0.1-0.4,0.2-0.4,0.4c-0.4,0.9-1.2,1.1-2,1.4    c-1.1,0.3-2.1,0.2-3.1-0.3c-0.1,0-0.1-0.1-0.2-0.1c-1.3-0.2-2-1.2-2.6-2.2c-0.8-1.3-1-2.8-1-4.3c0-0.6-0.1-1.2-0.1-1.8    c0-0.9,0-1.7,0.1-2.6c0-0.4,0.1-0.8,0.2-1.1c0.2-1.1,0.6-2.1,0.8-3.2C604.6,22,605.1,21.3,605.9,20.8"/>
		<path class="st1" d="M643.5,35.8c-0.5,0.2-0.9,0.1-1.3-0.3c-0.2-0.2-0.4-0.3-0.5-0.5c-0.2-0.2-0.2-0.6-0.5-0.8    c0-0.5-0.2-1.1,0.4-1.5c0.3-0.2,0.5-0.4,0.7-0.6c0.4-0.3,0.4-0.3,0.8,0c0.2,0.2,0.4,0.3,0.7,0.4c0.2,0.1,0.4,0.1,0.6,0.2    c0.7,0.2,0.8,0.8,0.6,1.3c-0.2,0.5-0.5,1-0.8,1.4C643.9,35.6,643.6,35.7,643.5,35.8"/>
		<path class="st1" d="M641.4,30.9c0.1,0.4,0.2,0.6,0.3,0.9c-0.2,0.3-0.4,0.5-0.6,0.8c-0.2,0.2-0.4,0.4-0.7,0.4    c-0.4,0-0.9,0.2-1.3-0.1c-0.5-0.4-0.9-0.9-1.1-1.6c0-0.2,0-0.4,0.1-0.5c0.3-0.3,0.6-0.5,0.9-0.8c0.2-0.2,0.5-0.2,0.6,0.1    c0.1,0.2,0.3,0.3,0.5,0.4C640.5,30.7,640.9,30.8,641.4,30.9"/>
	</g>
	<g id="_x32_">
		<path class="st0" d="M347.5,110.7L347.5,110.7L347.5,110.7L347.5,110.7z M406.1,24.2c-0.2,0.2-0.3,0.2-0.4,0.3    c-0.3,0.6-0.7,1.2-0.9,1.9c-0.2,0.7-0.2,1.6,0.1,2.3c0.3,0.8,1,0.9,1.6,0.3c0.6-0.6,0.9-1.4,1.1-2.3c0-0.3,0-0.6-0.1-0.8    C407.2,25.3,406.8,24.7,406.1,24.2 M342.5,68.6c0-0.3,0.1-0.4,0.1-0.6c0-2.8,0.1-5.6,0.1-8.4c0-1.1-0.2-2.2,0-3.2    c0.3-1.6-0.2-3.1,0.2-4.7c0-0.1,0-0.2,0-0.4c0-0.5,0.1-1.1,0.1-1.6c0-0.2,0.1-0.4,0.1-0.6c0-0.2-0.1-0.4-0.2-0.5    c-0.1-0.1-0.4,0-0.5,0.1c-0.2,0.1-0.4,0.3-0.5,0.5c-1.3,1.5-2.8,2.9-4,4.5c-0.7,0.9-1.5,1.8-2.2,2.8c-0.9,1.1-1.6,2.4-2.3,3.6    c-0.2,0.4-0.5,0.8-0.7,1.2c-0.4,0.8-1,1.6-1.2,2.6c-0.1,0.5-0.2,1-0.4,1.4c-0.2,0.3-0.2,0.7,0.1,1.1c0.8,0.1,1.7,0.2,2.6,0.3    c0.2,0,0.3,0,0.5-0.1c0.7-0.2,1.3-0.1,2,0c0.6,0.1,1.3,0.2,1.9,0.4c1.4,0.3,2.8,0.4,4,1.4C342.1,68.6,342.2,68.6,342.5,68.6     M364.6,29c1-0.7,1.9-0.7,2.9-0.8c0.2,0,0.3-0.1,0.5-0.1c0.5,0,1,0,1.5,0c0.9,0,1.9,0.1,2.8,0.1c0.7,0,1.4,0.1,2.1,0.1    c0.7,0.1,1.4,0,2.1,0c0.6,0,1.2-0.1,1.8-0.1c1.6,0,3.1,0.2,4.7,0.2c1.1,0,2.3,0,3.4-0.1c1.6-0.2,3.3-0.3,4.9-0.4    c0.6,0,1.2,0,1.8,0.1c1.4,0.2,2.7,0.4,4.2,0.3c1.4-0.1,2.7-0.5,4.1-0.4c0.1,0,0.1-0.1,0.2-0.2c0-0.1,0.1-0.2,0.1-0.3    c-0.1-1.3,0.1-2.5,0.6-3.7c0-0.1,0-0.2,0-0.3c-0.6-0.2-1.1-0.1-1.6,0c-0.5,0.1-1,0.1-1.6,0c-1.4-0.1-2.8-0.2-4.2-0.2    c-1.7,0-3.4,0-5,0c-3.3,0-6.6-0.3-9.8-0.6c-2.4-0.3-4.8-0.4-7.2-0.3c-1.6,0-3.1,0.2-4.7,0.2c-0.6,0-1.1,0.2-1.6,0.5    c-0.3,0.3-0.7,0.4-1.1,0.6c-1.2,0.4-1.7,1.2-1.6,2.5c0.1,0.6,0.2,1.2,0.3,1.8C364.3,28.1,364.4,28.5,364.6,29 M346.6,49.7    c-0.4,0.8-0.8,2.1-0.8,2.9c0,0.4,0,0.8,0,1.2c0,1.5-0.1,3-0.1,4.4c0,0.8,0,1.7-0.1,2.5c-0.2,1.7,0,3.5-0.1,5.2    c-0.1,1.9,0.1,3.9,0,5.8c-0.1,1.1,0.2,2.1,1,2.9c0.4,0.4,0.7,0.9,0.9,1.6c0.4,1.8,1.2,3.6,2.1,5.3c0.2,0.3,0.2,0.6,0.3,0.9    c0.1,1.1-0.2,2.2-0.3,3.3c-0.2,1.4-0.4,2.8-0.7,4.1c-0.3,1.5-0.3,3-0.3,4.5c0,1.2-0.2,2.4,0,3.7c0.1,0.6,0,1.3,0,2    c0,1.8,0,3.5,0,5.3c0,1.6,0.2,3.2,0.2,4.8c0,0.1,0,0.2,0,0.2c0,0.8,0.4,1.3,1.2,1.5c0.5,0.1,1,0.3,1.5,0.5c0.7,0.3,1.2,1.5,1,2.2    c0,0.2-0.2,0.4-0.4,0.4c-0.4,0.1-0.8,0.2-1.2,0.2c-0.7,0-1.4,0.1-2.1,0c-0.7-0.1-1.4-0.3-1.8-0.9c-0.6-0.7-0.7-1.5-0.2-2.3    c0.4-0.6,0.4-1,0.2-1.6c-0.3-1-0.7-2-0.5-3c-0.3-0.8-0.3-1.7-0.3-2.6c-0.1-1.1-0.1-2.1,0-3.2c0.1-0.5-0.1-1-0.1-1.5    c0-0.3-0.2-0.6-0.2-0.8c0-1.6,0-3.1,0.1-4.7c0-0.5,0-0.9,0-1.4c-0.1-2,0.1-3.9,0.2-5.9c0.1-1.4,0.2-2.8,0.4-4.2    c0.2-1.2,0-2.4-0.6-3.5c-0.2-0.3-0.2-0.7-0.7-0.9c-0.3,0.4-0.6,0.8-0.6,1.3c-0.1,2-0.6,4-0.6,6c0,0.1,0,0.2-0.1,0.4    c-0.4,1.1-0.4,2.3-0.5,3.4c-0.1,0.7-0.2,1.4-0.3,2.1c-0.1,0.9-0.4,1.9-0.1,2.8c0.1,0.2,0,0.4,0,0.6c0,1.4-0.1,2.7-0.1,4.1    c0,1.2,0.1,2.5,0,3.7c-0.2,1.5,0,3,0.1,4.4c0,0.3,0,0.6,0,0.9c0,0.9,0,1.7-0.1,2.6c0,0.4-0.1,0.8-0.2,1.2    c-0.1,0.2-0.2,0.5-0.5,0.5c-0.8,0.1-1.1,0.7-1.4,1.2c-0.1,0.2-0.2,0.5-0.4,0.8c-0.7,0.2-1.3-0.1-1.9-0.4c-0.6-0.3-0.7-1.1-0.3-1.6    c0.5-0.6,0.8-1.2,0.8-2c0-0.5,0.2-0.9,0.5-1.4c0.2-0.3,0.5-0.7,0.5-1.1c0.1-1,0.3-2,0.2-3.1c-0.1-1.6,0-3.2,0.1-4.8    c0-0.2,0.1-0.5,0-0.7c-0.3-1.8-0.1-3.5-0.1-5.3c0-0.6,0.1-1.2,0.2-1.8c0-0.3,0-0.7,0.1-1c0.1-0.8,0.1-1.6,0.2-2.4    c0-0.2,0.1-0.5,0.1-0.7c-0.2-1.3,0.1-2.6,0.2-3.9c0.1-1.3,0.3-2.5,0.5-3.8c0.1-0.8,0.3-1.5,0.4-2.3c0.1-0.8,0.2-1.6,0.3-2.5    c0.1-1.1,0.2-2.3,0.5-3.4c0.2-0.5,0.1-1-0.1-1.5c-0.1-0.2-0.2-0.3-0.4-0.5c-0.3,0.2-0.5,0.3-0.7,0.4c-1.1,0.9-2.1,1.7-3.1,2.6    c-0.8,0.6-1.6,1.2-2.4,1.7c-0.6,0.4-1.2,0.8-1.8,1.3c-0.3,0.3-0.5,0.6-0.7,1c-0.4,0.6-0.9,0.7-1.6,0.3c-0.6-0.4-1.1-0.9-1.3-1.5    c-0.1-0.3-0.1-0.7,0.2-0.9c0.2-0.2,0.4-0.3,0.6-0.5c1.6-1.2,3.3-2.5,4.9-3.7c0.5-0.4,1-0.8,1.5-1.3c0.2-0.2,0.3-0.5,0.4-0.7    c-0.4-0.5-1-0.6-1.5-0.7c-0.6-0.1-1.2-0.2-1.8-0.3c-1.3-0.1-2.6-0.1-3.9,0.3c-0.8,0.3-1.6,0.3-2.4-0.1c-0.2-0.1-0.4-0.2-0.6-0.4    c-0.5-0.5-0.8-1.1-0.6-1.8c0.2-0.8,0.3-1.7,0.8-2.4c0.4-0.6,0.6-1.4,0.9-2c0.1-0.3,0.2-0.6,0.4-0.9c0.8-1.2,1.4-2.5,2.1-3.7    c0.4-0.7,0.9-1.3,1.3-1.9c0.4-0.6,0.7-1.2,1.3-1.6c0.2-0.1,0.3-0.4,0.4-0.6c0.5-1.2,1.4-2,2.2-3c0.8-1,1.7-2,2.6-2.9    c0.4-0.4,0.9-0.8,1.4-1.3c0.4-0.4,0.8-0.8,1.1-1.3c0.4-0.5,0.7-1,1.4-1.2c0.3-0.1,0.4-0.4,0.5-0.6c0.2-0.5,0.5-0.6,0.9-0.7    c1-0.1,1.8,0.3,2.5,1.1c0.2,0.2,0.3,0.5,0.2,0.8c-0.3,0.7-0.1,1.2,0.5,1.7c0.6,0.5,0.7,1.1,0.8,1.7c0.3,1.4,0.7,2.7,1,4.1    c0.4,2.1,1.4,3.9,2.3,5.8c0.1,0.1,0.1,0.2,0.2,0.3c0.6,1,1,0.8,1.5,0.2c0.2-0.2,0.5-0.5,0.7-0.7c1-1.3,2-2.5,2.8-3.9    c0.9-1.5,2.1-2.7,3.3-4c0.5-0.5,0.9-1,1.4-1.6c0.4-0.5,0.7-1,0.7-1.7c0.1-1.8,0.3-3.7,0.4-5.5c0.1-1,0-2,0.1-3c0-0.2,0-0.3,0-0.5    c0.2-1.5,0.3-2.9,0.4-4.4c0-0.3,0.2-0.6,0.3-0.9c0.1-0.3,0.3-0.6,0.4-0.8c-0.2-0.5-0.6-0.6-0.9-0.7c-1.3-0.4-1.8-1.4-2.1-2.7    c-0.1-0.6-0.3-1.2-0.3-1.8c-0.1-1-0.1-2,0.4-2.9c0.2-0.4,0.3-0.8,0.3-1.2c0.1-0.9,0.2-1.1,1.1-1.3c1.2-0.2,2.5-0.5,3.8-0.4    c0.8,0,1.6,0,2.3-0.1c1.6-0.3,3.2-0.2,4.8-0.1c1.1,0,2.1,0,3.2,0.1c0.8,0,1.6,0.1,2.5,0.2c1.6,0.2,3.1,0.4,4.7,0.5    c1.9,0.2,3.9,0.2,5.8,0.1c0.6,0,1.2,0,1.8,0c1.3,0,2.5,0.1,3.8,0.1c1.5,0,3,0,4.4,0.1c1,0,1.9-0.1,2.8-0.3    c1.1-0.3,2.1-0.1,3.1,0.3c0.3,0.1,0.7,0.3,1,0.5c0.3,0.1,0.5,0.2,0.6,0.5c0.2,0.5,0.7,0.8,1.1,1.1c0.9,0.8,1.7,1.6,2.1,2.8    c0.5,1.5,0.2,2.9-0.7,4.2c-0.4,0.6-0.8,1.1-1.5,1.5c-0.4,0.2-0.5,0.5-0.6,0.9c-0.2,0.8-0.4,1.6-0.1,2.4c0.1,0.5,0.1,1,0.1,1.5    c-0.1,0.7,0,1.5,0.1,2.2c0.2,0.9,0.1,1.8,0.1,2.7c0,0.7,0.1,1.4,0.1,2.1c0,1.8,0,3.5-0.3,5.3c-0.1,0.5,0,1,0,1.5    c0,1.6,0.1,3.1,0.1,4.7c0,0.6,0,1.1-0.1,1.7c-0.2,1.6-0.2,3.2,0.1,4.8c0.1,0.7,0.2,1.5,0.2,2.2c0.1,1.8,0.1,3.5,0.1,5.3    c0,0.3-0.1,0.7-0.1,1c0,0.3,0,0.6,0,0.9c0,0.9,0,1.9,0.1,2.8c0.1,1.4,0.1,2.9,0.2,4.3c0.1,1.4,0.2,2.8,0.2,4.2    c-0.1,1.1,0.1,2.1,0.1,3.2c0,1.3,0.1,2.5-0.3,3.8c0,0.1,0,0.2,0,0.4c0,2.1,0,4.1,0,6.2c0,0.1,0,0.2,0,0.4c0.2,2.5,0.1,4.9,0.2,7.4    c0,1.2,0,2.3,0,3.4c-0.1,1.1,0.1,2.1,0.2,3.2c0.1,0.9,0.1,1.8,0,2.7c0,0.3-0.1,0.7,0,1c0.2,0.6,0,1.1-0.1,1.7    c-0.1,0.3-0.3,0.5-0.6,0.6c-1,0.3-1.9,0.2-2.8-0.4c-0.5-0.4-0.8-0.9-0.6-1.5c0.2-0.8,0.2-1.6,0.1-2.4c-0.1-0.3,0-0.7,0.1-1.1    c0.3-1,0.4-2.1,0.2-3.2c-0.1-0.6-0.1-1.1,0-1.7c0-1.3,0-2.5-0.1-3.8c-0.1-1-0.2-2,0-3.1c0.1-0.6,0-1.1,0-1.7c0-1.4,0-2.9,0-4.3    c0-3,0.1-5.9,0.2-8.9c0-1.3,0-2.5-0.1-3.8c-0.1-1.4-0.2-2.7-0.2-4.1c0-1,0-2.1,0-3.1c0-1.9-0.1-3.8-0.1-5.7    c0.1-2.5-0.3-4.9-0.5-7.4c-0.1-1,0-2.1-0.1-3.1c-0.1-0.9,0-1.7,0-2.6c0-1.6,0-3.3,0.1-4.9c0-0.9,0-1.8,0.1-2.7    c0-0.1-0.1-0.1-0.2-0.3c-0.1,0.2-0.2,0.3-0.2,0.4c0,0.7-0.2,1.3-0.3,1.9c-0.3,0.9-0.1,1.8-0.1,2.7c0,0.7,0.1,1.4-0.3,2    c-0.3,0.5-0.3,1.2-0.4,1.8c-0.1,0.5-0.2,1.1-0.1,1.6c0.1,0.6-0.1,1.1,0,1.6c0.1,1-0.2,2-0.3,2.9c0,0.4-0.1,0.9-0.1,1.3    c0,1,0.1,2,0.1,2.9c0,0.4-0.1,0.9-0.2,1.3c-0.1,0.7-0.2,1.5,0,2.2c0.1,0.4,0.1,0.7,0.1,1.1c-0.1,1.3,0,2.5,0.1,3.8    c0,0.4-0.1,0.8-0.2,1.2c-0.2,0.9-0.3,1.7-0.1,2.7c0.2,0.7,0.1,1.5,0.1,2.2c0,1-0.1,2.1-0.2,3.1c-0.1,0.6-0.1,1.1-0.5,1.6    c-0.1,0.2-0.1,0.5-0.1,0.7c0,0.1,0.1,0.2,0,0.4c-0.1,1-0.6,1.5-1.6,1.4c-0.6,0-1.2-0.1-1.5-0.7c-0.3-0.6-0.5-1.2-0.1-1.9    c0.4-0.6,0.4-1.3,0.5-2c0.2-1.4,0.3-2.8,0.4-4.2c0-1.8,0.1-3.7,0.3-5.5c0.1-0.9,0-1.8,0-2.7c0-1.2,0-2.3,0.1-3.5    c0-1,0.1-2.1,0.1-3.1c0-1.3,0-2.6,0.1-3.8c0-0.9,0.2-1.7,0.2-2.6c0-0.6,0-1.2,0.1-1.8c0-0.6,0.1-1.1,0.1-1.7    c0.2-2.6,0.4-5.2,0.6-7.8c0.2-1.9,0.4-3.8,0.5-5.6c0.2-2.3,0.3-4.7,0.4-7c0-0.8,0-1.6-0.1-2.5c-0.4-0.3-0.8-0.1-1.3,0    c-1.3,0.3-2.5,0.3-3.8,0.2c-0.9-0.1-1.8-0.2-2.7-0.4c-0.6-0.1-1.3-0.1-2-0.1c-2,0.1-4,0.3-6,0.4c-1,0.1-2,0.1-3-0.1    c-1.7-0.2-3.4-0.1-5.2-0.1c-1.5,0-3,0-4.4,0c-1,0-2-0.2-2.9-0.3c-0.6-0.1-1.2-0.1-1.8,0.2c-0.4,0.2-0.9,0.3-1.4,0.2    c-0.3,0-0.6,0-0.9,0c0,0.2,0,0.4,0.1,0.5c0.3,0.5,0.3,1,0.4,1.5c0.1,1.8,0.1,3.6-0.2,5.4c-0.1,0.9-0.1,1.8-0.2,2.7    c0,0.6-0.1,1.1-0.2,1.7c0,0.4-0.1,0.8,0.2,1.3c0.5,0.1,1.1,0.2,1.7,0.4c0.2,0.1,0.5,0.1,0.7,0.2c0.2,0.1,0.4,0.2,0.6,0.1    c0.9-0.2,1.7,0.3,2.5,0.5c0.2,0,0.3,0.1,0.4,0.3c0.4,0.4,0.4,0.8-0.1,1.1c-0.5,0.3-1.1,0.5-1.7,0.7c-0.4,0.8,0,1.5,0.1,2.2    c-0.6,0.9-1.4,0.9-2.3,1c-0.9,0.1-1.6-0.4-2.4-0.7c-0.1,0.3-0.2,0.5-0.3,0.7c-0.2,2.3-0.4,4.6-0.6,6.9c-0.2,2.2-0.4,4.3-0.5,6.5    c-0.1,1.7-0.2,3.4-0.2,5.2c0,0.5-0.1,1-0.1,1.5c0,1.7-0.1,3.4-0.1,5.1c0,1.7,0.1,3.4,0.1,5.2c0.2,3.3,0.2,6.7,0.7,10    c0.1,0.5,0.2,1,0.6,1.3c0.4,0.4,0.9,0.5,1.5,0.5c0.1,0,0.2,0,0.4,0c1-0.1,1.9,0,2.8,0.3c1.2,0.4,2.4,0.3,3.5,0.3    c0.8,0,1.6-0.1,2.5,0c1.4,0.1,2.9,0.3,4.3,0.5c1.2,0.2,2.3,0,3.4-0.3c2.8-0.7,5.6-1.2,8.5-1.2c1.3,0,2.6,0,3.8,0    c0.2,0,0.5,0,0.7-0.1c0.7-0.2,1.3-0.6,1.4-1.4c0.1-0.2,0.1-0.5,0.1-0.7c0-0.2,0-0.3,0-0.5c0.1-0.8,1.4-1.8,2.2-1.6    c0.2,0.1,0.5,0.3,0.5,0.5c0.3,0.6,0.5,1.2,1,1.7c0.3,0.3,0.2,0.7,0.2,1.1c-0.1,0.7-0.2,1.3,0,2c0.1,0.5-0.3,0.8-0.7,1.1    c-0.2,0.1-0.5,0.2-0.8,0.3c-1.1,0.3-2.3,0.4-3.4,0.4c-0.2,0-0.4,0-0.6,0c-0.9,0-1.1,0.2-1.2,1.1c-0.2,2.3-0.5,4.6-0.6,6.9    c-0.1,1-0.2,2-0.4,2.9c-0.2,1.2-0.2,2.4,0,3.6c0.1,0.7,0.2,1.5,0.1,2.2c-0.1,1.1-0.1,2.3,0.4,3.4c0.3,0.8,0,1.5-0.8,1.7    c-0.2,0.1-0.5,0.1-0.7,0.1c-0.6-0.1-1.3-0.2-1.9-0.4c-0.5-0.1-0.8-0.7-0.7-1.2c0-0.4,0.1-0.7,0.1-1.1c0.2-2,0.2-3.9,0-5.9    c-0.2-1.4-0.1-2.9,0.1-4.3c0.1-1,0.2-2,0.3-3.1c0-0.6,0-1.2-0.1-1.7c-0.1-0.8-0.1-1.6,0.2-2.3c0.1-0.4,0.3-0.9,0.4-1.3    c0.1-0.4-0.1-0.6-0.5-0.7c-0.2,0-0.5,0-0.7,0c-1.7,0.3-3.3,0.7-4.9,1c-1,0.2-2,0.2-2.9,0.4c-0.3,0-0.5,0.1-0.9,0.2    c0,0.5,0,0.9,0,1.3c0,0.9,0.1,1.9,0,2.8c-0.1,0.6,0.1,1.2,0.2,1.8c0.1,0.8,0.2,1.6,0.3,2.4c0.1,1.1,0.1,2.3,0.2,3.5    c0,0.4,0.1,0.7,0.2,1.1c0.2,0.7,0.1,1.5,0,2.2c-0.1,0.8-0.3,1.5-0.4,2.3c0,0.6-0.3,1.2-0.5,1.8c-0.1,0.4-0.4,0.6-0.8,0.6    c-0.9,0.2-1.6-0.1-2.4-0.5c-0.3-0.2-0.5-0.5-0.5-0.8c0-0.5,0-0.9,0.1-1.4c0.2-1.2,0.5-2.4,0.4-3.7c-0.1-0.6,0.1-1.3,0.1-2    c0-1.4-0.1-2.7-0.1-4.1c0-0.2,0-0.3-0.1-0.5c-0.5-1.5-0.3-3-0.4-4.5c0-0.5,0-0.9-0.1-1.4c-0.1-1.3-0.5-1.6-1.8-1.7    c-0.5,0-1.1,0-1.6,0c-0.3,0-0.7,0-1,0.1c-1.2,0.1-2.3,0-3.4-0.3c-0.1,0-0.2,0-0.3,0c-0.4,0.9-0.7,1.7-0.8,2.8    c-0.1,1.1-0.3,2.2-0.4,3.3c-0.2,1.9-0.3,3.8-0.2,5.7c0,0.7-0.1,1.4,0.1,2.1c0.3,1.2,0.2,2.4,0.4,3.5c0,0.2,0,0.5,0,0.7    c-0.1,1.1-0.6,1.6-1.7,1.5c-0.5,0-1.1-0.1-1.6-0.3c-0.6-0.2-1-0.9-0.9-1.6c0-0.4,0.2-0.8,0.3-1.2c0.2-0.4,0.2-0.8,0-1.2    c-0.3-0.6-0.3-1.3-0.3-1.9c0-0.3,0-0.7,0-1c0.2-1.6,0-3.1,0.2-4.7c0.1-1.3,0.3-2.6,0.4-3.9c0.1-1,0.2-2,0.2-3.1    c0-0.4-0.1-0.7-0.1-1.2c-0.9-0.4-1.8-0.8-2.8-1.2c-0.1-0.2-0.3-0.5-0.4-0.8c-0.3-0.5-0.4-1-0.3-1.5c0.3-1.1,0-2.2,0-3.3    c0-0.2-0.1-0.5-0.1-0.7c0-1.1,0-2.2-0.1-3.3c0-0.7-0.2-1.5-0.2-2.2c0-0.2-0.1-0.4,0-0.6c0.1-0.6,0.1-1.2-0.1-1.8    c-0.1-0.6,0-1.1,0.1-1.7c0.1-0.2,0.2-0.5,0.1-0.7c-0.3-0.8-0.1-1.6-0.1-2.4c0-0.6,0.1-1.1,0-1.7c0,0,0-0.1,0-0.1    c0.5-1-0.1-2,0.2-3c-0.1-1,0.2-1.9,0-2.9c-0.1-0.8-0.1-1.6,0-2.3c0.2-3.1,0.4-6.2,0.6-9.2c0-0.4,0.1-0.7,0.1-1.1    c0-0.2-0.1-0.5-0.2-0.8c-0.3,0.1-0.4,0.2-0.6,0.3c-0.3,0.2-0.6,0.5-0.8,0.8c-0.7,1.1-1.4,2.2-2.1,3.3c-0.2,0.3-0.4,0.7-0.7,1    c-0.5,0.6-0.9,1.2-1.5,1.8c-0.5,0.5-1,1-1.4,1.4c-0.8,0.1-1.3-0.3-1.9-0.4c-0.7-0.1-1.1-0.4-1.4-1c-0.2-0.4-0.6-0.8-0.9-1.2    c-0.5-0.7-1-1.5-1.2-2.4c-0.3-1.1-0.8-2.1-1.2-3.1c-0.4-0.9-0.8-1.8-1-2.8C347.1,50.5,346.8,50.1,346.6,49.7    c-0.1-0.1-0.1-0.1-0.1-0.2C346.6,49.5,346.6,49.6,346.6,49.7"/>
		<path class="st0" d="M348.5,32.1c0.3,0.6,0.5,0.8,0.7,0.8c0.4,0,0.7-0.3,0.9-0.6c0.1-0.2,0.2-0.3,0.3-0.5c0.2-0.7,0.5-1.5,0.6-2.3    c0.3-2,0.3-4.1-0.1-6.1c-0.1-0.8-0.3-1.5-0.5-2.3c0-0.2-0.1-0.4-0.4-0.4c-0.3,0-0.3,0.2-0.4,0.4c-0.2,0.5-0.4,1.1-0.5,1.6    c-0.5,1.5-0.9,3.1-0.9,4.7c-0.1,1,0,2,0,3.1C348.3,30.9,348.5,31.5,348.5,32.1 M344.6,23.6c0.2-1,0.3-2.2,0.5-3.4    c0.1-0.7,0.4-1.3,0.6-2c0.3-0.8,0.9-1.5,1.6-2c0.8-0.6,1.7-0.3,2.6,0c0.7,0.2,1.3,0.7,1.7,1.4c1,1.9,2,3.8,2.3,5.9    c0.3,2,0.5,4.1,0.3,6.1c-0.1,1.3-0.4,2.7-0.9,3.9c-0.4,1-1.3,1.5-2.3,1.6c-1.4,0.2-2.7-0.2-3.8-1c-0.2-0.2-0.4-0.4-0.6-0.6    c-1.4-1.9-1.7-4-1.5-6.2c0.1-0.8,0-1.6,0-2.4C345.1,24.6,344.8,24.2,344.6,23.6"/>
		<path class="st1" d="M379.4,50.8c-1-0.4-1.4-1.1-1.5-2.1c-0.1-0.7,0.1-1.1,0.8-1.3c1.2-0.4,2.5-0.8,3.8-0.9    c1.4-0.1,2.8-0.2,4.2-0.3c0.8-0.1,1.6-0.2,2.4-0.4c1.3-0.2,2.6-0.2,3.9-0.7c0.6,0.1,1.2,0.1,1.8,0.3c0.6,0.2,1.1,0.6,1.6,1    c0.3,0.2,0.5,0.6,0.5,0.9c0.1,0.5-0.1,0.8-0.6,0.8c-2.3,0-4.5,0.5-6.7,0.9c-2,0.4-4,0.7-6.1,0.9c-1.2,0.1-2.4,0.3-3.5,0.8    C379.8,50.7,379.6,50.7,379.4,50.8"/>
		<path class="st1" d="M386.3,36.4c0.1,0.5,0.2,0.9,0.3,1.4c0,0.4-0.1,0.7-0.5,0.7c-0.6,0.1-1.3,0.2-1.9,0.3c-0.5,0-1,0-1.5,0    c-2.1,0-4.1,0-6.1,0.5c-0.7,0.2-1.5,0.3-2.2,0.4c-0.9,0.2-1.3,0-1.7-0.8c-0.2-0.5-0.4-1-0.4-1.5c0-0.3,0.1-0.6,0.4-0.7    c0.4-0.1,0.8-0.3,1.2-0.4c1.3-0.3,2.6-0.3,3.9-0.4c1.2,0,2.4-0.2,3.6-0.2c0.3,0,0.6-0.1,0.8,0c0.4,0.1,0.7,0.1,1.1,0    c0.8-0.2,1.5,0,2.3,0.4C385.8,36.2,386,36.3,386.3,36.4"/>
		<path class="st1" d="M395.7,56.3c-0.7,0.5-1.4,0.6-2.1,0.7c-1.2,0.1-2.4,0.2-3.7,0.4c-0.3,0-0.6,0.1-1,0.2c-0.7,0.2-1.3,0-1.7-0.6    c-0.4-0.6-0.4-1.3-0.2-1.9c0.1-0.2,0.4-0.5,0.6-0.6c0.6-0.2,1.2-0.4,1.8-0.5c0.9-0.2,1.8-0.2,2.7-0.3c0.7-0.1,1.3,0.1,1.9,0.4    c0.3,0.2,0.7,0.3,1,0.5c0.4,0.1,0.6,0.4,0.7,0.8C395.7,55.6,395.7,56,395.7,56.3"/>
		<path class="st1" d="M388.4,38.4c0-0.1-0.1-0.2-0.1-0.2c-0.4-1-0.2-1.5,0.8-1.8c0.9-0.2,1.8-0.3,2.7-0.4c0.2,0,0.3,0.1,0.5,0.1    c1,0.1,1.7,0.8,2.6,1.1c0.5,0.2,0.8,0.8,1,1.4c0.1,0.4,0,0.7-0.4,0.8c-0.2,0.1-0.5,0.2-0.7,0.1c-1.2-0.3-2.4,0.1-3.5,0.4    c-0.5,0.2-0.9,0.4-1.4,0.1c-0.5-0.3-1.1-0.6-1.3-1.3C388.5,38.6,388.4,38.5,388.4,38.4C388.4,38.3,388.4,38.3,388.4,38.4"/>
	</g>
	<g id="_x31_">
		<path class="st0" d="M105.5,60.4c0,0-0.1,0.1-0.1,0.1c0,0.1,0,0.3,0,0.4c0,0.5,0.2,1.1-0.1,1.6c-0.2,0.3-0.4,0.6-0.5,0.9    c0,0.1,0,0.2,0,0.3c0.1,0,0.1,0,0.2,0c0.7-0.8,1.4-1.6,2-2.3c-0.3-0.2-0.5-0.5-0.7-0.7C106,60.7,105.8,60.6,105.5,60.4     M123.6,58.5c0-0.3,0-0.5-0.1-0.6c-0.3-0.3-0.6-0.7-0.9-0.9c-0.8-0.4-1.3-1.1-1.9-1.7c-0.4-0.3-0.7-0.8-1.1-1.2    c-0.3-0.3-0.5,0.1-0.6,0.2c-0.2,0.2-0.2,0.4,0.1,0.4c0.5,0.2,0.8,0.6,1.2,1c0.3,0.4,0.7,0.8,1.1,1.2c0.2,0.3,0.5,0.5,0.7,0.8    c0.4,0.5,0.8,1,1.2,1.5c0.1,0.1,0.2,0.3,0.3,0.4c0.2,0.3,0.3,0.5,0.4,0.8c0.2-0.1,0.2-0.2,0.3-0.3c0.1,0.6,0.2,1.2,0.9,1.2    c0,0,0.1,0.1,0.1,0.1c0.1,0.3,0.1,0.5,0.5,0.7c0.3,0.2,0.5,0.6,0.7,0.9c0.2,0.3,0.4,0.6,0.7,0.9c0.3-0.5,0.1-1.3-0.3-1.4    c-0.3-0.1-0.3-0.3-0.4-0.5c0-0.1-0.1-0.2-0.2-0.4c-0.1-0.2-0.2-0.5-0.3-0.7c-0.2-0.3-0.3-0.5-0.5-0.7c-0.4-0.4-0.8-0.7-1.1-1.2    C124.3,58.8,124.1,58.4,123.6,58.5 M98.8,75.6c-0.3-0.6-0.3-1,0.1-1.4c0.2-0.2,0.4-0.3,0.7-0.4c0.1,0,0.2,0.1,0.3,0.2    c0.1,0.1,0.2,0.3,0.4,0.4c0.5,0.2,0.5,0.4,0.3,0.9c-0.1,0.2-0.2,0.4,0,0.5c0.1,0.1,0.1,0.2,0.2,0.4c0.2-0.1,0.3-0.3,0.5-0.4    c0.7-0.2,1.3-0.5,1.8-1.1c0.3-0.4,0.7-0.6,1-1c0.2-0.2,0.3-0.6,0.5-0.8c0.3-0.3,0.3-0.8,0.4-1.2c0,0-0.2-0.2-0.3-0.2    c-0.3,0-0.7,0.1-1,0.2c-0.4,0-0.8,0.1-1.3,0c-0.5,0-1-0.2-1.5-0.2c-0.2,0-0.4,0-0.6,0c-0.1,0-0.2,0.2-0.3,0.3    c0.1,0.1,0.2,0.2,0.2,0.3c0,0.1,0.1,0.1,0.1,0.2c0,0.1-0.1,0.1-0.2,0.1c-0.3,0.1-0.7,0.3-1,0.3c-0.2,0-0.5,0-0.7-0.1    c-0.2,0-0.3-0.2-0.4-0.3c-0.1-0.2-0.1-0.4-0.2-0.6c-0.3-0.1-0.6-0.2-0.9-0.2c-0.2,0-0.5,0-0.6,0.1c-0.2,0.2-0.2,0.5-0.3,0.7    c-0.2,0.4,0.2,0.5,0.4,0.5c0.6,0.1,0.8,0.6,1,1c0.1,0.3,0,0.7,0,1.1c0,0.1,0,0.2,0.1,0.3C97.8,75.6,98.3,75.5,98.8,75.6     M104.4,64.5c-0.3,0.2-0.5,0.4-0.8,0.5c-0.1,0.1-0.3,0-0.5,0.1c-0.4,0.2-0.7,0.4-1.1,0.6c-0.1,0.1-0.2,0.1-0.3,0.1    c-0.2,0-0.4,0-0.5,0c-0.2,0.1-0.5,0.2-0.7,0.2c-1,0.3-2,0.8-2.7,1.6c-0.4,0.5-0.7,1.2-1,1.8c0.7,0.4,1.4,0.3,2,0.2    c1-0.3,2-0.1,2.9,0.1c0.1,0,0.3,0.1,0.4,0.1c0.6,0,1.1,0,1.7-0.1c0.3,0,0.6,0,0.9-0.1c-0.1-0.1-0.1-0.2-0.2-0.2    c-0.4-0.4-0.8-0.8-0.8-1.5c0-0.3,0.1-0.6,0-1c0-0.4,0.3-0.9-0.2-1.2C104,65.4,104.4,65,104.4,64.5 M112.7,50.9    c0.1-1,0.1-1.8,0.2-2.8c-0.5,0.1-0.7,0.4-1,0.7c-0.1,0.1-0.2,0.2-0.3,0.3c-0.5,0.5-1.1,0.9-1.6,1.4c-0.8,0.7-1.6,1.4-2.4,2.1    c-1,0.9-2,1.8-3,2.7c-0.7,0.7-1.4,1.4-2.1,2.2c-0.5,0.6-1.1,1.1-1.6,1.7c-0.4,0.4-0.6,0.9-1,1.3c-0.2,0.3-0.5,0.6-0.8,1    c0.6,0,1.2,0,1.7,0c0.5,0,1,0,1.6,0c0.4,0,0.7-0.3,0.7-0.8c0-0.4,0-0.9-0.1-1.3c-0.3-1.3,0.6-1.6,1.6-1.4c0.7,0.1,1.2,0.6,1.8,0.9    c0.5,0.3,0.9,0.8,1.4,1.1c0.4,0.3,0.8,0.7,1.5,0.6c0.3,0,0.6,0.3,0.8,0.5c0.2,0.2,0.2,0.7,0.1,0.9c-0.1,0.4-0.4,0.7-0.7,1    c-0.4,0.4-0.8,0.7-1.2,1.1c-0.5,0.5-0.9,1-1.3,1.5c-0.3,0.3-0.6,0.5-0.5,1.1c0.1,0.4-0.2,0.9-0.2,1.4c0,0.3,0,0.6,0.1,0.8    c0.6,1,1,2.1,1,3.3c0,0.7-0.4,1.3-0.6,2c-0.4,1.3-1.5,2-2.5,2.9c-0.4,0.3-0.8,0.7-1.2,0.9c-0.5,0.2-1.1,0.3-1.7,0.3    c-0.6,0-1.2,0-1.7-0.2c-1-0.4-2.2-0.6-3.1-1.4c-0.6-0.6-1.4-1.2-1.9-1.8c-0.5-0.6-0.9-1.3-1-2.1c-0.1-0.5-0.1-0.9-0.1-1.4    c0.1-0.6,0.1-1.3,0.2-1.9c0-0.2,0.3-0.5,0.4-0.7c0.2-0.4,0.6-0.8,0.7-1.3c0.1-0.7,0.6-1.1,0.9-1.7c0.2-0.4,0.6-0.6,1-0.9    c0.8-0.6,1.7-1.1,2.7-1.2c0.1,0,0.2,0,0.2-0.1c0,0,0,0,0.1-0.1c-0.2,0-0.3,0-0.5-0.1c-0.6,0-1.2,0-1.7-0.3    C97.3,63,97,63.1,96.7,63c-0.2-0.1-0.4-0.3-0.6-0.4c-0.2-0.2-0.2-0.4,0-0.6c0,0-0.1-0.2-0.1-0.2c0.2-0.4,0.4-0.9,0.7-1.1    c0.7-0.4,0.8-1.2,1.3-1.7c0.4-0.4,0.8-1,1.2-1.4c0.2-0.3,0.5-0.5,0.8-0.8c0.3-0.4,0.6-0.8,1-1.1c0.8-0.8,1.6-1.7,2.6-2.3    c0,0,0.1-0.1,0.1-0.1c0.2-0.3,0.5-0.6,0.8-0.8c0.6-0.5,1.2-1.2,1.8-1.7c0.3-0.3,0.6-0.5,0.9-0.8c0.5-0.4,1-0.8,1.5-1.3    c0.4-0.3,0.8-0.6,1.1-0.9c0.5-0.5,1-1,1.5-1.5c0.3-0.4,0.6-0.8,0.9-1.2c0.3-0.3,0.6-0.5,0.9-0.8c0.1-0.1,0.2-0.3,0.2-0.4    c0-0.6,0.3-0.8,0.9-0.6c0.6,0.1,1,0.3,1.5,0.6c0.4,0.3,0.8,0.5,1.2,0.8c0.1,0,0.2,0.1,0.2,0.1c0.5,0,1,0.2,1.4,0.4    c0.4,0.2,0.8,0.2,1.2,0.3c0.4,0.1,0.7,0.2,1.1,0.3c0.8,0.2,1.6,0.4,2.3,0.6c0.4,0.1,0.8,0.3,1.2,0.5c0.5,0.1,0.9,0.2,1.4,0.4    c0.1,0,0.1,0.1,0.2,0.1c0.1,0.1,0.2,0.2,0.3,0.2c0.8,0.2,1.6,0.5,2.4,0.9c0.5,0.3,1.1,0.5,1.6,0.7c1,0.4,2,0.7,2.9,1.1    c0.4,0.2,0.8,0.7,1.1,1c0,0.1-0.2,0.5-0.4,0.6c-0.7,0.3-1.4,0.5-2.2,0.7c-0.2,0.1-0.5,0.1-0.7,0.2c-1.1,0.2-2.2,0.6-3.4,0.4    c-0.5-0.1-0.9-0.1-1.4-0.1c-0.4,0-0.8,0-1.1,0.1c-0.8,0.1-1.7,0.1-2.5,0.2c-0.3,0-0.4,0.1-0.5,0.4c-0.1,0.3-0.1,0.5,0.1,0.6    c0.1,0.1,0.2,0.3,0.4,0.4c0.3,0.3,0.7,0.6,1,0.9c0,0,0.1,0.1,0.2,0.1c0.6,0.2,0.9,0.7,1.3,1.2c0.6,0.6,1.1,1.3,1.7,2    c0.6,0.7,1.2,1.4,1.8,2.1c0.3,0.4,0.5,1.1,0.9,1.4c0.6,0.6,0.8,1.3,0.9,2c0.1,0.4-0.2,0.8-0.4,1.2c-0.6,1.2-1.4,1.4-2.5,0.7    c-0.3-0.2-0.7-0.3-0.9-0.5c-0.3-0.3-0.6-0.6-0.9-0.9c0,0-0.1-0.1-0.1-0.1c-0.6-0.3-0.8-0.9-1.1-1.4c0-0.1-0.1-0.1-0.2-0.2    c-0.4-0.4-0.8-0.8-1.2-1.3c-0.3-0.3-0.6-0.5-0.8-0.8c-0.3-0.3-0.6-0.7-0.9-1.1c-0.3-0.3-0.5-0.6-0.8-0.9c-0.1-0.1-0.1-0.1-0.2-0.2    c-0.3-0.4-0.6-0.8-0.9-1.3c-0.3-0.6-0.8-0.3-1.3-0.3c-1,0-1.8-0.3-2.4-1.1c-0.3-0.5-0.2-1-0.1-1.5c0.1-0.4,0.3-0.8,0.4-1.2    c0.2-0.3,0.2-0.8,0.5-0.8c0.3-0.4,0.6-0.6,0.9-0.9c0.4-0.4,0.8-0.8,1.3-1c0.5-0.3,0.8-0.7,1.1-1.1c0.4-0.4,0.8-0.5,1.5-0.1    c0.3,0.2,0.5,0.3,0.8,0.5c0,0,0,0.1,0,0.3c0.2,0,0.3,0.1,0.5,0.1c-0.2,0.3-0.4,0.5-0.6,0.8c0.8,0.2,1.4,0.2,2-0.2    c0.6-0.3,0.9-0.3,1.4,0.1c0.1,0.1,0.3,0.1,0.5,0.1c0.7,0,1.5,0,2.2-0.1c0.3,0,0.7-0.3,1-0.4c0.1,0,0.2-0.1,0.4-0.2    c-0.9-0.4-1.6-0.7-2.4-1.1c0-0.4-0.4-0.2-0.6-0.3c-0.1-0.1-0.3-0.1-0.5-0.1c-0.2-0.1-0.4-0.1-0.5-0.2c-0.5-0.3-1.1-0.6-1.7-0.6    c-0.3,0-0.6-0.2-0.8-0.3c-0.3-0.1-0.6-0.2-1-0.3c-0.7-0.2-1.4-0.3-2.1-0.5c-0.4-0.1-0.8-0.3-1.2-0.4c-0.3-0.1-0.6-0.4-0.9-0.2    c0,0-0.1,0-0.2,0c-0.5-0.2-1-0.5-1.7-0.7c-0.1,0.7-0.3,1.3-0.4,1.9c-0.1,0.4-0.1,0.8-0.2,1.2c-0.1,0.4-0.1,0.8-0.1,1.2    c-0.1,0.8-0.1,1.7-0.1,2.5c0,0.4-0.2,0.9-0.1,1.3c0.1,0.4,0,0.8-0.1,1.1c-0.1,0.5,0,1,0,1.5c0,0.4-0.1,0.8-0.2,1.3    c0,0.4,0,0.8,0,1.1c0,0.5,0,0.9,0,1.4c0,0.5,0,0.9,0.1,1.4c0,0.6,0,1.2,0,1.8c0,1.1,0.1,2.3,0.2,3.4c0,0.6,0.1,1.2,0.1,1.8    c0,0.9,0.1,1.8,0.1,2.7c0,0,0,0.1,0,0.1c0.3,0.6,0.6,1.3,0.8,1.9c0.1,0.1,0.1,0.3,0.1,0.4c-0.1,0.6-0.2,1.2-0.2,1.8    c0,0.8,0,1.5,0,2.3c0,0.8,0.1,1.6,0.1,2.4c0,0.3,0,0.5,0,0.8c0,2.1,0.1,4.2,0.1,6.3c0,0.9,0,1.8,0.1,2.8c0,0.2,0.1,0.4,0.1,0.6    c0,0.5,0,1,0,1.5c0.1,1,0.1,2,0.2,3c0,0.2,0.2,0.4,0.1,0.6c-0.1,0.3,0.1,0.6,0.1,0.9c0.1,0.7,0.1,3,0.3,3.7c0.3,1.6,0.7,3.1,1,4.7    c0.1,0.6,0.2,1.3-0.2,1.9c0,0.1,0,0.2,0,0.2c0.2,0.7,0.3,1.3,0.5,2c0,0.1,0.2,0.2,0.4,0.4c-0.1,0.1-0.2,0.1-0.4,0.2    c0.2,0.1,0.3,0.1,0.4,0.2c0.5,0,1,0,1.5,0c0.3,0,0.7,0.1,1,0.1c0,0,0.1,0,0.1,0c0.1,0.5,0.4,0.8,0.6,1.1c0.1,0.1,0.2,0.3,0.2,0.5    c0,0.1,0.1,0.3,0,0.3c-0.2,0.1-0.4,0.3-0.6,0.4c-0.7,0.1-1.4,0-2.2,0c-0.4,0-0.9,0-1.3,0c-0.1,0-0.3-0.1-0.4-0.2    c-0.1-0.1-0.2-0.2-0.3-0.3c-0.5-0.1-0.6-0.7-0.9-1c-0.1-0.1-0.1-0.3-0.1-0.5c-0.5-0.2-0.6-0.8-0.6-1.3c-0.1-0.7-0.2-1.3-0.4-2    c-0.1-0.4-0.2-0.8,0-1.3c0.2-0.5,0.2-1.1,0.2-1.6c0-0.6-0.2-1.1-0.4-1.7c-0.2-0.8-0.4-3.2-0.5-4c-0.1-0.4,0-0.8-0.1-1.2    c-0.1-0.5-0.2-0.9-0.2-1.4c0-0.1,0-0.3-0.1-0.4c0-0.4-0.1-0.9-0.1-1.3c-0.1-0.8-0.1-1.6-0.2-2.3c-0.1-0.8-0.1-1.5-0.2-2.3    c0-0.1,0-0.2,0.1-0.3c0.1-0.3,0.2-0.6-0.2-0.6c0.3-0.8,0.1-1.6,0-2.4c0-0.4-0.1-0.7,0-1.1c0.1-0.4-0.1-0.9-0.1-1.4    c-0.1,0-0.1,0-0.2,0c-0.1,0.5-0.2,0.9-0.4,1.4c-0.1,0.3-0.1,0.6-0.2,0.8c-0.2,0.7-0.3,1.4-0.5,2.1c-0.1,0.5-0.1,1-0.2,1.5    c-0.1,0.6-0.3,1.1-0.4,1.7c-0.2,0.7-0.3,1.5-0.4,2.2c-0.1,0.6-0.3,1.3-0.4,1.9c-0.1,0.4-0.1,0.8-0.2,1.1c-0.2,0.9-0.4,1.8-0.5,2.6    c-0.1,0.5,0,1-0.3,1.4c0,0,0,0.1,0,0.2c0.3,0.7,0.1,1.4,0,2.1c-0.2,1.3-0.2,2.7-0.3,4c-0.1,0.5-0.1,0.9,0,1.4c0.1,0.7,0,1.4,0,2.1    c0,0.5-0.2,1.1,0.3,1.6c0,0,0,0.3-0.1,0.3c-0.2,0.1-0.5,0.3-0.7,0.3c-0.8,0-1.6-0.3-2.4-0.2c-0.5,0-1-0.1-1.5-0.1    c-0.1,0-0.7-1-0.6-1.2c0-0.1,0-0.2-0.1-0.4c0.3-0.1,0.7-0.2,1-0.4c0.3-0.1,0.8-0.1,0.9-0.4c0.2-0.3,0.7-0.4,0.6-1    c-0.1-0.4,0.2-0.9,0.2-1.3c0-0.4,0-0.8,0-1.2c0-0.6,0.1-1.1,0.1-1.7c0-0.1,0-0.1,0-0.2c-0.2-0.9,0-1.7,0.2-2.6    c0.1-0.4,0-0.8,0-1.2c0-0.2,0.1-0.3,0.1-0.5c0-0.2,0-0.4,0.1-0.6c0.1-0.5,0.2-0.9,0.3-1.4c0-0.2,0.1-0.4,0.1-0.7    c0.1-0.8,0.1-1.6,0.2-2.4c0.1-0.5,0.3-1,0.4-1.4c0-0.2,0-0.4,0-0.6c0.2-0.8,0.3-1.5,0.5-2.2c0.1-0.3,0-0.7,0.1-1    c0.1-0.4-0.1-0.9,0.1-1.2c0.2-0.4,0.2-0.8,0.3-1.1c0.3-0.7,0.4-1.5,0.5-2.3c0-0.1,0-0.1,0-0.2c0.2-0.8,0.4-1.6,0.6-2.4    c0.1-0.6,0.2-1.2,0.3-1.8c0-0.2,0.1-0.4,0.2-0.6c0-0.1,0-0.2,0-0.3c0-0.1,0-0.2,0.1-0.3c0.1-0.2,0.2-0.4,0.3-0.6    c0.2-0.9,0.3-1.7,0.4-2.6c0.1-0.8,0.3-1.7,0.5-2.5c0-0.2,0.2-0.4,0.2-0.7c0-0.8-0.1-1.5-0.1-2.3c0-0.3,0-0.6,0-0.8    c0-0.3,0.2-0.6-0.1-0.8c0,0,0-0.2,0-0.2c0-0.3,0.1-0.5,0.1-0.8c0-1.1-0.1-2.2-0.2-3.3c0-0.3-0.1-0.6-0.2-0.9    c0-0.1,0.1-0.3,0.1-0.4c0-0.8-0.1-1.5-0.1-2.3c0-0.1,0-0.2,0-0.2c0.1-0.4,0.2-0.8,0-1.3c-0.1-0.4,0-0.8,0-1.2c0-0.6,0-1.1,0-1.7    c0.1-0.9,0.1-1.8,0.2-2.7c0-0.1,0-0.2,0-0.4c0-0.3,0-0.5,0-0.8c0-0.3,0-0.6,0-0.9c0-0.4,0.1-0.7,0.1-1.1    C112.8,51.2,112.7,51,112.7,50.9"/>
		<path class="st0" d="M113.2,24.2c-0.1,0.1-0.1,0.1-0.1,0.1c-0.2,1.6-0.3,3.2-0.4,4.8c0,0.7,0,1.5,0.1,2.2c0,0.7,0,1.5,0.1,2.2    c0.2,1.1,0.5,2.1,0.9,3.1c0.2,0.6,1,0.8,1.5,0.3c0.7-0.6,1.3-1.4,1.5-2.3c0.1-0.2,0-0.4,0.1-0.6c0.3-0.7,0.6-1.4,1-2.1    c-0.5-0.1-0.5-0.3-0.3-0.6c0.4-1.1,0.5-2.2,0.5-3.3c0-0.8,0.1-1.7,0.1-2.5c0-0.5,0.1-1.1-0.3-1.5c0.5-0.9-0.4-1.4-0.6-2.3    c-0.5,0.5-0.9,1-1.3,1.3c-0.6,0.4-1,0.9-1.1,1.7c0,0.2-0.3,0.4-0.4,0.5c-0.1,0-0.4-0.1-0.5-0.2C113.6,24.7,113.4,24.4,113.2,24.2     M110.4,35c-0.1-0.3-0.2-0.7-0.2-1c-0.2-1.3-0.4-2.6-0.4-3.9c0-1.2,0.1-2.4,0.2-3.6c0-0.8,0.1-1.7,0.2-2.5c0-0.3,0.2-0.6,0.3-0.9    c0.1-0.3,0.1-0.6,0.2-0.9c0.1-0.3,0.3-0.6,0.5-0.8c0.1-0.1,0.2-0.2,0.3-0.3c0.4-0.7,1-0.8,1.7-0.7c0.5,0.1,0.9,0,1.3-0.4    c0.3-0.3,0.8-0.5,1.3-0.6c1-0.2,2,0,2.8,0.7c0.6,0.4,1.1,0.9,1.6,1.5c0.2,0.2,0.2,0.7,0.3,1c0.6,1.7,0.4,3.5,0.4,5.2    c0,0.8-0.2,1.6-0.2,2.4c0,1.6-0.5,3-0.8,4.5c-0.3,1.6-1.2,3-2.5,4.1c-0.9,0.7-1.8,0.6-2.8,0.5c-0.5-0.1-1-0.2-1.5-0.4    c-1.3-0.7-1.9-1.9-2.5-3.2C110.5,35.4,110.4,35.2,110.4,35C110.3,35,110.3,35,110.4,35"/>
		<path class="st0" d="M98.7,39.2c-0.2,0.2-0.3,0.3-0.4,0.4c0.5,0.6,0.8,1.3,1.6,1.6c0.4,0.2,0.8,0.7,1.2,0.9    c0.7,0.4,1.2,0.9,1.7,1.5c0.4,0.5,0.7,1.1,1,1.6c0.5,0.7,0.5,1.5,0.4,2.2c-0.1,0.6-0.2,1.3-0.4,1.9c-0.2,0.6-0.4,1.3-0.9,1.8    c-0.3,0.3-0.8,0.5-1.2,0.2c-0.3-0.3-0.6-0.7-0.9-1c-0.1-0.2-0.1-0.4,0.1-0.5c0.4-0.2,0.6-0.6,0.7-1c0-0.2,0.2-0.5,0.3-0.7    c0.4-1,0.4-2-0.2-3c-0.4-0.7-1.1-1.3-1.9-1.7c-0.2-0.1-0.3-0.3-0.5-0.5c-0.4-0.4-0.9-0.6-1.3-1.1c-0.5-0.5-1-1-1.4-1.6    c-0.4-0.6-0.7-1.2-0.8-1.8c0-0.2-0.2-0.4-0.2-0.6c-0.1-0.6-0.2-1.2-0.2-1.7c0-0.4,0.2-0.8,0.3-1.1c0.2-0.7,0.4-1.4,1-2    c0.2-0.2,0.2-0.5,0.4-0.7c0.2-0.3,0.4-0.6,0.6-1c0.2-0.4,0.5-0.7,0.6-1.2c0.2-0.6,0.2-1.2-0.2-1.7c-0.3-0.4-0.5-0.8-0.7-1.2    c-0.3-0.6-0.7-1.2-1-1.9c-0.2-0.5-0.5-1-0.6-1.5c-0.1-0.7-0.5-1.4-0.5-2.2c0-0.6,0.9-1.1,1.5-0.8c0.1,0,0.2,0,0.3,0.1    c0.1,0.1,0.3,0.3,0.2,0.4c-0.2,0.7,0.1,1.2,0.3,1.8c0.4,1,0.7,1.9,1.2,2.8c0.3,0.6,0.7,1,1,1.6c0.6,0.8,1.1,1.7,1.1,2.7    c0,0.8-0.4,1.5-0.9,2.1c-0.1,0.2-0.2,0.4-0.4,0.5c-0.5,0.3-0.6,0.9-0.8,1.4c-0.1,0.2-0.3,0.3-0.4,0.5c-0.2,0.4-0.5,0.9-0.6,1.4    c-0.1,0.8-0.3,1.6,0.1,2.3c0,0.1,0.1,0.1,0.1,0.2C97.9,39,98,39.3,98.7,39.2"/>
		<path class="st0" d="M102.3,74.3C102.2,74.3,102.2,74.3,102.3,74.3c-0.3,0.1-0.7,0.2-0.8,0.1c-0.2-0.1-0.1-0.5-0.2-0.7    c-0.1-0.2-0.2-0.4-0.3-0.6c-0.2-0.3-0.1-0.6,0-0.8c0.2-0.2,0.5-0.2,0.7,0c0.2,0.2,0.6,0.3,0.7,0.5c0.2,0.3,0.4,0.8,0.5,1.2    C102.9,74.1,102.5,74.3,102.3,74.3C102.3,74.4,102.3,74.4,102.3,74.3"/>
		<path class="st1" d="M137.6,20.7c0.4-0.4,0.6-0.6,0.8-0.9c0.5-0.7,0.9-1.4,1.5-2c0.3-0.4,0.8-0.8,1.1-1.1c0.2-0.2,0.5-0.5,0.7-0.8    c0.3-0.3,0.7-0.6,1-0.9c0.2-0.2,0.4-0.4,0.7-0.6c0.3-0.3,0.7-0.5,1.1-0.7c0.5-0.2,0.9-0.6,1.3-0.9c0.2-0.1,0.3-0.4,0.5-0.5    c0.1-0.1,0.3-0.1,0.4-0.2c0.2,0,0.3,0,0.4,0.2c0,0.2,0.1,0.4-0.1,0.6c-1.2,1-2.2,2.2-3.2,3.3c-0.9,1-1.8,2-2.7,3    c-0.4,0.5-0.8,0.9-1.1,1.5c-0.2,0.6-0.6,1.1-0.9,1.6c-0.1,0.2-0.2,0.4-0.2,0.6c0,0.4-0.2,0.5-0.5,0.6c-0.5,0.1-1,0.1-1.4-0.1    c-0.4-0.2-0.7-0.7-0.6-1.2c0-0.1,0-0.2,0-0.3c-0.3-0.7-0.5-1.4-1.2-1.9c-0.2-0.1-0.3-0.4-0.4-0.6c-0.2-0.5,0.1-1.1,0.7-1.1    c0.2,0,0.4,0,0.7,0.1c0.4,0.1,0.6,0.3,0.7,0.7C137.1,19.6,137.3,20.1,137.6,20.7"/>
		<path class="st1" d="M137.3,30.5c0.6-0.7,1.2-1.2,1.5-2c0.1-0.3,0.2-0.6,0.4-0.9c0.2-0.5,0.4-0.6,0.8-0.5c0.3,0.1,0.6,0.2,0.7,0.5    c0.2,0.6,0.4,1.2,0.6,1.7c0.1,0.4,0.4,0.7,0.8,0.9c0.1-0.1,0.2-0.2,0.2-0.3c0.4-1.2,0.8-2.4,1.1-3.6c0.3-0.9,0.5-1.9,0.5-2.9    c0-0.3,0-0.5,0.3-0.6c0.3-0.1,0.7-0.1,0.9,0.2c0.4,0.5,0.9,0.7,1.4,0.9c0.3,0.1,0.6,0.2,0.9,0.3c0.8,0.2,1.4-0.3,1.4-1.1    c0-0.4,0-0.7,0-1.1c0-0.8,0.1-1.7,0.1-2.5c0-0.7,0.2-0.9,0.9-0.9c0.6,0,1.2-0.1,1.7-0.2c0.2,0,0.4-0.2,0.7-0.3    c-0.5-0.4-0.9-0.7-1.3-1.1c-1.5-1.4-1.9-2.3-1.2-4.2c0.2-0.5,0.5-1,0.7-1.5c0.2-0.4,0.1-0.6-0.3-0.5c-1.1,0-2.2,0.1-3.2,0.4    c-0.7,0.2-1,0-1.3-0.6c-0.2-0.6-0.4-1.1-0.4-1.7c0-0.4,0.1-0.8-0.2-1.2c-0.2,0.1-0.3,0.2-0.4,0.3c-0.7,0.6-1.3,1.2-2,1.8    c-0.2,0.1-0.4,0.3-0.6,0.3c-0.6,0.2-1-0.2-1.4-0.6c-0.5-0.6-0.9-1.2-1.4-1.8c-0.1-0.1-0.3-0.2-0.5-0.4c-0.1,0.4-0.2,0.7-0.2,1.1    c0,0.4,0,0.7-0.1,1.1c-0.1,0.7-0.4,1-1,1.1c-0.2,0-0.4,0.1-0.6,0.1c-0.8,0.1-1.6,0.2-2.4,0.1c-0.4,0-0.7-0.1-1.1-0.2    c-0.2,0-0.5,0.2-0.4,0.4c0.1,0.8,0.1,1.6,0.2,2.3c0.1,0.5,0.3,1,0.5,1.5c0.2,0.7-0.1,1.2-0.8,1.2c-0.3,0-0.7,0-1,0.1    c-0.7,0.3-1.5,0.6-2.2,0.9c-0.3,0.1-0.5,0.3-0.9,0.5c0.3,0.2,0.4,0.4,0.6,0.5c0.6,0.4,1.2,0.8,1.8,1.1c0.4,0.3,0.9,0.5,1.3,0.8    c0.5,0.3,0.9,0.5,1.3,0.8c0.6,0.5,0.6,1.3-0.1,1.8c0.3,0.6,0.3,0.7-0.1,1.2c-0.5,0.7-1.1,1.3-1.7,2c-0.3,0.4-0.7,0.6-1,1.2    c0.3-0.1,0.4-0.1,0.5-0.2c1-0.4,2-0.7,2.9-1.2c0.5-0.2,1-0.3,1.5,0.1c0.3,0.2,0.5,0.4,0.5,0.8c0,0.1,0,0.2,0.1,0.3    c0.4,1,0.8,1.9,0.8,3C137.1,29.9,137.2,30.1,137.3,30.5 M145.5,25.2c-0.4,1-0.8,1.9-1.1,2.8c-0.3,1-0.6,2.1-0.7,3.1    c-0.2,1.2-0.3,1.3-1.5,1c-0.9-0.2-1.4-0.9-1.8-1.7c-0.1-0.1-0.2-0.3-0.3-0.5c-0.2,0.1-0.4,0.2-0.5,0.4c-0.6,1-1.6,1.6-2.4,2.5    c-0.2,0.2-0.4,0.2-0.6,0.1c-0.5-0.2-0.8-0.4-0.9-1c0-0.4-0.1-0.9-0.1-1.3c0-0.8,0-1.6-0.1-2.4c0-0.3-0.1-0.6-0.3-0.9    c-0.1-0.2-0.2-0.3-0.4-0.2c-0.6,0.1-1.1,0.2-1.6,0.4c-0.1,0.1-0.4,0.2-0.5,0.2c-1.1,0.2-2.1,0.6-3.1,0.9c-0.3,0.1-0.7,0.3-1,0.4    c-0.3,0.1-0.5,0.2-0.8,0.3c-0.3,0.1-0.5,0-0.7-0.2c-0.4-0.4-0.4-1.4,0.1-1.6c0.9-0.5,1.6-1.2,2.4-1.9c0.7-0.6,1.3-1.3,1.9-1.9    c0.3-0.3,0.6-0.7,1-1c0.2-0.2,0.4-0.3,0.6-0.4c-0.4-0.8-1.2-1.2-1.9-1.5c0,0-0.1,0-0.1-0.1c-1-0.7-2-1.4-3.1-2.2    c-0.3-0.2-0.5-0.5-0.8-0.8c-0.4-0.5-0.4-1.5,0.4-1.9c1-0.4,1.9-0.9,2.9-1.3c0.3-0.1,0.6-0.3,0.9-0.4c0.2-0.1,0.3-0.2,0.2-0.4    c0-0.3-0.1-0.5-0.1-0.8c0-1.3-0.1-2.5-0.4-3.7c-0.1-0.4-0.1-0.7,0.3-0.9c0.3-0.2,0.7-0.2,1,0c1.2,0.6,2.4,0.7,3.7,0.3    c0.3-0.1,0.5-0.4,0.6-0.7c0-0.4,0.2-1,0.3-1.4c0.1-0.3,0.2-0.7,0.4-1c0.2-0.4,0.6-0.5,1.1-0.3c0.7,0.2,1.1,0.7,1.6,1.2    c0.3,0.3,0.5,0.7,0.8,1c0.3,0.4,0.5,0.5,0.9,0.2c0.6-0.5,1.3-0.9,1.9-1.4c0.2-0.1,0.4-0.2,0.5-0.4c0.9-0.6,1.9-0.2,2.1,0.9    c0.1,0.7,0.1,1.3,0.2,2c0.1,0.5,0.2,0.7,0.8,0.6c0.6-0.2,1.3-0.1,1.9-0.2c0.3,0,0.6,0,0.9,0c1.5,0.1,2.3,1.4,1.7,2.8    c-0.1,0.3-0.3,0.5-0.5,0.8c-0.5,0.6-0.8,1.3-0.5,2.1c0,0.1,0.1,0.2,0.1,0.3c0.4,0.4,0.8,0.7,1.2,1c0.3,0.2,0.5,0.5,0.8,0.7    c0.2,0.2,0.4,0.5,0.6,0.6c0.6,0.2,0.7,0.7,0.8,1.2c0.1,0.3-0.2,0.8-0.4,0.9c-0.5,0.2-1.1,0.3-1.6,0.5c-0.4,0.1-0.7,0.2-1.1,0.2    c-0.5,0-1,0.5-1,1c0,1-0.1,1.9,0.1,2.9c0.1,0.5,0,1-0.2,1.4c-0.2,0.4-0.7,0.6-1.1,0.5c-0.4,0-0.8-0.1-1.2-0.2    c-0.6-0.2-1.2-0.5-1.8-0.7C145.9,25.3,145.7,25.2,145.5,25.2"/>
	</g>
</g>
<g id="Fleches">
	<path class="st2" d="M242.2,75.2c0.2-0.6,0.4-1.3,0.7-1.8c0.4-0.6,0.6-1.5,0.9-2.4c0.3-1.1,0.7-2.2,1-3.3c0.4-1.1,0.7-2.1,1.1-3.2   c0.4-1.2,0.8-2.5,1.1-3.8c0.3-0.9,0.6-1.7,0.8-2.7c0.2-0.8,0.4-1.8,0.8-2.4c0-0.1,0.1-0.3,0.1-0.4c0.1-0.3,0.2-0.7,0.3-1.1   c0-0.1-0.1-0.3-0.1-0.5c0.2-0.4,0.5-0.8,0.7-1.3c0.2-0.6,0.5-0.8,0.8-0.9c0.1,0,0.3,0.1,0.4,0.1c0.5,0.1,0.8,1.4,0.5,2.4   c-0.2,0.6-0.4,1.2-0.6,1.8c-0.4,1.4-0.9,2.8-1.3,4.2c-0.4,1.3-0.7,2.6-1.2,3.8c-0.6,1.7-1.1,3.6-1.7,5.3c-0.3,0.9-0.6,1.9-0.9,2.8   c-0.2,0.6-0.4,1.2-0.7,1.8c-0.2,0.5-0.3,0.9-0.5,1.5c0,0,0,0.1,0,0.1c-0.1,0.2-0.2,0.5-0.3,0.8c-0.1,0.2-0.2,0.3-0.3,0.5   c-0.3,0.5-0.4,1.1-0.6,1.8c-0.1,0.1-0.1,0.1-0.2,0.2c-0.3-0.9-0.6-1.8-0.9-2.7C242.2,75.7,242.2,75.3,242.2,75.2"/>
	<path class="st2" d="M489.5,75.2c0.2-0.6,0.4-1.3,0.7-1.8c0.4-0.6,0.6-1.5,0.9-2.4c0.3-1.1,0.7-2.2,1-3.3c0.4-1.1,0.7-2.1,1.1-3.2   c0.4-1.2,0.8-2.5,1.1-3.8c0.3-0.9,0.6-1.7,0.8-2.7c0.2-0.8,0.4-1.8,0.8-2.4c0-0.1,0.1-0.3,0.1-0.4c0.1-0.3,0.2-0.7,0.3-1.1   c0-0.1-0.1-0.3-0.1-0.5c0.2-0.4,0.5-0.8,0.7-1.3c0.2-0.6,0.5-0.8,0.8-0.9c0.1,0,0.3,0.1,0.4,0.1c0.5,0.1,0.8,1.4,0.5,2.4   c-0.2,0.6-0.4,1.2-0.6,1.8c-0.4,1.4-0.9,2.8-1.3,4.2c-0.4,1.3-0.7,2.6-1.2,3.8c-0.6,1.7-1.1,3.6-1.7,5.3c-0.3,0.9-0.6,1.9-0.9,2.8   c-0.2,0.6-0.4,1.2-0.7,1.8c-0.2,0.5-0.3,0.9-0.5,1.5c0,0,0,0.1,0,0.1c-0.1,0.2-0.2,0.5-0.3,0.8c-0.1,0.2-0.2,0.3-0.3,0.5   c-0.3,0.5-0.4,1.1-0.6,1.8c-0.1,0.1-0.1,0.1-0.2,0.2c-0.3-0.9-0.6-1.8-0.9-2.7C489.4,75.7,489.4,75.3,489.5,75.2"/>
	<g>
		<line class="st3" x1="0" y1="0" x2="740" y2="0"/>
	</g>
</g>
<g id="Reperes">
</g>
</svg>
