<?xml version="1.0" encoding="utf-8"?>
<!-- Generator: Adobe Illustrator 27.3.1, SVG Export Plug-In . SVG Version: 6.00 Build 0)  -->
<svg version="1.1" xmlns="http://www.w3.org/2000/svg" xmlns:xlink="http://www.w3.org/1999/xlink" x="0px" y="0px"
	 viewBox="0 0 740 130" style="enable-background:new 0 0 740 130;" xml:space="preserve">
<style type="text/css">
	.st0{fill:#269973;}
	.st1{fill:#33CC99;}
	.st2{fill-rule:evenodd;clip-rule:evenodd;fill:#FFFFFF;}
</style>
<g id="Vignettes">
	<g id="_x33_">
		<path class="st0" d="M636.8,38.3c0.4,0.1,0.7,0.1,1,0.2c0.7,0.1,1.2,0.5,1.3,1.3c0.1,0.8-0.1,1.5-0.7,2c-0.8,0.6-1.5,1.2-2.3,1.8
			c-2.6,2.2-5,4.7-7.2,7.4c-0.5,0.6-1.1,1.1-1.6,1.7c-1.1-0.2-1.8-0.8-2.4-1.7c-1.4-2-2.9-4-4.4-5.9c-0.2-0.3-0.4-0.5-0.9-0.9
			c-0.3,5.3-0.8,10.2-0.9,15.1c-0.7,0.6-1.1,0.3-1.6-0.1c-0.5-0.5-0.9-1-0.9-1.8c0.1-2.1,0.2-4.3,0.3-6.4c0.1-2.5,0.3-4.9,0.3-7.4
			c-3,3.9-5.5,8.2-8,12.6c-1-0.1-2-0.2-2.9-0.3c-0.6-0.1-1-0.5-1.2-1.2c-0.3-1,0.1-1.7,1-1.7c1.4,0.1,2-0.8,2.5-2.1
			c0.3-0.7,0.7-1.3,1.1-1.9c1.6-2.4,3.3-4.9,4.9-7.3c0.8-1.2,1.5-2.4,2.1-3.7c0.6-1.1,1.5-1.1,2.4-1c0.7,0.1,1.5,1.3,1.3,2.3
			c-0.2,1.3,0.4,2.2,1,3c1.3,1.8,2.6,3.5,3.9,5.3c1,1.3,1.4,1.4,2.5,0.2c2.5-2.4,4.9-4.8,7.3-7.2C635.3,39.9,636,39.2,636.8,38.3"/>
		<path d="M629.7,73.7c-1.1-0.1-2-0.3-3-0.3c-3.2,0.2-6.4,0.5-9.7,0.7c-1.8,0.1-3.6-0.1-5.4-0.1c-1.2,0-2.3,0-3.6,0
			c-0.2,2.3-0.3,4.5-0.5,6.6c-0.1,0.7-0.2,1.4-0.4,2c-0.3,0.9-1.1,1-1.6,0.3c-0.6-0.9-0.8-2-0.6-3.2c0.4-1.7,0.5-3.4,0.4-5.1
			c-1.3,0-2.4-0.6-3.7-0.4c-0.9,0.1-1.8-1.6-1.5-2.6c0-0.2,0.1-0.4,0.2-0.4c0.8-0.3,1.7-1,2.4-0.7c1.3,0.4,2.6,0.2,4,0.2
			c2.4,0,4.8,0.2,7.2,0.1c3.2-0.1,6.3-0.5,9.5-0.7c2.6-0.1,5.1,0,7.7,0c1.3,0,2.5-0.2,3.8-0.3c1.2-0.1,1.9,0.4,2.1,1.7
			c0.2,1-0.1,1.6-1,1.8c-1,0.2-1.9,0.3-2.9,0.4c-0.7,0.1-1.1,0.3-1.1,1.2c0.1,2.1,0.1,4.3,0.2,6.4c0,1.1,0,2.1-0.1,3.2
			c0,0.4-0.4,0.9-0.7,1c-0.2,0.1-0.7-0.2-0.9-0.4c-0.8-0.9-1.2-1.9-1.1-3.3C630,79,629.8,76.5,629.7,73.7"/>
		<path class="st0" d="M617.5,24.7c-0.1,0.1-0.2,0.1-0.4,0.2c0.4,1.5,0.7,3.1,1.1,4.5c0.4,1.1,1,1.2,1.8,0.5
			c0.6-0.6,1.2-1.1,1.5-2.1c0.7-2.3,1.1-4.6,0.8-7c-0.1-0.9-0.1-1.9-0.4-2.8c-0.2-0.5-0.6-1.1-1.1-1.3c-0.3-0.1-0.8,0.5-1.2,0.9
			c-0.2,0.3-0.4,0.7-0.5,1.1c-0.6,2-1.1,4,0.5,5.7c0.3,0.4,0.4,1,0.6,1.6C619.2,26.3,618.3,25.6,617.5,24.7 M614.9,18.4
			c0.1-1.5,0.3-2.9,1.5-3.7c0.3-0.2,0.6-0.5,0.8-0.4c1,0.5,1.7-0.2,2.6-0.4c1.5-0.4,2.6,0.8,3.5,2.1c0.4,0.5,0.6,1.1,0.8,1.7
			c1.2,4.5,1.2,9-0.7,13.3c-1.1,2.5-3.4,3.1-5.3,1.4c-1.3-1.2-2-2.8-2.4-4.6C615,24.6,614.7,21.5,614.9,18.4"/>
		<path d="M658.5,60.8c0.5-2.9,0.8-5.8,0.5-8.8c-0.1-0.7-0.2-1.3-0.3-1.9c0-0.2-0.1-0.6-0.2-0.6c-0.7-0.3-1.2-1-1.6-1.8
			c-0.1-0.2-0.4-0.1-0.6,0c-0.2,0.2-0.5,0.4-0.6,0.8c-0.7,2.3-1.6,4.6-1.7,7.3c-0.1,1.6-0.1,3.2-0.1,4.8c0,0.5,0.1,1,0.2,1.5
			c0.3,1.4,1,2.2,1.8,1.6c0.6-0.5,1.1-0.3,1.6,0.1C658,62.8,658.3,61.9,658.5,60.8 M651.6,53.5c0.3-3.7,1.4-6.5,3.5-8.3
			c2-1.7,4.2-1.3,5.2,2.6c0.6,2.2,0.9,4.5,0.9,6.9c-0.1,2.4-0.1,4.9-0.7,7.2c-0.4,1.5-0.8,3-1.7,3.8c-1.7,1.6-3.5,1.9-5.3,0.5
			c-0.8-0.6-1.4-1.5-1.6-2.9c-0.2-1.2-0.2-2.5-0.3-3.7c-0.1-0.9-0.2-1.8-0.3-3.2C651.6,55.7,651.5,54.6,651.6,53.5"/>
		<path d="M582.4,49.3c-0.5,0.1-0.7,0.5-0.9,1c-1,2.5-1.5,5.1-1,7.9c0.1,0.5,0.1,1.1,0.2,1.6c0.3,2.1,1.3,3.8,3,4.8
			c1.4,0.9,2.5,0.5,3.1-1.3c0.5-1.4,0.6-2.9,0.6-4.4c0-3.6-0.8-7-2.2-10.1c-0.2-0.5-0.4-1-1.1-1.2C583.7,48.6,583.2,49.1,582.4,49.3
			 M588.5,64.3c-0.8,2.1-2.7,3.3-4.6,2.7c-2.6-0.7-4.5-2.4-5-5.7c-0.1-0.7-0.2-1.3-0.4-2c-0.5-3.4-0.3-6.6,1-9.8
			c0.2-0.5,0.6-1.1,0.9-1.5c0.7-0.8,1.5-1.6,2.2-2.3c0.2-0.2,0.5-0.3,0.7-0.3c1.1-0.1,2,0.1,2.7,1.1c0.5,0.7,1,1.4,1.2,2.1
			c0.9,2.9,1.7,5.9,1.9,9.1C589.6,59.9,589.3,62.1,588.5,64.3"/>
		<path d="M581.7,79.1c0,0.7,0.1,1.2,0.1,1.7c-0.1,2.6-0.3,5.2-0.5,7.8c-0.1,0.8-0.2,1.6-0.7,2.2c-0.4,0.6-0.5,1.2-0.2,1.9
			c0.1,0.2,0,0.6,0,1c-1.6-0.5-3.1-0.9-4.6-1.4c-1.4-0.5-2.9-0.9-4.4-1.7C574.1,87.2,580.5,80,581.7,79.1 M568.5,92.9
			c0.3,0.1,0.6,0.2,0.9,0.3c3.5,0.8,7,1.9,10.4,3.1c0.4,0.1,0.8,0.4,1.1,0.6c0.2,1.9,0.1,3.6-0.1,5.3c-0.1,0.8-0.1,1.5,0,2.2h3.7
			c0-0.2,0-0.4,0-0.6c-0.1-1.5-0.4-3.1-0.6-4.6c-0.1-0.5-0.3-1.1,0-1.7c0.9,0,1.8,0.3,2.6,0.6c1.1,0.4,2.3,0.4,3.4,1
			c0.7,0.3,1.4-0.2,1.9-0.7c0.5-0.5,0.8-1.2,0.3-2.1c-0.7-0.3-1.4-0.8-2.3-0.3c-0.2,0.1-0.4,0.1-0.6,0.1c-1.8-0.4-3.6-0.5-5.4-1.4
			c0-0.3,0-0.7,0-1c0-0.3,0.1-0.6,0-0.9c-0.6-1.7-0.7-3.4-0.5-5.2c0.2-2.6,0.3-5.3,0.4-8c0-0.5,0-1.1,0.3-1.5
			c0.1,0.1,0.3,0.1,0.3,0.2c1.1,1.7,2.2,3.4,3.3,5c0.3,0.4,0.5,0.8,0.8,1.1c1.1,1.1,2,2.4,2.8,3.8c0.5,0.8,1,1,1.8,0.5
			c0.8-0.5,1.2-0.8,1.1-2.2c-0.2-1.7-0.2-3.3-0.2-5c0.1-3.1,0.2-6.2-0.2-9.3c-0.1-1,0-1.8,0.4-2.7c0.4-0.7,0.6-1.6,0.9-2.4
			c0.1-0.3,0.1-0.6,0.2-0.9c0.1-0.6-0.3-1.2-0.7-1.3c-0.5-0.1-1,0.1-1.2,0.6c-0.1,0.3-0.2,0.7-0.3,1c-0.2,0.7-0.5,1.2-1,1.7
			c-0.4,0.3-0.7,0.8-0.9,1.3c-0.5,0.9-0.4,1.1,0.2,2c0.2,0.2,0.3,0.5,0.4,0.8c0.2,1.7,0.5,3.4,0.4,5.1c-0.1,1.5-0.1,3-0.2,4.4
			c0,0.7-0.1,1.3-0.2,2.2c-0.4-0.3-0.7-0.4-0.9-0.6c-1.1-1.4-2.3-2.7-3-4.3c-0.1-0.3-0.3-0.6-0.5-0.9c-0.8-1.3-1.5-2.7-1.8-4.3
			c-0.2-0.9-1-1.5-1.8-1.5c-0.8,0-1.6,0.6-1.7,1.6c-0.1,1.1-0.6,1.8-1.1,2.6c-1.3,1.9-2.8,3.7-4.4,5.4c-0.7,0.8-1.5,1.6-2.1,2.5
			c-1.6,2.1-3.5,4-5.4,5.8c-0.3,0.2-0.5,0.4-0.7,0.7C567.5,91.5,567.8,92.6,568.5,92.9"/>
		<path d="M654.7,79.9c0,0-0.1,0-0.1-0.1c0-0.1,0-0.1,0.1-0.2c0,0,0.1,0,0.1,0.1C654.7,79.8,654.7,79.9,654.7,79.9 M670.4,89.5
			c-0.1-0.3-0.3-0.5-0.4-0.7c-0.6-0.8-1.1-1.5-1.7-2.3c-1.1-1.6-2.3-2.9-3.7-4c-1.9-1.6-3.8-3.5-5.6-5.3c-0.5-0.5-0.9-1.2-1.3-1.8
			c-0.4-0.7-1-1.1-1.5-1.2c-0.8-0.2-1.5,0.1-2,1.2c-0.4,0.8-0.7,1.7-1,2.6c-1.2,3.7-3.1,6.4-5.1,9c0,0-0.1,0-0.2,0
			c-0.3-0.6-0.3-1.4-0.3-2.1c0-3.7,0.3-7.2,1.2-10.7c0.1-0.4,0.2-0.8,0.3-1.2c0.7-1.7,0.3-3.4,0-5.1c-0.1-0.5-0.3-0.9-0.7-0.9
			c-0.4,0-0.6,0.3-0.7,0.8c-0.1,0.5-0.2,1-0.3,1.4c-0.6,3.6-1.2,7.2-1.7,10.8c-0.3,2-0.3,4-0.3,6c-0.1,1.2-0.1,2.4-0.1,3.5
			c0,0.9,0.3,1.5,0.8,1.6c0.7,0.2,1.2,0,1.8-0.8c2-2.6,3.9-5.2,5.5-8.5c0.2-0.4,0.4-0.7,0.7-1.1c0.6,0.6,0.5,1.4,0.5,2
			c-0.1,1.4-0.3,2.8,0,4.3c0,0.1,0,0.3,0,0.5c-0.3,4.5-0.5,8.9-0.8,13.4c-0.1,1.1-0.2,2.2-0.3,3.3h2.1c0.1-0.9,0.2-1.7,0.3-2.6
			c0-0.1,0.1-0.2,0.3-0.5c0.1,1.1,0.1,2.1,0.2,3.1h1.8c-0.1-2.6-0.3-5.2-0.4-7.8c-0.1-1.6-0.1-3.2-0.1-4.8c-0.1-3-0.2-6.1-0.2-9.1
			c0-0.3,0-0.7,0-1.1c0.5-0.3,1-0.6,1.4-0.9c1.6,1.1,7.4,6.4,8.2,7.4c0.1,0.2,0.2,0.5,0.3,0.8c-0.5,0.5-0.9,0.4-1.3,0.4
			c-1.9-0.1-3.6,1-5.3,1.8c-0.3,0.1-0.5,0.4-0.7,0.6c-0.8,0.8-0.8,1.9-0.1,2.9c0.2,0.3,0.5,0.7,0.8,0.8c0.9,0.5,1.8,0.9,2.3,2.4
			c0.3,0.8,1.1,0.4,1.3-0.5c0.2-0.9,0.3-1.8,0-2.7c-0.2-0.6-0.4-1.1-0.7-1.6c0.1-0.6,0.4-0.6,0.7-0.7c1.5-0.6,3-0.9,4.6-0.8
			c0.5,0,1,0.1,1.4-0.4C670.5,90.7,670.6,90.1,670.4,89.5"/>
		<path class="st1" d="M571.7,37.9c-1.2-1.7-2-3.7-2.8-5.7c-0.3-0.8-0.6-1.7-0.9-2.6c-0.2-0.5-0.3-1-0.3-1.5
			c-0.1-0.6,0.2-1.1,0.8-1.2c1.6-0.3,2.4-1.5,2.9-2.9c0.7-1.9,0.9-3.8,0.4-5.8c-0.3-1.2-0.7-2.4-1.3-3.4c-0.8-1.5-1.7-2.9-2.9-4.1
			c-1.5-1.5-3.3-2.5-5.2-3.1c-1.2-0.4-2.4-0.6-3.6-0.5c-2.1,0.2-3.8,1.2-5.2,2.9c-0.4,0.4-0.6,1-0.8,1.5c-0.4,0.9-0.8,1.9-0.9,2.9
			c0,0.3-0.1,0.6-0.2,1c-0.4,1.8-0.4,3.5,0,5.3c0.2,0.9,0.7,1.7,1.1,2.4c1.1,1.8,2.4,3.4,4,4.7c1.1,0.8,2.2,1.4,3.6,1.3
			c0.9,0,1.8,0.3,2.7,0.6c0.5,0.2,1,0.4,1.6,0.4c0.4,0,0.6,0.2,0.7,0.6c0.3,1.1,0.9,2,1.6,2.9c0.5,0.8,1.2,1.5,1.8,2.2
			c0.1,0.1,0.2,0.3,0.4,0.3c1,0.4,1.8,1.2,2.5,2c0,0,0.1,0,0.3,0C571.8,38.1,571.8,38,571.7,37.9 M562.6,31.4
			c-0.8-0.3-1.7-0.5-2.6-0.5c-1.6,0-3.1-0.7-4.3-1.8c-1.9-1.6-3.4-3.6-4.7-5.8c-0.9-1.6-1.3-3.2-1.1-5c0.2-2.3,0.6-4.6,1.4-6.7
			c0.3-0.8,0.6-1.5,1.1-2.2c1-1.3,2.3-2.2,3.7-2.9c0.7-0.3,1.4-0.6,2.1-0.6c0.5,0,1-0.1,1.4-0.1c0.6,0,1.2,0,1.8,0.2
			c1.2,0.3,2.4,0.6,3.5,1.1c1.8,0.9,3.4,2.1,4.8,3.6c0.5,0.5,0.8,1.2,1.2,1.7c0.5,0.7,0.8,1.4,1.2,2.1c0.7,1.3,1,2.7,1.3,4.1
			c0.2,0.9,0.2,1.9,0.1,2.8c-0.1,0.7-0.3,1.4-0.5,2.1c-0.3,1-0.6,2-1.4,2.7c-0.7,0.7-1.5,1.3-2.2,1.9c-0.1,0.1-0.3,0.2-0.4,0.3
			c0.2,0.5,0.5,1,0.6,1.4c0.2,0.6,0.4,1.3,0.7,1.9c0.6,1.4,1.3,2.7,2,3.9c0.7,1.3,1.7,2.3,2.7,3.4c0.4,0.4,0.7,0.8,0.9,1.2
			c-0.1,0.6-0.2,1.1-0.3,1.6c-0.2,0.8-0.8,1-1.4,0.4c-0.2-0.2-0.3-0.4-0.5-0.5c-1.5-1-2.8-2.2-4.1-3.4c-1.4-1.2-2.6-2.6-3.6-4.2
			c-0.6-0.9-1.4-1.7-1.8-2.9C563.7,31.8,563.1,31.6,562.6,31.4"/>
		<path class="st1" d="M666.7,34.4c0,0.1,0,0.2,0.1,0.3c0.6-0.5,1-1.2,1.5-1.7c0.4-0.5,0.8-1.2,1.2-1.7c0.4-0.5,0.9-0.9,1.4-1.2
			c0.2-0.1,0.5-0.1,0.8-0.1c0.2,0,0.4,0.2,0.6,0.3c1.4,1,2.9,1.7,4.4,2.1c0.9,0.2,1.8,0.4,2.7,0.4c1.6,0,3-0.6,4.3-1.5
			c1.1-0.8,1.8-1.9,2.1-3.5c0.4-2.7-0.2-5-1.5-7.2c-0.6-0.9-1.1-1.9-1.7-2.8c-0.6-0.9-1.2-1.7-1.8-2.5c-2.1-2.9-4.7-4.9-7.5-6.8
			c-1.3-0.9-2.9-1.3-4.4-1.3c-1.4,0-2.8,0.5-3.8,1.6c-1.3,1.4-2,3.1-2.1,5.2c-0.1,2.8,0.4,5.4,1.4,7.9c0.5,1.3,1.1,2.6,2,3.7
			c0.8,0.9,1.5,1.8,2.6,2.3c0.2,0.1,0.4,0.2,0.6,0.4c0.4,0.3,0.4,0.8,0.1,1.1c-0.4,0.3-0.9,0.6-1.5,1
			C667.7,31.7,667.2,33.1,666.7,34.4 M663,24c-1.1-2.7-1.8-5.6-1.8-8.7c0-1.1,0-2.2,0.4-3.2c0.5-1.2,1.1-2.3,1.6-3.5
			c0.1-0.3,0.3-0.5,0.6-0.7c1.3-1.1,2.6-2.1,4.2-2.2c1.9-0.2,3.8,0,5.5,1c0.7,0.4,1.3,0.9,2,1.2c1.8,1,3.4,2.4,4.9,4
			c0.5,0.6,1,1.1,1.5,1.7c0.4,0.4,0.7,0.9,1,1.3c0.5,0.7,1,1.4,1.5,2.1c0.8,1,1.3,2.3,2,3.4c0.7,1.1,1.1,2.3,1.3,3.6
			c0.1,0.9,0.2,1.8,0.1,2.7c-0.1,2.1-0.7,4-2.1,5.4c-0.7,0.6-1.4,1.1-2.2,1.6c-2.3,1.4-4.8,1.7-7.3,0.9c-0.6-0.2-1.3-0.4-1.9-0.5
			c-0.2-0.1-0.4-0.2-0.7-0.3c-0.7-0.3-1.4-0.7-2.1-1c-0.5-0.2-0.9-0.1-1.3,0.4c-0.2,0.3-0.5,0.8-0.7,1.1c-1.1,1.3-2.1,2.7-3.1,4.1
			c-0.3,0.4-0.6,0.7-1,1c-0.5,0.3-0.9,0.2-1.3-0.2c-0.4-0.3-0.6-0.7-0.5-1.3c0.1-0.5,0.3-0.9,0.4-1.4c0.4-1.8,1.1-3.5,1.7-5.2
			c0.3-0.7,0.5-1.5,0.4-2.4C664.9,27.3,663.7,25.8,663,24"/>
		<path d="M559.5,70.6c0,0,0-0.1-0.1-0.2c0,0,0.1-0.1,0.1,0c0,0,0,0.1,0.1,0.1C559.6,70.6,559.6,70.7,559.5,70.6 M560.8,72.3
			c1.5,2.7,3.4,4.8,5.3,6.9c0.5,0.6,1.1,0.8,1.7,0.6c0.5-0.1,0.8-0.6,0.8-1.3c0-1,0-1.9-0.1-2.9c-0.1-1.6-0.1-3.3-0.3-4.9
			c-0.5-3-1.1-5.9-1.6-8.8c-0.1-0.4-0.2-0.8-0.3-1.2c-0.1-0.4-0.4-0.7-0.7-0.7c-0.4,0-0.6,0.3-0.7,0.7c-0.3,1.4-0.7,2.8,0,4.2
			c0.1,0.3,0.2,0.6,0.3,1c0.9,2.8,1.2,5.7,1.2,8.7c0,0.6,0.1,1.2-0.3,1.7c-0.1,0-0.2,0-0.2,0c-1.9-2.1-3.7-4.3-4.9-7.3
			c-0.3-0.7-0.7-1.4-1-2.1c-0.5-0.9-1.1-1.2-1.9-1c-0.6,0.1-1.1,0.4-1.5,1c-0.4,0.5-0.8,1.1-1.3,1.5c-1.8,1.5-3.6,3.1-5.4,4.4
			c-1.3,0.9-2.5,2-3.5,3.3c-0.5,0.6-1.1,1.3-1.6,1.9c-0.2,0.2-0.3,0.4-0.4,0.6c-0.2,0.4-0.2,0.9,0.2,1.3c0.4,0.4,0.9,0.3,1.3,0.3
			c1.5-0.1,3,0.1,4.4,0.6c0.2,0.1,0.5,0,0.6,0.5c-0.2,0.4-0.4,0.8-0.6,1.3c-0.3,0.7-0.2,1.5,0,2.2c0.2,0.7,1,1,1.3,0.4
			c0.5-1.2,1.4-1.6,2.2-2c0.3-0.1,0.5-0.4,0.8-0.7c0.7-0.8,0.6-1.7-0.1-2.4c-0.2-0.2-0.4-0.4-0.7-0.5c-1.7-0.6-3.3-1.5-5.1-1.4
			c-0.4,0-0.8,0.1-1.3-0.3c0.1-0.3,0.2-0.5,0.3-0.7c0.7-0.9,6.4-5.2,7.9-6.1c0.5,0.2,0.9,0.5,1.4,0.7c0,0.4,0,0.6,0,0.9
			c-0.1,2.5-0.2,5-0.2,7.4c0,1.3-0.1,2.6-0.1,3.9c-0.2,3-0.4,5.9-0.5,8.9c-0.1,1.4-0.1,2.8-0.2,4.1c-0.3,3.1-0.6,6.3-0.9,9.4
			c-0.2,2.1-0.3,4.1-0.7,6.1c-0.1,0.7-0.3,1.3-0.4,2c-0.1,0.9,0.2,1.5,0.8,1.7c0.1,0,0.2,0.1,0.3,0.1c0.7,0.2,1.1-0.2,1.2-1.1
			c0.1-1.1,0.2-2.2,0.3-3.3c0.1-1.2,0.2-2.3,0.3-3.5c0.2-2.3,0.2-4.7,0.5-7c0.4-2.9,0.5-5.7,0.6-8.6c0.1-1.6,0.2-3.2,0.3-4.9
			c0.2,0.2,0.3,0.3,0.3,0.4c0.5,3.2,1,6.3,1.3,9.5c0.3,3.1,0.6,6.1,1.2,9.2c0.2,1.2,0.5,2.4,0.7,3.6c0.2,1.4,1.2,2.6,2.3,2.5
			c0.3,0,0.6-0.2,0.8-0.5c0.4-0.6,0.3-1.7-0.1-2.3s-0.7-1.2-0.7-2c0-0.3-0.1-0.7-0.3-0.9c-0.8-0.9-1-2.2-1.2-3.5
			c-0.3-2-0.6-3.9-0.7-5.9c-0.1-1.3-0.2-2.6-0.4-3.9c-0.3-2.2-0.6-4.3-0.8-6.5c-0.3-3.6-0.5-7.3-0.8-10.9c0-0.1,0-0.3,0-0.4
			c0.3-1.2,0.1-2.3,0-3.5c0-0.5-0.1-1.1,0.5-1.6C560.4,71.7,560.6,72,560.8,72.3"/>
		<path d="M555.9,55.1c-0.5-2.3-0.7-4.7-0.5-7.1c0.1-0.5,0.2-1.1,0.3-1.6c0-0.2,0.1-0.5,0.2-0.5c0.7-0.2,1.1-0.8,1.6-1.5
			c0.1-0.1,0.4-0.1,0.6,0c0.2,0.1,0.5,0.3,0.6,0.6c0.7,1.9,1.5,3.8,1.7,5.9c0.1,1.3,0.1,2.6,0.1,3.9c0,0.4-0.1,0.8-0.2,1.2
			c-0.3,1.1-1,1.8-1.8,1.3c-0.6-0.4-1.1-0.3-1.6,0.1C556.4,56.7,556,56,555.9,55.1 M562.5,49.1c-0.3-3-1.4-5.3-3.4-6.7
			c-1.9-1.4-4-1.1-5,2.1c-0.5,1.8-0.9,3.6-0.9,5.6c0.1,2,0.1,4,0.7,5.9c0.4,1.2,0.8,2.4,1.7,3.1c1.6,1.3,3.4,1.6,5.2,0.4
			c0.8-0.5,1.4-1.3,1.6-2.4c0.2-1,0.2-2,0.3-3c0.1-0.7,0.2-1.5,0.3-2.6C562.5,50.9,562.6,50,562.5,49.1"/>
		<path d="M676.5,70.6c0,0,0-0.1,0.1-0.2c0,0-0.1-0.1-0.1,0c0,0,0,0.1-0.1,0.1C676.4,70.5,676.4,70.6,676.5,70.6 M675.2,72.3
			c-1.5,2.7-3.4,4.8-5.3,6.9c-0.5,0.6-1.1,0.8-1.7,0.6c-0.5-0.1-0.8-0.6-0.8-1.3c0-1,0-1.9,0.1-2.9c0.1-1.6,0.1-3.3,0.3-4.9
			c0.5-3,1.1-5.9,1.6-8.8c0.1-0.4,0.2-0.8,0.3-1.2c0.1-0.4,0.4-0.7,0.7-0.7c0.4,0,0.6,0.3,0.7,0.7c0.3,1.4,0.7,2.8,0,4.2
			c-0.1,0.3-0.2,0.6-0.3,1c-0.9,2.8-1.2,5.7-1.2,8.7c0,0.6-0.1,1.2,0.3,1.7c0.1,0,0.2,0,0.2,0c1.9-2.1,3.7-4.3,4.9-7.3
			c0.3-0.7,0.7-1.4,1-2.1c0.5-0.9,1.1-1.2,1.9-1c0.6,0.1,1.1,0.4,1.5,1c0.4,0.5,0.8,1.1,1.3,1.5c1.8,1.5,3.6,3.1,5.4,4.4
			c1.3,0.9,2.5,2,3.5,3.3c0.5,0.6,1.1,1.3,1.6,1.9c0.2,0.2,0.3,0.4,0.4,0.6c0.2,0.4,0.2,0.9-0.2,1.3c-0.4,0.4-0.9,0.3-1.3,0.3
			c-1.5-0.1-3,0.1-4.4,0.6c-0.2,0.1-0.5,0-0.6,0.5c0.2,0.4,0.4,0.8,0.6,1.3c0.3,0.7,0.2,1.5,0,2.2c-0.2,0.7-1,1-1.3,0.4
			c-0.5-1.2-1.4-1.6-2.2-2c-0.3-0.1-0.5-0.4-0.8-0.7c-0.7-0.8-0.6-1.7,0.1-2.4c0.2-0.2,0.4-0.4,0.7-0.5c1.7-0.6,3.3-1.5,5.1-1.4
			c0.4,0,0.8,0.1,1.3-0.3c-0.1-0.3-0.2-0.5-0.3-0.7c-0.7-0.9-6.4-5.2-7.9-6.1c-0.5,0.2-0.9,0.5-1.4,0.7c0,0.4,0,0.6,0,0.9
			c0.1,2.5,0.2,5,0.2,7.4c0,1.3,0.1,2.6,0.1,3.9c0.2,3,0.4,5.9,0.5,8.9c0.1,1.4,0.1,2.8,0.2,4.1c0.3,3.1,0.6,6.3,0.9,9.4
			c0.2,2.1,0.3,4.1,0.7,6.1c0.1,0.7,0.3,1.3,0.4,2c0.1,0.9-0.2,1.5-0.8,1.7c-0.1,0-0.2,0.1-0.3,0.1c-0.7,0.2-1.1-0.2-1.2-1.1
			c-0.1-1.1-0.2-2.2-0.3-3.3c-0.1-1.2-0.2-2.3-0.3-3.5c-0.2-2.3-0.2-4.7-0.5-7c-0.4-2.9-0.5-5.7-0.6-8.6c-0.1-1.6-0.2-3.2-0.3-4.9
			c-0.2,0.2-0.3,0.3-0.3,0.4c-0.5,3.2-1,6.3-1.3,9.5c-0.3,3.1-0.6,6.1-1.2,9.2c-0.2,1.2-0.5,2.4-0.7,3.6c-0.2,1.4-1.2,2.6-2.3,2.5
			c-0.3,0-0.6-0.2-0.8-0.5c-0.4-0.6-0.3-1.7,0.1-2.3s0.7-1.2,0.7-2c0-0.3,0.1-0.7,0.3-0.9c0.8-0.9,1-2.2,1.2-3.5
			c0.3-2,0.6-3.9,0.7-5.9c0.1-1.3,0.2-2.6,0.4-3.9c0.3-2.2,0.6-4.3,0.8-6.5c0.3-3.6,0.5-7.3,0.8-10.9c0-0.1,0-0.3,0-0.4
			c-0.3-1.2-0.1-2.3,0-3.5c0-0.5,0.1-1.1-0.5-1.6C675.6,71.7,675.4,71.9,675.2,72.3"/>
		<path d="M680.1,55c0.5-2.3,0.7-4.7,0.5-7.1c-0.1-0.5-0.2-1.1-0.3-1.6c0-0.2-0.1-0.5-0.2-0.5c-0.7-0.2-1.1-0.8-1.6-1.5
			c-0.1-0.1-0.4-0.1-0.6,0c-0.2,0.1-0.5,0.3-0.6,0.6c-0.7,1.9-1.5,3.8-1.7,5.9c-0.1,1.3-0.1,2.6-0.1,3.9c0,0.4,0.1,0.8,0.2,1.2
			c0.3,1.1,1,1.8,1.8,1.3c0.6-0.4,1.1-0.3,1.6,0.1C679.6,56.7,680,55.9,680.1,55 M673.5,49c0.3-3,1.4-5.3,3.4-6.7
			c1.9-1.4,4-1.1,5,2.1c0.5,1.8,0.9,3.6,0.9,5.6c-0.1,2-0.1,4-0.7,5.9c-0.4,1.2-0.8,2.4-1.7,3.1c-1.6,1.3-3.4,1.6-5.2,0.4
			c-0.8-0.5-1.4-1.3-1.6-2.4c-0.2-1-0.2-2-0.3-3c-0.1-0.7-0.2-1.5-0.3-2.6C673.5,50.8,673.4,49.9,673.5,49"/>
		<path class="st1" d="M591.6,36.6c0.2-0.7,0.5-1.3,1.1-1.7c0.1-0.1,0.1-0.2,0.2-0.3c0.2-0.3,0.4-0.4,0.8-0.5c0.2,0,0.4-0.1,0.6-0.1
			c1.3-0.3,2.2-0.9,2.9-2c0.5-0.8,0.8-1.7,0.7-2.7c-0.2-1.1-0.4-2.2-1-3.2c-0.2-0.4-0.5-0.7-0.8-0.9c-0.8-0.4-1.6-0.9-2.5-1.3
			c-1.2-0.5-2.3-0.2-3.3,0.3c-0.8,0.5-1.4,1.2-2,2c-0.3,0.5-0.5,1-0.6,1.6c-0.2,0.9-0.1,1.8,0.1,2.6c0.2,1.1,0.6,2.1,1.5,2.7
			c0.1,0.4,0.1,0.6,0.1,0.9c0.1,0.6,0.3,1.2,0.4,1.8c0,0.1,0.1,0.3,0.1,0.4C590.3,36.5,590.9,36.7,591.6,36.6 M592.4,38
			c-0.4,0.1-0.7,0-1-0.1c-0.3-0.1-0.7-0.2-1-0.3c-0.3-0.1-0.7-0.1-1.1-0.1c-0.8,0.1-1.5-0.7-1.2-1.5c0.1-0.3,0.2-0.6,0.1-1
			c-0.1-0.7-0.4-1.4-0.8-1.9c-0.5-0.6-0.7-1.2-0.9-1.9c-0.1-0.5-0.2-1-0.4-1.5c-0.2-0.6,0-1.3,0-1.9c0.1-0.9,0.4-1.7,1-2.4
			c0.3-0.4,0.6-0.8,0.9-1.1c1.2-1.2,2.7-1.7,4.4-1.7c0.2,0,0.4,0,0.5,0.1c1,0.4,1.9,0.8,2.9,1.2c0.3,0.1,0.6,0.3,0.9,0.5
			c0.6,0.4,1.1,1,1.4,1.7c0,0.1,0.1,0.2,0.1,0.3c0.5,0.8,0.7,1.8,0.9,2.7c0.2,0.8,0.1,1.5-0.1,2.3c-0.3,0.7-0.7,1.4-1.2,1.9
			c-0.7,0.8-1.5,1.4-2.6,1.6c-0.1,0-0.2,0.1-0.3,0.1c-0.8,0.2-1.3,0.8-1.7,1.5c-0.2,0.4-0.4,0.9-0.6,1.3
			C592.5,37.9,592.5,37.9,592.4,38"/>
		<path class="st1" d="M589.6,39.5c-0.1-0.1-0.2-0.2-0.4-0.1C589.2,39.6,589.4,39.6,589.6,39.5 M590.7,40c0,0.3,0.3,0.6,0,1
			c-0.3,0.1-0.6,0.1-1-0.1c-0.3-0.2-0.6-0.3-1-0.5c-0.1-0.1-0.2-0.1-0.3-0.2c-0.5-0.4-0.5-0.6,0.1-1c-0.1-0.1-0.2-0.2-0.3-0.4
			c-0.2-0.3,0.1-0.7,0.4-0.7c0.7,0.1,1.4,0.3,2.1,0.6c0.5,0.2,0.5,0.7,0.1,1C590.9,39.9,590.8,39.9,590.7,40"/>
		<path class="st1" d="M600.8,21.6c-0.2,0.6-0.7,0.9-1.2,1.2c-0.2,0.1-0.4,0.2-0.6,0.3c-0.2,0.1-0.3,0.1-0.5,0
			c-0.2-0.1-0.3-0.4-0.3-0.6c0-0.2,0.1-0.3,0.3-0.5c0.4-0.4,0.7-0.7,1.1-1c0.2-0.2,0.7-0.1,1,0.2C600.7,21.4,600.7,21.5,600.8,21.6"
			/>
		<path class="st1" d="M584.8,25.7c-0.2,0-0.4,0-0.6-0.1c-0.5-0.2-0.9-0.3-1.3-0.5c-0.3-0.1-0.5-0.4-0.6-0.6
			c-0.1-0.1-0.1-0.3,0.1-0.4c0.1-0.1,0.2-0.1,0.3-0.1c0.1,0,0.3,0.1,0.4,0.1c0.5,0.3,1,0.4,1.5,0.5c0.3,0,0.5,0.2,0.6,0.4
			c0.1,0.2,0.1,0.6-0.1,0.7C585,25.7,584.9,25.7,584.8,25.7"/>
		<path class="st1" d="M593.6,18.2c0,0,0.2,0,0.2,0c0.4,0.1,0.6,0.5,0.5,0.8c-0.1,0.4-0.2,0.8-0.2,1.2c0,0.2,0,0.4-0.2,0.4
			c-0.2,0.1-0.5,0-0.6-0.2c-0.1-0.2-0.2-0.4-0.2-0.6c0-0.4,0-0.9,0-1.3C593,18.3,593.2,18.1,593.6,18.2"/>
		<path class="st1" d="M599.4,34.7c0.1,0.1,0.3,0.1,0.4,0.2c0.3,0.3,0.7,0.5,1.1,0.7c0.3,0.1,0.4,0.3,0.5,0.6c0,0.2,0,0.3-0.1,0.4
			c-0.2,0.1-0.4,0.2-0.6,0.1c-0.7-0.4-1.3-0.8-1.7-1.3c0,0,0-0.1-0.1-0.1c-0.1-0.3,0-0.5,0.3-0.5C599.2,34.7,599.3,34.7,599.4,34.7"
			/>
		<path class="st1" d="M602.4,29.8c-0.3,0-0.6-0.1-0.9-0.1c-0.1,0-0.2-0.1-0.3-0.2c-0.2-0.1-0.3-0.3-0.3-0.5c0-0.2,0.2-0.3,0.5-0.3
			c0.4,0,0.8,0,1.2-0.1c0.4-0.1,0.7,0,0.9,0.4c0.2,0.3,0.1,0.5-0.2,0.7c-0.1,0-0.1,0.1-0.2,0.1C602.8,29.8,602.6,29.8,602.4,29.8
			C602.4,29.8,602.4,29.8,602.4,29.8"/>
		<path class="st1" d="M589,21.5c-0.1,0.1-0.1,0.2-0.2,0.2c-0.1,0-0.3,0-0.4,0c-0.3-0.2-0.6-0.4-0.7-0.7c-0.1-0.4-0.3-0.8-0.4-1.2
			c-0.1-0.2,0.1-0.5,0.4-0.6c0.4-0.1,0.8,0.2,0.9,0.5c0,0.2,0,0.4,0,0.5c0,0.4,0,0.7,0.3,1C588.9,21.3,588.9,21.4,589,21.5"/>
		<path class="st1" d="M582.8,31.4c-0.3,0-0.6-0.1-0.7-0.4c-0.2-0.3-0.1-0.6,0.1-0.7c0.1,0,0.1-0.1,0.2-0.1c0.2-0.1,0.5-0.2,0.7-0.2
			c0.4-0.2,0.7-0.1,0.9,0.3c0.2,0.3,0.1,0.8-0.2,0.9C583.5,31.3,583.1,31.3,582.8,31.4"/>
		<path class="st1" d="M592.7,31.1c-0.4,1.1-0.8,2.2-1.1,3.2c-0.1,0.2-0.1,0.3-0.2,0.5c-0.1,0.2-0.3,0.2-0.5,0.2
			c-0.2-0.1-0.3-0.2-0.2-0.4c0.2-0.8,0.3-1.6,0.5-2.5c0.1-0.3,0.2-0.6,0.2-1c-0.3-0.1-0.6-0.2-0.9-0.2c-0.1,0-0.3-0.1-0.4-0.2
			c-0.1-0.1-0.2-0.2-0.1-0.3c0.1-0.1,0.2-0.2,0.3-0.3c0.1,0,0.1,0,0.2,0c0.7,0,1.5,0,2.2,0c0.4,0,0.7,0.1,1.1,0.2
			c0.1,0,0.1,0.1,0.2,0.1c0.2,0.2,0.3,0.4,0.2,0.6c-0.1,0.2-0.4,0.4-0.6,0.3C593.2,31.2,593,31.2,592.7,31.1"/>
	</g>
	<g id="_x32_">
		<path d="M381,76.8c-1.2-0.1-2.3-0.3-3.3-0.3c-3.6,0.2-7.3,0.5-10.9,0.7c-2,0.1-4-0.1-6.1-0.1c-1.3,0-2.6,0-4.1,0
			c-0.2,2.3-0.3,4.3-0.5,6.4c-0.1,0.7-0.2,1.4-0.4,2c-0.3,0.8-1.2,1-1.8,0.3c-0.7-0.9-0.9-1.9-0.6-3.1c0.4-1.6,0.5-3.3,0.5-5
			c-1.5,0-2.7-0.6-4.1-0.4c-1,0.1-2-1.5-1.7-2.5c0.1-0.2,0.1-0.4,0.3-0.4c0.9-0.3,1.9-0.9,2.7-0.7c1.5,0.4,3,0.2,4.5,0.2
			c2.7,0,5.4,0.2,8.1,0.1c3.6-0.1,7.1-0.5,10.7-0.7c2.9-0.1,5.8,0,8.6,0c1.4,0,2.9-0.2,4.3-0.3c1.3-0.1,2.1,0.4,2.4,1.6
			c0.2,1-0.1,1.6-1.1,1.7c-1.1,0.2-2.2,0.3-3.3,0.4c-0.8,0.1-1.2,0.3-1.2,1.1c0.1,2.1,0.1,4.1,0.2,6.2c0,1,0,2.1-0.1,3.1
			c0,0.4-0.4,0.8-0.8,1c-0.2,0.1-0.8-0.2-1-0.4c-0.9-0.9-1.3-1.9-1.2-3.2C381.3,81.9,381.1,79.5,381,76.8"/>
		<path d="M346,93.9c-0.5-0.6-1-1-1.4-1.5c-2,0.9-3.3,2.7-3.3,4.5c0,1.1,0.5,1.8,1.4,2.2c1.4,0.5,3.5-0.3,3.9-1.7
			c0.4-1.2,0.5-2.4,0.7-3.7c0-0.1-0.2-0.3-0.3-0.5C346.7,93.4,346.4,93.6,346,93.9 M349.8,95.9c-0.3,1.2-0.6,2.3-0.9,3.5
			c-0.6,1.9-2,2.8-3.9,2.9c-4,0.2-5.9-2.8-6.2-5.6c-0.4-3.2,1.4-5.2,3.7-6.9c0.8-0.6,1.6-1.6,2.9-1.2c0.5,0.1,1,0.2,1.4,0.6
			C348.7,90.9,350.1,93,349.8,95.9"/>
		<path d="M355.6,101.6c-1.5,1.4-2.3,3.3-2.7,5.4c-0.3,1.3,0.4,1.9,1.7,1.9c1.7,0,2.6-1.2,3.4-2.4c0.6-0.9,1.3-1.9,1.1-3.2
			c-0.1-0.6-0.3-1-1.1-1.1C357.2,102.1,356.5,101.9,355.6,101.6 M361.6,104.6c-0.5,2.5-1.2,4.5-2.9,6.2c-1.3,1.3-2.8,1.8-4.5,1.4
			c-2-0.5-3.1-1.9-3.6-3.8c-1-3.9,0.7-6.9,3.3-9.6c0.2-0.2,0.5-0.4,0.8-0.3c1.5,0.2,3.2,0.2,4.5,0.8
			C361.4,100.4,361.6,102.7,361.6,104.6"/>
		<path d="M368.2,92.7c-1.1,1.7-1.8,3.8-2,6.1c0,0.4,0.1,0.9,0.3,1.3c0.4,1.1,1.3,1.3,2.2,0.7c0.5-0.3,0.9-0.7,1.3-1.1
			c1.4-1.4,2.7-4.1,1.1-6.3C370,93.1,369.2,92.9,368.2,92.7 M374.3,97.4c-0.1,2.5-1.4,4.4-3.2,5.9c-2.2,1.9-5.2,1.1-6.7-1.6
			c-0.7-1.4-1.2-2.9-0.8-4.5c0.5-2,1-4.1,1.8-5.9c1.2-2.8,4.6-3.1,6.6-0.8C373.8,92.5,374.4,94.9,374.3,97.4"/>
		<path d="M384.2,105.5c-0.1-0.3-0.1-1-0.4-1.3c-0.6-0.8-3.2-0.8-3.8-0.1c-1.2,1.4-2.1,3-2.4,4.9c-0.1,0.8,0.2,1.4,1,1.6
			c0.7,0.1,1.4,0.2,2-0.1C382.6,109.6,383.8,108,384.2,105.5 M386.8,106.6c-0.1,1.7-0.9,3.2-1.7,4.6c-1.2,2.1-4.4,3-6.6,2.4
			c-1.7-0.4-3.5-2.8-3.6-4.9c-0.1-3,1.2-5.3,3.2-7.4c0.2-0.2,0.6-0.4,0.9-0.5c0.6-0.3,4.7-0.2,5.3,0.1c1.4,0.6,2.7,3.2,2.6,5
			C386.9,106.1,386.8,106.4,386.8,106.6"/>
		<path d="M392.3,95.8c-1.4,4-1.6,5.1-1,6.4c2.6-1.2,3.6-3.1,3-5.2C393.6,96.5,393,96.1,392.3,95.8 M388.4,99.3
			c0.6-2.2,1.1-4.4,1.8-6.6c0.3-1,0.9-1.1,1.9-0.7c0.5,0.3,1.1,0.5,1.7,0.7c1.4,0.3,2.1,1.5,2.7,2.6c1.4,2.7,1.2,6.9-2,9.1
			c-1.1,0.8-2.5,1.4-3.7,0.6c-0.9-0.7-1.6-1.8-2.1-2.8C388.3,101.3,388.4,100.3,388.4,99.3"/>
		<path d="M405.6,104c-0.5,0.3-1.2,0.4-1.6,0.8c-1.8,2-3.4,4.2-3.6,7.1c0,0.5,0.2,1.1,0.5,1.4c0.9,0.9,2.1,1.2,3.3,0.7
			c1.3-0.5,2.5-0.9,2.7-2.6C407.2,108.9,407.5,106.4,405.6,104 M409.9,112c-0.2,0.8-0.4,1.7-0.7,2.5c-1,2.2-2.8,3.1-5.1,2.9
			c-4.8-0.4-7-4.7-6-8.7c0.6-2.4,1.7-4.7,3.5-6.5c1.2-1.3,2.5-1.5,4.1-0.7c0.3,0.1,0.5,0.4,0.7,0.4c1.5,0,2,1.2,2.5,2.3
			C409.8,106.7,410,109.3,409.9,112"/>
		<path class="st1" d="M414.9,92.1c0,0-0.1,0-0.3,0c0.2-0.6,0.6-1.1,0.9-1.7c0.3-0.5,0.7-1,0.9-1.5c0.2-0.5,0.4-1,0.5-1.5
			c0.1-0.2-0.1-0.5-0.2-0.6c-0.1-0.2-0.3-0.3-0.5-0.4c-1.2-0.8-2.2-1.8-3-2.9c-0.5-0.6-0.9-1.3-1.1-2c-0.5-1.3-0.5-2.6-0.1-3.9
			c0.3-1.1,0.9-2,2.1-2.7c2-1.1,4.1-1.4,6.2-1c0.9,0.2,1.8,0.3,2.7,0.5c0.9,0.2,1.7,0.4,2.5,0.7c2.9,0.7,5.3,2.3,7.6,3.9
			c1.1,0.8,1.9,1.9,2.4,3.1c0.4,1.1,0.4,2.4-0.1,3.5c-0.7,1.4-1.9,2.6-3.5,3.3c-2.2,0.9-4.4,1.4-6.7,1.3c-1.2,0-2.4-0.1-3.5-0.4
			c-1-0.3-1.9-0.7-2.6-1.4c-0.1-0.1-0.3-0.3-0.5-0.4c-0.3-0.2-0.8-0.1-0.9,0.3c-0.1,0.4-0.2,0.9-0.3,1.5
			C416.8,90.5,415.9,91.3,414.9,92.1 M424.4,91.9c2.5,0,5-0.3,7.4-1.2c0.9-0.3,1.7-0.7,2.4-1.3c0.8-0.7,1.5-1.6,2.3-2.3
			c0.2-0.2,0.3-0.4,0.4-0.7c0.5-1.3,0.9-2.7,0.5-4c-0.4-1.6-1.2-3-2.5-4.1c-0.5-0.4-1.1-0.8-1.6-1.2c-1.4-1.1-3-2-4.7-2.6
			c-0.6-0.2-1.2-0.5-1.8-0.7c-0.4-0.2-0.9-0.3-1.4-0.4c-0.7-0.2-1.4-0.3-2.1-0.6c-1-0.3-2.2-0.3-3.3-0.6c-1.1-0.3-2.2-0.2-3.3,0.1
			c-0.7,0.2-1.5,0.4-2.2,0.7c-1.7,0.7-3,1.8-3.7,3.3c-0.3,0.7-0.5,1.5-0.6,2.2c-0.4,2.3,0.1,4.3,1.5,6.1c0.4,0.4,0.7,0.9,1,1.4
			c0.1,0.2,0.3,0.3,0.4,0.4c0.5,0.4,1,0.9,1.4,1.3c0.3,0.3,0.3,0.7,0.1,1.1c-0.2,0.3-0.5,0.6-0.6,0.9c-0.6,1.3-1.5,2.5-2.3,3.7
			c-0.2,0.3-0.4,0.7-0.5,1.1c-0.1,0.5,0.1,0.8,0.5,1c0.4,0.2,0.7,0.3,1.2,0c0.3-0.2,0.6-0.5,1-0.7c1.3-0.8,2.5-1.9,3.6-2.9
			c0.5-0.4,1-0.9,1.8-1C421.1,91.4,422.7,91.8,424.4,91.9"/>
		<path class="st1" d="M329.5,87.1c-1.5-0.2-3-0.7-4.5-1.3c-0.6-0.2-1.2-0.5-1.9-0.8c-0.3-0.2-0.7-0.3-1-0.5c-0.4-0.3-0.5-0.6-0.3-1
			c0.5-1,0.2-2-0.3-2.9c-0.7-1.3-1.8-2.3-3.1-3c-0.8-0.4-1.7-0.8-2.5-1c-1.2-0.3-2.4-0.5-3.6-0.4c-1.5,0.1-2.9,0.5-4.1,1.3
			c-0.7,0.5-1.4,1-1.9,1.7c-0.8,1.2-1,2.6-0.7,4.1c0.1,0.4,0.3,0.8,0.5,1.2c0.4,0.6,0.7,1.3,1.3,1.8c0.2,0.2,0.3,0.4,0.5,0.6
			c0.8,1,1.8,1.9,3,2.5c0.6,0.3,1.2,0.5,1.9,0.6c1.5,0.3,3,0.4,4.4,0.1c0.9-0.2,1.8-0.5,2.4-1.3c0.4-0.5,1-0.8,1.5-1.1
			c0.3-0.2,0.7-0.4,0.9-0.7c0.2-0.2,0.4-0.2,0.7-0.1c0.8,0.4,1.6,0.5,2.4,0.6c0.7,0.1,1.4,0.1,2.1,0.1c0.1,0,0.3,0,0.4,0
			c0.7-0.3,1.5-0.4,2.2-0.3c0,0,0.1-0.1,0.1-0.1C329.7,87.2,329.6,87.1,329.5,87.1z M321.7,88.9c-0.5,0.3-1.1,0.6-1.5,1.1
			c-0.7,0.9-1.8,1.3-2.9,1.4c-1.7,0.2-3.5,0.1-5.4-0.3c-1.3-0.3-2.4-0.9-3.4-1.8c-1.2-1.2-2.3-2.5-3.2-4c-0.3-0.5-0.6-1.1-0.8-1.6
			c-0.3-1.2-0.2-2.2,0-3.3c0.1-0.5,0.3-1,0.6-1.4c0.2-0.2,0.4-0.5,0.6-0.8c0.3-0.3,0.6-0.6,0.9-0.9c0.7-0.5,1.4-1,2.2-1.3
			c1.3-0.6,2.7-0.8,4.2-0.8c0.5,0,1,0.1,1.5,0.2c0.6,0.1,1.2,0.2,1.8,0.4c1,0.2,2,0.8,2.9,1.3c0.6,0.3,1.2,0.8,1.7,1.3
			c0.4,0.4,0.7,0.8,1,1.3c0.4,0.6,0.8,1.3,0.9,2c0.1,0.7,0.1,1.4,0.1,2.1c0,0.1,0,0.3,0,0.4c0.4,0.1,0.8,0.2,1.1,0.4
			c0.5,0.2,0.9,0.4,1.4,0.6c1,0.3,2.1,0.6,3.1,0.8c1.1,0.2,2.1,0.2,3.1,0.2c0.4,0,0.8,0,1.1,0.1c0.3,0.3,0.6,0.6,0.8,0.9
			c0.4,0.5,0.2,0.9-0.4,0.9c-0.2,0-0.4,0-0.5,0c-1.2,0.3-2.5,0.4-3.8,0.5c-1.3,0.1-2.6,0.1-4-0.1c-0.8-0.1-1.6-0.1-2.5-0.5
			C322.5,88.5,322.1,88.6,321.7,88.9z"/>
		<path class="st1" d="M393.6,32.2c2.4-1,4.5-2.5,6.6-4.1c0.9-0.6,1.7-1.3,2.5-2.1c0.5-0.4,0.9-0.8,1.3-1.3c0.5-0.6,0.4-1.3-0.2-1.8
			c-1.6-1.3-1.9-3.1-1.6-4.9c0.3-2.4,1.3-4.5,3-6.2c1.1-1,2.2-2,3.5-2.7c1.8-1,3.7-1.9,5.7-2.3c2.6-0.5,5.2-0.4,7.8,0.3
			c1.6,0.4,3.1,1,4.4,1.9c2.3,1.6,3.6,3.8,4.2,6.4c0.1,0.7,0.1,1.4,0.1,2.1c-0.1,1.2-0.3,2.4-0.8,3.6c-0.2,0.4-0.2,0.7-0.4,1.1
			c-0.6,2.1-1.6,3.9-3.2,5.5c-0.8,0.8-1.8,1.3-2.7,1.8c-2.3,1.1-4.7,1.9-7.3,2.2c-1.7,0.2-3.4,0-4.9-1c-1-0.7-2.3-0.9-3.4-1.2
			c-0.7-0.2-1.4-0.3-2-0.7c-0.4-0.3-0.8-0.2-1.2,0.2c-1,1-2.3,1.5-3.5,2c-1.1,0.5-2.3,0.8-3.4,1.1c-0.2,0.1-0.4,0.1-0.7,0.1
			c-1.4-0.2-2.7,0-4,0.5c0,0-0.1-0.1-0.3-0.2C393.3,32.4,393.5,32.2,393.6,32.2 M407.9,31.5c1.1,0.2,2.3,0.6,3.3,1.2
			c1.9,1.1,4,1.3,6,1c3.1-0.4,6-1.5,8.8-2.9c2-1,3.4-2.5,4.3-4.4c1.1-2.5,2.1-5.1,2.4-7.9c0.1-1,0.2-2,0-3c-0.3-2-1.3-3.8-2.5-5.4
			c-0.6-0.8-1.2-1.5-2.1-2c-0.6-0.3-1-0.7-1.6-1c-0.7-0.4-1.4-0.8-2.2-1c-1.5-0.5-3.1-0.9-4.7-1.1c-2.6-0.3-5.2-0.1-7.7,0.5
			c-0.9,0.2-1.6,0.6-2.4,1c-0.9,0.4-1.8,0.9-2.7,1.4c-1.5,0.9-2.8,2.1-4,3.4c-0.8,0.8-1.3,1.8-1.8,2.9c-0.4,0.8-0.6,1.6-0.7,2.5
			c-0.2,1.2-0.5,2.4,0,3.7c0.4,1.2,0.9,2.3,1.4,3.5c0.1,0.2,0.2,0.5,0.3,0.6c-0.6,0.4-1.1,0.7-1.6,1.1c-0.6,0.5-1.2,1.1-1.9,1.5
			c-1.5,1-3.1,1.9-4.6,2.8c-1.6,0.9-3.4,1.3-5.1,1.8c-0.6,0.2-1.3,0.3-1.8,0.7c-0.2,0.7-0.5,1.3-0.6,1.9c-0.3,0.9,0.4,1.6,1.3,1.3
			c0.3-0.1,0.6-0.2,0.9-0.2c2.3-0.1,4.5-0.4,6.7-0.8c2.3-0.4,4.5-1,6.6-1.9c1.2-0.5,2.6-0.8,3.8-1.8
			C406.4,31.3,407.2,31.4,407.9,31.5"/>
		<path class="st1" d="M415.2,20.3c0.1-1,0.1-1.9,0.9-2.7c0.8-0.7,1.6-1.5,2.3-2.4c0.8-0.9,1.6-1.8,2-3c0,0,0-0.1,0.1-0.1
			c0.6-1.4-0.1-1.8-1.3-1.9c-0.2,0-0.5,0.1-0.7,0.2c-0.7,0.3-1.4,0.8-2,1.4c-1,1-1.6,2.3-2.3,3.5c-0.1,0.2-0.1,0.4-0.2,0.6
			c-0.1,0.7-0.6,1-1.2,0.7c-0.1,0-0.2-0.1-0.3-0.1c-0.7-0.2-0.9-0.8-0.5-1.5c0.7-1.1,1.4-2.2,2.2-3.3c0.8-1,1.7-1.9,2.8-2.5
			c1.4-0.8,2.8-0.9,4.3,0c0.3,0.2,0.6,0.4,0.9,0.6c0.7,0.7,0.8,1.6,0.5,2.6c-0.3,0.8-0.7,1.6-1.1,2.3c-0.6,0.9-1.2,1.7-2,2.4
			c-0.7,0.6-1.2,1.3-1.8,2c-0.6,0.7-0.5,1.7-0.5,2.5c0,0.2,0,0.4,0,0.5c-0.1,0.4-0.3,0.6-0.7,0.4c-0.8-0.3-1-1-1.2-1.8
			C415.2,20.6,415.2,20.4,415.2,20.3"/>
		<path class="st1" d="M414.7,28.4c-0.7,0-1.6-0.8-1.7-1.5c-0.1-0.4,0-0.7,0.3-0.9c0.4-0.2,0.8-0.4,1.3-0.5c0.1,0,0.4,0.1,0.5,0.3
			c0.2,0.5,0.4,1,0.5,1.5C415.6,27.8,415.1,28.4,414.7,28.4"/>
		<path class="st0" d="M353.7,43c-0.4,0.1-0.8,0.1-1.1,0.2c-0.8,0.1-1.3,0.6-1.5,1.5c-0.2,1,0.1,1.7,0.8,2.3
			c0.9,0.7,1.8,1.3,2.6,2.1c3,2.6,5.8,5.4,8.3,8.5c0.6,0.7,1.2,1.3,1.8,1.9c1.2-0.2,2-0.9,2.7-1.9c1.7-2.3,3.4-4.6,5.1-6.9
			c0.2-0.3,0.5-0.5,1.1-1.1c0.3,6.1,0.9,11.8,1.1,17.5c0.8,0.7,1.3,0.4,1.9-0.1c0.6-0.5,1.1-1.1,1-2c-0.1-2.5-0.3-4.9-0.4-7.4
			c-0.2-2.8-0.3-5.7-0.3-8.6c3.5,4.5,6.3,9.5,9.3,14.5c1.1-0.1,2.3-0.2,3.4-0.3c0.7-0.1,1.2-0.6,1.4-1.4c0.3-1.2-0.1-2-1.1-1.9
			c-1.6,0.1-2.3-0.9-2.9-2.4c-0.3-0.8-0.8-1.5-1.3-2.2c-1.9-2.8-3.8-5.6-5.6-8.5c-0.9-1.4-1.7-2.8-2.5-4.2c-0.7-1.3-1.8-1.2-2.8-1.2
			c-0.9,0.1-1.7,1.5-1.5,2.7c0.2,1.5-0.4,2.5-1.1,3.5c-1.5,2.1-3,4.1-4.5,6.1c-1.1,1.5-1.6,1.6-2.9,0.2c-2.8-2.8-5.7-5.6-8.5-8.4
			C355.3,44.8,354.5,43.9,353.7,43"/>
		<path class="st0" d="M376.3,27.4c-0.4,1.7-0.8,3.5-1.3,5.2c-0.4,1.3-1.1,1.4-2.1,0.6c-0.7-0.6-1.4-1.3-1.8-2.4
			c-0.8-2.6-1.2-5.3-1-8.1c0.1-1.1,0.1-2.2,0.4-3.2c0.2-0.6,0.7-1.3,1.3-1.5c0.3-0.1,0.9,0.6,1.3,1c0.3,0.3,0.4,0.8,0.6,1.3
			C374.4,22.5,376.2,27.3,376.3,27.4 M379,19.8c-0.1-1.7-0.3-3.3-1.7-4.3c-0.3-0.2-0.7-0.6-0.9-0.5c-1.1,0.6-2-0.3-3-0.5
			c-1.8-0.4-3,0.9-4.1,2.4c-0.4,0.6-0.7,1.3-0.9,2c-1.4,5.2-1.4,10.4,0.8,15.4c1.3,2.9,3.9,3.6,6.1,1.6c1.5-1.4,2.3-3.2,2.8-5.3
			C378.9,27,379.2,23.5,379,19.8"/>
	</g>
	<g id="_x31_">
		<path class="st0" d="M131.6,45.1c0.5,0.1,0.9,0.1,1.3,0.2c0.9,0.1,1.5,0.6,1.7,1.5c0.2,0.9-0.1,1.7-0.9,2.2c-1,0.6-2,1.3-3,2
			c-3.4,2.5-6.6,5.3-9.5,8.4c-0.6,0.7-1.4,1.3-2.1,1.9c-1.4-0.2-2.3-0.9-3.1-1.9c-1.9-2.3-3.8-4.5-5.8-6.7c-0.3-0.3-0.6-0.5-1.2-1.1
			c-0.4,6-1.1,11.6-1.2,17.1c-0.9,0.7-1.5,0.4-2.1-0.1c-0.7-0.5-1.2-1.1-1.1-2c0.1-2.4,0.3-4.8,0.5-7.2c0.2-2.8,0.4-5.6,0.3-8.4
			c-4,4.4-7.2,9.3-10.6,14.3c-1.3-0.1-2.6-0.2-3.8-0.3c-0.8-0.1-1.3-0.6-1.6-1.4c-0.4-1.1,0.1-2,1.3-1.9c1.9,0.1,2.6-0.9,3.3-2.4
			c0.3-0.8,1-1.4,1.5-2.1c2.1-2.8,4.3-5.5,6.4-8.3c1-1.3,2-2.7,2.8-4.2c0.8-1.3,2-1.2,3.1-1.1c1,0.1,1.9,1.4,1.7,2.7
			c-0.3,1.5,0.5,2.5,1.3,3.4c1.6,2,3.4,4,5.1,6c1.3,1.5,1.8,1.5,3.3,0.2c3.2-2.7,6.4-5.5,9.6-8.2C129.7,46.8,130.6,46,131.6,45.1"/>
		<path class="st0" d="M106.4,29.6c-0.2,0.1-0.3,0.1-0.5,0.2c0.5,1.7,0.9,3.5,1.5,5.1c0.5,1.3,1.3,1.4,2.4,0.6
			c0.8-0.6,1.6-1.3,2-2.4c1-2.6,1.4-5.2,1.1-7.9c-0.1-1.1-0.1-2.2-0.5-3.2c-0.2-0.6-0.8-1.3-1.4-1.5c-0.4-0.1-1.1,0.6-1.5,1
			c-0.3,0.3-0.5,0.8-0.7,1.2c-0.8,2.3-1.4,4.5,0.6,6.5c0.4,0.4,0.5,1.2,0.8,1.8C108.6,31.4,107.4,30.6,106.4,29.6 M102.9,22.4
			c0.1-1.7,0.4-3.2,2-4.2c0.3-0.2,0.8-0.5,1.1-0.4c1.3,0.6,2.3-0.3,3.4-0.5c2-0.4,3.4,0.9,4.6,2.3c0.5,0.6,0.8,1.3,1,2
			c1.5,5.1,1.6,10.2-0.9,15.1c-1.4,2.8-4.4,3.5-6.9,1.5c-1.7-1.3-2.6-3.2-3.2-5.2C103,29.4,102.7,25.9,102.9,22.4"/>
		<path class="st1" d="M177.2,11.3c-0.2-0.5-0.4-1-0.5-1.4c-0.1-0.3,0-0.6,0.3-0.8c0.2-0.1,0.5-0.2,0.8-0.3c0-1.1-0.2-1.3-1.1-1.6
			c-0.2-0.1-0.3-0.1-0.5-0.1c-0.4-0.1-0.7,0.1-0.7,0.5c0,1.4,0.2,2.7,0.8,3.9C176.6,11.5,176.8,11.4,177.2,11.3 M173.6,6.9
			c-0.3,0-0.4-0.1-0.5-0.1c-1.3,0-2.6,0.1-3.8,0.1c-0.9,0-1.8-0.1-2.7-0.1c-1.6-0.1-3.3,0.1-4.9-0.3c-1.7-0.1-3.5,0-5,0.9
			c-0.4,0.2-0.8,0.3-1.2,0.5c-0.5,0.2-0.5,0.8-0.9,1.1c-0.4,0.3-0.5,0.8-0.5,1.2c-0.1,0.8,0.5,1.4,1.4,1.3c0.2,0,0.5,0,0.7,0
			c1.1,0.4,2.3,0.5,3.5,0.6c2.7,0.3,5.5,0.3,8.2,0c2-0.2,4-0.5,6-0.4c0.2,0,0.4-0.1,0.6-0.1C174.1,10,173.5,8.5,173.6,6.9
			 M178.3,41.1c0.1-0.8,0.3-1.5,0.2-2.1c-0.1-0.9,0.1-1.7-0.1-2.6c-0.1-0.2,0.1-0.5,0.1-0.7c0.2-0.9,0.4-1.8,0.3-2.8
			c-0.2-1.6-0.3-3.2-0.6-4.8c-0.2-1.1-0.3-2.1-0.3-3.2c0-1.4,0-2.8-0.1-4.2c-0.1-1.5-0.2-3-0.1-4.5c0.1-0.9-0.1-1.1-0.9-1.4
			c-0.4-0.1-0.8-0.4-1-0.7c-0.4-0.5-0.9-0.6-1.5-0.7c-1,0-1.9-0.1-2.9,0c-0.4,0.1-0.8,0-1.1,0c-0.4,0-0.8,0-1.2,0
			c-2.1,0.2-4.1,0.4-6.2,0.4c-0.5,0-1,0-1.5-0.1c-1.3-0.1-2.5-0.3-3.8-0.4c-0.6-0.1-0.8,0.2-0.7,0.7c0,0.2,0.1,0.3,0.2,0.5
			c0.2,0.4,0.2,0.9,0.3,1.4c0.2,2.1-0.3,4.3-0.1,6.4c0,0.2-0.1,0.5-0.1,0.7c-0.1,1.2-0.2,2.3-0.3,3.5c-0.1,1.1,0,2.3-0.2,3.4
			c-0.1,0.6-0.1,1.3,0,1.9c0.2,1.1,0.1,2.2,0.4,3.2c0,0,0,0.1,0,0.1c0.1,0.9,0.1,1.9,0.2,2.8c0.1,0.6,0.2,1.2,0.3,1.9
			c0.1,0.4,0.3,0.6,0.6,0.7c0.9,0.2,1.8,0.3,2.7,0.2c1-0.1,1.9-0.1,2.9-0.2c1.2,0,2.5-0.1,3.7-0.5c0.6-0.2,1.3-0.2,2-0.2
			c0.4,0,0.8,0.1,1.2,0c0.6,0,1.2-0.1,1.8-0.1c1-0.1,2,0,3,0.4C176.2,40.9,177.2,40.9,178.3,41.1 M154.5,13.2
			c-0.5-0.3-1-0.6-1.5-0.9c-1.1-0.6-1.4-1.4-1-2.6c0.1-0.4,0.3-0.7,0.4-1.1c0.3-0.6,0.5-1.2,0.7-1.8c0.2-0.5,0.5-0.9,1.1-0.8
			c1,0.1,1.8-0.3,2.7-0.7c1.1-0.5,2.3-0.6,3.5-0.6c1.1,0,2.3,0.2,3.4,0.2C165.4,5,167,5,168.5,5c1.5,0,2.9-0.1,4.4-0.2
			c0.3,0,0.6,0,0.9,0.1c0.6,0,1.2,0.1,1.9,0.1c0.2,0,0.3,0,0.5,0c1.5,0.1,2.4,1.1,3,2.4c0.2,0.4,0.3,0.8,0.3,1.2
			c0.1,0.6,0.2,1.3,0.4,1.9c0.1,0.2,0.1,0.4,0,0.6c-0.4,1-0.4,2.1-0.5,3.2c0,0.4-0.1,0.8-0.1,1.2c-0.2,1.3-0.1,2.6-0.1,3.9
			c0,1.8,0.1,3.5,0.1,5.3c0,1,0.1,2,0.4,3c0.1,0.3,0.1,0.6,0.2,0.9c0.2,1.1,0.3,2.2,0.6,3.3c0.1,0.4,0.1,0.8,0.1,1.2
			c-0.1,1.3-0.1,2.6,0.2,3.9c0.1,0.4,0,0.8-0.1,1.2c-0.3,1-0.5,2-0.4,3c0,0.3,0.2,0.6,0.3,0.9c0.1,0.2,0.2,0.5,0.2,0.7
			c0,0.8-0.6,1-1.3,1.1c-0.3,0-0.7-0.1-1-0.3c-0.6-0.5-1.3-0.7-2.1-0.8c-0.3,0-0.5-0.1-0.8-0.2c-1-0.4-2.1-0.5-3.2-0.3
			c-0.4,0.1-0.9,0.1-1.3,0.2c-0.5,0.1-0.9,0-1.4-0.1c-0.5-0.2-1-0.2-1.5-0.1c-0.4,0-0.8,0.1-1.1,0.2c-1.4,0.3-2.9,0.2-4.3,0.3
			c-0.8,0-1.6,0-2.4,0.1c-0.7,0.1-1.4,0-2.1-0.1c-0.3-0.1-0.7-0.1-1-0.2c-0.5-0.1-1.1-0.2-1.6-0.2c-0.5,0-1-0.1-1.3-0.5
			c-0.4-0.5-0.4-1.1,0.1-1.5c0.1-0.1,0.2-0.1,0.3-0.2c0.8-0.2,0.9-0.8,0.8-1.5c-0.1-1.6-0.2-3.1-0.3-4.7c-0.1-1.1-0.1-2.3,0-3.4
			c0.1-1.1,0.1-2.3,0.1-3.4c0-0.7,0.1-1.5,0.1-2.2c0-0.7,0-1.5,0-2.2c0-0.2,0-0.4,0-0.6c0.2-1.5,0-2.9,0-4.4c0-0.5-0.1-1-0.2-1.5
			c-0.1-0.4-0.2-0.8-0.5-1.1c-0.5-0.5-0.5-1-0.2-1.6C154.5,13.5,154.5,13.4,154.5,13.2"/>
		<path class="st1" d="M170.8,33.4c-1.4-0.2-2.7-0.4-4.1-0.4c-0.3,0.9-0.2,1.8,0.2,2.7c0.2,0,0.3,0,0.5,0c0.7-0.1,1.4-0.2,2.2-0.1
			c0.5,0,1-0.1,1.6-0.2C171.2,34.7,171,34.1,170.8,33.4 M160.1,22.6c0.7,0.2,2.3,0.4,3.2,0.3c0.5,0,1-0.1,1.4-0.4
			c0-0.9,0-1.7-0.3-2.6c-0.1-0.3-0.1-0.7-0.2-1c-0.1-0.5-0.2-0.6-0.6-0.6c-0.3,0-0.7,0-1,0c-0.7,0-1.4,0-2,0.3
			C160.4,19.9,160.2,21.3,160.1,22.6 M168.1,31.3c1.1,0.1,2.1,0.4,3.2,0.3c0.3,0,0.6,0,0.8,0.1c0.7,0.2,0.9,0.5,0.9,1.2
			c0,0.7,0.1,1.4,0.3,2.1c0.1,0.4,0.2,0.7,0.4,1.1c0.5,1.1-0.3,1.5-1.1,1.5c-0.2,0-0.3-0.1-0.5-0.1c-1.3-0.3-2.7-0.1-4,0
			c-0.3,0-0.6,0.2-0.8,0.4c-0.3,0.2-0.6,0.4-1,0.6c-0.4,0.2-0.7,0.2-1.1,0c-0.4-0.2-0.6-0.4-0.5-1c0.2-0.7,0.1-1.4,0.1-2.2
			c0-0.5-0.1-1-0.1-1.6c0-0.3,0-0.7-0.1-1c-0.1-0.4-0.1-0.7,0.1-1.1c0.2-0.3,0.5-0.4,0.9-0.4c0.1,0,0.1,0,0.2-0.1
			c0-0.8,0-1.3-0.3-1.9c0-0.1-0.1-0.2-0.2-0.3c-0.3-0.7-0.1-1.2,0.6-1.4c0.1,0,0.2-0.1,0.3-0.1c1.5,0.1,2.8-0.6,4.2-0.9
			c0-0.2,0.1-0.4,0.1-0.6c-0.1-1.7-0.3-3.3-0.2-5c0-0.2-0.1-0.5-0.1-0.8c-0.8,0-1.4,0.1-2.1,0.5c-0.4,0.2-0.7,0.4-1.1,0.6
			c-0.3,0.2-0.4,0.3-0.3,0.7c0.1,0.4,0.2,0.8,0.3,1.2c0.2,0.7-0.1,1.1-0.7,1.2c-0.2,0-0.4,0.1-0.6,0.1c-1.4,0.1-2.8,0.3-4.1,0
			c-0.6-0.1-1.2-0.1-1.9,0.1c-0.4,0.1-0.8,0.1-1.2-0.1c-0.5-0.3-0.7-0.7-0.4-1.3c0.2-0.5,0.4-1,0.6-1.5c0.3-0.7,0.3-1.4,0.3-2.2
			c0-0.5-0.1-0.9-0.5-1.2c-0.4-0.4-0.4-0.9,0.1-1.3c0.3-0.3,0.7-0.5,1.1-0.3c1.1,0.4,2.2,0.2,3.3,0.2c1.1,0,2.2-0.1,3.3-0.1
			c0.1,0,0.3,0,0.4,0.1c0.3,0.1,0.5,0.4,0.4,0.8c-0.1,0.2-0.2,0.4-0.3,0.5c-0.1,0.2-0.2,0.3-0.3,0.5c0,0.6,0.2,0.8,0.7,0.6
			c1.1-0.5,2.3-0.7,3.4-1.3c0.8-0.4,1.7,0.1,1.8,1c0.1,0.5,0.1,1,0,1.5c-0.1,0.8-0.1,1.7-0.1,2.5c0,0.6,0,1.2,0.1,1.9
			c0.1,0.8,0.2,1.5,0.7,2.1c0.2,0.3,0.3,0.6,0.1,1c-0.2,0.4-0.5,0.6-1,0.6c-0.1,0-0.2,0-0.3,0c-0.9-0.3-1.8-0.1-2.7,0.1
			c-0.4,0.1-0.8,0.3-1.2,0.5c-0.1,0-0.1,0.2-0.1,0.4c0,0.1,0,0.1,0.1,0.2C168.1,30.4,168.1,30.4,168.1,31.3"/>
		<path d="M123.6,76.7c-1.2-0.1-2.3-0.3-3.3-0.3c-3.6,0.2-7.3,0.5-10.9,0.7c-2,0.1-4-0.1-6.1-0.1c-1.3,0-2.6,0-4.1,0
			c-0.2,2.3-0.3,4.3-0.5,6.4c-0.1,0.7-0.2,1.4-0.4,2c-0.3,0.8-1.2,1-1.8,0.3c-0.7-0.9-0.9-1.9-0.6-3.1c0.4-1.6,0.5-3.3,0.5-5
			c-1.5,0-2.7-0.6-4.1-0.4c-1,0.1-2-1.5-1.7-2.5c0.1-0.2,0.1-0.4,0.3-0.4c0.9-0.3,1.9-0.9,2.7-0.7c1.5,0.4,3,0.2,4.5,0.2
			c2.7,0,5.4,0.2,8.1,0.1c3.6-0.1,7.1-0.5,10.7-0.7c2.9-0.1,5.8,0,8.6,0c1.4,0,2.9-0.2,4.3-0.3c1.3-0.1,2.1,0.4,2.4,1.6
			c0.2,1-0.1,1.6-1.1,1.7c-1.1,0.2-2.2,0.3-3.3,0.4c-0.8,0.1-1.2,0.3-1.2,1.1c0.1,2.1,0.1,4.1,0.2,6.2c0,1,0,2.1-0.1,3.1
			c0,0.4-0.4,0.8-0.8,1c-0.2,0.1-0.8-0.2-1-0.4c-0.9-0.9-1.3-1.9-1.2-3.2C123.9,81.8,123.7,79.4,123.6,76.7"/>
		<path d="M88.6,93.8c-0.5-0.6-1-1-1.4-1.5c-2,0.9-3.3,2.7-3.3,4.5c0,1.1,0.5,1.8,1.4,2.2c1.4,0.5,3.5-0.3,3.9-1.7
			c0.4-1.2,0.5-2.4,0.7-3.7c0-0.1-0.2-0.3-0.3-0.5C89.3,93.3,89,93.5,88.6,93.8 M92.4,95.8c-0.3,1.2-0.6,2.3-0.9,3.5
			c-0.6,1.9-2,2.8-3.9,2.9c-4,0.2-5.9-2.8-6.2-5.6c-0.4-3.2,1.4-5.2,3.7-6.9c0.8-0.6,1.6-1.6,2.9-1.2c0.5,0.1,1,0.2,1.4,0.6
			C91.3,90.8,92.7,92.9,92.4,95.8"/>
		<path d="M98.2,101.5c-1.5,1.4-2.3,3.3-2.7,5.4c-0.3,1.3,0.4,1.9,1.7,1.9c1.7,0,2.6-1.2,3.4-2.4c0.6-0.9,1.3-1.9,1.1-3.2
			c-0.1-0.6-0.3-1-1.1-1.1C99.8,102,99.1,101.8,98.2,101.5 M104.2,104.5c-0.5,2.5-1.2,4.5-2.9,6.2c-1.3,1.3-2.8,1.8-4.5,1.4
			c-2-0.5-3.1-1.9-3.6-3.8c-1-3.9,0.7-6.9,3.3-9.6c0.2-0.2,0.5-0.4,0.8-0.3c1.5,0.2,3.2,0.2,4.5,0.8
			C104,100.3,104.2,102.6,104.2,104.5"/>
		<path d="M110.8,92.6c-1.1,1.7-1.8,3.8-2,6.1c0,0.4,0.1,0.9,0.3,1.3c0.4,1.1,1.3,1.3,2.2,0.7c0.5-0.3,0.9-0.7,1.3-1.1
			c1.4-1.4,2.7-4.1,1.1-6.3C112.6,93,111.8,92.8,110.8,92.6 M116.9,97.3c-0.1,2.5-1.4,4.4-3.2,5.9c-2.2,1.9-5.2,1.1-6.7-1.6
			c-0.7-1.4-1.2-2.9-0.8-4.5c0.5-2,1-4.1,1.8-5.9c1.2-2.8,4.6-3.1,6.6-0.8C116.4,92.4,117,94.8,116.9,97.3"/>
		<path d="M126.8,105.4c-0.1-0.3-0.1-1-0.4-1.3c-0.6-0.8-3.2-0.8-3.8-0.1c-1.2,1.4-2.1,3-2.4,4.9c-0.1,0.8,0.2,1.4,1,1.6
			c0.7,0.1,1.4,0.2,2-0.1C125.2,109.5,126.4,107.9,126.8,105.4 M129.4,106.5c-0.1,1.7-0.9,3.2-1.7,4.6c-1.2,2.1-4.4,3-6.6,2.4
			c-1.7-0.4-3.5-2.8-3.6-4.9c-0.1-3,1.2-5.3,3.2-7.4c0.2-0.2,0.6-0.4,0.9-0.5c0.6-0.3,4.7-0.2,5.3,0.1c1.4,0.6,2.7,3.2,2.6,5
			C129.5,106,129.4,106.3,129.4,106.5"/>
		<path d="M134.9,95.7c-1.4,4-1.6,5.1-1,6.4c2.6-1.2,3.6-3.1,3-5.2C136.2,96.4,135.6,96,134.9,95.7 M131,99.2
			c0.6-2.2,1.1-4.4,1.8-6.6c0.3-1,0.9-1.1,1.9-0.7c0.5,0.3,1.1,0.5,1.7,0.7c1.4,0.3,2.1,1.5,2.7,2.6c1.4,2.7,1.2,6.9-2,9.1
			c-1.1,0.8-2.5,1.4-3.7,0.6c-0.9-0.7-1.6-1.8-2.1-2.8C130.9,101.2,131,100.2,131,99.2"/>
		<path d="M148.2,103.9c-0.5,0.3-1.2,0.4-1.6,0.8c-1.8,2-3.4,4.2-3.6,7.1c0,0.5,0.2,1.1,0.5,1.4c0.9,0.9,2.1,1.2,3.3,0.7
			c1.3-0.5,2.5-0.9,2.7-2.6C149.8,108.8,150.1,106.3,148.2,103.9 M152.5,111.9c-0.2,0.8-0.4,1.7-0.7,2.5c-1,2.2-2.8,3.1-5.1,2.9
			c-4.8-0.4-7-4.7-6-8.7c0.6-2.4,1.7-4.7,3.5-6.5c1.2-1.3,2.5-1.5,4.1-0.7c0.3,0.1,0.5,0.4,0.7,0.4c1.5,0,2,1.2,2.5,2.3
			C152.4,106.6,152.6,109.2,152.5,111.9"/>
		<path class="st1" d="M163.3,97c0-0.1,0.1-0.2,0.2-0.3c0.3-0.3,0.5-0.4,0.9-0.1c0.1,0.1,0.2,0.1,0.3,0.1c0.1,0,0.3,0.1,0.4,0.1
			c0.2,0.1,0.3,0.1,0.5,0.2c0.6,0.1,1.2,0,1.8-0.2c0.2,0,0.4-0.1,0.5-0.2c0.6-0.4,1.1-0.9,1.5-1.4c0-0.1,0.1-0.1,0.1-0.2
			c0.1-0.3,0.1-0.3-0.1-0.5c-0.3-0.2-0.7-0.5-1-0.7c-0.4-0.3-0.4-0.5,0-0.8c0.4-0.3,0.8-0.4,1.2-0.6c0.5-0.2,1-0.4,1.2-1
			c0,0,0.1-0.1,0.1-0.1c0.4-0.6,0.5-1.3,0.2-2c-0.3-0.7-0.7-1.4-1.2-2c-0.4-0.5-0.9-0.7-1.6-0.5c-0.3,0.1-0.7,0.1-1.1,0
			c-0.2,0-0.4-0.2-0.4-0.4c-0.1-0.2,0-0.4,0.2-0.5c0.1-0.1,0.1-0.1,0.2-0.2c0.2-0.5,0.2-1,0.1-1.6c-0.1-0.2-0.2-0.4-0.4-0.4
			c-0.6-0.2-1.2-0.1-1.6,0.3c-0.4,0.3-0.7,0.6-1,1c-0.2,0.2-0.4,0.5-0.6,0.8c0.2,0,0.4,0,0.6,0c-0.1,0.3-0.2,0.6-0.5,0.8
			c-0.3,0.2-0.5,0.6-0.9,0.7c-0.5,0.2-1.1,0.2-1.6-0.2c-0.1-0.1-0.1-0.2-0.1-0.4c0.2-0.6,0.2-0.6-0.4-0.9c0,0-0.1,0-0.1,0
			c-0.3,0.1-0.5,0.3-0.6,0.7c0.2,0.2,0.3,0.5,0.3,0.8c0,0.2-0.1,0.3-0.2,0.3c-0.4,0.1-0.8,0.1-1.2,0c-0.2-0.1-0.3-0.2-0.5-0.3
			c-0.4-0.3-0.9-0.4-1.4-0.1c-0.3,0.1-0.5,0.4-0.7,0.7c-0.2,0.4-0.5,0.8-0.7,1.2c-0.2,0.3-0.3,0.7-0.4,1.1c-0.2,0.7-0.2,1.4-0.1,2.1
			c0,0.1,0.1,0.2,0.1,0.3c0.2,0,0.4,0,0.6,0c0.2,0,0.4,0.2,0.7,0.1c0.3,0,0.4,0.1,0.5,0.3c0.1,0.2,0.1,0.4-0.2,0.6
			c-0.1,0-0.1,0.1-0.1,0.2c0,0.3-0.2,0.6-0.1,0.9c0,0.1,0,0.2,0,0.2c0,0.2-0.1,0.5,0,0.7c0.2,0.8,0.2,1,1.1,0.9
			c0.1,0,0.2-0.1,0.3-0.1c0.1,0,0.1-0.1,0.2-0.1c0.3,0,0.7,0,1,0.1c0.4,0.1,0.6,0.3,0.8,0.6c0.2,0.4,0.4,0.7,0.6,1
			c0.2,0.3,0.5,0.6,0.8,0.6c0.4,0,0.8,0.1,1.1,0.1c0.5,0,1-0.7,0.9-1.2C163.4,97.3,163.3,97.2,163.3,97 M169.1,85.7
			c0.3,0.1,0.6,0.3,0.9,0.3c0.6,0.1,1,0.5,1.3,0.9c0.1,0.1,0.2,0.2,0.4,0.3c0,0,0.1,0.1,0.1,0.1c0.3,0.6,0.8,1.1,0.9,1.8
			c0.1,0.2,0.1,0.4,0.4,0.5c0,0.1-0.1,0.2-0.1,0.3c0.1,0.4,0,0.8-0.1,1.1c-0.2,0.5-0.5,1-0.9,1.3c-0.5,0.5-1,0.8-1.6,1.1
			c-0.1,0-0.1,0.1-0.2,0.1c0.1,0.1,0.2,0.1,0.2,0.2c0.2,0.2,0.5,0.4,0.7,0.6c0.2,0.2,0.3,0.5,0.2,0.8c-0.1,0.4-0.3,0.7-0.6,1
			c-1,1.1-2.2,1.8-3.6,2.1c-0.3,0.1-0.7,0-1.1,0c-0.1,0-0.1,0-0.2,0c-0.2,0-0.5-0.1-0.6,0c-0.1,0.1-0.2,0.3-0.3,0.5
			c-0.2,0.5-0.5,0.7-0.9,1c-0.2,0.1-0.4,0.2-0.6,0.2c-1.1,0.2-2.2,0.1-3.2-0.3c-0.7-0.3-1.2-0.8-1.6-1.4c-0.2-0.3-0.3-0.5-0.7-0.4
			c-0.6,0-1.3-0.1-1.9-0.3c-0.2-0.1-0.5-0.2-0.6-0.3c-0.2-0.2-0.3-0.4-0.4-0.6c-0.2-0.4-0.3-0.8-0.3-1.3c0-0.4,0-0.8,0-1.2
			c-0.3-0.1-0.5-0.3-0.8-0.4c0,0-0.1,0-0.1-0.1c-0.2-0.2-0.4-0.5-0.5-0.8c-0.2-0.6-0.3-1.1-0.1-1.7c0.1-0.2,0.2-0.4,0.3-0.6
			c-0.3-0.4,0-0.8,0.1-1.2c0.3-0.7,0.7-1.4,1.1-2c0.4-0.5,0.8-0.9,1.5-1.1c0.5-0.2,1.1-0.2,1.6-0.1c0.2,0,0.3,0,0.4-0.2
			c0.2-0.2,0.4-0.4,0.6-0.7c0.1-0.1,0.1-0.1,0.2-0.1c0.1,0,0.2,0,0.2-0.1c0.2-0.3,0.4-0.3,0.7-0.4c0.2,0,0.3,0,0.4,0
			c0.2,0,0.5,0,0.7,0.1c0.4,0.1,0.8,0.2,1.1,0.3c0.3-0.4,0.6-0.9,1.1-1.1c0,0,0.1-0.1,0.1-0.1c0.5-0.6,1.1-0.8,1.8-1
			c0.4-0.1,0.9-0.1,1.3-0.1c0.5,0,1,0.1,1.5,0.3c0.6,0.1,0.9,0.5,1,1c0.1,0.4,0.2,0.9,0,1.4C169.1,85.3,169.2,85.5,169.1,85.7"/>
		<path class="st1" d="M157.7,102.1c0,0.2,0.1,0.2,0.4,0.3c0.2,0,0.3,0,0.4-0.1c0.2-0.2,0.2-0.2-0.1-0.4c0,0-0.1,0-0.1-0.1
			c-0.1-0.1-0.2-0.2-0.4-0.1c-0.2,0-0.2,0.1-0.2,0.2C157.7,102,157.7,102,157.7,102.1 M156.2,101.5c-0.2-0.2,0.2-0.3,0.4-0.4
			c0.2-0.1,0.5-0.1,0.7-0.2c0,0,0-0.1,0-0.1c0-0.1,0-0.2,0.2-0.2c0.2-0.1,0.3-0.1,0.5-0.2c0.1,0,0.2-0.1,0.3-0.1c0.3,0,0.6,0,1,0
			c0.3,0,0.5,0.1,0.6,0.3c0.1,0.1,0.2,0.3,0.3,0.4c0.1,0.1,0.2,0.2,0.3,0.3c0.3,0.2,0.5,0.3,0.4,0.6c-0.1,0.2-0.1,0.3-0.2,0.5
			c-0.1,0.3-0.5,0.5-0.9,0.6c-0.4,0.1-0.7,0.2-1.1,0.2c-0.3,0-0.6-0.1-0.9-0.2c-0.6-0.1-1.1-0.4-1.5-0.7c-0.3-0.2-0.3-0.6-0.1-0.8
			C156,101.6,156.1,101.6,156.2,101.5"/>
		<path class="st1" d="M73,84c-0.1,0.1-0.1,0.2-0.2,0.2c-0.1,0.1-0.2,0.2,0,0.4c0.2,0.2,0.3,0.4,0.2,0.7c0,0.3,0,0.5,0,0.8
			c0,0.1,0,0.2,0,0.2c0.6,0.1,0.7,0.1,0.8-0.5c0-0.1,0-0.1,0-0.2c0-0.2-0.1-0.5,0-0.7c0.2-0.4,0-0.7-0.1-1C73.4,84,73.2,84,73,84
			 M72.3,80.3c-0.3,0-0.4,0-0.6,0c-0.2,0-0.4-0.1-0.5-0.2c-0.1-0.2-0.1-0.5,0.1-0.5c0.2-0.1,0.5-0.2,0.7-0.3c0.5-0.2,1.1-0.1,1.6,0
			c0.5,0.1,1,0.3,1.3,0.6c-0.1,0.2-0.2,0.3-0.4,0.3c-0.1,0-0.3,0-0.4,0c-0.1,0-0.2,0.1-0.2,0.2c0,0.2,0,0.4-0.1,0.6c0,0.5,0,1,0,1.5
			c0,0.2-0.1,0.5,0.1,0.7c0.2,0,0.4-0.1,0.6-0.1c0.6,0,1-0.2,1.5-0.5c0.1,0,0.1-0.1,0.1-0.2c0.2-0.4,0.5-0.8,0.7-1.3
			c0.3-0.7,0.4-1.4,0.5-2.1c0-0.1,0-0.1,0-0.2c-0.1-0.6-0.1-1.2-0.4-1.7c-0.1-0.2-0.2-0.5-0.5-0.5c-0.1-0.2-0.1-0.4-0.2-0.5
			c-0.2-0.2-0.4-0.5-0.7-0.7c-0.4-0.3-0.6-0.3-1,0c-0.1,0.1-0.3,0.1-0.4,0.1c-0.2,0-0.4,0-0.6,0c-0.1,0-0.3,0-0.4,0
			c-0.3-0.1-0.5-0.1-0.8,0.1c-0.2,0.2-0.5,0.3-0.7,0.4c-0.3,0.1-0.5,0.2-0.8,0.3c-0.3,0.2-0.6,0.3-0.8,0.6c-0.6,0.8-1,1.7-0.9,2.8
			c0,0.2,0,0.4,0,0.5c0.1,0.6,0.1,1.2,0.5,1.8c0.1,0.1,0.2,0.2,0.2,0.4c0.2,0.4,0.6,0.6,1.1,0.6c0.4,0,0.9,0,1.3,0.2
			c0-0.3,0-0.5,0-0.7c-0.1-0.6-0.2-1.2,0.1-1.9C72.3,80.7,72.2,80.6,72.3,80.3 M78.4,82.6c-0.1,0-0.2,0-0.3,0
			c-0.2,0.2-0.3,0.5-0.5,0.7c-0.4,0.5-1,0.8-1.6,0.9c-0.2,0-0.3,0.2-0.3,0.4c0,0.7-0.1,1.5-0.1,2.2c0,0.2,0,0.3-0.1,0.5
			c-0.1,0.4-0.4,0.6-0.8,0.5c-0.2,0-0.4,0-0.6,0.1c-0.1,0.1-0.4,0.2-0.5,0.2c-0.2,0.1-0.5,0.2-0.7,0.4c-0.6,0.4-1.2,0.2-1.5-0.5
			c0-0.1-0.2-0.2-0.3-0.3c0.2,0,0.4,0,0.5-0.3c0,0,0.1,0,0.2-0.1c0.1,0,0.2-0.1,0.4-0.2c-0.2-0.1-0.3-0.1-0.4-0.1
			c-0.2,0-0.3-0.1-0.5-0.1c-0.4-0.1-0.4-0.3-0.4-0.7c0.1-0.4,0.2-0.8,0.3-1.2c-0.1-0.1-0.1-0.1-0.2-0.2c-0.1-0.1-0.2-0.2-0.2-0.4
			c0-0.4-0.2-0.5-0.6-0.6c-0.3-0.1-0.5-0.1-0.8-0.2c-0.4-0.1-0.8-0.4-1-0.8c0,0,0-0.1,0-0.1c-0.4-0.3-0.6-0.9-0.9-1.3
			c-0.1-0.1-0.1-0.2-0.1-0.4c0-0.4,0-0.8,0-1.3c0-0.2,0-0.4,0-0.6c-0.1-0.5,0-0.9,0.2-1.3c0.2-0.5,0.4-1,0.6-1.4
			c0.2-0.4,0.6-0.8,1-1c0.1,0,0.2-0.1,0.2-0.2c0.1,0,0.1-0.1,0.2-0.1c0.3-0.1,0.5-0.2,0.8-0.3c0.3-0.1,0.5-0.2,0.7-0.5
			c0.1-0.1,0.2-0.2,0.3-0.2c0.5-0.4,1-0.3,1.5-0.1c0.4,0.1,0.7,0.2,1.1,0c0.4-0.2,0.9-0.1,1.3,0c0.4,0,0.7,0.1,1.1,0.3
			c0.6,0.3,1.1,0.6,1.5,1.1c0.5,0.6,0.9,1.3,1.2,2c0.2,0.5,0.3,1.1,0.2,1.7c0,0.8-0.3,1.6-0.6,2.4C78.5,82,78.4,82.3,78.4,82.6"/>
		<path class="st1" d="M71.7,91.4c0.1-0.1,0.2-0.3,0.4-0.4c-0.1,0-0.2-0.1-0.2-0.1c-0.3,0-0.4-0.3-0.4-0.5c0-0.2-0.1-0.5,0.2-0.7
			c0.1-0.1,0.2-0.1,0.3-0.2c0.3-0.1,0.6-0.3,0.8-0.5c0.4-0.4,0.9-0.3,1.4-0.1c0.1,0,0.2,0.1,0.4,0.2c0,0.1,0.1,0.2,0.1,0.4
			c0,0.2-0.1,0.4-0.3,0.5c-0.3,0.1-0.6,0.3-0.9,0.4c-0.2,0.1-0.4,0.1-0.6,0.2c0.2,0.1,0.2,0.1,0.3,0.1c0.4,0,0.8,0.3,1.1,0.4
			c0.1,0.1,0.2,0.3,0.2,0.4c0,0.1-0.2,0.2-0.3,0.2c-0.4,0.1-0.8,0.3-1.3,0.2c-0.3,0-0.6,0-0.7-0.3C72,91.7,71.9,91.6,71.7,91.4"/>
	</g>
</g>
<g id="Fleches">
	<path class="st0" d="M243.9,76.4c-0.2,0-0.4,0.1-0.6,0.1c0.1,0.1,0.1,0.1,0.2,0.2c0.1,0,0.4,0.1,0.3,0.3c0,0.1-0.1,0.3-0.2,0.4
		c-0.3,0.3-0.7,0.2-1,0.1s-0.6-0.2-0.9-0.4c0.1-0.3,0.2-0.5,0.3-0.8c-0.1,0-0.1-0.1-0.3-0.1c0-0.1,0-0.3,0.1-0.4
		c0.3-0.4,0.4-0.9,0.7-1.3s0.6-0.9,0.9-1.3c0.7-0.9,1.3-1.8,2-2.6c0.4-0.5,1-1.1,1.4-1.6c0.5-0.6,1.1-1.3,1.6-1.9
		c0.2-0.2,0.5-0.4,0.7-0.6c0.3-0.3,0.5-0.5,0.7-0.8c0.1-0.1,0.1-0.3,0.1-0.5c0-0.1,0-0.3,0-0.5c-0.1-0.1-0.2-0.2-0.4-0.4
		c-0.1-0.2-0.3-0.4-0.4-0.4c-0.3-0.1-0.4-0.4-0.4-0.6c0-0.4-0.2-0.7-0.4-0.9c-0.5-0.5-0.8-1.1-1-1.7c-0.1-0.3-0.2-0.7-0.4-1
		c0-0.1-0.2-0.2-0.3-0.2c-0.3-0.4-0.7-0.8-0.7-1.4c0-0.1-0.1-0.1-0.2-0.2c-0.1-0.1-0.1-0.1-0.1-0.2c0-0.5-0.3-0.9-0.7-1.2
		c-0.1-0.1-0.2-0.2-0.2-0.3c-0.3-0.7-0.7-1.5-0.9-2.2c-0.2-0.8-0.6-1.5-0.6-2.3c0-0.5,0.1-0.6,0.6-0.7c0.4,0,0.7,0,1.1,0
		c0.1,0,0.1,0,0.1,0.1c0.2,0.3,0.5,0.7,0.5,1s0.1,0.5,0.3,0.7c-0.1,0.1-0.1,0.2-0.2,0.4c0,0,0,0,0.1,0c0.1,0.1,0.2,0.1,0.3,0.2
		c0.2,0.6,0.4,1.2,0.8,1.8c0.2,0.4,0.3,0.8,0.5,1.2c0.4,0.9,0.8,1.8,1.3,2.6c0.2,0.3,0.3,0.6,0.4,0.9c0.1,0.2,0.3,0.4,0.4,0.7
		c0.3,0.4,0.5,1,0.8,1.3c0.4,0.4,0.4,0.9,0.8,1.2c0,0.3,0.2,0.5,0.4,0.7c0.2,0.3,0,0.5-0.1,0.7c0.3,0.2,0.7,0.4,0.9,0.6
		c0.1,0.1,0.2,0.3,0.2,0.4c-0.2,0.5-0.4,1.1-0.8,1.4c-0.1,0.1-0.2,0.1-0.2,0.2c-0.2,0.2-0.4,0.5-0.7,0.7c-0.2,0.2-0.6,0.4-0.7,0.8
		c0,0.1-0.2,0.3-0.3,0.4c-0.6,0.6-1.2,1.2-1.7,1.8c-0.4,0.5-0.8,1.1-1.3,1.6c-0.6,0.6-1.1,1.4-1.6,2.1c-0.4,0.5-0.7,1.1-1.1,1.7
		c-0.1,0.1-0.1,0.3-0.2,0.3C243.8,76,244,76.2,243.9,76.4"/>
	<path class="st0" d="M489.5,75.2c0.2-0.6,0.4-1.3,0.7-1.8c0.4-0.6,0.6-1.5,0.9-2.4c0.3-1.1,0.7-2.2,1-3.3c0.4-1.1,0.7-2.1,1.1-3.2
		c0.4-1.2,0.8-2.5,1.1-3.8c0.3-0.9,0.6-1.7,0.8-2.7c0.2-0.8,0.4-1.8,0.8-2.4c0-0.1,0.1-0.3,0.1-0.4c0.1-0.3,0.2-0.7,0.3-1.1
		c0-0.1-0.1-0.3-0.1-0.5c0.2-0.4,0.5-0.8,0.7-1.3c0.2-0.6,0.5-0.8,0.8-0.9c0.1,0,0.3,0.1,0.4,0.1c0.5,0.1,0.8,1.4,0.5,2.4
		c-0.2,0.6-0.4,1.2-0.6,1.8c-0.4,1.4-0.9,2.8-1.3,4.2c-0.4,1.3-0.7,2.6-1.2,3.8c-0.6,1.7-1.1,3.6-1.7,5.3c-0.3,0.9-0.6,1.9-0.9,2.8
		c-0.2,0.6-0.4,1.2-0.7,1.8c-0.2,0.5-0.3,0.9-0.5,1.5c0,0,0,0.1,0,0.1c-0.1,0.2-0.2,0.5-0.3,0.8c-0.1,0.2-0.2,0.3-0.3,0.5
		c-0.3,0.5-0.4,1.1-0.6,1.8c-0.1,0.1-0.1,0.1-0.2,0.2c-0.3-0.9-0.6-1.8-0.9-2.7C489.4,75.7,489.4,75.3,489.5,75.2"/>
	<g>
		<line class="st2" x1="0" y1="0" x2="740" y2="0"/>
	</g>
</g>
<g id="Reperes">
</g>
</svg>
