<?xml version="1.0" encoding="utf-8"?>
<!-- Generator: Adobe Illustrator 27.3.1, SVG Export Plug-In . SVG Version: 6.00 Build 0)  -->
<svg xmlns="http://www.w3.org/2000/svg" xmlns:xlink="http://www.w3.org/1999/xlink" version="1.1" x="0px" y="0px" viewBox="0 0 740 130" style="enable-background:new 0 0 740 130;" xml:space="preserve">
<style type="text/css">
	.st0{fill:#269973;}
	.st1{fill:#1D1D1B;}
	.st2{fill:#33CC99;}
	.st3{fill-rule:evenodd;clip-rule:evenodd;fill:#FFFFFF;}
</style>
<g id="Vignettes">
	<g id="_x34_">
		<path class="st0" d="M629.9,41.7c-0.3,0.1-0.6,0.1-0.9,0.1c-0.7,0.1-1.1,0.5-1.2,1.2c-0.1,0.8,0.1,1.4,0.7,1.9    c0.7,0.5,1.5,1.1,2.2,1.7c2.5,2.2,4.8,4.5,6.9,7.1c0.5,0.6,1,1.1,1.5,1.6c1-0.2,1.7-0.8,2.3-1.6c1.4-1.9,2.8-3.8,4.2-5.7    c0.2-0.2,0.4-0.4,0.9-0.9c0.3,5.1,0.8,9.8,0.9,14.5c0.6,0.6,1.1,0.3,1.6-0.1c0.5-0.4,0.9-0.9,0.8-1.7c-0.1-2-0.2-4.1-0.3-6.1    c-0.1-2.4-0.3-4.7-0.3-7.2c2.9,3.7,5.3,7.9,7.8,12.1c1-0.1,1.9-0.2,2.8-0.3c0.6-0.1,1-0.5,1.2-1.1c0.3-1-0.1-1.7-0.9-1.6    c-1.4,0.1-1.9-0.7-2.4-2c-0.2-0.7-0.7-1.2-1.1-1.8c-1.6-2.3-3.1-4.7-4.7-7c-0.7-1.1-1.4-2.3-2.1-3.5c-0.6-1.1-1.5-1-2.3-1    c-0.7,0.1-1.4,1.2-1.2,2.3c0.2,1.3-0.4,2.1-0.9,2.9c-1.2,1.7-2.5,3.4-3.7,5.1c-0.9,1.3-1.3,1.3-2.4,0.2c-2.4-2.3-4.7-4.6-7.1-7    C631.3,43.2,630.7,42.5,629.9,41.7"/>
		<path class="st1" d="M636.8,75.8c1-0.1,1.9-0.3,2.9-0.3c3.1,0.2,6.2,0.5,9.3,0.7c1.7,0.1,3.5-0.1,5.2-0.1c1.1,0,2.2,0,3.5,0    c0.2,2.3,0.3,4.3,0.5,6.3c0.1,0.7,0.1,1.3,0.3,2c0.3,0.8,1,1,1.5,0.3c0.6-0.9,0.8-1.9,0.5-3.1c-0.4-1.6-0.5-3.2-0.4-5    c1.3,0,2.3-0.6,3.5-0.4c0.8,0.1,1.7-1.5,1.4-2.5c0-0.2-0.1-0.4-0.2-0.4c-0.8-0.3-1.7-0.9-2.3-0.7c-1.3,0.4-2.5,0.2-3.8,0.2    c-2.3,0-4.6,0.2-7,0.1c-3.1-0.1-6.1-0.5-9.2-0.7c-2.5-0.1-4.9,0-7.4,0c-1.2,0-2.5-0.2-3.7-0.3c-1.1-0.1-1.8,0.4-2.1,1.6    c-0.2,1,0.1,1.5,1,1.7c0.9,0.2,1.9,0.3,2.8,0.4c0.7,0.1,1,0.3,1,1.1c-0.1,2-0.1,4.1-0.2,6.1c0,1,0,2.1,0.1,3.1    c0,0.4,0.4,0.8,0.7,1c0.2,0.1,0.7-0.2,0.9-0.4c0.8-0.9,1.1-1.8,1-3.2C636.5,80.9,636.7,78.5,636.8,75.8"/>
		<path class="st0" d="M648.8,28.8c-0.4,1.5-0.6,2.9-1.1,4.4c-0.4,1.1-1,1.2-1.7,0.5c-0.6-0.5-1.2-1.1-1.5-2c-0.7-2.2-1-4.4-0.8-6.7    c0.1-0.9,0.1-1.9,0.3-2.7c0.1-0.5,0.6-1.1,1.1-1.3c0.3-0.1,0.8,0.5,1.1,0.9c0.2,0.3,0.4,0.7,0.5,1.1    C647.2,24.7,648.7,28.7,648.8,28.8 M651.1,22.5c-0.1-1.4-0.3-2.8-1.4-3.6c-0.2-0.2-0.6-0.5-0.8-0.4c-0.9,0.5-1.7-0.2-2.5-0.4    c-1.5-0.3-2.5,0.8-3.4,2c-0.3,0.5-0.6,1.1-0.7,1.7c-1.1,4.4-1.2,8.6,0.6,12.8c1.1,2.4,3.2,3,5.1,1.3c1.3-1.1,1.9-2.7,2.3-4.4    C651,28.5,651.2,25.5,651.1,22.5"/>
		<path class="st1" d="M609,63.4c-0.5-2.8-0.7-5.6-0.5-8.4c0-0.6,0.2-1.3,0.3-1.9c0-0.2,0.1-0.6,0.2-0.6c0.7-0.3,1.1-1,1.6-1.7    c0.1-0.2,0.4-0.1,0.6,0c0.2,0.2,0.5,0.4,0.6,0.7c0.7,2.2,1.5,4.4,1.7,7c0.1,1.5,0.1,3.1,0.1,4.6c0,0.5-0.1,1-0.2,1.4    c-0.3,1.3-1,2.1-1.8,1.5c-0.6-0.4-1.1-0.3-1.5,0.1C609.5,65.3,609.2,64.4,609,63.4 M615.7,56.3c-0.3-3.6-1.4-6.3-3.4-8    c-1.9-1.6-4-1.3-5,2.5c-0.5,2.1-0.9,4.3-0.8,6.6c0.1,2.3,0.1,4.7,0.7,6.9c0.4,1.4,0.8,2.9,1.7,3.7c1.6,1.6,3.4,1.9,5.1,0.5    c0.8-0.6,1.4-1.5,1.5-2.8c0.2-1.2,0.2-2.4,0.3-3.6c0.1-0.9,0.2-1.7,0.3-3.1C615.7,58.4,615.7,57.3,615.7,56.3"/>
		<path class="st1" d="M682.3,52.3c0.5,0.1,0.7,0.5,0.9,0.9c1,2.4,1.4,5,0.9,7.6c-0.1,0.5-0.1,1.1-0.2,1.6c-0.3,2.1-1.2,3.6-2.9,4.6    c-1.4,0.8-2.4,0.4-3-1.2c-0.5-1.3-0.6-2.8-0.6-4.2c0-3.4,0.8-6.7,2.2-9.7c0.2-0.5,0.4-1,1.1-1.2C681,51.6,681.6,52.1,682.3,52.3     M676.5,66.7c0.7,2,2.6,3.2,4.4,2.6c2.5-0.7,4.3-2.4,4.8-5.5c0.1-0.6,0.2-1.3,0.3-1.9c0.5-3.2,0.3-6.4-1-9.4    c-0.2-0.5-0.5-1-0.9-1.4c-0.7-0.8-1.4-1.5-2.2-2.3c-0.2-0.2-0.5-0.3-0.7-0.3c-1-0.1-2,0.1-2.6,1.1c-0.4,0.6-0.9,1.3-1.2,2.1    c-0.9,2.8-1.6,5.6-1.8,8.7C675.4,62.5,675.7,64.6,676.5,66.7"/>
		<path class="st1" d="M683,81c0,0.6-0.1,1.1-0.1,1.6c0.1,2.5,0.3,5,0.5,7.5c0,0.8,0.2,1.5,0.6,2.2c0.4,0.6,0.5,1.1,0.2,1.8    c-0.1,0.2,0,0.5,0,0.9c1.6-0.5,3-0.9,4.4-1.4c1.4-0.5,2.8-0.9,4.2-1.6C690.3,88.8,684.1,81.9,683,81 M695.7,94.3    c-0.3,0.1-0.6,0.2-0.9,0.3c-3.4,0.8-6.7,1.8-10,2.9c-0.4,0.1-0.7,0.4-1.1,0.5c-0.2,1.8-0.1,3.5,0.1,5.1c0.1,0.7,0.1,1.4,0,2.2    h-3.5c0-0.2,0-0.4,0-0.6c0-1.5,0.4-2.9,0.5-4.4c0.1-0.5,0.3-1,0-1.6c-0.8,0-1.7,0.3-2.5,0.6c-1.1,0.4-2.2,0.4-3.3,1    c-0.6,0.3-1.3-0.2-1.8-0.7c-0.5-0.5-0.7-1.2-0.3-2.1c0.6-0.3,1.4-0.8,2.2-0.2c0.2,0.1,0.4,0.1,0.6,0.1c1.7-0.4,3.5-0.5,5.2-1.4    c0-0.3,0-0.7,0-1c0-0.3-0.1-0.6,0-0.9c0.6-1.6,0.6-3.3,0.5-5c-0.2-2.5-0.2-5.1-0.3-7.7c0-0.5,0-1-0.3-1.5    c-0.1,0.1-0.3,0.1-0.3,0.2c-1.1,1.6-2.1,3.2-3.1,4.9c-0.2,0.4-0.5,0.8-0.8,1.1c-1,1.1-1.9,2.3-2.7,3.7c-0.5,0.8-1,0.9-1.7,0.5    c-0.7-0.5-1.2-0.8-1-2.1c0.2-1.6,0.2-3.2,0.2-4.8c-0.1-3-0.2-6,0.2-8.9c0.1-0.9,0-1.7-0.4-2.6c-0.4-0.7-0.6-1.5-0.8-2.3    c-0.1-0.3-0.1-0.6-0.2-0.9c0-0.6,0.3-1.1,0.7-1.2c0.5-0.1,1,0.1,1.2,0.6c0.1,0.3,0.2,0.7,0.3,1c0.2,0.6,0.5,1.2,0.9,1.6    c0.4,0.3,0.7,0.8,0.9,1.2c0.4,0.8,0.4,1-0.2,1.9c-0.1,0.2-0.3,0.5-0.3,0.8c-0.2,1.6-0.5,3.3-0.4,4.9c0.1,1.4,0.1,2.9,0.1,4.3    c0,0.6,0.1,1.3,0.2,2.1c0.4-0.3,0.7-0.4,0.9-0.6c1-1.3,2.2-2.6,2.9-4.2c0.1-0.3,0.3-0.6,0.5-0.9c0.8-1.3,1.4-2.6,1.7-4.1    c0.2-0.9,0.9-1.4,1.7-1.4c0.8,0,1.6,0.6,1.6,1.6c0.1,1,0.6,1.7,1.1,2.5c1.3,1.9,2.7,3.5,4.2,5.2c0.7,0.8,1.4,1.6,2.1,2.4    c1.6,2.1,3.3,3.9,5.2,5.5c0.2,0.2,0.5,0.4,0.7,0.7C696.7,92.9,696.4,93.9,695.7,94.3"/>
		<path class="st1" d="M612.7,81.8c0,0,0.1,0,0.1-0.1c0-0.1,0-0.1-0.1-0.2c0,0-0.1,0-0.1,0C612.6,81.6,612.7,81.7,612.7,81.8     M597.6,91c0.1-0.3,0.3-0.5,0.4-0.7c0.5-0.8,1.1-1.5,1.6-2.2c1.1-1.5,2.2-2.8,3.5-3.9c1.9-1.5,3.6-3.4,5.4-5.1    c0.5-0.5,0.9-1.1,1.3-1.7c0.4-0.7,0.9-1,1.5-1.2c0.8-0.2,1.4,0.1,1.9,1.2c0.3,0.8,0.7,1.6,1,2.5c1.2,3.5,3,6.1,4.9,8.6    c0,0,0.1,0,0.2,0c0.3-0.6,0.3-1.3,0.3-2c0-3.5-0.3-7-1.2-10.3c-0.1-0.4-0.2-0.8-0.3-1.1c-0.7-1.7-0.3-3.3,0-4.9    c0.1-0.5,0.3-0.8,0.7-0.8c0.3,0,0.6,0.3,0.7,0.8c0.1,0.5,0.2,0.9,0.3,1.4c0.5,3.5,1.1,6.9,1.6,10.4c0.2,1.9,0.2,3.9,0.3,5.8    c0,1.1,0.1,2.3,0.1,3.4c0,0.8-0.3,1.4-0.8,1.5c-0.6,0.2-1.2,0-1.7-0.7c-1.9-2.5-3.8-5-5.3-8.2c-0.2-0.4-0.4-0.7-0.7-1.1    c-0.6,0.6-0.5,1.3-0.5,1.9c0.1,1.4,0.3,2.7,0,4.1c0,0.1,0,0.3,0,0.5c0.3,4.3,0.5,8.6,0.8,12.9c0.1,1.1,0.2,2.1,0.3,3.2h-2    c-0.1-0.8-0.2-1.6-0.3-2.5c0-0.1-0.1-0.2-0.3-0.5c0,1-0.1,2-0.2,3h-1.8c0.1-2.5,0.3-5,0.4-7.5c0.1-1.5,0.1-3.1,0.1-4.6    c0.1-2.9,0.2-5.9,0.2-8.8c0-0.3,0-0.6,0-1.1c-0.5-0.3-0.9-0.6-1.4-0.8c-1.6,1.1-7.2,6.1-7.9,7.2c-0.1,0.2-0.2,0.5-0.3,0.8    c0.4,0.5,0.9,0.4,1.2,0.3c1.8-0.1,3.4,1,5.1,1.7c0.2,0.1,0.5,0.4,0.7,0.6c0.7,0.7,0.8,1.9,0.1,2.8c-0.2,0.3-0.5,0.7-0.8,0.8    c-0.9,0.5-1.7,0.9-2.2,2.3c-0.2,0.7-1,0.4-1.2-0.5c-0.2-0.9-0.3-1.7,0-2.6c0.2-0.6,0.4-1.1,0.6-1.6c-0.1-0.6-0.4-0.5-0.6-0.6    c-1.5-0.6-2.9-0.9-4.4-0.7c-0.5,0-0.9,0.1-1.3-0.4C597.4,92.1,597.3,91.5,597.6,91"/>
		<path class="st1" d="M694.8,45.9c1.4-2.1,2.2-4.5,3.1-6.9c0.4-1,0.7-2,1-3.1c0.2-0.6,0.3-1.2,0.4-1.8c0.1-0.7-0.3-1.3-0.9-1.5    c-1.7-0.4-2.7-1.8-3.3-3.5c-0.8-2.3-1-4.6-0.4-7c0.3-1.4,0.8-2.8,1.4-4.1c0.9-1.8,1.9-3.5,3.2-4.9c1.7-1.8,3.6-3,5.8-3.7    c1.3-0.4,2.7-0.7,4-0.6c2.3,0.3,4.3,1.5,5.8,3.5c0.4,0.5,0.7,1.2,0.9,1.8c0.4,1.1,0.8,2.3,1,3.5c0,0.4,0.1,0.8,0.2,1.2    c0.4,2.1,0.5,4.2,0,6.4c-0.3,1.1-0.7,2-1.3,2.9c-1.2,2.1-2.7,4.1-4.4,5.6c-1.2,1-2.5,1.7-4,1.6c-1,0-2,0.4-3,0.7    c-0.6,0.2-1.1,0.5-1.8,0.4c-0.4,0-0.7,0.2-0.8,0.7c-0.3,1.3-1.1,2.4-1.8,3.5c-0.6,1-1.3,1.8-2,2.7c-0.1,0.2-0.3,0.3-0.4,0.4    c-1.1,0.5-2,1.4-2.8,2.4c0,0-0.1,0-0.3,0C694.7,46.2,694.7,46.1,694.8,45.9 M705,38.1c0.9-0.4,1.9-0.6,2.9-0.6    c1.8,0,3.4-0.9,4.8-2.1c2.1-1.9,3.8-4.3,5.2-6.9c1-1.9,1.4-3.9,1.2-6c-0.2-2.8-0.6-5.5-1.6-8.1c-0.3-0.9-0.7-1.8-1.3-2.6    c-1.1-1.6-2.5-2.6-4.1-3.5c-0.8-0.4-1.5-0.7-2.4-0.7c-0.5,0-1.1-0.1-1.6-0.1c-0.7,0-1.4,0-2,0.2c-1.3,0.4-2.7,0.7-3.9,1.4    c-2,1-3.8,2.5-5.4,4.3c-0.5,0.6-0.9,1.4-1.4,2.1c-0.5,0.8-0.9,1.7-1.4,2.6c-0.8,1.5-1.1,3.3-1.5,5c-0.2,1.1-0.2,2.3-0.1,3.4    c0.1,0.9,0.3,1.7,0.5,2.5c0.3,1.2,0.7,2.4,1.5,3.2c0.8,0.8,1.6,1.5,2.5,2.3c0.2,0.2,0.3,0.3,0.5,0.4c-0.3,0.6-0.5,1.2-0.7,1.7    c-0.3,0.8-0.5,1.5-0.8,2.3c-0.7,1.6-1.4,3.2-2.2,4.7c-0.8,1.6-1.9,2.8-3,4.1c-0.4,0.5-0.8,0.9-1,1.5c0.1,0.7,0.2,1.3,0.3,2    c0.2,1,0.9,1.2,1.5,0.5c0.2-0.2,0.4-0.5,0.6-0.6c1.6-1.2,3.1-2.6,4.6-4.1c1.5-1.5,2.9-3.1,4-5c0.7-1.1,1.6-2,2-3.5    C703.7,38.7,704.4,38.4,705,38.1"/>
		<path class="st1" d="M694.8,45.9c1.4-2.1,2.2-4.5,3.1-6.9c0.4-1,0.7-2,1-3.1c0.2-0.6,0.3-1.2,0.4-1.8c0.1-0.7-0.3-1.3-0.9-1.5    c-1.7-0.4-2.7-1.8-3.3-3.5c-0.8-2.3-1-4.6-0.4-7c0.3-1.4,0.8-2.8,1.4-4.1c0.9-1.8,1.9-3.5,3.2-4.9c1.7-1.8,3.6-3,5.8-3.7    c1.3-0.4,2.7-0.7,4-0.6c2.3,0.3,4.3,1.5,5.8,3.5c0.4,0.5,0.7,1.2,0.9,1.8c0.4,1.1,0.8,2.3,1,3.5c0,0.4,0.1,0.8,0.2,1.2    c0.4,2.1,0.5,4.2,0,6.4c-0.3,1.1-0.7,2-1.3,2.9c-1.2,2.1-2.7,4.1-4.4,5.6c-1.2,1-2.5,1.7-4,1.6c-1,0-2,0.4-3,0.7    c-0.6,0.2-1.1,0.5-1.8,0.4c-0.4,0-0.7,0.2-0.8,0.7c-0.3,1.3-1.1,2.4-1.8,3.5c-0.6,1-1.3,1.8-2,2.7c-0.1,0.2-0.3,0.3-0.4,0.4    c-1.1,0.5-2,1.4-2.8,2.4c0,0-0.1,0-0.3,0C694.7,46.2,694.7,46.1,694.8,45.9z M705,38.1c0.9-0.4,1.9-0.6,2.9-0.6    c1.8,0,3.4-0.9,4.8-2.1c2.1-1.9,3.8-4.3,5.2-6.9c1-1.9,1.4-3.9,1.2-6c-0.2-2.8-0.6-5.5-1.6-8.1c-0.3-0.9-0.7-1.8-1.3-2.6    c-1.1-1.6-2.5-2.6-4.1-3.5c-0.8-0.4-1.5-0.7-2.4-0.7c-0.5,0-1.1-0.1-1.6-0.1c-0.7,0-1.4,0-2,0.2c-1.3,0.4-2.7,0.7-3.9,1.4    c-2,1-3.8,2.5-5.4,4.3c-0.5,0.6-0.9,1.4-1.4,2.1c-0.5,0.8-0.9,1.7-1.4,2.6c-0.8,1.5-1.1,3.3-1.5,5c-0.2,1.1-0.2,2.3-0.1,3.4    c0.1,0.9,0.3,1.7,0.5,2.5c0.3,1.2,0.7,2.4,1.5,3.2c0.8,0.8,1.6,1.5,2.5,2.3c0.2,0.2,0.3,0.3,0.5,0.4c-0.3,0.6-0.5,1.2-0.7,1.7    c-0.3,0.8-0.5,1.5-0.8,2.3c-0.7,1.6-1.4,3.2-2.2,4.7c-0.8,1.6-1.9,2.8-3,4.1c-0.4,0.5-0.8,0.9-1,1.5c0.1,0.7,0.2,1.3,0.3,2    c0.2,1,0.9,1.2,1.5,0.5c0.2-0.2,0.4-0.5,0.6-0.6c1.6-1.2,3.1-2.6,4.6-4.1c1.5-1.5,2.9-3.1,4-5c0.7-1.1,1.6-2,2-3.5    C703.7,38.7,704.4,38.4,705,38.1z"/>
		<path class="st1" d="M601.1,37.9c0,0.1,0,0.2-0.1,0.3c-0.6-0.5-1-1.1-1.4-1.7c-0.4-0.5-0.7-1.1-1.2-1.6c-0.4-0.5-0.9-0.8-1.3-1.2    c-0.2-0.1-0.5-0.1-0.8-0.1c-0.2,0-0.4,0.2-0.6,0.3c-1.3,0.9-2.7,1.6-4.3,2c-0.9,0.2-1.7,0.4-2.6,0.4c-1.5,0-2.9-0.6-4.2-1.5    c-1.1-0.8-1.8-1.8-2-3.3c-0.3-2.6,0.2-4.9,1.5-6.9c0.6-0.9,1.1-1.8,1.7-2.7c0.6-0.8,1.2-1.6,1.7-2.4c2-2.8,4.6-4.7,7.2-6.5    c1.3-0.9,2.7-1.3,4.2-1.3c1.4,0,2.7,0.5,3.6,1.6c1.2,1.3,2,3,2,5c0.1,2.7-0.4,5.2-1.3,7.7c-0.5,1.3-1.1,2.5-1.9,3.6    c-0.7,0.9-1.5,1.7-2.5,2.2c-0.2,0.1-0.4,0.2-0.6,0.4c-0.4,0.3-0.4,0.8-0.1,1.1c0.4,0.3,0.8,0.5,1.5,0.9    C600.2,35.4,600.6,36.7,601.1,37.9 M604.7,27.9c1.1-2.6,1.7-5.4,1.8-8.4c0-1.1,0-2.1-0.4-3.1c-0.5-1.1-1-2.2-1.6-3.3    c-0.1-0.3-0.3-0.5-0.5-0.7c-1.2-1.1-2.5-2-4.1-2.1c-1.8-0.2-3.6,0-5.3,1c-0.6,0.4-1.2,0.8-1.9,1.2c-1.8,1-3.3,2.3-4.7,3.9    c-0.5,0.5-1,1-1.5,1.6c-0.3,0.4-0.7,0.8-1,1.3c-0.5,0.7-0.9,1.4-1.5,2c-0.8,1-1.2,2.2-1.9,3.2c-0.7,1-1.1,2.2-1.2,3.5    c-0.1,0.9-0.2,1.7-0.1,2.6c0.1,2.1,0.6,3.9,2,5.2c0.6,0.6,1.3,1.1,2.1,1.5c2.3,1.3,4.6,1.7,7,0.9c0.6-0.2,1.2-0.3,1.9-0.5    c0.2-0.1,0.4-0.2,0.6-0.3c0.7-0.3,1.3-0.7,2-1c0.5-0.2,0.9-0.1,1.2,0.4c0.2,0.3,0.4,0.7,0.7,1c1.1,1.2,2,2.6,3,3.9    c0.3,0.4,0.6,0.7,0.9,0.9c0.4,0.3,0.9,0.1,1.3-0.2c0.4-0.3,0.6-0.7,0.5-1.2c-0.1-0.5-0.3-0.9-0.4-1.4c-0.3-1.8-1-3.4-1.6-5    c-0.3-0.7-0.5-1.5-0.4-2.3C602.9,31.1,604,29.6,604.7,27.9"/>
		<path class="st1" d="M704.4,72.8c0,0,0-0.1,0.1-0.1c0,0-0.1-0.1-0.1,0c0,0,0,0.1-0.1,0.1C704.3,72.8,704.3,72.8,704.4,72.8     M703.1,74.5c-1.5,2.6-3.3,4.6-5.1,6.7c-0.5,0.6-1,0.7-1.7,0.6c-0.5-0.1-0.8-0.6-0.8-1.3c0-0.9,0-1.9,0.1-2.8    c0.1-1.6,0.1-3.2,0.3-4.8c0.4-2.9,1-5.7,1.5-8.5c0.1-0.4,0.2-0.8,0.3-1.1c0.1-0.4,0.3-0.6,0.7-0.6c0.3,0,0.6,0.3,0.7,0.7    c0.3,1.3,0.6,2.7,0,4c-0.1,0.3-0.2,0.6-0.3,0.9c-0.8,2.7-1.1,5.5-1.1,8.4c0,0.6-0.1,1.2,0.2,1.7c0.1,0,0.2,0,0.2,0    c1.8-2,3.6-4.2,4.7-7c0.3-0.7,0.6-1.3,1-2c0.4-0.9,1.1-1.1,1.8-1c0.6,0.1,1,0.4,1.4,1c0.4,0.5,0.8,1,1.2,1.4    c1.7,1.4,3.4,3,5.2,4.2c1.3,0.9,2.4,1.9,3.4,3.2c0.5,0.6,1.1,1.2,1.6,1.8c0.1,0.2,0.3,0.4,0.4,0.6c0.2,0.4,0.1,0.9-0.2,1.2    c-0.4,0.4-0.8,0.3-1.3,0.3c-1.5-0.1-2.9,0.1-4.3,0.6c-0.2,0.1-0.5,0-0.6,0.5c0.2,0.4,0.4,0.8,0.6,1.3c0.3,0.7,0.2,1.4,0,2.1    c-0.2,0.7-1,1-1.2,0.4c-0.5-1.2-1.3-1.5-2.1-1.9c-0.3-0.1-0.5-0.4-0.7-0.7c-0.7-0.8-0.6-1.7,0.1-2.3c0.2-0.2,0.4-0.4,0.7-0.5    c1.6-0.6,3.2-1.4,4.9-1.4c0.4,0,0.8,0.1,1.2-0.3c-0.1-0.3-0.2-0.5-0.3-0.7c-0.7-0.8-6.1-5-7.6-5.8c-0.4,0.2-0.9,0.5-1.3,0.7    c0,0.3,0,0.6,0,0.9c0.1,2.4,0.2,4.8,0.2,7.2c0,1.3,0.1,2.5,0.1,3.8c0.2,2.8,0.4,5.7,0.5,8.5c0.1,1.3,0.1,2.7,0.2,4    c0.3,3,0.6,6,0.8,9.1c0.2,2,0.3,4,0.7,5.9c0.1,0.6,0.3,1.3,0.4,1.9c0.1,0.9-0.2,1.4-0.8,1.7c-0.1,0-0.2,0.1-0.3,0.1    c-0.7,0.2-1-0.2-1.1-1.1c-0.1-1.1-0.2-2.1-0.3-3.1c-0.1-1.1-0.2-2.2-0.3-3.4c-0.2-2.2-0.2-4.5-0.5-6.7c-0.3-2.8-0.5-5.5-0.6-8.3    c0-1.5-0.2-3.1-0.3-4.8c-0.2,0.2-0.3,0.3-0.3,0.4c-0.4,3.1-1,6.1-1.3,9.2c-0.3,3-0.6,5.9-1.2,8.8c-0.2,1.2-0.5,2.3-0.6,3.5    c-0.2,1.3-1.2,2.5-2.2,2.4c-0.3,0-0.6-0.2-0.8-0.5c-0.4-0.6-0.3-1.6,0.1-2.2s0.6-1.1,0.7-1.9c0-0.3,0.1-0.7,0.3-0.9    c0.8-0.9,1-2.1,1.2-3.4c0.3-1.9,0.6-3.8,0.7-5.7c0.1-1.3,0.2-2.5,0.4-3.7c0.3-2.1,0.6-4.2,0.8-6.3c0.3-3.5,0.5-7,0.8-10.5    c0-0.1,0-0.3,0-0.4c-0.3-1.1-0.1-2.2,0-3.3c0-0.5,0.1-1.1-0.4-1.6C703.5,73.9,703.3,74.1,703.1,74.5"/>
		<path class="st1" d="M707.9,57.8c0.5-2.3,0.7-4.5,0.5-6.9c0-0.5-0.2-1-0.3-1.5c0-0.2-0.1-0.5-0.2-0.5c-0.7-0.2-1.1-0.8-1.5-1.4    c-0.1-0.1-0.4-0.1-0.6,0c-0.2,0.1-0.5,0.3-0.6,0.6c-0.7,1.8-1.5,3.6-1.6,5.7c-0.1,1.2-0.1,2.5-0.1,3.8c0,0.4,0.1,0.8,0.2,1.2    c0.3,1.1,1,1.7,1.7,1.2c0.5-0.4,1-0.3,1.5,0.1C707.4,59.4,707.7,58.7,707.9,57.8 M701.5,52.1c0.3-2.9,1.3-5.1,3.3-6.5    c1.8-1.3,3.9-1,4.8,2c0.5,1.7,0.9,3.5,0.8,5.4c-0.1,1.9-0.1,3.8-0.7,5.6c-0.4,1.2-0.8,2.3-1.6,3c-1.6,1.3-3.2,1.5-5,0.4    c-0.8-0.5-1.3-1.2-1.5-2.3c-0.2-1-0.2-2-0.3-2.9c-0.1-0.7-0.2-1.4-0.3-2.5C701.5,53.8,701.4,52.9,701.5,52.1"/>
		<path class="st1" d="M591.7,72.8c0,0,0-0.1-0.1-0.1c0,0,0.1-0.1,0.1,0c0,0,0,0.1,0.1,0.1C591.8,72.7,591.7,72.8,591.7,72.8     M593,74.4c1.5,2.6,3.3,4.6,5.1,6.7c0.5,0.6,1,0.7,1.7,0.6c0.5-0.1,0.8-0.6,0.8-1.3c0-0.9,0-1.9-0.1-2.8c-0.1-1.6-0.1-3.2-0.3-4.8    c-0.4-2.9-1-5.7-1.5-8.5c-0.1-0.4-0.2-0.8-0.3-1.1c-0.1-0.4-0.3-0.6-0.7-0.6c-0.3,0-0.6,0.3-0.7,0.7c-0.3,1.3-0.6,2.7,0,4    c0.1,0.3,0.2,0.6,0.3,0.9c0.8,2.7,1.1,5.5,1.1,8.4c0,0.6,0.1,1.2-0.2,1.7c-0.1,0-0.2,0-0.2,0c-1.8-2-3.6-4.2-4.7-7    c-0.3-0.7-0.6-1.3-1-2c-0.4-0.9-1.1-1.1-1.8-1c-0.6,0.1-1,0.4-1.4,1c-0.4,0.5-0.8,1-1.2,1.4c-1.7,1.4-3.4,3-5.2,4.2    c-1.3,0.9-2.4,1.9-3.4,3.2c-0.5,0.6-1.1,1.2-1.6,1.8c-0.1,0.2-0.3,0.4-0.4,0.6c-0.2,0.4-0.1,0.9,0.2,1.2c0.4,0.4,0.8,0.3,1.3,0.3    c1.5-0.1,2.9,0.1,4.3,0.6c0.2,0.1,0.5,0,0.6,0.5c-0.2,0.4-0.4,0.8-0.6,1.3c-0.3,0.7-0.2,1.4,0,2.1c0.2,0.7,1,1,1.2,0.4    c0.5-1.2,1.3-1.5,2.1-1.9c0.3-0.1,0.5-0.4,0.7-0.7c0.7-0.8,0.6-1.7-0.1-2.3c-0.2-0.2-0.4-0.4-0.7-0.5c-1.6-0.6-3.2-1.4-4.9-1.4    c-0.4,0-0.8,0.1-1.2-0.3c0.1-0.3,0.2-0.5,0.3-0.7c0.7-0.8,6.1-5,7.6-5.8c0.4,0.2,0.9,0.5,1.3,0.7c0,0.3,0,0.6,0,0.9    c-0.1,2.4-0.2,4.8-0.2,7.2c0,1.3-0.1,2.5-0.1,3.8c-0.2,2.8-0.4,5.7-0.5,8.5c-0.1,1.3-0.1,2.7-0.2,4c-0.3,3-0.6,6-0.8,9.1    c-0.2,2-0.3,4-0.7,5.9c-0.1,0.6-0.3,1.3-0.4,1.9c-0.1,0.9,0.2,1.4,0.8,1.7c0.1,0,0.2,0.1,0.3,0.1c0.7,0.2,1-0.2,1.1-1.1    c0.1-1.1,0.2-2.1,0.3-3.1c0.1-1.1,0.2-2.2,0.3-3.4c0.2-2.2,0.2-4.5,0.5-6.7c0.3-2.8,0.5-5.5,0.6-8.3c0-1.5,0.2-3.1,0.3-4.8    c0.2,0.2,0.3,0.3,0.3,0.4c0.4,3.1,1,6.1,1.3,9.2c0.3,3,0.6,5.9,1.2,8.8c0.2,1.2,0.5,2.3,0.6,3.5c0.2,1.3,1.2,2.5,2.2,2.4    c0.3,0,0.6-0.2,0.8-0.5c0.4-0.6,0.3-1.6-0.1-2.2c-0.4-0.5-0.6-1.1-0.7-1.9c0-0.3-0.1-0.7-0.3-0.9c-0.8-0.9-1-2.1-1.2-3.4    c-0.3-1.9-0.6-3.8-0.7-5.7c-0.1-1.3-0.2-2.5-0.4-3.7c-0.3-2.1-0.6-4.2-0.8-6.3c-0.3-3.5-0.5-7-0.8-10.5c0-0.1,0-0.3,0-0.4    c0.3-1.1,0.1-2.2,0-3.3c0-0.5-0.1-1.1,0.4-1.6C592.6,73.8,592.8,74.1,593,74.4"/>
		<path class="st1" d="M588.2,57.8c-0.5-2.3-0.7-4.5-0.5-6.9c0-0.5,0.2-1,0.3-1.5c0-0.2,0.1-0.5,0.2-0.5c0.7-0.2,1.1-0.8,1.5-1.4    c0.1-0.1,0.4-0.1,0.6,0c0.2,0.1,0.5,0.3,0.6,0.6c0.7,1.8,1.5,3.6,1.6,5.7c0.1,1.2,0.1,2.5,0.1,3.8c0,0.4-0.1,0.8-0.2,1.2    c-0.3,1.1-1,1.7-1.7,1.2c-0.5-0.4-1-0.3-1.5,0.1C588.7,59.4,588.4,58.6,588.2,57.8 M594.6,52c-0.3-2.9-1.3-5.1-3.3-6.5    c-1.8-1.3-3.9-1-4.8,2c-0.5,1.7-0.9,3.5-0.8,5.4c0.1,1.9,0.1,3.8,0.7,5.6c0.4,1.2,0.8,2.3,1.6,3c1.6,1.3,3.2,1.5,5,0.4    c0.8-0.5,1.3-1.2,1.5-2.3c0.2-1,0.2-2,0.3-2.9c0.1-0.7,0.2-1.4,0.3-2.5C594.6,53.8,594.7,52.9,594.6,52"/>
		<path class="st2" d="M662.3,29.3c0,0-0.1,0-0.3,0c0.1-0.7,0.5-1.2,0.8-1.8c0.2-0.5,0.6-1,0.8-1.6c0.2-0.5,0.3-1.1,0.4-1.6    c0-0.2-0.1-0.5-0.2-0.7c-0.1-0.2-0.3-0.3-0.5-0.5c-1.2-0.9-2.3-1.9-3.2-3.2c-0.5-0.7-1-1.4-1.3-2.2c-0.6-1.4-0.7-2.8-0.4-4.3    c0.2-1.2,0.8-2.2,1.9-2.9c1.9-1.2,3.9-1.5,6-1c0.9,0.2,1.8,0.4,2.7,0.6c0.9,0.2,1.7,0.5,2.6,0.8c3,0.9,5.4,2.6,7.9,4.3    c1.2,0.9,2,2.1,2.6,3.4c0.5,1.2,0.6,2.6,0.2,3.8c-0.6,1.5-1.6,2.8-3.1,3.5c-2.1,1-4.2,1.4-6.5,1.4c-1.2,0-2.4-0.1-3.5-0.5    c-1-0.4-1.9-0.8-2.7-1.5c-0.1-0.2-0.3-0.3-0.5-0.4c-0.4-0.2-0.8-0.1-0.9,0.3c-0.1,0.5-0.1,0.9-0.2,1.6    C664,27.6,663.1,28.5,662.3,29.3 M671.6,29.2c2.5,0.1,4.9-0.2,7.3-1.2c0.8-0.3,1.7-0.8,2.3-1.4c0.7-0.8,1.4-1.7,2-2.5    c0.2-0.2,0.3-0.5,0.3-0.7c0.4-1.4,0.6-2.9,0.1-4.4c-0.6-1.7-1.4-3.3-2.8-4.5c-0.5-0.5-1.1-0.8-1.7-1.3c-1.4-1.3-3.1-2.2-4.8-2.9    c-0.6-0.3-1.2-0.6-1.8-0.8c-0.4-0.2-0.9-0.3-1.4-0.5c-0.7-0.2-1.4-0.4-2.1-0.6C668,8,666.8,8,665.7,7.7c-1.1-0.3-2.2-0.2-3.2,0.1    c-0.7,0.2-1.4,0.4-2.1,0.7c-1.6,0.7-2.8,1.9-3.3,3.6c-0.2,0.8-0.4,1.6-0.4,2.4c-0.2,2.5,0.4,4.7,2,6.6c0.4,0.5,0.7,1,1.1,1.5    c0.1,0.2,0.3,0.3,0.5,0.5c0.5,0.5,1,1,1.5,1.5c0.4,0.4,0.4,0.8,0.2,1.2c-0.2,0.3-0.4,0.6-0.5,1c-0.5,1.4-1.2,2.7-1.9,4    c-0.2,0.4-0.3,0.8-0.4,1.2c-0.1,0.5,0.2,0.8,0.6,1.1c0.4,0.2,0.8,0.3,1.1,0c0.3-0.2,0.6-0.6,0.9-0.8c1.3-0.9,2.3-2,3.3-3.1    c0.5-0.5,1-0.9,1.7-1.1C668.4,28.7,670,29.2,671.6,29.2"/>
	</g>
	<g id="_x33_">
		<path d="M478.8,20.9c-0.6-0.6-0.7-0.6-1.2,0.1C478,21,478.3,20.9,478.8,20.9 M473.8,26.1c0,0.4-0.1,0.7,0,1    c0.1,1.6,1.3,2.5,2.5,1.7c0.8-0.5,1.1-0.4,1.8,0.6c-0.9,1.7-2.4,1-3.7,1.1c0.2,0.7,0.4,1.3,0.6,1.8c0.2,0.4,0.5,0.7,0.9,0.7    c0.6,0,1.2-0.1,1.7-0.3c0.8-0.2,1.4-0.8,1.6-1.8c0.2-0.8,0.4-1.5,0.7-2.2c0.7-2,0.8-4,0.7-6.1c0-0.2-0.1-0.3-0.2-0.5    c-1.1,0.6-2.3,0.6-3.4,0.4c-1.1-0.3-2.2-0.8-3.3-1.2c0,0.8-0.1,1.6-0.1,2.4c0,0.7,0.2,1,0.9,0.9c0.1,0,0.2,0,0.3-0.1    c0.6-0.1,0.8,0.1,1.1,0.9C475.5,26.2,474.7,26.3,473.8,26.1 M492.2,26.3c-0.4,0.8-0.9,1-1.6,1c-0.1,0-0.1,0-0.2,0    c-2.2-0.1-1.9-0.3-2.4,2.1c-1,4.2-1.7,8.5-2.6,12.7c-0.1,0.6-0.4,0.8-0.9,0.9c-0.6,0.1-1.2-0.3-1.7-0.4c-0.9-0.2-1.7-0.5-2.6-0.6    c-0.9-0.1-1,0.1-1.1,1.2c-0.2,1.7-0.4,3.4-0.6,5c-0.1,0.7-0.3,1.4,0,2c0.1,0.1,0,0.3,0,0.5c-0.3,4-0.7,7.9-0.8,11.9    c0,0.9,0,1.8,0,2.7c0,0.3,0.1,0.6,0.3,0.8c1.8,1.3,2.7,3.4,3.7,5.5c0.6,1.3,1.1,2.6,1.9,3.7c0.4,0.6,0.6,1.3,0.8,1.9    c0.1,0.2,0,0.6-0.1,0.9c-0.5,1-1,1.9-1.5,2.9c-0.6,1.1-1,1.2-1.9,0.4c-0.1-0.1-0.2-0.2-0.4-0.4c0.4-0.9,0.8-1.8,1.2-2.6    c0.7-1.3,0.7-1.7,0.1-3c-0.9-1.8-1.9-3.7-2.7-5.6c-0.6-1.3-1.3-2.2-2.3-2.8c-0.3-0.2-0.5-0.4-0.7-0.7c-0.1-0.2-0.2-0.6-0.2-0.9    c0-0.9,0.1-1.8,0.2-2.8c0-1,0.1-1.9,0.1-2.9c0-0.3,0-0.7-0.2-1c-0.3,1.1-0.6,2.1-1,3.2c0,0.1,0,0.3-0.1,0.4    c-0.6,1.1-0.3,2.2,0,3.3c0.3,0.9,0.2,2,0.3,3c0.2,3.3,0.4,6.6,0.6,9.9c0,0.5,0.1,1,0.2,1.4c0.1,0.4,0.3,1-0.1,1.2    c-0.3,0.2-0.8,0.1-1.2,0c-0.5-0.2-0.7-0.9-0.7-1.6c0.1-1.9,0-3.8-0.2-5.7c-0.1-0.9-0.1-1.9-0.2-2.8c-0.2-1.7-0.3-3.4-0.5-5.1    c-0.1-0.7-0.4-1.4-0.6-2.3c0.6-1.8,1.2-3.8,1.8-5.7c0.7-2.4,1.4-4.8,2-7.3c0.4-1.6,0.5-3.3,0.7-4.9c0.2-1.4,0.3-2.7,0.4-4.1    c0.1-0.5-0.1-0.8-0.5-0.9c-1-0.4-1.9-0.7-2.9-1.1c-0.3-0.1-0.7-0.1-1-0.1c-0.7,0.1-1.4-0.2-1.7-1c-0.8-2-1.7-3.9-2.4-6    c-0.5-1.4-1.2-2.7-1.6-4.1c-0.3-1-0.9-1.9-1.3-2.9c-0.2-0.7-0.2-1.5-0.2-2.2c0-0.9,0-1.9,0-2.8c0-0.6,0.2-1.1,0.8-1.1    c0.6,0,1.1,0.2,1.4,0.8c-0.1,1.4-0.3,2.8-0.3,4.1c0,0.8,0.4,1.6,0.7,2.3c1.4,3.4,2.8,6.8,4.2,10.3c0.2,0.5,0.5,0.8,1,1    c1.1,0.3,2.2,0.7,3.3,1.1c0.1,0,0.3,0,0.5,0c0.2-1.5,0.2-3.1,0.2-4.5c-0.8-0.1-1.5-0.2-2.2-0.4c-1.2-0.2-1.9-1.1-2.4-2.4    c-0.9-2.4-1-5-1.1-7.6c0-1.6,0.1-3.2-0.3-4.7c-0.1-0.4,0.1-0.6,0.3-0.7c0.5-0.2,0.9-0.4,1.4,0c0.6,0.5,1.2,0.8,1.8,1.2    c0.5-0.3,1-0.6,1.5-1c0.7-0.6,1.5-0.5,2.3-0.2c0.6,0.2,1.2,0.6,1.9,0.3c0.4-0.1,0.8,0.1,1.1,0.6c0.2,0.4,0.5,0.9,0.6,1.4    c0.3,2.9,0.3,5.7-0.7,8.5c-0.2,0.6-0.3,1.2-0.5,1.8c-0.2,0.5-0.3,1-0.7,1.3c-0.9,0.7-1,1.7-1.1,2.7c-0.2,1.3-0.2,2.6-0.3,3.9    c0,0.9,0.1,1,0.8,1.1c0.9,0.2,1.8,0.3,2.7,0.5c0.7,0.1,0.9,0.1,1-0.8c0.3-1.4,0.6-2.9,0.9-4.3c0.5-2.4,1-4.8,1.5-7.2    c0.2-0.7,0.3-1.5,0.6-2.2c0.3-1,0.5-1,1.3-0.9c0.7,0,1.4,0,2-0.2C491,25,491.6,25.4,492.2,26.3"/>
		<path d="M479.3,38.3c-0.1,0.5-0.4,0.8-0.8,0.9c-0.7,0.3-1.9-0.2-2.4-0.9c-0.1-0.2-0.2-0.5-0.1-0.6c0.1-0.2,0.3-0.3,0.5-0.3    c0.5,0,1.1,0,1.6,0C478.7,37.5,479,37.8,479.3,38.3"/>
		<path d="M452.3,25.6c0-1,0-1.9,0-2.8c0-0.1-0.1-0.2-0.2-0.2c-1.1,0.2-2.1,0.5-3.1,0.4c-1-0.1-2-0.5-3.1-0.8    c-0.1,0-0.2,0.1-0.2,0.2c0,0.7-0.1,1.5-0.2,2.3c-0.1,0.8,0.1,1.4,0.6,1.7c0,0,0.1,0,0.2,0c1.1-0.4,1.4-0.3,1.8,0.7    c0,0.1,0,0.2,0,0.3c-0.8,1.1-1.3,1.3-2.5,0.8c-0.1,0-0.2,0.1-0.3,0.2c-0.2,1.9,0,3.9,0.3,5.7c0.3,1.4,0.8,1.8,2,1.9    c0.4,0,0.9-0.1,1.3,0c0.7,0,1.1-0.4,1.5-1.1c0.9-1.7,1.3-3.5,1.6-5.4c0.1-0.4,0.1-0.8,0.1-1.2c0-0.1-0.1-0.2-0.2-0.2    c-0.8-0.2-1.5-0.3-2.2-0.5c-0.6-0.1-0.9-0.7-0.8-1.5c0-0.1,0.1-0.2,0.2-0.2c1-0.1,2,0.5,3.1-0.1C452.2,25.8,452.3,25.7,452.3,25.6     M448.1,77.1c1.2,0.7,2.6,0.8,3.2,2.5c0,0.1,0,0.2-0.1,0.3c-0.6,0.5-1.2,0.5-1.7,0c-0.6-0.6-1.4-0.9-2.2-0.9    c-0.9-0.1-1.4-0.6-1.4-2.2c0-1,0-1.9,0.1-2.9c0.1-2,0.3-3.9,0.5-5.9c0.1-1.7,0.3-3.4,0.4-5.1c0.1-1.5,0.2-3,0.3-4.5    c0-0.1,0-0.2-0.1-0.2c-0.9-0.6-1.9-1.2-3-1.9c0.4,0.6,0.6,1.1,0.9,1.6c0.3,0.5,0.6,1,0.9,1.5c0.3,0.5,0.5,1,0.7,1.4    c0,0.1,0,0.2,0,0.3c-1.3,1.9-1.8,4.2-2.2,6.4c-0.5,2.5-0.7,5.1-1.1,7.6c-0.2,1.4,0.2,2.5,0.9,3.5c0.2,0.3,0.4,0.6,0.6,0.9    c-0.2,0.2-0.4,0.4-0.6,0.5c-0.9,0.4-3-0.9-3.2-2c0-0.1,0-0.3,0-0.5c0.6-2.1,0.4-4.2,0.7-6.4c0.3-2.4,0.6-4.8,1.3-7.1    c0.4-1.2,0.7-2.4,1-3.6c0.1-0.4-0.1-0.9-0.3-1.3c-0.9-1.9-2.2-3.5-3.5-4.9c-0.7-0.8-1.4-1.6-2.2-2.2c-0.6-0.4-0.8-1.2-0.6-2    c0.3-1.1,0.7-2.2,0.9-3.3c0.5-1.8,0.9-3.6,1.3-5.5c0-0.1,0-0.2-0.1-0.3c-1-0.7-1.9-1.4-2.9-2.2c-0.7-0.6-1.5-0.9-2.3-1.2    c-0.7-0.3-1.1-1.2-0.9-2.1c0.2-0.9,0.4-1.7,0.4-2.6c0.1-1.9,0.2-3.8,0.2-5.7c0-1.7-0.2-3.4-0.3-5.1c-0.1-1.5-0.1-3.1-0.2-4.6    c0-0.4-0.2-0.8-0.2-1.2c0-0.5,0-1,0-1.4c0-0.5,0.4-0.6,0.7-0.5c1,0.1,1.9,1.2,1.7,2.3c-0.3,1.6-0.1,3.2,0,4.8    c0.2,3.8,0.4,7.5,0.2,11.3c-0.1,1.1-0.2,2.2-0.2,3.4c0,0.1,0,0.2,0.1,0.2c1.4,0.9,2.8,1.9,4.2,2.8c0.1,0.1,0.2,0,0.3-0.1    c0.3-0.9,0.5-1.7,0.7-2.5c0.2-0.9,0.3-1.7,0.5-2.8c0,0,0-0.1,0-0.1c-0.8-2-0.7-4.3-0.5-6.7c0.1-0.6,0.1-1.3,0.4-1.9    c0.4-1,0.8-1.9,2-2c0.1,0,0.2-0.1,0.2-0.3c-0.1-0.9-0.1-1.7-0.2-2.5c-0.1-0.9,0.2-1.4,0.9-1.2c0.6,0.2,1.1,0.5,1.6,0.9    c0.3,0.2,0.7,0.5,1,0.7c1.3,1,2.6,0.7,3.9,0c1.1-0.6,2.6-0.2,3.3,1c0.1,0.2,0.2,0.6,0.2,0.8c0,1.4,0,2.7,0.1,4.1    c0,0.7-0.1,1.8-0.2,2.4c-0.2,1.3-0.4,2.5-0.6,3.8c0,0.3-0.1,0.6-0.2,0.8c-0.5,1-0.9,2-1.4,2.9c-0.4,0.7-1,1.2-1.6,1.3    c-1.6,0.3-3.2,0.4-4.7-0.7c-0.5-0.4-1-0.9-1.4-1.3c-0.2-0.1-0.3-0.3-0.5-0.5c-0.1-0.1-0.3,0-0.3,0.1c-0.4,1.4-0.7,2.7-1.1,4    c0,0.1,0,0.3,0.1,0.3c0.4,0.1,0.6,0.2,0.9,0.3c1.1,0.4,2.3,0.8,3.4,1.3c0.8,0.4,1.5,0.3,2.2-0.6c0.5-0.7,1.3-1.3,2-1.8    c0.9-0.7,1.8-1.5,2.8-2c1-0.5,2-0.8,3.1-1c0.7-0.1,1.3,0.3,1.7,1.1c0,0.1,0,0.1,0,0.2c-0.2,0.6-0.8,0.9-1.3,0.9    c-2.1,0-3.6,1.5-5.1,3c-0.7,0.7-1.3,1.4-1.9,2.1c-0.4,0.4-0.7,0.7-1.3,0.5c-0.4-0.1-0.9-0.1-1.3-0.1c-0.5,0-1-0.2-1.4-0.6    c-1-0.8-2.2-1.1-3.4-1.4c-0.2-0.1-0.5-0.1-0.8-0.2c-0.1,0-0.2,0-0.2,0.1c-0.9,2.7-1.6,5.4-2.2,8.2c0,0.1,0,0.2,0.1,0.3    c1.1,0.7,2.1,1.4,3,2.1c0.8,0.7,1.6,1.4,2.4,2.3c0.6,0.6,1.2,1.2,2,1.4c0.6,0.2,1.1,0.4,1.6,0.6c0.8,0.4,1.1,1.3,0.9,2.4    c-0.3,2.3-0.6,4.6-0.8,6.8c-0.3,3.1-0.5,6.2-0.7,9.3c0,0.6,0,1.2,0,1.7C448,76.9,448.1,77,448.1,77.1"/>
		<path d="M480.8,86.1c-0.8-0.1-1.5-0.2-2.2-0.2c-2.4,0.1-27.4,0.4-29.8,0.5c-1.3,0.1-2.6-0.1-3.9-0.1c-0.9,0-1.7,0-2.7,0    c-0.1,1.6-0.2,2.9-0.3,4.3c0,0.5-0.1,0.9-0.3,1.4c-0.2,0.6-0.8,0.7-1.1,0.2c-0.5-0.6-0.6-1.3-0.4-2.1c0.3-1.1,0.3-2.2,0.3-3.4    c-1,0-1.8-0.4-2.7-0.3c-0.6,0.1-1.3-1.1-1.1-1.7c0-0.1,0.1-0.3,0.2-0.3c0.6-0.2,1.3-0.6,1.8-0.5c1,0.3,1.9,0.1,2.9,0.1    c1.8,0,3.5,0.1,5.3,0.1c2.3-0.1,27.4-0.4,29.7-0.5c1.9-0.1,3.7,0,5.6,0c0.9,0,1.9-0.1,2.8-0.2c0.9-0.1,1.4,0.3,1.6,1.1    c0.2,0.7-0.1,1.1-0.7,1.2c-0.7,0.1-1.4,0.2-2.1,0.3c-0.5,0-0.8,0.2-0.8,0.8c0,1.4,0.1,2.8,0.1,4.2c0,0.7,0,1.4-0.1,2.1    c0,0.2-0.3,0.6-0.5,0.7c-0.2,0.1-0.5-0.1-0.7-0.3c-0.6-0.6-0.8-1.3-0.8-2.2C480.9,89.5,480.8,87.9,480.8,86.1"/>
		<path d="M485,107c-0.4,0.2-0.9,0.3-1.2,0.6c-1.3,1.5-2.4,3.2-2.4,5.3c0,0.3,0.2,0.8,0.4,1c0.7,0.7,1.6,0.8,2.5,0.4    c0.9-0.4,1.8-0.8,1.9-2C486.3,110.5,486.4,108.7,485,107 M488.4,112.7c-0.1,0.6-0.2,1.3-0.5,1.9c-0.6,1.6-2,2.4-3.7,2.3    c-3.5-0.1-5.3-3.2-4.7-6.2c0.4-1.8,1.1-3.5,2.3-4.9c0.8-1,1.8-1.2,3-0.7c0.2,0.1,0.4,0.3,0.6,0.3c1.1,0,1.5,0.8,1.9,1.6    C488.2,108.8,488.4,110.7,488.4,112.7"/>
		<path d="M457,100c-0.8,1.3-1.2,2.9-1.2,4.5c0,0.3,0.1,0.7,0.2,1c0.3,0.8,1,0.9,1.6,0.4c0.3-0.3,0.7-0.5,0.9-0.8    c1-1.1,1.8-3.1,0.5-4.7C458.4,100.2,457.8,100.1,457,100 M461.7,103.2c0,1.9-0.9,3.3-2.1,4.5c-1.5,1.5-3.8,1-5-0.9    c-0.6-1-1-2.1-0.8-3.3c0.3-1.5,0.6-3,1.1-4.4c0.8-2.1,3.3-2.4,4.8-0.8C461.2,99.7,461.7,101.4,461.7,103.2"/>
		<path d="M448.1,107c-1,1.1-1.6,2.5-1.8,4.1c-0.1,1,0.4,1.4,1.3,1.3c1.2-0.1,1.9-1,2.4-1.9c0.4-0.7,0.9-1.5,0.7-2.4    c-0.1-0.5-0.3-0.7-0.8-0.8C449.3,107.3,448.7,107.1,448.1,107 M452.6,109c-0.2,1.9-0.8,3.4-1.9,4.7c-0.9,1-2,1.5-3.3,1.2    c-1.5-0.3-2.3-1.3-2.8-2.7c-0.9-2.9,0.3-5.1,2.1-7.2c0.1-0.1,0.4-0.3,0.5-0.3c1.1,0.1,2.3,0,3.3,0.4    C452.3,105.9,452.5,107.5,452.6,109"/>
		<path d="M469.3,108.9c-0.1-0.2-0.1-0.7-0.4-1c-0.5-0.6-2.4-0.5-2.8,0.1c-0.9,1.1-1.5,2.3-1.6,3.7c-0.1,0.6,0.2,1,0.8,1.1    c0.5,0.1,1.1,0.1,1.5-0.1C468.2,111.9,469,110.7,469.3,108.9 M471.2,109.5c0,1.3-0.5,2.4-1.1,3.5c-0.8,1.6-3.1,2.3-4.7,2    c-1.2-0.2-2.6-2-2.8-3.5c-0.2-2.2,0.7-4,2.1-5.5c0.2-0.2,0.4-0.3,0.6-0.4c0.4-0.2,3.5-0.3,3.9-0.1c1.1,0.4,2.1,2.3,2.1,3.6    C471.3,109.2,471.2,109.4,471.2,109.5"/>
		<path d="M440.7,101.7c-0.4-0.4-0.8-0.7-1.1-1.1c-1.4,0.7-2.3,2.1-2.3,3.4c0,0.8,0.4,1.3,1.1,1.5c1,0.3,2.5-0.3,2.8-1.4    c0.2-0.9,0.3-1.8,0.4-2.7c0-0.1-0.1-0.2-0.2-0.3C441.3,101.3,441.1,101.4,440.7,101.7 M443.6,103c-0.2,0.9-0.4,1.7-0.6,2.6    c-0.4,1.4-1.4,2.1-2.8,2.3c-2.9,0.3-4.4-1.9-4.8-3.9c-0.4-2.3,0.8-3.9,2.4-5.2c0.6-0.5,1.1-1.2,2.1-1c0.4,0.1,0.8,0.1,1,0.4    C442.7,99.3,443.7,100.8,443.6,103"/>
		<path d="M474.9,101.4c-0.9,3-1,3.8-0.5,4.7c1.9-1,2.5-2.4,2-4C475.9,101.9,475.4,101.6,474.9,101.4 M472.1,104.1    c0.4-1.6,0.7-3.3,1.1-4.9c0.2-0.8,0.6-0.9,1.4-0.6c0.4,0.2,0.9,0.3,1.3,0.4c1,0.2,1.6,1,2.1,1.8c1.2,1.9,1.1,5-1.2,6.8    c-0.8,0.6-1.8,1.2-2.7,0.6c-0.7-0.5-1.3-1.3-1.6-2C472.1,105.6,472.2,104.9,472.1,104.1"/>
		<path class="st2" d="M512.8,25.5c0.4-0.2,0.7-0.3,1-0.4c0.5-0.1,0.8-0.5,1.1-0.9c0.3-0.6,0.6-1.1,0.7-1.8c0-0.1,0-0.1,0-0.2    c-0.3-0.3-0.6-0.3-1-0.2c-0.9,0.2-1.5,0.7-1.8,1.7c-0.1,0.2-0.2,0.4-0.4,0.4c-0.3,0-0.5-0.1-0.6-0.4c-0.2-0.3-0.1-0.7,0-0.9    c0.4-0.7,0.8-1.3,1.5-1.7c0.9-0.4,1.8-0.5,2.6,0c0,0,0.1,0.1,0.1,0.1c0.8,0.3,0.9,0.8,0.7,1.5c-0.1,0.6-0.3,1.1-0.6,1.5    c-0.4,0.7-0.9,1.2-1.5,1.7c-0.2,0.2-0.5,0.2-0.6,0.5c-0.2,0.3-0.3,0.7-0.4,1.1c0,0.2,0,0.3-0.2,0.4c-0.3,0-0.5-0.1-0.6-0.3    c-0.1-0.4-0.3-0.8-0.2-1.3C512.7,26.1,512.7,25.8,512.8,25.5"/>
		<path class="st2" d="M507.7,27c0,0-0.1,0-0.2,0.1c-0.4,0.1-0.5,0-0.4-0.4c0.1-0.6,0.3-1.2,0.5-1.9c0-0.1,0-0.1,0-0.2    c-0.1-0.5,0.1-1,0.3-1.4c0.3-0.7,0.7-1.4,1.1-2.1c0.2-0.3,0.3-0.7,0.4-1c0.2-0.4,0.6-0.6,0.9-0.4c0.3,0.1,0.4,0.4,0.5,0.6    c0.1,0.2,0,0.3-0.1,0.5c-0.3,0.4-0.6,0.7-0.9,1.1c-0.3,0.4-0.5,0.9-0.7,1.3c-0.5,1-1,2-1.3,3.1C507.9,26.5,507.8,26.7,507.7,27"/>
		<path class="st2" d="M512.3,31.3c0,0.1,0,0.2,0,0.3c0,0.3-0.1,0.5-0.3,0.5c-0.3,0.1-0.5,0.1-0.7-0.2c-0.1-0.1-0.1-0.2-0.2-0.3    c-0.2-0.3-0.2-0.4,0-0.7c0.1-0.1,0.2-0.3,0.3-0.4c0.3-0.3,0.5-0.2,0.7,0.1C512.2,30.8,512.3,31,512.3,31.3    C512.3,31.3,512.3,31.3,512.3,31.3"/>
		<path class="st2" d="M506.8,31c0-0.7,0.4-1,1-0.7c0.1,0,0.2,0.1,0.3,0.2c0.1,0.2,0.1,0.4,0.2,0.7c0,0.2-0.1,0.4-0.3,0.5    c-0.2,0.1-0.8-0.1-1-0.4C506.8,31.2,506.8,31.1,506.8,31"/>
		<path class="st2" d="M519.8,16.7c-0.4,0.2-0.9,0.3-1.2,0.6c-0.8,0.5-1.5,1-2.3,1.5c-0.6,0.4-1,0.4-1.4-0.1    c-0.5-0.5-0.9-1.1-1.2-1.7c-0.4-0.8-0.6-1.6-1.1-2.4c-0.3-0.5-0.5-1-0.7-1.5c-0.4-0.8-1.2-1.3-2-1.8c-0.3-0.2-0.5,0-0.6,0.2    c-0.2,0.6-0.5,1.2-0.6,1.8c-0.2,1.6-0.2,3.1-0.4,4.7c0,0.5-0.1,1-0.3,1.4c-0.1,0.3-0.3,0.6-0.5,0.8c-0.4,0.4-0.8,0.4-1.2,0.1    c-1-0.7-2-1.4-2.7-2.3c-0.2-0.3-0.5-0.5-0.8-0.8c-0.3-0.3-0.7-0.2-0.7,0.3c0,0.5,0,1,0,1.5c0.1,1.3,0.6,2.6,1.1,3.8    c0.3,0.8,0.1,1.2-0.7,1.7c-0.8,0.5-1.8,0.7-2.7,1.1c-0.8,0.4-1.6,0.8-2.4,1.2c0.3,0.3,0.4,0.5,0.6,0.7c0.5,0.4,1,0.7,1.5,1    c0.6,0.4,1.1,0.7,1.7,1c0.3,0.2,0.6,0.3,0.9,0.3c1,0.2,1.4,0.7,1.1,1.6c-0.1,0.3-0.2,0.6-0.4,0.8c-0.9,1-2,1.9-3.3,2.4    c-0.5,0.2-0.9,0.6-1.4,0.6c-0.5,0.1-0.8,0.2-1.3,0.6c0.3,0.1,0.5,0.1,0.8,0.1c2.2,0,4.4-0.1,6.6-0.9c0.9-0.3,1.7-0.6,2.6-1    c0.2-0.1,0.5-0.2,0.7-0.2c0.9-0.1,1.4,0.2,1.7,1c0.2,0.7,0.3,1.3,0.5,2c0.1,0.4,0.2,0.7,0.3,1.1c0.6-0.1,0.9-0.4,1.1-0.8    c0.5-0.9,1.1-1.9,1.9-2.7c0.2-0.2,0.2-0.4,0.2-0.7c0-0.1,0-0.2,0-0.2c0.1-1.1,1.5-1.6,2.3-0.8c0.1,0.1,0.2,0.2,0.3,0.3    c0.9,1,1.7,2,2.6,2.9c0.1,0.1,0.2,0.2,0.4,0.3c0.5-0.7,0.5-1.4,0.4-2.1c-0.1-0.7-0.3-1.4-0.5-2.1c-0.2-0.7-0.5-1.4-0.9-2.1    c-0.4-0.5-0.1-1,0.1-1.4c0-0.1,0.2-0.1,0.3-0.2c1.5-0.2,2.8-0.8,4.1-1.4c1.3-0.5,2.6-1.2,3.9-1.8c0.2-0.1,0.4-0.3,0.6-0.4    c0-0.1,0-0.1,0-0.2c-0.3-0.1-0.6-0.1-0.9-0.2c-1.2-0.1-2.5-0.2-3.7-0.3c-0.5,0-1.1-0.1-1.6-0.1c-0.9,0-2.2-0.9-2.4-1.7    c-0.1-0.5,0.1-1.1,0.4-1.5c0.8-1,1.6-2,2.3-3c0.4-0.5,0.9-1.1,1.1-1.8C521.1,16.2,520.4,16.3,519.8,16.7 M509.6,40    c-0.8-0.8-1.2-1.7-1.5-2.7c-0.2-0.7-0.9-1-1.6-0.9c-0.3,0.1-0.7,0.2-1,0.2c-0.6,0.1-1.2,0.2-1.7,0.3c-1.8,0.5-3.6,0.8-5.5,0.7    c-0.9-0.1-1.9-0.2-2.8-0.4c-1-0.2-1.9-0.6-2.7-1.2c-0.7-0.6-0.7-1.3,0-1.8c0.1-0.1,0.2-0.2,0.3-0.4c0.3-0.5,0.6-0.5,1-0.1    c0.4,0.4,0.8,0.5,1.3,0.4c0.8-0.2,1.6-0.5,2.4-0.8c1.2-0.3,2.1-1.1,3.1-1.9c-0.3-0.3-0.6-0.6-0.9-0.8c-0.8-0.5-1.7-1-2.5-1.5    c-0.8-0.5-1.5-1-2-1.9c-0.2-0.3-0.2-0.5-0.1-0.9c0.2-0.7,0.8-1.2,1.4-1.6c1.1-0.6,2.2-1,3.3-1.5c0.2-0.1,0.3-0.1,0.5-0.2    c0.5-0.3,0.7-0.9,0.6-1.4c-0.1-0.4-0.2-0.8-0.3-1.2c-0.2-0.8-0.4-1.6-0.4-2.3c-0.1-1.2,0.1-2.3,0.9-3.3c0.4-0.5,1.2-0.5,1.6-0.1    c0.3,0.3,0.7,0.6,1,1c0.6,0.7,1.3,1.4,1.9,2.1c0.4,0.4,0.7,0.3,0.9-0.2c0-0.1,0-0.3,0.1-0.4c0.3-1.3,0.2-2.7,0.3-4    c0-1.3,0.3-2.5,0.8-3.6c0.3-0.7,1.2-0.9,1.8-0.6c0.7,0.3,1.4,0.8,2,1.3c0.8,0.8,1.4,1.8,2,2.7c0.4,0.6,0.6,1.3,0.9,2    c0.1,0.1,0.1,0.2,0.1,0.4c0.3,0.8,1.2,1.1,1.9,0.8c0.4-0.2,0.9-0.4,1.3-0.6c1.4-0.7,2.7-1.3,4.2-1.7c0.8-0.2,1.7,0.3,1.8,1    c0.1,0.9-0.1,1.7-0.6,2.5c-0.9,1.4-1.9,2.7-3,4c-0.2,0.2-0.3,0.4-0.4,0.8c0.7,0.1,1.2,0.1,1.7,0.2c0.3,0,0.7,0,1,0.1    c1.5,0.4,3.1,0.3,4.6,0.4c0.7,0.1,1.4,0,2,0.3c0.7,0.4,1,1.2,0.6,1.7c-0.3,0.4-0.7,0.8-1.2,1.1c-0.9,0.5-1.8,1-2.8,1.4    c-0.9,0.4-1.8,0.9-2.7,1.3c-0.9,0.4-1.8,0.7-2.7,1.1c-0.6,0.3-0.6,0.4-0.5,1c0.1,0.3,0.3,0.6,0.3,0.9c0.1,0.9,0.2,1.7,0.3,2.6    c0.2,1.4-0.2,2.7-0.7,4.1c-0.2,0.7-1.1,0.8-1.6,0.2c-0.1-0.1-0.2-0.3-0.3-0.4c-0.5-0.7-1-1.4-1.5-2c-0.4-0.4-0.8-1-1.4-1.2    c-0.2,0.2-0.4,0.4-0.5,0.7c-0.3,0.4-0.5,0.7-0.8,1.1c-0.5,0.5-0.7,1.1-1,1.8c-0.1,0.1-0.1,0.3-0.2,0.4c-0.3,0.4-0.7,0.7-1.1,1    c-0.3,0.3-0.5,0.6-0.7,0.8C510.2,40.5,509.9,40.4,509.6,40"/>
		<path class="st2" d="M420.2,39.8c-0.6-0.8-0.9-1.8-1.1-2.8c0-0.1-0.1-0.2-0.1-0.3c-0.2-0.3-0.1-0.5-0.1-0.9    c0.2-0.6,0.5-0.8,1.1-0.9c1-0.2,2-0.5,2.9-0.8c0.1,0,0.3-0.1,0.5-0.2c-0.5-0.2-1-0.2-1.4-0.3c-0.8-0.2-1.6-0.4-2.4-0.6    c-0.6-0.2-0.6-0.3-0.7-0.9c-0.7,0-1.2-0.6-1-1.4c0.1-0.5,0.4-0.9,0.6-1.4c0.2-0.5,0.4-0.9,0.6-1.4c0.3-0.6,0.5-1.3,0.8-1.9    c0.1-0.2,0.1-0.4,0.2-0.7c-0.4,0-0.7,0-1,0.1c-0.7,0.2-1.5,0.3-2.2,0.5c-0.3,0.1-0.6,0.3-0.9,0.5c-0.6,0.4-1.1,0.2-1.3-0.5    c-0.1-0.5-0.2-1-0.4-1.4c-0.2-0.4-0.4-0.8-0.6-1.2c-0.4-0.6-1.2-0.7-1.7-0.2c0,0-0.1,0.1-0.1,0.1c-0.6,0.5-1.3,0.9-1.9,1.3    c-0.2,0.1-0.4,0.2-0.6,0.3c-0.6,0.3-1,0.2-1.4-0.3c-0.2-0.3-0.4-0.6-0.7-0.8c-0.2-0.2-0.4-0.4-0.7-0.7c-0.1,0.3-0.2,0.4-0.2,0.6    c0,0.7,0,1.5,0,2.2c0,0.5-0.1,1-0.7,1.3c-0.2,0.1-0.4,0.1-0.7,0.1c-0.8-0.1-1.7-0.2-2.5-0.2c-0.2,0-0.3,0-0.5,0    c0,0.5,0.3,0.8,0.5,1.1c0.4,0.5,0.6,1,0.7,1.6c0.2,0.6,0,1-0.6,1.2c-1,0.4-1.9,0.9-2.7,1.5c-0.3,0.2-0.3,0.4,0.1,0.6    c0.5,0.2,1,0.5,1.4,0.8c1.6,1.1,1.8,2,1.4,4c-0.1,0.5-0.3,1-0.4,1.6c0.3-0.1,0.5-0.1,0.7-0.1c0.5-0.3,1-0.5,1.4-0.8    c0.5-0.3,0.8-0.3,1.2,0.2c0.5,0.6,1,1.3,1.5,1.9c0.2,0.3,0.4,0.5,0.6,0.8c0.4,0.6,1.3,0.7,1.7,0.1c0.2-0.2,0.4-0.5,0.5-0.8    c0.3-0.4,0.6-0.9,0.6-1.5c0-0.3,0.3-0.5,0.6-0.6c0.3-0.1,0.5,0.1,0.6,0.3c0.5,0.8,1.2,1.4,2,2c0.9,0.7,1.9,1.4,2.9,2.1    c0.1,0.1,0.2,0.1,0.3,0.1c0.2-0.4,0.2-0.7,0.1-1.1c-0.2-0.6-0.3-1.1-0.5-1.7c-0.1-0.3,0-0.6,0.3-0.8c0.3-0.3,0.5-0.4,0.9-0.1    c0.3,0.2,0.5,0.3,0.8,0.5c0.7,0.4,1.4,0.4,2.3,0.7C420.4,40.2,420.3,40,420.2,39.8 M410.9,41.5c-0.3,0.5-0.6,1.1-1,1.5    c-0.2,0.3-0.5,0.6-0.8,0.8c-0.3,0.3-0.7,0.3-1.1,0.2c-0.5-0.2-0.8-0.5-1-1c-0.4-0.8-1-1.5-1.5-2.3c-0.3-0.4-1-0.6-1.4-0.2    c-0.3,0.2-0.6,0.3-0.9,0.4c-0.5,0.2-1,0.4-1.5,0.6c-0.3,0.1-0.8-0.2-0.8-0.4c-0.1-0.5-0.3-0.9,0-1.4c0.1-0.2,0.1-0.5,0.2-0.8    c0.1-0.3,0.1-0.7,0.2-1c0.1-0.5,0.2-1,0.3-1.5c0-0.1,0-0.2-0.1-0.3c-0.2-0.8-0.9-1.1-1.6-1.3c-0.8-0.2-1.5-0.7-2-1.5    c-0.3-0.5-0.2-1.1,0.2-1.4c0.5-0.4,0.9-0.8,1.4-1.2c0.5-0.3,1-0.7,1.6-1c0.5-0.2,0.5-0.4,0.3-0.9c-0.3-0.6-0.7-1.1-1-1.7    c-0.5-0.9,0.1-1.9,1.1-1.9c0.2,0,0.4,0,0.6,0c0.8,0,1.5,0,2.3,0c0.5,0,0.6-0.1,0.6-0.6c0-0.4,0-0.8,0-1.2c0-0.6,0.1-1.3,0.5-1.8    c0.3-0.4,0.6-0.5,1-0.3c0.3,0.1,0.5,0.3,0.8,0.5c0.3,0.2,0.8,0.7,1.1,1c0.2,0.2,0.5,0.3,0.8,0.2c1.2-0.4,2.2-1.2,2.7-2.3    c0.2-0.4,0.4-0.6,0.8-0.6c0.4,0,0.6,0.2,0.7,0.5c0.5,1.1,1.1,2.1,1.8,3.1c0.1,0.1,0.1,0.1,0.1,0.2c0.2,0.4,0.7,0.6,1.1,0.5    c0.2,0,0.3-0.1,0.5-0.1c1-0.2,2-0.4,3-0.6c0.9-0.2,1.4,0.6,1.4,1.2c0,0.3,0,0.7-0.2,1c-0.4,1.1-0.8,2.2-1.1,3.4    c0,0.1-0.1,0.1-0.1,0.2c-0.4,0.7-0.7,1.4-0.6,2.2c0.2,0,0.4,0,0.7,0c0.4,0.1,0.9,0.2,1.3,0.2c0.9,0.1,1.7,0.3,2.6,0.4    c1,0.1,1.9,0.2,2.9,0.1c0.6-0.1,1.1,0.7,1,1.2c-0.1,0.2-0.2,0.5-0.4,0.6c-0.3,0.1-0.5,0.2-0.8,0.2c-0.3,0.1-0.7,0.1-1,0.3    c-1,0.4-2,0.6-2.9,1c-0.1,0.1-0.4,0.1-0.5,0.1c-0.3,0-0.7,0.2-1,0.3c-0.5,0.3-0.8,0.9-0.5,1.4c0,0,0,0.1,0,0.1    c0.4,0.7,0.8,1.3,1.2,1.9c0.2,0.4,0.5,0.7,0.7,1.1c0.3,0.5,0.1,0.9-0.1,1.3c-0.1,0.2-0.3,0.3-0.5,0.3c-1.1-0.2-2.2-0.1-3.3-0.6    c-0.1-0.1-0.3,0-0.6,0c0,0.2,0.1,0.4,0.1,0.6c0.1,0.8,0.1,1.6-0.5,2.3c-0.8,0.9-0.9,0.9-1.8,0.1c-0.7-0.7-1.5-1.4-2.3-2    c-0.7-0.6-1.6-1-2.4-1.6C411.1,41.2,411,41.4,410.9,41.5"/>
		<path class="st2" d="M413,26.9c0.4,0,0.8,0.2,1,0.6c0.3,0.5,0.3,0.5-0.1,0.9c-0.2,0.3-0.4,0.6-0.6,0.9c-0.3,0.8-0.6,1.7-0.9,2.6    c-0.1,0.2-0.2,0.5-0.3,0.7c-0.1,0.2-0.1,0.4-0.1,0.7c0,0.3-0.2,0.5-0.5,0.5c-0.3,0-0.5-0.2-0.4-0.5c0.1-0.7,0-1.3,0.3-2    c0.2-0.4,0.1-0.8,0.2-1.2c0.1-0.3,0.2-0.7,0.3-1c0.1-0.5,0.3-0.9,0.5-1.4c0.1-0.2,0.2-0.4,0.3-0.6C412.7,27,412.8,27,413,26.9"/>
		<path class="st2" d="M408.2,33.3c0-0.4,0-0.7,0.1-1c0.2-1,0.2-2,0.5-2.9c0-0.1,0.1-0.1,0.1-0.2c0.2-0.5,0.5-1,0.6-1.6    c0.1-0.5,0.7-0.8,1.2-0.6c0.6,0.3,0.7,0.9,0.3,1.3c-0.5,0.5-0.8,1.2-1,1.9c-0.3,0.9-0.5,1.7-0.8,2.6c-0.1,0.2-0.1,0.4,0,0.6    c0,0.4-0.1,0.6-0.3,0.6c-0.2,0-0.4-0.1-0.5-0.4C408.2,33.4,408.2,33.3,408.2,33.3"/>
		<path class="st2" d="M408.8,36.9c-0.6,0-1-0.3-1.2-0.7c-0.2-0.5,0-0.8,0.5-0.9c0.4-0.1,0.8,0,1,0.4c0.2,0.2,0.2,0.7,0,1    C409,36.7,408.8,36.8,408.8,36.9"/>
		<path class="st2" d="M411.4,37.4c-0.5,0-0.8-0.4-0.7-0.9c0.1-0.4,0.8-0.9,1.2-0.8c0.1,0,0.2,0.1,0.2,0.1c0.3,0.4,0,0.8,0,1.2    c0,0.2-0.3,0.3-0.5,0.3C411.6,37.3,411.5,37.4,411.4,37.4"/>
	</g>
	<g id="_x32_">
		<path class="st0" d="M209.9,20.3c-0.6,0.1-0.8,0.5-1.1,1c-1.2,2.6-1.8,5.2-1.1,8.1c0.1,0.6,0.1,1.1,0.2,1.7    c0.4,2.2,1.5,3.8,3.6,4.9c1.7,0.9,3,0.5,3.7-1.3c0.6-1.4,0.8-2.9,0.8-4.4c0-3.7-0.9-7.1-2.7-10.3c-0.3-0.5-0.5-1-1.4-1.3    C211.5,19.6,210.8,20.1,209.9,20.3 M217.2,35.6c-0.9,2.1-3.3,3.3-5.5,2.8c-3.1-0.8-5.4-2.5-6-5.9c-0.1-0.7-0.3-1.4-0.4-2    c-0.7-3.4-0.3-6.8,1.2-10c0.3-0.6,0.7-1.1,1.1-1.5c0.9-0.8,1.8-1.6,2.7-2.4c0.2-0.2,0.6-0.3,0.9-0.3c1.3-0.1,2.5,0.1,3.3,1.1    c0.6,0.7,1.2,1.4,1.5,2.2c1.1,3,2,6,2.2,9.3C218.4,31.1,218.1,33.4,217.2,35.6"/>
		<path class="st0" d="M196.8,62.4c1.7,0.8,3.5,1.2,5.2,1.7c1.8,0.5,3.6,1,5.5,1.5c0-0.4,0.1-0.8,0-1c-0.3-0.7-0.3-1.3,0.2-1.9    c0.6-0.7,0.7-1.5,0.8-2.3c0.2-2.6,0.4-5.3,0.6-7.9c0-0.5-0.1-1-0.1-1.7C207.6,51.6,199.9,59,196.8,62.4 M221.2,53.5    c0.1-1.5,0.1-3,0.2-4.5c0.1-1.8-0.2-3.5-0.4-5.2c0-0.3-0.2-0.6-0.4-0.8c-0.7-0.9-0.8-1.1-0.2-2c0.3-0.5,0.7-0.9,1.1-1.3    c0.6-0.5,0.9-1,1.2-1.7c0.1-0.4,0.2-0.7,0.4-1.1c0.2-0.5,0.9-0.8,1.5-0.6c0.5,0.1,0.9,0.7,0.9,1.3c0,0.3-0.1,0.6-0.2,0.9    c-0.3,0.8-0.6,1.7-1,2.4c-0.5,0.9-0.7,1.7-0.5,2.7c0.4,3.1,0.3,6.3,0.2,9.4c-0.1,1.7,0,3.4,0.2,5.1c0.2,1.4-0.4,1.7-1.3,2.2    s-1.6,0.3-2.1-0.5c-1-1.4-2.1-2.7-3.3-3.9c-0.4-0.3-0.7-0.8-1-1.2c-1.3-1.7-2.6-3.4-3.9-5.1c-0.1-0.1-0.2-0.1-0.4-0.2    c-0.3,0.5-0.3,1-0.4,1.6c-0.1,2.7-0.2,5.4-0.4,8.1c-0.2,1.8-0.2,3.6,0.6,5.3c0.1,0.3,0,0.6,0,0.9c0,0.4,0,0.7,0,1.1    c2.1,0.9,4.3,1,6.5,1.4c0.2,0,0.5,0,0.7-0.1c1.1-0.6,2-0.1,2.8,0.3c0.6,0.9,0.3,1.6-0.3,2.2c-0.6,0.6-1.5,1.1-2.3,0.7    c-1.3-0.6-2.7-0.6-4.1-1c-1-0.3-2.1-0.6-3.1-0.6c-0.4,0.6-0.1,1.2,0,1.7c0.2,1.6,0.6,3.1,0.7,4.7c0.1,3.7,0.9,7.4,1.3,11.1    c0.2,1.9,0.4,3.9,0.6,5.8c0.2,2.2,0.4,4.4,0.7,6.6c0.3,2,0.7,4,1.1,6c0.1,0.5,0.3,1,0.6,1.4c0.5,0.9,0.4,1.7,0.1,2.6    s-1.4,1.6-2.2,1.5c-0.6,0-1-0.4-1-0.9c0-1,0-2,0-3c0-0.6,0.1-1.3,0-1.9c-0.3-2.1-0.6-4.1-0.9-6.2c-0.3-2.4-1.1-4.7-0.8-7.1    c0-0.2,0-0.4-0.1-0.6c-0.1-0.7-0.1-1.5-0.2-2.2c-0.2-1.2-0.4-2.5-0.5-3.7c0-0.1-0.1-0.2-0.1-0.3c0,0-0.1,0-0.3,0    c0,0.4-0.1,0.8-0.1,1.2c0.2,3.7,0.2,7.3-0.7,10.9c-0.2,0.6-0.2,1.2-0.2,1.9c-0.1,2.2-0.6,4.4-1.5,6.4c-0.2,0.4-0.3,0.8-0.5,1.2    c-1,1.9-1.9,3.9-2.9,5.8c-0.4,0.7-0.9,1.2-1.7,1.4c-0.5,0.1-0.9-0.1-1.2-0.5c-0.3-0.3-0.3-0.7-0.1-1.1c0.8-1.3,1.5-2.6,2.3-3.9    c0.9-1.5,1.5-3,1.8-4.8c0.1-0.6,0.3-1.2,0.5-1.8c0.5-1.2,0.5-2.5,0.3-3.7c-0.2-0.9-0.1-1.6,0.5-2.3c0.4-0.5,0.7-1.1,0.8-1.7    c0.3-2.4,0.9-4.7,0.8-7.1c-0.1-3.3-0.2-6.5-0.6-9.8c-0.1-1-0.2-1.9-0.1-2.8c0.2-1.7,0.3-3.5,0.1-5.4c-0.4-0.2-0.9-0.4-1.3-0.6    c-4.1-1.2-8.3-2.3-12.5-3.1c-0.4-0.1-0.8-0.1-1.1-0.3c-0.9-0.3-1.2-1.4-0.6-2.1c0.3-0.3,0.6-0.5,0.9-0.7c2.3-1.8,4.5-3.7,6.5-5.9    c0.8-0.9,1.7-1.7,2.6-2.6c1.9-1.7,3.7-3.5,5.3-5.5c0.6-0.8,1.2-1.5,1.3-2.6c0.1-1,1-1.6,2-1.6s2,0.6,2.2,1.5    c0.4,1.6,1.2,3.1,2.2,4.4c0.2,0.3,0.5,0.6,0.6,0.9c0.9,1.7,2.3,3,3.6,4.4c0.2,0.3,0.6,0.4,1.1,0.7C221,54.8,221.1,54.1,221.2,53.5    "/>
		<path d="M255.3,69.1c0.2,0.2,0.4,0.2,0.4,0.4c0.4,1.8,0.8,3.6,1,5.4c0.3,2.1,0.3,4.2,0.5,6.2c0,0.2,0,0.3,0,0.5    c0.6,2,0.6,4.1,0.8,6.2c0.5,4.5,1.3,9,1.3,13.6c0,0.4,0,0.8,0.1,1.2c0.3,1.2,0.3,2.4,0.3,3.7c0,0.8,0,1.6,0.1,2.3    c0,0.7,0.4,1.3,0.9,1.7c0.4,0.3,0.8,0.5,1.3,0.2c0.6-0.3,1-1.1,0.9-1.6c-0.8-2.8-0.6-5.8-1-8.7c-0.6-4.4-1.2-8.7-1.7-13.1    c-0.2-1.6-0.2-3.2-0.4-4.9c-0.2-1.6-0.4-3.2-0.5-4.8c-0.4-3.7-0.8-7.4-1.1-11.1c-0.3-3.5-0.6-6.9-0.8-10.4c0-0.6,0-1.2,0-2.1    c0.6,0.4,1,0.7,1.3,1c3,3.2,6,6.6,8,10.9c-0.3,0.8-1,1.1-1.6,1.5c-0.5,0.3-1,0.6-1.5,1c-0.9,0.6-1.2,1.6-1,2.8    c0.1,0.5,0.2,1.1,0.4,1.5c0.3,0.7,0.6,1.4,0.9,2c0.6,1,1.1,1.9,1.2,3.1c0.1,0.7,0.6,1,1.2,0.9c1-0.2,1.5-1,1.4-2.1    c-0.1-1.3-0.4-2.6-1-3.7c-0.2-0.4-0.4-0.8-0.5-1.2c-0.2-0.6-0.1-1.1,0.4-1.4c0.9-0.7,1.8-1.3,2.6-1.9c0.3-0.2,0.7-0.5,0.9-0.8    c0.4-0.5,0.4-1.4,0.1-1.9c-2.1-2.9-4.1-5.7-6.3-8.5c-1.8-2.4-3.8-4.7-5.6-7c-0.4-0.6-0.7-1.2-1.1-1.9c-0.3-0.5-0.6-0.8-1.1-0.7    c-0.6,0.1-1.4,0-1.9,0.4c-1.7,1.2-3.6,1.5-5.5,2c-2.2,0.6-4.5,1-6.8,1.4c-0.8,0.2-1.6,0.3-2.4,0.6c-0.4,0.1-0.7,0.3-1.1,0.5    c-0.5,0.3-0.6,1-0.5,1.6c0.1,0.4,0.3,0.7,0.4,1c0.8,1.8,1.6,3.7,2.5,5.5c0.5,1.1,1.1,2.1,1.8,3c1.1,1.6,2,3.4,2.8,5.4    c-0.4,0.5-0.8,1.1-1.2,1.4c-1.4,1.1-2.3,2.7-3.4,4.1c-0.7,0.8-0.4,2,0.6,2.4c1,0.5,2,0.1,2.4-1.2c0.4-1.4,1.2-2.1,2.1-2.9    c0.4-0.3,0.8-0.6,1.2-0.8c0.5-0.3,0.9-0.5,1.5-0.9c0.2-0.5,0.5-1.2,0.7-1.8c-0.1-0.3-0.1-0.5-0.2-0.7c-2.3-2.9-3.8-6.4-5.7-9.6    c-0.9-1.4-1.3-3-1.6-4.6c0.4-0.8,1-0.8,1.6-1c2.1-0.5,4.3-0.9,6.4-1.3c0.8-0.2,1.6-0.4,2.4-0.6s1.4,0.2,1.4,1.4    c0,2.8,0,5.6-0.1,8.4c-0.1,3.5-0.2,7-0.3,10.5c0,2.8-0.2,5.6-0.6,8.3c-0.3,2.6-0.4,5.3-0.6,7.9c-0.2,2.5-0.6,4.9-0.9,7.4    c-0.3,2.2-0.6,4.5-1.2,6.6c-0.5,1.7-0.6,3.5-0.8,5.2c-0.2,1.6,1,2.8,2.3,2.6c1-0.2,1.8-1.3,1.4-2.5c-0.5-1.7-0.3-3.4,0-5.1    c0.4-2.7,0.7-5.4,1-8.1c0-0.2,0.1-0.5,0.1-0.7c-0.1-3.3,0.9-6.4,0.7-9.7c0-0.4,0.1-0.9,0.2-1.4c0.5-2.6,0.6-5.2,0.8-7.8    C255.1,72.6,255.4,70.9,255.3,69.1"/>
		<path d="M302.9,36.1c0.6-2.9,0.9-5.9,0.6-8.9c-0.1-0.7-0.2-1.3-0.4-2c-0.1-0.2-0.2-0.6-0.3-0.6c-0.8-0.3-1.4-1-2-1.8    c-0.1-0.2-0.5-0.1-0.7,0c-0.3,0.2-0.6,0.4-0.7,0.8c-0.9,2.4-1.9,4.7-2.1,7.4c-0.1,1.6-0.1,3.2-0.2,4.9c0,0.5,0.1,1,0.2,1.5    c0.3,1.4,1.3,2.2,2.2,1.6c0.7-0.5,1.3-0.4,1.9,0.1C302.3,38.1,302.7,37.2,302.9,36.1 M294.7,28.6c0.3-3.8,1.7-6.7,4.2-8.4    c2.4-1.7,5-1.3,6.2,2.6c0.7,2.3,1.1,4.6,1.1,7c-0.1,2.5-0.1,5-0.9,7.3c-0.5,1.5-1,3-2.1,3.9c-2,1.6-4.2,2-6.4,0.5    c-1-0.6-1.7-1.6-1.9-3c-0.2-1.3-0.3-2.5-0.4-3.8c-0.1-0.9-0.2-1.8-0.3-3.3C294.7,30.8,294.6,29.7,294.7,28.6"/>
		<path d="M252.8,24.5c0.4-1.5,0.7-3,0-4.5c-0.4-0.8-0.7-1.9-1.7-2.1c-1,0.8-1.2,2-1.3,3.2c-0.3,3.1-0.3,6.2,0.4,9.2    c0.6,2.6,1.6,4.9,3.4,6.5c0.3,0.3,0.7,0.5,1,0.6c0.6,0.3,1.2,0,1.5-0.6c0.3-0.5,0.5-1.1,0.6-1.7c0.6-3.6,0.4-7.1-0.4-10.6    c-0.1-0.4-0.2-0.7-0.4-1.1C254.9,23.9,254.1,25.2,252.8,24.5 M247.5,24.5c0-0.7-0.1-1.4-0.1-2.1c0-1.6,0.1-3.3,0.5-4.8    c0.4-1.4,1.2-2.2,2.4-2.3c1.2-0.1,2.4,0,3.4,1.1c0.4,0.4,0.8,0.7,1.4,0.7c0.9,0,1.6,0.6,2,1.5c0.2,0.5,0.4,0.9,0.6,1.4    c1.6,4.6,2,9.4,1.7,14.4c-0.1,1.9-0.6,3.6-2,4.8c-0.8,0.7-1.7,1.1-2.7,0.7c-0.5-0.2-1-0.3-1.4-0.6c-2.9-2-5-4.9-5.5-9    c-0.3-1.9-0.3-3.8-0.5-5.8C247.4,24.5,247.4,24.5,247.5,24.5"/>
		<path d="M298.4,55.5c0,0,0-0.1,0.1-0.2l-0.1-0.1C298.4,55.2,298.3,55.3,298.4,55.5C298.3,55.5,298.4,55.6,298.4,55.5 M296.8,57.6    c-1.9,3.3-4.2,6-6.6,8.6c-0.7,0.7-1.3,1-2.1,0.8c-0.6-0.1-1-0.7-1-1.6c0-1.2,0-2.4,0.1-3.6c0.1-2.1,0.1-4.2,0.4-6.2    c0.6-3.7,1.3-7.4,2-11.1c0.1-0.5,0.2-1,0.4-1.5s0.4-0.8,0.9-0.8c0.4,0,0.7,0.3,0.8,0.9c0.3,1.7,0.8,3.5,0,5.2    c-0.2,0.4-0.2,0.8-0.4,1.2c-1.1,3.5-1.5,7.1-1.5,10.9c0,0.7-0.1,1.5,0.3,2.2c0.1,0,0.2,0,0.2,0c2.4-2.7,4.6-5.4,6.1-9.1    c0.4-0.9,0.8-1.8,1.3-2.6c0.6-1.1,1.4-1.5,2.3-1.3c0.7,0.2,1.3,0.6,1.9,1.2c0.5,0.7,1,1.4,1.6,1.9c2.2,1.9,4.4,3.9,6.7,5.4    c1.6,1.1,3,2.5,4.4,4.1c0.7,0.8,1.4,1.6,2,2.4c0.2,0.2,0.4,0.5,0.5,0.7c0.3,0.5,0.2,1.2-0.2,1.6c-0.5,0.5-1.1,0.4-1.7,0.4    c-1.9-0.1-3.7,0.2-5.5,0.8c-0.3,0.1-0.7,0-0.8,0.7c0.2,0.5,0.5,1.1,0.8,1.7c0.4,0.9,0.3,1.8,0,2.7c-0.3,0.9-1.2,1.3-1.6,0.5    c-0.6-1.6-1.7-2-2.8-2.5c-0.4-0.2-0.7-0.5-1-0.9c-0.9-1-0.8-2.2,0.1-3c0.3-0.2,0.5-0.5,0.8-0.6c2.1-0.7,4.1-1.8,6.4-1.8    c0.5,0,1,0.2,1.6-0.4c-0.2-0.3-0.2-0.6-0.4-0.8c-0.9-1.1-7.9-6.4-9.8-7.6c-0.6,0.3-1.1,0.6-1.7,0.9c0,0.5,0,0.8,0,1.1    c0.1,3.1,0.2,6.2,0.3,9.3c0.1,1.6,0.1,3.3,0.2,4.9c0.2,3.7,0.5,7.4,0.7,11.1c0.1,1.7,0.1,3.5,0.2,5.2c0.3,3.9,0.8,7.9,1.1,11.8    c0.2,2.6,0.4,5.1,0.9,7.6c0.2,0.8,0.4,1.7,0.5,2.5c0.2,1.1-0.2,1.8-1,2.1c-0.1,0.1-0.3,0.1-0.4,0.1c-0.9,0.2-1.3-0.2-1.4-1.4    c-0.1-1.4-0.3-2.7-0.4-4.1c-0.1-1.5-0.3-2.9-0.4-4.4c-0.2-2.9-0.2-5.9-0.6-8.7c-0.4-3.6-0.6-7.2-0.7-10.8c-0.1-2-0.2-4-0.3-6.2    c-0.2,0.3-0.4,0.4-0.4,0.5c-0.6,4-1.2,7.9-1.6,11.9c-0.4,3.8-0.7,7.7-1.5,11.4c-0.3,1.5-0.6,3-0.8,4.5c-0.3,1.7-1.5,3.2-2.8,3.2    c-0.3,0-0.8-0.3-1-0.6c-0.5-0.8-0.4-2.1,0.1-2.8c0.5-0.7,0.8-1.5,0.9-2.5c0-0.4,0.2-0.9,0.4-1.1c1-1.1,1.3-2.8,1.5-4.4    c0.4-2.4,0.8-4.9,0.9-7.4c0.1-1.6,0.3-3.2,0.5-4.9c0.3-2.7,0.8-5.4,1-8.2c0.4-4.5,0.7-9.1,1-13.6c0-0.2,0-0.4,0-0.5    c-0.4-1.4-0.1-2.9,0-4.3c0-0.7,0.2-1.4-0.6-2.1C297.3,56.9,297,57.3,296.8,57.6"/>
		<path d="M356.8,65.3c-1.5-2-2.9-4.1-4-6.3c-0.1-0.2-0.1-0.3-0.3-0.5c-1.1-1.3-2.2-2.7-3.3-4c-0.1-0.1-0.2-0.1-0.5-0.2    c-0.1,0.5-0.3,1-0.3,1.5c0,1.6,0.1,3.1,0.1,4.7c0,0.7,0,1.3,0.4,1.9c0.3,0.5,0.2,1,0,1.6c-0.4,0.8-0.5,1.6-0.1,2.5    c1.4-0.1,2.8-0.2,4.2-0.2c1.3,0,2.7,0.1,4.1,0C357,65.8,357,65.6,356.8,65.3 M349.8,76c0.6,3.6,0.9,7.2,1.3,10.8    c0.3,2.7,0.5,5.4,0.9,8.1c0.4,2.2,0.6,4.4,0.7,6.6c0,1.3,0.2,2.5,0.3,3.8c0.1,1.6,0.2,3.1,0.4,4.7c0.1,0.9-0.3,1.4-1,1.8    c-1,0.6-2.1,0.1-2.2-1.1c-0.1-1.3-0.1-2.6-0.2-4c0-0.2,0-0.5,0.1-0.7c0.5-0.8,0.4-1.6,0.3-2.5c-0.1-0.7-0.1-1.3-0.1-2    c0-1.2,0.1-2.4,0-3.6c-0.3-2.2-0.7-4.4-1-6.6c-0.2-1.3-0.3-2.5-0.5-3.8c-0.3-2.3-0.5-4.7-0.8-7c-0.1-0.6-0.4-1.2-0.4-1.8    c-0.1-2-0.8-3.9-0.9-5.9c0-0.3-0.1-0.6-0.6-0.6c-0.3,1.6-0.6,3.2-0.8,4.8c-0.3,2.4-0.7,4.9-1.2,7.3c-1,4.4-1.5,8.8-2,13.2    c-0.2,2-0.8,3.9-1.6,5.7c-0.5,1.1-1,2.2-1.5,3.3c-0.4,0.9-0.8,1.9-1.2,2.9c-0.1,0.3-0.4,0.6-0.6,0.9c-0.3,0.3-0.8,0.4-1.2,0.2    c-0.5-0.2-0.8-0.6-0.8-1.1c0.1-0.5,0.2-1.1,0.4-1.6c0.7-2,1.5-4.1,2.3-6.1c0.2-0.5,0.5-1,0.6-1.5c0.2-0.6,0.4-1.1,0.5-1.7    c0.1-0.8,0.1-1.6,0-2.3c-0.1-0.8,0-1.6,0.4-2.3c0.6-1.3,1-2.6,1.2-4c0.2-1.6,0.5-3.2,0.8-4.8c0.2-0.9,0.5-1.9,0.7-2.8    c0.4-1.7,0.5-3.4,0.7-5.2c0.2-2.2,0.6-4.4,0.9-6.6c0-0.2-0.1-0.3-0.2-0.6c-1.5,0.2-3,0.5-4.5,1c-0.3,0.1-0.7,0.4-0.9,0.7    c-0.5,0.7-1.2,0.7-1.9,0.5s-1.3-0.6-1.7-1.1c-0.1-0.8,0.3-1.3,1-1.6c0.6-0.2,1.2-0.4,1.8-0.5c2.1-0.5,4.1-0.9,6.2-1.3    c0.6-0.1,1-0.4,1.2-1c0.4-1.4,0.9-2.8,1.2-4.2c0.2-0.8,0.2-1.7,0.2-2.5c0-1.2,0-2.4-0.1-3.6c0-1-0.1-2-0.1-3.2    c-1.5,0.2-3,0.4-4.4,0.8c-1.8,0.5-3.6,1.3-5.2,2.2c-1.5,0.8-2.9,1.8-4.2,2.9c-0.7,0.6-1.6,0.8-2.5,0.5s-1.1-0.9-1.1-1.7    c0.3-0.5,0.6-1,0.9-1.6c0.2-0.6,0.3-1.3,0.5-1.9c0.5-2,1-4,1.5-6c0.2-0.8,0.3-1.5,0.4-2.2c-0.7-0.8-1.6-1.2-2.4-1.7    c-0.6-0.3-0.9-0.7-1-1.3c0-0.2,0-0.5,0.1-0.7c0.7-0.9,2.2-1.1,3.1-0.5c0.5,0.4,1,0.8,1.5,1.1c0.4,0.3,0.7,0.5,1.1,0.8    c1,0.9,1.1,1.3,0.2,2.3c-0.3,0.3-0.5,0.7-0.6,1.1c-0.2,1.3-0.5,2.6-0.8,3.9s-0.3,2.6,0,4c0.8-0.2,1.3-0.6,1.9-0.9    c2.1-1.1,4.3-2.1,6.6-2.7c1.2-0.3,2.5-0.6,3.2-1.8c0.1-0.1,0.2-0.2,0.3-0.2c0.8-0.3,1.4-0.8,2.1-1.2c1-0.5,2.3-0.4,2.8,1    c0.3,1.1,0.9,2,1.5,2.9c0.4,0.6,0.8,1.2,1.2,1.9c1.9,3.2,3.8,6.3,5.7,9.5c0.8,1.4,1.8,2.7,3.2,3.6c0.2,0.1,0.3,0.4,0.4,0.6    c0.1,0.8-0.5,1.6-1.4,1.6c-0.5,0-1,0-1.5-0.2c-2.7-0.9-5.6-0.7-8.4-0.6c-0.4,0-0.7,0.2-1.1,0.4C349,71.3,349.4,73.7,349.8,76"/>
		<path d="M349.9,24.5c-0.1,0-0.3,0-0.3-0.1c-0.6-0.5-1.1-1-1.7-1.4c-0.6-0.4-1.1-0.4-1.7,0.2c-0.8,0.8-1.4,1.7-1.8,2.7    c-0.9,2.3-1.5,4.7-0.8,7.2c0.3,1.3,0.7,2.6,1.7,3.6c1.1,1.1,2.2,1.6,3.4-0.4c0.4-0.6,0.7-1.3,0.9-2c0.6-2.5,1.3-5,1.5-7.6    c0-0.7,0-1.4,0-2.2c0-0.2-0.2-0.4-0.3-0.7C350.3,24.1,350.1,24.3,349.9,24.5 M345.5,18.1c1.9-0.3,3.6,0.1,5,1.3s1.9,3,2.8,4.5    c0.1,0.1,0.1,0.2,0.1,0.4c0,1.1,0.2,2.3,0,3.4c-0.2,0.9-0.3,1.8-0.4,2.7c-0.5,2.3-1,4.6-2,6.8c-0.4,0.8-0.9,1.6-1.7,2.2    c-0.4,0.3-0.8,0.5-1.4,0.5c-2.4,0.2-4.3-0.5-5.6-2.5c-0.2-0.3-0.4-0.6-0.6-0.9c-1-1.9-1.3-3.9-1.2-6c0.1-1.7,0.7-3.2,1.1-4.8    c0.3-1.3,1-2.5,1.8-3.6c0.9-1.3,2.2-1.8,3.8-1.6c0.6,0.1,1.2,0.2,1.9,0.3c-0.7-1.2-1.7-1.8-3-1.9c-0.3,0-0.5,0-0.8-0.1    c-0.1,0-0.2-0.3-0.3-0.4C345.2,18.3,345.4,18.2,345.5,18.1"/>
	</g>
	<g id="_x31_">
		<path class="st0" d="M105,45.1c0.5,0.1,0.9,0.1,1.3,0.2c0.9,0.1,1.5,0.6,1.7,1.5c0.2,0.9-0.1,1.7-0.9,2.2c-1,0.6-2,1.3-3,2    c-3.4,2.5-6.6,5.3-9.5,8.4c-0.6,0.7-1.4,1.3-2.1,1.9c-1.4-0.2-2.3-0.9-3.1-1.9c-1.9-2.3-3.8-4.5-5.8-6.7c-0.3-0.3-0.6-0.5-1.2-1.1    c-0.4,6-1.1,11.6-1.2,17.1c-0.9,0.7-1.5,0.4-2.1-0.1c-0.7-0.5-1.2-1.1-1.1-2c0.1-2.4,0.3-4.8,0.5-7.2c0.2-2.8,0.4-5.6,0.3-8.4    c-4,4.4-7.2,9.3-10.6,14.3c-1.3-0.1-2.6-0.2-3.8-0.3c-0.8-0.1-1.3-0.6-1.6-1.4c-0.4-1.1,0.1-2,1.3-1.9c1.9,0.1,2.6-0.9,3.3-2.4    c0.3-0.8,1-1.4,1.5-2.1c2.1-2.8,4.3-5.5,6.4-8.3c1-1.3,2-2.7,2.8-4.2c0.8-1.3,2-1.2,3.1-1.1c1,0.1,1.9,1.4,1.7,2.7    c-0.3,1.5,0.5,2.5,1.3,3.4c1.6,2,3.4,4,5.1,6c1.3,1.5,1.8,1.5,3.3,0.2c3.2-2.7,6.4-5.5,9.6-8.2C103.1,46.8,104,46,105,45.1"/>
		<path class="st0" d="M79.8,29.6c-0.2,0.1-0.3,0.1-0.5,0.2c0.5,1.7,0.9,3.5,1.5,5.1c0.5,1.3,1.3,1.4,2.4,0.6c0.8-0.6,1.6-1.3,2-2.4    c1-2.6,1.4-5.2,1.1-7.9c-0.1-1.1-0.1-2.2-0.5-3.2c-0.2-0.6-0.8-1.3-1.4-1.5c-0.4-0.1-1.1,0.6-1.5,1c-0.3,0.3-0.5,0.8-0.7,1.2    c-0.8,2.3-1.4,4.5,0.6,6.5c0.4,0.4,0.5,1.2,0.8,1.8C82,31.4,80.8,30.6,79.8,29.6 M76.3,22.4c0.1-1.7,0.4-3.2,2-4.2    c0.3-0.2,0.8-0.5,1.1-0.4c1.3,0.6,2.3-0.3,3.4-0.5c2-0.4,3.4,0.9,4.6,2.3c0.5,0.6,0.8,1.3,1,2c1.5,5.1,1.6,10.2-0.9,15.1    c-1.4,2.8-4.4,3.5-6.9,1.5c-1.7-1.3-2.6-3.2-3.2-5.2C76.4,29.4,76.1,25.9,76.3,22.4"/>
		<path class="st2" d="M150.6,11.3c-0.2-0.5-0.4-1-0.5-1.4c-0.1-0.3,0-0.6,0.3-0.8c0.2-0.1,0.5-0.2,0.8-0.3c0-1.1-0.2-1.3-1.1-1.6    c-0.2-0.1-0.3-0.1-0.5-0.1c-0.4-0.1-0.7,0.1-0.7,0.5c0,1.4,0.2,2.7,0.8,3.9C150,11.5,150.2,11.4,150.6,11.3 M147,6.9    c-0.3,0-0.4-0.1-0.5-0.1c-1.3,0-2.6,0.1-3.8,0.1c-0.9,0-1.8-0.1-2.7-0.1c-1.6-0.1-3.3,0.1-4.9-0.3c-1.7-0.1-3.5,0-5,0.9    c-0.4,0.2-0.8,0.3-1.2,0.5c-0.5,0.2-0.5,0.8-0.9,1.1c-0.4,0.3-0.5,0.8-0.5,1.2c-0.1,0.8,0.5,1.4,1.4,1.3c0.2,0,0.5,0,0.7,0    c1.1,0.4,2.3,0.5,3.5,0.6c2.7,0.3,5.5,0.3,8.2,0c2-0.2,4-0.5,6-0.4c0.2,0,0.4-0.1,0.6-0.1C147.5,10,146.9,8.5,147,6.9 M151.7,41.1    c0.1-0.8,0.3-1.5,0.2-2.1c-0.1-0.9,0.1-1.7-0.1-2.6c-0.1-0.2,0.1-0.5,0.1-0.7c0.2-0.9,0.4-1.8,0.3-2.8c-0.2-1.6-0.3-3.2-0.6-4.8    c-0.2-1.1-0.3-2.1-0.3-3.2c0-1.4,0-2.8-0.1-4.2c-0.1-1.5-0.2-3-0.1-4.5c0.1-0.9-0.1-1.1-0.9-1.4c-0.4-0.1-0.8-0.4-1-0.7    c-0.4-0.5-0.9-0.6-1.5-0.7c-1,0-1.9-0.1-2.9,0c-0.4,0.1-0.8,0-1.1,0c-0.4,0-0.8,0-1.2,0c-2.1,0.2-4.1,0.4-6.2,0.4    c-0.5,0-1,0-1.5-0.1c-1.3-0.1-2.5-0.3-3.8-0.4c-0.6-0.1-0.8,0.2-0.7,0.7c0,0.2,0.1,0.3,0.2,0.5c0.2,0.4,0.2,0.9,0.3,1.4    c0.2,2.1-0.3,4.3-0.1,6.4c0,0.2-0.1,0.5-0.1,0.7c-0.1,1.2-0.2,2.3-0.3,3.5c-0.1,1.1,0,2.3-0.2,3.4c-0.1,0.6-0.1,1.3,0,1.9    c0.2,1.1,0.1,2.2,0.4,3.2c0,0,0,0.1,0,0.1c0.1,0.9,0.1,1.9,0.2,2.8c0.1,0.6,0.2,1.2,0.3,1.9c0.1,0.4,0.3,0.6,0.6,0.7    c0.9,0.2,1.8,0.3,2.7,0.2c1-0.1,1.9-0.1,2.9-0.2c1.2,0,2.5-0.1,3.7-0.5c0.6-0.2,1.3-0.2,2-0.2c0.4,0,0.8,0.1,1.2,0    c0.6,0,1.2-0.1,1.8-0.1c1-0.1,2,0,3,0.4C149.6,40.9,150.6,40.9,151.7,41.1 M127.9,13.2c-0.5-0.3-1-0.6-1.5-0.9    c-1.1-0.6-1.4-1.4-1-2.6c0.1-0.4,0.3-0.7,0.4-1.1c0.3-0.6,0.5-1.2,0.7-1.8c0.2-0.5,0.5-0.9,1.1-0.8c1,0.1,1.8-0.3,2.7-0.7    c1.1-0.5,2.3-0.6,3.5-0.6c1.1,0,2.3,0.2,3.4,0.2c1.6,0.1,3.1,0.1,4.7,0.1c1.5,0,2.9-0.1,4.4-0.2c0.3,0,0.6,0,0.9,0.1    c0.6,0,1.2,0.1,1.9,0.1c0.2,0,0.3,0,0.5,0c1.5,0.1,2.4,1.1,3,2.4c0.2,0.4,0.3,0.8,0.3,1.2c0.1,0.6,0.2,1.3,0.4,1.9    c0.1,0.2,0.1,0.4,0,0.6c-0.4,1-0.4,2.1-0.5,3.2c0,0.4-0.1,0.8-0.1,1.2c-0.2,1.3-0.1,2.6-0.1,3.9c0,1.8,0.1,3.5,0.1,5.3    c0,1,0.1,2,0.4,3c0.1,0.3,0.1,0.6,0.2,0.9c0.2,1.1,0.3,2.2,0.6,3.3c0.1,0.4,0.1,0.8,0.1,1.2c-0.1,1.3-0.1,2.6,0.2,3.9    c0.1,0.4,0,0.8-0.1,1.2c-0.3,1-0.5,2-0.4,3c0,0.3,0.2,0.6,0.3,0.9c0.1,0.2,0.2,0.5,0.2,0.7c0,0.8-0.6,1-1.3,1.1    c-0.3,0-0.7-0.1-1-0.3c-0.6-0.5-1.3-0.7-2.1-0.8c-0.3,0-0.5-0.1-0.8-0.2c-1-0.4-2.1-0.5-3.2-0.3c-0.4,0.1-0.9,0.1-1.3,0.2    c-0.5,0.1-0.9,0-1.4-0.1c-0.5-0.2-1-0.2-1.5-0.1c-0.4,0-0.8,0.1-1.1,0.2c-1.4,0.3-2.9,0.2-4.3,0.3c-0.8,0-1.6,0-2.4,0.1    c-0.7,0.1-1.4,0-2.1-0.1c-0.3-0.1-0.7-0.1-1-0.2c-0.5-0.1-1.1-0.2-1.6-0.2c-0.5,0-1-0.1-1.3-0.5c-0.4-0.5-0.4-1.1,0.1-1.5    c0.1-0.1,0.2-0.1,0.3-0.2c0.8-0.2,0.9-0.8,0.8-1.5c-0.1-1.6-0.2-3.1-0.3-4.7c-0.1-1.1-0.1-2.3,0-3.4c0.1-1.1,0.1-2.3,0.1-3.4    c0-0.7,0.1-1.5,0.1-2.2c0-0.7,0-1.5,0-2.2c0-0.2,0-0.4,0-0.6c0.2-1.5,0-2.9,0-4.4c0-0.5-0.1-1-0.2-1.5c-0.1-0.4-0.2-0.8-0.5-1.1    c-0.5-0.5-0.5-1-0.2-1.6C128,13.5,127.9,13.4,127.9,13.2"/>
		<path class="st2" d="M144.2,33.4c-1.4-0.2-2.7-0.4-4.1-0.4c-0.3,0.9-0.2,1.8,0.2,2.7c0.2,0,0.3,0,0.5,0c0.7-0.1,1.4-0.2,2.2-0.1    c0.5,0,1-0.1,1.6-0.2C144.6,34.7,144.4,34.1,144.2,33.4 M133.5,22.6c0.7,0.2,2.3,0.4,3.2,0.3c0.5,0,1-0.1,1.4-0.4    c0-0.9,0-1.7-0.3-2.6c-0.1-0.3-0.1-0.7-0.2-1c-0.1-0.5-0.2-0.6-0.6-0.6c-0.3,0-0.7,0-1,0c-0.7,0-1.4,0-2,0.3    C133.8,19.9,133.6,21.3,133.5,22.6 M141.5,31.3c1.1,0.1,2.1,0.4,3.2,0.3c0.3,0,0.6,0,0.8,0.1c0.7,0.2,0.9,0.5,0.9,1.2    c0,0.7,0.1,1.4,0.3,2.1c0.1,0.4,0.2,0.7,0.4,1.1c0.5,1.1-0.3,1.5-1.1,1.5c-0.2,0-0.3-0.1-0.5-0.1c-1.3-0.3-2.7-0.1-4,0    c-0.3,0-0.6,0.2-0.8,0.4c-0.3,0.2-0.6,0.4-1,0.6c-0.4,0.2-0.7,0.2-1.1,0c-0.4-0.2-0.6-0.4-0.5-1c0.2-0.7,0.1-1.4,0.1-2.2    c0-0.5-0.1-1-0.1-1.6c0-0.3,0-0.7-0.1-1c-0.1-0.4-0.1-0.7,0.1-1.1c0.2-0.3,0.5-0.4,0.9-0.4c0.1,0,0.1,0,0.2-0.1    c0-0.8,0-1.3-0.3-1.9c0-0.1-0.1-0.2-0.2-0.3c-0.3-0.7-0.1-1.2,0.6-1.4c0.1,0,0.2-0.1,0.3-0.1c1.5,0.1,2.8-0.6,4.2-0.9    c0-0.2,0.1-0.4,0.1-0.6c-0.1-1.7-0.3-3.3-0.2-5c0-0.2-0.1-0.5-0.1-0.8c-0.8,0-1.4,0.1-2.1,0.5c-0.4,0.2-0.7,0.4-1.1,0.6    c-0.3,0.2-0.4,0.3-0.3,0.7c0.1,0.4,0.2,0.8,0.3,1.2c0.2,0.7-0.1,1.1-0.7,1.2c-0.2,0-0.4,0.1-0.6,0.1c-1.4,0.1-2.8,0.3-4.1,0    c-0.6-0.1-1.2-0.1-1.9,0.1c-0.4,0.1-0.8,0.1-1.2-0.1c-0.5-0.3-0.7-0.7-0.4-1.3c0.2-0.5,0.4-1,0.6-1.5c0.3-0.7,0.3-1.4,0.3-2.2    c0-0.5-0.1-0.9-0.5-1.2c-0.4-0.4-0.4-0.9,0.1-1.3c0.3-0.3,0.7-0.5,1.1-0.3c1.1,0.4,2.2,0.2,3.3,0.2c1.1,0,2.2-0.1,3.3-0.1    c0.1,0,0.3,0,0.4,0.1c0.3,0.1,0.5,0.4,0.4,0.8c-0.1,0.2-0.2,0.4-0.3,0.5c-0.1,0.2-0.2,0.3-0.3,0.5c0,0.6,0.2,0.8,0.7,0.6    c1.1-0.5,2.3-0.7,3.4-1.3c0.8-0.4,1.7,0.1,1.8,1c0.1,0.5,0.1,1,0,1.5c-0.1,0.8-0.1,1.7-0.1,2.5c0,0.6,0,1.2,0.1,1.9    c0.1,0.8,0.2,1.5,0.7,2.1c0.2,0.3,0.3,0.6,0.1,1c-0.2,0.4-0.5,0.6-1,0.6c-0.1,0-0.2,0-0.3,0c-0.9-0.3-1.8-0.1-2.7,0.1    c-0.4,0.1-0.8,0.3-1.2,0.5c-0.1,0-0.1,0.2-0.1,0.4c0,0.1,0,0.1,0.1,0.2C141.5,30.4,141.5,30.4,141.5,31.3"/>
		<path d="M97,76.7c-1.2-0.1-2.3-0.3-3.3-0.3c-3.6,0.2-7.3,0.5-10.9,0.7c-2,0.1-4-0.1-6.1-0.1c-1.3,0-2.6,0-4.1,0    c-0.2,2.3-0.3,4.3-0.5,6.4c-0.1,0.7-0.2,1.4-0.4,2c-0.3,0.8-1.2,1-1.8,0.3c-0.7-0.9-0.9-1.9-0.6-3.1c0.4-1.6,0.5-3.3,0.5-5    c-1.5,0-2.7-0.6-4.1-0.4c-1,0.1-2-1.5-1.7-2.5c0.1-0.2,0.1-0.4,0.3-0.4c0.9-0.3,1.9-0.9,2.7-0.7c1.5,0.4,3,0.2,4.5,0.2    c2.7,0,5.4,0.2,8.1,0.1c3.6-0.1,7.1-0.5,10.7-0.7c2.9-0.1,5.8,0,8.6,0c1.4,0,2.9-0.2,4.3-0.3c1.3-0.1,2.1,0.4,2.4,1.6    c0.2,1-0.1,1.6-1.1,1.7c-1.1,0.2-2.2,0.3-3.3,0.4c-0.8,0.1-1.2,0.3-1.2,1.1c0.1,2.1,0.1,4.1,0.2,6.2c0,1,0,2.1-0.1,3.1    c0,0.4-0.4,0.8-0.8,1c-0.2,0.1-0.8-0.2-1-0.4c-0.9-0.9-1.3-1.9-1.2-3.2C97.3,81.8,97.1,79.4,97,76.7"/>
		<path d="M62,93.8c-0.5-0.6-1-1-1.4-1.5c-2,0.9-3.3,2.7-3.3,4.5c0,1.1,0.5,1.8,1.4,2.2c1.4,0.5,3.5-0.3,3.9-1.7    c0.4-1.2,0.5-2.4,0.7-3.7c0-0.1-0.2-0.3-0.3-0.5C62.7,93.3,62.4,93.5,62,93.8 M65.8,95.8c-0.3,1.2-0.6,2.3-0.9,3.5    c-0.6,1.9-2,2.8-3.9,2.9c-4,0.2-5.9-2.8-6.2-5.6c-0.4-3.2,1.4-5.2,3.7-6.9c0.8-0.6,1.6-1.6,2.9-1.2c0.5,0.1,1,0.2,1.4,0.6    C64.7,90.8,66.1,92.9,65.8,95.8"/>
		<path d="M71.6,101.5c-1.5,1.4-2.3,3.3-2.7,5.4c-0.3,1.3,0.4,1.9,1.7,1.9c1.7,0,2.6-1.2,3.4-2.4c0.6-0.9,1.3-1.9,1.1-3.2    c-0.1-0.6-0.3-1-1.1-1.1C73.2,102,72.5,101.8,71.6,101.5 M77.6,104.5c-0.5,2.5-1.2,4.5-2.9,6.2c-1.3,1.3-2.8,1.8-4.5,1.4    c-2-0.5-3.1-1.9-3.6-3.8c-1-3.9,0.7-6.9,3.3-9.6c0.2-0.2,0.5-0.4,0.8-0.3c1.5,0.2,3.2,0.2,4.5,0.8    C77.4,100.3,77.6,102.6,77.6,104.5"/>
		<path d="M84.2,92.6c-1.1,1.7-1.8,3.8-2,6.1c0,0.4,0.1,0.9,0.3,1.3c0.4,1.1,1.3,1.3,2.2,0.7c0.5-0.3,0.9-0.7,1.3-1.1    c1.4-1.4,2.7-4.1,1.1-6.3C86,93,85.2,92.8,84.2,92.6 M90.3,97.3c-0.1,2.5-1.4,4.4-3.2,5.9c-2.2,1.9-5.2,1.1-6.7-1.6    c-0.7-1.4-1.2-2.9-0.8-4.5c0.5-2,1-4.1,1.8-5.9c1.2-2.8,4.6-3.1,6.6-0.8C89.8,92.4,90.4,94.8,90.3,97.3"/>
		<path d="M100.2,105.4c-0.1-0.3-0.1-1-0.4-1.3c-0.6-0.8-3.2-0.8-3.8-0.1c-1.2,1.4-2.1,3-2.4,4.9c-0.1,0.8,0.2,1.4,1,1.6    c0.7,0.1,1.4,0.2,2-0.1C98.6,109.5,99.8,107.9,100.2,105.4 M102.8,106.5c-0.1,1.7-0.9,3.2-1.7,4.6c-1.2,2.1-4.4,3-6.6,2.4    c-1.7-0.4-3.5-2.8-3.6-4.9c-0.1-3,1.2-5.3,3.2-7.4c0.2-0.2,0.6-0.4,0.9-0.5c0.6-0.3,4.7-0.2,5.3,0.1c1.4,0.6,2.7,3.2,2.6,5    C102.9,106,102.8,106.3,102.8,106.5"/>
		<path d="M108.3,95.7c-1.4,4-1.6,5.1-1,6.4c2.6-1.2,3.6-3.1,3-5.2C109.6,96.4,109,96,108.3,95.7 M104.4,99.2    c0.6-2.2,1.1-4.4,1.8-6.6c0.3-1,0.9-1.1,1.9-0.7c0.5,0.3,1.1,0.5,1.7,0.7c1.4,0.3,2.1,1.5,2.7,2.6c1.4,2.7,1.2,6.9-2,9.1    c-1.1,0.8-2.5,1.4-3.7,0.6c-0.9-0.7-1.6-1.8-2.1-2.8C104.3,101.2,104.4,100.2,104.4,99.2"/>
		<path d="M121.6,103.9c-0.5,0.3-1.2,0.4-1.6,0.8c-1.8,2-3.4,4.2-3.6,7.1c0,0.5,0.2,1.1,0.5,1.4c0.9,0.9,2.1,1.2,3.3,0.7    c1.3-0.5,2.5-0.9,2.7-2.6C123.2,108.8,123.5,106.3,121.6,103.9 M125.9,111.9c-0.2,0.8-0.4,1.7-0.7,2.5c-1,2.2-2.8,3.1-5.1,2.9    c-4.8-0.4-7-4.7-6-8.7c0.6-2.4,1.7-4.7,3.5-6.5c1.2-1.3,2.5-1.5,4.1-0.7c0.3,0.1,0.5,0.4,0.7,0.4c1.5,0,2,1.2,2.5,2.3    C125.8,106.6,126,109.2,125.9,111.9"/>
	</g>
</g>
<g id="Fleches">
	<path class="st0" d="M181.9,76.4c-0.2,0-0.4,0.1-0.6,0.1c0.1,0.1,0.1,0.1,0.2,0.2c0.1,0,0.4,0.1,0.3,0.3c0,0.1-0.1,0.3-0.2,0.4   c-0.3,0.3-0.7,0.2-1,0.1s-0.6-0.2-0.9-0.4c0.1-0.3,0.2-0.5,0.3-0.8c-0.1,0-0.1-0.1-0.3-0.1c0-0.1,0-0.3,0.1-0.4   c0.3-0.4,0.4-0.9,0.7-1.3s0.6-0.9,0.9-1.3c0.7-0.9,1.3-1.8,2-2.6c0.4-0.5,1-1.1,1.4-1.6c0.5-0.6,1.1-1.3,1.6-1.9   c0.2-0.2,0.5-0.4,0.7-0.6c0.3-0.3,0.5-0.5,0.7-0.8c0.1-0.1,0.1-0.3,0.1-0.5c0-0.1,0-0.3,0-0.5c-0.1-0.1-0.2-0.2-0.4-0.4   c-0.1-0.2-0.3-0.4-0.4-0.4c-0.3-0.1-0.4-0.4-0.4-0.6c0-0.4-0.2-0.7-0.4-0.9c-0.5-0.5-0.8-1.1-1-1.7c-0.1-0.3-0.2-0.7-0.4-1   c0-0.1-0.2-0.2-0.3-0.2c-0.3-0.4-0.7-0.8-0.7-1.4c0-0.1-0.1-0.1-0.2-0.2c-0.1-0.1-0.1-0.1-0.1-0.2c0-0.5-0.3-0.9-0.7-1.2   c-0.1-0.1-0.2-0.2-0.2-0.3c-0.3-0.7-0.7-1.5-0.9-2.2c-0.2-0.8-0.6-1.5-0.6-2.3c0-0.5,0.1-0.6,0.6-0.7c0.4,0,0.7,0,1.1,0   c0.1,0,0.1,0,0.1,0.1c0.2,0.3,0.5,0.7,0.5,1s0.1,0.5,0.3,0.7c-0.1,0.1-0.1,0.2-0.2,0.4c0,0,0,0,0.1,0c0.1,0.1,0.2,0.1,0.3,0.2   c0.2,0.6,0.4,1.2,0.8,1.8c0.2,0.4,0.3,0.8,0.5,1.2c0.4,0.9,0.8,1.8,1.3,2.6c0.2,0.3,0.3,0.6,0.4,0.9c0.1,0.2,0.3,0.4,0.4,0.7   c0.3,0.4,0.5,1,0.8,1.3c0.4,0.4,0.4,0.9,0.8,1.2c0,0.3,0.2,0.5,0.4,0.7c0.2,0.3,0,0.5-0.1,0.7c0.3,0.2,0.7,0.4,0.9,0.6   c0.1,0.1,0.2,0.3,0.2,0.4c-0.2,0.5-0.4,1.1-0.8,1.4c-0.1,0.1-0.2,0.1-0.2,0.2c-0.2,0.2-0.4,0.5-0.7,0.7c-0.2,0.2-0.6,0.4-0.7,0.8   c0,0.1-0.2,0.3-0.3,0.4c-0.6,0.6-1.2,1.2-1.7,1.8c-0.4,0.5-0.8,1.1-1.3,1.6c-0.6,0.6-1.1,1.4-1.6,2.1c-0.4,0.5-0.7,1.1-1.1,1.7   c-0.1,0.1-0.1,0.3-0.2,0.3C181.8,76,182,76.2,181.9,76.4"/>
	<path class="st0" d="M366.9,76.4c-0.2,0-0.4,0.1-0.6,0.1c0.1,0.1,0.1,0.1,0.2,0.2c0.1,0,0.4,0.1,0.3,0.3c0,0.1-0.1,0.3-0.2,0.4   c-0.3,0.3-0.7,0.2-1,0.1s-0.6-0.2-0.9-0.4c0.1-0.3,0.2-0.5,0.3-0.8c-0.1,0-0.1-0.1-0.3-0.1c0-0.1,0-0.3,0.1-0.4   c0.3-0.4,0.4-0.9,0.7-1.3s0.6-0.9,0.9-1.3c0.7-0.9,1.3-1.8,2-2.6c0.4-0.5,1-1.1,1.4-1.6c0.5-0.6,1.1-1.3,1.6-1.9   c0.2-0.2,0.5-0.4,0.7-0.6c0.3-0.3,0.5-0.5,0.7-0.8c0.1-0.1,0.1-0.3,0.1-0.5c0-0.1,0-0.3,0-0.5c-0.1-0.1-0.2-0.2-0.4-0.4   c-0.1-0.2-0.3-0.4-0.4-0.4c-0.3-0.1-0.4-0.4-0.4-0.6c0-0.4-0.2-0.7-0.4-0.9c-0.5-0.5-0.8-1.1-1-1.7c-0.1-0.3-0.2-0.7-0.4-1   c0-0.1-0.2-0.2-0.3-0.2c-0.3-0.4-0.7-0.8-0.7-1.4c0-0.1-0.1-0.1-0.2-0.2c-0.1-0.1-0.1-0.1-0.1-0.2c0-0.5-0.3-0.9-0.7-1.2   c-0.1-0.1-0.2-0.2-0.2-0.3c-0.3-0.7-0.7-1.5-0.9-2.2c-0.2-0.8-0.6-1.5-0.6-2.3c0-0.5,0.1-0.6,0.6-0.7c0.4,0,0.7,0,1.1,0   c0.1,0,0.1,0,0.1,0.1c0.2,0.3,0.5,0.7,0.5,1s0.1,0.5,0.3,0.7c-0.1,0.1-0.1,0.2-0.2,0.4c0,0,0,0,0.1,0c0.1,0.1,0.2,0.1,0.3,0.2   c0.2,0.6,0.4,1.2,0.8,1.8c0.2,0.4,0.3,0.8,0.5,1.2c0.4,0.9,0.8,1.8,1.3,2.6c0.2,0.3,0.3,0.6,0.4,0.9c0.1,0.2,0.3,0.4,0.4,0.7   c0.3,0.4,0.5,1,0.8,1.3c0.4,0.4,0.4,0.9,0.8,1.2c0,0.3,0.2,0.5,0.4,0.7c0.2,0.3,0,0.5-0.1,0.7c0.3,0.2,0.7,0.4,0.9,0.6   c0.1,0.1,0.2,0.3,0.2,0.4c-0.2,0.5-0.4,1.1-0.8,1.4c-0.1,0.1-0.2,0.1-0.2,0.2c-0.2,0.2-0.4,0.5-0.7,0.7c-0.2,0.2-0.6,0.4-0.7,0.8   c0,0.1-0.2,0.3-0.3,0.4c-0.6,0.6-1.2,1.2-1.7,1.8c-0.4,0.5-0.8,1.1-1.3,1.6c-0.6,0.6-1.1,1.4-1.6,2.1c-0.4,0.5-0.7,1.1-1.1,1.7   c-0.1,0.1-0.1,0.3-0.2,0.3C366.8,76,367,76.2,366.9,76.4"/>
	<path class="st0" d="M551.9,76.4c-0.2,0-0.4,0.1-0.6,0.1c0.1,0.1,0.1,0.1,0.2,0.2c0.1,0,0.4,0.1,0.3,0.3c0,0.1-0.1,0.3-0.2,0.4   c-0.3,0.3-0.7,0.2-1,0.1s-0.6-0.2-0.9-0.4c0.1-0.3,0.2-0.5,0.3-0.8c-0.1,0-0.1-0.1-0.3-0.1c0-0.1,0-0.3,0.1-0.4   c0.3-0.4,0.4-0.9,0.7-1.3s0.6-0.9,0.9-1.3c0.7-0.9,1.3-1.8,2-2.6c0.4-0.5,1-1.1,1.4-1.6c0.5-0.6,1.1-1.3,1.6-1.9   c0.2-0.2,0.5-0.4,0.7-0.6c0.3-0.3,0.5-0.5,0.7-0.8c0.1-0.1,0.1-0.3,0.1-0.5c0-0.1,0-0.3,0-0.5c-0.1-0.1-0.2-0.2-0.4-0.4   c-0.1-0.2-0.3-0.4-0.4-0.4c-0.3-0.1-0.4-0.4-0.4-0.6c0-0.4-0.2-0.7-0.4-0.9c-0.5-0.5-0.8-1.1-1-1.7c-0.1-0.3-0.2-0.7-0.4-1   c0-0.1-0.2-0.2-0.3-0.2c-0.3-0.4-0.7-0.8-0.7-1.4c0-0.1-0.1-0.1-0.2-0.2c-0.1-0.1-0.1-0.1-0.1-0.2c0-0.5-0.3-0.9-0.7-1.2   c-0.1-0.1-0.2-0.2-0.2-0.3c-0.3-0.7-0.7-1.5-0.9-2.2c-0.2-0.8-0.6-1.5-0.6-2.3c0-0.5,0.1-0.6,0.6-0.7c0.4,0,0.7,0,1.1,0   c0.1,0,0.1,0,0.1,0.1c0.2,0.3,0.5,0.7,0.5,1s0.1,0.5,0.3,0.7c-0.1,0.1-0.1,0.2-0.2,0.4c0,0,0,0,0.1,0c0.1,0.1,0.2,0.1,0.3,0.2   c0.2,0.6,0.4,1.2,0.8,1.8c0.2,0.4,0.3,0.8,0.5,1.2c0.4,0.9,0.8,1.8,1.3,2.6c0.2,0.3,0.3,0.6,0.4,0.9c0.1,0.2,0.3,0.4,0.4,0.7   c0.3,0.4,0.5,1,0.8,1.3c0.4,0.4,0.4,0.9,0.8,1.2c0,0.3,0.2,0.5,0.4,0.7c0.2,0.3,0,0.5-0.1,0.7c0.3,0.2,0.7,0.4,0.9,0.6   c0.1,0.1,0.2,0.3,0.2,0.4c-0.2,0.5-0.4,1.1-0.8,1.4c-0.1,0.1-0.2,0.1-0.2,0.2c-0.2,0.2-0.4,0.5-0.7,0.7c-0.2,0.2-0.6,0.4-0.7,0.8   c0,0.1-0.2,0.3-0.3,0.4c-0.6,0.6-1.2,1.2-1.7,1.8c-0.4,0.5-0.8,1.1-1.3,1.6c-0.6,0.6-1.1,1.4-1.6,2.1c-0.4,0.5-0.7,1.1-1.1,1.7   c-0.1,0.1-0.1,0.3-0.2,0.3C551.8,76,552,76.2,551.9,76.4"/>
	<g>
		<line class="st3" x1="0" y1="0" x2="740" y2="0"/>
	</g>
	<g>
		<line class="st3" x1="0" y1="0" x2="740" y2="0"/>
	</g>
</g>
<g id="Reperes">
</g>
</svg>
