<?xml version="1.0" encoding="utf-8"?>
<!-- Generator: Adobe Illustrator 27.3.1, SVG Export Plug-In . SVG Version: 6.00 Build 0)  -->
<svg xmlns="http://www.w3.org/2000/svg" xmlns:xlink="http://www.w3.org/1999/xlink" version="1.1" x="0px" y="0px" viewBox="0 0 740 130" style="enable-background:new 0 0 740 130;" xml:space="preserve">
<style type="text/css">
	.st0{fill:#1D1D1B;}
	.st1{fill:#0099FF;}
	.st2{fill:#297EB6;}
	.st3{fill-rule:evenodd;clip-rule:evenodd;fill:#FFFFFF;}
</style>
<g id="Vignettes">
	<g id="_x33_">
		<path class="st0" d="M608.6,60.2c0,0-0.1,0.1-0.1,0.1c0,0.1,0,0.3,0,0.4c0,0.5,0.2,1.1-0.1,1.6c-0.2,0.3-0.4,0.6-0.5,0.9    c0,0.1,0,0.2,0,0.3c0.1,0,0.1,0,0.2,0c0.7-0.8,1.4-1.6,2-2.3c-0.3-0.2-0.5-0.5-0.7-0.7C609.2,60.5,608.9,60.4,608.6,60.2     M626.7,58.4c0-0.3,0-0.5-0.1-0.6c-0.3-0.3-0.6-0.7-0.9-0.9c-0.8-0.4-1.3-1.1-1.9-1.7c-0.4-0.3-0.7-0.8-1.1-1.2    c-0.3-0.3-0.5,0.1-0.6,0.2c-0.2,0.2-0.2,0.4,0.1,0.4c0.5,0.2,0.8,0.6,1.2,1c0.3,0.4,0.7,0.8,1.1,1.2c0.2,0.3,0.5,0.5,0.7,0.8    c0.4,0.5,0.8,1,1.2,1.5c0.1,0.1,0.2,0.3,0.3,0.4c0.2,0.3,0.3,0.5,0.4,0.8c0.2-0.1,0.2-0.2,0.3-0.3c0.1,0.6,0.2,1.2,0.9,1.2    c0,0,0.1,0.1,0.1,0.1c0.1,0.3,0.1,0.5,0.5,0.7c0.3,0.2,0.5,0.6,0.7,0.9c0.2,0.3,0.4,0.6,0.7,0.9c0.3-0.5,0.1-1.3-0.3-1.4    c-0.3-0.1-0.3-0.3-0.4-0.5c0-0.1-0.1-0.2-0.2-0.4c-0.1-0.2-0.2-0.5-0.3-0.7c-0.2-0.3-0.3-0.5-0.5-0.7c-0.4-0.4-0.8-0.7-1.1-1.2    C627.4,58.7,627.2,58.2,626.7,58.4 M602,75.4c-0.3-0.6-0.3-1,0.1-1.4c0.2-0.2,0.4-0.3,0.7-0.4c0.1,0,0.2,0.1,0.3,0.2    c0.1,0.1,0.2,0.3,0.4,0.4c0.5,0.2,0.5,0.4,0.2,0.9c-0.1,0.2-0.2,0.4,0,0.5c0.1,0.1,0.1,0.2,0.2,0.4c0.2-0.1,0.3-0.3,0.5-0.4    c0.7-0.2,1.3-0.5,1.8-1.1c0.3-0.4,0.7-0.6,1-1c0.2-0.2,0.3-0.6,0.5-0.8c0.3-0.3,0.3-0.8,0.4-1.2c0,0-0.2-0.2-0.3-0.2    c-0.3,0-0.7,0.1-1,0.2c-0.4,0-0.8,0.1-1.3,0c-0.5,0-1-0.2-1.5-0.2c-0.2,0-0.4,0-0.6,0c-0.1,0-0.2,0.2-0.3,0.3    c0.1,0.1,0.2,0.2,0.2,0.3c0,0.1,0.1,0.1,0.1,0.2c0,0.1-0.1,0.1-0.2,0.1c-0.3,0.1-0.7,0.3-1,0.3c-0.2,0-0.5,0-0.7-0.1    c-0.2,0-0.3-0.2-0.4-0.3c-0.1-0.2-0.1-0.4-0.2-0.6c-0.3-0.1-0.6-0.2-0.9-0.2c-0.2,0-0.5,0-0.6,0.1c-0.2,0.2-0.2,0.5-0.3,0.7    c-0.2,0.4,0.2,0.5,0.4,0.5c0.6,0.1,0.8,0.6,1,1c0.1,0.3,0,0.7,0,1.1c0,0.1,0,0.2,0.1,0.3C600.9,75.5,601.4,75.3,602,75.4     M607.5,64.3c-0.3,0.2-0.5,0.4-0.8,0.5c-0.1,0.1-0.3,0-0.5,0.1c-0.4,0.2-0.7,0.4-1.1,0.6c-0.1,0.1-0.2,0.1-0.3,0.1    c-0.2,0-0.4,0-0.5,0c-0.2,0.1-0.5,0.2-0.7,0.2c-1,0.3-2,0.8-2.7,1.6c-0.4,0.5-0.7,1.2-1,1.8c0.7,0.4,1.4,0.3,2,0.2    c1-0.3,2-0.1,2.9,0.1c0.1,0,0.3,0.1,0.4,0.1c0.6,0,1.1,0,1.7-0.1c0.3,0,0.6,0,0.9-0.1c-0.1-0.1-0.1-0.2-0.2-0.2    c-0.4-0.4-0.8-0.8-0.8-1.5c0-0.3,0.1-0.6,0-1c0-0.4,0.3-0.9-0.2-1.2C607.1,65.2,607.5,64.8,607.5,64.3 M615.8,50.7    c0.1-1,0.1-1.8,0.2-2.8c-0.5,0.1-0.7,0.4-1,0.7c-0.1,0.1-0.2,0.2-0.3,0.3c-0.5,0.5-1.1,0.9-1.6,1.4c-0.8,0.7-1.6,1.4-2.4,2.1    c-1,0.9-2,1.8-3,2.7c-0.7,0.7-1.4,1.4-2.1,2.2c-0.5,0.6-1.1,1.1-1.6,1.7c-0.4,0.4-0.6,0.9-1,1.3c-0.2,0.3-0.5,0.6-0.8,1    c0.6,0,1.2,0,1.7,0c0.5,0,1,0,1.6,0c0.4,0,0.7-0.3,0.7-0.8c0-0.4,0-0.9-0.1-1.3c-0.3-1.3,0.6-1.6,1.6-1.4c0.7,0.1,1.2,0.6,1.8,0.9    c0.5,0.3,0.9,0.8,1.4,1.1c0.4,0.3,0.8,0.7,1.5,0.6c0.3,0,0.6,0.3,0.8,0.5c0.2,0.2,0.2,0.7,0.1,0.9c-0.1,0.4-0.4,0.7-0.7,1    c-0.4,0.4-0.8,0.7-1.2,1.1c-0.5,0.5-0.9,1-1.3,1.5c-0.3,0.3-0.6,0.5-0.5,1.1c0.1,0.4-0.2,0.9-0.2,1.4c0,0.3,0,0.6,0.1,0.8    c0.6,1,1,2.1,1,3.3c0,0.7-0.4,1.3-0.6,2c-0.4,1.3-1.5,2-2.5,2.9c-0.4,0.3-0.8,0.7-1.2,0.9c-0.5,0.2-1.1,0.3-1.7,0.3    c-0.6,0-1.2,0-1.7-0.2c-1-0.4-2.2-0.6-3.1-1.4c-0.6-0.6-1.4-1.2-1.9-1.8c-0.5-0.6-0.9-1.3-1-2.1c-0.1-0.5-0.1-0.9-0.1-1.4    c0.1-0.6,0.1-1.3,0.2-1.9c0-0.2,0.3-0.5,0.4-0.7c0.2-0.4,0.6-0.8,0.7-1.3c0.1-0.7,0.6-1.1,0.9-1.7c0.2-0.4,0.6-0.6,1-0.9    c0.8-0.6,1.7-1.1,2.7-1.2c0.1,0,0.2,0,0.2-0.1c0,0,0,0,0.1-0.1c-0.2,0-0.3,0-0.5-0.1c-0.6,0-1.2,0-1.7-0.3    c-0.2-0.1-0.6-0.1-0.9-0.2c-0.2-0.1-0.4-0.3-0.6-0.4c-0.2-0.2-0.2-0.4,0-0.6c0,0-0.1-0.2-0.1-0.2c0.2-0.4,0.4-0.9,0.7-1.1    c0.7-0.4,0.8-1.2,1.3-1.7c0.4-0.4,0.8-1,1.2-1.4c0.2-0.3,0.5-0.5,0.8-0.8c0.3-0.4,0.6-0.8,1-1.1c0.8-0.8,1.6-1.7,2.6-2.3    c0,0,0.1-0.1,0.1-0.1c0.2-0.3,0.5-0.6,0.8-0.8c0.6-0.5,1.2-1.2,1.8-1.7c0.3-0.3,0.6-0.5,0.9-0.8c0.5-0.4,1-0.8,1.5-1.3    c0.4-0.3,0.8-0.6,1.1-0.9c0.5-0.5,1-1,1.5-1.5c0.3-0.4,0.6-0.8,0.9-1.2c0.3-0.3,0.6-0.5,0.9-0.8c0.1-0.1,0.2-0.3,0.2-0.4    c0-0.6,0.3-0.8,0.9-0.6c0.6,0.1,1,0.3,1.5,0.6c0.4,0.3,0.8,0.5,1.2,0.8c0.1,0,0.2,0.1,0.2,0.1c0.5,0,1,0.2,1.4,0.4    c0.4,0.2,0.8,0.2,1.2,0.3c0.4,0.1,0.7,0.2,1.1,0.3c0.8,0.2,1.6,0.4,2.3,0.6c0.4,0.1,0.8,0.3,1.2,0.5c0.5,0.1,0.9,0.2,1.4,0.4    c0.1,0,0.1,0.1,0.2,0.1c0.1,0.1,0.2,0.2,0.3,0.2c0.8,0.2,1.6,0.5,2.4,0.9c0.5,0.3,1.1,0.5,1.6,0.7c1,0.4,2,0.7,2.9,1.1    c0.4,0.2,0.8,0.7,1.1,1c0,0.1-0.2,0.5-0.4,0.6c-0.7,0.3-1.4,0.5-2.2,0.7c-0.2,0.1-0.5,0.1-0.7,0.2c-1.1,0.2-2.2,0.6-3.4,0.4    c-0.5-0.1-0.9-0.1-1.4-0.1c-0.4,0-0.8,0-1.1,0.1c-0.8,0.1-1.7,0.1-2.5,0.2c-0.3,0-0.4,0.1-0.5,0.4c-0.1,0.3-0.1,0.5,0.1,0.6    c0.1,0.1,0.2,0.3,0.4,0.4c0.3,0.3,0.7,0.6,1,0.9c0,0,0.1,0.1,0.2,0.1c0.6,0.2,0.9,0.7,1.3,1.2c0.6,0.6,1.1,1.3,1.7,2    c0.6,0.7,1.2,1.4,1.8,2.1c0.3,0.4,0.5,1.1,0.9,1.4c0.6,0.6,0.8,1.3,0.9,2c0.1,0.4-0.2,0.8-0.4,1.2c-0.6,1.2-1.4,1.4-2.5,0.7    c-0.3-0.2-0.7-0.3-0.9-0.5c-0.3-0.3-0.6-0.6-0.9-0.9c0,0-0.1-0.1-0.1-0.1c-0.6-0.3-0.8-0.9-1.1-1.4c0-0.1-0.1-0.1-0.2-0.2    c-0.4-0.4-0.8-0.8-1.2-1.3c-0.3-0.3-0.6-0.5-0.8-0.8c-0.3-0.3-0.6-0.7-0.9-1.1c-0.3-0.3-0.5-0.6-0.8-0.9c-0.1-0.1-0.1-0.1-0.2-0.2    c-0.3-0.4-0.6-0.8-0.9-1.3c-0.3-0.6-0.8-0.3-1.3-0.3c-1,0-1.8-0.3-2.4-1.1c-0.3-0.5-0.2-1-0.1-1.5c0.1-0.4,0.3-0.8,0.4-1.2    c0.2-0.3,0.2-0.8,0.5-0.8c0.3-0.4,0.6-0.6,0.9-0.9c0.4-0.4,0.8-0.8,1.3-1c0.5-0.3,0.8-0.7,1.1-1.1c0.4-0.4,0.8-0.5,1.5-0.1    c0.3,0.2,0.5,0.3,0.8,0.5c0,0,0,0.1,0,0.3c0.2,0,0.3,0.1,0.5,0.1c-0.2,0.3-0.4,0.5-0.6,0.8c0.8,0.2,1.4,0.2,2-0.2    c0.6-0.3,0.9-0.3,1.4,0.1c0.1,0.1,0.3,0.1,0.5,0.1c0.7,0,1.5,0,2.2-0.1c0.3,0,0.7-0.3,1-0.4c0.1,0,0.2-0.1,0.4-0.2    c-0.9-0.4-1.6-0.7-2.4-1.1c0-0.4-0.4-0.2-0.6-0.3c-0.1-0.1-0.3-0.1-0.5-0.1c-0.2-0.1-0.4-0.1-0.5-0.2c-0.5-0.3-1.1-0.6-1.7-0.6    c-0.3,0-0.6-0.2-0.8-0.3c-0.3-0.1-0.6-0.2-1-0.3c-0.7-0.2-1.4-0.3-2.1-0.5c-0.4-0.1-0.8-0.3-1.2-0.4c-0.3-0.1-0.6-0.4-0.9-0.2    c0,0-0.1,0-0.2,0c-0.5-0.2-1-0.5-1.7-0.7c-0.1,0.7-0.3,1.3-0.4,1.9c-0.1,0.4-0.1,0.8-0.2,1.2c0,0.4-0.1,0.8-0.1,1.2    c-0.1,0.8-0.1,1.7-0.1,2.5c0,0.4-0.2,0.9-0.1,1.3c0.1,0.4,0,0.8-0.1,1.1c-0.1,0.5,0,1,0,1.5c0,0.4-0.1,0.8-0.2,1.3    c0,0.4,0,0.8,0,1.1c0,0.5,0,0.9,0,1.4c0,0.5,0,0.9,0.1,1.4c0,0.6,0,1.2,0,1.8c0,1.1,0.1,2.3,0.2,3.4c0,0.6,0.1,1.2,0.1,1.8    c0,0.9,0.1,1.8,0.1,2.7c0,0,0,0.1,0,0.1c0.3,0.6,0.6,1.3,0.8,1.9c0.1,0.1,0.1,0.3,0.1,0.4c-0.1,0.6-0.2,1.2-0.2,1.8    c0,0.8,0,1.5,0,2.3c0,0.8,0.1,1.6,0.1,2.4c0,0.3,0,0.5,0,0.8c0,2.1,0.1,4.2,0.1,6.3c0,0.9,0,1.8,0.1,2.8c0,0.2,0.1,0.4,0.1,0.6    c0,0.5,0,1,0,1.5c0.1,1,0.1,2,0.2,3c0,0.2,0.2,0.4,0.1,0.6c-0.1,0.3,0.1,0.6,0.1,0.9c0.1,0.7,0.1,3,0.3,3.7c0.3,1.6,0.7,3.1,1,4.7    c0.1,0.6,0.2,1.3-0.2,1.9c0,0.1,0,0.2,0,0.2c0.2,0.7,0.3,1.3,0.5,2c0,0.1,0.2,0.2,0.4,0.4c-0.1,0.1-0.2,0.1-0.4,0.2    c0.2,0.1,0.3,0.1,0.4,0.2c0.5,0,1,0,1.5,0c0.3,0,0.7,0.1,1,0.1c0,0,0.1,0,0.1,0c0.1,0.5,0.4,0.8,0.6,1.1c0.1,0.1,0.2,0.3,0.2,0.5    c0,0.1,0.1,0.3,0,0.3c-0.2,0.1-0.4,0.3-0.6,0.4c-0.7,0.1-1.4,0-2.2,0c-0.4,0-0.9,0-1.3,0c-0.1,0-0.3-0.1-0.4-0.2    c-0.1-0.1-0.2-0.2-0.3-0.3c-0.5-0.1-0.6-0.7-0.9-1c-0.1-0.1-0.1-0.3-0.1-0.5c-0.5-0.2-0.6-0.8-0.6-1.3c-0.1-0.7-0.2-1.3-0.4-2    c-0.1-0.4-0.2-0.8,0-1.3c0.2-0.5,0.2-1.1,0.2-1.6c0-0.6-0.2-1.1-0.4-1.7c-0.2-0.8-0.4-3.2-0.5-4c-0.1-0.4,0-0.8-0.1-1.2    c-0.1-0.5-0.2-0.9-0.2-1.4c0-0.1,0-0.3-0.1-0.4c0-0.4-0.1-0.9-0.1-1.3c-0.1-0.8-0.1-1.6-0.2-2.3c-0.1-0.8-0.1-1.5-0.2-2.3    c0-0.1,0-0.2,0-0.3c0.1-0.3,0.2-0.6-0.2-0.6c0.3-0.8,0.1-1.6,0-2.4c0-0.4-0.1-0.7,0-1.1c0.1-0.4-0.1-0.9-0.1-1.4    c-0.1,0-0.1,0-0.2,0c-0.1,0.5-0.2,0.9-0.4,1.4c-0.1,0.3-0.1,0.6-0.2,0.8c-0.2,0.7-0.3,1.4-0.5,2.1c-0.1,0.5-0.1,1-0.2,1.5    c-0.1,0.6-0.3,1.1-0.4,1.7c-0.2,0.7-0.3,1.5-0.4,2.2c-0.1,0.6-0.3,1.3-0.4,1.9c-0.1,0.4-0.1,0.8-0.2,1.1c-0.2,0.9-0.4,1.8-0.5,2.6    c-0.1,0.5,0,1-0.3,1.4c0,0,0,0.1,0,0.2c0.3,0.7,0.1,1.4,0,2.1c-0.2,1.3-0.2,2.7-0.3,4c-0.1,0.5-0.1,0.9,0,1.4c0.1,0.7,0,1.4,0,2.1    c0,0.5-0.2,1.1,0.3,1.6c0,0,0,0.3-0.1,0.3c-0.2,0.1-0.5,0.3-0.7,0.3c-0.8,0-1.6-0.3-2.4-0.2c-0.5,0-1-0.1-1.5-0.1    c-0.1,0-0.7-1-0.6-1.2c0-0.1,0-0.2-0.1-0.4c0.3-0.1,0.7-0.2,1-0.4c0.3-0.1,0.8-0.1,0.9-0.4c0.2-0.3,0.7-0.4,0.6-1    c-0.1-0.4,0.2-0.9,0.2-1.3c0-0.4,0-0.8,0-1.2c0-0.6,0.1-1.1,0.1-1.7c0-0.1,0-0.1,0-0.2c-0.2-0.9,0-1.7,0.2-2.6    c0.1-0.4,0-0.8,0-1.2c0-0.2,0.1-0.3,0.1-0.5c0-0.2,0-0.4,0.1-0.6c0.1-0.5,0.2-0.9,0.3-1.4c0-0.2,0.1-0.4,0.1-0.7    c0.1-0.8,0.1-1.6,0.2-2.4c0.1-0.5,0.3-1,0.4-1.4c0-0.2,0-0.4,0-0.6c0.2-0.8,0.3-1.5,0.5-2.2c0.1-0.3,0-0.7,0.1-1    c0.1-0.4-0.1-0.9,0.1-1.2c0.2-0.4,0.2-0.8,0.3-1.1c0.3-0.7,0.4-1.5,0.5-2.3c0-0.1,0-0.1,0-0.2c0.2-0.8,0.4-1.6,0.6-2.4    c0.1-0.6,0.2-1.2,0.3-1.8c0-0.2,0.1-0.4,0.2-0.6c0-0.1,0-0.2,0-0.3c0-0.1,0-0.2,0.1-0.3c0.1-0.2,0.2-0.4,0.3-0.6    c0.2-0.9,0.3-1.7,0.4-2.6c0.1-0.8,0.3-1.7,0.5-2.5c0-0.2,0.2-0.4,0.2-0.7c0-0.8-0.1-1.5-0.1-2.3c0-0.3,0-0.6,0-0.8    c0-0.3,0.2-0.6-0.1-0.8c0,0,0-0.2,0-0.2c0-0.3,0.1-0.5,0.1-0.8c0-1.1-0.1-2.2-0.2-3.3c0-0.3-0.1-0.6-0.2-0.9    c0-0.1,0.1-0.3,0.1-0.4c0-0.8-0.1-1.5-0.1-2.3c0-0.1,0-0.2,0-0.2c0.1-0.4,0.2-0.8,0-1.3c-0.1-0.4,0-0.8,0-1.2c0-0.6,0-1.1,0-1.7    c0.1-0.9,0.1-1.8,0.2-2.7c0-0.1,0-0.2,0-0.4c0-0.3,0-0.5,0-0.8c0-0.3,0-0.6,0-0.9c0-0.4,0.1-0.7,0.1-1.1    C615.9,51,615.8,50.8,615.8,50.7"/>
		<path class="st0" d="M616.3,24c-0.1,0.1-0.1,0.1-0.1,0.1c-0.2,1.6-0.3,3.2-0.4,4.8c0,0.7,0,1.5,0.1,2.2c0,0.7,0,1.5,0.1,2.2    c0.2,1.1,0.5,2.1,0.9,3.1c0.2,0.6,1,0.8,1.5,0.3c0.7-0.6,1.3-1.4,1.5-2.3c0.1-0.2,0-0.4,0.1-0.6c0.3-0.7,0.6-1.4,1-2.1    c-0.5-0.1-0.5-0.3-0.3-0.6c0.4-1.1,0.5-2.2,0.5-3.3c0-0.8,0.1-1.7,0.1-2.5c0-0.5,0.1-1.1-0.3-1.5c0.5-0.9-0.4-1.4-0.6-2.3    c-0.5,0.5-0.9,1-1.3,1.3c-0.6,0.4-1,0.9-1.1,1.7c0,0.2-0.3,0.4-0.4,0.5c-0.1,0-0.4-0.1-0.5-0.2C616.7,24.5,616.5,24.2,616.3,24     M613.5,34.8c-0.1-0.3-0.2-0.7-0.2-1c-0.2-1.3-0.4-2.6-0.4-3.9c0-1.2,0.1-2.4,0.2-3.6c0-0.8,0.1-1.7,0.2-2.5    c0-0.3,0.2-0.6,0.3-0.9c0.1-0.3,0.1-0.6,0.2-0.9c0.1-0.3,0.3-0.6,0.5-0.8c0.1-0.1,0.2-0.2,0.3-0.3c0.4-0.7,1-0.8,1.7-0.7    c0.5,0.1,0.9,0,1.3-0.4c0.3-0.3,0.8-0.5,1.3-0.6c1-0.2,2,0,2.8,0.7c0.6,0.4,1.1,0.9,1.6,1.5c0.2,0.2,0.2,0.7,0.3,1    c0.6,1.7,0.4,3.5,0.4,5.2c0,0.8-0.2,1.6-0.2,2.4c0,1.6-0.5,3-0.8,4.5c-0.3,1.6-1.2,3-2.5,4.1c-0.9,0.7-1.8,0.6-2.8,0.5    c-0.5-0.1-1-0.2-1.5-0.4c-1.3-0.7-1.9-1.9-2.5-3.2C613.6,35.3,613.5,35,613.5,34.8C613.4,34.8,613.4,34.8,613.5,34.8"/>
		<path class="st0" d="M601.8,39c-0.2,0.2-0.3,0.3-0.4,0.4c0.5,0.6,0.8,1.3,1.6,1.6c0.4,0.2,0.8,0.7,1.2,0.9    c0.7,0.4,1.2,0.9,1.7,1.5c0.4,0.5,0.7,1.1,1,1.6c0.5,0.7,0.5,1.5,0.4,2.2c-0.1,0.6-0.2,1.3-0.4,1.9c-0.2,0.6-0.4,1.3-0.9,1.8    c-0.3,0.3-0.8,0.5-1.2,0.2c-0.3-0.3-0.6-0.7-0.9-1c-0.1-0.2-0.1-0.4,0.1-0.5c0.4-0.2,0.6-0.6,0.7-1c0-0.2,0.2-0.5,0.3-0.7    c0.4-1,0.4-2-0.2-3c-0.4-0.7-1.1-1.3-1.9-1.7c-0.2-0.1-0.3-0.3-0.5-0.5c-0.4-0.4-0.9-0.6-1.3-1.1c-0.5-0.5-1-1-1.4-1.6    c-0.4-0.6-0.7-1.2-0.8-1.8c0-0.2-0.2-0.4-0.2-0.6c-0.1-0.6-0.2-1.2-0.2-1.7c0-0.4,0.2-0.8,0.3-1.1c0.2-0.7,0.4-1.4,1-2    c0.2-0.2,0.2-0.5,0.4-0.7c0.2-0.3,0.4-0.6,0.6-1c0.2-0.4,0.5-0.7,0.6-1.2c0.2-0.6,0.2-1.2-0.2-1.7c-0.3-0.4-0.5-0.8-0.7-1.2    c-0.3-0.6-0.7-1.2-1-1.9c-0.2-0.5-0.5-1-0.6-1.5c-0.1-0.7-0.5-1.4-0.5-2.2c0-0.6,0.9-1.1,1.5-0.8c0.1,0,0.2,0,0.3,0.1    c0.1,0.1,0.3,0.3,0.2,0.4c-0.2,0.7,0.1,1.2,0.3,1.8c0.4,1,0.7,1.9,1.2,2.8c0.3,0.6,0.7,1,1,1.6c0.6,0.8,1.1,1.7,1.1,2.7    c0,0.8-0.4,1.5-0.9,2.1c-0.1,0.2-0.2,0.4-0.4,0.5c-0.5,0.3-0.6,0.9-0.8,1.4c-0.1,0.2-0.3,0.3-0.4,0.5c-0.2,0.4-0.5,0.9-0.6,1.4    c-0.1,0.8-0.3,1.6,0.1,2.3c0,0.1,0.1,0.1,0.1,0.2C601.1,38.8,601.1,39.1,601.8,39"/>
		<path class="st0" d="M650.7,110.9c0,0.2,0,0.4,0,0.5c-0.1,0-0.2,0-0.3,0c0-0.2,0-0.4,0.1-0.5C650.6,110.8,650.6,110.8,650.7,110.9    "/>
		<path class="st0" d="M605.4,74.1C605.4,74.1,605.3,74.2,605.4,74.1c-0.3,0.1-0.7,0.2-0.8,0.1c-0.2-0.1-0.1-0.5-0.2-0.7    c-0.1-0.2-0.2-0.4-0.3-0.6c-0.2-0.3-0.1-0.6,0-0.8c0.2-0.2,0.5-0.2,0.7,0c0.2,0.2,0.6,0.3,0.7,0.5c0.2,0.3,0.4,0.8,0.5,1.2    C606,73.9,605.7,74.1,605.4,74.1C605.4,74.2,605.4,74.2,605.4,74.1"/>
		<path class="st0" d="M554.4,64.7c0.3,0.8,0.4,1.6,0.1,2.5c-1.3-0.1-2.5-0.2-3.8-0.2c-1.2,0-2.4,0.1-3.8,0c0.1-0.4,0.2-0.7,0.3-0.9    c1.4-2,2.7-4,3.7-6.3c0.1-0.2,0.1-0.3,0.2-0.5c1-1.3,2-2.7,3-4c0.1-0.1,0.2-0.1,0.4-0.2c0.1,0.5,0.3,1,0.2,1.5    c0,1.6-0.1,3.1-0.1,4.7c0,0.7,0,1.3-0.3,1.9C554.1,63.6,554.2,64.2,554.4,64.7 M572.4,45.2c0.5-0.3,0.8-0.7,0.9-1.3    c0-0.2,0-0.5-0.1-0.7c-0.6-0.9-2-1.1-2.8-0.4c-0.5,0.4-0.9,0.8-1.4,1.1c-0.3,0.3-0.7,0.5-1,0.8c-0.9,0.9-1,1.3-0.1,2.3    c0.3,0.3,0.4,0.7,0.5,1.1c0.2,1.3,0.4,2.6,0.7,3.9c0.3,1.3,0.3,2.6,0,4c-0.7-0.2-1.2-0.6-1.8-0.9c-1.9-1.1-3.9-2.1-6.1-2.7    c-1.1-0.3-2.3-0.5-2.9-1.8c0-0.1-0.2-0.2-0.3-0.2c-0.7-0.3-1.3-0.8-2-1.2c-1-0.5-2.1-0.4-2.5,1c-0.3,1-0.8,2-1.4,2.9    c-0.4,0.6-0.7,1.2-1.1,1.9c-1.7,3.1-3.5,6.3-5.2,9.4c-0.8,1.4-1.6,2.6-2.9,3.6c-0.2,0.1-0.3,0.4-0.3,0.6c-0.1,0.8,0.5,1.6,1.3,1.6    c0.5,0,1,0,1.4-0.2c2.5-0.9,5.1-0.7,7.7-0.6c0.3,0,0.6,0.2,1,0.4c0.3,2.6,0,4.9-0.4,7.2c-0.6,3.6-0.8,7.1-1.2,10.7    c-0.2,2.7-0.4,5.4-0.8,8c-0.3,2.2-0.6,4.4-0.6,6.6c0,1.3-0.2,2.5-0.3,3.8c-0.1,1.6-0.2,3.1-0.4,4.7c-0.1,0.9,0.3,1.4,0.9,1.8    c0.9,0.6,1.9,0.1,2-1.1c0.1-1.3,0.1-2.6,0.2-3.9c0-0.2,0-0.5-0.1-0.7c-0.5-0.8-0.4-1.6-0.3-2.4c0.1-0.6,0.1-1.3,0.1-2    c0-1.2-0.1-2.4,0-3.6c0.2-2.2,0.6-4.4,0.9-6.6c0.2-1.2,0.3-2.5,0.4-3.7c0.3-2.3,0.5-4.6,0.7-7c0.1-0.6,0.3-1.2,0.4-1.7    c0.1-2,0.7-3.9,0.9-5.8c0-0.3,0.1-0.6,0.6-0.6c0.2,1.6,0.5,3.2,0.7,4.8c0.3,2.4,0.6,4.9,1.1,7.3c0.9,4.3,1.4,8.8,1.8,13.2    c0.2,2,0.7,3.9,1.5,5.7c0.5,1.1,0.9,2.2,1.4,3.3c0.4,0.9,0.7,1.9,1.1,2.8c0.1,0.3,0.3,0.6,0.6,0.9c0.3,0.3,0.7,0.4,1.1,0.2    c0.5-0.2,0.8-0.6,0.7-1.1c-0.1-0.5-0.2-1.1-0.3-1.6c-0.7-2-1.4-4.1-2.1-6.1c-0.2-0.5-0.4-1-0.6-1.5c-0.2-0.6-0.4-1.1-0.5-1.7    c-0.1-0.8-0.1-1.6,0-2.3c0.1-0.8,0-1.6-0.4-2.3c-0.6-1.3-0.9-2.6-1.1-3.9c-0.2-1.6-0.5-3.2-0.8-4.8c-0.2-0.9-0.4-1.9-0.6-2.8    c-0.4-1.7-0.5-3.4-0.6-5.2c-0.2-2.2-0.5-4.4-0.8-6.6c0-0.2,0.1-0.3,0.2-0.6c1.4,0.2,2.8,0.5,4.1,1c0.3,0.1,0.6,0.4,0.8,0.7    c0.4,0.7,1.1,0.7,1.7,0.5c0.6-0.2,1.2-0.5,1.5-1.1c0.1-0.8-0.3-1.3-0.9-1.6c-0.5-0.2-1.1-0.4-1.7-0.5c-1.9-0.5-3.8-0.9-5.6-1.3    c-0.6-0.1-0.9-0.4-1.1-1c-0.4-1.4-0.8-2.8-1.1-4.2c-0.2-0.8-0.2-1.7-0.2-2.5c0-1.2,0-2.4,0.1-3.6c0-1,0.1-2,0.1-3.1    c1.4,0.2,2.7,0.4,4,0.8c1.7,0.5,3.3,1.3,4.8,2.2c1.4,0.8,2.7,1.7,3.8,2.8c0.6,0.6,1.4,0.8,2.3,0.5c0.8-0.3,1-0.9,1-1.7    c-0.3-0.5-0.6-1-0.8-1.6c-0.2-0.6-0.3-1.3-0.5-1.9c-0.4-2-0.9-4-1.3-5.9c-0.2-0.7-0.3-1.5-0.4-2.2    C570.9,46.1,571.6,45.6,572.4,45.2"/>
		<path class="st0" d="M552.9,24.9c0.3,0.3,0.5,0.4,0.7,0.6c0.1,0,0.2,0,0.3-0.1c0.5-0.5,1-1,1.6-1.4c0.6-0.4,1.1-0.4,1.5,0.2    c0.7,0.8,1.3,1.7,1.7,2.7c0.8,2.3,1.3,4.7,0.8,7.2c-0.3,1.3-0.7,2.6-1.6,3.5c-1,1.1-2,1.6-3.2-0.4c-0.3-0.6-0.6-1.3-0.8-2    c-0.6-2.5-1.2-5-1.3-7.6c0-0.7,0-1.4,0-2.1C552.6,25.4,552.8,25.1,552.9,24.9 M550.8,31.3c0.4,2.3,0.9,4.6,1.8,6.7    c0.4,0.8,0.8,1.6,1.5,2.1c0.4,0.3,0.8,0.5,1.3,0.5c2.2,0.2,3.9-0.5,5.1-2.5c0.2-0.3,0.4-0.6,0.5-0.9c0.9-1.9,1.2-3.9,1.1-5.9    c-0.1-1.6-0.6-3.2-1-4.7c-0.3-1.3-0.9-2.5-1.6-3.6c-0.9-1.3-2-1.8-3.5-1.6c-0.5,0.1-1.1,0.2-1.7,0.3c0.7-1.2,1.5-1.8,2.8-1.8    c0.2,0,0.5,0,0.7-0.1c0.1,0,0.2-0.3,0.3-0.4c-0.2-0.1-0.3-0.3-0.5-0.3c-1.7-0.3-3.3,0.1-4.5,1.3c-1.3,1.2-1.8,3-2.6,4.5    c-0.1,0.1-0.1,0.2-0.1,0.4c0,1.1-0.2,2.3,0,3.4C550.6,29.5,550.6,30.4,550.8,31.3"/>
		<path class="st0" d="M673.1,54.4c0,0,0.1-0.1,0.1-0.2c0,0-0.1-0.1-0.1-0.1c0,0-0.1,0.1-0.1,0.2C673,54.4,673,54.5,673.1,54.4     M671.4,56.6c-1.9,3.4-4.3,6.1-6.7,8.8c-0.7,0.7-1.4,1-2.2,0.8c-0.6-0.1-1-0.7-1-1.7c0-1.2,0-2.5,0.1-3.7c0.1-2.1,0.1-4.2,0.4-6.3    c0.6-3.8,1.3-7.5,2-11.2c0.1-0.5,0.2-1,0.4-1.5c0.2-0.5,0.5-0.9,0.9-0.9c0.4,0,0.8,0.4,0.9,0.9c0.4,1.8,0.8,3.5,0,5.3    c-0.2,0.4-0.3,0.8-0.4,1.2c-1.1,3.5-1.5,7.2-1.5,11c0,0.8-0.1,1.6,0.3,2.2c0.1,0,0.2,0,0.2,0c2.4-2.7,4.7-5.5,6.2-9.3    c0.4-0.9,0.8-1.8,1.3-2.6c0.6-1.1,1.4-1.5,2.4-1.3c0.7,0.2,1.4,0.6,1.9,1.3c0.5,0.7,1,1.4,1.6,1.9c2.3,1.9,4.5,3.9,6.9,5.5    c1.7,1.1,3.1,2.5,4.5,4.2c0.7,0.8,1.4,1.6,2.1,2.4c0.2,0.2,0.4,0.5,0.5,0.8c0.3,0.5,0.2,1.2-0.2,1.6c-0.5,0.5-1.1,0.4-1.7,0.4    c-1.9-0.1-3.8,0.2-5.6,0.8c-0.3,0.1-0.7,0-0.8,0.7c0.3,0.5,0.6,1.1,0.8,1.7c0.4,0.9,0.3,1.9,0,2.8c-0.3,0.9-1.3,1.3-1.6,0.5    c-0.6-1.6-1.7-2-2.8-2.5c-0.4-0.2-0.7-0.5-1-0.9c-0.9-1-0.8-2.2,0.1-3c0.3-0.2,0.6-0.5,0.9-0.6c2.1-0.7,4.2-1.9,6.5-1.8    c0.5,0,1,0.2,1.6-0.4c-0.2-0.3-0.3-0.7-0.4-0.9c-0.9-1.1-8.1-6.5-10-7.7c-0.6,0.3-1.2,0.6-1.8,0.9c0,0.5,0,0.8,0,1.1    c0.1,3.1,0.2,6.3,0.3,9.4c0.1,1.7,0.1,3.3,0.2,5c0.2,3.7,0.5,7.5,0.7,11.2c0.1,1.7,0.1,3.5,0.2,5.2c0.3,4,0.8,8,1.1,12    c0.2,2.6,0.4,5.2,0.9,7.8c0.2,0.8,0.4,1.7,0.5,2.5c0.2,1.1-0.2,1.8-1,2.2c-0.1,0.1-0.3,0.1-0.4,0.1c-0.9,0.2-1.4-0.2-1.5-1.5    c-0.1-1.4-0.3-2.8-0.4-4.2c-0.1-1.5-0.3-2.9-0.4-4.4c-0.2-3-0.2-5.9-0.6-8.9c-0.5-3.6-0.6-7.3-0.7-11c-0.1-2-0.2-4.1-0.4-6.3    c-0.2,0.3-0.4,0.4-0.4,0.5c-0.6,4-1.3,8.1-1.7,12.1c-0.4,3.9-0.7,7.8-1.5,11.6c-0.3,1.5-0.6,3-0.9,4.6c-0.3,1.7-1.6,3.3-2.9,3.2    c-0.3,0-0.8-0.3-1-0.6c-0.5-0.8-0.4-2.2,0.1-2.9c0.5-0.7,0.9-1.5,0.9-2.5c0-0.4,0.2-0.9,0.4-1.2c1.1-1.2,1.3-2.8,1.5-4.4    c0.4-2.5,0.8-4.9,0.9-7.5c0.1-1.7,0.3-3.3,0.5-4.9c0.3-2.8,0.8-5.5,1.1-8.3c0.4-4.6,0.7-9.2,1-13.8c0-0.2,0-0.4,0-0.5    c-0.4-1.5-0.1-2.9,0-4.4c0-0.7,0.2-1.4-0.6-2.1C671.9,55.8,671.7,56.2,671.4,56.6"/>
		<path class="st0" d="M677.7,34.7c0.6-3,0.9-6,0.6-9.1c-0.1-0.7-0.2-1.4-0.4-2c-0.1-0.2-0.2-0.6-0.3-0.6c-0.9-0.3-1.4-1-2-1.9    c-0.1-0.2-0.5-0.1-0.7,0c-0.3,0.2-0.6,0.4-0.7,0.8c-0.9,2.4-1.9,4.8-2.1,7.5c-0.1,1.6-0.1,3.3-0.2,5c0,0.5,0.1,1,0.2,1.5    c0.3,1.4,1.3,2.3,2.3,1.6c0.7-0.5,1.4-0.4,2,0.1C677.1,36.8,677.5,35.8,677.7,34.7 M669.3,27c0.3-3.8,1.8-6.8,4.3-8.6    c2.4-1.7,5.1-1.4,6.3,2.7c0.7,2.3,1.2,4.6,1.1,7.1c-0.1,2.5-0.1,5.1-0.9,7.4c-0.5,1.5-1,3.1-2.1,4c-2.1,1.7-4.3,2-6.5,0.6    c-1-0.6-1.7-1.6-2-3.1c-0.2-1.3-0.3-2.6-0.4-3.9c-0.1-0.9-0.2-1.9-0.4-3.3C669.3,29.4,669.2,28.2,669.3,27"/>
		<path class="st1" d="M640.7,20.5c0.4-0.4,0.6-0.6,0.8-0.9c0.5-0.7,0.9-1.4,1.5-2c0.3-0.4,0.8-0.8,1.1-1.1c0.2-0.2,0.5-0.5,0.7-0.8    c0.3-0.3,0.7-0.6,1-0.9c0.2-0.2,0.4-0.4,0.7-0.6c0.3-0.3,0.7-0.5,1.1-0.7c0.5-0.2,0.9-0.6,1.3-0.9c0.2-0.1,0.3-0.4,0.5-0.5    c0.1-0.1,0.3-0.1,0.4-0.2c0.2,0,0.3,0,0.4,0.2c0,0.2,0.1,0.4-0.1,0.6c-1.2,1-2.2,2.2-3.2,3.3c-0.9,1-1.8,2-2.7,3    c-0.4,0.5-0.8,0.9-1.1,1.5c-0.2,0.6-0.6,1.1-0.9,1.6c-0.1,0.2-0.2,0.4-0.2,0.6c0,0.4-0.2,0.5-0.5,0.6c-0.5,0.1-1,0.1-1.4-0.1    c-0.4-0.2-0.7-0.7-0.6-1.2c0-0.1,0-0.2,0-0.3c-0.3-0.7-0.5-1.4-1.2-1.9c-0.2-0.1-0.3-0.4-0.4-0.6c-0.2-0.5,0.1-1.1,0.7-1.1    c0.2,0,0.4,0,0.7,0.1c0.4,0.1,0.6,0.3,0.7,0.7C640.2,19.4,640.5,19.9,640.7,20.5"/>
		<path class="st1" d="M640.4,30.3c0.6-0.7,1.2-1.2,1.5-2c0.1-0.3,0.2-0.6,0.4-0.9c0.2-0.5,0.4-0.6,0.8-0.5c0.3,0.1,0.6,0.2,0.7,0.5    c0.2,0.6,0.4,1.2,0.6,1.7c0.1,0.4,0.4,0.7,0.8,0.9c0.1-0.1,0.2-0.2,0.2-0.3c0.4-1.2,0.8-2.4,1.1-3.6c0.3-0.9,0.5-1.9,0.5-2.9    c0-0.3,0-0.5,0.3-0.6c0.3-0.1,0.7-0.1,0.9,0.2c0.4,0.5,0.9,0.7,1.4,0.9c0.3,0.1,0.6,0.2,0.9,0.3c0.8,0.2,1.4-0.3,1.4-1.1    c0-0.4,0-0.7,0-1.1c0-0.8,0.1-1.7,0.1-2.5c0-0.7,0.2-0.9,0.9-0.9c0.6,0,1.2-0.1,1.7-0.2c0.2,0,0.4-0.2,0.7-0.3    c-0.5-0.4-0.9-0.7-1.3-1.1c-1.5-1.4-1.9-2.3-1.2-4.2c0.2-0.5,0.5-1,0.7-1.5c0.2-0.4,0.1-0.6-0.3-0.5c-1.1,0-2.2,0.1-3.2,0.4    c-0.7,0.2-1,0-1.3-0.6c-0.2-0.6-0.4-1.1-0.4-1.7c0-0.4,0.1-0.8-0.2-1.2c-0.2,0.1-0.3,0.2-0.4,0.3c-0.7,0.6-1.3,1.2-2,1.8    c-0.2,0.1-0.4,0.3-0.6,0.3c-0.6,0.2-1-0.2-1.4-0.6c-0.5-0.6-0.9-1.2-1.4-1.8c-0.1-0.1-0.3-0.2-0.5-0.4c-0.1,0.4-0.2,0.7-0.2,1.1    c0,0.4,0,0.7-0.1,1.1c-0.1,0.7-0.4,1-1,1.1c-0.2,0-0.4,0.1-0.6,0.1c-0.8,0.1-1.6,0.2-2.4,0.1c-0.4,0-0.7-0.1-1.1-0.2    c-0.2,0-0.5,0.2-0.4,0.4c0.1,0.8,0.1,1.6,0.2,2.3c0.1,0.5,0.3,1,0.5,1.5c0.2,0.7-0.1,1.2-0.8,1.2c-0.3,0-0.7,0-1,0.1    c-0.7,0.3-1.5,0.6-2.2,0.9c-0.3,0.1-0.5,0.3-0.9,0.5c0.3,0.2,0.4,0.4,0.6,0.5c0.6,0.4,1.2,0.8,1.8,1.1c0.4,0.3,0.9,0.5,1.3,0.8    c0.5,0.3,0.9,0.5,1.3,0.8c0.6,0.5,0.6,1.3-0.1,1.8c0.3,0.6,0.3,0.7-0.1,1.2c-0.5,0.7-1.1,1.3-1.7,2c-0.3,0.4-0.7,0.6-1,1.2    c0.3-0.1,0.4-0.1,0.5-0.2c1-0.4,2-0.7,2.9-1.2c0.5-0.2,1-0.3,1.5,0.1c0.3,0.2,0.5,0.4,0.5,0.8c0,0.1,0,0.2,0.1,0.3    c0.4,1,0.8,1.9,0.8,3C640.3,29.7,640.3,29.9,640.4,30.3 M648.6,25c-0.4,1-0.8,1.9-1.1,2.8c-0.3,1-0.6,2.1-0.7,3.1    c-0.2,1.2-0.3,1.3-1.5,1c-0.9-0.2-1.4-0.9-1.8-1.7c-0.1-0.1-0.2-0.3-0.3-0.5c-0.2,0.1-0.4,0.2-0.5,0.4c-0.6,1-1.6,1.6-2.4,2.5    c-0.2,0.2-0.4,0.2-0.6,0.1c-0.5-0.2-0.8-0.4-0.9-1c0-0.4-0.1-0.9-0.1-1.3c0-0.8,0-1.6-0.1-2.4c0-0.3-0.1-0.6-0.3-0.9    c-0.1-0.2-0.2-0.3-0.4-0.2c-0.6,0.1-1.1,0.2-1.6,0.4c-0.1,0.1-0.4,0.2-0.5,0.2c-1.1,0.2-2.1,0.6-3.1,0.9c-0.3,0.1-0.7,0.3-1,0.4    c-0.3,0.1-0.5,0.2-0.8,0.3c-0.3,0.1-0.5,0-0.7-0.2c-0.4-0.4-0.4-1.4,0.1-1.6c0.9-0.5,1.6-1.2,2.4-1.9c0.7-0.6,1.3-1.3,1.9-1.9    c0.3-0.3,0.6-0.7,1-1c0.2-0.2,0.4-0.3,0.6-0.4c-0.4-0.8-1.2-1.2-1.9-1.5c0,0-0.1,0-0.1-0.1c-1-0.7-2-1.4-3.1-2.2    c-0.3-0.2-0.5-0.5-0.8-0.8c-0.4-0.5-0.4-1.5,0.4-1.9c1-0.4,1.9-0.9,2.9-1.3c0.3-0.1,0.6-0.3,0.9-0.4c0.2-0.1,0.3-0.2,0.2-0.4    c0-0.3-0.1-0.5-0.1-0.8c0-1.3-0.1-2.5-0.4-3.7c-0.1-0.4-0.1-0.7,0.3-0.9c0.3-0.2,0.7-0.2,1,0c1.2,0.6,2.4,0.7,3.7,0.3    c0.3-0.1,0.5-0.4,0.6-0.7c0-0.4,0.2-1,0.3-1.4c0.1-0.3,0.2-0.7,0.4-1c0.2-0.4,0.6-0.5,1.1-0.3c0.7,0.2,1.1,0.7,1.6,1.2    c0.3,0.3,0.5,0.7,0.8,1c0.3,0.4,0.5,0.5,0.9,0.2c0.6-0.5,1.3-0.9,1.9-1.4c0.2-0.1,0.4-0.2,0.5-0.4c0.9-0.6,1.9-0.2,2.1,0.9    c0.1,0.7,0.1,1.3,0.2,2c0.1,0.5,0.2,0.7,0.8,0.6c0.6-0.2,1.3-0.1,1.9-0.2c0.3,0,0.6,0,0.9,0c1.5,0.1,2.3,1.4,1.7,2.8    c-0.1,0.3-0.3,0.5-0.5,0.8c-0.5,0.6-0.8,1.3-0.5,2.1c0,0.1,0.1,0.2,0.1,0.3c0.4,0.4,0.8,0.7,1.2,1c0.3,0.2,0.5,0.5,0.8,0.7    c0.2,0.2,0.4,0.5,0.6,0.6c0.6,0.2,0.7,0.7,0.8,1.2c0.1,0.3-0.2,0.8-0.4,0.9c-0.5,0.2-1.1,0.3-1.6,0.5c-0.4,0.1-0.7,0.2-1.1,0.2    c-0.5,0-1,0.5-1,1c0,1-0.1,1.9,0.1,2.9c0.1,0.5,0,1-0.2,1.4c-0.2,0.4-0.7,0.6-1.1,0.5c-0.4,0-0.8-0.1-1.2-0.2    c-0.6-0.2-1.2-0.5-1.8-0.7C649,25.1,648.8,25.1,648.6,25"/>
	</g>
	<g id="_x32_">
		<path class="st2" d="M372.4,45.1c0.5,0.1,0.9,0.1,1.3,0.2c0.9,0.1,1.5,0.6,1.7,1.5c0.2,0.9-0.1,1.7-0.9,2.2c-1,0.6-2,1.3-3,2    c-3.4,2.5-6.6,5.3-9.5,8.4c-0.6,0.7-1.4,1.3-2.1,1.9c-1.4-0.2-2.3-0.9-3.1-1.9c-1.9-2.3-3.8-4.5-5.8-6.7c-0.3-0.3-0.6-0.5-1.2-1.1    c-0.4,6-1.1,11.6-1.2,17.1c-0.9,0.7-1.5,0.4-2.1-0.1c-0.7-0.5-1.2-1.1-1.1-2c0.1-2.4,0.3-4.8,0.5-7.2c0.2-2.8,0.4-5.6,0.3-8.4    c-4,4.4-7.2,9.3-10.6,14.3c-1.3-0.1-2.6-0.2-3.8-0.3c-0.8-0.1-1.3-0.6-1.6-1.4c-0.4-1.1,0.1-2,1.3-1.9c1.9,0.1,2.6-0.9,3.3-2.4    c0.3-0.8,1-1.4,1.5-2.1c2.1-2.8,4.3-5.5,6.4-8.3c1-1.3,2-2.7,2.8-4.2c0.8-1.3,2-1.2,3.1-1.1c1,0.1,1.9,1.4,1.7,2.7    c-0.3,1.5,0.5,2.5,1.3,3.4c1.6,2,3.4,4,5.1,6c1.3,1.5,1.8,1.5,3.3,0.2c3.2-2.7,6.4-5.5,9.6-8.2C370.5,46.8,371.4,46,372.4,45.1"/>
		<path class="st2" d="M347.1,29.6c-0.2,0.1-0.3,0.1-0.5,0.2c0.5,1.7,0.9,3.5,1.5,5.1c0.5,1.3,1.3,1.4,2.4,0.6    c0.8-0.6,1.6-1.3,2-2.4c1-2.6,1.4-5.2,1.1-7.9c-0.1-1.1-0.1-2.2-0.5-3.2c-0.2-0.6-0.8-1.3-1.4-1.5c-0.4-0.1-1.1,0.6-1.5,1    c-0.3,0.3-0.5,0.8-0.7,1.2c-0.8,2.3-1.4,4.5,0.6,6.5c0.4,0.4,0.5,1.2,0.8,1.8C349.3,31.4,348.2,30.6,347.1,29.6 M343.6,22.4    c0.1-1.7,0.4-3.2,2-4.2c0.3-0.2,0.8-0.5,1.1-0.4c1.3,0.6,2.3-0.3,3.4-0.5c2-0.4,3.4,0.9,4.6,2.3c0.5,0.6,0.8,1.3,1,2    c1.5,5.1,1.6,10.2-0.9,15.1c-1.4,2.8-4.4,3.5-6.9,1.5c-1.7-1.3-2.6-3.2-3.2-5.2C343.8,29.4,343.4,25.9,343.6,22.4"/>
		<path class="st1" d="M417.9,11.3c-0.2-0.5-0.4-1-0.5-1.4c-0.1-0.3,0-0.6,0.3-0.8c0.2-0.1,0.5-0.2,0.8-0.3c0-1.1-0.2-1.3-1.1-1.6    c-0.2-0.1-0.3-0.1-0.5-0.1c-0.4-0.1-0.7,0.1-0.7,0.5c0,1.4,0.2,2.7,0.8,3.9C417.3,11.5,417.6,11.4,417.9,11.3 M414.4,6.9    c-0.3,0-0.4-0.1-0.5-0.1c-1.3,0-2.6,0.1-3.8,0.1c-0.9,0-1.8-0.1-2.7-0.1c-1.6-0.1-3.3,0.1-4.9-0.3c-1.7-0.1-3.5,0-5,0.9    c-0.4,0.2-0.8,0.3-1.2,0.5c-0.5,0.2-0.5,0.8-0.9,1.1c-0.4,0.3-0.5,0.8-0.5,1.2c-0.1,0.8,0.5,1.4,1.4,1.3c0.2,0,0.5,0,0.7,0    c1.1,0.4,2.3,0.5,3.5,0.6c2.7,0.3,5.5,0.3,8.2,0c2-0.2,4-0.5,6-0.4c0.2,0,0.4-0.1,0.6-0.1C414.8,10,414.3,8.5,414.4,6.9 M419,41.1    c0.1-0.8,0.3-1.5,0.2-2.1c-0.1-0.9,0.1-1.7-0.1-2.6c-0.1-0.2,0.1-0.5,0.1-0.7c0.2-0.9,0.4-1.8,0.3-2.8c-0.2-1.6-0.3-3.2-0.6-4.8    c-0.2-1.1-0.3-2.1-0.3-3.2c0-1.4,0-2.8-0.1-4.2c-0.1-1.5-0.2-3-0.1-4.5c0.1-0.9-0.1-1.1-0.9-1.4c-0.4-0.1-0.8-0.4-1-0.7    c-0.4-0.5-0.9-0.6-1.5-0.7c-1,0-1.9-0.1-2.9,0c-0.4,0.1-0.8,0-1.1,0c-0.4,0-0.8,0-1.2,0c-2.1,0.2-4.1,0.4-6.2,0.4    c-0.5,0-1,0-1.5-0.1c-1.3-0.1-2.5-0.3-3.8-0.4c-0.6-0.1-0.8,0.2-0.7,0.7c0,0.2,0.1,0.3,0.2,0.5c0.2,0.4,0.2,0.9,0.3,1.4    c0.2,2.1-0.3,4.3-0.1,6.4c0,0.2-0.1,0.5-0.1,0.7c-0.1,1.2-0.2,2.3-0.3,3.5c-0.1,1.1,0,2.3-0.2,3.4c-0.1,0.6-0.1,1.3,0,1.9    c0.2,1.1,0.1,2.2,0.4,3.2c0,0,0,0.1,0,0.1c0.1,0.9,0.1,1.9,0.2,2.8c0.1,0.6,0.2,1.2,0.3,1.9c0.1,0.4,0.3,0.6,0.6,0.7    c0.9,0.2,1.8,0.3,2.7,0.2c1-0.1,1.9-0.1,2.9-0.2c1.2,0,2.5-0.1,3.7-0.5c0.6-0.2,1.3-0.2,2-0.2c0.4,0,0.8,0.1,1.2,0    c0.6,0,1.2-0.1,1.8-0.1c1-0.1,2,0,3,0.4C417,40.9,418,40.9,419,41.1 M395.3,13.2c-0.5-0.3-1-0.6-1.5-0.9c-1.1-0.6-1.4-1.4-1-2.6    c0.1-0.4,0.3-0.7,0.4-1.1c0.3-0.6,0.5-1.2,0.7-1.8c0.2-0.5,0.5-0.9,1.1-0.8c1,0.1,1.8-0.3,2.7-0.7c1.1-0.5,2.3-0.6,3.5-0.6    c1.1,0,2.3,0.2,3.4,0.2c1.6,0.1,3.1,0.1,4.7,0.1c1.5,0,2.9-0.1,4.4-0.2c0.3,0,0.6,0,0.9,0.1c0.6,0,1.2,0.1,1.9,0.1    c0.2,0,0.3,0,0.5,0c1.5,0.1,2.4,1.1,3,2.4c0.2,0.4,0.3,0.8,0.3,1.2c0.1,0.6,0.2,1.3,0.4,1.9c0.1,0.2,0.1,0.4,0,0.6    c-0.4,1-0.4,2.1-0.5,3.2c0,0.4-0.1,0.8-0.1,1.2c-0.2,1.3-0.1,2.6-0.1,3.9c0,1.8,0.1,3.5,0.1,5.3c0,1,0.1,2,0.4,3    c0.1,0.3,0.1,0.6,0.2,0.9c0.2,1.1,0.3,2.2,0.6,3.3c0.1,0.4,0.1,0.8,0.1,1.2c-0.1,1.3-0.1,2.6,0.2,3.9c0.1,0.4,0,0.8-0.1,1.2    c-0.3,1-0.5,2-0.4,3c0,0.3,0.2,0.6,0.3,0.9c0.1,0.2,0.2,0.5,0.2,0.7c0,0.8-0.6,1-1.3,1.1c-0.3,0-0.7-0.1-1-0.3    c-0.6-0.5-1.3-0.7-2.1-0.8c-0.3,0-0.5-0.1-0.8-0.2c-1-0.4-2.1-0.5-3.2-0.3c-0.4,0.1-0.9,0.1-1.3,0.2c-0.5,0.1-0.9,0-1.4-0.1    c-0.5-0.2-1-0.2-1.5-0.1c-0.4,0-0.8,0.1-1.1,0.2c-1.4,0.3-2.9,0.2-4.3,0.3c-0.8,0-1.6,0-2.4,0.1c-0.7,0.1-1.4,0-2.1-0.1    c-0.3-0.1-0.7-0.1-1-0.2c-0.5-0.1-1.1-0.2-1.6-0.2c-0.5,0-1-0.1-1.3-0.5c-0.4-0.5-0.4-1.1,0.1-1.5c0.1-0.1,0.2-0.1,0.3-0.2    c0.8-0.2,0.9-0.8,0.8-1.5c-0.1-1.6-0.2-3.1-0.3-4.7c-0.1-1.1-0.1-2.3,0-3.4c0.1-1.1,0.1-2.3,0.1-3.4c0-0.7,0.1-1.5,0.1-2.2    c0-0.7,0-1.5,0-2.2c0-0.2,0-0.4,0-0.6c0.2-1.5,0-2.9,0-4.4c0-0.5-0.1-1-0.2-1.5c-0.1-0.4-0.2-0.8-0.5-1.1c-0.5-0.5-0.5-1-0.2-1.6    C395.3,13.5,395.3,13.4,395.3,13.2"/>
		<path d="M364.3,76.7c-1.2-0.1-2.3-0.3-3.3-0.3c-3.6,0.2-7.3,0.5-10.9,0.7c-2,0.1-4-0.1-6.1-0.1c-1.3,0-2.6,0-4.1,0    c-0.2,2.3-0.3,4.3-0.5,6.4c-0.1,0.7-0.2,1.4-0.4,2c-0.3,0.8-1.2,1-1.8,0.3c-0.7-0.9-0.9-1.9-0.6-3.1c0.4-1.6,0.5-3.3,0.5-5    c-1.5,0-2.7-0.6-4.1-0.4c-1,0.1-2-1.5-1.7-2.5c0.1-0.2,0.1-0.4,0.3-0.4c0.9-0.3,1.9-0.9,2.7-0.7c1.5,0.4,3,0.2,4.5,0.2    c2.7,0,5.4,0.2,8.1,0.1c3.6-0.1,7.1-0.5,10.7-0.7c2.9-0.1,5.8,0,8.6,0c1.4,0,2.9-0.2,4.3-0.3c1.3-0.1,2.1,0.4,2.4,1.6    c0.2,1-0.1,1.6-1.1,1.7c-1.1,0.2-2.2,0.3-3.3,0.4c-0.8,0.1-1.2,0.3-1.2,1.1c0.1,2.1,0.1,4.1,0.2,6.2c0,1,0,2.1-0.1,3.1    c0,0.4-0.4,0.8-0.8,1c-0.2,0.1-0.8-0.2-1-0.4c-0.9-0.9-1.3-1.9-1.2-3.2C364.6,81.8,364.4,79.4,364.3,76.7"/>
		<path d="M329.3,93.8c-0.5-0.6-1-1-1.4-1.5c-2,0.9-3.3,2.7-3.3,4.5c0,1.1,0.5,1.8,1.4,2.2c1.4,0.5,3.5-0.3,3.9-1.7    c0.4-1.2,0.5-2.4,0.7-3.7c0-0.1-0.2-0.3-0.3-0.5C330,93.3,329.7,93.5,329.3,93.8 M333.1,95.8c-0.3,1.2-0.6,2.3-0.9,3.5    c-0.6,1.9-2,2.8-3.9,2.9c-4,0.2-5.9-2.8-6.2-5.6c-0.4-3.2,1.4-5.2,3.7-6.9c0.8-0.6,1.6-1.6,2.9-1.2c0.5,0.1,1,0.2,1.4,0.6    C332,90.8,333.4,92.9,333.1,95.8"/>
		<path d="M338.9,101.5c-1.5,1.4-2.3,3.3-2.7,5.4c-0.3,1.3,0.4,1.9,1.7,1.9c1.7,0,2.6-1.2,3.4-2.4c0.6-0.9,1.3-1.9,1.1-3.2    c-0.1-0.6-0.3-1-1.1-1.1C340.5,102,339.8,101.8,338.9,101.5 M344.9,104.5c-0.5,2.5-1.2,4.5-2.9,6.2c-1.3,1.3-2.8,1.8-4.5,1.4    c-2-0.5-3.1-1.9-3.6-3.8c-1-3.9,0.7-6.9,3.3-9.6c0.2-0.2,0.5-0.4,0.8-0.3c1.5,0.2,3.2,0.2,4.5,0.8    C344.7,100.3,344.9,102.6,344.9,104.5"/>
		<path d="M351.5,92.6c-1.1,1.7-1.8,3.8-2,6.1c0,0.4,0.1,0.9,0.3,1.3c0.4,1.1,1.3,1.3,2.2,0.7c0.5-0.3,0.9-0.7,1.3-1.1    c1.4-1.4,2.7-4.1,1.1-6.3C353.3,93,352.5,92.8,351.5,92.6 M357.6,97.3c-0.1,2.5-1.4,4.4-3.2,5.9c-2.2,1.9-5.2,1.1-6.7-1.6    c-0.7-1.4-1.2-2.9-0.8-4.5c0.5-2,1-4.1,1.8-5.9c1.2-2.8,4.6-3.1,6.6-0.8C357.1,92.4,357.7,94.8,357.6,97.3"/>
		<path d="M367.5,105.4c-0.1-0.3-0.1-1-0.4-1.3c-0.6-0.8-3.2-0.8-3.8-0.1c-1.2,1.4-2.1,3-2.4,4.9c-0.1,0.8,0.2,1.4,1,1.6    c0.7,0.1,1.4,0.2,2-0.1C365.9,109.5,367.1,107.9,367.5,105.4 M370.1,106.5c-0.1,1.7-0.9,3.2-1.7,4.6c-1.2,2.1-4.4,3-6.6,2.4    c-1.7-0.4-3.5-2.8-3.6-4.9c-0.1-3,1.2-5.3,3.2-7.4c0.2-0.2,0.6-0.4,0.9-0.5c0.6-0.3,4.7-0.2,5.3,0.1c1.4,0.6,2.7,3.2,2.6,5    C370.2,106,370.1,106.3,370.1,106.5"/>
		<path d="M375.6,95.7c-1.4,4-1.6,5.1-1,6.4c2.6-1.2,3.6-3.1,3-5.2C376.9,96.4,376.3,96,375.6,95.7 M371.7,99.2    c0.6-2.2,1.1-4.4,1.8-6.6c0.3-1,0.9-1.1,1.9-0.7c0.5,0.3,1.1,0.5,1.7,0.7c1.4,0.3,2.1,1.5,2.7,2.6c1.4,2.7,1.2,6.9-2,9.1    c-1.1,0.8-2.5,1.4-3.7,0.6c-0.9-0.7-1.6-1.8-2.1-2.8C371.6,101.2,371.7,100.2,371.7,99.2"/>
		<path d="M388.9,103.9c-0.5,0.3-1.2,0.4-1.6,0.8c-1.8,2-3.4,4.2-3.6,7.1c0,0.5,0.2,1.1,0.5,1.4c0.9,0.9,2.1,1.2,3.3,0.7    c1.3-0.5,2.5-0.9,2.7-2.6C390.5,108.8,390.8,106.3,388.9,103.9 M393.2,111.9c-0.2,0.8-0.4,1.7-0.7,2.5c-1,2.2-2.8,3.1-5.1,2.9    c-4.8-0.4-7-4.7-6-8.7c0.6-2.4,1.7-4.7,3.5-6.5c1.2-1.3,2.5-1.5,4.1-0.7c0.3,0.1,0.5,0.4,0.7,0.4c1.5,0,2,1.2,2.5,2.3    C393.1,106.6,393.3,109.2,393.2,111.9"/>
	</g>
	<g id="_x31_">
		<path d="M152,76.7c-1.2-0.1-2.3-0.3-3.3-0.3c-3.6,0.2-7.3,0.5-10.9,0.7c-2,0.1-4-0.1-6.1-0.1c-1.3,0-2.6,0-4.1,0    c-0.2,2.3-0.3,4.3-0.5,6.4c-0.1,0.7-0.2,1.4-0.4,2c-0.3,0.8-1.2,1-1.8,0.3c-0.7-0.9-0.9-1.9-0.6-3.1c0.4-1.6,0.5-3.3,0.5-5    c-1.5,0-2.7-0.6-4.1-0.4c-1,0.1-2-1.5-1.7-2.5c0.1-0.2,0.1-0.4,0.3-0.4c0.9-0.3,1.9-0.9,2.7-0.7c1.5,0.4,3,0.2,4.5,0.2    c2.7,0,5.4,0.2,8.1,0.1c3.6-0.1,7.1-0.5,10.7-0.7c2.9-0.1,5.8,0,8.6,0c1.4,0,2.9-0.2,4.3-0.3c1.3-0.1,2.1,0.4,2.4,1.6    c0.2,1-0.1,1.6-1.1,1.7c-1.1,0.2-2.2,0.3-3.3,0.4c-0.8,0.1-1.2,0.3-1.2,1.1c0.1,2.1,0.1,4.1,0.2,6.2c0,1,0,2.1-0.1,3.1    c0,0.4-0.4,0.8-0.8,1c-0.2,0.1-0.8-0.2-1-0.4c-0.9-0.9-1.3-1.9-1.2-3.2C152.3,81.8,152.1,79.4,152,76.7"/>
		<path d="M117,93.8c-0.5-0.6-1-1-1.4-1.5c-2,0.9-3.3,2.7-3.3,4.5c0,1.1,0.5,1.8,1.4,2.2c1.4,0.5,3.5-0.3,3.9-1.7    c0.4-1.2,0.5-2.4,0.7-3.7c0-0.1-0.2-0.3-0.3-0.5C117.7,93.3,117.4,93.5,117,93.8 M120.8,95.8c-0.3,1.2-0.6,2.3-0.9,3.5    c-0.6,1.9-2,2.8-3.9,2.9c-4,0.2-5.9-2.8-6.2-5.6c-0.4-3.2,1.4-5.2,3.7-6.9c0.8-0.6,1.6-1.6,2.9-1.2c0.5,0.1,1,0.2,1.4,0.6    C119.7,90.8,121.1,92.9,120.8,95.8"/>
		<path d="M126.6,101.5c-1.5,1.4-2.3,3.3-2.7,5.4c-0.3,1.3,0.4,1.9,1.7,1.9c1.7,0,2.6-1.2,3.4-2.4c0.6-0.9,1.3-1.9,1.1-3.2    c-0.1-0.6-0.3-1-1.1-1.1C128.2,102,127.5,101.8,126.6,101.5 M132.6,104.5c-0.5,2.5-1.2,4.5-2.9,6.2c-1.3,1.3-2.8,1.8-4.5,1.4    c-2-0.5-3.1-1.9-3.6-3.8c-1-3.9,0.7-6.9,3.3-9.6c0.2-0.2,0.5-0.4,0.8-0.3c1.5,0.2,3.2,0.2,4.5,0.8    C132.4,100.3,132.6,102.6,132.6,104.5"/>
		<path d="M139.2,92.6c-1.1,1.7-1.8,3.8-2,6.1c0,0.4,0.1,0.9,0.3,1.3c0.4,1.1,1.3,1.3,2.2,0.7c0.5-0.3,0.9-0.7,1.3-1.1    c1.4-1.4,2.7-4.1,1.1-6.3C141,93,140.2,92.8,139.2,92.6 M145.3,97.3c-0.1,2.5-1.4,4.4-3.2,5.9c-2.2,1.9-5.2,1.1-6.7-1.6    c-0.7-1.4-1.2-2.9-0.8-4.5c0.5-2,1-4.1,1.8-5.9c1.2-2.8,4.6-3.1,6.6-0.8C144.8,92.4,145.4,94.8,145.3,97.3"/>
		<path d="M155.2,105.4c-0.1-0.3-0.1-1-0.4-1.3c-0.6-0.8-3.2-0.8-3.8-0.1c-1.2,1.4-2.1,3-2.4,4.9c-0.1,0.8,0.2,1.4,1,1.6    c0.7,0.1,1.4,0.2,2-0.1C153.6,109.5,154.8,107.9,155.2,105.4 M157.8,106.5c-0.1,1.7-0.9,3.2-1.7,4.6c-1.2,2.1-4.4,3-6.6,2.4    c-1.7-0.4-3.5-2.8-3.6-4.9c-0.1-3,1.2-5.3,3.2-7.4c0.2-0.2,0.6-0.4,0.9-0.5c0.6-0.3,4.7-0.2,5.3,0.1c1.4,0.6,2.7,3.2,2.6,5    C157.9,106,157.8,106.3,157.8,106.5"/>
		<path d="M163.3,95.7c-1.4,4-1.6,5.1-1,6.4c2.6-1.2,3.6-3.1,3-5.2C164.6,96.4,164,96,163.3,95.7 M159.4,99.2    c0.6-2.2,1.1-4.4,1.8-6.6c0.3-1,0.9-1.1,1.9-0.7c0.5,0.3,1.1,0.5,1.7,0.7c1.4,0.3,2.1,1.5,2.7,2.6c1.4,2.7,1.2,6.9-2,9.1    c-1.1,0.8-2.5,1.4-3.7,0.6c-0.9-0.7-1.6-1.8-2.1-2.8C159.3,101.2,159.4,100.2,159.4,99.2"/>
		<path d="M176.6,103.9c-0.5,0.3-1.2,0.4-1.6,0.8c-1.8,2-3.4,4.2-3.6,7.1c0,0.5,0.2,1.1,0.5,1.4c0.9,0.9,2.1,1.2,3.3,0.7    c1.3-0.5,2.5-0.9,2.7-2.6C178.2,108.8,178.5,106.3,176.6,103.9 M180.9,111.9c-0.2,0.8-0.4,1.7-0.7,2.5c-1,2.2-2.8,3.1-5.1,2.9    c-4.8-0.4-7-4.7-6-8.7c0.6-2.4,1.7-4.7,3.5-6.5c1.2-1.3,2.5-1.5,4.1-0.7c0.3,0.1,0.5,0.4,0.7,0.4c1.5,0,2,1.2,2.5,2.3    C180.8,106.6,181,109.2,180.9,111.9"/>
		<path class="st1" d="M85.7,22.2c0.1-0.8,0.1-1.7,0.8-2.3c0.7-0.6,1.4-1.3,2-2c0.7-0.8,1.4-1.5,1.7-2.6c0,0,0-0.1,0.1-0.1    c0.5-1.2-0.1-1.6-1.1-1.6c-0.2,0-0.4,0.1-0.6,0.1c-0.6,0.3-1.2,0.7-1.7,1.2c-0.9,0.8-1.4,1.9-2,3c-0.1,0.1-0.1,0.3-0.1,0.5    c-0.1,0.6-0.5,0.8-1,0.6c-0.1,0-0.2-0.1-0.3-0.1c-0.6-0.2-0.8-0.7-0.4-1.3c0.6-0.9,1.2-1.9,1.9-2.8c0.7-0.9,1.5-1.6,2.4-2.1    c1.2-0.7,2.4-0.8,3.7,0c0.3,0.2,0.5,0.3,0.8,0.5c0.6,0.6,0.7,1.4,0.4,2.2c-0.3,0.7-0.6,1.3-1,1.9c-0.5,0.8-1,1.5-1.7,2    c-0.6,0.5-1,1.1-1.5,1.7c-0.5,0.6-0.4,1.4-0.4,2.2c0,0.2,0,0.3,0,0.5c-0.1,0.3-0.3,0.5-0.6,0.4c-0.7-0.2-0.8-0.9-1-1.5    C85.7,22.5,85.7,22.3,85.7,22.2"/>
		<path class="st1" d="M85.3,29.2c-0.6,0-1.3-0.7-1.4-1.3c-0.1-0.3,0-0.6,0.3-0.8c0.3-0.2,0.7-0.3,1.1-0.4c0.1,0,0.3,0.1,0.4,0.2    c0.2,0.4,0.3,0.9,0.4,1.3C86.1,28.7,85.7,29.2,85.3,29.2"/>
		<path class="st1" d="M97,12.7c-0.3,1-1,1.3-2.1,1.1c-0.6-0.1-1-0.3-1.2-0.9c-0.1-0.2-0.1-0.4-0.1-0.6c0.1-0.6-0.2-1-0.6-1.4    c-0.9-1-2-1.8-3.1-2.5c-0.6-0.4-1.3-0.7-2-0.9c-0.5-0.1-1-0.2-1.5-0.2c-1.1,0.1-1.8,0.7-1.9,1.8c-0.1,0.7,0.1,1.3,0.4,1.9    c0.6,1.1,0.4,1.6-0.8,2.1c-0.2,0.1-0.3,0.1-0.5,0.1c-0.1-0.1-0.3-0.2-0.4-0.3c-1.5-1.5-3.4-2.4-5.5-2.8C77,10,76.2,10,75.4,10.2    c-1.9,0.5-2.4,2-2.3,3.2c0,1.1,0.3,2.2,0.6,3.3c0.3,0.9,0.5,1.7,0.8,2.6c0.2,0.8,0.4,1.5,0.8,2.2c0.4,0.7,0.2,1-0.4,1.5    c-0.4,0.3-0.9,0.4-1.4,0.5c-0.9,0.1-1.8,0.4-2.5,1.1c-0.6,0.6-0.7,1.2-0.4,1.9c0.8,1.9,2.2,3.2,4.1,4.1c2.2,1.1,4.6,1.6,7,1.8    c2,0.2,4.1,0.1,6-0.8c1.3-0.6,2.4-1.6,3.2-2.9c0.2-0.3,0.2-0.7,0.4-1c0.2-0.5,0.5-1.1,0.8-1.6c0.2-0.4,0.5-0.4,0.9-0.2    c0.5,0.3,1,0.6,1.2,1.2c0.3,1.1,1.1,1.8,1.9,2.3c1.9,1.2,4,1.2,6.1,0.6c0.6-0.2,1.1-0.5,1.6-1c1-0.9,1.8-2,2.2-3.3    c0.2-0.6,0.2-1.2,0.2-1.8c0-0.6-0.4-1-1-1.2c-0.2-0.1-0.4-0.1-0.6-0.2c-0.9-0.2-1.8-0.5-2.5-1.3c-0.2-0.3-0.5-0.4-0.8-0.6    c-0.4-0.2-0.7-0.4-1-0.6c-0.5-1.8-0.1-2.5,1.6-2.5c0.3-0.3,0.7-0.6,1-1c0.4-0.5,0.4-0.9,0.1-1.5c-0.8-1.1-1.9-2-3.2-2.5    c-0.6-0.2-1.4-0.3-2.5-0.3C97.1,12.6,97,12.6,97,12.7 M91.9,30c-0.4,0.4-0.7,0.9-1.2,1.3c-1,0.7-2,1.4-3,2.1    c-1.6,1-3.5,1.3-5.4,1.2c-2.7-0.2-5.4-0.6-7.9-1.7c-1.2-0.5-2.4-1-3.4-1.9c-1-0.9-1.7-1.9-2.5-3c-0.2-0.2-0.3-0.5-0.3-0.8    c-0.1-1.1,0-2.1,0.7-3c0.7-1,1.6-1.8,2.8-2.3c0.4-0.2,0.8-0.3,1-0.8c-0.2-1.2-0.3-2.5-0.9-3.7c-0.7-1.5-0.9-3.1-0.6-4.8    c0.3-1.7,1-3.2,2.8-3.8c0.2-0.1,0.4-0.2,0.7-0.3c0.6-0.2,1.2-0.5,1.8-0.4c1.6,0,3.2,0.1,4.6,0.9c0.4,0.2,0.9,0.5,1.5,0.3    c0.1-0.5,0.3-1,0.4-1.4c0.4-1.4,1.4-2.2,2.7-2.6c1-0.3,2-0.2,3,0.2c2.1,0.8,3.9,2,5.4,3.5c1.5,1.4,1.4,1.4,3.5,1.3    c0.6,0,1.2,0,1.9,0.1c1.5,0.3,2.8,1.1,3.9,2.1c0.6,0.5,1.2,1.1,1.6,1.8c0.7,1.2,0.7,2-0.1,3.1c-0.3,0.5-0.7,0.9-1.1,1.4    c-0.1,0.1-0.1,0.4-0.2,0.6c0.4,0.2,0.7,0.2,1,0.4c0.5,0.4,1,0.6,1.6,0.7c0.8,0.2,1.4,0.7,1.7,1.5c0.5,1.4,0.7,2.7,0.1,4.1    c-0.4,1.1-1.1,2-1.8,2.9c-0.9,1.2-2,2.1-3.3,2.8c-0.4,0.2-0.8,0.4-1.2,0.4c-0.9,0.1-1.7,0.3-2.6,0.2c-2.2-0.1-4.2-0.7-5.8-2.3    c-0.2-0.2-0.5-0.4-0.8-0.8C92.2,29.7,92,29.8,91.9,30"/>
		<path class="st1" d="M110.2,32.9c-0.3,0.2-0.7,0.4-1.2,0.6c0,0.2,0,0.5,0.1,0.7c0.3,0.6,0.7,1.1,1.4,1.4c0.7,0.3,1.3,0.4,2,0.1    c0.3-0.2,0.5-0.4,0.5-0.8c0.1-0.7-0.1-1.3-0.6-1.8c-0.3-0.4-0.8-0.8-1.2-1C110.9,32.4,110.6,32.7,110.2,32.9 M114.8,35.9    c-0.8,1.5-2.9,2.3-4.3,1.8c-1.3-0.4-2.4-1.2-3-2.5c-0.6-1.2-0.5-2.4,0.3-3.5c0.3-0.4,0.7-0.8,1-1.3c0.4-0.5,0.9-0.7,1.6-0.6    c2.2,0.3,3.7,1.6,4.6,3.6c0.1,0.3,0.1,0.6,0.2,1C115,34.8,115,35.4,114.8,35.9"/>
		<path class="st1" d="M117.7,39.1c0-0.2,0-0.3,0-0.5c-0.2-0.7-0.9-1.1-1.5-0.7c-0.8,0.4-1.2,1.4-0.9,2.1c0.2,0.6,0.6,0.9,1.1,0.8    c0.7,0,1.2-0.4,1.3-1C117.7,39.7,117.7,39.4,117.7,39.1"/>
		<path class="st2" d="M122.3,48.7c-0.7,0.2-1.3,0.1-1.9-0.3c-0.2-0.2-0.4-0.4-0.5-0.7c-0.2-1.3,0.8-2.7,2.1-2.9    c0.7-0.1,1.5-0.1,2.2-0.2c0.5-0.1,1-0.2,1.5-0.2c1.5-0.1,2,0.3,2.1,1.8c0,0.6,0.2,1,0.5,1.4c0.9,1.3,1.9,2.6,2.8,4    c0.9,1.4,2,2.5,3.5,3.5c0.5-0.7,0.6-1.5,0.8-2.3c0.7-2.7,5.8-7,5-5.6c-1,1.9-1.7,4-2.2,6.1c-0.5,1.9-0.8,3.8-0.9,5.8    c0,1.1-0.6,1.9-1.6,2.4c-1,0.5-1.7,0.1-2.4-0.6c-0.2-0.7-0.4-1.4-0.7-2.1c-0.4-0.7-0.8-1.4-1.3-2.1c-1.3-2.1-2.7-4.3-4-6.4    c-0.5-0.8-1.1-1.5-1.6-2.3C124.4,48.1,123.3,48.4,122.3,48.7"/>
		<path class="st2" d="M140,68.8c0.7,0.6,1.1,0.3,1.6-0.1c0.5-0.5,0.9-1,0.9-1.7c-0.1-2.1-0.2-4.2-0.3-6.3c-0.1-2.4-0.3-4.9-0.3-7.4    c3,3.8,5.4,8.1,8,12.5c1-0.1,1.9-0.2,2.9-0.3c0.6-0.1,1-0.5,1.2-1.2c0.3-1-0.1-1.7-1-1.7c-1.4,0.1-2-0.8-2.5-2.1    c-0.3-0.7-0.7-1.3-1.1-1.9c-1.6-2.4-3.2-4.8-4.8-7.3c-0.8-1.2-1.5-2.4-2.1-3.6c-0.6-1.1-1.5-1.1-2.4-1c-0.7,0.1-1.5,1.3-1.3,2.3    C139,50.5,139.9,64,140,68.8"/>
		<path class="st2" d="M141.5,34.8c-0.4,1.5-0.7,3-1.1,4.5c-0.4,1.1-1,1.2-1.8,0.5c-0.6-0.6-1.2-1.1-1.5-2.1    c-0.7-2.3-1.1-4.5-0.8-6.9c0.1-0.9,0.1-1.9,0.4-2.8c0.2-0.5,0.6-1.1,1.1-1.3c0.3-0.1,0.8,0.5,1.1,0.9c0.2,0.3,0.4,0.7,0.5,1.1    C139.8,30.6,141.4,34.8,141.5,34.8 M143.8,28.3c-0.1-1.4-0.3-2.8-1.5-3.7c-0.2-0.2-0.6-0.5-0.8-0.4c-1,0.5-1.7-0.2-2.6-0.4    c-1.5-0.4-2.6,0.8-3.5,2c-0.3,0.5-0.6,1.1-0.8,1.7c-1.2,4.5-1.2,8.9,0.7,13.2c1.1,2.5,3.3,3.1,5.2,1.3c1.3-1.2,2-2.8,2.4-4.6    C143.7,34.5,143.9,31.4,143.8,28.3"/>
	</g>
	<path class="st1" d="M402.1,33.3c0.7,0,1.3,0.7,1.3,1.3c0,0.1-0.1,0.4-0.2,0.4c-0.6,0.1-0.6,0.6-0.8,0.9c-0.2,0.2-0.4,0.4-0.7,0.6   c-0.1,0.1-0.4,0.1-0.6,0.1c-0.6-0.2-1.1-0.5-1.3-1.2c-0.1-0.4,0-0.7,0.4-1c0.2-0.1,0.3-0.2,0.5-0.2c0.2-0.1,0.4-0.2,0.5-0.4   C401.5,33.5,401.7,33.4,402.1,33.3"/>
	<path class="st1" d="M403.3,27.3c0.8,0,1.3,0.5,1.3,1c0,0.2-0.1,0.4-0.2,0.5c-0.3,0.4-0.8,0.5-1.3,0.3s-0.8-0.5-1-1   c-0.1-0.2,0.2-0.6,0.5-0.7C402.9,27.4,403.2,27.3,403.3,27.3"/>
	<path class="st1" d="M404.1,31.9c0,0.5-0.6,0.8-1.1,0.7c-0.2-0.1-0.4-0.2-0.6-0.3c-0.5-0.3-0.6-0.8-0.4-1.1   c0.2-0.3,0.9-0.5,1.3-0.4C403.7,30.9,404.1,31.4,404.1,31.9"/>
	<path class="st1" d="M405.4,25.9c0.6-0.3,1.1-0.4,1.6,0c0.3,0.2,0.6,0.2,0.9,0.2c0.5,0.1,1.1,0.2,1.6,0.4c0.6,0.3,0.7,1.2,0.1,1.6   c-0.1,0.1-0.3,0.1-0.4,0.2c-0.1,0-0.2,0-0.3,0c-0.5,0-0.9-0.3-1.3-0.5c-0.4-0.2-0.9-0.1-1.3-0.2C405.4,27.2,405.3,26.9,405.4,25.9"/>
	<path class="st1" d="M413,26.8c0.1,0.3,0.2,0.6,0.3,0.9c0.1,0.3-0.1,0.5-0.3,0.6c-0.6,0.3-1.6,0.2-2.1-0.3   c-0.4-0.4-0.2-1.4,0.3-1.6c0.2-0.1,0.4-0.1,0.7-0.1c0-0.1-0.1-0.2-0.1-0.3c-0.1-0.9,0.3-1.3,1.2-1.3c0.2,0,0.4,0,0.6,0.1   c0.7,0.2,0.9,0.8,0.4,1.3C413.8,26.2,413.4,26.5,413,26.8"/>
	<path class="st1" d="M413,23.7c-0.5,0-0.9-0.2-1.2-0.5c-0.4-0.5-0.2-1.2,0.5-1.2c0.8-0.1,1.2,0,1.5,0.6   C414.1,23.2,413.8,23.7,413,23.7"/>
	<path class="st1" d="M412.3,19.8c-0.4,0.4-0.6,0.7-0.9,1c-0.5,0.5-1,0.5-1.5,0c-0.4-0.3-0.4-0.7-0.1-1.1c0.2-0.3,0.5-0.5,0.7-0.8   c0.1-0.1,0.2-0.3,0.3-0.5c-0.2-0.1-0.3-0.2-0.5-0.2s-0.4,0-0.6,0c-0.4,0-0.8-0.2-0.9-0.6c-0.1-0.3,0.1-0.8,0.5-1   c0.2-0.1,0.4-0.1,0.5-0.1c0.9,0,1.8,0.2,2.5,0.8c0.2-0.1,0.4-0.2,0.6-0.4c0.4-0.5,1-0.4,1.5-0.3c0.8,0.2,1.1,1,0.6,1.5   c-0.2,0.3-0.5,0.5-0.8,0.9c0.1,0.2,0.3,0.5,0.5,0.9c0.1,0.3,0.2,0.6-0.1,0.9c-0.4,0.3-0.9,0.4-1.3,0.1c-0.2-0.2-0.4-0.3-0.6-0.5   C412.6,20.2,412.6,20.1,412.3,19.8"/>
</g>
<g id="Fleches">
	<path class="st2" d="M243.9,76.4c-0.2,0-0.4,0.1-0.6,0.1c0.1,0.1,0.1,0.1,0.2,0.2c0.1,0,0.4,0.1,0.3,0.3c0,0.1-0.1,0.3-0.2,0.4   c-0.3,0.3-0.7,0.2-1,0.1s-0.6-0.2-0.9-0.4c0.1-0.3,0.2-0.5,0.3-0.8c-0.1,0-0.1-0.1-0.3-0.1c0-0.1,0-0.3,0.1-0.4   c0.3-0.4,0.4-0.9,0.7-1.3s0.6-0.9,0.9-1.3c0.7-0.9,1.3-1.8,2-2.6c0.4-0.5,1-1.1,1.4-1.6c0.5-0.6,1.1-1.3,1.6-1.9   c0.2-0.2,0.5-0.4,0.7-0.6c0.3-0.3,0.5-0.5,0.7-0.8c0.1-0.1,0.1-0.3,0.1-0.5c0-0.1,0-0.3,0-0.5c-0.1-0.1-0.2-0.2-0.4-0.4   c-0.1-0.2-0.3-0.4-0.4-0.4c-0.3-0.1-0.4-0.4-0.4-0.6c0-0.4-0.2-0.7-0.4-0.9c-0.5-0.5-0.8-1.1-1-1.7c-0.1-0.3-0.2-0.7-0.4-1   c0-0.1-0.2-0.2-0.3-0.2c-0.3-0.4-0.7-0.8-0.7-1.4c0-0.1-0.1-0.1-0.2-0.2c-0.1-0.1-0.1-0.1-0.1-0.2c0-0.5-0.3-0.9-0.7-1.2   c-0.1-0.1-0.2-0.2-0.2-0.3c-0.3-0.7-0.7-1.5-0.9-2.2c-0.2-0.8-0.6-1.5-0.6-2.3c0-0.5,0.1-0.6,0.6-0.7c0.4,0,0.7,0,1.1,0   c0.1,0,0.1,0,0.1,0.1c0.2,0.3,0.5,0.7,0.5,1s0.1,0.5,0.3,0.7c-0.1,0.1-0.1,0.2-0.2,0.4c0,0,0,0,0.1,0c0.1,0.1,0.2,0.1,0.3,0.2   c0.2,0.6,0.4,1.2,0.8,1.8c0.2,0.4,0.3,0.8,0.5,1.2c0.4,0.9,0.8,1.8,1.3,2.6c0.2,0.3,0.3,0.6,0.4,0.9c0.1,0.2,0.3,0.4,0.4,0.7   c0.3,0.4,0.5,1,0.8,1.3c0.4,0.4,0.4,0.9,0.8,1.2c0,0.3,0.2,0.5,0.4,0.7c0.2,0.3,0,0.5-0.1,0.7c0.3,0.2,0.7,0.4,0.9,0.6   c0.1,0.1,0.2,0.3,0.2,0.4c-0.2,0.5-0.4,1.1-0.8,1.4c-0.1,0.1-0.2,0.1-0.2,0.2c-0.2,0.2-0.4,0.5-0.7,0.7c-0.2,0.2-0.6,0.4-0.7,0.8   c0,0.1-0.2,0.3-0.3,0.4c-0.6,0.6-1.2,1.2-1.7,1.8c-0.4,0.5-0.8,1.1-1.3,1.6c-0.6,0.6-1.1,1.4-1.6,2.1c-0.4,0.5-0.7,1.1-1.1,1.7   c-0.1,0.1-0.1,0.3-0.2,0.3C243.8,76,244,76.2,243.9,76.4"/>
	<path class="st2" d="M490.9,76.4c-0.2,0-0.4,0.1-0.6,0.1c0.1,0.1,0.1,0.1,0.2,0.2c0.1,0,0.4,0.1,0.3,0.3c0,0.1-0.1,0.3-0.2,0.4   c-0.3,0.3-0.7,0.2-1,0.1s-0.6-0.2-0.9-0.4c0.1-0.3,0.2-0.5,0.3-0.8c-0.1,0-0.1-0.1-0.3-0.1c0-0.1,0-0.3,0.1-0.4   c0.3-0.4,0.4-0.9,0.7-1.3s0.6-0.9,0.9-1.3c0.7-0.9,1.3-1.8,2-2.6c0.4-0.5,1-1.1,1.4-1.6c0.5-0.6,1.1-1.3,1.6-1.9   c0.2-0.2,0.5-0.4,0.7-0.6c0.3-0.3,0.5-0.5,0.7-0.8c0.1-0.1,0.1-0.3,0.1-0.5c0-0.1,0-0.3,0-0.5c-0.1-0.1-0.2-0.2-0.4-0.4   c-0.1-0.2-0.3-0.4-0.4-0.4c-0.3-0.1-0.4-0.4-0.4-0.6c0-0.4-0.2-0.7-0.4-0.9c-0.5-0.5-0.8-1.1-1-1.7c-0.1-0.3-0.2-0.7-0.4-1   c0-0.1-0.2-0.2-0.3-0.2c-0.3-0.4-0.7-0.8-0.7-1.4c0-0.1-0.1-0.1-0.2-0.2c-0.1-0.1-0.1-0.1-0.1-0.2c0-0.5-0.3-0.9-0.7-1.2   c-0.1-0.1-0.2-0.2-0.2-0.3c-0.3-0.7-0.7-1.5-0.9-2.2c-0.2-0.8-0.6-1.5-0.6-2.3c0-0.5,0.1-0.6,0.6-0.7c0.4,0,0.7,0,1.1,0   c0.1,0,0.1,0,0.1,0.1c0.2,0.3,0.5,0.7,0.5,1s0.1,0.5,0.3,0.7c-0.1,0.1-0.1,0.2-0.2,0.4c0,0,0,0,0.1,0c0.1,0.1,0.2,0.1,0.3,0.2   c0.2,0.6,0.4,1.2,0.8,1.8c0.2,0.4,0.3,0.8,0.5,1.2c0.4,0.9,0.8,1.8,1.3,2.6c0.2,0.3,0.3,0.6,0.4,0.9c0.1,0.2,0.3,0.4,0.4,0.7   c0.3,0.4,0.5,1,0.8,1.3c0.4,0.4,0.4,0.9,0.8,1.2c0,0.3,0.2,0.5,0.4,0.7c0.2,0.3,0,0.5-0.1,0.7c0.3,0.2,0.7,0.4,0.9,0.6   c0.1,0.1,0.2,0.3,0.2,0.4c-0.2,0.5-0.4,1.1-0.8,1.4c-0.1,0.1-0.2,0.1-0.2,0.2c-0.2,0.2-0.4,0.5-0.7,0.7c-0.2,0.2-0.6,0.4-0.7,0.8   c0,0.1-0.2,0.3-0.3,0.4c-0.6,0.6-1.2,1.2-1.7,1.8c-0.4,0.5-0.8,1.1-1.3,1.6c-0.6,0.6-1.1,1.4-1.6,2.1c-0.4,0.5-0.7,1.1-1.1,1.7   c-0.1,0.1-0.1,0.3-0.2,0.3C490.8,76,491,76.2,490.9,76.4"/>
	<g>
		<line class="st3" x1="0" y1="0" x2="740" y2="0"/>
	</g>
</g>
<g id="Reperes">
</g>
</svg>
