<?xml version="1.0" encoding="utf-8"?>
<!-- Generator: Adobe Illustrator 27.3.1, SVG Export Plug-In . SVG Version: 6.00 Build 0)  -->
<svg version="1.1" xmlns="http://www.w3.org/2000/svg" xmlns:xlink="http://www.w3.org/1999/xlink" x="0px" y="0px"
	 viewBox="0 0 740 130" style="enable-background:new 0 0 740 130;" xml:space="preserve">
<style type="text/css">
	.st0{fill:#297EB6;}
	.st1{fill:#1D1D1B;}
	.st2{fill:#CF0063;}
	.st3{fill:#0099FF;}
	.st4{fill-rule:evenodd;clip-rule:evenodd;fill:#FFFFFF;}
</style>
<g id="Vignettes">
	<g id="_x33_">
		<path class="st0" d="M635,38.7c0.3,0.1,0.6,0.1,0.9,0.1c0.7,0.1,1.1,0.5,1.2,1.2c0.1,0.8-0.1,1.4-0.7,1.9
			c-0.7,0.5-1.4,1.1-2.1,1.7c-2.4,2.1-4.7,4.4-6.8,6.9c-0.5,0.6-1,1.1-1.5,1.6c-1-0.2-1.6-0.8-2.2-1.6c-1.4-1.9-2.7-3.7-4.1-5.6
			c-0.2-0.2-0.4-0.4-0.9-0.9c-0.3,4.9-0.8,9.6-0.9,14.2c-0.6,0.6-1.1,0.3-1.5-0.1c-0.5-0.4-0.9-0.9-0.8-1.7c0.1-2,0.2-4,0.3-6
			c0.1-2.3,0.3-4.6,0.2-7c-2.9,3.6-5.1,7.7-7.6,11.8c-0.9-0.1-1.8-0.2-2.7-0.3c-0.6-0.1-1-0.5-1.1-1.1c-0.3-0.9,0.1-1.6,0.9-1.6
			c1.3,0.1,1.9-0.7,2.3-2c0.2-0.6,0.7-1.2,1.1-1.8c1.5-2.3,3.1-4.6,4.6-6.9c0.7-1.1,1.4-2.2,2-3.4c0.6-1.1,1.4-1,2.3-0.9
			c0.7,0,1.4,1.2,1.2,2.2c-0.2,1.2,0.4,2,0.9,2.8c1.2,1.7,2.4,3.3,3.6,5c0.9,1.2,1.3,1.3,2.4,0.2c2.3-2.3,4.6-4.5,6.9-6.8
			C633.6,40.1,634.3,39.4,635,38.7"/>
		<path class="st1" d="M628.4,71.9c-1-0.1-1.9-0.3-2.8-0.2c-3,0.2-6.1,0.5-9.1,0.6c-1.7,0.1-3.4-0.1-5.1-0.1c-1.1,0-2.2,0-3.4,0
			c-0.2,2.2-0.3,4.2-0.4,6.2c-0.1,0.6-0.1,1.3-0.3,1.9c-0.3,0.8-1,0.9-1.5,0.3c-0.6-0.9-0.8-1.9-0.5-3c0.3-1.6,0.4-3.2,0.4-4.8
			c-1.2,0-2.3-0.6-3.4-0.4c-0.8,0.1-1.6-1.5-1.4-2.4c0-0.2,0.1-0.4,0.2-0.4c0.8-0.3,1.6-0.9,2.3-0.7c1.3,0.4,2.5,0.2,3.7,0.2
			c2.3,0,4.5,0.2,6.8,0.1c3-0.1,6-0.5,8.9-0.6c2.4-0.1,4.8,0,7.2,0c1.2,0,2.4-0.2,3.6-0.3c1.1-0.1,1.7,0.4,2,1.6
			c0.2,0.9-0.1,1.5-0.9,1.6c-0.9,0.2-1.8,0.3-2.7,0.4c-0.6,0.1-1,0.3-1,1.1c0,2,0.1,4,0.2,6c0,1,0,2-0.1,3c0,0.4-0.4,0.8-0.7,0.9
			c-0.2,0.1-0.6-0.2-0.8-0.4c-0.7-0.8-1.1-1.8-1-3.1C628.6,76.9,628.4,74.5,628.4,71.9"/>
		<path class="st0" d="M616.9,25.9c-0.1,0.1-0.2,0.1-0.3,0.2c0.3,1.4,0.6,2.9,1.1,4.2c0.3,1.1,0.9,1.2,1.7,0.5
			c0.6-0.5,1.2-1.1,1.5-2c0.7-2.1,1-4.3,0.8-6.5c-0.1-0.9-0.1-1.8-0.3-2.6c-0.1-0.5-0.6-1.1-1-1.2c-0.3-0.1-0.8,0.5-1.1,0.8
			c-0.2,0.3-0.4,0.7-0.5,1c-0.6,1.9-1,3.7,0.5,5.4c0.3,0.3,0.4,1,0.6,1.5C618.5,27.4,617.7,26.7,616.9,25.9 M614.4,19.9
			c0.1-1.4,0.3-2.7,1.4-3.5c0.2-0.2,0.6-0.5,0.8-0.4c0.9,0.5,1.6-0.2,2.4-0.4c1.4-0.3,2.4,0.8,3.3,1.9c0.3,0.5,0.6,1,0.7,1.6
			c1.1,4.2,1.2,8.4-0.6,12.5c-1,2.3-3.2,2.9-5,1.3c-1.2-1.1-1.9-2.6-2.3-4.3C614.5,25.7,614.3,22.8,614.4,19.9"/>
		<path class="st1" d="M655.4,59.8c0.5-2.7,0.7-5.4,0.5-8.2c0-0.6-0.2-1.2-0.3-1.8c0-0.2-0.1-0.5-0.2-0.6c-0.7-0.2-1.1-0.9-1.5-1.7
			c-0.1-0.2-0.4-0.1-0.6,0c-0.2,0.2-0.5,0.4-0.6,0.7c-0.7,2.2-1.5,4.3-1.6,6.8c-0.1,1.5-0.1,3-0.1,4.5c0,0.5,0.1,0.9,0.2,1.4
			c0.3,1.3,1,2.1,1.7,1.5c0.5-0.4,1-0.3,1.5,0.1C654.9,61.7,655.2,60.8,655.4,59.8 M648.9,52.9c0.3-3.5,1.3-6.1,3.3-7.8
			c1.9-1.6,3.9-1.2,4.8,2.4c0.5,2.1,0.9,4.2,0.8,6.4c-0.1,2.3-0.1,4.6-0.7,6.7c-0.4,1.4-0.8,2.8-1.6,3.6c-1.6,1.5-3.3,1.8-5,0.5
			c-0.8-0.6-1.3-1.4-1.5-2.8c-0.2-1.2-0.2-2.3-0.3-3.5c-0.1-0.8-0.2-1.7-0.3-3C648.9,55,648.8,53.9,648.9,52.9"/>
		<path class="st1" d="M583.9,49c-0.4,0.1-0.7,0.5-0.8,0.9c-1,2.4-1.4,4.8-0.9,7.4c0.1,0.5,0.1,1,0.2,1.5c0.3,2,1.2,3.5,2.8,4.5
			c1.3,0.8,2.3,0.4,2.9-1.2c0.5-1.3,0.6-2.7,0.6-4.1c0-3.4-0.7-6.5-2.1-9.5c-0.2-0.4-0.4-1-1.1-1.2C585.2,48.3,584.7,48.8,583.9,49
			 M589.7,63c-0.7,1.9-2.6,3.1-4.3,2.6c-2.5-0.7-4.2-2.3-4.7-5.4c-0.1-0.6-0.2-1.2-0.3-1.9c-0.5-3.2-0.3-6.2,0.9-9.2
			c0.2-0.5,0.5-1,0.9-1.4c0.7-0.8,1.4-1.5,2.1-2.2c0.2-0.2,0.4-0.3,0.7-0.3c1-0.1,1.9,0.1,2.6,1c0.4,0.6,0.9,1.3,1.2,2
			c0.9,2.7,1.6,5.5,1.7,8.5C590.7,58.9,590.4,61,589.7,63"/>
		<path class="st1" d="M583.2,77c0,0.6,0.1,1.1,0.1,1.6c-0.1,2.4-0.3,4.9-0.4,7.3c0,0.8-0.2,1.5-0.6,2.1c-0.4,0.6-0.4,1.1-0.2,1.8
			c0.1,0.2,0,0.5,0,0.9c-1.5-0.5-2.9-0.8-4.3-1.4c-1.4-0.5-2.8-0.8-4.1-1.6C576.2,84.5,582.2,77.8,583.2,77 M570.9,89.9
			c0.3,0.1,0.6,0.2,0.9,0.2c3.3,0.8,6.5,1.8,9.8,2.9c0.4,0.1,0.7,0.4,1,0.5c0.2,1.7,0.1,3.4-0.1,5c-0.1,0.7-0.1,1.4,0,2.1h3.5
			c0-0.2,0-0.4,0-0.5c0-1.4-0.3-2.9-0.5-4.3c-0.1-0.5-0.3-1,0-1.6c0.8,0,1.6,0.3,2.4,0.6c1.1,0.4,2.2,0.4,3.2,0.9
			c0.6,0.3,1.3-0.2,1.8-0.7c0.5-0.5,0.7-1.1,0.3-2c-0.6-0.3-1.3-0.8-2.2-0.2c-0.2,0.1-0.4,0.1-0.6,0.1c-1.7-0.4-3.4-0.5-5-1.3
			c0-0.3,0-0.6,0-1c0-0.3,0.1-0.6,0-0.8c-0.6-1.6-0.6-3.2-0.5-4.9c0.2-2.5,0.2-5,0.3-7.5c0-0.5,0-1,0.3-1.4c0.1,0.1,0.2,0.1,0.3,0.2
			c1,1.6,2,3.2,3.1,4.7c0.2,0.4,0.5,0.8,0.8,1.1c1,1.1,1.9,2.3,2.6,3.6c0.4,0.8,1,0.9,1.7,0.5c0.7-0.5,1.2-0.8,1-2.1
			c-0.2-1.6-0.2-3.1-0.2-4.7c0.1-2.9,0.2-5.8-0.2-8.7c-0.1-0.9,0-1.7,0.4-2.5c0.3-0.7,0.6-1.5,0.8-2.2c0.1-0.3,0.1-0.6,0.2-0.8
			c0-0.6-0.2-1.1-0.7-1.2c-0.5-0.1-1,0.1-1.2,0.6c-0.1,0.3-0.2,0.7-0.3,1c-0.2,0.6-0.5,1.1-0.9,1.6c-0.3,0.3-0.6,0.7-0.9,1.2
			c-0.4,0.8-0.4,1,0.2,1.8c0.1,0.2,0.3,0.5,0.3,0.7c0.2,1.6,0.5,3.2,0.3,4.8c-0.1,1.4-0.1,2.8-0.1,4.2c0,0.6-0.1,1.3-0.2,2
			c-0.4-0.3-0.7-0.4-0.8-0.6c-1-1.3-2.1-2.5-2.8-4.1c-0.1-0.3-0.3-0.6-0.5-0.9c-0.8-1.2-1.4-2.5-1.7-4c-0.2-0.8-0.9-1.4-1.7-1.4
			c-0.8,0-1.5,0.6-1.6,1.5c-0.1,1-0.5,1.7-1,2.4c-1.2,1.8-2.7,3.4-4.1,5c-0.7,0.7-1.4,1.5-2,2.4c-1.5,2-3.3,3.8-5.1,5.4
			c-0.2,0.2-0.5,0.4-0.7,0.6C570,88.6,570.2,89.6,570.9,89.9"/>
		<path class="st1" d="M651.8,77.7c0,0-0.1,0-0.1-0.1c0-0.1,0-0.1,0.1-0.2c0,0,0.1,0,0.1,0C651.9,77.6,651.9,77.7,651.8,77.7
			 M666.6,86.7c-0.1-0.2-0.3-0.5-0.4-0.7c-0.5-0.7-1.1-1.4-1.6-2.2c-1-1.5-2.2-2.8-3.4-3.8c-1.8-1.5-3.5-3.3-5.3-5
			c-0.5-0.5-0.9-1.1-1.3-1.7c-0.4-0.6-0.9-1-1.5-1.1c-0.8-0.2-1.4,0.1-1.8,1.2c-0.3,0.8-0.7,1.6-1,2.4c-1.2,3.4-2.9,6-4.8,8.4
			c0,0-0.1,0-0.2,0c-0.3-0.6-0.3-1.3-0.2-2c0-3.4,0.3-6.8,1.2-10c0.1-0.4,0.2-0.8,0.3-1.1c0.6-1.6,0.3-3.2,0-4.8
			c-0.1-0.5-0.3-0.8-0.7-0.8c-0.3,0-0.6,0.3-0.7,0.8c-0.1,0.4-0.2,0.9-0.3,1.4c-0.5,3.4-1.1,6.8-1.6,10.2c-0.2,1.9-0.2,3.8-0.3,5.7
			c0,1.1-0.1,2.2-0.1,3.3c0,0.8,0.3,1.4,0.8,1.5c0.6,0.2,1.2,0,1.7-0.7c1.9-2.4,3.7-4.9,5.1-8c0.2-0.4,0.4-0.7,0.6-1.1
			c0.6,0.6,0.5,1.3,0.4,1.9c-0.1,1.3-0.3,2.7,0,4c0,0.1,0,0.3,0,0.5c-0.3,4.2-0.5,8.4-0.8,12.5c-0.1,1.1-0.2,2.1-0.3,3.1h1.9
			c0.1-0.8,0.2-1.6,0.3-2.4c0-0.1,0.1-0.2,0.3-0.5c0,1,0.1,2,0.2,2.9h1.7c-0.1-2.4-0.3-4.9-0.4-7.3c-0.1-1.5-0.1-3-0.1-4.5
			c-0.1-2.9-0.2-5.7-0.2-8.6c0-0.3,0-0.6,0-1c0.5-0.3,0.9-0.5,1.4-0.8c1.5,1,7,6,7.7,7c0.1,0.2,0.2,0.5,0.3,0.8
			c-0.4,0.5-0.8,0.3-1.2,0.3c-1.7,0-3.3,1-5,1.6c-0.2,0.1-0.5,0.3-0.7,0.6c-0.7,0.7-0.8,1.8-0.1,2.7c0.2,0.3,0.5,0.6,0.7,0.8
			c0.8,0.5,1.7,0.8,2.2,2.3c0.2,0.7,1,0.4,1.2-0.4c0.2-0.8,0.3-1.7,0-2.5c-0.2-0.5-0.4-1-0.6-1.5c0.1-0.6,0.4-0.5,0.6-0.6
			c1.4-0.6,2.9-0.8,4.3-0.7c0.5,0,0.9,0.1,1.3-0.4C666.7,87.8,666.8,87.2,666.6,86.7"/>
		<path class="st2" d="M572.5,39.1c-1.1-1.6-1.9-3.5-2.6-5.4c-0.3-0.8-0.6-1.6-0.8-2.4c-0.1-0.5-0.2-0.9-0.3-1.4
			c-0.1-0.6,0.2-1,0.7-1.1c1.5-0.3,2.2-1.4,2.8-2.7c0.7-1.8,0.8-3.6,0.3-5.4c-0.3-1.1-0.7-2.2-1.2-3.2c-0.8-1.4-1.6-2.7-2.7-3.8
			c-1.4-1.4-3.1-2.3-4.9-2.9c-1.1-0.3-2.2-0.6-3.4-0.4c-2,0.2-3.6,1.1-4.9,2.7c-0.3,0.4-0.6,0.9-0.8,1.4c-0.3,0.9-0.7,1.8-0.8,2.7
			c0,0.3-0.1,0.6-0.2,0.9c-0.3,1.7-0.4,3.3,0,5c0.2,0.8,0.6,1.6,1.1,2.3c1,1.7,2.2,3.2,3.7,4.4c1,0.8,2.1,1.3,3.4,1.3
			c0.9,0,1.7,0.3,2.5,0.5c0.5,0.1,1,0.4,1.5,0.3c0.3,0,0.6,0.2,0.7,0.6c0.3,1,0.9,1.9,1.5,2.7c0.5,0.7,1.1,1.4,1.7,2.1
			c0.1,0.1,0.2,0.3,0.4,0.3c0.9,0.4,1.7,1.1,2.3,1.9c0,0,0.1,0,0.2,0C572.6,39.4,572.5,39.2,572.5,39.1 M563.8,33.1
			c-0.8-0.3-1.6-0.5-2.4-0.5c-1.5,0-2.9-0.7-4-1.7c-1.8-1.5-3.2-3.4-4.4-5.4c-0.9-1.5-1.2-3-1-4.7c0.2-2.2,0.5-4.3,1.3-6.3
			c0.3-0.7,0.6-1.4,1.1-2.1c0.9-1.2,2.1-2.1,3.4-2.7c0.6-0.3,1.3-0.6,2-0.5c0.4,0,0.9-0.1,1.3-0.1c0.6,0,1.2,0,1.7,0.1
			c1.1,0.3,2.2,0.6,3.3,1.1c1.7,0.8,3.2,2,4.5,3.4c0.5,0.5,0.8,1.1,1.1,1.6c0.4,0.6,0.8,1.3,1.2,2c0.6,1.2,0.9,2.5,1.2,3.9
			c0.2,0.9,0.2,1.8,0.1,2.7c-0.1,0.7-0.2,1.3-0.4,2c-0.3,0.9-0.6,1.8-1.3,2.5c-0.7,0.6-1.4,1.2-2.1,1.8c-0.1,0.1-0.3,0.2-0.4,0.3
			c0.2,0.5,0.4,0.9,0.6,1.4c0.2,0.6,0.4,1.2,0.6,1.8c0.6,1.3,1.2,2.5,1.9,3.7c0.7,1.2,1.6,2.2,2.5,3.2c0.3,0.4,0.7,0.7,0.9,1.2
			c-0.1,0.5-0.2,1-0.3,1.5c-0.2,0.7-0.8,0.9-1.3,0.4c-0.2-0.2-0.3-0.4-0.5-0.5c-1.4-1-2.6-2.1-3.9-3.2c-1.3-1.2-2.4-2.4-3.4-3.9
			c-0.6-0.9-1.3-1.6-1.7-2.8C564.9,33.5,564.4,33.3,563.8,33.1"/>
		<path class="st3" d="M572.5,39.1c-1.1-1.6-1.9-3.5-2.6-5.4c-0.3-0.8-0.6-1.6-0.8-2.4c-0.1-0.5-0.2-0.9-0.3-1.4
			c-0.1-0.6,0.2-1,0.7-1.1c1.5-0.3,2.2-1.4,2.8-2.7c0.7-1.8,0.8-3.6,0.3-5.4c-0.3-1.1-0.7-2.2-1.2-3.2c-0.8-1.4-1.6-2.7-2.7-3.8
			c-1.4-1.4-3.1-2.3-4.9-2.9c-1.1-0.3-2.2-0.6-3.4-0.4c-2,0.2-3.6,1.1-4.9,2.7c-0.3,0.4-0.6,0.9-0.8,1.4c-0.3,0.9-0.7,1.8-0.8,2.7
			c0,0.3-0.1,0.6-0.2,0.9c-0.3,1.7-0.4,3.3,0,5c0.2,0.8,0.6,1.6,1.1,2.3c1,1.7,2.2,3.2,3.7,4.4c1,0.8,2.1,1.3,3.4,1.3
			c0.9,0,1.7,0.3,2.5,0.5c0.5,0.1,1,0.4,1.5,0.3c0.3,0,0.6,0.2,0.7,0.6c0.3,1,0.9,1.9,1.5,2.7c0.5,0.7,1.1,1.4,1.7,2.1
			c0.1,0.1,0.2,0.3,0.4,0.3c0.9,0.4,1.7,1.1,2.3,1.9c0,0,0.1,0,0.2,0C572.6,39.4,572.5,39.2,572.5,39.1z M563.8,33.1
			c-0.8-0.3-1.6-0.5-2.4-0.5c-1.5,0-2.9-0.7-4-1.7c-1.8-1.5-3.2-3.4-4.4-5.4c-0.9-1.5-1.2-3-1-4.7c0.2-2.2,0.5-4.3,1.3-6.3
			c0.3-0.7,0.6-1.4,1.1-2.1c0.9-1.2,2.1-2.1,3.4-2.7c0.6-0.3,1.3-0.6,2-0.5c0.4,0,0.9-0.1,1.3-0.1c0.6,0,1.2,0,1.7,0.1
			c1.1,0.3,2.2,0.6,3.3,1.1c1.7,0.8,3.2,2,4.5,3.4c0.5,0.5,0.8,1.1,1.1,1.6c0.4,0.6,0.8,1.3,1.2,2c0.6,1.2,0.9,2.5,1.2,3.9
			c0.2,0.9,0.2,1.8,0.1,2.7c-0.1,0.7-0.2,1.3-0.4,2c-0.3,0.9-0.6,1.8-1.3,2.5c-0.7,0.6-1.4,1.2-2.1,1.8c-0.1,0.1-0.3,0.2-0.4,0.3
			c0.2,0.5,0.4,0.9,0.6,1.4c0.2,0.6,0.4,1.2,0.6,1.8c0.6,1.3,1.2,2.5,1.9,3.7c0.7,1.2,1.6,2.2,2.5,3.2c0.3,0.4,0.7,0.7,0.9,1.2
			c-0.1,0.5-0.2,1-0.3,1.5c-0.2,0.7-0.8,0.9-1.3,0.4c-0.2-0.2-0.3-0.4-0.5-0.5c-1.4-1-2.6-2.1-3.9-3.2c-1.3-1.2-2.4-2.4-3.4-3.9
			c-0.6-0.9-1.3-1.6-1.7-2.8C564.9,33.5,564.4,33.3,563.8,33.1z"/>
		<path class="st3" d="M663.1,35c0,0.1,0,0.1,0.1,0.3c0.6-0.5,0.9-1.1,1.4-1.6c0.4-0.5,0.7-1.1,1.1-1.6c0.4-0.4,0.8-0.8,1.3-1.1
			c0.2-0.1,0.5-0.1,0.7-0.1c0.2,0,0.4,0.2,0.6,0.3c1.3,0.9,2.7,1.6,4.2,2c0.8,0.2,1.7,0.4,2.5,0.4c1.5,0,2.8-0.5,4.1-1.4
			c1-0.7,1.7-1.8,1.9-3.3c0.3-2.5-0.2-4.7-1.4-6.8c-0.5-0.9-1.1-1.7-1.6-2.6c-0.5-0.8-1.1-1.6-1.7-2.4c-1.9-2.7-4.5-4.6-7-6.3
			c-1.3-0.9-2.7-1.2-4.1-1.2c-1.3,0-2.6,0.5-3.6,1.5c-1.2,1.3-1.9,2.9-2,4.9c-0.1,2.6,0.3,5.1,1.3,7.5c0.5,1.3,1,2.5,1.8,3.5
			c0.7,0.9,1.4,1.7,2.5,2.1c0.2,0.1,0.4,0.2,0.6,0.4c0.4,0.3,0.4,0.8,0.1,1.1c-0.4,0.3-0.8,0.5-1.4,0.9
			C664,32.5,663.6,33.7,663.1,35 M659.6,25.2c-1-2.6-1.7-5.3-1.7-8.1c0-1,0-2.1,0.4-3c0.4-1.1,1-2.2,1.5-3.3
			c0.1-0.3,0.3-0.5,0.5-0.7c1.2-1,2.4-1.9,3.9-2.1c1.8-0.2,3.5,0,5.2,0.9c0.6,0.4,1.2,0.8,1.8,1.2c1.7,0.9,3.2,2.3,4.6,3.8
			c0.5,0.5,1,1,1.5,1.6c0.3,0.4,0.7,0.8,1,1.2c0.5,0.6,0.9,1.3,1.4,2c0.8,0.9,1.2,2.2,1.9,3.1c0.7,1,1,2.2,1.2,3.4
			c0.1,0.8,0.2,1.7,0.1,2.6c-0.1,2-0.6,3.8-2,5.1c-0.6,0.6-1.3,1.1-2,1.5c-2.2,1.3-4.5,1.6-6.9,0.9c-0.6-0.2-1.2-0.3-1.8-0.5
			c-0.2-0.1-0.4-0.2-0.6-0.3c-0.6-0.3-1.3-0.6-1.9-1c-0.5-0.2-0.9-0.1-1.2,0.4c-0.2,0.3-0.4,0.7-0.7,1c-1.1,1.2-2,2.5-2.9,3.8
			c-0.2,0.4-0.6,0.7-0.9,0.9c-0.4,0.3-0.8,0.1-1.2-0.2c-0.4-0.3-0.6-0.7-0.5-1.2c0.1-0.4,0.3-0.9,0.4-1.3c0.3-1.7,1-3.3,1.6-4.9
			c0.3-0.7,0.5-1.4,0.4-2.3C661.4,28.3,660.3,26.9,659.6,25.2"/>
		<path class="st1" d="M562.5,69c0,0,0-0.1-0.1-0.1c0,0,0.1-0.1,0.1,0c0,0,0,0.1,0.1,0.1C562.5,69,562.5,69,562.5,69 M563.7,70.6
			c1.4,2.5,3.2,4.5,5,6.5c0.5,0.5,1,0.7,1.6,0.6c0.5-0.1,0.7-0.6,0.7-1.2c0-0.9,0-1.8-0.1-2.7c-0.1-1.5-0.1-3.1-0.3-4.6
			c-0.4-2.8-1-5.5-1.5-8.3c-0.1-0.4-0.2-0.7-0.3-1.1c-0.1-0.4-0.3-0.6-0.7-0.6c-0.3,0-0.6,0.3-0.6,0.7c-0.3,1.3-0.6,2.6,0,3.9
			c0.1,0.3,0.2,0.6,0.3,0.9c0.8,2.6,1.1,5.4,1.1,8.2c0,0.6,0,1.2-0.2,1.6c-0.1,0-0.2,0-0.2,0c-1.8-2-3.5-4.1-4.6-6.9
			c-0.3-0.7-0.6-1.3-0.9-2c-0.4-0.8-1-1.1-1.8-0.9c-0.5,0.1-1,0.4-1.4,0.9c-0.4,0.5-0.8,1-1.2,1.4c-1.7,1.4-3.3,2.9-5.1,4.1
			c-1.2,0.8-2.3,1.9-3.3,3.1c-0.5,0.6-1,1.2-1.5,1.8c-0.1,0.2-0.3,0.4-0.4,0.6c-0.2,0.4-0.1,0.9,0.2,1.2c0.4,0.4,0.8,0.3,1.3,0.3
			c1.4-0.1,2.8,0.1,4.2,0.6c0.2,0.1,0.5,0,0.6,0.5c-0.2,0.4-0.4,0.8-0.6,1.2c-0.3,0.7-0.2,1.4,0,2.1c0.2,0.7,0.9,0.9,1.2,0.4
			c0.5-1.2,1.3-1.5,2.1-1.8c0.3-0.1,0.5-0.4,0.7-0.6c0.7-0.7,0.6-1.6-0.1-2.2c-0.2-0.2-0.4-0.4-0.6-0.5c-1.6-0.5-3.1-1.4-4.8-1.3
			c-0.4,0-0.8,0.1-1.2-0.3c0.1-0.2,0.2-0.5,0.3-0.6c0.7-0.8,6-4.8,7.4-5.7c0.4,0.2,0.9,0.4,1.3,0.7c0,0.3,0,0.6,0,0.8
			c-0.1,2.3-0.1,4.7-0.2,7c0,1.2-0.1,2.5-0.1,3.7c-0.2,2.8-0.3,5.5-0.5,8.3c-0.1,1.3-0.1,2.6-0.2,3.9c-0.3,3-0.6,5.9-0.8,8.9
			c-0.2,1.9-0.3,3.9-0.7,5.7c-0.1,0.6-0.3,1.2-0.4,1.9c-0.1,0.8,0.2,1.4,0.8,1.6c0.1,0,0.2,0.1,0.3,0.1c0.7,0.2,1-0.2,1.1-1.1
			c0.1-1,0.2-2,0.3-3.1c0.1-1.1,0.2-2.2,0.3-3.3c0.2-2.2,0.2-4.4,0.4-6.5c0.3-2.7,0.5-5.4,0.6-8.1c0-1.5,0.2-3,0.3-4.6
			c0.2,0.2,0.3,0.3,0.3,0.4c0.4,3,0.9,6,1.2,9c0.3,2.9,0.6,5.8,1.1,8.6c0.2,1.1,0.4,2.2,0.6,3.4c0.2,1.3,1.2,2.4,2.1,2.4
			c0.3,0,0.6-0.2,0.7-0.5c0.4-0.6,0.3-1.6-0.1-2.1c-0.4-0.5-0.6-1.1-0.7-1.9c0-0.3-0.1-0.7-0.3-0.9c-0.8-0.9-0.9-2.1-1.1-3.3
			c-0.3-1.8-0.6-3.7-0.7-5.5c-0.1-1.2-0.2-2.4-0.4-3.7c-0.3-2-0.6-4.1-0.8-6.1c-0.3-3.4-0.5-6.8-0.8-10.2c0-0.1,0-0.3,0-0.4
			c0.3-1.1,0.1-2.2,0-3.3c0-0.5-0.1-1.1,0.4-1.5C563.3,70,563.5,70.3,563.7,70.6"/>
		<path class="st1" d="M559,54.4c-0.5-2.2-0.7-4.4-0.5-6.7c0-0.5,0.2-1,0.3-1.5c0-0.2,0.1-0.4,0.2-0.5c0.6-0.2,1.1-0.8,1.5-1.4
			c0.1-0.1,0.4-0.1,0.5,0c0.2,0.1,0.5,0.3,0.6,0.6c0.7,1.8,1.4,3.5,1.6,5.6c0.1,1.2,0.1,2.4,0.1,3.7c0,0.4-0.1,0.8-0.1,1.1
			c-0.3,1.1-0.9,1.7-1.7,1.2c-0.5-0.4-1-0.3-1.5,0.1C559.5,55.9,559.2,55.2,559,54.4 M565.3,48.7c-0.2-2.8-1.3-5-3.2-6.3
			c-1.8-1.3-3.8-1-4.7,2c-0.5,1.7-0.9,3.4-0.8,5.3c0.1,1.9,0.1,3.7,0.7,5.5c0.4,1.1,0.7,2.3,1.6,2.9c1.5,1.2,3.2,1.5,4.8,0.4
			c0.7-0.5,1.3-1.2,1.5-2.3c0.2-0.9,0.2-1.9,0.3-2.9c0.1-0.7,0.1-1.4,0.3-2.5C565.3,50.5,565.3,49.6,565.3,48.7"/>
		<path class="st1" d="M672.3,68.9c0,0,0-0.1,0.1-0.1c0,0-0.1-0.1-0.1,0c0,0,0,0.1-0.1,0.1C672.2,68.9,672.2,68.9,672.3,68.9
			 M671,70.5c-1.4,2.5-3.2,4.5-5,6.5c-0.5,0.5-1,0.7-1.6,0.6c-0.5-0.1-0.7-0.6-0.7-1.2c0-0.9,0-1.8,0.1-2.7c0.1-1.5,0.1-3.1,0.3-4.6
			c0.4-2.8,1-5.5,1.5-8.3c0.1-0.4,0.2-0.7,0.3-1.1c0.1-0.4,0.3-0.6,0.7-0.6c0.3,0,0.6,0.3,0.6,0.7c0.3,1.3,0.6,2.6,0,3.9
			c-0.1,0.3-0.2,0.6-0.3,0.9c-0.8,2.6-1.1,5.4-1.1,8.2c0,0.6,0,1.2,0.2,1.6c0.1,0,0.2,0,0.2,0c1.8-2,3.5-4.1,4.6-6.9
			c0.3-0.7,0.6-1.3,0.9-2c0.4-0.8,1-1.1,1.8-0.9c0.5,0.1,1,0.4,1.4,0.9c0.4,0.5,0.8,1,1.2,1.4c1.7,1.4,3.3,2.9,5.1,4.1
			c1.2,0.8,2.3,1.9,3.3,3.1c0.5,0.6,1,1.2,1.5,1.8c0.1,0.2,0.3,0.4,0.4,0.6c0.2,0.4,0.1,0.9-0.2,1.2c-0.4,0.4-0.8,0.3-1.3,0.3
			c-1.4-0.1-2.8,0.1-4.2,0.6c-0.2,0.1-0.5,0-0.6,0.5c0.2,0.4,0.4,0.8,0.6,1.2c0.3,0.7,0.2,1.4,0,2.1c-0.2,0.7-0.9,0.9-1.2,0.4
			c-0.5-1.2-1.3-1.5-2.1-1.8c-0.3-0.1-0.5-0.4-0.7-0.6c-0.7-0.7-0.6-1.6,0.1-2.2c0.2-0.2,0.4-0.4,0.6-0.5c1.6-0.5,3.1-1.4,4.8-1.3
			c0.4,0,0.8,0.1,1.2-0.3c-0.1-0.2-0.2-0.5-0.3-0.6c-0.7-0.8-6-4.8-7.4-5.7c-0.4,0.2-0.9,0.4-1.3,0.7c0,0.3,0,0.6,0,0.8
			c0.1,2.3,0.1,4.7,0.2,7c0,1.2,0.1,2.5,0.1,3.7c0.2,2.8,0.3,5.5,0.5,8.3c0.1,1.3,0.1,2.6,0.2,3.9c0.3,3,0.6,5.9,0.8,8.9
			c0.2,1.9,0.3,3.9,0.7,5.7c0.1,0.6,0.3,1.2,0.4,1.9c0.1,0.8-0.2,1.4-0.8,1.6c-0.1,0-0.2,0.1-0.3,0.1c-0.7,0.2-1-0.2-1.1-1.1
			c-0.1-1-0.2-2-0.3-3.1c-0.1-1.1-0.2-2.2-0.3-3.3c-0.2-2.2-0.2-4.4-0.4-6.5c-0.3-2.7-0.5-5.4-0.6-8.1c0-1.5-0.2-3-0.3-4.6
			c-0.2,0.2-0.3,0.3-0.3,0.4c-0.4,3-0.9,6-1.2,9c-0.3,2.9-0.6,5.8-1.1,8.6c-0.2,1.1-0.4,2.2-0.6,3.4c-0.2,1.3-1.2,2.4-2.1,2.4
			c-0.3,0-0.6-0.2-0.7-0.5c-0.4-0.6-0.3-1.6,0.1-2.1s0.6-1.1,0.7-1.9c0-0.3,0.1-0.7,0.3-0.9c0.8-0.9,0.9-2.1,1.1-3.3
			c0.3-1.8,0.6-3.7,0.7-5.5c0.1-1.2,0.2-2.4,0.4-3.7c0.3-2,0.6-4.1,0.8-6.1c0.3-3.4,0.5-6.8,0.8-10.2c0-0.1,0-0.3,0-0.4
			c-0.3-1.1-0.1-2.2,0-3.3c0-0.5,0.1-1.1-0.4-1.5C671.4,70,671.2,70.2,671,70.5"/>
		<path class="st1" d="M675.7,54.3c0.5-2.2,0.7-4.4,0.5-6.7c0-0.5-0.2-1-0.3-1.5c0-0.2-0.1-0.4-0.2-0.5c-0.6-0.2-1.1-0.8-1.5-1.4
			c-0.1-0.1-0.4-0.1-0.5,0c-0.2,0.1-0.5,0.3-0.6,0.6c-0.7,1.8-1.4,3.5-1.6,5.6c-0.1,1.2-0.1,2.4-0.1,3.7c0,0.4,0.1,0.8,0.1,1.1
			c0.3,1.1,0.9,1.7,1.7,1.2c0.5-0.4,1-0.3,1.5,0.1C675.2,55.9,675.5,55.1,675.7,54.3 M669.5,48.7c0.2-2.8,1.3-5,3.2-6.3
			c1.8-1.3,3.8-1,4.7,2c0.5,1.7,0.9,3.4,0.8,5.3c-0.1,1.9-0.1,3.7-0.7,5.5c-0.4,1.1-0.7,2.3-1.6,2.9c-1.5,1.2-3.2,1.5-4.8,0.4
			c-0.7-0.5-1.3-1.2-1.5-2.3c-0.2-0.9-0.2-1.9-0.3-2.9c-0.1-0.7-0.1-1.4-0.3-2.5C669.5,50.4,669.4,49.5,669.5,48.7"/>
		<path class="st3" d="M592.6,37.1c0.2-0.6,0.5-1.2,1-1.6c0.1-0.1,0.1-0.2,0.2-0.3c0.2-0.2,0.4-0.4,0.7-0.4c0.2,0,0.4-0.1,0.6-0.1
			c1.2-0.2,2.1-0.9,2.8-1.9c0.5-0.8,0.8-1.6,0.7-2.5c-0.2-1.1-0.4-2.1-1-3c-0.2-0.3-0.4-0.6-0.8-0.8c-0.8-0.4-1.5-0.9-2.4-1.2
			c-1.1-0.4-2.1-0.2-3.1,0.3c-0.8,0.4-1.4,1.1-1.9,1.9c-0.3,0.5-0.5,1-0.6,1.5c-0.2,0.8,0,1.7,0.1,2.5c0.2,1.1,0.6,2,1.4,2.5
			c0.1,0.3,0.1,0.6,0.1,0.8c0.1,0.6,0.2,1.1,0.4,1.7c0,0.1,0.1,0.3,0.1,0.4C591.4,36.9,591.9,37.2,592.6,37.1 M593.3,38.4
			c-0.3,0.1-0.6,0-0.9-0.1c-0.3-0.1-0.6-0.2-1-0.3c-0.3-0.1-0.7-0.1-1-0.1c-0.8,0.1-1.4-0.7-1.1-1.4c0.1-0.3,0.2-0.6,0.1-0.9
			c-0.1-0.7-0.3-1.3-0.8-1.8c-0.4-0.5-0.7-1.1-0.9-1.8c-0.1-0.5-0.2-1-0.4-1.5c-0.2-0.6,0-1.2,0-1.8c0.1-0.8,0.4-1.6,0.9-2.2
			c0.3-0.4,0.5-0.7,0.9-1c1.1-1.1,2.5-1.6,4.1-1.6c0.2,0,0.3,0,0.5,0.1c0.9,0.4,1.8,0.7,2.7,1.1c0.3,0.1,0.5,0.3,0.8,0.5
			c0.6,0.4,1,0.9,1.3,1.6c0,0.1,0,0.2,0.1,0.3c0.5,0.8,0.6,1.7,0.8,2.6c0.2,0.7,0.1,1.4-0.1,2.1c-0.2,0.7-0.6,1.3-1.1,1.8
			c-0.7,0.7-1.5,1.3-2.5,1.5c-0.1,0-0.2,0.1-0.3,0.1c-0.8,0.2-1.2,0.7-1.6,1.4c-0.2,0.4-0.4,0.8-0.6,1.2
			C593.4,38.2,593.4,38.3,593.3,38.4"/>
		<path class="st3" d="M590.7,39.8c-0.1-0.1-0.2-0.2-0.4-0.1C590.3,39.9,590.5,39.8,590.7,39.8 M591.7,40.2c0,0.3,0.3,0.6,0,0.9
			c-0.3,0.1-0.6,0.1-0.9-0.1c-0.3-0.2-0.6-0.3-0.9-0.5c-0.1-0.1-0.2-0.1-0.3-0.2c-0.5-0.4-0.5-0.6,0.1-1c-0.1-0.1-0.2-0.2-0.2-0.3
			c-0.2-0.3,0.1-0.7,0.4-0.6c0.7,0.1,1.4,0.3,2,0.6c0.4,0.2,0.5,0.7,0.1,1C591.9,40.1,591.8,40.1,591.7,40.2"/>
		<path class="st3" d="M601.2,23c-0.2,0.5-0.7,0.8-1.1,1.1c-0.2,0.1-0.4,0.2-0.6,0.3c-0.2,0.1-0.3,0.1-0.5,0
			c-0.2-0.1-0.3-0.3-0.2-0.6c0-0.2,0.1-0.3,0.2-0.4c0.3-0.3,0.7-0.7,1.1-1c0.2-0.2,0.7-0.1,0.9,0.2C601.1,22.7,601.2,22.9,601.2,23"
			/>
		<path class="st3" d="M586.2,26.8c-0.2,0-0.4,0-0.6-0.1c-0.4-0.2-0.8-0.3-1.3-0.5c-0.3-0.1-0.4-0.4-0.6-0.6c-0.1-0.1-0.1-0.3,0-0.4
			c0.1-0.1,0.2-0.1,0.3-0.1c0.1,0,0.3,0.1,0.4,0.1c0.4,0.2,0.9,0.4,1.4,0.5c0.3,0,0.4,0.2,0.6,0.4c0.1,0.2,0.1,0.5-0.1,0.6
			C586.4,26.7,586.3,26.8,586.2,26.8"/>
		<path class="st3" d="M594.5,19.7c0,0,0.1,0,0.2,0c0.4,0.1,0.6,0.4,0.4,0.8c-0.1,0.4-0.2,0.7-0.2,1.1c0,0.2,0,0.3-0.2,0.4
			c-0.2,0.1-0.5,0-0.6-0.2c-0.1-0.2-0.2-0.3-0.2-0.5c0-0.4,0-0.8,0-1.2C593.9,19.8,594.1,19.7,594.5,19.7"/>
		<path class="st3" d="M599.9,35.3c0.1,0,0.3,0.1,0.4,0.2c0.3,0.3,0.6,0.5,1,0.7c0.2,0.1,0.4,0.3,0.4,0.5c0,0.1,0,0.3-0.1,0.4
			c-0.2,0.1-0.3,0.2-0.5,0.1c-0.6-0.3-1.2-0.7-1.6-1.3c0,0,0-0.1-0.1-0.1c-0.1-0.3,0-0.5,0.3-0.5C599.7,35.3,599.8,35.3,599.9,35.3"
			/>
		<path class="st3" d="M602.7,30.7c-0.3,0-0.6-0.1-0.8-0.1c-0.1,0-0.2-0.1-0.3-0.2c-0.2-0.1-0.3-0.2-0.3-0.5c0-0.2,0.2-0.3,0.5-0.2
			c0.4,0,0.8,0,1.1-0.1c0.4-0.1,0.7,0,0.9,0.3c0.2,0.3,0.1,0.5-0.2,0.6c-0.1,0-0.1,0.1-0.2,0.1C603.1,30.6,602.9,30.6,602.7,30.7
			C602.7,30.6,602.7,30.6,602.7,30.7"/>
		<path class="st3" d="M590.1,22.8c-0.1,0.1-0.1,0.2-0.2,0.2c-0.1,0-0.2,0-0.3,0c-0.3-0.2-0.6-0.3-0.7-0.7c-0.1-0.4-0.2-0.8-0.4-1.1
			c-0.1-0.2,0.1-0.5,0.4-0.5c0.4-0.1,0.7,0.2,0.8,0.5c0,0.2,0,0.3,0,0.5c0,0.3,0,0.7,0.3,0.9C590.1,22.7,590.1,22.7,590.1,22.8"/>
		<path class="st3" d="M584.3,32.1c-0.3,0-0.5-0.1-0.7-0.3c-0.2-0.2-0.1-0.5,0.1-0.6c0.1,0,0.1-0.1,0.2-0.1c0.2-0.1,0.5-0.1,0.7-0.2
			c0.4-0.2,0.6-0.1,0.9,0.2c0.2,0.3,0.1,0.7-0.2,0.8C585,32,584.6,32.1,584.3,32.1"/>
		<path class="st3" d="M593.6,31.9c-0.4,1.1-0.7,2-1,3c-0.1,0.2-0.1,0.3-0.2,0.5c-0.1,0.2-0.3,0.2-0.5,0.2c-0.2-0.1-0.3-0.2-0.2-0.4
			c0.2-0.8,0.3-1.5,0.5-2.3c0.1-0.3,0.1-0.6,0.2-0.9c-0.3-0.1-0.6-0.1-0.9-0.2c-0.1,0-0.3-0.1-0.4-0.2c-0.1-0.1-0.2-0.2-0.1-0.3
			c0-0.1,0.1-0.2,0.2-0.3c0.1,0,0.1,0,0.2,0c0.7,0,1.4,0,2.1,0c0.3,0,0.7,0.1,1,0.2c0.1,0,0.1,0.1,0.2,0.1c0.2,0.1,0.3,0.4,0.2,0.6
			c-0.1,0.2-0.3,0.3-0.6,0.3C594.1,32,593.9,31.9,593.6,31.9"/>
	</g>
	<g id="_x32_">
		<path class="st3" d="M92,30c-0.1-0.3-0.3-0.6-0.5-0.9c-0.6-0.8-0.1-1.3,0.7-1.5c0.5-0.1,1.1,0,1.6,0.1c0.5,0,0.9,0.3,1.4,0.3
			c0.4,0,0.8,0.2,1.2-0.1c0.2-0.1,0.6,0,0.8,0.1c0.2,0.1,0.4,0.4,0.4,0.6c0,0.3-0.1,0.6-0.2,0.9c-0.1,0.4-0.4,0.8-0.5,1.2
			c-0.2,0.5-0.3,1-0.4,1.6c-0.1,0.3-0.2,0.6,0,0.9c0.2,0.3,0.2,0.7,0.3,1.1c0.1,0.2,0.2,0.4,0.4,0.5c0.8,0.5,1.4,1.2,1.8,2
			c0.3,0.5,0.2,1.1,0.2,1.6c0.1,1.1-0.4,2-0.8,2.9c-0.2,0.4-0.3,0.8-0.6,1.1c-0.3,0.3-0.7,0.6-1.1,0.8c-0.4,0.2-0.9,0.4-1.3,0.4
			c-0.9,0.1-1.8,0.3-2.7,0c-0.7-0.2-1.4-0.4-2-0.7c-0.6-0.3-1.1-0.6-1.5-1.2c-0.2-0.3-0.4-0.6-0.5-1c-0.2-0.5-0.4-0.9-0.5-1.4
			c-0.1-0.2,0-0.4,0-0.6c0-0.4,0.1-2.2,0.1-2.7c0-0.3,0.2-0.7,0.4-1c0.4-0.7,1.7-1.9,1.7-1.9 M93.7,28.9c0,0,0,0.1,0,0.1
			c0.1,0.1,0.1,0.2,0.2,0.3c0.2,0.4,0.5,0.7,0.5,1.2c0,0.3,0,0.6-0.1,0.9c0,0.1,0.1,0.2,0.1,0.3c0,0,0.1,0,0.1,0
			c0.2-0.8,0.5-1.6,0.7-2.3c-0.3-0.1-0.5-0.2-0.8-0.2C94.1,29,93.9,28.9,93.7,28.9 M94,42.1c-0.4-0.3-0.6-0.6-0.4-1
			c0.1-0.2,0.2-0.3,0.4-0.5c0,0,0.2,0,0.3,0.1c0.1,0,0.3,0.1,0.4,0.1c0.4,0,0.5,0.1,0.5,0.5c0,0.2,0,0.3,0.2,0.4
			c0.1,0,0.2,0.1,0.3,0.2c0.1-0.2,0.1-0.3,0.2-0.4c0.4-0.4,0.8-0.8,0.9-1.4c0.1-0.4,0.3-0.7,0.4-1c0.1-0.2,0-0.5,0.1-0.8
			c0.1-0.4-0.1-0.7-0.1-1c0,0-0.2-0.1-0.3-0.1c-0.2,0.1-0.4,0.3-0.7,0.5c-0.3,0.2-0.6,0.3-0.9,0.4c-0.4,0.1-0.8,0.2-1.2,0.4
			c-0.2,0-0.3,0.1-0.4,0.2c-0.1,0.1-0.1,0.2-0.2,0.3c0.1,0,0.2,0.1,0.3,0.1c0.1,0,0.1,0.1,0.1,0.1c0,0,0,0.1-0.1,0.1
			c-0.2,0.2-0.4,0.4-0.6,0.6c-0.1,0.1-0.3,0.1-0.5,0.2c-0.1,0-0.3,0-0.4,0c-0.1-0.1-0.2-0.3-0.3-0.4c-0.3,0-0.5,0.1-0.7,0.1
			c-0.2,0-0.4,0.1-0.4,0.3c-0.1,0.2,0,0.4,0,0.7c0,0.4,0.3,0.3,0.5,0.2c0.5-0.2,0.8,0.1,1.1,0.4c0.2,0.2,0.3,0.5,0.4,0.8
			c0,0.1,0.1,0.2,0.2,0.2C93.2,42.5,93.5,42.2,94,42.1 M94.2,32.2c-0.2,0.2-0.3,0.5-0.4,0.6c-0.1,0.1-0.2,0.1-0.3,0.2
			c-0.2,0.3-0.4,0.6-0.5,0.8c0,0.1-0.1,0.1-0.2,0.2c-0.1,0.1-0.3,0.1-0.4,0.2c-0.2,0.1-0.3,0.3-0.4,0.4c-0.6,0.6-1.2,1.2-1.4,2.1
			c-0.1,0.5-0.1,1.1-0.1,1.6c0.6,0.1,1.1-0.2,1.5-0.6c0.6-0.5,1.4-0.7,2.2-0.9c0.1,0,0.2,0,0.3-0.1c0.4-0.2,0.8-0.4,1.2-0.6
			c0.2-0.1,0.4-0.2,0.6-0.4c-0.1-0.1-0.2-0.1-0.2-0.1c-0.4-0.2-0.9-0.3-1-0.8c-0.1-0.2-0.2-0.5-0.3-0.7c-0.2-0.3-0.1-0.7-0.5-0.8
			C94.2,33,94.4,32.6,94.2,32.2"/>
		<polygon class="st3" points="94.1,26.6 93.4,20.1 91.8,18 		"/>
		<polyline class="st3" points="95.9,26.7 96.6,20.4 98.2,18.4 		"/>
		<path class="st1" d="M352.9,60.5c0,0-0.1,0.1-0.1,0.1c0,0.1,0,0.3,0,0.4c0,0.5,0.2,1.1-0.1,1.6c-0.2,0.3-0.4,0.6-0.5,0.9
			c0,0.1,0,0.2,0,0.3c0.1,0,0.1,0,0.2,0c0.7-0.8,1.4-1.6,2-2.3c-0.3-0.2-0.5-0.5-0.7-0.7C353.4,60.8,353.1,60.7,352.9,60.5
			 M370.9,58.6c0-0.3,0-0.5-0.1-0.6c-0.3-0.3-0.6-0.7-0.9-0.9c-0.8-0.4-1.3-1.1-1.9-1.7c-0.4-0.3-0.7-0.8-1.1-1.2
			c-0.3-0.3-0.5,0.1-0.6,0.2c-0.2,0.2-0.2,0.4,0.1,0.4c0.5,0.2,0.8,0.6,1.2,1c0.3,0.4,0.7,0.8,1.1,1.2c0.2,0.3,0.5,0.5,0.7,0.8
			c0.4,0.5,0.8,1,1.2,1.5c0.1,0.1,0.2,0.3,0.3,0.4c0.2,0.3,0.3,0.5,0.4,0.8c0.2-0.1,0.2-0.2,0.3-0.3c0.1,0.6,0.2,1.2,0.9,1.2
			c0,0,0.1,0.1,0.1,0.1c0.1,0.3,0.1,0.5,0.5,0.7c0.3,0.2,0.5,0.6,0.7,0.9c0.2,0.3,0.4,0.6,0.7,0.9c0.3-0.5,0.1-1.3-0.3-1.4
			c-0.3-0.1-0.3-0.3-0.4-0.5c0-0.1-0.1-0.2-0.2-0.4c-0.1-0.2-0.2-0.5-0.3-0.7c-0.2-0.3-0.3-0.5-0.5-0.7c-0.4-0.4-0.8-0.7-1.1-1.2
			C371.6,59,371.5,58.5,370.9,58.6 M346.2,75.7c-0.3-0.6-0.3-1,0.1-1.4c0.2-0.2,0.4-0.3,0.7-0.4c0.1,0,0.2,0.1,0.3,0.2
			c0.1,0.1,0.2,0.3,0.4,0.4c0.5,0.2,0.5,0.4,0.3,0.9c-0.1,0.2-0.2,0.4,0,0.5c0.1,0.1,0.1,0.2,0.2,0.4c0.2-0.1,0.3-0.3,0.5-0.4
			c0.7-0.2,1.3-0.5,1.8-1.1c0.3-0.4,0.7-0.6,1-1c0.2-0.2,0.3-0.6,0.5-0.8c0.3-0.3,0.3-0.8,0.4-1.2c0,0-0.2-0.2-0.3-0.2
			c-0.3,0-0.7,0.1-1,0.2c-0.4,0-0.8,0.1-1.3,0c-0.5,0-1-0.2-1.5-0.2c-0.2,0-0.4,0-0.6,0c-0.1,0-0.2,0.2-0.3,0.3
			c0.1,0.1,0.2,0.2,0.2,0.3c0,0.1,0.1,0.1,0.1,0.2c0,0.1-0.1,0.1-0.2,0.1c-0.3,0.1-0.7,0.3-1,0.3c-0.2,0-0.5,0-0.7-0.1
			c-0.2,0-0.3-0.2-0.4-0.3c-0.1-0.2-0.1-0.4-0.2-0.6c-0.3-0.1-0.6-0.2-0.9-0.2c-0.2,0-0.5,0-0.6,0.1c-0.2,0.2-0.2,0.5-0.3,0.7
			c-0.2,0.4,0.2,0.5,0.4,0.5c0.6,0.1,0.8,0.6,1,1c0.1,0.3,0,0.7,0,1.1c0,0.1,0,0.2,0.1,0.3C345.2,75.7,345.6,75.6,346.2,75.7
			 M351.7,64.6c-0.3,0.2-0.5,0.4-0.8,0.5c-0.1,0.1-0.3,0-0.5,0.1c-0.4,0.2-0.7,0.4-1.1,0.6c-0.1,0.1-0.2,0.1-0.3,0.1
			c-0.2,0-0.4,0-0.5,0c-0.2,0.1-0.5,0.2-0.7,0.2c-1,0.3-2,0.8-2.7,1.6c-0.4,0.5-0.7,1.2-1,1.8c0.7,0.4,1.4,0.3,2,0.2
			c1-0.3,2-0.1,2.9,0.1c0.1,0,0.3,0.1,0.4,0.1c0.6,0,1.1,0,1.7-0.1c0.3,0,0.6,0,0.9-0.1c-0.1-0.1-0.1-0.2-0.2-0.2
			c-0.4-0.4-0.8-0.8-0.8-1.5c0-0.3,0.1-0.6,0-1c0-0.4,0.3-0.9-0.2-1.2C351.3,65.5,351.7,65.1,351.7,64.6 M360,51
			c0.1-1,0.1-1.8,0.2-2.8c-0.5,0.1-0.7,0.4-1,0.7c-0.1,0.1-0.2,0.2-0.3,0.3c-0.5,0.5-1.1,0.9-1.6,1.4c-0.8,0.7-1.6,1.4-2.4,2.1
			c-1,0.9-2,1.8-3,2.7c-0.7,0.7-1.4,1.4-2.1,2.2c-0.5,0.6-1.1,1.1-1.6,1.7c-0.4,0.4-0.6,0.9-1,1.3c-0.2,0.3-0.5,0.6-0.8,1
			c0.6,0,1.2,0,1.7,0c0.5,0,1,0,1.6,0c0.4,0,0.7-0.3,0.7-0.8c0-0.4,0-0.9-0.1-1.3c-0.3-1.3,0.6-1.6,1.6-1.4c0.7,0.1,1.2,0.6,1.8,0.9
			c0.5,0.3,0.9,0.8,1.4,1.1c0.4,0.3,0.8,0.7,1.5,0.6c0.3,0,0.6,0.3,0.8,0.5c0.2,0.2,0.2,0.7,0.1,0.9c-0.1,0.4-0.4,0.7-0.7,1
			c-0.4,0.4-0.8,0.7-1.2,1.1c-0.5,0.5-0.9,1-1.3,1.5c-0.3,0.3-0.6,0.5-0.5,1.1c0.1,0.4-0.2,0.9-0.2,1.4c0,0.3,0,0.6,0.1,0.8
			c0.6,1,1,2.1,1,3.3c0,0.7-0.4,1.3-0.6,2c-0.4,1.3-1.5,2-2.5,2.9c-0.4,0.3-0.8,0.7-1.2,0.9c-0.5,0.2-1.1,0.3-1.7,0.3
			c-0.6,0-1.2,0-1.7-0.2c-1-0.4-2.2-0.6-3.1-1.4c-0.6-0.6-1.4-1.2-1.9-1.8c-0.5-0.6-0.9-1.3-1-2.1c-0.1-0.5-0.1-0.9-0.1-1.4
			c0.1-0.6,0.1-1.3,0.2-1.9c0-0.2,0.3-0.5,0.4-0.7c0.2-0.4,0.6-0.8,0.7-1.3c0.1-0.7,0.6-1.1,0.9-1.7c0.2-0.4,0.6-0.6,1-0.9
			c0.8-0.6,1.7-1.1,2.7-1.2c0.1,0,0.2,0,0.2-0.1c0,0,0,0,0.1-0.1c-0.2,0-0.3,0-0.5-0.1c-0.6,0-1.2,0-1.7-0.3
			c-0.2-0.1-0.6-0.1-0.9-0.2c-0.2-0.1-0.4-0.3-0.6-0.4c-0.2-0.2-0.2-0.4,0-0.6c0,0-0.1-0.2-0.1-0.2c0.2-0.4,0.4-0.9,0.7-1.1
			c0.7-0.4,0.8-1.2,1.3-1.7c0.4-0.4,0.8-1,1.2-1.4c0.2-0.3,0.5-0.5,0.8-0.8c0.3-0.4,0.6-0.8,1-1.1c0.8-0.8,1.6-1.7,2.6-2.3
			c0,0,0.1-0.1,0.1-0.1c0.2-0.3,0.5-0.6,0.8-0.8c0.6-0.5,1.2-1.2,1.8-1.7c0.3-0.3,0.6-0.5,0.9-0.8c0.5-0.4,1-0.8,1.5-1.3
			c0.4-0.3,0.8-0.6,1.1-0.9c0.5-0.5,1-1,1.5-1.5c0.3-0.4,0.6-0.8,0.9-1.2c0.3-0.3,0.6-0.5,0.9-0.8c0.1-0.1,0.2-0.3,0.2-0.4
			c0-0.6,0.3-0.8,0.9-0.6c0.6,0.1,1,0.3,1.5,0.6c0.4,0.3,0.8,0.5,1.2,0.8c0.1,0,0.2,0.1,0.2,0.1c0.5,0,1,0.2,1.4,0.4
			c0.4,0.2,0.8,0.2,1.2,0.3c0.4,0.1,0.7,0.2,1.1,0.3c0.8,0.2,1.6,0.4,2.3,0.6c0.4,0.1,0.8,0.3,1.2,0.5c0.5,0.1,0.9,0.2,1.4,0.4
			c0.1,0,0.1,0.1,0.2,0.1c0.1,0.1,0.2,0.2,0.3,0.2c0.8,0.2,1.6,0.5,2.4,0.9c0.5,0.3,1.1,0.5,1.6,0.7c1,0.4,2,0.7,2.9,1.1
			c0.4,0.2,0.8,0.7,1.1,1c0,0.1-0.2,0.5-0.4,0.6c-0.7,0.3-1.4,0.5-2.2,0.7c-0.2,0.1-0.5,0.1-0.7,0.2c-1.1,0.2-2.2,0.6-3.4,0.4
			c-0.5-0.1-0.9-0.1-1.4-0.1c-0.4,0-0.8,0-1.1,0.1c-0.8,0.1-1.7,0.1-2.5,0.2c-0.3,0-0.4,0.1-0.5,0.4c-0.1,0.3-0.1,0.5,0.1,0.6
			c0.1,0.1,0.2,0.3,0.4,0.4c0.3,0.3,0.7,0.6,1,0.9c0,0,0.1,0.1,0.2,0.1c0.6,0.2,0.9,0.7,1.3,1.2c0.6,0.6,1.1,1.3,1.7,2
			c0.6,0.7,1.2,1.4,1.8,2.1c0.3,0.4,0.5,1.1,0.9,1.4c0.6,0.6,0.8,1.3,0.9,2c0.1,0.4-0.2,0.8-0.4,1.2c-0.6,1.2-1.4,1.4-2.5,0.7
			c-0.3-0.2-0.7-0.3-0.9-0.5c-0.3-0.3-0.6-0.6-0.9-0.9c0,0-0.1-0.1-0.1-0.1c-0.6-0.3-0.8-0.9-1.1-1.4c0-0.1-0.1-0.1-0.2-0.2
			c-0.4-0.4-0.8-0.8-1.2-1.3c-0.3-0.3-0.6-0.5-0.8-0.8c-0.3-0.3-0.6-0.7-0.9-1.1c-0.3-0.3-0.5-0.6-0.8-0.9c-0.1-0.1-0.1-0.1-0.2-0.2
			c-0.3-0.4-0.6-0.8-0.9-1.3c-0.3-0.6-0.8-0.3-1.3-0.3c-1,0-1.8-0.3-2.4-1.1c-0.3-0.5-0.2-1-0.1-1.5c0.1-0.4,0.3-0.8,0.4-1.2
			c0.2-0.3,0.2-0.8,0.5-0.8c0.3-0.4,0.6-0.6,0.9-0.9c0.4-0.4,0.8-0.8,1.3-1c0.5-0.3,0.8-0.7,1.1-1.1c0.4-0.4,0.8-0.5,1.5-0.1
			c0.3,0.2,0.5,0.3,0.8,0.5c0,0,0,0.1,0,0.3c0.2,0,0.3,0.1,0.5,0.1c-0.2,0.3-0.4,0.5-0.6,0.8c0.8,0.2,1.4,0.2,2-0.2
			c0.6-0.3,0.9-0.3,1.4,0.1c0.1,0.1,0.3,0.1,0.5,0.1c0.7,0,1.5,0,2.2-0.1c0.3,0,0.7-0.3,1-0.4c0.1,0,0.2-0.1,0.4-0.2
			c-0.9-0.4-1.6-0.7-2.4-1.1c0-0.4-0.4-0.2-0.6-0.3c-0.1-0.1-0.3-0.1-0.5-0.1c-0.2-0.1-0.4-0.1-0.5-0.2c-0.5-0.3-1.1-0.6-1.7-0.6
			c-0.3,0-0.6-0.2-0.8-0.3c-0.3-0.1-0.6-0.2-1-0.3c-0.7-0.2-1.4-0.3-2.1-0.5c-0.4-0.1-0.8-0.3-1.2-0.4c-0.3-0.1-0.6-0.4-0.9-0.2
			c0,0-0.1,0-0.2,0c-0.5-0.2-1-0.5-1.7-0.7c-0.1,0.7-0.3,1.3-0.4,1.9c-0.1,0.4-0.1,0.8-0.2,1.2c-0.1,0.4-0.1,0.8-0.1,1.2
			c-0.1,0.8-0.1,1.7-0.1,2.5c0,0.4-0.2,0.9-0.1,1.3c0.1,0.4,0,0.8-0.1,1.1c-0.1,0.5,0,1,0,1.5c0,0.4-0.1,0.8-0.2,1.3
			c0,0.4,0,0.8,0,1.1c0,0.5,0,0.9,0,1.4c0,0.5,0,0.9,0.1,1.4c0,0.6,0,1.2,0,1.8c0,1.1,0.1,2.3,0.2,3.4c0,0.6,0.1,1.2,0.1,1.8
			c0,0.9,0.1,1.8,0.1,2.7c0,0,0,0.1,0,0.1c0.3,0.6,0.6,1.3,0.8,1.9c0.1,0.1,0.1,0.3,0.1,0.4c-0.1,0.6-0.2,1.2-0.2,1.8
			c0,0.8,0,1.5,0,2.3c0,0.8,0.1,1.6,0.1,2.4c0,0.3,0,0.5,0,0.8c0,2.1,0.1,4.2,0.1,6.3c0,0.9,0,1.8,0.1,2.8c0,0.2,0.1,0.4,0.1,0.6
			c0,0.5,0,1,0,1.5c0.1,1,0.1,2,0.2,3c0,0.2,0.2,0.4,0.1,0.6c-0.1,0.3,0.1,0.6,0.1,0.9c0.1,0.7,0.1,3,0.3,3.7c0.3,1.6,0.7,3.1,1,4.7
			c0.1,0.6,0.2,1.3-0.2,1.9c0,0.1,0,0.2,0,0.2c0.2,0.7,0.3,1.3,0.5,2c0,0.1,0.2,0.2,0.4,0.4c-0.1,0.1-0.2,0.1-0.4,0.2
			c0.2,0.1,0.3,0.1,0.4,0.2c0.5,0,1,0,1.5,0c0.3,0,0.7,0.1,1,0.1c0,0,0.1,0,0.1,0c0.1,0.5,0.4,0.8,0.6,1.1c0.1,0.1,0.2,0.3,0.2,0.5
			c0,0.1,0.1,0.3,0,0.3c-0.2,0.1-0.4,0.3-0.6,0.4c-0.7,0.1-1.4,0-2.2,0c-0.4,0-0.9,0-1.3,0c-0.1,0-0.3-0.1-0.4-0.2
			c-0.1-0.1-0.2-0.2-0.3-0.3c-0.5-0.1-0.6-0.7-0.9-1c-0.1-0.1-0.1-0.3-0.1-0.5c-0.5-0.2-0.6-0.8-0.6-1.3c-0.1-0.7-0.2-1.3-0.4-2
			c-0.1-0.4-0.2-0.8,0-1.3c0.2-0.5,0.2-1.1,0.2-1.6c0-0.6-0.2-1.1-0.4-1.7c-0.2-0.8-0.4-3.2-0.5-4c-0.1-0.4,0-0.8-0.1-1.2
			c-0.1-0.5-0.2-0.9-0.2-1.4c0-0.1,0-0.3-0.1-0.4c0-0.4-0.1-0.9-0.1-1.3c-0.1-0.8-0.1-1.6-0.2-2.3c-0.1-0.8-0.1-1.5-0.2-2.3
			c0-0.1,0-0.2,0.1-0.3c0.1-0.3,0.2-0.6-0.2-0.6c0.3-0.8,0.1-1.6,0-2.4c0-0.4-0.1-0.7,0-1.1c0.1-0.4-0.1-0.9-0.1-1.4
			c-0.1,0-0.1,0-0.2,0c-0.1,0.5-0.2,0.9-0.4,1.4c-0.1,0.3-0.1,0.6-0.2,0.8c-0.2,0.7-0.3,1.4-0.5,2.1c-0.1,0.5-0.1,1-0.2,1.5
			c-0.1,0.6-0.3,1.1-0.4,1.7c-0.2,0.7-0.3,1.5-0.4,2.2c-0.1,0.6-0.3,1.3-0.4,1.9c-0.1,0.4-0.1,0.8-0.2,1.1c-0.2,0.9-0.4,1.8-0.5,2.6
			c-0.1,0.5,0,1-0.3,1.4c0,0,0,0.1,0,0.2c0.3,0.7,0.1,1.4,0,2.1c-0.2,1.3-0.2,2.7-0.3,4c-0.1,0.5-0.1,0.9,0,1.4c0.1,0.7,0,1.4,0,2.1
			c0,0.5-0.2,1.1,0.3,1.6c0,0,0,0.3-0.1,0.3c-0.2,0.1-0.5,0.3-0.7,0.3c-0.8,0-1.6-0.3-2.4-0.2c-0.5,0-1-0.1-1.5-0.1
			c-0.1,0-0.7-1-0.6-1.2c0-0.1,0-0.2-0.1-0.4c0.3-0.1,0.7-0.2,1-0.4c0.3-0.1,0.8-0.1,0.9-0.4c0.2-0.3,0.7-0.4,0.6-1
			c-0.1-0.4,0.2-0.9,0.2-1.3c0-0.4,0-0.8,0-1.2c0-0.6,0.1-1.1,0.1-1.7c0-0.1,0-0.1,0-0.2c-0.2-0.9,0-1.7,0.2-2.6
			c0.1-0.4,0-0.8,0-1.2c0-0.2,0.1-0.3,0.1-0.5c0-0.2,0-0.4,0.1-0.6c0.1-0.5,0.2-0.9,0.3-1.4c0-0.2,0.1-0.4,0.1-0.7
			c0.1-0.8,0.1-1.6,0.2-2.4c0.1-0.5,0.3-1,0.4-1.4c0-0.2,0-0.4,0-0.6c0.2-0.8,0.3-1.5,0.5-2.2c0.1-0.3,0-0.7,0.1-1
			c0.1-0.4-0.1-0.9,0.1-1.2c0.2-0.4,0.2-0.8,0.3-1.1c0.3-0.7,0.4-1.5,0.5-2.3c0-0.1,0-0.1,0-0.2c0.2-0.8,0.4-1.6,0.6-2.4
			c0.1-0.6,0.2-1.2,0.3-1.8c0-0.2,0.1-0.4,0.2-0.6c0-0.1,0-0.2,0-0.3c0-0.1,0-0.2,0.1-0.3c0.1-0.2,0.2-0.4,0.3-0.6
			c0.2-0.9,0.3-1.7,0.4-2.6c0.1-0.8,0.3-1.7,0.5-2.5c0-0.2,0.2-0.4,0.2-0.7c0-0.8-0.1-1.5-0.1-2.3c0-0.3,0-0.6,0-0.8
			c0-0.3,0.2-0.6-0.1-0.8c0,0,0-0.2,0-0.2c0-0.3,0.1-0.5,0.1-0.8c0-1.1-0.1-2.2-0.2-3.3c0-0.3-0.1-0.6-0.2-0.9
			c0-0.1,0.1-0.3,0.1-0.4c0-0.8-0.1-1.5-0.1-2.3c0-0.1,0-0.2,0-0.2c0.1-0.4,0.2-0.8,0-1.3c-0.1-0.4,0-0.8,0-1.2c0-0.6,0-1.1,0-1.7
			c0.1-0.9,0.1-1.8,0.2-2.7c0-0.1,0-0.2,0-0.4c0-0.3,0-0.5,0-0.8c0-0.3,0-0.6,0-0.9c0-0.4,0.1-0.7,0.1-1.1
			C360.1,51.3,360,51.1,360,51"/>
		<path class="st1" d="M360.5,24.3c-0.1,0.1-0.1,0.1-0.1,0.1c-0.2,1.6-0.3,3.2-0.4,4.8c0,0.7,0,1.5,0.1,2.2c0,0.7,0,1.5,0.1,2.2
			c0.2,1.1,0.5,2.1,0.9,3.1c0.2,0.6,1,0.8,1.5,0.3c0.7-0.6,1.3-1.4,1.5-2.3c0.1-0.2,0-0.4,0.1-0.6c0.3-0.7,0.6-1.4,1-2.1
			c-0.5-0.1-0.5-0.3-0.3-0.6c0.4-1.1,0.5-2.2,0.5-3.3c0-0.8,0.1-1.7,0.1-2.5c0-0.5,0.1-1.1-0.3-1.5c0.5-0.9-0.4-1.4-0.6-2.3
			c-0.5,0.5-0.9,1-1.3,1.3c-0.6,0.4-1,0.9-1.1,1.7c0,0.2-0.3,0.4-0.4,0.5c-0.1,0-0.4-0.1-0.5-0.2C360.9,24.8,360.7,24.5,360.5,24.3
			 M357.7,35.1c-0.1-0.3-0.2-0.7-0.2-1c-0.2-1.3-0.4-2.6-0.4-3.9c0-1.2,0.1-2.4,0.2-3.6c0-0.8,0.1-1.7,0.2-2.5
			c0-0.3,0.2-0.6,0.3-0.9c0.1-0.3,0.1-0.6,0.2-0.9c0.1-0.3,0.3-0.6,0.5-0.8c0.1-0.1,0.2-0.2,0.3-0.3c0.4-0.7,1-0.8,1.7-0.7
			c0.5,0.1,0.9,0,1.3-0.4c0.3-0.3,0.8-0.5,1.3-0.6c1-0.2,2,0,2.8,0.7c0.6,0.4,1.1,0.9,1.6,1.5c0.2,0.2,0.2,0.7,0.3,1
			c0.6,1.7,0.4,3.5,0.4,5.2c0,0.8-0.2,1.6-0.2,2.4c0,1.6-0.5,3-0.8,4.5c-0.3,1.6-1.2,3-2.5,4.1c-0.9,0.7-1.8,0.6-2.8,0.5
			c-0.5-0.1-1-0.2-1.5-0.4c-1.3-0.7-1.9-1.9-2.5-3.2C357.9,35.6,357.7,35.3,357.7,35.1C357.6,35.1,357.7,35.1,357.7,35.1"/>
		<path class="st1" d="M346,39.3c-0.2,0.2-0.3,0.3-0.4,0.4c0.5,0.6,0.8,1.3,1.6,1.6c0.4,0.2,0.8,0.7,1.2,0.9
			c0.7,0.4,1.2,0.9,1.7,1.5c0.4,0.5,0.7,1.1,1,1.6c0.5,0.7,0.5,1.5,0.4,2.2c-0.1,0.6-0.2,1.3-0.4,1.9c-0.2,0.6-0.4,1.3-0.9,1.8
			c-0.3,0.3-0.8,0.5-1.2,0.2c-0.3-0.3-0.6-0.7-0.9-1c-0.1-0.2-0.1-0.4,0.1-0.5c0.4-0.2,0.6-0.6,0.7-1c0-0.2,0.2-0.5,0.3-0.7
			c0.4-1,0.4-2-0.2-3c-0.4-0.7-1.1-1.3-1.9-1.7c-0.2-0.1-0.3-0.3-0.5-0.5c-0.4-0.4-0.9-0.6-1.3-1.1c-0.5-0.5-1-1-1.4-1.6
			c-0.4-0.6-0.7-1.2-0.8-1.8c0-0.2-0.2-0.4-0.2-0.6c-0.1-0.6-0.2-1.2-0.2-1.7c0-0.4,0.2-0.8,0.3-1.1c0.2-0.7,0.4-1.4,1-2
			c0.2-0.2,0.2-0.5,0.4-0.7c0.2-0.3,0.4-0.6,0.6-1c0.2-0.4,0.5-0.7,0.6-1.2c0.2-0.6,0.2-1.2-0.2-1.7c-0.3-0.4-0.5-0.8-0.7-1.2
			c-0.3-0.6-0.7-1.2-1-1.9c-0.2-0.5-0.5-1-0.6-1.5c-0.1-0.7-0.5-1.4-0.5-2.2c0-0.6,0.9-1.1,1.5-0.8c0.1,0,0.2,0,0.3,0.1
			c0.1,0.1,0.3,0.3,0.2,0.4c-0.2,0.7,0.1,1.2,0.3,1.8c0.4,1,0.7,1.9,1.2,2.8c0.3,0.6,0.7,1,1,1.6c0.6,0.8,1.1,1.7,1.1,2.7
			c0,0.8-0.4,1.5-0.9,2.1c-0.1,0.2-0.2,0.4-0.4,0.5c-0.5,0.3-0.6,0.9-0.8,1.4c-0.1,0.2-0.3,0.3-0.4,0.5c-0.2,0.4-0.5,0.9-0.6,1.4
			c-0.1,0.8-0.3,1.6,0.1,2.3c0,0.1,0.1,0.1,0.1,0.2C345.3,39.1,345.3,39.4,346,39.3"/>
		<path class="st1" d="M394.9,111.1c0,0.2,0,0.4,0,0.5c-0.1,0-0.2,0-0.3,0c0-0.2,0-0.4,0.1-0.5C394.8,111.1,394.9,111.1,394.9,111.1
			"/>
		<path class="st1" d="M349.6,74.4C349.6,74.4,349.6,74.4,349.6,74.4c-0.3,0.1-0.7,0.2-0.8,0.1c-0.2-0.1-0.1-0.5-0.2-0.7
			c-0.1-0.2-0.2-0.4-0.3-0.6c-0.2-0.3-0.1-0.6,0-0.8c0.2-0.2,0.5-0.2,0.7,0c0.2,0.2,0.6,0.3,0.7,0.5c0.2,0.3,0.4,0.8,0.5,1.2
			C350.3,74.2,349.9,74.4,349.6,74.4C349.7,74.5,349.6,74.5,349.6,74.4"/>
		<path class="st3" d="M385,20.8c0.4-0.4,0.6-0.6,0.8-0.9c0.5-0.7,0.9-1.4,1.5-2c0.3-0.4,0.8-0.8,1.1-1.1c0.2-0.2,0.5-0.5,0.7-0.8
			c0.3-0.3,0.7-0.6,1-0.9c0.2-0.2,0.4-0.4,0.7-0.6c0.3-0.3,0.7-0.5,1.1-0.7c0.5-0.2,0.9-0.6,1.3-0.9c0.2-0.1,0.3-0.4,0.5-0.5
			c0.1-0.1,0.3-0.1,0.4-0.2c0.2,0,0.3,0,0.4,0.2c0,0.2,0.1,0.4-0.1,0.6c-1.2,1-2.2,2.2-3.2,3.3c-0.9,1-1.8,2-2.7,3
			c-0.4,0.5-0.8,0.9-1.1,1.5c-0.2,0.6-0.6,1.1-0.9,1.6c-0.1,0.2-0.2,0.4-0.2,0.6c0,0.4-0.2,0.5-0.5,0.6c-0.5,0.1-1,0.1-1.4-0.1
			c-0.4-0.2-0.7-0.7-0.6-1.2c0-0.1,0-0.2,0-0.3c-0.3-0.7-0.5-1.4-1.2-1.9c-0.2-0.1-0.3-0.4-0.4-0.6c-0.2-0.5,0.1-1.1,0.7-1.1
			c0.2,0,0.4,0,0.7,0.1c0.4,0.1,0.6,0.3,0.7,0.7C384.4,19.7,384.7,20.2,385,20.8"/>
		<path class="st3" d="M384.6,30.6c0.6-0.7,1.2-1.2,1.5-2c0.1-0.3,0.2-0.6,0.4-0.9c0.2-0.5,0.4-0.6,0.8-0.5c0.3,0.1,0.6,0.2,0.7,0.5
			c0.2,0.6,0.4,1.2,0.6,1.7c0.1,0.4,0.4,0.7,0.8,0.9c0.1-0.1,0.2-0.2,0.2-0.3c0.4-1.2,0.8-2.4,1.1-3.6c0.3-0.9,0.5-1.9,0.5-2.9
			c0-0.3,0-0.5,0.3-0.6c0.3-0.1,0.7-0.1,0.9,0.2c0.4,0.5,0.9,0.7,1.4,0.9c0.3,0.1,0.6,0.2,0.9,0.3c0.8,0.2,1.4-0.3,1.4-1.1
			c0-0.4,0-0.7,0-1.1c0-0.8,0.1-1.7,0.1-2.5c0-0.7,0.2-0.9,0.9-0.9c0.6,0,1.2-0.1,1.7-0.2c0.2,0,0.4-0.2,0.7-0.3
			c-0.5-0.4-0.9-0.7-1.3-1.1c-1.5-1.4-1.9-2.3-1.2-4.2c0.2-0.5,0.5-1,0.7-1.5c0.2-0.4,0.1-0.6-0.3-0.5c-1.1,0-2.2,0.1-3.2,0.4
			c-0.7,0.2-1,0-1.3-0.6c-0.2-0.6-0.4-1.1-0.4-1.7c0-0.4,0.1-0.8-0.2-1.2c-0.2,0.1-0.3,0.2-0.4,0.3c-0.7,0.6-1.3,1.2-2,1.8
			c-0.2,0.1-0.4,0.3-0.6,0.3c-0.6,0.2-1-0.2-1.4-0.6c-0.5-0.6-0.9-1.2-1.4-1.8c-0.1-0.1-0.3-0.2-0.5-0.4c-0.1,0.4-0.2,0.7-0.2,1.1
			c0,0.4,0,0.7-0.1,1.1c-0.1,0.7-0.4,1-1,1.1c-0.2,0-0.4,0.1-0.6,0.1c-0.8,0.1-1.6,0.2-2.4,0.1c-0.4,0-0.7-0.1-1.1-0.2
			c-0.2,0-0.5,0.2-0.4,0.4c0.1,0.8,0.1,1.6,0.2,2.3c0.1,0.5,0.3,1,0.5,1.5c0.2,0.7-0.1,1.2-0.8,1.2c-0.3,0-0.7,0-1,0.1
			c-0.7,0.3-1.5,0.6-2.2,0.9c-0.3,0.1-0.5,0.3-0.9,0.5c0.3,0.2,0.4,0.4,0.6,0.5c0.6,0.4,1.2,0.8,1.8,1.1c0.4,0.3,0.9,0.5,1.3,0.8
			c0.5,0.3,0.9,0.5,1.3,0.8c0.6,0.5,0.6,1.3-0.1,1.8c0.3,0.6,0.3,0.7-0.1,1.2c-0.5,0.7-1.1,1.3-1.7,2c-0.3,0.4-0.7,0.6-1,1.2
			c0.3-0.1,0.4-0.1,0.5-0.2c1-0.4,2-0.7,2.9-1.2c0.5-0.2,1-0.3,1.5,0.1c0.3,0.2,0.5,0.4,0.5,0.8c0,0.1,0,0.2,0.1,0.3
			c0.4,1,0.8,1.9,0.8,3C384.5,30,384.6,30.2,384.6,30.6 M392.9,25.3c-0.4,1-0.8,1.9-1.1,2.8c-0.3,1-0.6,2.1-0.7,3.1
			c-0.2,1.2-0.3,1.3-1.5,1c-0.9-0.2-1.4-0.9-1.8-1.7c-0.1-0.1-0.2-0.3-0.3-0.5c-0.2,0.1-0.4,0.2-0.5,0.4c-0.6,1-1.6,1.6-2.4,2.5
			c-0.2,0.2-0.4,0.2-0.6,0.1c-0.5-0.2-0.8-0.4-0.9-1c0-0.4-0.1-0.9-0.1-1.3c0-0.8,0-1.6-0.1-2.4c0-0.3-0.1-0.6-0.3-0.9
			c-0.1-0.2-0.2-0.3-0.4-0.2c-0.6,0.1-1.1,0.2-1.6,0.4c-0.1,0.1-0.4,0.2-0.5,0.2c-1.1,0.2-2.1,0.6-3.1,0.9c-0.3,0.1-0.7,0.3-1,0.4
			c-0.3,0.1-0.5,0.2-0.8,0.3c-0.3,0.1-0.5,0-0.7-0.2c-0.4-0.4-0.4-1.4,0.1-1.6c0.9-0.5,1.6-1.2,2.4-1.9c0.7-0.6,1.3-1.3,1.9-1.9
			c0.3-0.3,0.6-0.7,1-1c0.2-0.2,0.4-0.3,0.6-0.4c-0.4-0.8-1.2-1.2-1.9-1.5c0,0-0.1,0-0.1-0.1c-1-0.7-2-1.4-3.1-2.2
			c-0.3-0.2-0.5-0.5-0.8-0.8c-0.4-0.5-0.4-1.5,0.4-1.9c1-0.4,1.9-0.9,2.9-1.3c0.3-0.1,0.6-0.3,0.9-0.4c0.2-0.1,0.3-0.2,0.2-0.4
			c0-0.3-0.1-0.5-0.1-0.8c0-1.3-0.1-2.5-0.4-3.7c-0.1-0.4-0.1-0.7,0.3-0.9c0.3-0.2,0.7-0.2,1,0c1.2,0.6,2.4,0.7,3.7,0.3
			c0.3-0.1,0.5-0.4,0.6-0.7c0-0.4,0.2-1,0.3-1.4c0.1-0.3,0.2-0.7,0.4-1c0.2-0.4,0.6-0.5,1.1-0.3c0.7,0.2,1.1,0.7,1.6,1.2
			c0.3,0.3,0.5,0.7,0.8,1c0.3,0.4,0.5,0.5,0.9,0.2c0.6-0.5,1.3-0.9,1.9-1.4c0.2-0.1,0.4-0.2,0.5-0.4c0.9-0.6,1.9-0.2,2.1,0.9
			c0.1,0.7,0.1,1.3,0.2,2c0.1,0.5,0.2,0.7,0.8,0.6c0.6-0.2,1.3-0.1,1.9-0.2c0.3,0,0.6,0,0.9,0c1.5,0.1,2.3,1.4,1.7,2.8
			c-0.1,0.3-0.3,0.5-0.5,0.8c-0.5,0.6-0.8,1.3-0.5,2.1c0,0.1,0.1,0.2,0.1,0.3c0.4,0.4,0.8,0.7,1.2,1c0.3,0.2,0.5,0.5,0.8,0.7
			c0.2,0.2,0.4,0.5,0.6,0.6c0.6,0.2,0.7,0.7,0.8,1.2c0.1,0.3-0.2,0.8-0.4,0.9c-0.5,0.2-1.1,0.3-1.6,0.5c-0.4,0.1-0.7,0.2-1.1,0.2
			c-0.5,0-1,0.5-1,1c0,1-0.1,1.9,0.1,2.9c0.1,0.5,0,1-0.2,1.4c-0.2,0.4-0.7,0.6-1.1,0.5c-0.4,0-0.8-0.1-1.2-0.2
			c-0.6-0.2-1.2-0.5-1.8-0.7C393.2,25.4,393.1,25.4,392.9,25.3"/>
	</g>
	<g id="_x31_">
		<path d="M130.9,76.7c-1.2-0.1-2.3-0.3-3.3-0.3c-3.6,0.2-7.3,0.5-10.9,0.7c-2,0.1-4-0.1-6.1-0.1c-1.3,0-2.6,0-4.1,0
			c-0.2,2.3-0.3,4.3-0.5,6.4c-0.1,0.7-0.2,1.4-0.4,2c-0.3,0.8-1.2,1-1.8,0.3c-0.7-0.9-0.9-1.9-0.6-3.1c0.4-1.6,0.5-3.3,0.5-5
			c-1.5,0-2.7-0.6-4.1-0.4c-1,0.1-2-1.5-1.7-2.5c0.1-0.2,0.1-0.4,0.3-0.4c0.9-0.3,1.9-0.9,2.7-0.7c1.5,0.4,3,0.2,4.5,0.2
			c2.7,0,5.4,0.2,8.1,0.1c3.6-0.1,7.1-0.5,10.7-0.7c2.9-0.1,5.8,0,8.6,0c1.4,0,2.9-0.2,4.3-0.3c1.3-0.1,2.1,0.4,2.4,1.6
			c0.2,1-0.1,1.6-1.1,1.7c-1.1,0.2-2.2,0.3-3.3,0.4c-0.8,0.1-1.2,0.3-1.2,1.1c0.1,2.1,0.1,4.1,0.2,6.2c0,1,0,2.1-0.1,3.1
			c0,0.4-0.4,0.8-0.8,1c-0.2,0.1-0.8-0.2-1-0.4c-0.9-0.9-1.3-1.9-1.2-3.2C131.2,81.8,131,79.4,130.9,76.7"/>
		<path d="M95.9,93.8c-0.5-0.6-1-1-1.4-1.5c-2,0.9-3.3,2.7-3.3,4.5c0,1.1,0.5,1.8,1.4,2.2c1.4,0.5,3.5-0.3,3.9-1.7
			c0.4-1.2,0.5-2.4,0.7-3.7c0-0.1-0.2-0.3-0.3-0.5C96.6,93.3,96.3,93.5,95.9,93.8 M99.7,95.8c-0.3,1.2-0.6,2.3-0.9,3.5
			c-0.6,1.9-2,2.8-3.9,2.9c-4,0.2-5.9-2.8-6.2-5.6c-0.4-3.2,1.4-5.2,3.7-6.9c0.8-0.6,1.6-1.6,2.9-1.2c0.5,0.1,1,0.2,1.4,0.6
			C98.6,90.8,100,92.9,99.7,95.8"/>
		<path d="M105.5,101.5c-1.5,1.4-2.3,3.3-2.7,5.4c-0.3,1.3,0.4,1.9,1.7,1.9c1.7,0,2.6-1.2,3.4-2.4c0.6-0.9,1.3-1.9,1.1-3.2
			c-0.1-0.6-0.3-1-1.1-1.1C107.1,102,106.4,101.8,105.5,101.5 M111.5,104.5c-0.5,2.5-1.2,4.5-2.9,6.2c-1.3,1.3-2.8,1.8-4.5,1.4
			c-2-0.5-3.1-1.9-3.6-3.8c-1-3.9,0.7-6.9,3.3-9.6c0.2-0.2,0.5-0.4,0.8-0.3c1.5,0.2,3.2,0.2,4.5,0.8
			C111.3,100.3,111.5,102.6,111.5,104.5"/>
		<path d="M118.1,92.6c-1.1,1.7-1.8,3.8-2,6.1c0,0.4,0.1,0.9,0.3,1.3c0.4,1.1,1.3,1.3,2.2,0.7c0.5-0.3,0.9-0.7,1.3-1.1
			c1.4-1.4,2.7-4.1,1.1-6.3C119.9,93,119.1,92.8,118.1,92.6 M124.2,97.3c-0.1,2.5-1.4,4.4-3.2,5.9c-2.2,1.9-5.2,1.1-6.7-1.6
			c-0.7-1.4-1.2-2.9-0.8-4.5c0.5-2,1-4.1,1.8-5.9c1.2-2.8,4.6-3.1,6.6-0.8C123.7,92.4,124.3,94.8,124.2,97.3"/>
		<path d="M134.1,105.4c-0.1-0.3-0.1-1-0.4-1.3c-0.6-0.8-3.2-0.8-3.8-0.1c-1.2,1.4-2.1,3-2.4,4.9c-0.1,0.8,0.2,1.4,1,1.6
			c0.7,0.1,1.4,0.2,2-0.1C132.5,109.5,133.7,107.9,134.1,105.4 M136.7,106.5c-0.1,1.7-0.9,3.2-1.7,4.6c-1.2,2.1-4.4,3-6.6,2.4
			c-1.7-0.4-3.5-2.8-3.6-4.9c-0.1-3,1.2-5.3,3.2-7.4c0.2-0.2,0.6-0.4,0.9-0.5c0.6-0.3,4.7-0.2,5.3,0.1c1.4,0.6,2.7,3.2,2.6,5
			C136.8,106,136.7,106.3,136.7,106.5"/>
		<path d="M142.2,95.7c-1.4,4-1.6,5.1-1,6.4c2.6-1.2,3.6-3.1,3-5.2C143.5,96.4,142.9,96,142.2,95.7 M138.3,99.2
			c0.6-2.2,1.1-4.4,1.8-6.6c0.3-1,0.9-1.1,1.9-0.7c0.5,0.3,1.1,0.5,1.7,0.7c1.4,0.3,2.1,1.5,2.7,2.6c1.4,2.7,1.2,6.9-2,9.1
			c-1.1,0.8-2.5,1.4-3.7,0.6c-0.9-0.7-1.6-1.8-2.1-2.8C138.2,101.2,138.3,100.2,138.3,99.2"/>
		<path d="M155.5,103.9c-0.5,0.3-1.2,0.4-1.6,0.8c-1.8,2-3.4,4.2-3.6,7.1c0,0.5,0.2,1.1,0.5,1.4c0.9,0.9,2.1,1.2,3.3,0.7
			c1.3-0.5,2.5-0.9,2.7-2.6C157.1,108.8,157.4,106.3,155.5,103.9 M159.8,111.9c-0.2,0.8-0.4,1.7-0.7,2.5c-1,2.2-2.8,3.1-5.1,2.9
			c-4.8-0.4-7-4.7-6-8.7c0.6-2.4,1.7-4.7,3.5-6.5c1.2-1.3,2.5-1.5,4.1-0.7c0.3,0.1,0.5,0.4,0.7,0.4c1.5,0,2,1.2,2.5,2.3
			C159.7,106.6,159.9,109.2,159.8,111.9"/>
		<path class="st0" d="M92.2,48.7c-0.7,0.2-1.3,0.1-1.9-0.3c-0.2-0.2-0.4-0.4-0.5-0.7c-0.2-1.3,0.8-2.7,2.1-2.9
			c0.7-0.1,1.5-0.1,2.2-0.2c0.5-0.1,1-0.2,1.5-0.2c1.5-0.1,2,0.3,2.1,1.8c0,0.6,0.2,1,0.5,1.4c0.9,1.3,1.9,2.6,2.8,4
			c0.9,1.4,2,2.5,3.5,3.5c0.5-0.7,0.6-1.5,0.8-2.3c0.7-2.7,5.8-7,5-5.6c-1,1.9-1.7,4-2.2,6.1c-0.5,1.9-0.8,3.8-0.9,5.8
			c0,1.1-0.6,1.9-1.6,2.4c-1,0.5-1.7,0.1-2.4-0.6c-0.2-0.7-0.4-1.4-0.7-2.1c-0.4-0.7-0.8-1.4-1.3-2.1c-1.3-2.1-2.7-4.3-4-6.4
			c-0.5-0.8-1.1-1.5-1.6-2.3C94.3,48.1,93.2,48.4,92.2,48.7"/>
		<path class="st0" d="M109.9,68.8c0.7,0.6,1.1,0.3,1.6-0.1c0.5-0.5,0.9-1,0.9-1.7c-0.1-2.1-0.2-4.2-0.3-6.3
			c-0.1-2.4-0.3-4.9-0.3-7.4c3,3.8,5.4,8.1,8,12.5c1-0.1,1.9-0.2,2.9-0.3c0.6-0.1,1-0.5,1.2-1.2c0.3-1-0.1-1.7-1-1.7
			c-1.4,0.1-2-0.8-2.5-2.1c-0.3-0.7-0.7-1.3-1.1-1.9c-1.6-2.4-3.2-4.8-4.8-7.3c-0.8-1.2-1.5-2.4-2.1-3.6c-0.6-1.1-1.5-1.1-2.4-1
			c-0.7,0.1-1.5,1.3-1.3,2.3C108.9,50.5,109.8,64,109.9,68.8"/>
		<path class="st0" d="M111.4,34.8c-0.4,1.5-0.7,3-1.1,4.5c-0.4,1.1-1,1.2-1.8,0.5c-0.6-0.6-1.2-1.1-1.5-2.1
			c-0.7-2.3-1.1-4.5-0.8-6.9c0.1-0.9,0.1-1.9,0.4-2.8c0.2-0.5,0.6-1.1,1.1-1.3c0.3-0.1,0.8,0.5,1.1,0.9c0.2,0.3,0.4,0.7,0.5,1.1
			C109.7,30.6,111.2,34.8,111.4,34.8 M113.7,28.3c-0.1-1.4-0.3-2.8-1.5-3.7c-0.2-0.2-0.6-0.5-0.8-0.4c-1,0.5-1.7-0.2-2.6-0.4
			c-1.5-0.4-2.6,0.8-3.5,2c-0.3,0.5-0.6,1.1-0.8,1.7c-1.2,4.5-1.2,8.9,0.7,13.2c1.1,2.5,3.3,3.1,5.2,1.3c1.3-1.2,2-2.8,2.4-4.6
			C113.6,34.5,113.8,31.4,113.7,28.3"/>
	</g>
</g>
<g id="Fleches">
	<path class="st0" d="M243.9,76.4c-0.2,0-0.4,0.1-0.6,0.1c0.1,0.1,0.1,0.1,0.2,0.2c0.1,0,0.4,0.1,0.3,0.3c0,0.1-0.1,0.3-0.2,0.4
		c-0.3,0.3-0.7,0.2-1,0.1s-0.6-0.2-0.9-0.4c0.1-0.3,0.2-0.5,0.3-0.8c-0.1,0-0.1-0.1-0.3-0.1c0-0.1,0-0.3,0.1-0.4
		c0.3-0.4,0.4-0.9,0.7-1.3s0.6-0.9,0.9-1.3c0.7-0.9,1.3-1.8,2-2.6c0.4-0.5,1-1.1,1.4-1.6c0.5-0.6,1.1-1.3,1.6-1.9
		c0.2-0.2,0.5-0.4,0.7-0.6c0.3-0.3,0.5-0.5,0.7-0.8c0.1-0.1,0.1-0.3,0.1-0.5c0-0.1,0-0.3,0-0.5c-0.1-0.1-0.2-0.2-0.4-0.4
		c-0.1-0.2-0.3-0.4-0.4-0.4c-0.3-0.1-0.4-0.4-0.4-0.6c0-0.4-0.2-0.7-0.4-0.9c-0.5-0.5-0.8-1.1-1-1.7c-0.1-0.3-0.2-0.7-0.4-1
		c0-0.1-0.2-0.2-0.3-0.2c-0.3-0.4-0.7-0.8-0.7-1.4c0-0.1-0.1-0.1-0.2-0.2c-0.1-0.1-0.1-0.1-0.1-0.2c0-0.5-0.3-0.9-0.7-1.2
		c-0.1-0.1-0.2-0.2-0.2-0.3c-0.3-0.7-0.7-1.5-0.9-2.2c-0.2-0.8-0.6-1.5-0.6-2.3c0-0.5,0.1-0.6,0.6-0.7c0.4,0,0.7,0,1.1,0
		c0.1,0,0.1,0,0.1,0.1c0.2,0.3,0.5,0.7,0.5,1s0.1,0.5,0.3,0.7c-0.1,0.1-0.1,0.2-0.2,0.4c0,0,0,0,0.1,0c0.1,0.1,0.2,0.1,0.3,0.2
		c0.2,0.6,0.4,1.2,0.8,1.8c0.2,0.4,0.3,0.8,0.5,1.2c0.4,0.9,0.8,1.8,1.3,2.6c0.2,0.3,0.3,0.6,0.4,0.9c0.1,0.2,0.3,0.4,0.4,0.7
		c0.3,0.4,0.5,1,0.8,1.3c0.4,0.4,0.4,0.9,0.8,1.2c0,0.3,0.2,0.5,0.4,0.7c0.2,0.3,0,0.5-0.1,0.7c0.3,0.2,0.7,0.4,0.9,0.6
		c0.1,0.1,0.2,0.3,0.2,0.4c-0.2,0.5-0.4,1.1-0.8,1.4c-0.1,0.1-0.2,0.1-0.2,0.2c-0.2,0.2-0.4,0.5-0.7,0.7c-0.2,0.2-0.6,0.4-0.7,0.8
		c0,0.1-0.2,0.3-0.3,0.4c-0.6,0.6-1.2,1.2-1.7,1.8c-0.4,0.5-0.8,1.1-1.3,1.6c-0.6,0.6-1.1,1.4-1.6,2.1c-0.4,0.5-0.7,1.1-1.1,1.7
		c-0.1,0.1-0.1,0.3-0.2,0.3C243.8,76,244,76.2,243.9,76.4"/>
	<path class="st0" d="M490.9,76.4c-0.2,0-0.4,0.1-0.6,0.1c0.1,0.1,0.1,0.1,0.2,0.2c0.1,0,0.4,0.1,0.3,0.3c0,0.1-0.1,0.3-0.2,0.4
		c-0.3,0.3-0.7,0.2-1,0.1s-0.6-0.2-0.9-0.4c0.1-0.3,0.2-0.5,0.3-0.8c-0.1,0-0.1-0.1-0.3-0.1c0-0.1,0-0.3,0.1-0.4
		c0.3-0.4,0.4-0.9,0.7-1.3s0.6-0.9,0.9-1.3c0.7-0.9,1.3-1.8,2-2.6c0.4-0.5,1-1.1,1.4-1.6c0.5-0.6,1.1-1.3,1.6-1.9
		c0.2-0.2,0.5-0.4,0.7-0.6c0.3-0.3,0.5-0.5,0.7-0.8c0.1-0.1,0.1-0.3,0.1-0.5c0-0.1,0-0.3,0-0.5c-0.1-0.1-0.2-0.2-0.4-0.4
		c-0.1-0.2-0.3-0.4-0.4-0.4c-0.3-0.1-0.4-0.4-0.4-0.6c0-0.4-0.2-0.7-0.4-0.9c-0.5-0.5-0.8-1.1-1-1.7c-0.1-0.3-0.2-0.7-0.4-1
		c0-0.1-0.2-0.2-0.3-0.2c-0.3-0.4-0.7-0.8-0.7-1.4c0-0.1-0.1-0.1-0.2-0.2c-0.1-0.1-0.1-0.1-0.1-0.2c0-0.5-0.3-0.9-0.7-1.2
		c-0.1-0.1-0.2-0.2-0.2-0.3c-0.3-0.7-0.7-1.5-0.9-2.2c-0.2-0.8-0.6-1.5-0.6-2.3c0-0.5,0.1-0.6,0.6-0.7c0.4,0,0.7,0,1.1,0
		c0.1,0,0.1,0,0.1,0.1c0.2,0.3,0.5,0.7,0.5,1s0.1,0.5,0.3,0.7c-0.1,0.1-0.1,0.2-0.2,0.4c0,0,0,0,0.1,0c0.1,0.1,0.2,0.1,0.3,0.2
		c0.2,0.6,0.4,1.2,0.8,1.8c0.2,0.4,0.3,0.8,0.5,1.2c0.4,0.9,0.8,1.8,1.3,2.6c0.2,0.3,0.3,0.6,0.4,0.9c0.1,0.2,0.3,0.4,0.4,0.7
		c0.3,0.4,0.5,1,0.8,1.3c0.4,0.4,0.4,0.9,0.8,1.2c0,0.3,0.2,0.5,0.4,0.7c0.2,0.3,0,0.5-0.1,0.7c0.3,0.2,0.7,0.4,0.9,0.6
		c0.1,0.1,0.2,0.3,0.2,0.4c-0.2,0.5-0.4,1.1-0.8,1.4c-0.1,0.1-0.2,0.1-0.2,0.2c-0.2,0.2-0.4,0.5-0.7,0.7c-0.2,0.2-0.6,0.4-0.7,0.8
		c0,0.1-0.2,0.3-0.3,0.4c-0.6,0.6-1.2,1.2-1.7,1.8c-0.4,0.5-0.8,1.1-1.3,1.6c-0.6,0.6-1.1,1.4-1.6,2.1c-0.4,0.5-0.7,1.1-1.1,1.7
		c-0.1,0.1-0.1,0.3-0.2,0.3C490.8,76,491,76.2,490.9,76.4"/>
	<g>
		<line class="st4" x1="0" y1="0" x2="740" y2="0"/>
	</g>
</g>
<g id="Reperes">
</g>
</svg>
