<?xml version="1.0" encoding="utf-8"?>
<!-- Generator: Adobe Illustrator 27.4.0, SVG Export Plug-In . SVG Version: 6.00 Build 0)  -->
<svg xmlns="http://www.w3.org/2000/svg" xmlns:xlink="http://www.w3.org/1999/xlink" version="1.1" x="0px" y="0px" viewBox="0 0 740 130" style="enable-background:new 0 0 740 130;" xml:space="preserve">
<style type="text/css">
	.st0{fill:#297EB6;}
	.st1{fill:#1D1D1B;}
	.st2{fill:#0099FF;}
	.st3{fill-rule:evenodd;clip-rule:evenodd;fill:#FFFFFF;}
</style>
<g id="Vignettes">
	<g id="_x33_">
		<path class="st0" d="M599.9,41.7c-0.3,0.1-0.6,0.1-0.9,0.1c-0.7,0.1-1.1,0.5-1.2,1.2c-0.1,0.8,0.1,1.4,0.7,1.9    c0.7,0.5,1.5,1.1,2.2,1.7c2.5,2.2,4.8,4.5,6.9,7.1c0.5,0.6,1,1.1,1.5,1.6c1-0.2,1.7-0.8,2.3-1.6c1.4-1.9,2.8-3.8,4.2-5.7    c0.2-0.2,0.4-0.4,0.9-0.9c0.3,5.1,0.8,9.8,0.9,14.5c0.6,0.6,1.1,0.3,1.6-0.1c0.5-0.4,0.9-0.9,0.8-1.7c-0.1-2-0.2-4.1-0.3-6.1    c-0.1-2.4-0.3-4.7-0.3-7.2c2.9,3.7,5.3,7.9,7.8,12.1c1-0.1,1.9-0.2,2.8-0.3c0.6-0.1,1-0.5,1.2-1.1c0.3-1-0.1-1.7-0.9-1.6    c-1.4,0.1-1.9-0.7-2.4-2c-0.2-0.7-0.7-1.2-1.1-1.8c-1.6-2.3-3.1-4.7-4.7-7c-0.7-1.1-1.4-2.3-2.1-3.5c-0.6-1.1-1.5-1-2.3-1    c-0.7,0.1-1.4,1.2-1.2,2.3c0.2,1.3-0.4,2.1-0.9,2.9c-1.2,1.7-2.5,3.4-3.7,5.1c-0.9,1.3-1.3,1.3-2.4,0.2c-2.4-2.3-4.7-4.6-7.1-7    C601.3,43.2,600.6,42.5,599.9,41.7"/>
		<path class="st1" d="M606.7,75.8c1-0.1,1.9-0.3,2.9-0.3c3.1,0.2,6.2,0.5,9.3,0.7c1.7,0.1,3.5-0.1,5.2-0.1c1.1,0,2.2,0,3.5,0    c0.2,2.3,0.3,4.3,0.5,6.3c0.1,0.7,0.1,1.3,0.3,2c0.3,0.8,1,1,1.5,0.3c0.6-0.9,0.8-1.9,0.5-3.1c-0.4-1.6-0.5-3.2-0.4-5    c1.3,0,2.3-0.6,3.5-0.4c0.8,0.1,1.7-1.5,1.4-2.5c0-0.2-0.1-0.4-0.2-0.4c-0.8-0.3-1.7-0.9-2.3-0.7c-1.3,0.4-2.5,0.2-3.8,0.2    c-2.3,0-4.6,0.2-7,0.1c-3.1-0.1-6.1-0.5-9.2-0.7c-2.5-0.1-4.9,0-7.4,0c-1.2,0-2.5-0.2-3.7-0.3c-1.1-0.1-1.8,0.4-2.1,1.6    c-0.2,1,0.1,1.5,1,1.7c0.9,0.2,1.9,0.3,2.8,0.4c0.7,0.1,1,0.3,1,1.1c-0.1,2-0.1,4.1-0.2,6.1c0,1,0,2.1,0.1,3.1    c0,0.4,0.4,0.8,0.7,1c0.2,0.1,0.7-0.2,0.9-0.4c0.8-0.9,1.1-1.8,1-3.2C606.4,80.9,606.6,78.5,606.7,75.8"/>
		<path class="st0" d="M618.7,28.8c-0.4,1.5-0.6,2.9-1.1,4.4c-0.4,1.1-1,1.2-1.7,0.5c-0.6-0.5-1.2-1.1-1.5-2c-0.7-2.2-1-4.4-0.8-6.7    c0.1-0.9,0.1-1.9,0.3-2.7c0.1-0.5,0.6-1.1,1.1-1.3c0.3-0.1,0.8,0.5,1.1,0.9c0.2,0.3,0.4,0.7,0.5,1.1    C617.2,24.7,618.6,28.7,618.7,28.8 M621,22.5c-0.1-1.4-0.3-2.8-1.4-3.6c-0.2-0.2-0.6-0.5-0.8-0.4c-0.9,0.5-1.7-0.2-2.5-0.4    c-1.5-0.3-2.5,0.8-3.4,2c-0.3,0.5-0.6,1.1-0.7,1.7c-1.1,4.4-1.2,8.6,0.6,12.8c1.1,2.4,3.2,3,5.1,1.3c1.3-1.1,1.9-2.7,2.3-4.4    C620.9,28.5,621.1,25.5,621,22.5"/>
		<path class="st1" d="M579,63.4c-0.5-2.8-0.7-5.6-0.5-8.4c0-0.6,0.2-1.3,0.3-1.9c0-0.2,0.1-0.6,0.2-0.6c0.7-0.3,1.1-1,1.6-1.7    c0.1-0.2,0.4-0.1,0.6,0c0.2,0.2,0.5,0.4,0.6,0.7c0.7,2.2,1.5,4.4,1.7,7c0.1,1.5,0.1,3.1,0.1,4.6c0,0.5-0.1,1-0.2,1.4    c-0.3,1.3-1,2.1-1.8,1.5c-0.6-0.4-1.1-0.3-1.5,0.1C579.4,65.3,579.1,64.4,579,63.4 M585.6,56.3c-0.3-3.6-1.4-6.3-3.4-8    c-1.9-1.6-4-1.3-5,2.5c-0.5,2.1-0.9,4.3-0.8,6.6c0.1,2.3,0.1,4.7,0.7,6.9c0.4,1.4,0.8,2.9,1.7,3.7c1.6,1.6,3.4,1.9,5.1,0.5    c0.8-0.6,1.4-1.5,1.5-2.8c0.2-1.2,0.2-2.4,0.3-3.6c0.1-0.9,0.2-1.7,0.3-3.1C585.6,58.4,585.7,57.3,585.6,56.3"/>
		<path class="st1" d="M652.2,52.3c0.5,0.1,0.7,0.5,0.9,0.9c1,2.4,1.4,5,0.9,7.6c-0.1,0.5-0.1,1.1-0.2,1.6c-0.3,2.1-1.2,3.6-2.9,4.6    c-1.4,0.8-2.4,0.4-3-1.2c-0.5-1.3-0.6-2.8-0.6-4.2c0-3.4,0.8-6.7,2.2-9.7c0.2-0.5,0.4-1,1.1-1.2C651,51.6,651.5,52.1,652.2,52.3     M646.4,66.7c0.7,2,2.6,3.2,4.4,2.6c2.5-0.7,4.3-2.4,4.8-5.5c0.1-0.6,0.2-1.3,0.3-1.9c0.5-3.2,0.3-6.4-1-9.4    c-0.2-0.5-0.5-1-0.9-1.4c-0.7-0.8-1.4-1.5-2.2-2.3c-0.2-0.2-0.5-0.3-0.7-0.3c-1-0.1-2,0.1-2.6,1.1c-0.4,0.6-0.9,1.3-1.2,2.1    c-0.9,2.8-1.6,5.6-1.8,8.7C645.3,62.5,645.6,64.6,646.4,66.7"/>
		<path class="st1" d="M653,81c0,0.6-0.1,1.1-0.1,1.6c0.1,2.5,0.3,5,0.5,7.5c0,0.8,0.2,1.5,0.6,2.2c0.4,0.6,0.5,1.1,0.2,1.8    c-0.1,0.2,0,0.5,0,0.9c1.6-0.5,3-0.9,4.4-1.4c1.4-0.5,2.8-0.9,4.2-1.6C660.2,88.8,654.1,81.9,653,81 M665.6,94.3    c-0.3,0.1-0.6,0.2-0.9,0.3c-3.4,0.8-6.7,1.8-10,2.9c-0.4,0.1-0.7,0.4-1.1,0.5c-0.2,1.8-0.1,3.5,0.1,5.1c0.1,0.7,0.1,1.4,0,2.2    h-3.5c0-0.2,0-0.4,0-0.6c0-1.5,0.4-2.9,0.5-4.4c0.1-0.5,0.3-1,0-1.6c-0.8,0-1.7,0.3-2.5,0.6c-1.1,0.4-2.2,0.4-3.3,1    c-0.6,0.3-1.3-0.2-1.8-0.7c-0.5-0.5-0.7-1.2-0.3-2.1c0.6-0.3,1.4-0.8,2.2-0.2c0.2,0.1,0.4,0.1,0.6,0.1c1.7-0.4,3.5-0.5,5.2-1.4    c0-0.3,0-0.7,0-1c0-0.3-0.1-0.6,0-0.9c0.6-1.6,0.6-3.3,0.5-5c-0.2-2.5-0.2-5.1-0.3-7.7c0-0.5,0-1-0.3-1.5    c-0.1,0.1-0.3,0.1-0.3,0.2c-1.1,1.6-2.1,3.2-3.1,4.9c-0.2,0.4-0.5,0.8-0.8,1.1c-1,1.1-1.9,2.3-2.7,3.7c-0.5,0.8-1,0.9-1.7,0.5    c-0.7-0.5-1.2-0.8-1-2.1c0.2-1.6,0.2-3.2,0.2-4.8c-0.1-3-0.2-6,0.2-8.9c0.1-0.9,0-1.7-0.4-2.6c-0.4-0.7-0.6-1.5-0.8-2.3    c-0.1-0.3-0.1-0.6-0.2-0.9c0-0.6,0.3-1.1,0.7-1.2c0.5-0.1,1,0.1,1.2,0.6c0.1,0.3,0.2,0.7,0.3,1c0.2,0.6,0.5,1.2,0.9,1.6    c0.4,0.3,0.7,0.8,0.9,1.2c0.4,0.8,0.4,1-0.2,1.9c-0.1,0.2-0.3,0.5-0.3,0.8c-0.2,1.6-0.5,3.3-0.4,4.9c0.1,1.4,0.1,2.9,0.1,4.3    c0,0.6,0.1,1.3,0.2,2.1c0.4-0.3,0.7-0.4,0.9-0.6c1-1.3,2.2-2.6,2.9-4.2c0.1-0.3,0.3-0.6,0.5-0.9c0.8-1.3,1.4-2.6,1.7-4.1    c0.2-0.9,0.9-1.4,1.7-1.4c0.8,0,1.6,0.6,1.6,1.6c0.1,1,0.6,1.7,1.1,2.5c1.3,1.9,2.7,3.5,4.2,5.2c0.7,0.8,1.4,1.6,2.1,2.4    c1.6,2.1,3.3,3.9,5.2,5.5c0.2,0.2,0.5,0.4,0.7,0.7C666.6,92.9,666.4,93.9,665.6,94.3"/>
		<path class="st1" d="M582.6,81.8c0,0,0.1,0,0.1-0.1c0-0.1,0-0.1-0.1-0.2c0,0-0.1,0-0.1,0C582.6,81.6,582.6,81.7,582.6,81.8     M567.5,91c0.1-0.3,0.3-0.5,0.4-0.7c0.5-0.8,1.1-1.5,1.6-2.2c1.1-1.5,2.2-2.8,3.5-3.9c1.9-1.5,3.6-3.4,5.4-5.1    c0.5-0.5,0.9-1.1,1.3-1.7c0.4-0.7,0.9-1,1.5-1.2c0.8-0.2,1.4,0.1,1.9,1.2c0.3,0.8,0.7,1.6,1,2.5c1.2,3.5,3,6.1,4.9,8.6    c0,0,0.1,0,0.2,0c0.3-0.6,0.3-1.3,0.3-2c0-3.5-0.3-7-1.2-10.3c-0.1-0.4-0.2-0.8-0.3-1.1c-0.7-1.7-0.3-3.3,0-4.9    c0.1-0.5,0.3-0.8,0.7-0.8c0.3,0,0.6,0.3,0.7,0.8c0.1,0.5,0.2,0.9,0.3,1.4c0.5,3.5,1.1,6.9,1.6,10.4c0.2,1.9,0.2,3.9,0.3,5.8    c0,1.1,0.1,2.3,0.1,3.4c0,0.8-0.3,1.4-0.8,1.5c-0.6,0.2-1.2,0-1.7-0.7c-1.9-2.5-3.8-5-5.3-8.2c-0.2-0.4-0.4-0.7-0.7-1.1    c-0.6,0.6-0.5,1.3-0.5,1.9c0.1,1.4,0.3,2.7,0,4.1c0,0.1,0,0.3,0,0.5c0.3,4.3,0.5,8.6,0.8,12.9c0.1,1.1,0.2,2.1,0.3,3.2h-2    c-0.1-0.8-0.2-1.6-0.3-2.5c0-0.1-0.1-0.2-0.3-0.5c0,1-0.1,2-0.2,3h-1.8c0.1-2.5,0.3-5,0.4-7.5c0.1-1.5,0.1-3.1,0.1-4.6    c0.1-2.9,0.2-5.9,0.2-8.8c0-0.3,0-0.6,0-1.1c-0.5-0.3-0.9-0.6-1.4-0.8c-1.6,1.1-7.2,6.1-7.9,7.2c-0.1,0.2-0.2,0.5-0.3,0.8    c0.4,0.5,0.9,0.4,1.2,0.3c1.8-0.1,3.4,1,5.1,1.7c0.2,0.1,0.5,0.4,0.7,0.6c0.7,0.7,0.8,1.9,0.1,2.8c-0.2,0.3-0.5,0.7-0.8,0.8    c-0.9,0.5-1.7,0.9-2.2,2.3c-0.2,0.7-1,0.4-1.2-0.5c-0.2-0.9-0.3-1.7,0-2.6c0.2-0.6,0.4-1.1,0.6-1.6c-0.1-0.6-0.4-0.5-0.6-0.6    c-1.5-0.6-2.9-0.9-4.4-0.7c-0.5,0-0.9,0.1-1.3-0.4C567.3,92.1,567.3,91.5,567.5,91"/>
		<path class="st1" d="M664.7,45.9c1.4-2.1,2.2-4.5,3.1-6.9c0.4-1,0.7-2,1-3.1c0.2-0.6,0.3-1.2,0.4-1.8c0.1-0.7-0.3-1.3-0.9-1.5    c-1.7-0.4-2.7-1.8-3.3-3.5c-0.8-2.3-1-4.6-0.4-7c0.3-1.4,0.8-2.8,1.4-4.1c0.9-1.8,1.9-3.5,3.2-4.9c1.7-1.8,3.6-3,5.8-3.7    c1.3-0.4,2.7-0.7,4-0.6c2.3,0.3,4.3,1.5,5.8,3.5c0.4,0.5,0.7,1.2,0.9,1.8c0.4,1.1,0.8,2.3,1,3.5c0,0.4,0.1,0.8,0.2,1.2    c0.4,2.1,0.5,4.2,0,6.4c-0.3,1.1-0.7,2-1.3,2.9c-1.2,2.1-2.7,4.1-4.4,5.6c-1.2,1-2.5,1.7-4,1.6c-1,0-2,0.4-3,0.7    c-0.6,0.2-1.1,0.5-1.8,0.4c-0.4,0-0.7,0.2-0.8,0.7c-0.3,1.3-1.1,2.4-1.8,3.5c-0.6,1-1.3,1.8-2,2.7c-0.1,0.2-0.3,0.3-0.4,0.4    c-1.1,0.5-2,1.4-2.8,2.4c0,0-0.1,0-0.3,0C664.6,46.2,664.6,46.1,664.7,45.9 M674.9,38.1c0.9-0.4,1.9-0.6,2.9-0.6    c1.8,0,3.4-0.9,4.8-2.1c2.1-1.9,3.8-4.3,5.2-6.9c1-1.9,1.4-3.9,1.2-6c-0.2-2.8-0.6-5.5-1.6-8.1c-0.3-0.9-0.7-1.8-1.3-2.6    c-1.1-1.6-2.5-2.6-4.1-3.5c-0.8-0.4-1.5-0.7-2.4-0.7c-0.5,0-1.1-0.1-1.6-0.1c-0.7,0-1.4,0-2,0.2c-1.3,0.4-2.7,0.7-3.9,1.4    c-2,1-3.8,2.5-5.4,4.3c-0.5,0.6-0.9,1.4-1.4,2.1c-0.5,0.8-0.9,1.7-1.4,2.6c-0.8,1.5-1.1,3.3-1.5,5c-0.2,1.1-0.2,2.3-0.1,3.4    c0.1,0.9,0.3,1.7,0.5,2.5c0.3,1.2,0.7,2.4,1.5,3.2c0.8,0.8,1.6,1.5,2.5,2.3c0.2,0.2,0.3,0.3,0.5,0.4c-0.3,0.6-0.5,1.2-0.7,1.7    c-0.3,0.8-0.5,1.5-0.8,2.3c-0.7,1.6-1.4,3.2-2.2,4.7c-0.8,1.6-1.9,2.8-3,4.1c-0.4,0.5-0.8,0.9-1,1.5c0.1,0.7,0.2,1.3,0.3,2    c0.2,1,0.9,1.2,1.5,0.5c0.2-0.2,0.4-0.5,0.6-0.6c1.6-1.2,3.1-2.6,4.6-4.1c1.5-1.5,2.9-3.1,4-5c0.7-1.1,1.6-2,2-3.5    C673.6,38.7,674.3,38.4,674.9,38.1"/>
		<path class="st1" d="M664.7,45.9c1.4-2.1,2.2-4.5,3.1-6.9c0.4-1,0.7-2,1-3.1c0.2-0.6,0.3-1.2,0.4-1.8c0.1-0.7-0.3-1.3-0.9-1.5    c-1.7-0.4-2.7-1.8-3.3-3.5c-0.8-2.3-1-4.6-0.4-7c0.3-1.4,0.8-2.8,1.4-4.1c0.9-1.8,1.9-3.5,3.2-4.9c1.7-1.8,3.6-3,5.8-3.7    c1.3-0.4,2.7-0.7,4-0.6c2.3,0.3,4.3,1.5,5.8,3.5c0.4,0.5,0.7,1.2,0.9,1.8c0.4,1.1,0.8,2.3,1,3.5c0,0.4,0.1,0.8,0.2,1.2    c0.4,2.1,0.5,4.2,0,6.4c-0.3,1.1-0.7,2-1.3,2.9c-1.2,2.1-2.7,4.1-4.4,5.6c-1.2,1-2.5,1.7-4,1.6c-1,0-2,0.4-3,0.7    c-0.6,0.2-1.1,0.5-1.8,0.4c-0.4,0-0.7,0.2-0.8,0.7c-0.3,1.3-1.1,2.4-1.8,3.5c-0.6,1-1.3,1.8-2,2.7c-0.1,0.2-0.3,0.3-0.4,0.4    c-1.1,0.5-2,1.4-2.8,2.4c0,0-0.1,0-0.3,0C664.6,46.2,664.6,46.1,664.7,45.9z M674.9,38.1c0.9-0.4,1.9-0.6,2.9-0.6    c1.8,0,3.4-0.9,4.8-2.1c2.1-1.9,3.8-4.3,5.2-6.9c1-1.9,1.4-3.9,1.2-6c-0.2-2.8-0.6-5.5-1.6-8.1c-0.3-0.9-0.7-1.8-1.3-2.6    c-1.1-1.6-2.5-2.6-4.1-3.5c-0.8-0.4-1.5-0.7-2.4-0.7c-0.5,0-1.1-0.1-1.6-0.1c-0.7,0-1.4,0-2,0.2c-1.3,0.4-2.7,0.7-3.9,1.4    c-2,1-3.8,2.5-5.4,4.3c-0.5,0.6-0.9,1.4-1.4,2.1c-0.5,0.8-0.9,1.7-1.4,2.6c-0.8,1.5-1.1,3.3-1.5,5c-0.2,1.1-0.2,2.3-0.1,3.4    c0.1,0.9,0.3,1.7,0.5,2.5c0.3,1.2,0.7,2.4,1.5,3.2c0.8,0.8,1.6,1.5,2.5,2.3c0.2,0.2,0.3,0.3,0.5,0.4c-0.3,0.6-0.5,1.2-0.7,1.7    c-0.3,0.8-0.5,1.5-0.8,2.3c-0.7,1.6-1.4,3.2-2.2,4.7c-0.8,1.6-1.9,2.8-3,4.1c-0.4,0.5-0.8,0.9-1,1.5c0.1,0.7,0.2,1.3,0.3,2    c0.2,1,0.9,1.2,1.5,0.5c0.2-0.2,0.4-0.5,0.6-0.6c1.6-1.2,3.1-2.6,4.6-4.1c1.5-1.5,2.9-3.1,4-5c0.7-1.1,1.6-2,2-3.5    C673.6,38.7,674.3,38.4,674.9,38.1z"/>
		<path class="st1" d="M571,37.9c0,0.1,0,0.2-0.1,0.3c-0.6-0.5-1-1.1-1.4-1.7c-0.4-0.5-0.7-1.1-1.2-1.6c-0.4-0.5-0.9-0.8-1.3-1.2    c-0.2-0.1-0.5-0.1-0.8-0.1c-0.2,0-0.4,0.2-0.6,0.3c-1.3,0.9-2.7,1.6-4.3,2c-0.9,0.2-1.7,0.4-2.6,0.4c-1.5,0-2.9-0.6-4.2-1.5    c-1.1-0.8-1.8-1.8-2-3.3c-0.3-2.6,0.2-4.9,1.5-6.9c0.6-0.9,1.1-1.8,1.7-2.7c0.6-0.8,1.2-1.6,1.7-2.4c2-2.8,4.6-4.7,7.2-6.5    c1.3-0.9,2.7-1.3,4.2-1.3c1.4,0,2.7,0.5,3.6,1.6c1.2,1.3,2,3,2,5c0.1,2.7-0.4,5.2-1.3,7.7c-0.5,1.3-1.1,2.5-1.9,3.6    c-0.7,0.9-1.5,1.7-2.5,2.2c-0.2,0.1-0.4,0.2-0.6,0.4c-0.4,0.3-0.4,0.8-0.1,1.1c0.4,0.3,0.8,0.5,1.5,0.9    C570.1,35.4,570.6,36.7,571,37.9 M574.6,27.9c1.1-2.6,1.7-5.4,1.8-8.4c0-1.1,0-2.1-0.4-3.1c-0.5-1.1-1-2.2-1.6-3.3    c-0.1-0.3-0.3-0.5-0.5-0.7c-1.2-1.1-2.5-2-4.1-2.1c-1.8-0.2-3.6,0-5.3,1c-0.6,0.4-1.2,0.8-1.9,1.2c-1.8,1-3.3,2.3-4.7,3.9    c-0.5,0.5-1,1-1.5,1.6c-0.3,0.4-0.7,0.8-1,1.3c-0.5,0.7-0.9,1.4-1.5,2c-0.8,1-1.2,2.2-1.9,3.2c-0.7,1-1.1,2.2-1.2,3.5    c-0.1,0.9-0.2,1.7-0.1,2.6c0.1,2.1,0.6,3.9,2,5.2c0.6,0.6,1.3,1.1,2.1,1.5c2.3,1.3,4.6,1.7,7,0.9c0.6-0.2,1.2-0.3,1.9-0.5    c0.2-0.1,0.4-0.2,0.6-0.3c0.7-0.3,1.3-0.7,2-1c0.5-0.2,0.9-0.1,1.2,0.4c0.2,0.3,0.4,0.7,0.7,1c1.1,1.2,2,2.6,3,3.9    c0.3,0.4,0.6,0.7,0.9,0.9c0.4,0.3,0.9,0.1,1.3-0.2c0.4-0.3,0.6-0.7,0.5-1.2c-0.1-0.5-0.3-0.9-0.4-1.4c-0.3-1.8-1-3.4-1.6-5    c-0.3-0.7-0.5-1.5-0.4-2.3C572.8,31.1,573.9,29.6,574.6,27.9"/>
		<path class="st1" d="M674.3,72.8c0,0,0-0.1,0.1-0.1c0,0-0.1-0.1-0.1,0c0,0,0,0.1-0.1,0.1C674.2,72.8,674.3,72.8,674.3,72.8     M673,74.5c-1.5,2.6-3.3,4.6-5.1,6.7c-0.5,0.6-1,0.7-1.7,0.6c-0.5-0.1-0.8-0.6-0.8-1.3c0-0.9,0-1.9,0.1-2.8    c0.1-1.6,0.1-3.2,0.3-4.8c0.4-2.9,1-5.7,1.5-8.5c0.1-0.4,0.2-0.8,0.3-1.1c0.1-0.4,0.3-0.6,0.7-0.6c0.3,0,0.6,0.3,0.7,0.7    c0.3,1.3,0.6,2.7,0,4c-0.1,0.3-0.2,0.6-0.3,0.9c-0.8,2.7-1.1,5.5-1.1,8.4c0,0.6-0.1,1.2,0.2,1.7c0.1,0,0.2,0,0.2,0    c1.8-2,3.6-4.2,4.7-7c0.3-0.7,0.6-1.3,1-2c0.4-0.9,1.1-1.1,1.8-1c0.6,0.1,1,0.4,1.4,1c0.4,0.5,0.8,1,1.2,1.4    c1.7,1.4,3.4,3,5.2,4.2c1.3,0.9,2.4,1.9,3.4,3.2c0.5,0.6,1.1,1.2,1.6,1.8c0.1,0.2,0.3,0.4,0.4,0.6c0.2,0.4,0.1,0.9-0.2,1.2    c-0.4,0.4-0.8,0.3-1.3,0.3c-1.5-0.1-2.9,0.1-4.3,0.6c-0.2,0.1-0.5,0-0.6,0.5c0.2,0.4,0.4,0.8,0.6,1.3c0.3,0.7,0.2,1.4,0,2.1    c-0.2,0.7-1,1-1.2,0.4c-0.5-1.2-1.3-1.5-2.1-1.9c-0.3-0.1-0.5-0.4-0.7-0.7c-0.7-0.8-0.6-1.7,0.1-2.3c0.2-0.2,0.4-0.4,0.7-0.5    c1.6-0.6,3.2-1.4,4.9-1.4c0.4,0,0.8,0.1,1.2-0.3c-0.1-0.3-0.2-0.5-0.3-0.7c-0.7-0.8-6.1-5-7.6-5.8c-0.4,0.2-0.9,0.5-1.3,0.7    c0,0.3,0,0.6,0,0.9c0.1,2.4,0.2,4.8,0.2,7.2c0,1.3,0.1,2.5,0.1,3.8c0.2,2.8,0.4,5.7,0.5,8.5c0.1,1.3,0.1,2.7,0.2,4    c0.3,3,0.6,6,0.8,9.1c0.2,2,0.3,4,0.7,5.9c0.1,0.6,0.3,1.3,0.4,1.9c0.1,0.9-0.2,1.4-0.8,1.7c-0.1,0-0.2,0.1-0.3,0.1    c-0.7,0.2-1-0.2-1.1-1.1c-0.1-1.1-0.2-2.1-0.3-3.1c-0.1-1.1-0.2-2.2-0.3-3.4c-0.2-2.2-0.2-4.5-0.5-6.7c-0.3-2.8-0.5-5.5-0.6-8.3    c0-1.5-0.2-3.1-0.3-4.8c-0.2,0.2-0.3,0.3-0.3,0.4c-0.4,3.1-1,6.1-1.3,9.2c-0.3,3-0.6,5.9-1.2,8.8c-0.2,1.2-0.5,2.3-0.6,3.5    c-0.2,1.3-1.2,2.5-2.2,2.4c-0.3,0-0.6-0.2-0.8-0.5c-0.4-0.6-0.3-1.6,0.1-2.2s0.6-1.1,0.7-1.9c0-0.3,0.1-0.7,0.3-0.9    c0.8-0.9,1-2.1,1.2-3.4c0.3-1.9,0.6-3.8,0.7-5.7c0.1-1.3,0.2-2.5,0.4-3.7c0.3-2.1,0.6-4.2,0.8-6.3c0.3-3.5,0.5-7,0.8-10.5    c0-0.1,0-0.3,0-0.4c-0.3-1.1-0.1-2.2,0-3.3c0-0.5,0.1-1.1-0.4-1.6C673.4,73.9,673.2,74.1,673,74.5"/>
		<path class="st1" d="M677.8,57.8c0.5-2.3,0.7-4.5,0.5-6.9c0-0.5-0.2-1-0.3-1.5c0-0.2-0.1-0.5-0.2-0.5c-0.7-0.2-1.1-0.8-1.5-1.4    c-0.1-0.1-0.4-0.1-0.6,0c-0.2,0.1-0.5,0.3-0.6,0.6c-0.7,1.8-1.5,3.6-1.6,5.7c-0.1,1.2-0.1,2.5-0.1,3.8c0,0.4,0.1,0.8,0.2,1.2    c0.3,1.1,1,1.7,1.7,1.2c0.5-0.4,1-0.3,1.5,0.1C677.3,59.4,677.6,58.7,677.8,57.8 M671.4,52.1c0.3-2.9,1.3-5.1,3.3-6.5    c1.8-1.3,3.9-1,4.8,2c0.5,1.7,0.9,3.5,0.8,5.4c-0.1,1.9-0.1,3.8-0.7,5.6c-0.4,1.2-0.8,2.3-1.6,3c-1.6,1.3-3.2,1.5-5,0.4    c-0.8-0.5-1.3-1.2-1.5-2.3c-0.2-1-0.2-2-0.3-2.9c-0.1-0.7-0.2-1.4-0.3-2.5C671.4,53.8,671.3,52.9,671.4,52.1"/>
		<path class="st1" d="M561.6,72.8c0,0,0-0.1-0.1-0.1c0,0,0.1-0.1,0.1,0c0,0,0,0.1,0.1,0.1C561.7,72.7,561.7,72.8,561.6,72.8     M562.9,74.4c1.5,2.6,3.3,4.6,5.1,6.7c0.5,0.6,1,0.7,1.7,0.6c0.5-0.1,0.8-0.6,0.8-1.3c0-0.9,0-1.9-0.1-2.8    c-0.1-1.6-0.1-3.2-0.3-4.8c-0.4-2.9-1-5.7-1.5-8.5c-0.1-0.4-0.2-0.8-0.3-1.1c-0.1-0.4-0.3-0.6-0.7-0.6c-0.3,0-0.6,0.3-0.7,0.7    c-0.3,1.3-0.6,2.7,0,4c0.1,0.3,0.2,0.6,0.3,0.9c0.8,2.7,1.1,5.5,1.1,8.4c0,0.6,0.1,1.2-0.2,1.7c-0.1,0-0.2,0-0.2,0    c-1.8-2-3.6-4.2-4.7-7c-0.3-0.7-0.6-1.3-1-2c-0.4-0.9-1.1-1.1-1.8-1c-0.6,0.1-1,0.4-1.4,1c-0.4,0.5-0.8,1-1.2,1.4    c-1.7,1.4-3.4,3-5.2,4.2c-1.3,0.9-2.4,1.9-3.4,3.2c-0.5,0.6-1.1,1.2-1.6,1.8c-0.1,0.2-0.3,0.4-0.4,0.6c-0.2,0.4-0.1,0.9,0.2,1.2    c0.4,0.4,0.8,0.3,1.3,0.3c1.5-0.1,2.9,0.1,4.3,0.6c0.2,0.1,0.5,0,0.6,0.5c-0.2,0.4-0.4,0.8-0.6,1.3c-0.3,0.7-0.2,1.4,0,2.1    c0.2,0.7,1,1,1.2,0.4c0.5-1.2,1.3-1.5,2.1-1.9c0.3-0.1,0.5-0.4,0.7-0.7c0.7-0.8,0.6-1.7-0.1-2.3c-0.2-0.2-0.4-0.4-0.7-0.5    c-1.6-0.6-3.2-1.4-4.9-1.4c-0.4,0-0.8,0.1-1.2-0.3c0.1-0.3,0.2-0.5,0.3-0.7c0.7-0.8,6.1-5,7.6-5.8c0.4,0.2,0.9,0.5,1.3,0.7    c0,0.3,0,0.6,0,0.9c-0.1,2.4-0.2,4.8-0.2,7.2c0,1.3-0.1,2.5-0.1,3.8c-0.2,2.8-0.4,5.7-0.5,8.5c-0.1,1.3-0.1,2.7-0.2,4    c-0.3,3-0.6,6-0.8,9.1c-0.2,2-0.3,4-0.7,5.9c-0.1,0.6-0.3,1.3-0.4,1.9c-0.1,0.9,0.2,1.4,0.8,1.7c0.1,0,0.2,0.1,0.3,0.1    c0.7,0.2,1-0.2,1.1-1.1c0.1-1.1,0.2-2.1,0.3-3.1c0.1-1.1,0.2-2.2,0.3-3.4c0.2-2.2,0.2-4.5,0.5-6.7c0.3-2.8,0.5-5.5,0.6-8.3    c0-1.5,0.2-3.1,0.3-4.8c0.2,0.2,0.3,0.3,0.3,0.4c0.4,3.1,1,6.1,1.3,9.2c0.3,3,0.6,5.9,1.2,8.8c0.2,1.2,0.5,2.3,0.6,3.5    c0.2,1.3,1.2,2.5,2.2,2.4c0.3,0,0.6-0.2,0.8-0.5c0.4-0.6,0.3-1.6-0.1-2.2c-0.4-0.5-0.6-1.1-0.7-1.9c0-0.3-0.1-0.7-0.3-0.9    c-0.8-0.9-1-2.1-1.2-3.4c-0.3-1.9-0.6-3.8-0.7-5.7c-0.1-1.3-0.2-2.5-0.4-3.7c-0.3-2.1-0.6-4.2-0.8-6.3c-0.3-3.5-0.5-7-0.8-10.5    c0-0.1,0-0.3,0-0.4c0.3-1.1,0.1-2.2,0-3.3c0-0.5-0.1-1.1,0.4-1.6C562.5,73.8,562.7,74.1,562.9,74.4"/>
		<path class="st1" d="M558.1,57.8c-0.5-2.3-0.7-4.5-0.5-6.9c0-0.5,0.2-1,0.3-1.5c0-0.2,0.1-0.5,0.2-0.5c0.7-0.2,1.1-0.8,1.5-1.4    c0.1-0.1,0.4-0.1,0.6,0c0.2,0.1,0.5,0.3,0.6,0.6c0.7,1.8,1.5,3.6,1.6,5.7c0.1,1.2,0.1,2.5,0.1,3.8c0,0.4-0.1,0.8-0.2,1.2    c-0.3,1.1-1,1.7-1.7,1.2c-0.5-0.4-1-0.3-1.5,0.1C558.6,59.4,558.3,58.6,558.1,57.8 M564.5,52c-0.3-2.9-1.3-5.1-3.3-6.5    c-1.8-1.3-3.9-1-4.8,2c-0.5,1.7-0.9,3.5-0.8,5.4c0.1,1.9,0.1,3.8,0.7,5.6c0.4,1.2,0.8,2.3,1.6,3c1.6,1.3,3.2,1.5,5,0.4    c0.8-0.5,1.3-1.2,1.5-2.3c0.2-1,0.2-2,0.3-2.9c0.1-0.7,0.2-1.4,0.3-2.5C564.5,53.8,564.6,52.9,564.5,52"/>
		<path class="st2" d="M632.2,29.3c0,0-0.1,0-0.3,0c0.1-0.7,0.5-1.2,0.8-1.8c0.2-0.5,0.6-1,0.8-1.6c0.2-0.5,0.3-1.1,0.4-1.6    c0-0.2-0.1-0.5-0.2-0.7c-0.1-0.2-0.3-0.3-0.5-0.5c-1.2-0.9-2.3-1.9-3.2-3.2c-0.5-0.7-1-1.4-1.3-2.2c-0.6-1.4-0.7-2.8-0.4-4.3    c0.2-1.2,0.8-2.2,1.9-2.9c1.9-1.2,3.9-1.5,6-1c0.9,0.2,1.8,0.4,2.7,0.6c0.9,0.2,1.7,0.5,2.6,0.8c3,0.9,5.4,2.6,7.9,4.3    c1.2,0.9,2,2.1,2.6,3.4c0.5,1.2,0.6,2.6,0.2,3.8c-0.6,1.5-1.6,2.8-3.1,3.5c-2.1,1-4.2,1.4-6.5,1.4c-1.2,0-2.4-0.1-3.5-0.5    c-1-0.4-1.9-0.8-2.7-1.5c-0.1-0.2-0.3-0.3-0.5-0.4c-0.4-0.2-0.8-0.1-0.9,0.3c-0.1,0.5-0.1,0.9-0.2,1.6    C633.9,27.6,633.1,28.5,632.2,29.3 M641.5,29.2c2.5,0.1,4.9-0.2,7.3-1.2c0.8-0.3,1.7-0.8,2.3-1.4c0.7-0.8,1.4-1.7,2-2.5    c0.2-0.2,0.3-0.5,0.3-0.7c0.4-1.4,0.6-2.9,0.1-4.4c-0.6-1.7-1.4-3.3-2.8-4.5c-0.5-0.5-1.1-0.8-1.7-1.3c-1.4-1.3-3.1-2.2-4.8-2.9    c-0.6-0.3-1.2-0.6-1.8-0.8c-0.4-0.2-0.9-0.3-1.4-0.5c-0.7-0.2-1.4-0.4-2.1-0.6c-1.1-0.4-2.2-0.4-3.3-0.7c-1.1-0.3-2.2-0.2-3.2,0.1    c-0.7,0.2-1.4,0.4-2.1,0.7c-1.6,0.7-2.8,1.9-3.3,3.6c-0.2,0.8-0.4,1.6-0.4,2.4c-0.2,2.5,0.4,4.7,2,6.6c0.4,0.5,0.7,1,1.1,1.5    c0.1,0.2,0.3,0.3,0.5,0.5c0.5,0.5,1,1,1.5,1.5c0.4,0.4,0.4,0.8,0.2,1.2c-0.2,0.3-0.4,0.6-0.5,1c-0.5,1.4-1.2,2.7-1.9,4    c-0.2,0.4-0.3,0.8-0.4,1.2c-0.1,0.5,0.2,0.8,0.6,1.1c0.4,0.2,0.8,0.3,1.1,0c0.3-0.2,0.6-0.6,0.9-0.8c1.3-0.9,2.3-2,3.3-3.1    c0.5-0.5,1-0.9,1.7-1.1C638.3,28.7,639.9,29.2,641.5,29.2"/>
	</g>
	<g id="_x32_">
		<path d="M302.9,55.5c-0.2,0.3-0.2,0.5-0.3,1c1.4,0.1,2.8,0,4.1,0c1.4,0,2.8,0.1,4.2,0.2c0.4-0.9,0.3-1.7-0.1-2.5    c-0.2-0.6-0.3-1.1,0-1.6c0.4-0.6,0.4-1.2,0.4-1.9c0-1.6,0.1-3.1,0.1-4.7c0-0.5-0.2-1-0.3-1.5c-0.3,0.1-0.4,0.1-0.5,0.2    c-1.1,1.3-2.2,2.7-3.3,4c-0.2,0.2-0.2,0.3-0.3,0.5C305.8,51.4,304.4,53.5,302.9,55.5 M309.9,66.2c0.4-2.3,0.8-4.7,0.3-7    c-0.4-0.2-0.7-0.4-1.1-0.4c-2.8-0.1-5.7-0.3-8.4,0.6c-0.5,0.2-1,0.2-1.5,0.2c-0.9,0-1.5-0.8-1.4-1.6c0.1-0.2,0.2-0.5,0.4-0.6    c1.4-0.9,2.4-2.2,3.2-3.6c1.9-3.2,3.8-6.3,5.7-9.5c0.4-0.7,0.8-1.3,1.2-1.9c0.6-0.9,1.2-1.8,1.5-2.9c0.5-1.4,1.8-1.5,2.8-1    c0.7,0.4,1.3,0.9,2.1,1.2c0.1,0,0.2,0.1,0.3,0.2c0.7,1.2,2,1.5,3.2,1.8c2.3,0.6,4.5,1.6,6.6,2.7c0.6,0.3,1.1,0.7,1.9,0.9    c0.3-1.4,0.3-2.7,0-4s-0.6-2.6-0.8-3.9c-0.1-0.4-0.3-0.8-0.6-1.1c-0.9-1-0.8-1.4,0.2-2.3c0.4-0.3,0.7-0.5,1.1-0.8    c0.5-0.3,1-0.7,1.5-1.1c0.9-0.6,2.4-0.4,3.1,0.5c0.1,0.2,0.1,0.5,0.1,0.7c-0.1,0.6-0.4,1-1,1.3c-0.8,0.5-1.7,0.9-2.4,1.7    c0.1,0.7,0.2,1.4,0.4,2.2c0.5,2,1,4,1.5,6c0.2,0.6,0.3,1.3,0.5,1.9c0.3,0.6,0.6,1.1,0.9,1.6c0,0.8-0.2,1.4-1.1,1.7    s-1.8,0.1-2.5-0.5c-1.3-1.1-2.7-2.1-4.2-2.9c-1.6-0.9-3.4-1.7-5.2-2.2c-1.4-0.4-2.9-0.6-4.4-0.8c0,1.2-0.1,2.2-0.1,3.2    c-0.1,1.2-0.1,2.4-0.1,3.6c0,0.8,0,1.7,0.2,2.5c0.3,1.4,0.8,2.8,1.2,4.2c0.2,0.6,0.6,0.9,1.2,1c2.1,0.4,4.1,0.8,6.2,1.3    c0.6,0.1,1.2,0.3,1.8,0.5c0.7,0.3,1.1,0.8,1,1.6c-0.4,0.5-1,0.9-1.7,1.1s-1.4,0.2-1.9-0.5c-0.2-0.3-0.6-0.6-0.9-0.7    c-1.5-0.5-3-0.8-4.5-1c-0.1,0.3-0.2,0.4-0.2,0.6c0.3,2.2,0.7,4.4,0.9,6.6c0.2,1.8,0.3,3.5,0.7,5.2c0.2,0.9,0.5,1.9,0.7,2.8    c0.3,1.6,0.6,3.2,0.8,4.8c0.2,1.4,0.6,2.7,1.2,4c0.4,0.7,0.5,1.5,0.4,2.3c-0.1,0.7-0.1,1.5,0,2.3c0.1,0.6,0.3,1.1,0.5,1.7    c0.1,0.5,0.4,1,0.6,1.5c0.8,2,1.6,4.1,2.3,6.1c0.2,0.5,0.3,1.1,0.4,1.6c0,0.5-0.3,0.9-0.8,1.1c-0.4,0.2-0.9,0.1-1.2-0.2    c-0.2-0.3-0.5-0.6-0.6-0.9c-0.4-1-0.8-2-1.2-2.9c-0.5-1.1-1-2.2-1.5-3.3c-0.8-1.8-1.4-3.7-1.6-5.7c-0.5-4.4-1-8.8-2-13.2    c-0.5-2.4-0.9-4.9-1.2-7.3c-0.2-1.6-0.5-3.2-0.8-4.8c-0.5,0-0.6,0.3-0.6,0.6c-0.1,2-0.8,3.9-0.9,5.9c0,0.6-0.3,1.2-0.4,1.8    c-0.3,2.3-0.5,4.7-0.8,7c-0.2,1.3-0.3,2.5-0.5,3.8c-0.3,2.2-0.7,4.4-1,6.6c-0.1,1.2,0,2.4,0,3.6c0,0.7,0,1.3-0.1,2    c-0.1,0.9-0.2,1.7,0.3,2.5c0.1,0.2,0.1,0.5,0.1,0.7c-0.1,1.4-0.1,2.7-0.2,4c-0.1,1.2-1.2,1.7-2.2,1.1c-0.7-0.4-1.1-0.9-1-1.8    c0.2-1.6,0.3-3.1,0.4-4.7c0.1-1.3,0.3-2.5,0.3-3.8c0.1-2.2,0.3-4.4,0.7-6.6c0.4-2.7,0.6-5.4,0.9-8.1    C309,73.4,309.3,69.8,309.9,66.2"/>
		<path d="M309.8,14.7c-0.2-0.2-0.4-0.4-0.9-0.7c-0.1,0.3-0.3,0.5-0.3,0.7c0,0.8,0,1.5,0,2.2c0.2,2.6,0.9,5.1,1.5,7.6    c0.2,0.7,0.5,1.4,0.9,2c1.2,2,2.3,1.5,3.4,0.4c1-1,1.4-2.3,1.7-3.6c0.7-2.5,0.1-4.9-0.8-7.2c-0.4-1-1-1.9-1.8-2.7    c-0.6-0.6-1.1-0.6-1.7-0.2c-0.6,0.4-1.1,0.9-1.7,1.4C310.1,14.7,309.9,14.7,309.8,14.7 M314.2,8.3c0.1,0.1,0.3,0.2,0.5,0.3    c-0.1,0.1-0.2,0.4-0.3,0.4c-0.3,0.1-0.5,0.1-0.8,0.1c-1.3,0.1-2.3,0.7-3,1.9c0.7-0.1,1.3-0.2,1.9-0.3c1.6-0.2,2.9,0.3,3.8,1.6    c0.8,1.1,1.5,2.3,1.8,3.6c0.4,1.6,1,3.1,1.1,4.8c0.1,2.1-0.2,4.1-1.2,6c-0.2,0.3-0.4,0.6-0.6,0.9c-1.3,2-3.2,2.7-5.6,2.5    c-0.6,0-1-0.2-1.4-0.5c-0.8-0.6-1.3-1.4-1.7-2.2c-1-2.2-1.5-4.5-2-6.8c-0.1-0.9-0.2-1.8-0.4-2.7c-0.2-1.1,0-2.3,0-3.4    c0-0.2,0-0.3,0.1-0.4c0.9-1.5,1.4-3.3,2.8-4.5S312.3,8,314.2,8.3"/>
		<path d="M350.5,15.4c0.1-0.7,0.2-1.4,0.3-2c0-0.2,0.2-0.6,0.3-0.6c0.8-0.3,1.3-1,1.8-1.9c0.1-0.2,0.5-0.1,0.7,0    c0.3,0.2,0.6,0.4,0.7,0.8c0.8,2.4,1.8,4.8,1.9,7.6c0.1,1.7,0.1,3.3,0.2,5c0,0.5-0.1,1.1-0.2,1.5c-0.3,1.5-1.2,2.3-2.1,1.6    c-0.7-0.5-1.2-0.4-1.8,0.1c-0.7-0.9-1-1.8-1.3-3C350.5,21.6,350.2,18.5,350.5,15.4 M350.8,29.6c1.9,1.7,3.9,2,6,0.6    c0.9-0.6,1.6-1.6,1.8-3.1c0.2-1.3,0.3-2.6,0.4-3.9c0.1-0.9,0.2-1.9,0.3-3.4c-0.6-0.6-0.5-1.8-0.6-2.9c-0.3-3.8-1.6-6.8-3.9-8.6    c-2.2-1.7-4.7-1.4-5.8,2.7c-0.6,2.3-1.1,4.6-1,7.1s0.1,5.1,0.8,7.5C349.3,27.1,349.8,28.7,350.8,29.6"/>
		<path d="M345.4,57.9c-0.2,0.5-0.5,1.1-0.7,1.7c-0.3,0.9-0.3,1.9,0,2.8s1.2,1.3,1.5,0.5c0.6-1.6,1.6-2,2.6-2.5    c0.3-0.2,0.6-0.5,0.9-0.9c0.8-1,0.8-2.2-0.1-3c-0.3-0.2-0.5-0.5-0.8-0.6c-2-0.7-3.9-1.9-6-1.8c-0.5,0-0.9,0.2-1.5-0.4    c0.1-0.3,0.2-0.7,0.4-0.9c0.9-1.1,7.4-6.6,9.2-7.7c0.5,0.3,1.1,0.6,1.6,0.9c0,0.5,0,0.8,0,1.2c-0.1,3.2-0.2,6.3-0.3,9.5    c0,1.7-0.1,3.3-0.2,5c-0.2,3.8-0.4,7.5-0.6,11.3c-0.1,1.8-0.1,3.5-0.2,5.3c0,0.2,0,0.5-0.1,0.7c0.6-0.5,1.3-0.8,2.1-1    c0.1-1.7,0.2-3.4,0.2-5c0.1-2,0.2-4.1,0.3-6.3c0.2,0.3,0.3,0.4,0.3,0.5c0.5,3.6,1,7.2,1.4,10.9c0.4,0.1,0.8,0.2,1.2,0.4    c0.3-0.1,0.7-0.2,1-0.3c-0.1-1.2-0.2-2.3-0.4-3.5c-0.3-2.8-0.7-5.5-1-8.3c-0.4-4.6-0.6-9.3-0.9-13.9c0-0.2,0-0.4,0-0.5    c0.4-1.5,0.1-2.9,0-4.4c0-0.7-0.2-1.4,0.5-2.1c0.3,0.4,0.6,0.8,0.8,1.2c1.8,3.4,3.9,6.1,6.2,8.8c0.6,0.7,1.3,1,2,0.8    c0.6-0.1,0.9-0.8,0.9-1.7c0-1.2,0-2.5-0.1-3.7c-0.1-2.1-0.1-4.2-0.4-6.3c-0.5-3.8-1.2-7.5-1.9-11.3c-0.1-0.5-0.2-1-0.3-1.5    c-0.1-0.5-0.4-0.9-0.8-0.9s-0.7,0.4-0.8,0.9c-0.3,1.8-0.8,3.6,0,5.3c0.2,0.4,0.2,0.8,0.3,1.2c1,3.6,1.4,7.3,1.4,11.1    c0,0.8,0.1,1.6-0.3,2.2c-0.1,0-0.2,0-0.2,0c-2.2-2.7-4.4-5.5-5.7-9.3c-0.3-0.9-0.8-1.8-1.2-2.7c-0.5-1.1-1.3-1.5-2.2-1.3    c-0.7,0.2-1.3,0.6-1.7,1.3c-0.5,0.7-0.9,1.4-1.5,1.9c-2.1,1.9-4.1,3.9-6.3,5.6c-1.5,1.1-2.9,2.5-4.1,4.2c-0.6,0.8-1.3,1.6-1.9,2.4    c-0.2,0.2-0.3,0.5-0.5,0.8c-0.3,0.5-0.2,1.2,0.2,1.6c0.5,0.5,1,0.4,1.6,0.4c1.8-0.1,3.5,0.2,5.2,0.8    C344.9,57.3,345.2,57.3,345.4,57.9"/>
		<path d="M388.8,12.8c0.1-1.2,0.3-2.3,1.2-3c0.9,0.2,1.2,1.2,1.6,2c0.7,1.4,0.4,2.8,0,4.3c1.2,0.6,2-0.6,3-1c0.1,0.4,0.3,0.7,0.4,1    c0.7,3.3,0.9,6.7,0.3,10.1c-0.1,0.6-0.3,1.1-0.5,1.6c-0.3,0.6-0.9,0.8-1.4,0.6c-0.3-0.1-0.7-0.3-1-0.6c-1.7-1.6-2.7-3.7-3.2-6.2    C388.5,18.7,388.5,15.8,388.8,12.8 M386.8,21.5c0.5,3.9,2.4,6.7,5.2,8.6c0.4,0.3,0.9,0.4,1.4,0.6c0.9,0.4,1.8,0,2.5-0.6    c1.3-1.1,1.8-2.8,1.9-4.6c0.3-4.7-0.1-9.3-1.6-13.7c-0.2-0.5-0.4-0.9-0.6-1.4c-0.4-0.9-1-1.5-1.9-1.5c-0.5,0-0.9-0.2-1.3-0.6    c-0.9-1-2.1-1.2-3.2-1.1s-1.9,0.8-2.3,2.2c-0.5,1.5-0.5,3-0.5,4.6c0,0.7,0.1,1.3,0.1,2h-0.1C386.5,17.9,386.6,19.7,386.8,21.5"/>
		<path d="M407.6,55c-1.9-2.7-3.9-5.5-5.9-8.1c-1.7-2.3-3.5-4.4-5.3-6.7c-0.4-0.5-0.7-1.2-1-1.8c-0.3-0.5-0.6-0.7-1.1-0.7    c-0.6,0.1-1.3,0-1.8,0.3c-1.6,1.1-3.4,1.4-5.2,1.9c-2.1,0.6-4.3,0.9-6.4,1.4c-0.8,0.2-1.5,0.3-2.3,0.5c-0.3,0.1-0.7,0.3-1,0.5    c-0.4,0.3-0.6,1-0.4,1.5c0.1,0.3,0.2,0.7,0.4,1c0.8,1.8,1.5,3.5,2.4,5.2c0.5,1,1.1,2,1.7,2.9c1,1.6,1.9,3.2,2.6,5.2    c-0.4,0.5-0.7,1-1.2,1.4c-1.3,1-2.1,2.6-3.2,3.9c-0.6,0.8-0.3,1.9,0.5,2.3c0.9,0.4,1.8,0.1,2.2-1.1c0.4-1.3,1.2-2,2-2.8    c0.3-0.3,0.7-0.5,1.1-0.8s0.9-0.5,1.4-0.8c0.2-0.5,0.4-1.1,0.7-1.7c-0.1-0.2-0.1-0.5-0.2-0.7c-2.1-2.7-3.6-6.1-5.4-9.1    c-0.8-1.4-1.2-2.9-1.5-4.3c0.4-0.7,0.9-0.8,1.5-0.9c2-0.4,4-0.8,6-1.3c0.8-0.2,1.5-0.4,2.3-0.6c0.8-0.2,1.3,0.2,1.3,1.3    c0,2.7,0,5.3-0.1,8c-0.1,3.3-0.2,6.7-0.2,10c0,2.7-0.2,5.3-0.5,7.9c-0.1,0.8-0.2,1.6-0.2,2.4c0.7,0,1.4,0,2.1,0.1    c0-0.1,0-0.2,0.1-0.3c0.5-2.5,0.6-5,0.7-7.5c0.1-1.7,0.3-3.3,0.2-5.1c0.2,0.2,0.3,0.2,0.4,0.3c0.3,1.7,0.8,3.4,1,5.2    c0.2,2,0.3,4,0.5,6c0,0.1,0,0.3,0,0.4c0.1,0.3,0.2,0.7,0.3,1c0.7,0,1.4,0,2.1,0c0-0.2,0-0.3,0-0.5c-0.1-1.5-0.4-3.1-0.5-4.6    c-0.4-3.5-0.7-7-1.1-10.6c-0.3-3.3-0.5-6.6-0.8-9.9c0-0.6,0-1.1,0-2c0.5,0.4,0.9,0.6,1.2,0.9c2.9,3.1,5.6,6.3,7.5,10.4    c-0.3,0.8-0.9,1.1-1.5,1.4c-0.5,0.3-1,0.6-1.4,0.9c-0.8,0.6-1.1,1.5-1,2.6c0.1,0.5,0.2,1,0.4,1.5c0.3,0.7,0.5,1.3,0.9,1.9    c0.5,0.9,1,1.8,1.2,3c0.1,0.6,0.6,1,1.1,0.8c1-0.2,1.4-1,1.3-2c-0.1-1.3-0.4-2.5-0.9-3.6c-0.2-0.4-0.4-0.8-0.5-1.2    c-0.2-0.5-0.1-1,0.3-1.4c0.8-0.6,1.7-1.2,2.5-1.8c0.3-0.2,0.6-0.5,0.9-0.8C408,56.3,408,55.5,407.6,55"/>
		<path d="M402.2,79.8c-1.2-0.1-2.3-0.3-3.3-0.3c-3.6,0.2-7.3,0.5-10.9,0.7c-2,0.1-4-0.1-6.1-0.1c-1.3,0-2.6,0-4.1,0    c-0.2,2.3-0.3,4.3-0.5,6.4c-0.1,0.7-0.2,1.4-0.4,2c-0.3,0.8-1.2,1-1.8,0.3c-0.7-0.9-0.9-1.9-0.6-3.1c0.4-1.6,0.5-3.3,0.5-5    c-1.5,0-2.7-0.6-4.1-0.4c-1,0.1-2-1.5-1.7-2.5c0.1-0.2,0.1-0.4,0.3-0.4c0.9-0.3,1.9-0.9,2.7-0.7c1.5,0.4,3,0.2,4.5,0.2    c2.7,0,5.4,0.2,8.1,0.1c3.6-0.1,7.1-0.5,10.7-0.7c2.9-0.1,5.8,0,8.6,0c1.4,0,2.9-0.2,4.3-0.3c1.3-0.1,2.1,0.4,2.4,1.6    c0.2,1-0.1,1.6-1.1,1.7c-1.1,0.2-2.2,0.3-3.3,0.4c-0.8,0.1-1.2,0.3-1.2,1.1c0.1,2.1,0.1,4.1,0.2,6.2c0,1,0,2.1-0.1,3.1    c0,0.4-0.4,0.8-0.8,1c-0.2,0.1-0.8-0.2-1-0.4c-0.9-0.9-1.3-1.9-1.2-3.2C402.5,84.9,402.3,82.5,402.2,79.8"/>
		<path d="M367.2,96.9c-0.5-0.6-1-1-1.4-1.5c-2,0.9-3.3,2.7-3.3,4.5c0,1.1,0.5,1.8,1.4,2.2c1.4,0.5,3.5-0.3,3.9-1.7    c0.4-1.2,0.5-2.4,0.7-3.7c0-0.1-0.2-0.3-0.3-0.5C367.9,96.4,367.6,96.6,367.2,96.9 M371,98.9c-0.3,1.2-0.6,2.3-0.9,3.5    c-0.6,1.9-2,2.8-3.9,2.9c-4,0.2-5.9-2.8-6.2-5.6c-0.4-3.2,1.4-5.2,3.7-6.9c0.8-0.6,1.6-1.6,2.9-1.2c0.5,0.1,1,0.2,1.4,0.6    C369.9,93.9,371.3,96,371,98.9"/>
		<path d="M376.8,104.6c-1.5,1.4-2.3,3.3-2.7,5.4c-0.3,1.3,0.4,1.9,1.7,1.9c1.7,0,2.6-1.2,3.4-2.4c0.6-0.9,1.3-1.9,1.1-3.2    c-0.1-0.6-0.3-1-1.1-1.1C378.4,105.1,377.7,104.9,376.8,104.6 M382.8,107.6c-0.5,2.5-1.2,4.5-2.9,6.2c-1.3,1.3-2.8,1.8-4.5,1.4    c-2-0.5-3.1-1.9-3.6-3.8c-1-3.9,0.7-6.9,3.3-9.6c0.2-0.2,0.5-0.4,0.8-0.3c1.5,0.2,3.2,0.2,4.5,0.8    C382.6,103.4,382.8,105.7,382.8,107.6"/>
		<path d="M389.4,95.7c-1.1,1.7-1.8,3.8-2,6.1c0,0.4,0.1,0.9,0.3,1.3c0.4,1.1,1.3,1.3,2.2,0.7c0.5-0.3,0.9-0.7,1.3-1.1    c1.4-1.4,2.7-4.1,1.1-6.3C391.2,96.1,390.4,95.9,389.4,95.7 M395.5,100.4c-0.1,2.5-1.4,4.4-3.2,5.9c-2.2,1.9-5.2,1.1-6.7-1.6    c-0.7-1.4-1.2-2.9-0.8-4.5c0.5-2,1-4.1,1.8-5.9c1.2-2.8,4.6-3.1,6.6-0.8C395,95.5,395.6,97.9,395.5,100.4"/>
		<path d="M405.4,108.5c-0.1-0.3-0.1-1-0.4-1.3c-0.6-0.8-3.2-0.8-3.8-0.1c-1.2,1.4-2.1,3-2.4,4.9c-0.1,0.8,0.2,1.4,1,1.6    c0.7,0.1,1.4,0.2,2-0.1C403.8,112.6,405,111,405.4,108.5 M408,109.6c-0.1,1.7-0.9,3.2-1.7,4.6c-1.2,2.1-4.4,3-6.6,2.4    c-1.7-0.4-3.5-2.8-3.6-4.9c-0.1-3,1.2-5.3,3.2-7.4c0.2-0.2,0.6-0.4,0.9-0.5c0.6-0.3,4.7-0.2,5.3,0.1c1.4,0.6,2.7,3.2,2.6,5    C408.1,109.1,408,109.4,408,109.6"/>
		<path d="M413.5,98.8c-1.4,4-1.6,5.1-1,6.4c2.6-1.2,3.6-3.1,3-5.2C414.8,99.5,414.2,99.1,413.5,98.8 M409.6,102.3    c0.6-2.2,1.1-4.4,1.8-6.6c0.3-1,0.9-1.1,1.9-0.7c0.5,0.3,1.1,0.5,1.7,0.7c1.4,0.3,2.1,1.5,2.7,2.6c1.4,2.7,1.2,6.9-2,9.1    c-1.1,0.8-2.5,1.4-3.7,0.6c-0.9-0.7-1.6-1.8-2.1-2.8C409.5,104.3,409.6,103.3,409.6,102.3"/>
		<path d="M426.8,107c-0.5,0.3-1.2,0.4-1.6,0.8c-1.8,2-3.4,4.2-3.6,7.1c0,0.5,0.2,1.1,0.5,1.4c0.9,0.9,2.1,1.2,3.3,0.7    c1.3-0.5,2.5-0.9,2.7-2.6C428.4,111.9,428.7,109.4,426.8,107 M431.1,115c-0.2,0.8-0.4,1.7-0.7,2.5c-1,2.2-2.8,3.1-5.1,2.9    c-4.8-0.4-7-4.7-6-8.7c0.6-2.4,1.7-4.7,3.5-6.5c1.2-1.3,2.5-1.5,4.1-0.7c0.3,0.1,0.5,0.4,0.7,0.4c1.5,0,2,1.2,2.5,2.3    C431,109.7,431.2,112.3,431.1,115"/>
		<path class="st2" d="M445.5,15.2c-0.1-0.5-0.3-0.9-0.4-1.3c-0.1-0.3,0-0.6,0.3-0.7c0.2-0.1,0.4-0.1,0.7-0.2c-0.1-1-0.1-1.2-1-1.5    c-0.1-0.1-0.3-0.1-0.4-0.1c-0.4-0.1-0.7,0.1-0.7,0.4c-0.1,1.2,0.2,2.4,0.7,3.6C444.9,15.4,445.2,15.3,445.5,15.2 M442.2,11.1    c-0.2,0-0.4-0.1-0.5-0.1c-1.2,0-2.3,0.1-3.5,0.1c-0.8,0-1.7-0.1-2.5-0.1c-1.5-0.1-3,0.1-4.4-0.3c-1.6-0.1-3.1,0-4.6,0.8    c-0.4,0.2-0.7,0.3-1.1,0.5c-0.4,0.2-0.5,0.7-0.8,1s-0.4,0.7-0.5,1.1c-0.1,0.8,0.4,1.3,1.2,1.2c0.2,0,0.4,0,0.7,0    c1,0.4,2.1,0.4,3.2,0.6c2.5,0.3,5,0.2,7.5,0c1.8-0.2,3.6-0.4,5.4-0.4c0.1,0,0.4-0.1,0.5-0.1C442.6,14,442.1,12.7,442.2,11.1     M446.5,42.5c0.1-0.7,0.3-1.3,0.2-1.9c-0.1-0.8,0.1-1.6-0.1-2.3c-0.1-0.2,0.1-0.4,0.1-0.7c0.1-0.9,0.4-1.7,0.2-2.5    c-0.1-1.5-0.3-3-0.6-4.4c-0.2-0.9-0.3-2-0.3-2.9c0-1.2,0-2.5-0.1-3.8c-0.1-1.4-0.1-2.7-0.1-4.1c0.1-0.9-0.1-1-0.8-1.3    c-0.4-0.1-0.7-0.3-0.9-0.7c-0.4-0.4-0.8-0.6-1.3-0.6c-0.9,0-1.7-0.1-2.6,0c-0.4,0.1-0.7,0-1,0c-0.4,0-0.7,0-1.2,0.1    c-1.9,0.2-3.8,0.4-5.7,0.4c-0.4,0-0.9,0-1.3-0.1c-1.2-0.1-2.3-0.2-3.5-0.4c-0.5-0.1-0.7,0.1-0.7,0.7c0,0.1,0.1,0.3,0.1,0.4    c0.2,0.4,0.2,0.9,0.2,1.3c0.1,2-0.2,3.9-0.1,5.9c0,0.2-0.1,0.4-0.1,0.7c-0.1,1.1-0.2,2.1-0.2,3.2c-0.1,1,0,2.1-0.1,3.1    c-0.1,0.6-0.1,1.2,0,1.7c0.1,0.9,0.1,2,0.4,2.9v0.1c0.1,0.9,0.1,1.7,0.2,2.5c0.1,0.6,0.1,1.2,0.2,1.7c0.1,0.4,0.2,0.6,0.6,0.7    c0.8,0.1,1.6,0.3,2.5,0.1c0.9-0.1,1.7-0.1,2.6-0.1c1.2-0.1,2.3-0.1,3.3-0.4c0.6-0.1,1.2-0.2,1.8-0.1c0.4,0.1,0.7,0.1,1.2,0.1    c0.5,0,1.1-0.1,1.6-0.1c0.9-0.1,1.8,0,2.7,0.4C444.6,42.2,445.5,42.2,446.5,42.5 M424.7,17c-0.4-0.3-0.9-0.6-1.3-0.8    c-0.9-0.6-1.2-1.3-0.9-2.4c0.1-0.4,0.2-0.7,0.4-0.9c0.2-0.6,0.5-1.1,0.7-1.7c0.1-0.5,0.5-0.8,0.9-0.8c0.9,0.1,1.7-0.3,2.5-0.7    c1-0.4,2-0.5,3.1-0.5c1,0,2.1,0.1,3.1,0.2c1.5,0.1,2.8,0.1,4.3,0.1c1.3,0,2.7-0.1,4-0.1c0.3,0,0.6,0,0.9,0.1    c0.6,0,1.2,0.1,1.7,0.1c0.1,0,0.3,0,0.4,0.1c1.4,0.1,2.2,1,2.7,2.2c0.1,0.4,0.3,0.7,0.3,1.1c0.1,0.6,0.1,1.2,0.4,1.7    c0.1,0.1,0.1,0.4,0,0.6c-0.4,0.9-0.4,1.9-0.4,2.9c0,0.4-0.1,0.7-0.1,1.2c-0.1,1.2-0.1,2.4-0.1,3.6c0.1,1.6,0.1,3.2,0.1,4.9    c0,0.9,0.1,1.8,0.4,2.8c0.1,0.3,0.1,0.6,0.1,0.9c0.1,1,0.3,2,0.6,3c0.1,0.4,0.1,0.7,0.1,1.1c-0.1,1.2-0.1,2.4,0.1,3.6    c0.1,0.4,0,0.7-0.1,1.1c-0.3,0.9-0.4,1.8-0.4,2.7c0,0.3,0.2,0.5,0.3,0.8c0.1,0.2,0.2,0.4,0.2,0.7c0,0.7-0.5,0.9-1.2,0.9    c-0.3,0-0.7-0.1-0.9-0.3c-0.6-0.4-1.2-0.7-1.9-0.8c-0.2-0.1-0.5-0.1-0.7-0.2c-0.9-0.4-1.9-0.4-2.9-0.3c-0.4,0.1-0.8,0.1-1.2,0.1    c-0.4,0.1-0.9,0-1.3-0.1c-0.4-0.1-0.9-0.1-1.4-0.1c-0.4,0-0.7,0.1-1,0.1c-1.3,0.3-2.6,0.2-4,0.2c-0.7,0-1.5,0-2.2,0.1    c-0.7,0.1-1.2,0-1.9-0.1c-0.3-0.1-0.7-0.1-0.9-0.2c-0.5-0.1-1-0.1-1.5-0.1c-0.4,0-0.9-0.1-1.2-0.4c-0.4-0.4-0.4-0.9,0.1-1.3    c0.1-0.1,0.1-0.1,0.2-0.1c0.7-0.2,0.8-0.7,0.7-1.4c-0.1-1.5-0.2-2.8-0.3-4.3c-0.1-1-0.1-2.1,0-3.1c0.1-1,0.1-2.1,0.1-3.1    c0-0.7,0.1-1.3,0.1-2s0-1.3,0-2c0-0.2,0-0.4,0-0.6c0.2-1.3,0.1-2.6,0-4c0-0.4-0.1-0.9-0.1-1.4c-0.1-0.4-0.1-0.7-0.4-1    c-0.4-0.4-0.5-0.9-0.1-1.5C424.7,17.2,424.7,17.1,424.7,17"/>
		<path class="st2" d="M439.6,35.4c-1.3-0.1-2.5-0.4-3.8-0.4c-0.3,0.9-0.2,1.6,0.2,2.5c0.1,0,0.3,0,0.4,0c0.7-0.1,1.3-0.1,2-0.1    c0.4,0,0.9-0.1,1.5-0.2C439.9,36.6,439.8,36.1,439.6,35.4 M429.8,25.5c0.7,0.2,2.1,0.4,3,0.3c0.4-0.1,0.9-0.1,1.2-0.4    c0-0.8,0-1.6-0.3-2.3c-0.1-0.3-0.1-0.7-0.1-0.9c-0.1-0.4-0.1-0.6-0.6-0.6c-0.3,0-0.7,0-0.9,0c-0.7,0.1-1.2,0-1.8,0.2    C430.1,23.1,430,24.3,429.8,25.5 M437.2,33.4c0.9,0.1,1.9,0.4,2.9,0.3c0.2,0,0.5,0,0.7,0.1c0.7,0.1,0.9,0.4,0.8,1.1    c0,0.7,0.1,1.2,0.2,1.9c0.1,0.4,0.2,0.7,0.4,1c0.4,1-0.2,1.4-1,1.4c-0.1,0-0.3-0.1-0.4-0.1c-1.2-0.2-2.5-0.1-3.7-0.1    c-0.3,0-0.5,0.1-0.8,0.3c-0.3,0.2-0.6,0.4-0.9,0.5c-0.3,0.1-0.7,0.1-1,0s-0.6-0.4-0.4-0.9c0.1-0.7,0.1-1.3,0.1-2    c0-0.4-0.1-0.9-0.1-1.4c0-0.3,0-0.7-0.1-0.9c-0.1-0.4-0.1-0.7,0.1-1c0.2-0.3,0.5-0.4,0.8-0.4c0.1,0,0.1-0.1,0.1-0.1    c0.1-0.7,0-1.2-0.3-1.7c-0.1-0.1-0.1-0.1-0.1-0.2c-0.3-0.7-0.1-1.1,0.6-1.3c0.1,0,0.2-0.1,0.3-0.1c1.3,0.1,2.5-0.6,3.9-0.8    c0.1-0.2,0.1-0.4,0.1-0.6c-0.1-1.5-0.2-3.1-0.2-4.6c0-0.2-0.1-0.4-0.1-0.7c-0.7,0-1.3,0.1-1.9,0.4c-0.4,0.2-0.7,0.4-1,0.5    c-0.3,0.1-0.4,0.3-0.3,0.6c0.1,0.4,0.1,0.7,0.3,1.1c0.1,0.6-0.1,1-0.7,1.2c-0.2,0.1-0.4,0.1-0.6,0.1c-1.2,0.1-2.5,0.3-3.8,0    c-0.6-0.1-1.2-0.1-1.7,0.1c-0.4,0.1-0.7,0.1-1.1-0.1c-0.5-0.3-0.6-0.7-0.4-1.2c0.1-0.4,0.4-0.9,0.5-1.3c0.2-0.7,0.3-1.3,0.3-2    c0-0.4-0.1-0.8-0.4-1.1c-0.4-0.4-0.3-0.8,0.1-1.2c0.3-0.2,0.6-0.4,1-0.2c0.9,0.4,2,0.2,3,0.2c1,0,2-0.1,3.1-0.1    c0.1,0,0.2,0,0.4,0.1c0.3,0.1,0.4,0.4,0.3,0.7c-0.1,0.1-0.1,0.4-0.3,0.4c-0.1,0.1-0.2,0.3-0.2,0.5c0,0.6,0.2,0.7,0.7,0.5    c1-0.4,2.1-0.7,3.1-1.2c0.8-0.4,1.6,0.1,1.7,0.9c0.1,0.4,0.1,0.9,0,1.3c-0.1,0.7-0.1,1.5-0.1,2.3c0,0.6,0,1.2,0.1,1.7    c0.1,0.7,0.1,1.4,0.7,2c0.2,0.3,0.3,0.6,0.1,0.9c-0.2,0.4-0.5,0.6-0.9,0.6c-0.1,0-0.2,0-0.3-0.1c-0.8-0.3-1.7-0.1-2.5,0.1    c-0.4,0.1-0.7,0.3-1.2,0.4c-0.1,0-0.1,0.2-0.1,0.3c0,0.1,0,0.1,0.1,0.1C437.2,32.6,437.2,32.6,437.2,33.4"/>
	</g>
	<g id="_x31_">
		<path class="st0" d="M140,45.1c0.5,0.1,0.9,0.1,1.3,0.2c0.9,0.1,1.5,0.6,1.7,1.5c0.2,0.9-0.1,1.7-0.9,2.2c-1,0.6-2,1.3-3,2    c-3.4,2.5-6.6,5.3-9.5,8.4c-0.6,0.7-1.4,1.3-2.1,1.9c-1.4-0.2-2.3-0.9-3.1-1.9c-1.9-2.3-3.8-4.5-5.8-6.7c-0.3-0.3-0.6-0.5-1.2-1.1    c-0.4,6-1.1,11.6-1.2,17.1c-0.9,0.7-1.5,0.4-2.1-0.1c-0.7-0.5-1.2-1.1-1.1-2c0.1-2.4,0.3-4.8,0.5-7.2c0.2-2.8,0.4-5.6,0.3-8.4    c-4,4.4-7.2,9.3-10.6,14.3c-1.3-0.1-2.6-0.2-3.8-0.3c-0.8-0.1-1.3-0.6-1.6-1.4c-0.4-1.1,0.1-2,1.3-1.9c1.9,0.1,2.6-0.9,3.3-2.4    c0.3-0.8,1-1.4,1.5-2.1c2.1-2.8,4.3-5.5,6.4-8.3c1-1.3,2-2.7,2.8-4.2c0.8-1.3,2-1.2,3.1-1.1c1,0.1,1.9,1.4,1.7,2.7    c-0.3,1.5,0.5,2.5,1.3,3.4c1.6,2,3.4,4,5.1,6c1.3,1.5,1.8,1.5,3.3,0.2c3.2-2.7,6.4-5.5,9.6-8.2C138.1,46.8,139,46,140,45.1"/>
		<path class="st0" d="M114.8,29.6c-0.2,0.1-0.3,0.1-0.5,0.2c0.5,1.7,0.9,3.5,1.5,5.1c0.5,1.3,1.3,1.4,2.4,0.6    c0.8-0.6,1.6-1.3,2-2.4c1-2.6,1.4-5.2,1.1-7.9c-0.1-1.1-0.1-2.2-0.5-3.2c-0.2-0.6-0.8-1.3-1.4-1.5c-0.4-0.1-1.1,0.6-1.5,1    c-0.3,0.3-0.5,0.8-0.7,1.2c-0.8,2.3-1.4,4.5,0.6,6.5c0.4,0.4,0.5,1.2,0.8,1.8C117,31.4,115.8,30.6,114.8,29.6 M111.3,22.4    c0.1-1.7,0.4-3.2,2-4.2c0.3-0.2,0.8-0.5,1.1-0.4c1.3,0.6,2.3-0.3,3.4-0.5c2-0.4,3.4,0.9,4.6,2.3c0.5,0.6,0.8,1.3,1,2    c1.5,5.1,1.6,10.2-0.9,15.1c-1.4,2.8-4.4,3.5-6.9,1.5c-1.7-1.3-2.6-3.2-3.2-5.2C111.4,29.4,111.1,25.9,111.3,22.4"/>
		<path class="st2" d="M185.6,11.3c-0.2-0.5-0.4-1-0.5-1.4c-0.1-0.3,0-0.6,0.3-0.8c0.2-0.1,0.5-0.2,0.8-0.3c0-1.1-0.2-1.3-1.1-1.6    c-0.2-0.1-0.3-0.1-0.5-0.1c-0.4-0.1-0.7,0.1-0.7,0.5c0,1.4,0.2,2.7,0.8,3.9C185,11.5,185.2,11.4,185.6,11.3 M182,6.9    c-0.3,0-0.4-0.1-0.5-0.1c-1.3,0-2.6,0.1-3.8,0.1c-0.9,0-1.8-0.1-2.7-0.1c-1.6-0.1-3.3,0.1-4.9-0.3c-1.7-0.1-3.5,0-5,0.9    c-0.4,0.2-0.8,0.3-1.2,0.5c-0.5,0.2-0.5,0.8-0.9,1.1c-0.4,0.3-0.5,0.8-0.5,1.2c-0.1,0.8,0.5,1.4,1.4,1.3c0.2,0,0.5,0,0.7,0    c1.1,0.4,2.3,0.5,3.5,0.6c2.7,0.3,5.5,0.3,8.2,0c2-0.2,4-0.5,6-0.4c0.2,0,0.4-0.1,0.6-0.1C182.5,10,181.9,8.5,182,6.9 M186.7,41.1    c0.1-0.8,0.3-1.5,0.2-2.1c-0.1-0.9,0.1-1.7-0.1-2.6c-0.1-0.2,0.1-0.5,0.1-0.7c0.2-0.9,0.4-1.8,0.3-2.8c-0.2-1.6-0.3-3.2-0.6-4.8    c-0.2-1.1-0.3-2.1-0.3-3.2c0-1.4,0-2.8-0.1-4.2c-0.1-1.5-0.2-3-0.1-4.5c0.1-0.9-0.1-1.1-0.9-1.4c-0.4-0.1-0.8-0.4-1-0.7    c-0.4-0.5-0.9-0.6-1.5-0.7c-1,0-1.9-0.1-2.9,0c-0.4,0.1-0.8,0-1.1,0c-0.4,0-0.8,0-1.2,0c-2.1,0.2-4.1,0.4-6.2,0.4    c-0.5,0-1,0-1.5-0.1c-1.3-0.1-2.5-0.3-3.8-0.4c-0.6-0.1-0.8,0.2-0.7,0.7c0,0.2,0.1,0.3,0.2,0.5c0.2,0.4,0.2,0.9,0.3,1.4    c0.2,2.1-0.3,4.3-0.1,6.4c0,0.2-0.1,0.5-0.1,0.7c-0.1,1.2-0.2,2.3-0.3,3.5c-0.1,1.1,0,2.3-0.2,3.4c-0.1,0.6-0.1,1.3,0,1.9    c0.2,1.1,0.1,2.2,0.4,3.2c0,0,0,0.1,0,0.1c0.1,0.9,0.1,1.9,0.2,2.8c0.1,0.6,0.2,1.2,0.3,1.9c0.1,0.4,0.3,0.6,0.6,0.7    c0.9,0.2,1.8,0.3,2.7,0.2c1-0.1,1.9-0.1,2.9-0.2c1.2,0,2.5-0.1,3.7-0.5c0.6-0.2,1.3-0.2,2-0.2c0.4,0,0.8,0.1,1.2,0    c0.6,0,1.2-0.1,1.8-0.1c1-0.1,2,0,3,0.4C184.6,40.9,185.6,40.9,186.7,41.1 M162.9,13.2c-0.5-0.3-1-0.6-1.5-0.9    c-1.1-0.6-1.4-1.4-1-2.6c0.1-0.4,0.3-0.7,0.4-1.1c0.3-0.6,0.5-1.2,0.7-1.8c0.2-0.5,0.5-0.9,1.1-0.8c1,0.1,1.8-0.3,2.7-0.7    c1.1-0.5,2.3-0.6,3.5-0.6c1.1,0,2.3,0.2,3.4,0.2c1.6,0.1,3.1,0.1,4.7,0.1c1.5,0,2.9-0.1,4.4-0.2c0.3,0,0.6,0,0.9,0.1    c0.6,0,1.2,0.1,1.9,0.1c0.2,0,0.3,0,0.5,0c1.5,0.1,2.4,1.1,3,2.4c0.2,0.4,0.3,0.8,0.3,1.2c0.1,0.6,0.2,1.3,0.4,1.9    c0.1,0.2,0.1,0.4,0,0.6c-0.4,1-0.4,2.1-0.5,3.2c0,0.4-0.1,0.8-0.1,1.2c-0.2,1.3-0.1,2.6-0.1,3.9c0,1.8,0.1,3.5,0.1,5.3    c0,1,0.1,2,0.4,3c0.1,0.3,0.1,0.6,0.2,0.9c0.2,1.1,0.3,2.2,0.6,3.3c0.1,0.4,0.1,0.8,0.1,1.2c-0.1,1.3-0.1,2.6,0.2,3.9    c0.1,0.4,0,0.8-0.1,1.2c-0.3,1-0.5,2-0.4,3c0,0.3,0.2,0.6,0.3,0.9c0.1,0.2,0.2,0.5,0.2,0.7c0,0.8-0.6,1-1.3,1.1    c-0.3,0-0.7-0.1-1-0.3c-0.6-0.5-1.3-0.7-2.1-0.8c-0.3,0-0.5-0.1-0.8-0.2c-1-0.4-2.1-0.5-3.2-0.3c-0.4,0.1-0.9,0.1-1.3,0.2    c-0.5,0.1-0.9,0-1.4-0.1c-0.5-0.2-1-0.2-1.5-0.1c-0.4,0-0.8,0.1-1.1,0.2c-1.4,0.3-2.9,0.2-4.3,0.3c-0.8,0-1.6,0-2.4,0.1    c-0.7,0.1-1.4,0-2.1-0.1c-0.3-0.1-0.7-0.1-1-0.2c-0.5-0.1-1.1-0.2-1.6-0.2c-0.5,0-1-0.1-1.3-0.5c-0.4-0.5-0.4-1.1,0.1-1.5    c0.1-0.1,0.2-0.1,0.3-0.2c0.8-0.2,0.9-0.8,0.8-1.5c-0.1-1.6-0.2-3.1-0.3-4.7c-0.1-1.1-0.1-2.3,0-3.4c0.1-1.1,0.1-2.3,0.1-3.4    c0-0.7,0.1-1.5,0.1-2.2c0-0.7,0-1.5,0-2.2c0-0.2,0-0.4,0-0.6c0.2-1.5,0-2.9,0-4.4c0-0.5-0.1-1-0.2-1.5c-0.1-0.4-0.2-0.8-0.5-1.1    c-0.5-0.5-0.5-1-0.2-1.6C163,13.5,162.9,13.4,162.9,13.2"/>
		<path class="st2" d="M179.2,33.4c-1.4-0.2-2.7-0.4-4.1-0.4c-0.3,0.9-0.2,1.8,0.2,2.7c0.2,0,0.3,0,0.5,0c0.7-0.1,1.4-0.2,2.2-0.1    c0.5,0,1-0.1,1.6-0.2C179.6,34.7,179.4,34.1,179.2,33.4 M168.5,22.6c0.7,0.2,2.3,0.4,3.2,0.3c0.5,0,1-0.1,1.4-0.4    c0-0.9,0-1.7-0.3-2.6c-0.1-0.3-0.1-0.7-0.2-1c-0.1-0.5-0.2-0.6-0.6-0.6c-0.3,0-0.7,0-1,0c-0.7,0-1.4,0-2,0.3    C168.8,19.9,168.6,21.3,168.5,22.6 M176.5,31.3c1.1,0.1,2.1,0.4,3.2,0.3c0.3,0,0.6,0,0.8,0.1c0.7,0.2,0.9,0.5,0.9,1.2    c0,0.7,0.1,1.4,0.3,2.1c0.1,0.4,0.2,0.7,0.4,1.1c0.5,1.1-0.3,1.5-1.1,1.5c-0.2,0-0.3-0.1-0.5-0.1c-1.3-0.3-2.7-0.1-4,0    c-0.3,0-0.6,0.2-0.8,0.4c-0.3,0.2-0.6,0.4-1,0.6c-0.4,0.2-0.7,0.2-1.1,0c-0.4-0.2-0.6-0.4-0.5-1c0.2-0.7,0.1-1.4,0.1-2.2    c0-0.5-0.1-1-0.1-1.6c0-0.3,0-0.7-0.1-1c-0.1-0.4-0.1-0.7,0.1-1.1c0.2-0.3,0.5-0.4,0.9-0.4c0.1,0,0.1,0,0.2-0.1    c0-0.8,0-1.3-0.3-1.9c0-0.1-0.1-0.2-0.2-0.3c-0.3-0.7-0.1-1.2,0.6-1.4c0.1,0,0.2-0.1,0.3-0.1c1.5,0.1,2.8-0.6,4.2-0.9    c0-0.2,0.1-0.4,0.1-0.6c-0.1-1.7-0.3-3.3-0.2-5c0-0.2-0.1-0.5-0.1-0.8c-0.8,0-1.4,0.1-2.1,0.5c-0.4,0.2-0.7,0.4-1.1,0.6    c-0.3,0.2-0.4,0.3-0.3,0.7c0.1,0.4,0.2,0.8,0.3,1.2c0.2,0.7-0.1,1.1-0.7,1.2c-0.2,0-0.4,0.1-0.6,0.1c-1.4,0.1-2.8,0.3-4.1,0    c-0.6-0.1-1.2-0.1-1.9,0.1c-0.4,0.1-0.8,0.1-1.2-0.1c-0.5-0.3-0.7-0.7-0.4-1.3c0.2-0.5,0.4-1,0.6-1.5c0.3-0.7,0.3-1.4,0.3-2.2    c0-0.5-0.1-0.9-0.5-1.2c-0.4-0.4-0.4-0.9,0.1-1.3c0.3-0.3,0.7-0.5,1.1-0.3c1.1,0.4,2.2,0.2,3.3,0.2c1.1,0,2.2-0.1,3.3-0.1    c0.1,0,0.3,0,0.4,0.1c0.3,0.1,0.5,0.4,0.4,0.8c-0.1,0.2-0.2,0.4-0.3,0.5c-0.1,0.2-0.2,0.3-0.3,0.5c0,0.6,0.2,0.8,0.7,0.6    c1.1-0.5,2.3-0.7,3.4-1.3c0.8-0.4,1.7,0.1,1.8,1c0.1,0.5,0.1,1,0,1.5c-0.1,0.8-0.1,1.7-0.1,2.5c0,0.6,0,1.2,0.1,1.9    c0.1,0.8,0.2,1.5,0.7,2.1c0.2,0.3,0.3,0.6,0.1,1c-0.2,0.4-0.5,0.6-1,0.6c-0.1,0-0.2,0-0.3,0c-0.9-0.3-1.8-0.1-2.7,0.1    c-0.4,0.1-0.8,0.3-1.2,0.5c-0.1,0-0.1,0.2-0.1,0.4c0,0.1,0,0.1,0.1,0.2C176.5,30.4,176.5,30.4,176.5,31.3"/>
		<path d="M132,76.7c-1.2-0.1-2.3-0.3-3.3-0.3c-3.6,0.2-7.3,0.5-10.9,0.7c-2,0.1-4-0.1-6.1-0.1c-1.3,0-2.6,0-4.1,0    c-0.2,2.3-0.3,4.3-0.5,6.4c-0.1,0.7-0.2,1.4-0.4,2c-0.3,0.8-1.2,1-1.8,0.3c-0.7-0.9-0.9-1.9-0.6-3.1c0.4-1.6,0.5-3.3,0.5-5    c-1.5,0-2.7-0.6-4.1-0.4c-1,0.1-2-1.5-1.7-2.5c0.1-0.2,0.1-0.4,0.3-0.4c0.9-0.3,1.9-0.9,2.7-0.7c1.5,0.4,3,0.2,4.5,0.2    c2.7,0,5.4,0.2,8.1,0.1c3.6-0.1,7.1-0.5,10.7-0.7c2.9-0.1,5.8,0,8.6,0c1.4,0,2.9-0.2,4.3-0.3c1.3-0.1,2.1,0.4,2.4,1.6    c0.2,1-0.1,1.6-1.1,1.7c-1.1,0.2-2.2,0.3-3.3,0.4c-0.8,0.1-1.2,0.3-1.2,1.1c0.1,2.1,0.1,4.1,0.2,6.2c0,1,0,2.1-0.1,3.1    c0,0.4-0.4,0.8-0.8,1c-0.2,0.1-0.8-0.2-1-0.4c-0.9-0.9-1.3-1.9-1.2-3.2C132.3,81.8,132.1,79.4,132,76.7"/>
		<path d="M97,93.8c-0.5-0.6-1-1-1.4-1.5c-2,0.9-3.3,2.7-3.3,4.5c0,1.1,0.5,1.8,1.4,2.2c1.4,0.5,3.5-0.3,3.9-1.7    c0.4-1.2,0.5-2.4,0.7-3.7c0-0.1-0.2-0.3-0.3-0.5C97.7,93.3,97.4,93.5,97,93.8 M100.8,95.8c-0.3,1.2-0.6,2.3-0.9,3.5    c-0.6,1.9-2,2.8-3.9,2.9c-4,0.2-5.9-2.8-6.2-5.6c-0.4-3.2,1.4-5.2,3.7-6.9c0.8-0.6,1.6-1.6,2.9-1.2c0.5,0.1,1,0.2,1.4,0.6    C99.7,90.8,101.1,92.9,100.8,95.8"/>
		<path d="M106.6,101.5c-1.5,1.4-2.3,3.3-2.7,5.4c-0.3,1.3,0.4,1.9,1.7,1.9c1.7,0,2.6-1.2,3.4-2.4c0.6-0.9,1.3-1.9,1.1-3.2    c-0.1-0.6-0.3-1-1.1-1.1C108.2,102,107.5,101.8,106.6,101.5 M112.6,104.5c-0.5,2.5-1.2,4.5-2.9,6.2c-1.3,1.3-2.8,1.8-4.5,1.4    c-2-0.5-3.1-1.9-3.6-3.8c-1-3.9,0.7-6.9,3.3-9.6c0.2-0.2,0.5-0.4,0.8-0.3c1.5,0.2,3.2,0.2,4.5,0.8    C112.4,100.3,112.6,102.6,112.6,104.5"/>
		<path d="M119.2,92.6c-1.1,1.7-1.8,3.8-2,6.1c0,0.4,0.1,0.9,0.3,1.3c0.4,1.1,1.3,1.3,2.2,0.7c0.5-0.3,0.9-0.7,1.3-1.1    c1.4-1.4,2.7-4.1,1.1-6.3C121,93,120.2,92.8,119.2,92.6 M125.3,97.3c-0.1,2.5-1.4,4.4-3.2,5.9c-2.2,1.9-5.2,1.1-6.7-1.6    c-0.7-1.4-1.2-2.9-0.8-4.5c0.5-2,1-4.1,1.8-5.9c1.2-2.8,4.6-3.1,6.6-0.8C124.8,92.4,125.4,94.8,125.3,97.3"/>
		<path d="M135.2,105.4c-0.1-0.3-0.1-1-0.4-1.3c-0.6-0.8-3.2-0.8-3.8-0.1c-1.2,1.4-2.1,3-2.4,4.9c-0.1,0.8,0.2,1.4,1,1.6    c0.7,0.1,1.4,0.2,2-0.1C133.6,109.5,134.8,107.9,135.2,105.4 M137.8,106.5c-0.1,1.7-0.9,3.2-1.7,4.6c-1.2,2.1-4.4,3-6.6,2.4    c-1.7-0.4-3.5-2.8-3.6-4.9c-0.1-3,1.2-5.3,3.2-7.4c0.2-0.2,0.6-0.4,0.9-0.5c0.6-0.3,4.7-0.2,5.3,0.1c1.4,0.6,2.7,3.2,2.6,5    C137.9,106,137.8,106.3,137.8,106.5"/>
		<path d="M143.3,95.7c-1.4,4-1.6,5.1-1,6.4c2.6-1.2,3.6-3.1,3-5.2C144.6,96.4,144,96,143.3,95.7 M139.4,99.2    c0.6-2.2,1.1-4.4,1.8-6.6c0.3-1,0.9-1.1,1.9-0.7c0.5,0.3,1.1,0.5,1.7,0.7c1.4,0.3,2.1,1.5,2.7,2.6c1.4,2.7,1.2,6.9-2,9.1    c-1.1,0.8-2.5,1.4-3.7,0.6c-0.9-0.7-1.6-1.8-2.1-2.8C139.3,101.2,139.4,100.2,139.4,99.2"/>
		<path d="M156.6,103.9c-0.5,0.3-1.2,0.4-1.6,0.8c-1.8,2-3.4,4.2-3.6,7.1c0,0.5,0.2,1.1,0.5,1.4c0.9,0.9,2.1,1.2,3.3,0.7    c1.3-0.5,2.5-0.9,2.7-2.6C158.2,108.8,158.5,106.3,156.6,103.9 M160.9,111.9c-0.2,0.8-0.4,1.7-0.7,2.5c-1,2.2-2.8,3.1-5.1,2.9    c-4.8-0.4-7-4.7-6-8.7c0.6-2.4,1.7-4.7,3.5-6.5c1.2-1.3,2.5-1.5,4.1-0.7c0.3,0.1,0.5,0.4,0.7,0.4c1.5,0,2,1.2,2.5,2.3    C160.8,106.6,161,109.2,160.9,111.9"/>
	</g>
</g>
<g id="Fleches">
	<path class="st0" d="M243.9,76.4c-0.2,0-0.4,0.1-0.6,0.1c0.1,0.1,0.1,0.1,0.2,0.2c0.1,0,0.4,0.1,0.3,0.3c0,0.1-0.1,0.3-0.2,0.4   c-0.3,0.3-0.7,0.2-1,0.1s-0.6-0.2-0.9-0.4c0.1-0.3,0.2-0.5,0.3-0.8c-0.1,0-0.1-0.1-0.3-0.1c0-0.1,0-0.3,0.1-0.4   c0.3-0.4,0.4-0.9,0.7-1.3s0.6-0.9,0.9-1.3c0.7-0.9,1.3-1.8,2-2.6c0.4-0.5,1-1.1,1.4-1.6c0.5-0.6,1.1-1.3,1.6-1.9   c0.2-0.2,0.5-0.4,0.7-0.6c0.3-0.3,0.5-0.5,0.7-0.8c0.1-0.1,0.1-0.3,0.1-0.5c0-0.1,0-0.3,0-0.5c-0.1-0.1-0.2-0.2-0.4-0.4   c-0.1-0.2-0.3-0.4-0.4-0.4c-0.3-0.1-0.4-0.4-0.4-0.6c0-0.4-0.2-0.7-0.4-0.9c-0.5-0.5-0.8-1.1-1-1.7c-0.1-0.3-0.2-0.7-0.4-1   c0-0.1-0.2-0.2-0.3-0.2c-0.3-0.4-0.7-0.8-0.7-1.4c0-0.1-0.1-0.1-0.2-0.2c-0.1-0.1-0.1-0.1-0.1-0.2c0-0.5-0.3-0.9-0.7-1.2   c-0.1-0.1-0.2-0.2-0.2-0.3c-0.3-0.7-0.7-1.5-0.9-2.2c-0.2-0.8-0.6-1.5-0.6-2.3c0-0.5,0.1-0.6,0.6-0.7c0.4,0,0.7,0,1.1,0   c0.1,0,0.1,0,0.1,0.1c0.2,0.3,0.5,0.7,0.5,1s0.1,0.5,0.3,0.7c-0.1,0.1-0.1,0.2-0.2,0.4c0,0,0,0,0.1,0c0.1,0.1,0.2,0.1,0.3,0.2   c0.2,0.6,0.4,1.2,0.8,1.8c0.2,0.4,0.3,0.8,0.5,1.2c0.4,0.9,0.8,1.8,1.3,2.6c0.2,0.3,0.3,0.6,0.4,0.9c0.1,0.2,0.3,0.4,0.4,0.7   c0.3,0.4,0.5,1,0.8,1.3c0.4,0.4,0.4,0.9,0.8,1.2c0,0.3,0.2,0.5,0.4,0.7c0.2,0.3,0,0.5-0.1,0.7c0.3,0.2,0.7,0.4,0.9,0.6   c0.1,0.1,0.2,0.3,0.2,0.4c-0.2,0.5-0.4,1.1-0.8,1.4c-0.1,0.1-0.2,0.1-0.2,0.2c-0.2,0.2-0.4,0.5-0.7,0.7c-0.2,0.2-0.6,0.4-0.7,0.8   c0,0.1-0.2,0.3-0.3,0.4c-0.6,0.6-1.2,1.2-1.7,1.8c-0.4,0.5-0.8,1.1-1.3,1.6c-0.6,0.6-1.1,1.4-1.6,2.1c-0.4,0.5-0.7,1.1-1.1,1.7   c-0.1,0.1-0.1,0.3-0.2,0.3C243.8,76,244,76.2,243.9,76.4"/>
	<path class="st0" d="M490.9,76.4c-0.2,0-0.4,0.1-0.6,0.1c0.1,0.1,0.1,0.1,0.2,0.2c0.1,0,0.4,0.1,0.3,0.3c0,0.1-0.1,0.3-0.2,0.4   c-0.3,0.3-0.7,0.2-1,0.1s-0.6-0.2-0.9-0.4c0.1-0.3,0.2-0.5,0.3-0.8c-0.1,0-0.1-0.1-0.3-0.1c0-0.1,0-0.3,0.1-0.4   c0.3-0.4,0.4-0.9,0.7-1.3s0.6-0.9,0.9-1.3c0.7-0.9,1.3-1.8,2-2.6c0.4-0.5,1-1.1,1.4-1.6c0.5-0.6,1.1-1.3,1.6-1.9   c0.2-0.2,0.5-0.4,0.7-0.6c0.3-0.3,0.5-0.5,0.7-0.8c0.1-0.1,0.1-0.3,0.1-0.5c0-0.1,0-0.3,0-0.5c-0.1-0.1-0.2-0.2-0.4-0.4   c-0.1-0.2-0.3-0.4-0.4-0.4c-0.3-0.1-0.4-0.4-0.4-0.6c0-0.4-0.2-0.7-0.4-0.9c-0.5-0.5-0.8-1.1-1-1.7c-0.1-0.3-0.2-0.7-0.4-1   c0-0.1-0.2-0.2-0.3-0.2c-0.3-0.4-0.7-0.8-0.7-1.4c0-0.1-0.1-0.1-0.2-0.2c-0.1-0.1-0.1-0.1-0.1-0.2c0-0.5-0.3-0.9-0.7-1.2   c-0.1-0.1-0.2-0.2-0.2-0.3c-0.3-0.7-0.7-1.5-0.9-2.2c-0.2-0.8-0.6-1.5-0.6-2.3c0-0.5,0.1-0.6,0.6-0.7c0.4,0,0.7,0,1.1,0   c0.1,0,0.1,0,0.1,0.1c0.2,0.3,0.5,0.7,0.5,1s0.1,0.5,0.3,0.7c-0.1,0.1-0.1,0.2-0.2,0.4c0,0,0,0,0.1,0c0.1,0.1,0.2,0.1,0.3,0.2   c0.2,0.6,0.4,1.2,0.8,1.8c0.2,0.4,0.3,0.8,0.5,1.2c0.4,0.9,0.8,1.8,1.3,2.6c0.2,0.3,0.3,0.6,0.4,0.9c0.1,0.2,0.3,0.4,0.4,0.7   c0.3,0.4,0.5,1,0.8,1.3c0.4,0.4,0.4,0.9,0.8,1.2c0,0.3,0.2,0.5,0.4,0.7c0.2,0.3,0,0.5-0.1,0.7c0.3,0.2,0.7,0.4,0.9,0.6   c0.1,0.1,0.2,0.3,0.2,0.4c-0.2,0.5-0.4,1.1-0.8,1.4c-0.1,0.1-0.2,0.1-0.2,0.2c-0.2,0.2-0.4,0.5-0.7,0.7c-0.2,0.2-0.6,0.4-0.7,0.8   c0,0.1-0.2,0.3-0.3,0.4c-0.6,0.6-1.2,1.2-1.7,1.8c-0.4,0.5-0.8,1.1-1.3,1.6c-0.6,0.6-1.1,1.4-1.6,2.1c-0.4,0.5-0.7,1.1-1.1,1.7   c-0.1,0.1-0.1,0.3-0.2,0.3C490.8,76,491,76.2,490.9,76.4"/>
	<g>
		<line class="st3" x1="0" y1="0" x2="740" y2="0"/>
	</g>
</g>
<g id="Reperes">
</g>
</svg>
