<?xml version="1.0" encoding="utf-8"?>
<!-- Generator: Adobe Illustrator 27.3.1, SVG Export Plug-In . SVG Version: 6.00 Build 0)  -->
<svg xmlns="http://www.w3.org/2000/svg" xmlns:xlink="http://www.w3.org/1999/xlink" version="1.1" x="0px" y="0px" viewBox="0 0 740 130" style="enable-background:new 0 0 740 130;" xml:space="preserve">
<style type="text/css">
	.st0{fill:#FF9C3A;}
	.st1{fill:#BC7C3C;}
	.st2{fill-rule:evenodd;clip-rule:evenodd;fill:#FFFFFF;}
</style>
<g id="Vignettes">
	<g id="_x34_">
		<path d="M693.4,67.5c-0.1,0-0.1,0.1-0.1,0.1c0,0.1,0,0.3,0.1,0.4c0.1,0,0.1-0.1,0.1-0.1C693.5,67.7,693.4,67.6,693.4,67.5     M685.6,64.8c0.6-0.1,1.2-0.6,1.3-1.3c0.4-2.4,0.8-7.2,0.9-9.4c0-0.2-0.1-0.4-0.1-0.7c-2.8,4-5.3,7.9-7.9,11.8    c0,0.1,0,0.2,0.1,0.3C681.7,65.3,683.6,65.1,685.6,64.8 M693,50.2c-0.8-0.2-1.6-0.4-2.3-0.7 M690.7,49.5c-0.1,0.2-0.2,0.3-0.2,0.5    c-0.3,2.3-0.6,4.7-0.8,7c0,0.4,0,0.8,0.4,1.1c0.2,0.1,0.4,0.4,0.4,0.6c0.1,1.6,0.9,2.9,1.3,4.4c0.1,0.4,0.3,0.9,0.5,1.3    c0.3,0.5,0.8,0.5,1.3,0.5c0.3,0,0.5-0.3,0.6-0.9c0.1-1.1,0.2-2.2,0.3-3.4c0.1-2,0.3-4.1,0.4-6.1c0-0.2,0.1-0.4,0.1-0.6    c0.1-0.6,0.1-1.2,0.1-1.7c0-0.6-0.4-1.2-0.9-1.4c-0.3-0.2-0.7-0.3-1-0.4 M723.8,50.4c-0.6,0.6-1.3,1.1-1.8,1.9    c-1.2,2-1.2,2-1.4,4.2c0,0.4-0.1,0.7-0.1,1.1c-0.1,1.4-0.2,2.8-0.6,4.1c-0.4,1.4-0.6,2.9-0.7,4.4c-0.2,2.5-0.4,5.1-0.6,7.6    c0,0.2,0,0.4,0.1,0.8c0.6-0.9,1.3-1.7,1.7-2.5c0.7-1.5,1.3-3.1,1.5-4.8c0.1-0.7,0.2-1.3,0.5-1.7c0.2-0.3,0.4-0.6,0.4-1    c0.1-0.9,0.2-1.8,0.2-2.6c0.1-1.2,0.3-2.5,0.4-3.7c0.1-0.9,0.1-1.7,0.2-2.6c0.2-1.3,0.4-2.6,0.5-4    C724.2,51.3,724.3,50.8,723.8,50.4 M724.6,45.9c0-0.1-0.1-0.2-0.1-0.3c-0.4,0.1-0.8,0.1-1.2,0.2c-0.3,0-0.7,0.2-1,0.1    c-0.7-0.1-1.5-0.2-2.2-0.4c-1.8-0.5-3.6-0.6-5.3-0.6c-3.1-0.1-6.2,0.1-9.4,0.1c-0.7,0-1.3,0.1-1.8,0.6c-0.9,0.8-1.7,1.7-2.6,2.6    c-0.1,0.1,0,0.2-0.1,0.4c0.3,0.1,0.6,0.3,0.9,0.4c0.7,0.1,1.3,0.2,2,0.3c2.7,0.3,5.3,0.7,8,0.7c0.1,0,0.2,0,0.3,0.1    c1.8,0.6,3.7,0.6,5.6,0.9c0.4,0.1,0.9,0.1,1.3,0c0.4-0.1,0.8-0.3,1-0.6c0.5-0.7,1.1-1.2,1.8-1.6c0.2-0.1,0.3-0.2,0.4-0.4    c0.5-0.8,1.2-1.2,1.8-1.7C724.1,46.4,724.4,46.1,724.6,45.9 M696.1,70c0.2,0.1,0.3,0.2,0.5,0.3c0.7,0.2,1.4,0.3,2.1,0.5    c1.3,0.4,2.5,0.8,3.8,1.1c0.6,0.2,1.3,0.2,1.9,0.4c1,0.3,1.9,0.6,2.9,0.9c2.6,0.8,5.2,1.8,7.8,2.9c0.3,0.1,0.6,0.4,1,0    c0.2-1.9,0.4-3.8,0.5-5.7c0.2-2.5,0.4-5.1,0.8-7.6c0.3-2.3,0.6-4.7,0.6-7.1c0-0.8,0.1-1.6-0.2-2.4c-0.2-0.1-0.3-0.1-0.4-0.1    c-1.5-0.2-3-0.4-4.5-0.7c-1.7-0.3-3.5-0.6-5.2-0.6c-0.1,0-0.1,0-0.2,0c-2.4-0.4-4.8-0.8-7.2-1.1c-0.3,0-0.5,0-0.9,0    c-0.1,1.1-0.4,1.9-1.5,1.9c-0.1,0-0.1,0.1-0.2,0.2c-0.4,2.3-0.7,4.6-0.7,7c0,0.6-0.1,1.1-0.2,1.7c-0.1,0.7-0.2,1.4-0.3,2.1    c-0.1,1,0.2,1.2,1.1,1c0.7-0.2,1.5-0.5,2.1-0.8c1.1-0.5,1.8-0.1,2.5,0.7c0.4,0.4,0.5,1.2,0.1,1.7c-0.7,1-1.6,1.8-2.9,1.6    c-0.4-0.1-0.9,0-1.3-0.2c-0.3-0.1-0.5-0.1-0.7-0.1c-0.7,0.1-1.3,0.8-1.3,1.6V70z M694.4,48.1c0.4,0.2,0.8,0.2,1.1,0    c0.4-0.2,0.9-0.4,1.4-0.3c0.2,0,0.4-0.2,0.6-0.3c0.2-0.1,0.3-0.3,0.4-0.4c1.2-1.4,2.8-2.3,4.1-3.6c0.3-0.3,0.6-0.4,1-0.6    c0.7-0.4,1.3-0.8,2-1.2c1.1-0.8,1.9-0.6,2.8,0.5c0.1,0.1,0.1,0.2,0.3,0.3c0.5,0,1.1,0,1.7,0c2.1,0,4.2-0.1,6.2,0    c1.5,0.1,3,0.3,4.5,0.5c0.5,0.1,1,0.1,1.6,0.1c0.5,0,1-0.2,1.5-0.4c1.6-0.9,2.6-0.4,3.8,0.9c0.6,0.6,0.8,1.6,1.4,2.3    c0.3,0.4,0.2,1-0.2,1.2c-1.3,0.8-1.6,2.1-1.8,3.5c-0.3,1.5-0.4,3.1-0.7,4.6c-0.3,2.1-0.3,4.2-0.9,6.2c-0.1,0.4-0.1,0.8-0.1,1.2    c-0.1,1.1-0.1,2.2-0.1,3.3c0,0.2,0.1,0.5,0.1,0.7c0.3,0.9,0.3,1.6-0.4,2.2c-0.3,0.2-0.4,0.7-0.6,1c-0.6,1.4-1.3,2.9-2,4.2    c-0.7,1.1-1.4,2.2-2.2,3.2c-0.6,0.7-1.1,1.4-1.6,2.2c-0.4,0.5-1,0.8-1.6,0.5c-0.8-0.3-1.4-0.7-2.2-1.1c-2.4-1.2-4.9-2.1-7.4-3    c-1.6-0.6-3.4-1.1-5-1.5c-1.1-0.3-2.3-0.6-3.4-0.9c-0.7-0.2-1.5-0.3-2.2-0.3c-0.5,0-1,0.2-1.3,0.7 M695.1,73.8L695.1,73.8    c-0.2,0.4-0.3,0.8-0.2,1.2c0.1,0.7,0.3,1.5,0.5,2.3c0.5,1.3,0.7,2.7,0.7,4.1c0.1,2.6,1,7.9,2.1,10.2c0.2,0.4,0.5,0.6,0.7,1    c0.4,0.7,0.5,1.4,0.1,2.4c-0.6,1.4-0.8,3-0.6,4.6c0.2,2-0.3,7.1,0.7,9c-0.2,1.2,0.1,1.9,0.9,2.3c0.4,0.2,0.8,0.4,1.2,0.5    c0.7,0.3,1.3,0.8,1.8,1.4c0.5,0.7,0.3,1.6-0.6,1.8c-0.8,0.2-1.5,0-2.2-0.4c-1-0.6-1.9-1.3-2.9-1.9c-0.1-0.1-0.2-0.1-0.2-0.2    c-1.2-1-1.6-2.3-1.3-3.8c0.1-0.7,0.2-1.4,0.1-2.1c-0.1-0.9,0-1.9,0-2.8c0-1.1,0-5.2,0-6.3c0-0.2-0.1-0.3,0-0.5    c0.4-0.9,0.1-1.7-0.1-2.5c-0.1-0.2-0.2-0.5-0.1-0.8c0.2-1-0.2-1.8-0.4-2.7c-0.2-0.8-0.5-1.7-0.6-2.5c-0.3-1.8-0.7-6.5-0.9-8.3    c-0.2-1.7-0.6-3.4-1.2-5c-0.6-1.6-0.9-3.2-1.3-4.8c-0.2-0.7-0.3-1.4-0.5-2.1c-0.2-0.6-0.5-0.8-1.1-0.8c-0.3,0-0.6,0.2-0.6,0.5    c0,1.1-0.2,2.2,0.4,3.2c0.2,0.4,0.3,1,0.4,1.5c0.3,1.9,0.5,3.7,0.8,5.6c0,0.3,0.2,0.8,0.3,1.1c0.4,1.4,0.9,5.5,0.9,6.8    c0,0.4,0.1,1,0.1,1.3c0.3,1.7,0.8,3.3,1.2,5c0.3,1.6,0.6,3.1,0.4,4.7c-0.1,0.5-0.1,1,0.2,1.5c0.3,0.6,0.2,4.1-0.2,4.6    c-1,1.2-1.7,2.6-2,4.2c-0.2,1.1-0.4,2.2-0.6,3.3c-0.1,0.6-0.1,1.2,0.4,1.7c0.5,0.6,0.4,1.2,0.1,1.9c-0.2,0.5-0.5,0.8-1,0.7    c-0.8-0.1-1.7-0.2-2.5-0.4c-0.6-0.2-0.9-0.7-1-1.4c-0.1-0.5,0-1,0-1.5c0.2-0.2,0.4-0.3,0.6-0.5c0.5-0.3,0.7-0.8,0.8-1.4    c0.1-1.4,0.6-2.7,0.9-4c0.3-1.1,0.6-5.2,0.9-6.3c0.2-0.6,0.3-1.3,0.7-1.9c0.6-1.1,0.4-2.3,0.3-3.5c-0.2-1.6-0.4-3.1-0.8-4.6    c-0.4-1.4-0.6-5.9-0.9-7.4c-0.1-0.5-0.2-1-0.3-1.5c-0.4-1.5-0.8-3-1.1-4.5c-0.3-1.4-0.6-2.8-1.3-4.1c-0.1-0.3-0.2-0.6-0.3-0.9    c0.2-1.2,0.8-2.3,0.5-3.7c-0.4,0-0.7-0.1-1.1-0.1c-2.7,0.2-5.4,0.7-7.9,1.8c-0.3,0.1-0.5,0.3-0.7,0.5c-0.5,0.3-0.9,0.5-1.4,0.5    c-1.2-0.1-1.7-1.8-0.8-2.7c0.1-0.1,0.2-0.2,0.3-0.3c0.2-0.2,0.5-0.4,0.7-0.7c1.3-1.7,2.6-3.4,3.8-5.2c1.5-2.2,3-4.5,4.5-6.8    c0.9-1.3,1.8-2.6,2.6-4c0.7-1.1,1.2-2.3,1.8-3.5c0.4-0.9,0.4-1.9,0.4-2.9c0-0.6,0.1-1.1,0.5-1.6c0.3-0.3,0.6-0.5,1-0.3    c0.3,0.1,0.6,0.3,0.9,0.4c0.4,0.3,0.6,0.6,0.6,1.2c0,0.3-0.1,0.6-0.1,1c0.4,0.4,0.7,1,0.8,1.7c0.1,0.7,0.6,1.1,1.2,1.4    c0.3,0.1,0.5,0.2,0.8,0.3 M702,54"/>
		<path d="M688.1,27.5c-0.1,1.8,0.1,3.6,0.3,5.4c0.1,1.4,1.9,2.2,2.8,1.3c0.3-0.3,0.7-0.5,1-0.8c1-0.8,1.7-2,2-3.3    c0.3-1.9,0.6-3.7,0.2-5.6c-0.2-1.2-0.4-2.3-0.6-3.5c-0.2-1.1-0.8-2-1.3-2.9c-0.2-0.4-0.8-0.4-1.1,0c-0.1,0.2-0.2,0.3-0.3,0.5    c-0.4,0.5-0.8,1.2-1.3,1.6c-0.5,0.3-0.7,0.8-0.9,1.3c-0.4,1.1-0.7,2.2-0.7,3.5C688.2,25.8,688.1,26.6,688.1,27.5 M685.7,28.3    c0-0.1,0-0.2,0-0.2c0.1-1.6,0.2-3.1,0.4-4.5c0.2-1.6,0.4-3.2,1.4-4.5c0.7-0.9,1.4-1.8,2.2-2.7c0.5-0.6,1.2-0.9,2-0.8    c0.3,0,0.7,0,1.1,0.1c0.3,0,0.5,0.1,0.7,0.3c1.9,1.5,1.9,3.7,2.4,5.7c0.1,0.4,0.1,0.9,0.2,1.4c0.7,2.8,0.8,5.6,0.1,8.4    c-0.4,1.4-1,2.7-2.1,3.6c-0.3,0.3-0.7,0.6-1,0.9c-1.8,1.4-3.9,1.3-5.6-0.2c-0.8-0.7-1.2-1.5-1.3-2.6    C686,31.4,685.8,29.8,685.7,28.3"/>
		<path d="M638.1,54.1c0,0,0.1-0.1,0.1-0.2c0,0-0.1-0.1-0.1-0.1c0,0-0.1,0.1-0.1,0.2C638,54,638.1,54.1,638.1,54.1 M636.5,56.3    c-1.9,3.4-4.3,6.2-6.7,9c-0.7,0.8-1.4,1-2.2,0.8c-0.6-0.2-1-0.8-1-1.7c0-1.2,0-2.5,0.1-3.7c0.1-2.1,0.1-4.3,0.4-6.4    c0.6-3.8,1.3-7.6,2-11.4c0.1-0.5,0.2-1,0.4-1.5c0.2-0.5,0.5-0.9,0.9-0.9c0.4,0,0.8,0.4,0.9,0.9c0.4,1.8,0.8,3.6,0,5.4    c-0.2,0.4-0.3,0.8-0.4,1.2c-1.1,3.6-1.5,7.4-1.5,11.3c0,0.8-0.1,1.6,0.3,2.2c0.1,0,0.2,0,0.2,0c2.4-2.8,4.7-5.6,6.2-9.5    c0.4-0.9,0.8-1.8,1.3-2.7c0.6-1.2,1.4-1.5,2.4-1.3c0.7,0.2,1.4,0.6,1.9,1.3c0.5,0.7,1,1.4,1.6,1.9c2.3,1.9,4.5,4,6.9,5.6    c1.7,1.2,3.1,2.6,4.5,4.3c0.7,0.8,1.4,1.6,2.1,2.5c0.2,0.2,0.4,0.5,0.5,0.8c0.3,0.5,0.2,1.2-0.2,1.6c-0.5,0.5-1.1,0.4-1.7,0.4    c-1.9-0.1-3.8,0.2-5.6,0.8c-0.3,0.1-0.7,0-0.8,0.7c0.3,0.5,0.6,1.1,0.8,1.7c0.4,0.9,0.3,1.9,0,2.8c-0.3,0.9-1.3,1.3-1.6,0.5    c-0.6-1.6-1.7-2-2.8-2.5c-0.4-0.2-0.7-0.5-1-0.9c-0.9-1-0.8-2.2,0.1-3.1c0.3-0.2,0.6-0.5,0.9-0.6c2.1-0.8,4.2-1.9,6.5-1.9    c0.5,0,1,0.2,1.6-0.4c-0.2-0.3-0.3-0.7-0.4-0.9c-0.9-1.1-8.1-6.7-10-7.8c-0.6,0.3-1.2,0.6-1.8,0.9c0,0.5,0,0.8,0,1.2    c0.1,3.2,0.2,6.4,0.3,9.6c0.1,1.7,0.1,3.4,0.2,5.1c0.2,3.8,0.5,7.6,0.7,11.5c0.1,1.8,0.1,3.6,0.2,5.3c0.3,4.1,0.8,8.1,1.1,12.2    c0.2,2.7,0.4,5.3,0.9,7.9c0.2,0.9,0.4,1.7,0.5,2.6c0.2,1.2-0.2,1.9-1,2.2c-0.1,0.1-0.3,0.1-0.4,0.1c-0.9,0.2-1.4-0.3-1.5-1.5    c-0.1-1.4-0.3-2.8-0.4-4.2c-0.1-1.5-0.3-3-0.4-4.5c-0.2-3-0.2-6.1-0.6-9c-0.5-3.7-0.6-7.4-0.7-11.2c-0.1-2.1-0.2-4.2-0.4-6.4    c-0.2,0.3-0.4,0.4-0.4,0.6c-0.6,4.1-1.3,8.2-1.7,12.4c-0.4,4-0.7,8-1.5,11.9c-0.3,1.5-0.6,3.1-0.9,4.7c-0.3,1.8-1.6,3.3-2.9,3.3    c-0.3,0-0.8-0.3-1-0.6c-0.5-0.8-0.4-2.2,0.1-2.9c0.5-0.7,0.9-1.5,0.9-2.6c0-0.4,0.2-0.9,0.4-1.2c1-1.2,1.3-2.9,1.5-4.5    c0.4-2.5,0.8-5,0.9-7.7c0.1-1.7,0.3-3.4,0.5-5c0.3-2.8,0.8-5.6,1.1-8.4c0.4-4.7,0.7-9.4,1-14.1c0-0.2,0-0.4,0-0.5    c-0.4-1.5-0.1-3,0-4.5c0-0.7,0.2-1.5-0.6-2.1C637,55.5,636.7,55.9,636.5,56.3"/>
		<path d="M642.8,33.9c0.6-3,0.9-6.1,0.6-9.2c-0.1-0.7-0.2-1.4-0.4-2.1c-0.1-0.2-0.2-0.6-0.3-0.7c-0.9-0.3-1.4-1.1-2-1.9    c-0.1-0.2-0.5-0.1-0.7,0c-0.3,0.2-0.6,0.4-0.7,0.8c-0.9,2.5-1.9,4.9-2.1,7.7c-0.1,1.7-0.1,3.4-0.2,5c0,0.5,0.1,1.1,0.2,1.6    c0.3,1.5,1.3,2.3,2.3,1.6c0.7-0.5,1.4-0.4,2,0.1C642.2,36.1,642.6,35.1,642.8,33.9 M634.4,26.2c0.3-3.9,1.8-6.9,4.3-8.7    c2.4-1.8,5.1-1.4,6.3,2.7c0.7,2.3,1.2,4.7,1.1,7.2c-0.1,2.6-0.1,5.2-0.9,7.6c-0.5,1.6-1,3.1-2.1,4.1c-2.1,1.7-4.3,2-6.5,0.6    c-1-0.7-1.7-1.6-2-3.1c-0.2-1.3-0.3-2.6-0.4-3.9c-0.1-0.9-0.2-1.9-0.4-3.4C634.4,28.5,634.3,27.3,634.4,26.2"/>
		<path d="M587,70.9c0.2,0.2,0.4,0.3,0.4,0.4c0.4,1.9,0.8,3.7,1.1,5.6c0.3,2.1,0.3,4.3,0.5,6.5c0,0.2,0,0.3,0,0.5    c0.6,2.1,0.6,4.2,0.8,6.4c0.5,4.7,1.3,9.4,1.4,14.1c0,0.4,0,0.8,0.1,1.2c0.3,1.3,0.3,2.5,0.3,3.8c0,0.8,0,1.6,0.1,2.4    c0,0.8,0.4,1.4,0.9,1.8c0.4,0.3,0.8,0.5,1.3,0.2c0.6-0.4,1.1-1.1,0.9-1.7c-0.8-2.9-0.6-6-1-9c-0.6-4.5-1.2-9-1.8-13.6    c-0.2-1.7-0.2-3.4-0.4-5c-0.2-1.7-0.4-3.3-0.6-5c-0.4-3.8-0.8-7.7-1.2-11.5c-0.3-3.6-0.6-7.2-0.8-10.8c0-0.6,0-1.2,0-2.1    c0.6,0.4,1,0.7,1.3,1c3.1,3.3,6.1,6.8,8.2,11.3c-0.3,0.9-1,1.2-1.6,1.6c-0.5,0.3-1,0.7-1.6,1c-0.9,0.6-1.2,1.6-1.1,2.9    c0.1,0.5,0.2,1.1,0.4,1.6c0.3,0.7,0.6,1.5,1,2.1c0.6,1,1.1,2,1.3,3.2c0.1,0.7,0.7,1,1.2,0.9c1.1-0.2,1.5-1.1,1.4-2.2    c-0.1-1.4-0.4-2.7-1-3.9c-0.2-0.4-0.4-0.8-0.5-1.3c-0.2-0.6-0.1-1.1,0.4-1.5c0.9-0.7,1.8-1.3,2.7-2c0.3-0.2,0.7-0.5,1-0.8    c0.4-0.5,0.5-1.4,0.1-2c-2.1-3-4.2-5.9-6.4-8.8c-1.9-2.5-3.8-4.8-5.7-7.3c-0.4-0.6-0.8-1.3-1.1-2c-0.3-0.5-0.7-0.8-1.2-0.7    c-0.6,0.1-1.4,0-1.9,0.4c-1.7,1.2-3.7,1.6-5.6,2.1c-2.3,0.6-4.6,1-6.9,1.5c-0.8,0.2-1.7,0.4-2.5,0.6c-0.4,0.1-0.7,0.3-1.1,0.5    c-0.5,0.3-0.7,1-0.5,1.7c0.1,0.4,0.3,0.7,0.4,1.1c0.8,1.9,1.7,3.8,2.6,5.7c0.5,1.1,1.2,2.1,1.8,3.1c1.1,1.7,2.1,3.5,2.8,5.6    c-0.4,0.5-0.8,1.1-1.3,1.5c-1.4,1.1-2.3,2.8-3.5,4.3c-0.7,0.9-0.4,2.1,0.6,2.5c1,0.5,2,0.1,2.4-1.2c0.4-1.4,1.3-2.2,2.2-3    c0.4-0.3,0.8-0.6,1.2-0.8c0.5-0.3,0.9-0.6,1.5-0.9c0.2-0.6,0.5-1.2,0.7-1.8c-0.1-0.3-0.1-0.6-0.2-0.7c-2.3-3-3.9-6.6-5.9-9.9    c-0.9-1.5-1.3-3.1-1.7-4.7c0.4-0.8,1-0.9,1.6-1c2.2-0.5,4.4-0.9,6.6-1.4c0.8-0.2,1.7-0.4,2.5-0.6c0.8-0.2,1.4,0.2,1.4,1.4    c0,2.9,0,5.8-0.1,8.7c-0.1,3.6-0.2,7.2-0.3,10.9c0,2.9-0.2,5.8-0.6,8.6c-0.3,2.7-0.4,5.4-0.6,8.2c-0.2,2.5-0.6,5.1-0.9,7.6    c-0.3,2.3-0.6,4.6-1.2,6.8c-0.5,1.8-0.6,3.6-0.8,5.4c-0.2,1.6,1,2.9,2.3,2.7c1-0.2,1.8-1.4,1.5-2.6c-0.5-1.8-0.3-3.5,0-5.2    c0.4-2.8,0.7-5.6,1-8.4c0-0.2,0.1-0.5,0.1-0.7c-0.1-3.4,0.9-6.7,0.7-10.1c0-0.5,0.1-0.9,0.2-1.4c0.5-2.7,0.7-5.4,0.8-8.1    C586.9,74.6,587.1,72.8,587,70.9"/>
		<path d="M584.5,24.8c0.4-1.6,0.7-3.1,0-4.6c-0.4-0.9-0.7-2-1.7-2.2c-1,0.8-1.2,2-1.3,3.3c-0.3,3.2-0.3,6.4,0.4,9.6    c0.6,2.7,1.7,5,3.5,6.7c0.3,0.3,0.7,0.5,1,0.7c0.6,0.3,1.2,0,1.5-0.6c0.3-0.5,0.5-1.2,0.6-1.8c0.6-3.7,0.4-7.3-0.4-11    c-0.1-0.4-0.2-0.7-0.4-1.1C586.6,24.1,585.8,25.5,584.5,24.8 M579.1,24.7c0-0.7-0.1-1.4-0.1-2.2c0-1.7,0.1-3.4,0.5-5    c0.4-1.4,1.3-2.2,2.5-2.3c1.3-0.1,2.5,0,3.5,1.1c0.4,0.5,0.8,0.7,1.4,0.7c0.9,0,1.6,0.6,2,1.6c0.2,0.5,0.4,1,0.6,1.5    c1.6,4.8,2.1,9.8,1.8,14.9c-0.1,2-0.6,3.8-2.1,5c-0.8,0.7-1.7,1.1-2.8,0.7c-0.5-0.2-1-0.3-1.5-0.6c-3-2.1-5.1-5.1-5.6-9.3    c-0.3-2-0.3-4-0.5-6C578.9,24.7,579,24.7,579.1,24.7"/>
	</g>
	<g id="_x33_">
		<path d="M409.7,24.4c0.4-1.5,0.7-3,0-4.5c-0.4-0.8-0.6-1.9-1.6-2.1c-0.9,0.8-1.2,2-1.3,3.2c-0.3,3.1-0.3,6.2,0.3,9.2    c0.5,2.6,1.6,4.9,3.4,6.5c0.3,0.3,0.7,0.5,1,0.6c0.6,0.3,1.2,0,1.5-0.6c0.2-0.5,0.5-1.1,0.6-1.7c0.6-3.6,0.4-7.1-0.4-10.6    c-0.1-0.4-0.2-0.7-0.4-1.1C411.8,23.8,411,25.1,409.7,24.4 M404.4,24.4c0-0.7-0.1-1.4-0.1-2.1c0-1.6,0.1-3.3,0.5-4.8    c0.4-1.4,1.2-2.2,2.4-2.3s2.4,0,3.4,1.1c0.4,0.4,0.8,0.7,1.4,0.7c0.9,0,1.6,0.6,2,1.5c0.2,0.5,0.4,0.9,0.6,1.4    c1.6,4.6,2,9.5,1.7,14.4c-0.1,1.9-0.6,3.7-2,4.8c-0.8,0.7-1.7,1.1-2.7,0.7c-0.5-0.2-1-0.3-1.4-0.6c-2.9-2-4.9-4.9-5.5-9    c-0.3-1.9-0.3-3.8-0.5-5.8C404.3,24.4,404.4,24.4,404.4,24.4"/>
		<path d="M412.1,69c0.2,0.2,0.4,0.2,0.4,0.4c0.4,1.8,0.8,3.6,1,5.4c0.3,2.1,0.3,4.2,0.5,6.3c0,0.2,0,0.3,0,0.5    c0.6,2,0.6,4.1,0.8,6.2c0.5,4.5,1.2,9,1.3,13.7c0,0.4,0,0.8,0.1,1.2c0.3,1.2,0.3,2.5,0.3,3.7c0,0.8,0,1.6,0.1,2.3    c0,0.7,0.4,1.3,0.9,1.7c0.4,0.3,0.8,0.5,1.2,0.2c0.5-0.3,1-1.1,0.9-1.7c-0.8-2.8-0.6-5.8-1-8.7c-0.6-4.4-1.2-8.7-1.7-13.1    c-0.2-1.6-0.2-3.2-0.4-4.9c-0.1-1.6-0.4-3.2-0.5-4.8c-0.4-3.7-0.8-7.4-1.1-11.1c-0.3-3.5-0.6-7-0.8-10.4c0-0.6,0-1.2,0-2.1    c0.6,0.4,0.9,0.7,1.3,1c3,3.2,5.9,6.6,8,10.9c-0.3,0.8-1,1.1-1.6,1.5c-0.5,0.3-1,0.6-1.5,1c-0.9,0.6-1.2,1.6-1,2.8    c0.1,0.5,0.2,1.1,0.4,1.5c0.3,0.7,0.6,1.4,0.9,2c0.6,1,1.1,1.9,1.2,3.1c0.1,0.7,0.6,1,1.2,0.9c1-0.2,1.5-1,1.4-2.1    c-0.1-1.3-0.4-2.6-1-3.8c-0.2-0.4-0.4-0.8-0.5-1.2c-0.2-0.6-0.1-1.1,0.4-1.4c0.9-0.7,1.7-1.3,2.6-1.9c0.3-0.2,0.7-0.5,0.9-0.8    c0.4-0.5,0.4-1.4,0.1-1.9c-2.1-2.9-4.1-5.7-6.2-8.5c-1.8-2.4-3.7-4.7-5.6-7c-0.4-0.6-0.7-1.2-1.1-1.9c-0.3-0.5-0.6-0.8-1.1-0.7    c-0.6,0.1-1.3,0-1.9,0.4c-1.7,1.2-3.6,1.5-5.4,2c-2.2,0.6-4.5,1-6.7,1.4c-0.8,0.2-1.6,0.3-2.4,0.6c-0.4,0.1-0.7,0.3-1,0.5    c-0.5,0.3-0.6,1-0.5,1.6c0.1,0.4,0.3,0.7,0.4,1.1c0.8,1.8,1.6,3.7,2.5,5.5c0.5,1.1,1.1,2.1,1.8,3c1.1,1.6,2,3.4,2.7,5.4    c-0.4,0.5-0.8,1.1-1.2,1.4c-1.4,1.1-2.3,2.7-3.4,4.1c-0.7,0.8-0.3,2,0.6,2.4c1,0.5,1.9,0.1,2.4-1.2c0.4-1.4,1.2-2.1,2.1-2.9    c0.4-0.3,0.8-0.6,1.1-0.8c0.4-0.3,0.9-0.5,1.5-0.9c0.2-0.5,0.5-1.2,0.7-1.8c-0.1-0.3-0.1-0.5-0.2-0.7c-2.3-2.9-3.8-6.4-5.7-9.6    c-0.9-1.4-1.3-3-1.6-4.6c0.4-0.8,1-0.8,1.6-1c2.1-0.5,4.2-0.9,6.4-1.3c0.8-0.2,1.6-0.4,2.4-0.6c0.8-0.2,1.4,0.2,1.3,1.4    c0,2.8,0,5.6-0.1,8.4c-0.1,3.5-0.2,7-0.3,10.5c0,2.8-0.2,5.6-0.6,8.3c-0.3,2.6-0.3,5.3-0.6,7.9c-0.2,2.5-0.6,4.9-0.9,7.4    c-0.3,2.2-0.6,4.5-1.2,6.6c-0.5,1.7-0.6,3.5-0.8,5.2c-0.2,1.6,1,2.8,2.2,2.6c1-0.2,1.8-1.3,1.4-2.5c-0.5-1.7-0.3-3.4,0-5.1    c0.4-2.7,0.7-5.4,1-8.1c0-0.2,0.1-0.5,0.1-0.7c-0.1-3.3,0.8-6.4,0.7-9.7c0-0.4,0.1-0.9,0.2-1.4c0.5-2.6,0.6-5.2,0.8-7.9    C412,72.6,412.2,70.9,412.1,69"/>
		<path d="M458.5,34.9c0.6-0.5,1.2-0.6,1.9-0.1c0.9,0.6,1.9-0.2,2.2-1.6c0.1-0.5,0.2-1,0.2-1.5c0-1.6,0-3.3-0.2-4.9    c-0.2-2.7-1.2-5.1-2-7.4c-0.1-0.3-0.4-0.6-0.7-0.8c-0.2-0.1-0.6-0.2-0.7,0c-0.6,0.8-1.1,1.6-1.9,1.8c-0.1,0-0.2,0.4-0.3,0.6    c-0.1,0.7-0.3,1.3-0.4,2c-0.3,3,0,6,0.6,8.9C457.3,33.1,457.7,34,458.5,34.9 M465.9,27.3c-0.2,1.5-0.2,2.4-0.3,3.3    c-0.1,1.3-0.2,2.6-0.4,3.8c-0.2,1.4-0.9,2.4-1.9,3c-2.2,1.4-4.3,1.1-6.3-0.5c-1.1-0.9-1.6-2.4-2.1-3.9c-0.7-2.4-0.8-4.9-0.9-7.3    c-0.1-2.4,0.4-4.7,1-7c1.2-3.9,3.8-4.3,6.1-2.6c2.4,1.8,3.8,4.7,4.2,8.4C465.4,25.6,465.3,26.7,465.9,27.3"/>
		<path d="M461.8,51.4c0-0.1,0-0.2-0.1-0.2c0,0-0.1,0-0.1,0.1S461.6,51.5,461.8,51.4C461.7,51.5,461.7,51.4,461.8,51.4 M462.4,52.4    c-0.7,0.7-0.6,1.4-0.6,2.1c0.1,1.5,0.4,2.9,0,4.3c0,0.1,0,0.3,0,0.5c0.3,4.6,0.6,9.1,1,13.7c0.2,2.7,0.7,5.4,1,8.2    c0.2,1.6,0.4,3.2,0.5,4.9c0.1,2.5,0.5,5,0.9,7.4c0.2,1.6,0.5,3.2,1.5,4.4c0.2,0.2,0.3,0.7,0.4,1.2c0.1,1,0.4,1.8,0.9,2.5    s0.6,2.1,0.1,2.8c-0.2,0.3-0.6,0.6-1,0.6c-1.3,0.1-2.5-1.4-2.8-3.2c-0.2-1.5-0.5-3-0.8-4.5c-0.8-3.8-1.1-7.6-1.5-11.5    c-0.4-4-1.1-8-1.6-12c0-0.1-0.2-0.2-0.4-0.5c-0.1,2.2-0.3,4.2-0.3,6.2c-0.1,3.6-0.3,7.2-0.7,10.8c-0.4,2.9-0.4,5.8-0.6,8.7    c-0.1,1.5-0.3,2.9-0.4,4.4c-0.1,1.4-0.3,2.7-0.4,4.1c-0.1,1.2-0.5,1.6-1.4,1.4c-0.1,0-0.3,0-0.4-0.1c-0.8-0.3-1.2-1-1-2.2    c0.1-0.8,0.3-1.7,0.5-2.5c0.5-2.5,0.7-5.1,0.9-7.7c0.3-3.9,0.8-7.9,1.1-11.8c0.1-1.7,0.1-3.4,0.2-5.2c0.2-3.7,0.5-7.4,0.7-11.1    c0.1-1.6,0.1-3.3,0.2-4.9c0.1-3.1,0.2-6.2,0.3-9.3c0-0.3,0-0.7,0-1.1c-0.6-0.3-1.1-0.6-1.7-0.9c-1.9,1.1-8.8,6.5-9.7,7.6    c-0.2,0.2-0.3,0.5-0.4,0.8c0.5,0.5,1.1,0.4,1.5,0.4c2.2-0.1,4.2,1.1,6.3,1.8c0.3,0.1,0.6,0.4,0.8,0.6c0.9,0.8,1,2,0.1,3    c-0.3,0.3-0.6,0.7-0.9,0.9c-1.1,0.5-2.1,0.9-2.7,2.5c-0.3,0.8-1.3,0.4-1.5-0.5c-0.3-0.9-0.3-1.9,0-2.7c0.2-0.6,0.5-1.1,0.8-1.7    c-0.1-0.7-0.5-0.6-0.8-0.7c-1.8-0.6-3.6-0.9-5.5-0.8c-0.6,0-1.1,0.1-1.6-0.4c-0.4-0.4-0.5-1.1-0.2-1.6c0.2-0.3,0.3-0.5,0.5-0.8    c0.7-0.8,1.4-1.6,2-2.4c1.3-1.6,2.7-3,4.3-4.1c2.3-1.6,4.5-3.6,6.7-5.5c0.6-0.5,1.1-1.2,1.6-1.9c0.5-0.7,1.1-1.1,1.8-1.2    c1-0.2,1.8,0.1,2.3,1.3c0.4,0.9,0.9,1.7,1.2,2.6c1.5,3.7,3.7,6.5,6.1,9.2c0,0,0.1,0,0.2,0c0.4-0.6,0.3-1.4,0.3-2.2    c0-3.7-0.4-7.4-1.5-10.9c-0.1-0.4-0.2-0.8-0.4-1.2c-0.8-1.8-0.3-3.5,0-5.2c0.1-0.5,0.4-0.9,0.8-0.9c0.4,0,0.7,0.3,0.9,0.8    c0.1,0.5,0.3,1,0.4,1.5c0.7,3.7,1.4,7.4,2,11.1c0.3,2,0.3,4.1,0.4,6.2c0.1,1.2,0.1,2.4,0.1,3.6c0,0.9-0.4,1.5-1,1.6    c-0.8,0.2-1.5-0.1-2.1-0.8c-2.4-2.6-4.7-5.3-6.5-8.7C463,53.2,462.7,52.9,462.4,52.4"/>
		<path d="M489.4,63.3c-0.2,0.3-0.2,0.5-0.3,1c1.4,0.1,2.8,0,4.1,0c1.4,0,2.8,0.1,4.2,0.2c0.4-0.9,0.3-1.7-0.1-2.5    c-0.2-0.6-0.3-1.1,0-1.6c0.4-0.6,0.4-1.2,0.4-1.9c0-1.6,0.1-3.1,0.1-4.7c0-0.5-0.2-1-0.3-1.5c-0.3,0.1-0.4,0.1-0.5,0.2    c-1.1,1.3-2.2,2.7-3.3,4c-0.2,0.2-0.2,0.3-0.3,0.5C492.3,59.2,490.9,61.3,489.4,63.3 M496.4,74c0.4-2.3,0.8-4.7,0.3-7    c-0.4-0.2-0.7-0.4-1.1-0.4c-2.8-0.1-5.7-0.3-8.4,0.6c-0.5,0.2-1,0.2-1.5,0.2c-0.9,0-1.5-0.8-1.4-1.6c0.1-0.2,0.2-0.5,0.4-0.6    c1.4-0.9,2.4-2.2,3.2-3.6c1.9-3.2,3.8-6.3,5.7-9.5c0.4-0.7,0.8-1.3,1.2-1.9c0.6-0.9,1.2-1.8,1.5-2.9c0.5-1.4,1.8-1.5,2.8-1    c0.7,0.4,1.3,0.9,2.1,1.2c0.1,0,0.2,0.1,0.3,0.2c0.7,1.2,2,1.5,3.2,1.8c2.3,0.6,4.5,1.6,6.6,2.7c0.6,0.3,1.1,0.7,1.9,0.9    c0.3-1.4,0.3-2.7,0-4s-0.6-2.6-0.8-3.9c-0.1-0.4-0.3-0.8-0.6-1.1c-0.9-1-0.8-1.4,0.2-2.3c0.4-0.3,0.7-0.5,1.1-0.8    c0.5-0.3,1-0.7,1.5-1.1c0.9-0.6,2.4-0.4,3.1,0.5c0.1,0.2,0.1,0.5,0.1,0.7c-0.1,0.6-0.4,1-1,1.3c-0.8,0.5-1.7,0.9-2.4,1.7    c0.1,0.7,0.2,1.4,0.4,2.2c0.5,2,1,4,1.5,6c0.2,0.6,0.3,1.3,0.5,1.9c0.3,0.6,0.6,1.1,0.9,1.6c0,0.8-0.2,1.4-1.1,1.7    s-1.8,0.1-2.5-0.5c-1.3-1.1-2.7-2.1-4.2-2.9c-1.6-0.9-3.4-1.7-5.2-2.2c-1.4-0.4-2.9-0.6-4.4-0.8c0,1.2-0.1,2.2-0.1,3.2    c-0.1,1.2-0.1,2.4-0.1,3.6c0,0.8,0,1.7,0.2,2.5c0.3,1.4,0.8,2.8,1.2,4.2c0.2,0.6,0.6,0.9,1.2,1c2.1,0.4,4.1,0.8,6.2,1.3    c0.6,0.1,1.2,0.3,1.8,0.5c0.7,0.3,1.1,0.8,1,1.6c-0.4,0.5-1,0.9-1.7,1.1s-1.4,0.2-1.9-0.5c-0.2-0.3-0.6-0.6-0.9-0.7    c-1.5-0.5-3-0.8-4.5-1c-0.1,0.3-0.2,0.4-0.2,0.6c0.3,2.2,0.7,4.4,0.9,6.6c0.2,1.8,0.3,3.5,0.7,5.2c0.2,0.9,0.5,1.9,0.7,2.8    c0.3,1.6,0.6,3.2,0.8,4.8c0.2,1.4,0.6,2.7,1.2,4c0.4,0.7,0.5,1.5,0.4,2.3c-0.1,0.7-0.1,1.5,0,2.3c0.1,0.6,0.3,1.1,0.5,1.7    c0.1,0.5,0.4,1,0.6,1.5c0.8,2,1.6,4.1,2.3,6.1c0.2,0.5,0.3,1.1,0.4,1.6c0,0.5-0.3,0.9-0.8,1.1c-0.4,0.2-0.9,0.1-1.2-0.2    c-0.2-0.3-0.5-0.6-0.6-0.9c-0.4-1-0.8-2-1.2-2.9c-0.5-1.1-1-2.2-1.5-3.3c-0.8-1.8-1.4-3.7-1.6-5.7c-0.5-4.4-1-8.8-2-13.2    c-0.5-2.4-0.9-4.9-1.2-7.3c-0.2-1.6-0.5-3.2-0.8-4.8c-0.5,0-0.6,0.3-0.6,0.6c-0.1,2-0.8,3.9-0.9,5.9c0,0.6-0.3,1.2-0.4,1.8    c-0.3,2.3-0.5,4.7-0.8,7c-0.2,1.3-0.3,2.5-0.5,3.8c-0.3,2.2-0.7,4.4-1,6.6c-0.1,1.2,0,2.4,0,3.6c0,0.7,0,1.3-0.1,2    c-0.1,0.9-0.2,1.7,0.3,2.5c0.1,0.2,0.1,0.5,0.1,0.7c-0.1,1.4-0.1,2.7-0.2,4c-0.1,1.2-1.2,1.7-2.2,1.1c-0.7-0.4-1.1-0.9-1-1.8    c0.2-1.6,0.3-3.1,0.4-4.7c0.1-1.3,0.3-2.5,0.3-3.8c0.1-2.2,0.3-4.4,0.7-6.6c0.4-2.7,0.6-5.4,0.9-8.1    C495.5,81.2,495.8,77.6,496.4,74"/>
		<path d="M496.3,22.5c-0.2-0.2-0.4-0.4-0.9-0.7c-0.1,0.3-0.3,0.5-0.3,0.7c0,0.8,0,1.5,0,2.2c0.2,2.6,0.9,5.1,1.5,7.6    c0.2,0.7,0.5,1.4,0.9,2c1.2,2,2.3,1.5,3.4,0.4c1-1,1.4-2.3,1.7-3.6c0.7-2.5,0.1-4.9-0.8-7.2c-0.4-1-1-1.9-1.8-2.7    c-0.6-0.6-1.1-0.6-1.7-0.2c-0.6,0.4-1.1,0.9-1.7,1.4C496.6,22.5,496.4,22.5,496.3,22.5 M500.7,16.1c0.1,0.1,0.3,0.2,0.5,0.3    c-0.1,0.1-0.2,0.4-0.3,0.4c-0.3,0.1-0.5,0.1-0.8,0.1c-1.3,0.1-2.3,0.7-3,1.9c0.7-0.1,1.3-0.2,1.9-0.3c1.6-0.2,2.9,0.3,3.8,1.6    c0.8,1.1,1.5,2.3,1.8,3.6c0.4,1.6,1,3.1,1.1,4.8c0.1,2.1-0.2,4.1-1.2,6c-0.2,0.3-0.4,0.6-0.6,0.9c-1.3,2-3.2,2.7-5.6,2.5    c-0.6,0-1-0.2-1.4-0.5c-0.8-0.6-1.3-1.4-1.7-2.2c-1-2.2-1.5-4.5-2-6.8c-0.1-0.9-0.2-1.8-0.4-2.7c-0.2-1.1,0-2.3,0-3.4    c0-0.2,0-0.3,0.1-0.4c0.9-1.5,1.4-3.3,2.8-4.5S498.8,15.8,500.7,16.1"/>
		<path class="st0" d="M553.2,39.9c0.4-0.4,0.3-0.9,0.3-1.2c0-0.6-0.1-1.1,0-1.6c0.1-1,0-1.9-0.1-2.8c0-0.4,0-0.7,0-1.1    c0-0.5,0-1-0.2-1.5c-0.1-0.2-0.1-0.5-0.2-0.7c-0.2-1.2-0.3-2.3-0.4-3.5c-0.1-1.3-0.3-2.7-0.4-4c0-0.5,0-0.9-0.5-1.3    c-0.1-0.1-0.2-0.3-0.2-0.5c-0.2-1.7-0.6-3.4-0.6-5.1c0-1.4-0.1-2.9-0.2-4.3c0-0.3-0.1-0.5-0.6-0.5c-0.4,0.6-1,0.7-1.8,0.7    c-1.6,0-3.1,0.1-4.7,0.1c-0.2,0-0.5,0-0.7,0.1c-1.3,0.3-2.7,0.2-4.1,0.3c-1.9,0.2-3.8,0.2-5.7,0.3c-0.2,0-0.4,0.1-0.8,0.2    c0.3,0.5,0.3,1,0.1,1.4c-0.1,0.2-0.1,0.4-0.1,0.5c-0.1,1.5,0.1,3.1-0.2,4.6c-0.1,0.7,0,1.5-0.1,2.2s0.2,1.5-0.1,2.2    c0,0.1,0,0.1,0,0.2c0,0.6,0.1,1.2,0.1,1.9c0,0.8,0,1.7-0.1,2.5c0,1.2,0,2.4-0.1,3.6c-0.1,1.1,0.1,2.1,0.2,3.2    c0.1,0.6,0.2,1.2,0.3,1.8c0.1,0.4,0.1,0.9,0.4,1.3c0.5,0.1,1.1,0.2,1.6,0.2c1.3,0.1,2.6,0.1,3.9,0.2c1.2,0.1,2.3,0.1,3.5,0.2    c0.3,0,0.5,0,0.8,0c1.6,0,3.3,0,4.9-0.1c0.8,0,1.6,0,2.3,0C551,39.4,552.2,39.2,553.2,39.9 M530,13.9c-0.4,0-0.6,0.1-0.8,0.1    c-0.3,0-0.5-0.1-0.7-0.3c-1.5-1.3-2.1-3-1.8-4.9c0.1-0.6,0.3-1.2,1.1-1.4c0.7-0.2,1.6,0.3,1.7,1c0.1,0.3,0,0.6-0.3,0.9    c-0.8,1-0.5,1.7,0.8,1.9c0.9,0.1,1.9,0.2,2.8,0.1c1.9-0.2,3.9-0.3,5.8-0.5c1.9-0.2,3.8-0.1,5.7-0.2c1-0.1,2-0.2,3.1-0.3    c-0.1-0.7-0.3-1.3-0.3-2c0-0.6,0.1-1.2,0.2-1.9c-0.3,0-0.5,0-0.7,0c-2.2,0-4.4,0-6.6,0c-0.8,0-1.6,0.1-2.5,0.1s-1.8,0.1-2.7,0    c-0.7-0.1-1.4,0.1-2.1,0.1c-1.4,0.2-2.8,0-4.2-0.1c-0.3,0-0.5-0.2-0.8-0.2c-0.4-0.1-0.5-0.4-0.5-0.8c0-0.3,0.2-0.6,0.6-0.7    c0.6-0.2,1.3-0.4,2-0.2c1.4,0.3,2.8,0.2,4.2,0.2c0.7,0,1.4-0.1,2.1-0.2c0.5,0,1.1-0.1,1.6-0.1c1.4,0,2.9-0.1,4.3,0    c2,0,4.1-0.1,6.1-0.3c0.1,0,0.2,0,0.2,0c1.5-0.3,2.1,0.6,2.2,1.9c0,0.1-0.1,0.3-0.2,0.5c0.3,0,0.5,0,0.8,0    c0.7,0.1,1.2,0.4,1.2,1.1c0.1,0.6,0,1.2,0,1.8c0,1.6-0.1,3.3-0.2,4.9c0,0.8-0.1,1.5,0,2.3c0.2,1.7,0.3,3.4,0.6,5.1    c0.1,1,0.3,2,0.3,3c0,0.6,0.1,1.2,0.2,1.9c0.1,1.1,0.2,2.2,0.4,3.3c0,0.3,0.1,0.7,0.2,1c0.3,1.1,0.5,2.3,0.6,3.4    c0.1,0.9,0.1,1.8,0.4,2.6c0.1,0.3,0,0.6,0,0.9c-0.1,0.7,0,1.5,0.3,2.1c0.1,0.3,0.2,0.6,0.2,0.8c0,0.9,0,1.8-0.3,2.7    c-0.1,0.1-0.3,0.2-0.4,0.2c-1,0.4-1.7,0.1-2.1-0.9c-0.1-0.3-0.2-0.6-0.5-0.9c-0.4-0.5-0.9-0.7-1.6-0.7c-1.6,0-3.2,0-4.8,0    c-0.2,0-0.4,0-0.6,0c-0.9-0.3-1.9-0.2-2.8-0.2c-0.2,0-0.5,0-0.7,0c-2.5-0.3-4.9-0.3-7.4-0.5c-1.1-0.1-2.2,0-3.2,0.4    c-0.7,0.2-1.6-0.3-1.6-1c0-0.6-0.1-1.2,0.3-1.8c0.3-0.6,0.4-1.2,0.4-1.9c0-1.6,0-3.2,0-4.7c0-2.6,0-5.1-0.1-7.7c0-1.7,0-3.4,0-5.1    c0-1.2-0.1-2.3-0.1-3.5C530.1,14.9,530.1,14.5,530,13.9"/>
		<path class="st0" d="M536.4,31.9c0.7,0,1.3,0.7,1.3,1.3c0,0.1-0.1,0.4-0.2,0.4c-0.6,0.1-0.6,0.6-0.8,0.9c-0.2,0.2-0.4,0.4-0.7,0.6    c-0.1,0.1-0.4,0.1-0.6,0.1c-0.6-0.2-1.1-0.5-1.3-1.2c-0.1-0.4,0-0.7,0.4-1c0.2-0.1,0.3-0.2,0.5-0.2c0.2-0.1,0.4-0.2,0.5-0.4    C535.8,32.1,536,32,536.4,31.9"/>
		<path class="st0" d="M537.6,25.9c0.8,0,1.3,0.5,1.3,1c0,0.2-0.1,0.4-0.2,0.5c-0.3,0.4-0.8,0.5-1.3,0.3s-0.8-0.5-1-1    c-0.1-0.2,0.2-0.6,0.5-0.7C537.2,26,537.5,25.9,537.6,25.9"/>
		<path class="st0" d="M538.4,30.5c0,0.5-0.6,0.8-1.1,0.7c-0.2-0.1-0.4-0.2-0.6-0.3c-0.5-0.3-0.6-0.8-0.4-1.1    c0.2-0.3,0.9-0.5,1.3-0.4C538,29.5,538.4,30,538.4,30.5"/>
		<path class="st0" d="M539.7,24.5c0.6-0.3,1.1-0.4,1.6,0c0.3,0.2,0.6,0.2,0.9,0.2c0.5,0.1,1.1,0.2,1.6,0.4c0.6,0.3,0.7,1.2,0.1,1.6    c-0.1,0.1-0.3,0.1-0.4,0.2c-0.1,0-0.2,0-0.3,0c-0.5,0-0.9-0.3-1.3-0.5c-0.4-0.2-0.9-0.1-1.3-0.2C539.7,25.8,539.6,25.5,539.7,24.5    "/>
		<path class="st0" d="M547.3,25.4c0.1,0.3,0.2,0.6,0.3,0.9c0.1,0.3-0.1,0.5-0.3,0.6c-0.6,0.3-1.6,0.2-2.1-0.3    c-0.4-0.4-0.2-1.4,0.3-1.6c0.2-0.1,0.4-0.1,0.7-0.1c0-0.1-0.1-0.2-0.1-0.3c-0.1-0.9,0.3-1.3,1.2-1.3c0.2,0,0.4,0,0.6,0.1    c0.7,0.2,0.9,0.8,0.4,1.3C548.1,24.8,547.7,25.1,547.3,25.4"/>
		<path class="st0" d="M547.3,22.3c-0.5,0-0.9-0.2-1.2-0.5c-0.4-0.5-0.2-1.2,0.5-1.2c0.8-0.1,1.2,0,1.5,0.6    C548.4,21.8,548.1,22.3,547.3,22.3"/>
		<path class="st0" d="M546.6,18.4c-0.4,0.4-0.6,0.7-0.9,1c-0.5,0.5-1,0.5-1.5,0c-0.4-0.3-0.4-0.7-0.1-1.1c0.2-0.3,0.5-0.5,0.7-0.8    c0.1-0.1,0.2-0.3,0.3-0.5c-0.2-0.1-0.3-0.2-0.5-0.2s-0.4,0-0.6,0c-0.4,0-0.8-0.2-0.9-0.6c-0.1-0.3,0.1-0.8,0.5-1    c0.2-0.1,0.4-0.1,0.5-0.1c0.9,0,1.8,0.2,2.5,0.8c0.2-0.1,0.4-0.2,0.6-0.4c0.4-0.5,1-0.4,1.5-0.3c0.8,0.2,1.1,1,0.6,1.5    c-0.2,0.3-0.5,0.5-0.8,0.9c0.1,0.2,0.3,0.5,0.5,0.9c0.1,0.3,0.2,0.6-0.1,0.9c-0.4,0.3-0.9,0.4-1.3,0.1c-0.2-0.2-0.4-0.3-0.6-0.5    C546.9,18.8,546.9,18.7,546.6,18.4"/>
	</g>
	<g id="_x32_">
		<path class="st1" d="M209.9,20.3c-0.6,0.1-0.8,0.5-1.1,1c-1.2,2.6-1.8,5.2-1.1,8.1c0.1,0.6,0.1,1.1,0.2,1.7    c0.4,2.2,1.5,3.8,3.6,4.9c1.7,0.9,3,0.5,3.7-1.3c0.6-1.4,0.8-2.9,0.8-4.4c0-3.7-0.9-7.1-2.7-10.3c-0.3-0.5-0.5-1-1.4-1.3    C211.5,19.6,210.8,20.1,209.9,20.3 M217.2,35.6c-0.9,2.1-3.3,3.3-5.5,2.8c-3.1-0.8-5.4-2.5-6-5.9c-0.1-0.7-0.3-1.4-0.4-2    c-0.7-3.4-0.3-6.8,1.2-10c0.3-0.6,0.7-1.1,1.1-1.5c0.9-0.8,1.8-1.6,2.7-2.4c0.2-0.2,0.6-0.3,0.9-0.3c1.3-0.1,2.5,0.1,3.3,1.1    c0.6,0.7,1.2,1.4,1.5,2.2c1.1,3,2,6,2.2,9.3C218.4,31.1,218.1,33.4,217.2,35.6"/>
		<path class="st1" d="M196.8,62.4c1.7,0.8,3.5,1.2,5.2,1.7c1.8,0.5,3.6,1,5.5,1.5c0-0.4,0.1-0.8,0-1c-0.3-0.7-0.3-1.3,0.2-1.9    c0.6-0.7,0.7-1.5,0.8-2.3c0.2-2.6,0.4-5.3,0.6-7.9c0-0.5-0.1-1-0.1-1.7C207.6,51.6,199.9,59,196.8,62.4 M221.2,53.5    c0.1-1.5,0.1-3,0.2-4.5c0.1-1.8-0.2-3.5-0.4-5.2c0-0.3-0.2-0.6-0.4-0.8c-0.7-0.9-0.8-1.1-0.2-2c0.3-0.5,0.7-0.9,1.1-1.3    c0.6-0.5,0.9-1,1.2-1.7c0.1-0.4,0.2-0.7,0.4-1.1c0.2-0.5,0.9-0.8,1.5-0.6c0.5,0.1,0.9,0.7,0.9,1.3c0,0.3-0.1,0.6-0.2,0.9    c-0.3,0.8-0.6,1.7-1,2.4c-0.5,0.9-0.7,1.7-0.5,2.7c0.4,3.1,0.3,6.3,0.2,9.4c-0.1,1.7,0,3.4,0.2,5.1c0.2,1.4-0.4,1.7-1.3,2.2    s-1.6,0.3-2.1-0.5c-1-1.4-2.1-2.7-3.3-3.9c-0.4-0.3-0.7-0.8-1-1.2c-1.3-1.7-2.6-3.4-3.9-5.1c-0.1-0.1-0.2-0.1-0.4-0.2    c-0.3,0.5-0.3,1-0.4,1.6c-0.1,2.7-0.2,5.4-0.4,8.1c-0.2,1.8-0.2,3.6,0.6,5.3c0.1,0.3,0,0.6,0,0.9c0,0.4,0,0.7,0,1.1    c2.1,0.9,4.3,1,6.5,1.4c0.2,0,0.5,0,0.7-0.1c1.1-0.6,2-0.1,2.8,0.3c0.6,0.9,0.3,1.6-0.3,2.2c-0.6,0.6-1.5,1.1-2.3,0.7    c-1.3-0.6-2.7-0.6-4.1-1c-1-0.3-2.1-0.6-3.1-0.6c-0.4,0.6-0.1,1.2,0,1.7c0.2,1.6,0.6,3.1,0.7,4.7c0.1,3.7,0.9,7.4,1.3,11.1    c0.2,1.9,0.4,3.9,0.6,5.8c0.2,2.2,0.4,4.4,0.7,6.6c0.3,2,0.7,4,1.1,6c0.1,0.5,0.3,1,0.6,1.4c0.5,0.9,0.4,1.7,0.1,2.6    s-1.4,1.6-2.2,1.5c-0.6,0-1-0.4-1-0.9c0-1,0-2,0-3c0-0.6,0.1-1.3,0-1.9c-0.3-2.1-0.6-4.1-0.9-6.2c-0.3-2.4-1.1-4.7-0.8-7.1    c0-0.2,0-0.4-0.1-0.6c-0.1-0.7-0.1-1.5-0.2-2.2c-0.2-1.2-0.4-2.5-0.5-3.7c0-0.1-0.1-0.2-0.1-0.3c0,0-0.1,0-0.3,0    c0,0.4-0.1,0.8-0.1,1.2c0.2,3.7,0.2,7.3-0.7,10.9c-0.2,0.6-0.2,1.2-0.2,1.9c-0.1,2.2-0.6,4.4-1.5,6.4c-0.2,0.4-0.3,0.8-0.5,1.2    c-1,1.9-1.9,3.9-2.9,5.8c-0.4,0.7-0.9,1.2-1.7,1.4c-0.5,0.1-0.9-0.1-1.2-0.5c-0.3-0.3-0.3-0.7-0.1-1.1c0.8-1.3,1.5-2.6,2.3-3.9    c0.9-1.5,1.5-3,1.8-4.8c0.1-0.6,0.3-1.2,0.5-1.8c0.5-1.2,0.5-2.5,0.3-3.7c-0.2-0.9-0.1-1.6,0.5-2.3c0.4-0.5,0.7-1.1,0.8-1.7    c0.3-2.4,0.9-4.7,0.8-7.1c-0.1-3.3-0.2-6.5-0.6-9.8c-0.1-1-0.2-1.9-0.1-2.8c0.2-1.7,0.3-3.5,0.1-5.4c-0.4-0.2-0.9-0.4-1.3-0.6    c-4.1-1.2-8.3-2.3-12.5-3.1c-0.4-0.1-0.8-0.1-1.1-0.3c-0.9-0.3-1.2-1.4-0.6-2.1c0.3-0.3,0.6-0.5,0.9-0.7c2.3-1.8,4.5-3.7,6.5-5.9    c0.8-0.9,1.7-1.7,2.6-2.6c1.9-1.7,3.7-3.5,5.3-5.5c0.6-0.8,1.2-1.5,1.3-2.6c0.1-1,1-1.6,2-1.6s2,0.6,2.2,1.5    c0.4,1.6,1.2,3.1,2.2,4.4c0.2,0.3,0.5,0.6,0.6,0.9c0.9,1.7,2.3,3,3.6,4.4c0.2,0.3,0.6,0.4,1.1,0.7C221,54.8,221.1,54.1,221.2,53.5    "/>
		<path d="M255.3,69.1c0.2,0.2,0.4,0.2,0.4,0.4c0.4,1.8,0.8,3.6,1,5.4c0.3,2.1,0.3,4.2,0.5,6.2c0,0.2,0,0.3,0,0.5    c0.6,2,0.6,4.1,0.8,6.2c0.5,4.5,1.3,9,1.3,13.6c0,0.4,0,0.8,0.1,1.2c0.3,1.2,0.3,2.4,0.3,3.7c0,0.8,0,1.6,0.1,2.3    c0,0.7,0.4,1.3,0.9,1.7c0.4,0.3,0.8,0.5,1.3,0.2c0.6-0.3,1-1.1,0.9-1.6c-0.8-2.8-0.6-5.8-1-8.7c-0.6-4.4-1.2-8.7-1.7-13.1    c-0.2-1.6-0.2-3.2-0.4-4.9c-0.2-1.6-0.4-3.2-0.5-4.8c-0.4-3.7-0.8-7.4-1.1-11.1c-0.3-3.5-0.6-6.9-0.8-10.4c0-0.6,0-1.2,0-2.1    c0.6,0.4,1,0.7,1.3,1c3,3.2,6,6.6,8,10.9c-0.3,0.8-1,1.1-1.6,1.5c-0.5,0.3-1,0.6-1.5,1c-0.9,0.6-1.2,1.6-1,2.8    c0.1,0.5,0.2,1.1,0.4,1.5c0.3,0.7,0.6,1.4,0.9,2c0.6,1,1.1,1.9,1.2,3.1c0.1,0.7,0.6,1,1.2,0.9c1-0.2,1.5-1,1.4-2.1    c-0.1-1.3-0.4-2.6-1-3.7c-0.2-0.4-0.4-0.8-0.5-1.2c-0.2-0.6-0.1-1.1,0.4-1.4c0.9-0.7,1.8-1.3,2.6-1.9c0.3-0.2,0.7-0.5,0.9-0.8    c0.4-0.5,0.4-1.4,0.1-1.9c-2.1-2.9-4.1-5.7-6.3-8.5c-1.8-2.4-3.8-4.7-5.6-7c-0.4-0.6-0.7-1.2-1.1-1.9c-0.3-0.5-0.6-0.8-1.1-0.7    c-0.6,0.1-1.4,0-1.9,0.4c-1.7,1.2-3.6,1.5-5.5,2c-2.2,0.6-4.5,1-6.8,1.4c-0.8,0.2-1.6,0.3-2.4,0.6c-0.4,0.1-0.7,0.3-1.1,0.5    c-0.5,0.3-0.6,1-0.5,1.6c0.1,0.4,0.3,0.7,0.4,1c0.8,1.8,1.6,3.7,2.5,5.5c0.5,1.1,1.1,2.1,1.8,3c1.1,1.6,2,3.4,2.8,5.4    c-0.4,0.5-0.8,1.1-1.2,1.4c-1.4,1.1-2.3,2.7-3.4,4.1c-0.7,0.8-0.4,2,0.6,2.4c1,0.5,2,0.1,2.4-1.2c0.4-1.4,1.2-2.1,2.1-2.9    c0.4-0.3,0.8-0.6,1.2-0.8c0.5-0.3,0.9-0.5,1.5-0.9c0.2-0.5,0.5-1.2,0.7-1.8c-0.1-0.3-0.1-0.5-0.2-0.7c-2.3-2.9-3.8-6.4-5.7-9.6    c-0.9-1.4-1.3-3-1.6-4.6c0.4-0.8,1-0.8,1.6-1c2.1-0.5,4.3-0.9,6.4-1.3c0.8-0.2,1.6-0.4,2.4-0.6s1.4,0.2,1.4,1.4    c0,2.8,0,5.6-0.1,8.4c-0.1,3.5-0.2,7-0.3,10.5c0,2.8-0.2,5.6-0.6,8.3c-0.3,2.6-0.4,5.3-0.6,7.9c-0.2,2.5-0.6,4.9-0.9,7.4    c-0.3,2.2-0.6,4.5-1.2,6.6c-0.5,1.7-0.6,3.5-0.8,5.2c-0.2,1.6,1,2.8,2.3,2.6c1-0.2,1.8-1.3,1.4-2.5c-0.5-1.7-0.3-3.4,0-5.1    c0.4-2.7,0.7-5.4,1-8.1c0-0.2,0.1-0.5,0.1-0.7c-0.1-3.3,0.9-6.4,0.7-9.7c0-0.4,0.1-0.9,0.2-1.4c0.5-2.6,0.6-5.2,0.8-7.8    C255.1,72.6,255.4,70.9,255.3,69.1"/>
		<path d="M302.9,36.1c0.6-2.9,0.9-5.9,0.6-8.9c-0.1-0.7-0.2-1.3-0.4-2c-0.1-0.2-0.2-0.6-0.3-0.6c-0.8-0.3-1.4-1-2-1.8    c-0.1-0.2-0.5-0.1-0.7,0c-0.3,0.2-0.6,0.4-0.7,0.8c-0.9,2.4-1.9,4.7-2.1,7.4c-0.1,1.6-0.1,3.2-0.2,4.9c0,0.5,0.1,1,0.2,1.5    c0.3,1.4,1.3,2.2,2.2,1.6c0.7-0.5,1.3-0.4,1.9,0.1C302.3,38.1,302.7,37.2,302.9,36.1 M294.7,28.6c0.3-3.8,1.7-6.7,4.2-8.4    c2.4-1.7,5-1.3,6.2,2.6c0.7,2.3,1.1,4.6,1.1,7c-0.1,2.5-0.1,5-0.9,7.3c-0.5,1.5-1,3-2.1,3.9c-2,1.6-4.2,2-6.4,0.5    c-1-0.6-1.7-1.6-1.9-3c-0.2-1.3-0.3-2.5-0.4-3.8c-0.1-0.9-0.2-1.8-0.3-3.3C294.7,30.8,294.6,29.7,294.7,28.6"/>
		<path d="M252.8,24.5c0.4-1.5,0.7-3,0-4.5c-0.4-0.8-0.7-1.9-1.7-2.1c-1,0.8-1.2,2-1.3,3.2c-0.3,3.1-0.3,6.2,0.4,9.2    c0.6,2.6,1.6,4.9,3.4,6.5c0.3,0.3,0.7,0.5,1,0.6c0.6,0.3,1.2,0,1.5-0.6c0.3-0.5,0.5-1.1,0.6-1.7c0.6-3.6,0.4-7.1-0.4-10.6    c-0.1-0.4-0.2-0.7-0.4-1.1C254.9,23.9,254.1,25.2,252.8,24.5 M247.5,24.5c0-0.7-0.1-1.4-0.1-2.1c0-1.6,0.1-3.3,0.5-4.8    c0.4-1.4,1.2-2.2,2.4-2.3c1.2-0.1,2.4,0,3.4,1.1c0.4,0.4,0.8,0.7,1.4,0.7c0.9,0,1.6,0.6,2,1.5c0.2,0.5,0.4,0.9,0.6,1.4    c1.6,4.6,2,9.4,1.7,14.4c-0.1,1.9-0.6,3.6-2,4.8c-0.8,0.7-1.7,1.1-2.7,0.7c-0.5-0.2-1-0.3-1.4-0.6c-2.9-2-5-4.9-5.5-9    c-0.3-1.9-0.3-3.8-0.5-5.8C247.4,24.5,247.4,24.5,247.5,24.5"/>
		<path d="M298.4,55.5c0,0,0-0.1,0.1-0.2l-0.1-0.1C298.4,55.2,298.3,55.3,298.4,55.5C298.3,55.5,298.4,55.6,298.4,55.5 M296.8,57.6    c-1.9,3.3-4.2,6-6.6,8.6c-0.7,0.7-1.3,1-2.1,0.8c-0.6-0.1-1-0.7-1-1.6c0-1.2,0-2.4,0.1-3.6c0.1-2.1,0.1-4.2,0.4-6.2    c0.6-3.7,1.3-7.4,2-11.1c0.1-0.5,0.2-1,0.4-1.5s0.4-0.8,0.9-0.8c0.4,0,0.7,0.3,0.8,0.9c0.3,1.7,0.8,3.5,0,5.2    c-0.2,0.4-0.2,0.8-0.4,1.2c-1.1,3.5-1.5,7.1-1.5,10.9c0,0.7-0.1,1.5,0.3,2.2c0.1,0,0.2,0,0.2,0c2.4-2.7,4.6-5.4,6.1-9.1    c0.4-0.9,0.8-1.8,1.3-2.6c0.6-1.1,1.4-1.5,2.3-1.3c0.7,0.2,1.3,0.6,1.9,1.2c0.5,0.7,1,1.4,1.6,1.9c2.2,1.9,4.4,3.9,6.7,5.4    c1.6,1.1,3,2.5,4.4,4.1c0.7,0.8,1.4,1.6,2,2.4c0.2,0.2,0.4,0.5,0.5,0.7c0.3,0.5,0.2,1.2-0.2,1.6c-0.5,0.5-1.1,0.4-1.7,0.4    c-1.9-0.1-3.7,0.2-5.5,0.8c-0.3,0.1-0.7,0-0.8,0.7c0.2,0.5,0.5,1.1,0.8,1.7c0.4,0.9,0.3,1.8,0,2.7c-0.3,0.9-1.2,1.3-1.6,0.5    c-0.6-1.6-1.7-2-2.8-2.5c-0.4-0.2-0.7-0.5-1-0.9c-0.9-1-0.8-2.2,0.1-3c0.3-0.2,0.5-0.5,0.8-0.6c2.1-0.7,4.1-1.8,6.4-1.8    c0.5,0,1,0.2,1.6-0.4c-0.2-0.3-0.2-0.6-0.4-0.8c-0.9-1.1-7.9-6.4-9.8-7.6c-0.6,0.3-1.1,0.6-1.7,0.9c0,0.5,0,0.8,0,1.1    c0.1,3.1,0.2,6.2,0.3,9.3c0.1,1.6,0.1,3.3,0.2,4.9c0.2,3.7,0.5,7.4,0.7,11.1c0.1,1.7,0.1,3.5,0.2,5.2c0.3,3.9,0.8,7.9,1.1,11.8    c0.2,2.6,0.4,5.1,0.9,7.6c0.2,0.8,0.4,1.7,0.5,2.5c0.2,1.1-0.2,1.8-1,2.1c-0.1,0.1-0.3,0.1-0.4,0.1c-0.9,0.2-1.3-0.2-1.4-1.4    c-0.1-1.4-0.3-2.7-0.4-4.1c-0.1-1.5-0.3-2.9-0.4-4.4c-0.2-2.9-0.2-5.9-0.6-8.7c-0.4-3.6-0.6-7.2-0.7-10.8c-0.1-2-0.2-4-0.3-6.2    c-0.2,0.3-0.4,0.4-0.4,0.5c-0.6,4-1.2,7.9-1.6,11.9c-0.4,3.8-0.7,7.7-1.5,11.4c-0.3,1.5-0.6,3-0.8,4.5c-0.3,1.7-1.5,3.2-2.8,3.2    c-0.3,0-0.8-0.3-1-0.6c-0.5-0.8-0.4-2.1,0.1-2.8c0.5-0.7,0.8-1.5,0.9-2.5c0-0.4,0.2-0.9,0.4-1.1c1-1.1,1.3-2.8,1.5-4.4    c0.4-2.4,0.8-4.9,0.9-7.4c0.1-1.6,0.3-3.2,0.5-4.9c0.3-2.7,0.8-5.4,1-8.2c0.4-4.5,0.7-9.1,1-13.6c0-0.2,0-0.4,0-0.5    c-0.4-1.4-0.1-2.9,0-4.3c0-0.7,0.2-1.4-0.6-2.1C297.3,56.9,297,57.3,296.8,57.6"/>
		<path d="M356.8,65.3c-1.5-2-2.9-4.1-4-6.3c-0.1-0.2-0.1-0.3-0.3-0.5c-1.1-1.3-2.2-2.7-3.3-4c-0.1-0.1-0.2-0.1-0.5-0.2    c-0.1,0.5-0.3,1-0.3,1.5c0,1.6,0.1,3.1,0.1,4.7c0,0.7,0,1.3,0.4,1.9c0.3,0.5,0.2,1,0,1.6c-0.4,0.8-0.5,1.6-0.1,2.5    c1.4-0.1,2.8-0.2,4.2-0.2c1.3,0,2.7,0.1,4.1,0C357,65.8,357,65.6,356.8,65.3 M349.8,76c0.6,3.6,0.9,7.2,1.3,10.8    c0.3,2.7,0.5,5.4,0.9,8.1c0.4,2.2,0.6,4.4,0.7,6.6c0,1.3,0.2,2.5,0.3,3.8c0.1,1.6,0.2,3.1,0.4,4.7c0.1,0.9-0.3,1.4-1,1.8    c-1,0.6-2.1,0.1-2.2-1.1c-0.1-1.3-0.1-2.6-0.2-4c0-0.2,0-0.5,0.1-0.7c0.5-0.8,0.4-1.6,0.3-2.5c-0.1-0.7-0.1-1.3-0.1-2    c0-1.2,0.1-2.4,0-3.6c-0.3-2.2-0.7-4.4-1-6.6c-0.2-1.3-0.3-2.5-0.5-3.8c-0.3-2.3-0.5-4.7-0.8-7c-0.1-0.6-0.4-1.2-0.4-1.8    c-0.1-2-0.8-3.9-0.9-5.9c0-0.3-0.1-0.6-0.6-0.6c-0.3,1.6-0.6,3.2-0.8,4.8c-0.3,2.4-0.7,4.9-1.2,7.3c-1,4.4-1.5,8.8-2,13.2    c-0.2,2-0.8,3.9-1.6,5.7c-0.5,1.1-1,2.2-1.5,3.3c-0.4,0.9-0.8,1.9-1.2,2.9c-0.1,0.3-0.4,0.6-0.6,0.9c-0.3,0.3-0.8,0.4-1.2,0.2    c-0.5-0.2-0.8-0.6-0.8-1.1c0.1-0.5,0.2-1.1,0.4-1.6c0.7-2,1.5-4.1,2.3-6.1c0.2-0.5,0.5-1,0.6-1.5c0.2-0.6,0.4-1.1,0.5-1.7    c0.1-0.8,0.1-1.6,0-2.3c-0.1-0.8,0-1.6,0.4-2.3c0.6-1.3,1-2.6,1.2-4c0.2-1.6,0.5-3.2,0.8-4.8c0.2-0.9,0.5-1.9,0.7-2.8    c0.4-1.7,0.5-3.4,0.7-5.2c0.2-2.2,0.6-4.4,0.9-6.6c0-0.2-0.1-0.3-0.2-0.6c-1.5,0.2-3,0.5-4.5,1c-0.3,0.1-0.7,0.4-0.9,0.7    c-0.5,0.7-1.2,0.7-1.9,0.5s-1.3-0.6-1.7-1.1c-0.1-0.8,0.3-1.3,1-1.6c0.6-0.2,1.2-0.4,1.8-0.5c2.1-0.5,4.1-0.9,6.2-1.3    c0.6-0.1,1-0.4,1.2-1c0.4-1.4,0.9-2.8,1.2-4.2c0.2-0.8,0.2-1.7,0.2-2.5c0-1.2,0-2.4-0.1-3.6c0-1-0.1-2-0.1-3.2    c-1.5,0.2-3,0.4-4.4,0.8c-1.8,0.5-3.6,1.3-5.2,2.2c-1.5,0.8-2.9,1.8-4.2,2.9c-0.7,0.6-1.6,0.8-2.5,0.5s-1.1-0.9-1.1-1.7    c0.3-0.5,0.6-1,0.9-1.6c0.2-0.6,0.3-1.3,0.5-1.9c0.5-2,1-4,1.5-6c0.2-0.8,0.3-1.5,0.4-2.2c-0.7-0.8-1.6-1.2-2.4-1.7    c-0.6-0.3-0.9-0.7-1-1.3c0-0.2,0-0.5,0.1-0.7c0.7-0.9,2.2-1.1,3.1-0.5c0.5,0.4,1,0.8,1.5,1.1c0.4,0.3,0.7,0.5,1.1,0.8    c1,0.9,1.1,1.3,0.2,2.3c-0.3,0.3-0.5,0.7-0.6,1.1c-0.2,1.3-0.5,2.6-0.8,3.9s-0.3,2.6,0,4c0.8-0.2,1.3-0.6,1.9-0.9    c2.1-1.1,4.3-2.1,6.6-2.7c1.2-0.3,2.5-0.6,3.2-1.8c0.1-0.1,0.2-0.2,0.3-0.2c0.8-0.3,1.4-0.8,2.1-1.2c1-0.5,2.3-0.4,2.8,1    c0.3,1.1,0.9,2,1.5,2.9c0.4,0.6,0.8,1.2,1.2,1.9c1.9,3.2,3.8,6.3,5.7,9.5c0.8,1.4,1.8,2.7,3.2,3.6c0.2,0.1,0.3,0.4,0.4,0.6    c0.1,0.8-0.5,1.6-1.4,1.6c-0.5,0-1,0-1.5-0.2c-2.7-0.9-5.6-0.7-8.4-0.6c-0.4,0-0.7,0.2-1.1,0.4C349,71.3,349.4,73.7,349.8,76"/>
		<path d="M349.9,24.5c-0.1,0-0.3,0-0.3-0.1c-0.6-0.5-1.1-1-1.7-1.4c-0.6-0.4-1.1-0.4-1.7,0.2c-0.8,0.8-1.4,1.7-1.8,2.7    c-0.9,2.3-1.5,4.7-0.8,7.2c0.3,1.3,0.7,2.6,1.7,3.6c1.1,1.1,2.2,1.6,3.4-0.4c0.4-0.6,0.7-1.3,0.9-2c0.6-2.5,1.3-5,1.5-7.6    c0-0.7,0-1.4,0-2.2c0-0.2-0.2-0.4-0.3-0.7C350.3,24.1,350.1,24.3,349.9,24.5 M345.5,18.1c1.9-0.3,3.6,0.1,5,1.3s1.9,3,2.8,4.5    c0.1,0.1,0.1,0.2,0.1,0.4c0,1.1,0.2,2.3,0,3.4c-0.2,0.9-0.3,1.8-0.4,2.7c-0.5,2.3-1,4.6-2,6.8c-0.4,0.8-0.9,1.6-1.7,2.2    c-0.4,0.3-0.8,0.5-1.4,0.5c-2.4,0.2-4.3-0.5-5.6-2.5c-0.2-0.3-0.4-0.6-0.6-0.9c-1-1.9-1.3-3.9-1.2-6c0.1-1.7,0.7-3.2,1.1-4.8    c0.3-1.3,1-2.5,1.8-3.6c0.9-1.3,2.2-1.8,3.8-1.6c0.6,0.1,1.2,0.2,1.9,0.3c-0.7-1.2-1.7-1.8-3-1.9c-0.3,0-0.5,0-0.8-0.1    c-0.1,0-0.2-0.3-0.3-0.4C345.2,18.3,345.4,18.2,345.5,18.1"/>
	</g>
	<g id="_x31_">
		<path class="st1" d="M105,45.1c0.5,0.1,0.9,0.1,1.3,0.2c0.9,0.1,1.5,0.6,1.7,1.5c0.2,0.9-0.1,1.7-0.9,2.2c-1,0.6-2,1.3-3,2    c-3.4,2.5-6.6,5.3-9.5,8.4c-0.6,0.7-1.4,1.3-2.1,1.9c-1.4-0.2-2.3-0.9-3.1-1.9c-1.9-2.3-3.8-4.5-5.8-6.7c-0.3-0.3-0.6-0.5-1.2-1.1    c-0.4,6-1.1,11.6-1.2,17.1c-0.9,0.7-1.5,0.4-2.1-0.1c-0.7-0.5-1.2-1.1-1.1-2c0.1-2.4,0.3-4.8,0.5-7.2c0.2-2.8,0.4-5.6,0.3-8.4    c-4,4.4-7.2,9.3-10.6,14.3c-1.3-0.1-2.6-0.2-3.8-0.3c-0.8-0.1-1.3-0.6-1.6-1.4c-0.4-1.1,0.1-2,1.3-1.9c1.9,0.1,2.6-0.9,3.3-2.4    c0.3-0.8,1-1.4,1.5-2.1c2.1-2.8,4.3-5.5,6.4-8.3c1-1.3,2-2.7,2.8-4.2c0.8-1.3,2-1.2,3.1-1.1c1,0.1,1.9,1.4,1.7,2.7    c-0.3,1.5,0.5,2.5,1.3,3.4c1.6,2,3.4,4,5.1,6c1.3,1.5,1.8,1.5,3.3,0.2c3.2-2.7,6.4-5.5,9.6-8.2C103.1,46.8,104,46,105,45.1"/>
		<path class="st1" d="M79.8,29.6c-0.2,0.1-0.3,0.1-0.5,0.2c0.5,1.7,0.9,3.5,1.5,5.1c0.5,1.3,1.3,1.4,2.4,0.6c0.8-0.6,1.6-1.3,2-2.4    c1-2.6,1.4-5.2,1.1-7.9c-0.1-1.1-0.1-2.2-0.5-3.2c-0.2-0.6-0.8-1.3-1.4-1.5c-0.4-0.1-1.1,0.6-1.5,1c-0.3,0.3-0.5,0.8-0.7,1.2    c-0.8,2.3-1.4,4.5,0.6,6.5c0.4,0.4,0.5,1.2,0.8,1.8C82,31.4,80.8,30.6,79.8,29.6 M76.3,22.4c0.1-1.7,0.4-3.2,2-4.2    c0.3-0.2,0.8-0.5,1.1-0.4c1.3,0.6,2.3-0.3,3.4-0.5c2-0.4,3.4,0.9,4.6,2.3c0.5,0.6,0.8,1.3,1,2c1.5,5.1,1.6,10.2-0.9,15.1    c-1.4,2.8-4.4,3.5-6.9,1.5c-1.7-1.3-2.6-3.2-3.2-5.2C76.4,29.4,76.1,25.9,76.3,22.4"/>
		<path class="st0" d="M150.6,11.3c-0.2-0.5-0.4-1-0.5-1.4c-0.1-0.3,0-0.6,0.3-0.8c0.2-0.1,0.5-0.2,0.8-0.3c0-1.1-0.2-1.3-1.1-1.6    c-0.2-0.1-0.3-0.1-0.5-0.1c-0.4-0.1-0.7,0.1-0.7,0.5c0,1.4,0.2,2.7,0.8,3.9C150,11.5,150.2,11.4,150.6,11.3 M147,6.9    c-0.3,0-0.4-0.1-0.5-0.1c-1.3,0-2.6,0.1-3.8,0.1c-0.9,0-1.8-0.1-2.7-0.1c-1.6-0.1-3.3,0.1-4.9-0.3c-1.7-0.1-3.5,0-5,0.9    c-0.4,0.2-0.8,0.3-1.2,0.5c-0.5,0.2-0.5,0.8-0.9,1.1c-0.4,0.3-0.5,0.8-0.5,1.2c-0.1,0.8,0.5,1.4,1.4,1.3c0.2,0,0.5,0,0.7,0    c1.1,0.4,2.3,0.5,3.5,0.6c2.7,0.3,5.5,0.3,8.2,0c2-0.2,4-0.5,6-0.4c0.2,0,0.4-0.1,0.6-0.1C147.5,10,146.9,8.5,147,6.9 M151.7,41.1    c0.1-0.8,0.3-1.5,0.2-2.1c-0.1-0.9,0.1-1.7-0.1-2.6c-0.1-0.2,0.1-0.5,0.1-0.7c0.2-0.9,0.4-1.8,0.3-2.8c-0.2-1.6-0.3-3.2-0.6-4.8    c-0.2-1.1-0.3-2.1-0.3-3.2c0-1.4,0-2.8-0.1-4.2c-0.1-1.5-0.2-3-0.1-4.5c0.1-0.9-0.1-1.1-0.9-1.4c-0.4-0.1-0.8-0.4-1-0.7    c-0.4-0.5-0.9-0.6-1.5-0.7c-1,0-1.9-0.1-2.9,0c-0.4,0.1-0.8,0-1.1,0c-0.4,0-0.8,0-1.2,0c-2.1,0.2-4.1,0.4-6.2,0.4    c-0.5,0-1,0-1.5-0.1c-1.3-0.1-2.5-0.3-3.8-0.4c-0.6-0.1-0.8,0.2-0.7,0.7c0,0.2,0.1,0.3,0.2,0.5c0.2,0.4,0.2,0.9,0.3,1.4    c0.2,2.1-0.3,4.3-0.1,6.4c0,0.2-0.1,0.5-0.1,0.7c-0.1,1.2-0.2,2.3-0.3,3.5c-0.1,1.1,0,2.3-0.2,3.4c-0.1,0.6-0.1,1.3,0,1.9    c0.2,1.1,0.1,2.2,0.4,3.2c0,0,0,0.1,0,0.1c0.1,0.9,0.1,1.9,0.2,2.8c0.1,0.6,0.2,1.2,0.3,1.9c0.1,0.4,0.3,0.6,0.6,0.7    c0.9,0.2,1.8,0.3,2.7,0.2c1-0.1,1.9-0.1,2.9-0.2c1.2,0,2.5-0.1,3.7-0.5c0.6-0.2,1.3-0.2,2-0.2c0.4,0,0.8,0.1,1.2,0    c0.6,0,1.2-0.1,1.8-0.1c1-0.1,2,0,3,0.4C149.6,40.9,150.6,40.9,151.7,41.1 M127.9,13.2c-0.5-0.3-1-0.6-1.5-0.9    c-1.1-0.6-1.4-1.4-1-2.6c0.1-0.4,0.3-0.7,0.4-1.1c0.3-0.6,0.5-1.2,0.7-1.8c0.2-0.5,0.5-0.9,1.1-0.8c1,0.1,1.8-0.3,2.7-0.7    c1.1-0.5,2.3-0.6,3.5-0.6c1.1,0,2.3,0.2,3.4,0.2c1.6,0.1,3.1,0.1,4.7,0.1c1.5,0,2.9-0.1,4.4-0.2c0.3,0,0.6,0,0.9,0.1    c0.6,0,1.2,0.1,1.9,0.1c0.2,0,0.3,0,0.5,0c1.5,0.1,2.4,1.1,3,2.4c0.2,0.4,0.3,0.8,0.3,1.2c0.1,0.6,0.2,1.3,0.4,1.9    c0.1,0.2,0.1,0.4,0,0.6c-0.4,1-0.4,2.1-0.5,3.2c0,0.4-0.1,0.8-0.1,1.2c-0.2,1.3-0.1,2.6-0.1,3.9c0,1.8,0.1,3.5,0.1,5.3    c0,1,0.1,2,0.4,3c0.1,0.3,0.1,0.6,0.2,0.9c0.2,1.1,0.3,2.2,0.6,3.3c0.1,0.4,0.1,0.8,0.1,1.2c-0.1,1.3-0.1,2.6,0.2,3.9    c0.1,0.4,0,0.8-0.1,1.2c-0.3,1-0.5,2-0.4,3c0,0.3,0.2,0.6,0.3,0.9c0.1,0.2,0.2,0.5,0.2,0.7c0,0.8-0.6,1-1.3,1.1    c-0.3,0-0.7-0.1-1-0.3c-0.6-0.5-1.3-0.7-2.1-0.8c-0.3,0-0.5-0.1-0.8-0.2c-1-0.4-2.1-0.5-3.2-0.3c-0.4,0.1-0.9,0.1-1.3,0.2    c-0.5,0.1-0.9,0-1.4-0.1c-0.5-0.2-1-0.2-1.5-0.1c-0.4,0-0.8,0.1-1.1,0.2c-1.4,0.3-2.9,0.2-4.3,0.3c-0.8,0-1.6,0-2.4,0.1    c-0.7,0.1-1.4,0-2.1-0.1c-0.3-0.1-0.7-0.1-1-0.2c-0.5-0.1-1.1-0.2-1.6-0.2c-0.5,0-1-0.1-1.3-0.5c-0.4-0.5-0.4-1.1,0.1-1.5    c0.1-0.1,0.2-0.1,0.3-0.2c0.8-0.2,0.9-0.8,0.8-1.5c-0.1-1.6-0.2-3.1-0.3-4.7c-0.1-1.1-0.1-2.3,0-3.4c0.1-1.1,0.1-2.3,0.1-3.4    c0-0.7,0.1-1.5,0.1-2.2c0-0.7,0-1.5,0-2.2c0-0.2,0-0.4,0-0.6c0.2-1.5,0-2.9,0-4.4c0-0.5-0.1-1-0.2-1.5c-0.1-0.4-0.2-0.8-0.5-1.1    c-0.5-0.5-0.5-1-0.2-1.6C128,13.5,127.9,13.4,127.9,13.2"/>
		<path class="st0" d="M144.2,33.4c-1.4-0.2-2.7-0.4-4.1-0.4c-0.3,0.9-0.2,1.8,0.2,2.7c0.2,0,0.3,0,0.5,0c0.7-0.1,1.4-0.2,2.2-0.1    c0.5,0,1-0.1,1.6-0.2C144.6,34.7,144.4,34.1,144.2,33.4 M133.5,22.6c0.7,0.2,2.3,0.4,3.2,0.3c0.5,0,1-0.1,1.4-0.4    c0-0.9,0-1.7-0.3-2.6c-0.1-0.3-0.1-0.7-0.2-1c-0.1-0.5-0.2-0.6-0.6-0.6c-0.3,0-0.7,0-1,0c-0.7,0-1.4,0-2,0.3    C133.8,19.9,133.6,21.3,133.5,22.6 M141.5,31.3c1.1,0.1,2.1,0.4,3.2,0.3c0.3,0,0.6,0,0.8,0.1c0.7,0.2,0.9,0.5,0.9,1.2    c0,0.7,0.1,1.4,0.3,2.1c0.1,0.4,0.2,0.7,0.4,1.1c0.5,1.1-0.3,1.5-1.1,1.5c-0.2,0-0.3-0.1-0.5-0.1c-1.3-0.3-2.7-0.1-4,0    c-0.3,0-0.6,0.2-0.8,0.4c-0.3,0.2-0.6,0.4-1,0.6c-0.4,0.2-0.7,0.2-1.1,0c-0.4-0.2-0.6-0.4-0.5-1c0.2-0.7,0.1-1.4,0.1-2.2    c0-0.5-0.1-1-0.1-1.6c0-0.3,0-0.7-0.1-1c-0.1-0.4-0.1-0.7,0.1-1.1c0.2-0.3,0.5-0.4,0.9-0.4c0.1,0,0.1,0,0.2-0.1    c0-0.8,0-1.3-0.3-1.9c0-0.1-0.1-0.2-0.2-0.3c-0.3-0.7-0.1-1.2,0.6-1.4c0.1,0,0.2-0.1,0.3-0.1c1.5,0.1,2.8-0.6,4.2-0.9    c0-0.2,0.1-0.4,0.1-0.6c-0.1-1.7-0.3-3.3-0.2-5c0-0.2-0.1-0.5-0.1-0.8c-0.8,0-1.4,0.1-2.1,0.5c-0.4,0.2-0.7,0.4-1.1,0.6    c-0.3,0.2-0.4,0.3-0.3,0.7c0.1,0.4,0.2,0.8,0.3,1.2c0.2,0.7-0.1,1.1-0.7,1.2c-0.2,0-0.4,0.1-0.6,0.1c-1.4,0.1-2.8,0.3-4.1,0    c-0.6-0.1-1.2-0.1-1.9,0.1c-0.4,0.1-0.8,0.1-1.2-0.1c-0.5-0.3-0.7-0.7-0.4-1.3c0.2-0.5,0.4-1,0.6-1.5c0.3-0.7,0.3-1.4,0.3-2.2    c0-0.5-0.1-0.9-0.5-1.2c-0.4-0.4-0.4-0.9,0.1-1.3c0.3-0.3,0.7-0.5,1.1-0.3c1.1,0.4,2.2,0.2,3.3,0.2c1.1,0,2.2-0.1,3.3-0.1    c0.1,0,0.3,0,0.4,0.1c0.3,0.1,0.5,0.4,0.4,0.8c-0.1,0.2-0.2,0.4-0.3,0.5c-0.1,0.2-0.2,0.3-0.3,0.5c0,0.6,0.2,0.8,0.7,0.6    c1.1-0.5,2.3-0.7,3.4-1.3c0.8-0.4,1.7,0.1,1.8,1c0.1,0.5,0.1,1,0,1.5c-0.1,0.8-0.1,1.7-0.1,2.5c0,0.6,0,1.2,0.1,1.9    c0.1,0.8,0.2,1.5,0.7,2.1c0.2,0.3,0.3,0.6,0.1,1c-0.2,0.4-0.5,0.6-1,0.6c-0.1,0-0.2,0-0.3,0c-0.9-0.3-1.8-0.1-2.7,0.1    c-0.4,0.1-0.8,0.3-1.2,0.5c-0.1,0-0.1,0.2-0.1,0.4c0,0.1,0,0.1,0.1,0.2C141.5,30.4,141.5,30.4,141.5,31.3"/>
		<path d="M97,76.7c-1.2-0.1-2.3-0.3-3.3-0.3c-3.6,0.2-7.3,0.5-10.9,0.7c-2,0.1-4-0.1-6.1-0.1c-1.3,0-2.6,0-4.1,0    c-0.2,2.3-0.3,4.3-0.5,6.4c-0.1,0.7-0.2,1.4-0.4,2c-0.3,0.8-1.2,1-1.8,0.3c-0.7-0.9-0.9-1.9-0.6-3.1c0.4-1.6,0.5-3.3,0.5-5    c-1.5,0-2.7-0.6-4.1-0.4c-1,0.1-2-1.5-1.7-2.5c0.1-0.2,0.1-0.4,0.3-0.4c0.9-0.3,1.9-0.9,2.7-0.7c1.5,0.4,3,0.2,4.5,0.2    c2.7,0,5.4,0.2,8.1,0.1c3.6-0.1,7.1-0.5,10.7-0.7c2.9-0.1,5.8,0,8.6,0c1.4,0,2.9-0.2,4.3-0.3c1.3-0.1,2.1,0.4,2.4,1.6    c0.2,1-0.1,1.6-1.1,1.7c-1.1,0.2-2.2,0.3-3.3,0.4c-0.8,0.1-1.2,0.3-1.2,1.1c0.1,2.1,0.1,4.1,0.2,6.2c0,1,0,2.1-0.1,3.1    c0,0.4-0.4,0.8-0.8,1c-0.2,0.1-0.8-0.2-1-0.4c-0.9-0.9-1.3-1.9-1.2-3.2C97.3,81.8,97.1,79.4,97,76.7"/>
		<path d="M62,93.8c-0.5-0.6-1-1-1.4-1.5c-2,0.9-3.3,2.7-3.3,4.5c0,1.1,0.5,1.8,1.4,2.2c1.4,0.5,3.5-0.3,3.9-1.7    c0.4-1.2,0.5-2.4,0.7-3.7c0-0.1-0.2-0.3-0.3-0.5C62.7,93.3,62.4,93.5,62,93.8 M65.8,95.8c-0.3,1.2-0.6,2.3-0.9,3.5    c-0.6,1.9-2,2.8-3.9,2.9c-4,0.2-5.9-2.8-6.2-5.6c-0.4-3.2,1.4-5.2,3.7-6.9c0.8-0.6,1.6-1.6,2.9-1.2c0.5,0.1,1,0.2,1.4,0.6    C64.7,90.8,66.1,92.9,65.8,95.8"/>
		<path d="M71.6,101.5c-1.5,1.4-2.3,3.3-2.7,5.4c-0.3,1.3,0.4,1.9,1.7,1.9c1.7,0,2.6-1.2,3.4-2.4c0.6-0.9,1.3-1.9,1.1-3.2    c-0.1-0.6-0.3-1-1.1-1.1C73.2,102,72.5,101.8,71.6,101.5 M77.6,104.5c-0.5,2.5-1.2,4.5-2.9,6.2c-1.3,1.3-2.8,1.8-4.5,1.4    c-2-0.5-3.1-1.9-3.6-3.8c-1-3.9,0.7-6.9,3.3-9.6c0.2-0.2,0.5-0.4,0.8-0.3c1.5,0.2,3.2,0.2,4.5,0.8    C77.4,100.3,77.6,102.6,77.6,104.5"/>
		<path d="M84.2,92.6c-1.1,1.7-1.8,3.8-2,6.1c0,0.4,0.1,0.9,0.3,1.3c0.4,1.1,1.3,1.3,2.2,0.7c0.5-0.3,0.9-0.7,1.3-1.1    c1.4-1.4,2.7-4.1,1.1-6.3C86,93,85.2,92.8,84.2,92.6 M90.3,97.3c-0.1,2.5-1.4,4.4-3.2,5.9c-2.2,1.9-5.2,1.1-6.7-1.6    c-0.7-1.4-1.2-2.9-0.8-4.5c0.5-2,1-4.1,1.8-5.9c1.2-2.8,4.6-3.1,6.6-0.8C89.8,92.4,90.4,94.8,90.3,97.3"/>
		<path d="M100.2,105.4c-0.1-0.3-0.1-1-0.4-1.3c-0.6-0.8-3.2-0.8-3.8-0.1c-1.2,1.4-2.1,3-2.4,4.9c-0.1,0.8,0.2,1.4,1,1.6    c0.7,0.1,1.4,0.2,2-0.1C98.6,109.5,99.8,107.9,100.2,105.4 M102.8,106.5c-0.1,1.7-0.9,3.2-1.7,4.6c-1.2,2.1-4.4,3-6.6,2.4    c-1.7-0.4-3.5-2.8-3.6-4.9c-0.1-3,1.2-5.3,3.2-7.4c0.2-0.2,0.6-0.4,0.9-0.5c0.6-0.3,4.7-0.2,5.3,0.1c1.4,0.6,2.7,3.2,2.6,5    C102.9,106,102.8,106.3,102.8,106.5"/>
		<path d="M108.3,95.7c-1.4,4-1.6,5.1-1,6.4c2.6-1.2,3.6-3.1,3-5.2C109.6,96.4,109,96,108.3,95.7 M104.4,99.2    c0.6-2.2,1.1-4.4,1.8-6.6c0.3-1,0.9-1.1,1.9-0.7c0.5,0.3,1.1,0.5,1.7,0.7c1.4,0.3,2.1,1.5,2.7,2.6c1.4,2.7,1.2,6.9-2,9.1    c-1.1,0.8-2.5,1.4-3.7,0.6c-0.9-0.7-1.6-1.8-2.1-2.8C104.3,101.2,104.4,100.2,104.4,99.2"/>
		<path d="M121.6,103.9c-0.5,0.3-1.2,0.4-1.6,0.8c-1.8,2-3.4,4.2-3.6,7.1c0,0.5,0.2,1.1,0.5,1.4c0.9,0.9,2.1,1.2,3.3,0.7    c1.3-0.5,2.5-0.9,2.7-2.6C123.2,108.8,123.5,106.3,121.6,103.9 M125.9,111.9c-0.2,0.8-0.4,1.7-0.7,2.5c-1,2.2-2.8,3.1-5.1,2.9    c-4.8-0.4-7-4.7-6-8.7c0.6-2.4,1.7-4.7,3.5-6.5c1.2-1.3,2.5-1.5,4.1-0.7c0.3,0.1,0.5,0.4,0.7,0.4c1.5,0,2,1.2,2.5,2.3    C125.8,106.6,126,109.2,125.9,111.9"/>
	</g>
</g>
<g id="Fleches">
	<path class="st1" d="M181.9,76.4c-0.2,0-0.4,0.1-0.6,0.1c0.1,0.1,0.1,0.1,0.2,0.2c0.1,0,0.4,0.1,0.3,0.3c0,0.1-0.1,0.3-0.2,0.4   c-0.3,0.3-0.7,0.2-1,0.1s-0.6-0.2-0.9-0.4c0.1-0.3,0.2-0.5,0.3-0.8c-0.1,0-0.1-0.1-0.3-0.1c0-0.1,0-0.3,0.1-0.4   c0.3-0.4,0.4-0.9,0.7-1.3s0.6-0.9,0.9-1.3c0.7-0.9,1.3-1.8,2-2.6c0.4-0.5,1-1.1,1.4-1.6c0.5-0.6,1.1-1.3,1.6-1.9   c0.2-0.2,0.5-0.4,0.7-0.6c0.3-0.3,0.5-0.5,0.7-0.8c0.1-0.1,0.1-0.3,0.1-0.5c0-0.1,0-0.3,0-0.5c-0.1-0.1-0.2-0.2-0.4-0.4   c-0.1-0.2-0.3-0.4-0.4-0.4c-0.3-0.1-0.4-0.4-0.4-0.6c0-0.4-0.2-0.7-0.4-0.9c-0.5-0.5-0.8-1.1-1-1.7c-0.1-0.3-0.2-0.7-0.4-1   c0-0.1-0.2-0.2-0.3-0.2c-0.3-0.4-0.7-0.8-0.7-1.4c0-0.1-0.1-0.1-0.2-0.2c-0.1-0.1-0.1-0.1-0.1-0.2c0-0.5-0.3-0.9-0.7-1.2   c-0.1-0.1-0.2-0.2-0.2-0.3c-0.3-0.7-0.7-1.5-0.9-2.2c-0.2-0.8-0.6-1.5-0.6-2.3c0-0.5,0.1-0.6,0.6-0.7c0.4,0,0.7,0,1.1,0   c0.1,0,0.1,0,0.1,0.1c0.2,0.3,0.5,0.7,0.5,1s0.1,0.5,0.3,0.7c-0.1,0.1-0.1,0.2-0.2,0.4c0,0,0,0,0.1,0c0.1,0.1,0.2,0.1,0.3,0.2   c0.2,0.6,0.4,1.2,0.8,1.8c0.2,0.4,0.3,0.8,0.5,1.2c0.4,0.9,0.8,1.8,1.3,2.6c0.2,0.3,0.3,0.6,0.4,0.9c0.1,0.2,0.3,0.4,0.4,0.7   c0.3,0.4,0.5,1,0.8,1.3c0.4,0.4,0.4,0.9,0.8,1.2c0,0.3,0.2,0.5,0.4,0.7c0.2,0.3,0,0.5-0.1,0.7c0.3,0.2,0.7,0.4,0.9,0.6   c0.1,0.1,0.2,0.3,0.2,0.4c-0.2,0.5-0.4,1.1-0.8,1.4c-0.1,0.1-0.2,0.1-0.2,0.2c-0.2,0.2-0.4,0.5-0.7,0.7c-0.2,0.2-0.6,0.4-0.7,0.8   c0,0.1-0.2,0.3-0.3,0.4c-0.6,0.6-1.2,1.2-1.7,1.8c-0.4,0.5-0.8,1.1-1.3,1.6c-0.6,0.6-1.1,1.4-1.6,2.1c-0.4,0.5-0.7,1.1-1.1,1.7   c-0.1,0.1-0.1,0.3-0.2,0.3C181.8,76,182,76.2,181.9,76.4"/>
	<path class="st1" d="M366.9,76.4c-0.2,0-0.4,0.1-0.6,0.1c0.1,0.1,0.1,0.1,0.2,0.2c0.1,0,0.4,0.1,0.3,0.3c0,0.1-0.1,0.3-0.2,0.4   c-0.3,0.3-0.7,0.2-1,0.1s-0.6-0.2-0.9-0.4c0.1-0.3,0.2-0.5,0.3-0.8c-0.1,0-0.1-0.1-0.3-0.1c0-0.1,0-0.3,0.1-0.4   c0.3-0.4,0.4-0.9,0.7-1.3s0.6-0.9,0.9-1.3c0.7-0.9,1.3-1.8,2-2.6c0.4-0.5,1-1.1,1.4-1.6c0.5-0.6,1.1-1.3,1.6-1.9   c0.2-0.2,0.5-0.4,0.7-0.6c0.3-0.3,0.5-0.5,0.7-0.8c0.1-0.1,0.1-0.3,0.1-0.5c0-0.1,0-0.3,0-0.5c-0.1-0.1-0.2-0.2-0.4-0.4   c-0.1-0.2-0.3-0.4-0.4-0.4c-0.3-0.1-0.4-0.4-0.4-0.6c0-0.4-0.2-0.7-0.4-0.9c-0.5-0.5-0.8-1.1-1-1.7c-0.1-0.3-0.2-0.7-0.4-1   c0-0.1-0.2-0.2-0.3-0.2c-0.3-0.4-0.7-0.8-0.7-1.4c0-0.1-0.1-0.1-0.2-0.2c-0.1-0.1-0.1-0.1-0.1-0.2c0-0.5-0.3-0.9-0.7-1.2   c-0.1-0.1-0.2-0.2-0.2-0.3c-0.3-0.7-0.7-1.5-0.9-2.2c-0.2-0.8-0.6-1.5-0.6-2.3c0-0.5,0.1-0.6,0.6-0.7c0.4,0,0.7,0,1.1,0   c0.1,0,0.1,0,0.1,0.1c0.2,0.3,0.5,0.7,0.5,1s0.1,0.5,0.3,0.7c-0.1,0.1-0.1,0.2-0.2,0.4c0,0,0,0,0.1,0c0.1,0.1,0.2,0.1,0.3,0.2   c0.2,0.6,0.4,1.2,0.8,1.8c0.2,0.4,0.3,0.8,0.5,1.2c0.4,0.9,0.8,1.8,1.3,2.6c0.2,0.3,0.3,0.6,0.4,0.9c0.1,0.2,0.3,0.4,0.4,0.7   c0.3,0.4,0.5,1,0.8,1.3c0.4,0.4,0.4,0.9,0.8,1.2c0,0.3,0.2,0.5,0.4,0.7c0.2,0.3,0,0.5-0.1,0.7c0.3,0.2,0.7,0.4,0.9,0.6   c0.1,0.1,0.2,0.3,0.2,0.4c-0.2,0.5-0.4,1.1-0.8,1.4c-0.1,0.1-0.2,0.1-0.2,0.2c-0.2,0.2-0.4,0.5-0.7,0.7c-0.2,0.2-0.6,0.4-0.7,0.8   c0,0.1-0.2,0.3-0.3,0.4c-0.6,0.6-1.2,1.2-1.7,1.8c-0.4,0.5-0.8,1.1-1.3,1.6c-0.6,0.6-1.1,1.4-1.6,2.1c-0.4,0.5-0.7,1.1-1.1,1.7   c-0.1,0.1-0.1,0.3-0.2,0.3C366.8,76,367,76.2,366.9,76.4"/>
	<path class="st1" d="M551.9,76.4c-0.2,0-0.4,0.1-0.6,0.1c0.1,0.1,0.1,0.1,0.2,0.2c0.1,0,0.4,0.1,0.3,0.3c0,0.1-0.1,0.3-0.2,0.4   c-0.3,0.3-0.7,0.2-1,0.1s-0.6-0.2-0.9-0.4c0.1-0.3,0.2-0.5,0.3-0.8c-0.1,0-0.1-0.1-0.3-0.1c0-0.1,0-0.3,0.1-0.4   c0.3-0.4,0.4-0.9,0.7-1.3s0.6-0.9,0.9-1.3c0.7-0.9,1.3-1.8,2-2.6c0.4-0.5,1-1.1,1.4-1.6c0.5-0.6,1.1-1.3,1.6-1.9   c0.2-0.2,0.5-0.4,0.7-0.6c0.3-0.3,0.5-0.5,0.7-0.8c0.1-0.1,0.1-0.3,0.1-0.5c0-0.1,0-0.3,0-0.5c-0.1-0.1-0.2-0.2-0.4-0.4   c-0.1-0.2-0.3-0.4-0.4-0.4c-0.3-0.1-0.4-0.4-0.4-0.6c0-0.4-0.2-0.7-0.4-0.9c-0.5-0.5-0.8-1.1-1-1.7c-0.1-0.3-0.2-0.7-0.4-1   c0-0.1-0.2-0.2-0.3-0.2c-0.3-0.4-0.7-0.8-0.7-1.4c0-0.1-0.1-0.1-0.2-0.2c-0.1-0.1-0.1-0.1-0.1-0.2c0-0.5-0.3-0.9-0.7-1.2   c-0.1-0.1-0.2-0.2-0.2-0.3c-0.3-0.7-0.7-1.5-0.9-2.2c-0.2-0.8-0.6-1.5-0.6-2.3c0-0.5,0.1-0.6,0.6-0.7c0.4,0,0.7,0,1.1,0   c0.1,0,0.1,0,0.1,0.1c0.2,0.3,0.5,0.7,0.5,1s0.1,0.5,0.3,0.7c-0.1,0.1-0.1,0.2-0.2,0.4c0,0,0,0,0.1,0c0.1,0.1,0.2,0.1,0.3,0.2   c0.2,0.6,0.4,1.2,0.8,1.8c0.2,0.4,0.3,0.8,0.5,1.2c0.4,0.9,0.8,1.8,1.3,2.6c0.2,0.3,0.3,0.6,0.4,0.9c0.1,0.2,0.3,0.4,0.4,0.7   c0.3,0.4,0.5,1,0.8,1.3c0.4,0.4,0.4,0.9,0.8,1.2c0,0.3,0.2,0.5,0.4,0.7c0.2,0.3,0,0.5-0.1,0.7c0.3,0.2,0.7,0.4,0.9,0.6   c0.1,0.1,0.2,0.3,0.2,0.4c-0.2,0.5-0.4,1.1-0.8,1.4c-0.1,0.1-0.2,0.1-0.2,0.2c-0.2,0.2-0.4,0.5-0.7,0.7c-0.2,0.2-0.6,0.4-0.7,0.8   c0,0.1-0.2,0.3-0.3,0.4c-0.6,0.6-1.2,1.2-1.7,1.8c-0.4,0.5-0.8,1.1-1.3,1.6c-0.6,0.6-1.1,1.4-1.6,2.1c-0.4,0.5-0.7,1.1-1.1,1.7   c-0.1,0.1-0.1,0.3-0.2,0.3C551.8,76,552,76.2,551.9,76.4"/>
	<g>
		<line class="st2" x1="0" y1="0" x2="740" y2="0"/>
	</g>
</g>
<g id="Reperes">
</g>
</svg>
