<?xml version="1.0" encoding="utf-8"?>
<!-- Generator: Adobe Illustrator 27.3.1, SVG Export Plug-In . SVG Version: 6.00 Build 0)  -->
<svg version="1.1" xmlns="http://www.w3.org/2000/svg" xmlns:xlink="http://www.w3.org/1999/xlink" x="0px" y="0px"
	 viewBox="0 0 740 130" style="enable-background:new 0 0 740 130;" xml:space="preserve">
<style type="text/css">
	.st0{fill:#FF9C3A;}
	.st1{fill:#CF0063;}
	.st2{fill:#BC7C3C;}
	.st3{fill-rule:evenodd;clip-rule:evenodd;fill:#FFFFFF;}
</style>
<g id="Vignettes">
	<g id="_x34_">
		<path class="st0" d="M597.4,79.9c0.1,0.1,0.3,0.1,0.5,0.1c0.5-0.2,1-0.5,1.5-0.8c0.1-0.1,0.1-0.2,0.1-0.3c0,0-0.2-0.1-0.2-0.1
			c-0.6,0.3-1.3,0.5-1.8,0.9C597.4,79.8,597.4,79.9,597.4,79.9 M596,77.4c0.4,0.2,0.7,0.1,1,0c0.7-0.3,1.4-0.5,2-0.8
			c0.3-0.1,0.7-0.2,1-0.4c0.6-0.2,0.7-0.5,0.4-1c0-0.1-0.1-0.1-0.1-0.2c-0.1-0.2-0.3-0.3-0.6-0.2c-0.2,0.1-0.3,0.1-0.5,0.2
			c-0.5,0.3-1,0.6-1.5,0.9C597.1,76.4,596.5,76.9,596,77.4 M596.2,69.1C596.2,69,596.2,69,596.2,69.1c0.1-0.1,0.1-0.1,0.2-0.1
			c0.4-0.3,0.5-0.6,0.4-1c0-0.1,0-0.2-0.1-0.3c-0.1-0.3-0.2-0.7-0.2-1c0-0.4-0.2-0.7-0.5-1c-0.1-0.1-0.3-0.2-0.4-0.3
			c-0.4-0.2-0.8-0.4-1.2-0.3c-0.6,0.1-1.2,0.4-1.5,0.9c-0.3,0.4-0.5,0.8-0.6,1.2c-0.2,0.4-0.2,0.8-0.2,1.2c0.1,0.3,0.1,0.7,0.2,1
			c0,0.1,0.1,0.2,0.2,0.3c0.2,0.3,0.5,0.5,0.7,0.7c0.2,0.2,0.4,0.2,0.6,0.1c0.1,0,0.2-0.1,0.3-0.2c0.5-0.3,0.9-0.5,1.4-0.8
			C595.7,69.4,596,69.2,596.2,69.1 M596.5,73.7C596.4,73.7,596.4,73.7,596.5,73.7c0.7-0.5,1.4-1,2.2-1.5c0.6-0.4,1.3-0.4,2-0.2
			c0.3,0.1,0.6,0.3,0.9,0.3c0.4,0.1,0.6,0.4,0.8,0.7c0.1,0.1,0.1,0.3,0.2,0.4c0.1,0.3,0.3,0.6,0.5,0.8c0.2,0.2,0.4,0.3,0.7,0.2
			c0.2-0.1,0.3-0.1,0.5-0.2c0.3-0.2,0.6-0.4,0.9-0.6c0.5-0.3,0.9-0.6,1.4-1c0.3-0.2,0.3-0.5,0.1-0.8c-0.1-0.2-0.3-0.4-0.4-0.6
			c-0.4-0.5-0.8-1-1.2-1.4c-0.5-0.5-0.9-1.1-1.4-1.6c0,0-0.1-0.1-0.1-0.1c-0.3-0.3-0.5-0.3-0.8-0.1c-0.3,0.2-0.6,0.4-0.9,0.5
			c-1,0.4-1.9,1.1-2.9,1.6c-0.8,0.4-1.6,0.9-2.3,1.3c-0.2,0.1-0.5,0.2-0.7,0.3c-0.7,0.5-1.4,0.9-2,1.5c-0.5,0.5-0.6,1.1-0.5,1.8
			c0,0.2,0.2,0.3,0.3,0.3c0.2,0,0.4,0,0.5-0.1c0.2-0.1,0.3-0.3,0.5-0.4C595.3,74.5,595.9,74.1,596.5,73.7 M608.2,74.7
			c-0.6,0.4-1.2,0.8-1.9,1.2c-0.4,0.2-0.8,0.4-1.2,0.7c-0.2,0.1-0.4,0.2-0.5,0.3c-0.3,0.2-0.3,0.4-0.2,0.7c0.1,0.2,0.1,0.3,0.1,0.5
			c0,0.3-0.1,0.6-0.3,0.8c-0.2,0.3-0.4,0.5-0.7,0.8c-0.1,0.1-0.3,0.3-0.4,0.4c-0.6,0.4-1.3,0.8-1.9,1.2c-0.3,0.2-0.6,0.4-1,0.5
			c-0.7,0.3-1.4,0.6-2.2,0.8c-0.3,0.1-0.5,0.2-0.7,0.4c-0.3,0.2-0.6,0.5-0.9,0.7c-0.3,0.2-0.5,0.3-0.9,0.2c-0.3,0-0.5-0.1-0.8-0.2
			c-0.3-0.1-0.6-0.2-0.8-0.4c-0.2-0.1-0.3-0.2-0.3-0.5c0-0.1,0-0.3,0.1-0.4c0.1-0.4,0-0.7-0.3-0.9c-0.4-0.3-0.8-0.7-1.1-1.1
			c-0.4-0.4-0.7-0.8-0.7-1.4c0-0.2,0-0.4,0-0.6c0-0.2,0.1-0.5,0.1-0.7c0-0.2,0-0.4-0.1-0.6c-0.4-0.5-0.4-1.1-0.6-1.7
			c-0.1-0.3-0.2-0.7-0.3-1c-0.1-0.2-0.1-0.4-0.2-0.6c-0.1-0.5,0.1-0.8,0.4-1.1c0.4-0.3,0.7-0.6,1.1-0.9c0.1-0.1,0.2-0.2,0.3-0.3
			c0.1-0.2,0-0.4-0.2-0.5c-0.1,0-0.1,0-0.2,0c-0.7,0-1.1-0.3-1.5-0.8c-0.3-0.4-0.5-0.9-0.8-1.3c0-0.1-0.1-0.1-0.1-0.2
			c-0.1-0.8-0.1-1.7,0.3-2.4c0.2-0.4,0.4-0.9,0.8-1.2c0.1-0.1,0.2-0.3,0.3-0.4c0.1-0.1,0.2-0.3,0.3-0.3c0.5-0.3,1-0.6,1.6-0.7
			c0.5-0.1,1-0.2,1.5-0.2c0.8-0.1,1.6,0.1,2.3,0.5c0.2,0.1,0.4,0.2,0.6,0.3c0.3,0.1,0.6,0.3,0.8,0.5c0.3,0.3,0.6,0.7,0.7,1.1
			c0.1,0.3,0.3,0.6,0.6,0.8c0.3,0.3,0.6,0.3,0.9,0.1c0.5-0.3,0.9-0.6,1.4-1c0.2-0.1,0.4-0.3,0.5-0.4c0.3-0.2,0.7-0.3,1.1-0.1
			c0.6,0.3,1.2,0.5,1.7,1c0.2,0.2,0.4,0.2,0.7,0.1c0.3-0.1,0.5-0.3,0.8-0.4c0.2-0.1,0.2-0.2,0.2-0.5c0-0.1-0.1-0.1-0.1-0.2
			c-0.1-0.4,0-0.7,0.2-1c0.3-0.4,0.7-0.5,1.2-0.3c0.2,0.1,0.4,0.1,0.6,0.2c0.4,0.1,0.7,0.4,1,0.8c0.4,0.6,0.8,1.2,1.2,1.9
			c0.1,0.1,0.2,0.3,0.3,0.4c0.7,0.5,1.2,1.2,1.8,1.7c0.1,0.1,0.3,0.3,0.3,0.5c0.2,0.4,0.1,0.8-0.3,1.1c-0.3,0.2-0.6,0.3-1,0.3
			c-0.5-0.1-0.9-0.1-1.4-0.3c-0.3-0.1-0.6-0.2-0.9,0c-0.2,0.1-0.4,0.1-0.6,0.2c-0.3,0.1-0.3,0.3-0.1,0.5c0.1,0.2,0.3,0.3,0.5,0.5
			c0.1,0.1,0.3,0.2,0.4,0.3c0.4,0.5,0.5,1,0.1,1.5c-0.1,0.1-0.2,0.2-0.3,0.3c-0.2,0.2-0.4,0.4-0.7,0.5
			C608.7,74.3,608.4,74.4,608.2,74.7C608.2,74.6,608.2,74.6,608.2,74.7"/>
		<path class="st0" d="M724.2,72.9c-0.5,0-1-0.1-1.5-0.2c-0.9-0.2-1.8-0.3-2.7-0.6c-0.6-0.2-1.2-0.4-1.9-0.4c-0.1,0-0.2,0-0.4-0.1
			c-0.6-0.2-1.1-0.3-1.7-0.4c-0.4,0-0.7-0.2-1.1-0.2c-0.6-0.1-1.3-0.2-2-0.3c-0.8-0.1-1.5-0.3-2.3-0.4c-0.3-0.1-0.6-0.1-0.9-0.1
			c-0.7-0.1-1.5-0.1-2.2-0.2c-0.5-0.1-1-0.3-1.5-0.5c-0.2-0.1-0.2-0.2-0.2-0.4c0-0.2,0.1-0.4,0.1-0.6c0.1-0.4,0.3-0.9,0.4-1.3
			c0.1-0.4,0.3-0.8,0.4-1.3c0.2-0.6,0.3-1.2,0.5-1.8c0.3-1.2,0.6-2.4,0.8-3.6c0.2-0.9,0.4-1.9,0.6-2.8c0.2-0.7,0.3-1.5,0.5-2.2
			c0.1-0.5,0.3-1.1,0.5-1.6c0-0.1,0.1-0.2,0.1-0.3c0.2-0.9,0.7-1.8,1.1-2.6c0.2-0.4,0.3-0.8,0.5-1.3c0.2-0.2,0.5-0.1,0.7-0.1
			c0.8,0.1,1.7,0.2,2.5,0.3c0,0,0.1,0,0.1,0c0.9-0.1,1.7,0.3,2.6,0.3c0.2,0,0.4,0.1,0.5,0.3c0.1,0.3,0.4,0.3,0.7,0.4
			c0.3,0,0.5-0.1,0.6-0.3c0.3-0.6,0.5-1.2,0.5-1.9c0-0.8,0.2-1.5,0.5-2.2c0.1-0.3,0.2-0.6,0.3-0.9c0-0.1,0-0.2,0.1-0.4
			c0.3-0.9,0.6-1.8,0.9-2.8c0.1-0.3,0.2-0.5,0.2-0.8c0.1-0.3,0.2-0.5,0.3-0.7c0.2-0.5,0.6-0.6,1-0.6c0.9,0.1,1.9,0.1,2.8,0.5
			c0.5,0.2,1,0.3,1.6,0.4c1,0.2,1.9,0.3,2.9,0.5c0.5,0.1,1,0.1,1.5,0.2c0.3,0,0.6,0.1,0.9,0.3c0.3,0.2,0.3,0.3,0.2,0.6
			c-0.1,0.3-0.2,0.5-0.2,0.8c0,0.2-0.1,0.3-0.1,0.5c-0.3,0.9-0.5,1.8-0.7,2.7c0,0.1,0,0.3-0.1,0.3c-0.3,0.3-0.3,0.7-0.4,1
			c-0.1,0.3-0.1,0.6-0.3,0.8c-0.1,0.1-0.1,0.2-0.1,0.3c-0.1,0.3-0.1,0.5-0.2,0.8c-0.1,0.5-0.3,1.1-0.5,1.6c-0.1,0.1-0.1,0.3-0.1,0.4
			c0,0.1,0,0.2-0.1,0.3c-0.4,0.5-0.5,1.1-0.7,1.7c-0.2,0.5-0.3,1.1-0.5,1.6c-0.1,0.2-0.1,0.5-0.2,0.7c-0.3,0.6-0.5,1.1-0.6,1.8
			c-0.2,0.9-0.6,1.8-0.8,2.6c0,0.1-0.1,0.3-0.1,0.4c-0.1,1-0.6,2-0.7,3c0,0.1-0.1,0.3-0.1,0.4c-0.1,0.3-0.3,0.6-0.4,1
			c-0.4,1.4-0.8,2.8-1.1,4.2c-0.2,0.7-0.3,1.4-0.4,2.1C724.6,72.3,724.5,72.6,724.2,72.9 M714.6,45.7c0.4-0.3,0.9-0.6,1.3-1
			c0.8-0.6,1.6-1.1,2.5-1.5c0.4-0.2,0.7-0.5,1-0.7c0.1-0.1,0.2-0.1,0.3-0.1c0.1,0,0.1,0.2,0.1,0.3c-0.1,0.5-0.3,0.9-0.4,1.4
			c-0.3,0.8-0.6,1.6-0.6,2.5c0,0.1-0.1,0.3-0.1,0.4c-0.1,0.3-0.2,0.3-0.5,0.3c-0.4-0.1-0.8-0.1-1.2-0.2c-0.3,0-0.5-0.1-0.8-0.1
			c-0.7,0.1-1.4,0.1-2,0c-0.1,0-0.3,0-0.4,0c-0.1,0-0.2-0.1-0.4-0.2C713.7,46.4,714.2,46.1,714.6,45.7 M726.1,75.5
			c0.2-1.1,0.4-2.2,0.6-3.4c0.2-1.1,0.6-2.1,0.8-3.2c0.1-0.5,0.2-1,0.3-1.5c0.1-0.4,0.3-0.8,0.4-1.3c0.1-0.6,0.2-1.3,0.5-1.9
			c0.3-0.6,0.4-1.4,0.6-2c0.2-0.7,0.4-1.4,0.6-2.1c0.1-0.4,0.3-0.8,0.4-1.2c0.2-0.7,0.5-1.4,0.7-2.1c0.1-0.2,0.1-0.5,0.2-0.7
			c0.5-0.9,0.6-1.9,1-2.9c0.4-1,0.8-2.1,1.1-3.1c0.1-0.2,0.1-0.4,0.2-0.5c0.3-1,0.6-2,0.9-2.9c0.3-0.8,0.5-1.6,0.9-2.3
			c0.1-0.2,0.2-0.4,0.5-0.4c0.3,0,0.4-0.2,0.6-0.4c0-0.1,0.1-0.2,0-0.3c-0.2-0.3-0.1-0.7-0.2-1c-0.1-0.4-0.2-0.8-0.5-1
			c-0.6-0.5-1.2-0.9-2-1c-0.7-0.2-1.4-0.4-2.2-0.6c-0.7-0.1-1.4-0.3-2.1-0.4c-0.6-0.1-1.2-0.1-1.7-0.3c-1-0.3-2-0.6-3.1-0.6
			c-0.3,0-0.7-0.1-1-0.3c-0.1-0.1-0.3-0.2-0.4-0.3c-0.1-0.1-0.2-0.2-0.2-0.4c-0.2-0.3-0.5-0.5-0.8-0.5c-0.1,0-0.2,0-0.3,0
			c0,0-0.1,0-0.2,0c-0.5,0-0.6,0.1-0.7,0.6c0,0.1,0,0.2,0,0.4c0,0.1,0,0.2,0,0.3c-0.3,0.5-0.6,1-1.1,1.3c-0.5,0.3-1,0.6-1.4,0.9
			c-1,0.7-2.1,1.3-3,2c-0.7,0.5-1.5,1.1-2.1,1.7c-0.5,0.5-1,1-1.6,1.5c-0.2,0.1-0.4,0.3-0.5,0.4c-0.5,0.6-1,1.2-1.6,1.7
			c-0.1,0.1-0.2,0.3-0.3,0.5c-0.1,0.4-0.1,0.9,0,1.3c0,0.2,0.1,0.5,0,0.7c-0.1,0.4-0.2,0.8-0.4,1.2c-0.3,0.6-0.5,1.3-0.6,1.9
			c-0.2,0.9-0.5,1.7-0.7,2.6c-0.2,0.8-0.4,1.7-0.6,2.5c-0.2,0.7-0.4,1.4-0.5,2.1c0,0.1-0.1,0.3-0.1,0.4c-0.3,0.8-0.4,1.6-0.6,2.3
			c-0.1,0.6-0.3,1.1-0.4,1.7c0,0.1,0,0.3,0,0.4c0,0.1,0,0.1,0,0.2c0,0,0,0,0,0c0,0-0.1,0.7-0.1,0.7c-0.1,0.5-0.3,0.6-0.5,0.9
			c0,0.1-0.1,0.1-0.1,0.1c0,0.1-0.1,0.2-0.1,0.3c-0.3,0.7-0.5,1.4-0.8,2c-0.2,0.4-0.2,0.7-0.1,1.1c0.1,0.4,0.3,0.7,0.6,0.7
			c0.4,0.1,0.8,0.3,1.1,0.4c0.1,0.1,0.3,0.1,0.4,0.1c0.6,0.1,1.3,0.2,1.9,0.3c0.8,0.2,1.7,0.3,2.5,0.4c0.3,0,0.6,0.2,0.9,0.2
			c0.2,0,0.3,0.1,0.5,0.1c0.3,0,0.6,0.1,0.9,0.1c1.2,0.2,2.4,0.4,3.5,0.7c1.2,0.3,2.4,0.5,3.5,0.9c0.4,0.1,0.8,0.3,1.2,0.4
			c1.3,0.4,2.6,0.6,3.9,1.1c0.2,0.1,0.3,0.1,0.5,0.2c0.3,0.1,0.6,0,0.7-0.3C726,76,726,75.7,726.1,75.5"/>
		<path class="st0" d="M716.4,61.3C716.4,61.3,716.5,61.3,716.4,61.3c0-0.1,0-0.1,0-0.1C716.4,61.2,716.4,61.2,716.4,61.3
			C716.4,61.3,716.4,61.3,716.4,61.3 M718,55.3c-0.2,0-0.4,0.2-0.5,0.3c-0.1,0.1,0,0.3,0.1,0.4c0.1,0.1,0.4,0.1,0.4-0.1
			C718.2,55.7,718.2,55.5,718,55.3 M719.9,54.5c0.2,0.1,0.4,0.1,0.5,0c0.1-0.2,0.3-0.3,0.4-0.5c0,0,0-0.1,0-0.1
			c-0.1-0.2-0.1-0.3-0.3-0.3c-0.2,0-0.5,0.1-0.5,0.3C719.9,54.1,719.8,54.3,719.9,54.5 M723.7,51.4c-0.4,0.1-0.7,0.3-1,0.6
			c-0.1,0.1-0.1,0.2-0.1,0.3c0.1,0.1,0.2,0.1,0.3,0.2c0.1,0,0.2,0,0.2,0c0.3-0.2,0.6-0.3,0.8-0.6c0.1-0.1,0.1-0.2,0.1-0.3
			c0-0.1-0.1-0.2-0.2-0.2C723.9,51.4,723.8,51.4,723.7,51.4 M714.5,58.2c0.4-0.2,0.7-0.4,1.1-0.6c0.1,0,0.1-0.1,0.2-0.1
			c0-0.1,0.1-0.2,0.1-0.3c0-0.1-0.2-0.2-0.2-0.2c-0.1,0-0.1,0-0.2,0c-0.4,0.1-0.7,0.5-1,0.8C714.3,57.9,714.3,58.1,714.5,58.2
			 M714.3,64.6c0-0.6,0-1.1,0-1.7c0-0.2,0-0.4,0-0.6c0.1-0.3,0.1-0.6-0.1-0.8c0,0,0,0,0-0.1c0-0.5-0.1-1-0.6-1.2
			c-0.1-0.2-0.3-0.5-0.3-0.7c-0.2-0.5-0.3-0.9-0.7-1.2c0-0.3,0-0.5,0-0.8c-0.1-0.4,0.1-0.7,0.4-0.9c0.4-0.4,0.9-0.6,1.5-0.7
			c0.5,0,0.9-0.4,1.3-0.7c0.8-0.6,1.5-1.2,2.1-2c0.1-0.1,0.3-0.2,0.4-0.3c0.3-0.1,0.4-0.2,0.5-0.5c0.3-0.6,0.9-1,1.5-1.4
			c0.6-0.3,1.2-0.6,1.8-1c0.2-0.1,0.4-0.1,0.6-0.2c0.4,0,0.7-0.1,1-0.4c0.4-0.3,0.8-0.2,1,0.2c0.4,0.7,0.8,1.4,1,2.2
			c0.1,0.3-0.1,0.5-0.3,0.7c-0.2,0.2-0.5,0.4-0.7,0.6c-0.4,0.3-0.9,0.6-1.1,1.1c0,0.1-0.2,0.2-0.3,0.2c-0.5,0.1-0.9,0.4-1.3,0.7
			c-0.5,0.3-0.9,0.7-1.3,1c-0.1,0.1-0.1,0.1-0.2,0.2c0.6,0.2,0.7,0.2,1.1,0c0.8-0.3,1.7-0.4,2.5-0.2c0.7,0.1,1.3,0.3,1.9,0.7
			c0.2,0.2,0.4,0.3,0.5,0.6c0,0.2,0.1,0.4,0.1,0.6c0,0.3,0,0.5-0.2,0.8c-0.4,0.5-0.5,1.1-0.4,1.8c0.2,0.9,0.3,1.8,0.4,2.7
			c0.1,0.6-0.2,1-0.6,1.3c-0.2,0.2-0.5,0.3-0.8,0.3c-0.6-0.1-1.2,0-1.8,0c-0.5,0-0.9,0-1.4,0c-0.5-0.1-1.1,0-1.6,0.1
			c-1,0.2-2,0.5-3.1,0.7c-0.2,0-0.4,0.1-0.6,0.1c-0.3,0.1-0.5,0.1-0.8,0c-0.4-0.2-0.8-0.3-1-0.7C714.6,65.2,714.4,64.9,714.3,64.6"
			/>
		<path d="M713.3,107.1c-0.5-0.6-1-1.1-1.7-1.3c-0.4-0.1-0.8-0.3-1.1-0.5c-0.7-0.4-1-1-0.8-2.1c-0.9-1.8-0.5-6.6-0.7-8.4
			c-0.1-1.5,0-3,0.6-4.3c0.4-1,0.3-1.6-0.1-2.3c-0.2-0.3-0.5-0.6-0.6-0.9c-1-2.1-1.8-7.1-1.9-9.6c-0.1-1.3-0.3-2.6-0.7-3.8
			c-0.2-0.7-0.4-1.4-0.5-2.1c-0.1-0.3,0-0.6,0.1-0.9c-0.1-0.2-0.3-0.4-0.3-0.7c-0.1-0.7-0.3-1.3-0.4-2c-0.3-1.4,0.4-2.7,1.8-3.2
			c0.4-0.1,0.8-0.1,1.1,0c0,0,0,0,0.1,0c0.2,0,0.4,0,0.7,0.1c0.4,0.1,0.8,0.1,1.2,0.1c1.2,0.2,2-0.6,2.7-1.5
			c0.3-0.4,0.3-1.2-0.1-1.6c-0.7-0.7-1.4-1.2-2.4-0.7c0,0-0.1,0-0.1,0c-0.3,0.2-0.6,0.3-1,0.4c-0.6,0.3-1.3,0.5-2.2,0.5c0,0,0,0,0,0
			c-0.2,0-0.3,0-0.5,0c-0.1,0-0.2,0-0.3,0c-0.1,0-0.1,0-0.2,0c-0.6,0-1.1-0.1-1.5-0.2c-0.4,0-0.8,0-1.1-0.5c0,0,0,0,0,0
			c-1.4-0.9-2.2-2.5-2.2-4.2c0-0.1,0-0.1-0.1-0.2c-0.1-0.3-0.1-0.6-0.1-0.9c0-0.1,0-0.2,0-0.2c0-0.2,0-0.4,0-0.6
			c-0.1-0.2-0.1-0.4-0.1-0.6c0.2-2.2,0.5-4.4,0.8-6.6c0-0.1,0.1-0.2,0.2-0.4c1.9,0.9,2.9,1.3,3.2,1c0.3-0.4-0.7-1.6-3-3.9
			c1.7,3.4,3,4.2,3.9,4.3c0.3,0,1.2,0,2.3,0.5c0.4,0.2,0.8,0.4,1.1,0.7c0-0.4,0.1-0.7,0.1-1.1c0,0,0-0.1,0-0.1
			c-0.3-0.4-0.5-1-0.6-1.6c0,0-0.1,0-0.1,0c-1.3,0-2.3-0.4-3.1-1c-0.1,0-0.3,0-0.4-0.1c-0.3-0.1-0.5-0.2-0.8-0.3
			c-0.6-0.2-1-0.7-1.1-1.3c-0.1-0.7-0.3-1.2-0.7-1.6c0-0.4,0.1-0.6,0.1-0.9c0-0.5-0.2-0.9-0.5-1.1c-0.3-0.2-0.6-0.3-0.8-0.4
			c-0.4-0.1-0.7,0-0.9,0.3c-0.4,0.4-0.5,0.9-0.5,1.5c0,0.9,0.1,1.8-0.4,2.7c-0.5,1.1-1.1,2.2-1.7,3.3c-0.8,1.3-1.6,2.5-2.4,3.8
			c-1.4,2.1-2.8,4.3-4.2,6.3c-1.1,1.7-2.4,3.3-3.6,4.9c-0.2,0.3-0.5,0.4-0.7,0.6c-0.1,0.1-0.2,0.2-0.3,0.3c-0.8,0.9-0.4,2.5,0.8,2.6
			c0.4,0,0.9-0.1,1.3-0.4c0.2-0.2,0.4-0.3,0.7-0.4c2.4-1,4.9-1.5,7.4-1.7c0.3,0,0.7,0,1,0.1c0.2,1.3-0.3,2.4-0.5,3.5
			c0.1,0.3,0.2,0.6,0.3,0.8c0.7,1.2,1,2.5,1.2,3.8c0.3,1.4,0.7,2.8,1,4.2c0.1,0.5,0.2,0.9,0.3,1.4c0.3,1.4,0.5,5.6,0.8,6.9
			c0.4,1.4,0.6,2.9,0.8,4.4c0.1,1.1,0.3,2.3-0.3,3.3c-0.3,0.5-0.5,1.1-0.6,1.7c-0.3,1-0.6,4.8-0.9,5.9c-0.3,1.3-0.8,2.5-0.9,3.8
			c0,0.6-0.3,1-0.7,1.3c-0.2,0.1-0.4,0.3-0.6,0.4c0,0.5-0.1,1,0,1.4c0.1,0.6,0.4,1.1,1,1.3c0.8,0.2,1.6,0.3,2.4,0.4
			c0.4,0,0.8-0.3,0.9-0.7c0.2-0.6,0.3-1.3-0.1-1.8c-0.4-0.5-0.4-1-0.3-1.6c0.2-1,0.4-2.1,0.6-3.1c0.3-1.5,0.9-2.8,1.9-3.9
			c0.4-0.4,0.5-3.7,0.2-4.3c-0.2-0.4-0.2-0.9-0.1-1.4c0.2-1.5-0.1-3-0.4-4.4c-0.3-1.6-0.8-3.1-1.1-4.7c-0.1-0.3-0.1-0.9-0.1-1.2
			c-0.1-1.3-0.5-5.1-0.9-6.4c-0.1-0.3-0.2-0.7-0.3-1c-0.3-1.7-0.5-3.5-0.7-5.3c-0.1-0.5-0.2-1-0.4-1.4c-0.5-1-0.3-2-0.3-3
			c0-0.3,0.2-0.5,0.6-0.5c0.6,0,0.8,0.1,1,0.7c0.2,0.6,0.3,1.3,0.5,2c0.4,1.5,0.7,3,1.2,4.5c0.5,1.5,0.9,3.1,1.1,4.7
			c0.2,1.7,0.6,6.1,0.8,7.8c0.1,0.8,0.4,1.6,0.5,2.4c0.2,0.8,0.6,1.6,0.4,2.5c0,0.2,0,0.5,0.1,0.7c0.2,0.8,0.5,1.5,0.1,2.4
			c0,0.1,0,0.3,0,0.4c0,1,0,4.9,0,5.9c0,0.9-0.1,1.7,0,2.6c0.1,0.7,0,1.3-0.1,2c-0.3,1.4,0,2.7,1.2,3.6c0.1,0.1,0.1,0.1,0.2,0.2
			c0.9,0.6,1.8,1.2,2.7,1.8c0.6,0.4,1.3,0.5,2.1,0.3C713.5,108.6,713.8,107.8,713.3,107.1z M698.2,61c-0.1,0.7-0.6,1.1-1.2,1.2
			c-1.8,0.2-3.7,0.4-5.5,0.6c0-0.1-0.1-0.2-0.1-0.3c2.4-3.6,4.8-7.3,7.4-11.1c0.1,0.4,0.1,0.5,0.1,0.7C699,54.3,698.6,58.8,698.2,61
			z"/>
		<path class="st1" d="M698.4,63c-0.1,0-0.1,0.1-0.1,0.1c0,0.1,0,0.3,0.1,0.4c0,0,0.1-0.1,0.1-0.1C698.4,63.2,698.4,63.1,698.4,63"
			/>
		<path d="M699.4,27.2c-0.1,1.7,0.1,3.4,0.3,5.1c0.1,1.3,1.8,2,2.7,1.2c0.3-0.3,0.6-0.5,1-0.8c1-0.8,1.6-1.8,1.8-3.1
			c0.3-1.7,0.5-3.5,0.2-5.3c-0.2-1.1-0.4-2.2-0.6-3.3c-0.2-1-0.7-1.9-1.2-2.7c-0.2-0.4-0.7-0.4-1,0c-0.1,0.1-0.2,0.3-0.3,0.5
			c-0.4,0.5-0.7,1.1-1.2,1.5c-0.5,0.3-0.7,0.7-0.8,1.2c-0.3,1.1-0.6,2.1-0.7,3.2C699.5,25.6,699.4,26.4,699.4,27.2 M697.2,27.9
			c0-0.1,0-0.2,0-0.2c0.1-1.5,0.2-2.9,0.3-4.3c0.2-1.5,0.4-3,1.3-4.2c0.6-0.9,1.3-1.7,2-2.5c0.5-0.6,1.2-0.9,1.9-0.8
			c0.3,0,0.7,0,1,0.1c0.2,0,0.5,0.1,0.7,0.3c1.8,1.4,1.8,3.5,2.2,5.4c0.1,0.4,0.1,0.9,0.2,1.3c0.6,2.6,0.7,5.2,0.1,7.9
			c-0.3,1.3-0.9,2.5-1.9,3.4c-0.3,0.3-0.6,0.5-0.9,0.8c-1.6,1.3-3.7,1.2-5.3-0.2c-0.8-0.6-1.2-1.4-1.2-2.4
			C697.4,30.9,697.3,29.4,697.2,27.9"/>
		<path d="M666.3,52.2c0,0,0-0.1,0.1-0.2c0,0-0.1-0.1-0.1-0.1c0,0-0.1,0.1-0.1,0.2C666.2,52.1,666.3,52.2,666.3,52.2 M664.8,54.2
			c-1.8,3.2-4,5.8-6.3,8.4c-0.6,0.7-1.3,0.9-2,0.8c-0.6-0.1-0.9-0.7-0.9-1.6c0-1.2,0-2.3,0.1-3.5c0.1-2,0.1-4,0.4-6
			c0.5-3.6,1.2-7.2,1.9-10.7c0.1-0.5,0.2-1,0.3-1.4c0.1-0.5,0.4-0.8,0.8-0.8c0.4,0,0.7,0.3,0.8,0.9c0.3,1.7,0.8,3.4,0,5.1
			c-0.2,0.4-0.2,0.8-0.4,1.2c-1,3.4-1.4,6.9-1.4,10.6c0,0.7-0.1,1.5,0.3,2.1c0.1,0,0.2,0,0.2,0c2.3-2.6,4.4-5.3,5.8-8.9
			c0.3-0.9,0.8-1.7,1.2-2.5c0.5-1.1,1.3-1.4,2.2-1.2c0.7,0.2,1.3,0.5,1.8,1.2c0.5,0.6,1,1.3,1.5,1.8c2.1,1.8,4.2,3.7,6.4,5.3
			c1.6,1.1,2.9,2.4,4.2,4c0.6,0.8,1.3,1.5,1.9,2.3c0.2,0.2,0.4,0.5,0.5,0.7c0.3,0.5,0.2,1.1-0.2,1.5c-0.5,0.5-1,0.4-1.6,0.4
			c-1.8-0.1-3.6,0.2-5.3,0.8c-0.3,0.1-0.6,0-0.8,0.7c0.2,0.5,0.5,1,0.8,1.6c0.3,0.9,0.3,1.8,0,2.7c-0.3,0.9-1.2,1.2-1.5,0.5
			c-0.6-1.5-1.6-1.9-2.6-2.4c-0.3-0.2-0.6-0.5-0.9-0.8c-0.8-1-0.8-2.1,0.1-2.9c0.3-0.2,0.5-0.5,0.8-0.6c2-0.7,4-1.8,6.1-1.7
			c0.5,0,1,0.1,1.5-0.4c-0.1-0.3-0.2-0.6-0.4-0.8c-0.9-1.1-7.6-6.3-9.4-7.4c-0.5,0.3-1.1,0.6-1.7,0.9c0,0.4,0,0.8,0,1.1
			c0.1,3,0.2,6,0.3,9c0.1,1.6,0.1,3.2,0.2,4.8c0.2,3.6,0.4,7.2,0.6,10.8c0.1,1.7,0.1,3.4,0.2,5c0.3,3.8,0.7,7.6,1,11.5
			c0.2,2.5,0.4,5,0.9,7.4c0.2,0.8,0.4,1.6,0.5,2.4c0.1,1.1-0.2,1.8-1,2.1c-0.1,0-0.2,0.1-0.4,0.1c-0.9,0.2-1.3-0.2-1.4-1.4
			c-0.1-1.3-0.2-2.6-0.4-4c-0.1-1.4-0.3-2.8-0.4-4.2c-0.2-2.8-0.2-5.7-0.6-8.5c-0.4-3.5-0.6-7-0.7-10.5c-0.1-2-0.2-3.9-0.3-6
			c-0.2,0.3-0.3,0.4-0.4,0.5c-0.5,3.9-1.2,7.7-1.6,11.6c-0.4,3.7-0.7,7.5-1.4,11.1c-0.3,1.5-0.6,2.9-0.8,4.4
			c-0.3,1.7-1.5,3.1-2.7,3.1c-0.3,0-0.7-0.3-0.9-0.6c-0.4-0.8-0.4-2.1,0.1-2.8c0.5-0.7,0.8-1.4,0.9-2.4c0-0.4,0.2-0.9,0.4-1.1
			c1-1.1,1.2-2.7,1.4-4.2c0.4-2.4,0.8-4.7,0.9-7.2c0.1-1.6,0.3-3.2,0.5-4.7c0.3-2.6,0.8-5.3,1-7.9c0.4-4.4,0.7-8.8,1-13.2
			c0-0.2,0-0.4,0-0.5c-0.4-1.4-0.1-2.8,0-4.2c0-0.6,0.2-1.4-0.5-2C665.3,53.5,665,53.8,664.8,54.2"/>
		<path d="M670.7,33.2c0.6-2.8,0.9-5.7,0.6-8.7c-0.1-0.7-0.2-1.3-0.4-1.9c0-0.2-0.2-0.6-0.3-0.6c-0.8-0.3-1.3-1-1.9-1.8
			c-0.1-0.2-0.5-0.1-0.7,0c-0.3,0.2-0.6,0.4-0.7,0.8c-0.9,2.3-1.8,4.6-2,7.2c-0.1,1.6-0.1,3.2-0.2,4.7c0,0.5,0.1,1,0.2,1.5
			c0.3,1.4,1.2,2.2,2.1,1.5c0.7-0.5,1.3-0.3,1.8,0.1C670.1,35.2,670.5,34.3,670.7,33.2 M662.8,26c0.3-3.7,1.6-6.5,4-8.2
			c2.3-1.6,4.8-1.3,5.9,2.5c0.7,2.2,1.1,4.4,1,6.8c-0.1,2.4-0.1,4.8-0.8,7.1c-0.5,1.5-0.9,3-2,3.8c-2,1.6-4,1.9-6.1,0.5
			c-0.9-0.6-1.6-1.5-1.8-2.9c-0.2-1.2-0.3-2.5-0.4-3.7c-0.1-0.9-0.2-1.8-0.3-3.2C662.8,28.2,662.7,27,662.8,26"/>
		<path d="M567.1,59.5c1.6,0.8,3.3,1.1,5,1.7c1.7,0.5,3.4,0.9,5.3,1.4c0-0.4,0.1-0.7,0-1c-0.3-0.7-0.3-1.3,0.2-1.9
			c0.6-0.6,0.7-1.4,0.8-2.2c0.2-2.6,0.4-5.1,0.5-7.7c0-0.5-0.1-1-0.1-1.6C577.4,49,570.1,56.2,567.1,59.5 M590.4,50.8
			c0.1-1.5,0.1-2.9,0.2-4.4c0.1-1.7-0.1-3.4-0.4-5.1c0-0.3-0.2-0.5-0.4-0.8c-0.7-0.9-0.7-1.1-0.2-1.9c0.3-0.5,0.6-0.9,1.1-1.2
			c0.6-0.4,0.9-1,1.1-1.6c0.1-0.3,0.2-0.7,0.4-1c0.2-0.5,0.9-0.7,1.4-0.6c0.5,0.1,0.9,0.7,0.8,1.3c0,0.3-0.1,0.6-0.2,0.9
			c-0.3,0.8-0.6,1.6-1,2.4c-0.5,0.8-0.6,1.7-0.5,2.6c0.4,3.1,0.3,6.1,0.2,9.2c-0.1,1.6,0,3.3,0.2,4.9c0.2,1.3-0.4,1.7-1.3,2.2
			c-0.9,0.5-1.5,0.3-2-0.5c-0.9-1.4-2-2.6-3.2-3.8c-0.4-0.3-0.7-0.7-0.9-1.1c-1.3-1.7-2.5-3.3-3.7-5c-0.1-0.1-0.2-0.1-0.4-0.2
			c-0.3,0.5-0.3,1-0.3,1.5c-0.1,2.6-0.2,5.3-0.4,7.9c-0.2,1.8-0.1,3.5,0.6,5.2c0.1,0.2,0,0.6,0,0.9c0,0.3,0,0.7,0,1
			c2,0.9,4.1,1,6.2,1.4c0.2,0,0.5,0,0.7-0.1c1-0.6,1.9-0.1,2.6,0.3c0.5,0.9,0.3,1.6-0.3,2.1c-0.6,0.6-1.4,1.1-2.2,0.7
			c-1.3-0.6-2.6-0.6-3.9-1c-1-0.3-2-0.6-3-0.6c-0.4,0.6-0.1,1.1,0,1.7c0.2,1.5,0.6,3,0.6,4.5c0.1,3.6,0.9,7.2,1.2,10.8
			c0.2,1.9,0.4,3.8,0.6,5.7c0.2,2.1,0.4,4.3,0.6,6.4c0.3,1.9,0.6,3.9,1,5.8c0.1,0.5,0.3,0.9,0.5,1.3c0.5,0.8,0.4,1.7,0.1,2.5
			c-0.3,0.9-1.3,1.5-2.1,1.5c-0.5,0-1-0.3-1-0.9c0-1,0-2,0-2.9c0-0.6,0.1-1.2,0-1.8c-0.2-2-0.6-4-0.8-6c-0.3-2.3-1-4.5-0.8-6.9
			c0-0.2,0-0.4-0.1-0.5c-0.1-0.7-0.1-1.5-0.2-2.2c-0.2-1.2-0.3-2.4-0.5-3.6c0-0.1-0.1-0.2-0.1-0.3c0,0-0.1,0-0.3,0
			c0,0.4-0.1,0.8-0.1,1.2c0.2,3.6,0.2,7.1-0.7,10.6c-0.2,0.6-0.2,1.2-0.2,1.8c-0.1,2.2-0.6,4.2-1.4,6.2c-0.2,0.4-0.3,0.8-0.5,1.2
			c-0.9,1.9-1.8,3.8-2.8,5.6c-0.3,0.6-0.9,1.2-1.7,1.3c-0.5,0.1-0.8-0.1-1.1-0.4c-0.3-0.3-0.3-0.7-0.1-1c0.7-1.3,1.5-2.5,2.2-3.8
			c0.8-1.4,1.5-3,1.7-4.6c0.1-0.6,0.3-1.2,0.5-1.8c0.5-1.2,0.5-2.4,0.3-3.6c-0.2-0.9-0.1-1.6,0.5-2.2c0.4-0.5,0.7-1,0.7-1.7
			c0.3-2.3,0.8-4.6,0.8-6.9c-0.1-3.2-0.2-6.4-0.6-9.5c-0.1-0.9-0.2-1.8-0.1-2.7c0.2-1.7,0.3-3.4,0.1-5.3c-0.4-0.2-0.8-0.4-1.3-0.6
			c-3.9-1.1-7.9-2.2-11.9-3c-0.4-0.1-0.7-0.1-1.1-0.3c-0.9-0.3-1.2-1.4-0.5-2.1c0.2-0.3,0.6-0.5,0.9-0.7c2.2-1.7,4.3-3.6,6.2-5.7
			c0.8-0.9,1.6-1.7,2.5-2.5c1.8-1.7,3.5-3.4,5.1-5.3c0.6-0.8,1.2-1.5,1.3-2.6c0.1-1,1-1.6,1.9-1.6c1,0,1.9,0.6,2.1,1.5
			c0.4,1.6,1.1,3,2.1,4.3c0.2,0.3,0.5,0.6,0.6,0.9c0.9,1.7,2.2,2.9,3.4,4.3c0.2,0.2,0.6,0.4,1,0.6C590.2,52.1,590.3,51.5,590.4,50.8
			"/>
		<path d="M579.5,18.6c-0.5,0.1-0.8,0.5-1,1c-1.2,2.5-1.7,5.1-1.1,7.8c0.1,0.5,0.1,1.1,0.2,1.6c0.4,2.1,1.5,3.7,3.4,4.7
			c1.6,0.9,2.8,0.5,3.5-1.3c0.6-1.4,0.7-2.8,0.7-4.3c0-3.5-0.9-6.9-2.6-10c-0.3-0.5-0.5-1-1.3-1.2C581.1,17.9,580.4,18.4,579.5,18.6
			 M586.5,33.4c-0.9,2-3.1,3.2-5.3,2.7c-3-0.7-5.1-2.4-5.7-5.7c-0.1-0.7-0.3-1.3-0.4-2c-0.6-3.3-0.3-6.6,1.1-9.7
			c0.3-0.5,0.6-1,1.1-1.5c0.8-0.8,1.7-1.6,2.6-2.3c0.2-0.2,0.5-0.3,0.8-0.3c1.2-0.1,2.3,0.1,3.2,1.1c0.5,0.7,1.1,1.3,1.4,2.1
			c1,2.9,1.9,5.8,2.1,9C587.8,29.1,587.4,31.3,586.5,33.4"/>
		<path d="M631.3,67.9c0.2,0.2,0.3,0.2,0.4,0.3c0.4,1.8,0.8,3.5,1,5.3c0.3,2,0.3,4,0.5,6.1c0,0.1,0,0.3,0,0.5c0.6,1.9,0.5,4,0.8,6
			c0.5,4.4,1.2,8.8,1.3,13.2c0,0.4,0,0.8,0.1,1.1c0.3,1.2,0.3,2.4,0.3,3.6c0,0.8,0,1.5,0.1,2.3c0,0.7,0.4,1.3,0.8,1.7
			c0.4,0.3,0.8,0.5,1.2,0.2c0.5-0.3,1-1.1,0.8-1.6c-0.8-2.8-0.6-5.7-1-8.5c-0.6-4.2-1.1-8.5-1.7-12.7c-0.2-1.6-0.2-3.2-0.3-4.7
			c-0.1-1.6-0.4-3.1-0.5-4.7c-0.4-3.6-0.8-7.2-1.1-10.8c-0.3-3.4-0.5-6.7-0.8-10.1c0-0.6,0-1.2,0-2c0.5,0.4,0.9,0.6,1.2,1
			c2.9,3.1,5.7,6.4,7.7,10.6c-0.3,0.8-0.9,1.1-1.5,1.5c-0.5,0.3-1,0.6-1.5,0.9c-0.9,0.6-1.2,1.5-1,2.7c0.1,0.5,0.2,1,0.4,1.5
			c0.3,0.7,0.5,1.4,0.9,2c0.6,0.9,1,1.9,1.2,3c0.1,0.6,0.6,1,1.1,0.9c1-0.2,1.4-1,1.3-2c-0.1-1.3-0.4-2.5-0.9-3.6
			c-0.2-0.4-0.4-0.8-0.5-1.2c-0.2-0.6-0.1-1.1,0.4-1.4c0.8-0.6,1.7-1.2,2.5-1.9c0.3-0.2,0.6-0.5,0.9-0.8c0.4-0.5,0.4-1.3,0.1-1.9
			c-2-2.8-3.9-5.6-6-8.3c-1.8-2.3-3.6-4.5-5.4-6.8c-0.4-0.5-0.7-1.2-1.1-1.8c-0.3-0.5-0.6-0.8-1.1-0.7c-0.6,0.1-1.3,0-1.8,0.4
			c-1.6,1.2-3.5,1.5-5.3,1.9c-2.1,0.6-4.3,0.9-6.5,1.4c-0.8,0.2-1.6,0.3-2.3,0.6c-0.4,0.1-0.7,0.3-1,0.5c-0.4,0.3-0.6,1-0.4,1.6
			c0.1,0.4,0.2,0.7,0.4,1c0.8,1.8,1.6,3.6,2.4,5.3c0.5,1,1.1,2,1.7,2.9c1,1.6,1.9,3.3,2.6,5.3c-0.4,0.5-0.7,1-1.2,1.4
			c-1.3,1-2.2,2.6-3.2,4c-0.6,0.8-0.3,1.9,0.5,2.4c0.9,0.5,1.9,0.1,2.3-1.2c0.4-1.3,1.2-2.1,2-2.8c0.3-0.3,0.7-0.6,1.1-0.8
			c0.4-0.3,0.9-0.5,1.4-0.8c0.2-0.5,0.4-1.1,0.7-1.7c-0.1-0.2-0.1-0.5-0.2-0.7c-2.2-2.8-3.6-6.2-5.5-9.3c-0.8-1.4-1.2-2.9-1.6-4.4
			c0.4-0.7,1-0.8,1.5-0.9c2-0.4,4.1-0.9,6.1-1.3c0.8-0.2,1.6-0.4,2.3-0.6c0.8-0.2,1.3,0.2,1.3,1.3c0,2.7,0,5.4-0.1,8.1
			c-0.1,3.4-0.2,6.8-0.3,10.2c0,2.7-0.2,5.4-0.5,8.1c-0.3,2.5-0.3,5.1-0.6,7.7c-0.2,2.4-0.5,4.8-0.9,7.1c-0.3,2.1-0.6,4.3-1.1,6.4
			c-0.4,1.7-0.5,3.4-0.8,5.1c-0.2,1.5,0.9,2.8,2.2,2.5c1-0.2,1.7-1.3,1.4-2.5c-0.4-1.7-0.3-3.3,0-4.9c0.3-2.6,0.6-5.2,1-7.8
			c0-0.2,0.1-0.5,0.1-0.7c-0.1-3.2,0.8-6.2,0.6-9.4c0-0.4,0.1-0.9,0.2-1.3c0.5-2.5,0.6-5.1,0.7-7.6
			C631.2,71.4,631.4,69.7,631.3,67.9"/>
		<path d="M629,24.6c0.4-1.5,0.7-3,0-4.3c-0.4-0.8-0.6-1.8-1.6-2.1c-0.9,0.7-1.1,1.9-1.2,3.1c-0.3,3-0.3,6,0.3,9
			c0.5,2.5,1.6,4.7,3.3,6.3c0.3,0.3,0.6,0.5,1,0.6c0.6,0.3,1.1,0,1.4-0.6c0.2-0.5,0.4-1.1,0.5-1.7c0.5-3.5,0.4-6.9-0.3-10.3
			c-0.1-0.3-0.2-0.7-0.4-1.1C631,24.1,630.2,25.3,629,24.6 M623.8,24.6c0-0.7-0.1-1.4-0.1-2c0-1.6,0-3.2,0.5-4.7
			c0.4-1.3,1.2-2.1,2.3-2.2c1.2-0.1,2.3,0,3.3,1.1c0.4,0.4,0.8,0.6,1.3,0.6c0.9,0,1.5,0.6,1.9,1.5c0.2,0.5,0.4,0.9,0.6,1.4
			c1.5,4.5,1.9,9.2,1.7,14c-0.1,1.8-0.6,3.5-1.9,4.6c-0.8,0.7-1.6,1-2.6,0.6c-0.5-0.2-1-0.3-1.4-0.6c-2.8-2-4.7-4.7-5.3-8.7
			c-0.2-1.8-0.3-3.7-0.4-5.6C623.7,24.6,623.8,24.6,623.8,24.6"/>
	</g>
	<g id="_x33_">
		<path d="M409.7,24.4c0.4-1.5,0.7-3,0-4.5c-0.4-0.8-0.6-1.9-1.6-2.1c-0.9,0.8-1.2,2-1.3,3.2c-0.3,3.1-0.3,6.2,0.3,9.2
			c0.5,2.6,1.6,4.9,3.4,6.5c0.3,0.3,0.7,0.5,1,0.6c0.6,0.3,1.2,0,1.5-0.6c0.2-0.5,0.5-1.1,0.6-1.7c0.6-3.6,0.4-7.1-0.4-10.6
			c-0.1-0.4-0.2-0.7-0.4-1.1C411.8,23.8,411,25.1,409.7,24.4 M404.4,24.4c0-0.7-0.1-1.4-0.1-2.1c0-1.6,0.1-3.3,0.5-4.8
			c0.4-1.4,1.2-2.2,2.4-2.3s2.4,0,3.4,1.1c0.4,0.4,0.8,0.7,1.4,0.7c0.9,0,1.6,0.6,2,1.5c0.2,0.5,0.4,0.9,0.6,1.4
			c1.6,4.6,2,9.5,1.7,14.4c-0.1,1.9-0.6,3.7-2,4.8c-0.8,0.7-1.7,1.1-2.7,0.7c-0.5-0.2-1-0.3-1.4-0.6c-2.9-2-4.9-4.9-5.5-9
			c-0.3-1.9-0.3-3.8-0.5-5.8C404.3,24.4,404.4,24.4,404.4,24.4"/>
		<path d="M412.1,69c0.2,0.2,0.4,0.2,0.4,0.4c0.4,1.8,0.8,3.6,1,5.4c0.3,2.1,0.3,4.2,0.5,6.3c0,0.2,0,0.3,0,0.5
			c0.6,2,0.6,4.1,0.8,6.2c0.5,4.5,1.2,9,1.3,13.7c0,0.4,0,0.8,0.1,1.2c0.3,1.2,0.3,2.5,0.3,3.7c0,0.8,0,1.6,0.1,2.3
			c0,0.7,0.4,1.3,0.9,1.7c0.4,0.3,0.8,0.5,1.2,0.2c0.5-0.3,1-1.1,0.9-1.7c-0.8-2.8-0.6-5.8-1-8.7c-0.6-4.4-1.2-8.7-1.7-13.1
			c-0.2-1.6-0.2-3.2-0.4-4.9c-0.1-1.6-0.4-3.2-0.5-4.8c-0.4-3.7-0.8-7.4-1.1-11.1c-0.3-3.5-0.6-7-0.8-10.4c0-0.6,0-1.2,0-2.1
			c0.6,0.4,0.9,0.7,1.3,1c3,3.2,5.9,6.6,8,10.9c-0.3,0.8-1,1.1-1.6,1.5c-0.5,0.3-1,0.6-1.5,1c-0.9,0.6-1.2,1.6-1,2.8
			c0.1,0.5,0.2,1.1,0.4,1.5c0.3,0.7,0.6,1.4,0.9,2c0.6,1,1.1,1.9,1.2,3.1c0.1,0.7,0.6,1,1.2,0.9c1-0.2,1.5-1,1.4-2.1
			c-0.1-1.3-0.4-2.6-1-3.8c-0.2-0.4-0.4-0.8-0.5-1.2c-0.2-0.6-0.1-1.1,0.4-1.4c0.9-0.7,1.7-1.3,2.6-1.9c0.3-0.2,0.7-0.5,0.9-0.8
			c0.4-0.5,0.4-1.4,0.1-1.9c-2.1-2.9-4.1-5.7-6.2-8.5c-1.8-2.4-3.7-4.7-5.6-7c-0.4-0.6-0.7-1.2-1.1-1.9c-0.3-0.5-0.6-0.8-1.1-0.7
			c-0.6,0.1-1.3,0-1.9,0.4c-1.7,1.2-3.6,1.5-5.4,2c-2.2,0.6-4.5,1-6.7,1.4c-0.8,0.2-1.6,0.3-2.4,0.6c-0.4,0.1-0.7,0.3-1,0.5
			c-0.5,0.3-0.6,1-0.5,1.6c0.1,0.4,0.3,0.7,0.4,1.1c0.8,1.8,1.6,3.7,2.5,5.5c0.5,1.1,1.1,2.1,1.8,3c1.1,1.6,2,3.4,2.7,5.4
			c-0.4,0.5-0.8,1.1-1.2,1.4c-1.4,1.1-2.3,2.7-3.4,4.1c-0.7,0.8-0.3,2,0.6,2.4c1,0.5,1.9,0.1,2.4-1.2c0.4-1.4,1.2-2.1,2.1-2.9
			c0.4-0.3,0.8-0.6,1.1-0.8c0.4-0.3,0.9-0.5,1.5-0.9c0.2-0.5,0.5-1.2,0.7-1.8c-0.1-0.3-0.1-0.5-0.2-0.7c-2.3-2.9-3.8-6.4-5.7-9.6
			c-0.9-1.4-1.3-3-1.6-4.6c0.4-0.8,1-0.8,1.6-1c2.1-0.5,4.2-0.9,6.4-1.3c0.8-0.2,1.6-0.4,2.4-0.6c0.8-0.2,1.4,0.2,1.3,1.4
			c0,2.8,0,5.6-0.1,8.4c-0.1,3.5-0.2,7-0.3,10.5c0,2.8-0.2,5.6-0.6,8.3c-0.3,2.6-0.3,5.3-0.6,7.9c-0.2,2.5-0.6,4.9-0.9,7.4
			c-0.3,2.2-0.6,4.5-1.2,6.6c-0.5,1.7-0.6,3.5-0.8,5.2c-0.2,1.6,1,2.8,2.2,2.6c1-0.2,1.8-1.3,1.4-2.5c-0.5-1.7-0.3-3.4,0-5.1
			c0.4-2.7,0.7-5.4,1-8.1c0-0.2,0.1-0.5,0.1-0.7c-0.1-3.3,0.8-6.4,0.7-9.7c0-0.4,0.1-0.9,0.2-1.4c0.5-2.6,0.6-5.2,0.8-7.9
			C412,72.6,412.2,70.9,412.1,69"/>
		<path d="M458.5,34.9c0.6-0.5,1.2-0.6,1.9-0.1c0.9,0.6,1.9-0.2,2.2-1.6c0.1-0.5,0.2-1,0.2-1.5c0-1.6,0-3.3-0.2-4.9
			c-0.2-2.7-1.2-5.1-2-7.4c-0.1-0.3-0.4-0.6-0.7-0.8c-0.2-0.1-0.6-0.2-0.7,0c-0.6,0.8-1.1,1.6-1.9,1.8c-0.1,0-0.2,0.4-0.3,0.6
			c-0.1,0.7-0.3,1.3-0.4,2c-0.3,3,0,6,0.6,8.9C457.3,33.1,457.7,34,458.5,34.9 M465.9,27.3c-0.2,1.5-0.2,2.4-0.3,3.3
			c-0.1,1.3-0.2,2.6-0.4,3.8c-0.2,1.4-0.9,2.4-1.9,3c-2.2,1.4-4.3,1.1-6.3-0.5c-1.1-0.9-1.6-2.4-2.1-3.9c-0.7-2.4-0.8-4.9-0.9-7.3
			c-0.1-2.4,0.4-4.7,1-7c1.2-3.9,3.8-4.3,6.1-2.6c2.4,1.8,3.8,4.7,4.2,8.4C465.4,25.6,465.3,26.7,465.9,27.3"/>
		<path d="M461.8,51.4c0-0.1,0-0.2-0.1-0.2c0,0-0.1,0-0.1,0.1S461.6,51.5,461.8,51.4C461.7,51.5,461.7,51.4,461.8,51.4 M462.4,52.4
			c-0.7,0.7-0.6,1.4-0.6,2.1c0.1,1.5,0.4,2.9,0,4.3c0,0.1,0,0.3,0,0.5c0.3,4.6,0.6,9.1,1,13.7c0.2,2.7,0.7,5.4,1,8.2
			c0.2,1.6,0.4,3.2,0.5,4.9c0.1,2.5,0.5,5,0.9,7.4c0.2,1.6,0.5,3.2,1.5,4.4c0.2,0.2,0.3,0.7,0.4,1.2c0.1,1,0.4,1.8,0.9,2.5
			s0.6,2.1,0.1,2.8c-0.2,0.3-0.6,0.6-1,0.6c-1.3,0.1-2.5-1.4-2.8-3.2c-0.2-1.5-0.5-3-0.8-4.5c-0.8-3.8-1.1-7.6-1.5-11.5
			c-0.4-4-1.1-8-1.6-12c0-0.1-0.2-0.2-0.4-0.5c-0.1,2.2-0.3,4.2-0.3,6.2c-0.1,3.6-0.3,7.2-0.7,10.8c-0.4,2.9-0.4,5.8-0.6,8.7
			c-0.1,1.5-0.3,2.9-0.4,4.4c-0.1,1.4-0.3,2.7-0.4,4.1c-0.1,1.2-0.5,1.6-1.4,1.4c-0.1,0-0.3,0-0.4-0.1c-0.8-0.3-1.2-1-1-2.2
			c0.1-0.8,0.3-1.7,0.5-2.5c0.5-2.5,0.7-5.1,0.9-7.7c0.3-3.9,0.8-7.9,1.1-11.8c0.1-1.7,0.1-3.4,0.2-5.2c0.2-3.7,0.5-7.4,0.7-11.1
			c0.1-1.6,0.1-3.3,0.2-4.9c0.1-3.1,0.2-6.2,0.3-9.3c0-0.3,0-0.7,0-1.1c-0.6-0.3-1.1-0.6-1.7-0.9c-1.9,1.1-8.8,6.5-9.7,7.6
			c-0.2,0.2-0.3,0.5-0.4,0.8c0.5,0.5,1.1,0.4,1.5,0.4c2.2-0.1,4.2,1.1,6.3,1.8c0.3,0.1,0.6,0.4,0.8,0.6c0.9,0.8,1,2,0.1,3
			c-0.3,0.3-0.6,0.7-0.9,0.9c-1.1,0.5-2.1,0.9-2.7,2.5c-0.3,0.8-1.3,0.4-1.5-0.5c-0.3-0.9-0.3-1.9,0-2.7c0.2-0.6,0.5-1.1,0.8-1.7
			c-0.1-0.7-0.5-0.6-0.8-0.7c-1.8-0.6-3.6-0.9-5.5-0.8c-0.6,0-1.1,0.1-1.6-0.4c-0.4-0.4-0.5-1.1-0.2-1.6c0.2-0.3,0.3-0.5,0.5-0.8
			c0.7-0.8,1.4-1.6,2-2.4c1.3-1.6,2.7-3,4.3-4.1c2.3-1.6,4.5-3.6,6.7-5.5c0.6-0.5,1.1-1.2,1.6-1.9c0.5-0.7,1.1-1.1,1.8-1.2
			c1-0.2,1.8,0.1,2.3,1.3c0.4,0.9,0.9,1.7,1.2,2.6c1.5,3.7,3.7,6.5,6.1,9.2c0,0,0.1,0,0.2,0c0.4-0.6,0.3-1.4,0.3-2.2
			c0-3.7-0.4-7.4-1.5-10.9c-0.1-0.4-0.2-0.8-0.4-1.2c-0.8-1.8-0.3-3.5,0-5.2c0.1-0.5,0.4-0.9,0.8-0.9c0.4,0,0.7,0.3,0.9,0.8
			c0.1,0.5,0.3,1,0.4,1.5c0.7,3.7,1.4,7.4,2,11.1c0.3,2,0.3,4.1,0.4,6.2c0.1,1.2,0.1,2.4,0.1,3.6c0,0.9-0.4,1.5-1,1.6
			c-0.8,0.2-1.5-0.1-2.1-0.8c-2.4-2.6-4.7-5.3-6.5-8.7C463,53.2,462.7,52.9,462.4,52.4"/>
		<path d="M489.4,63.3c-0.2,0.3-0.2,0.5-0.3,1c1.4,0.1,2.8,0,4.1,0c1.4,0,2.8,0.1,4.2,0.2c0.4-0.9,0.3-1.7-0.1-2.5
			c-0.2-0.6-0.3-1.1,0-1.6c0.4-0.6,0.4-1.2,0.4-1.9c0-1.6,0.1-3.1,0.1-4.7c0-0.5-0.2-1-0.3-1.5c-0.3,0.1-0.4,0.1-0.5,0.2
			c-1.1,1.3-2.2,2.7-3.3,4c-0.2,0.2-0.2,0.3-0.3,0.5C492.3,59.2,490.9,61.3,489.4,63.3 M496.4,74c0.4-2.3,0.8-4.7,0.3-7
			c-0.4-0.2-0.7-0.4-1.1-0.4c-2.8-0.1-5.7-0.3-8.4,0.6c-0.5,0.2-1,0.2-1.5,0.2c-0.9,0-1.5-0.8-1.4-1.6c0.1-0.2,0.2-0.5,0.4-0.6
			c1.4-0.9,2.4-2.2,3.2-3.6c1.9-3.2,3.8-6.3,5.7-9.5c0.4-0.7,0.8-1.3,1.2-1.9c0.6-0.9,1.2-1.8,1.5-2.9c0.5-1.4,1.8-1.5,2.8-1
			c0.7,0.4,1.3,0.9,2.1,1.2c0.1,0,0.2,0.1,0.3,0.2c0.7,1.2,2,1.5,3.2,1.8c2.3,0.6,4.5,1.6,6.6,2.7c0.6,0.3,1.1,0.7,1.9,0.9
			c0.3-1.4,0.3-2.7,0-4s-0.6-2.6-0.8-3.9c-0.1-0.4-0.3-0.8-0.6-1.1c-0.9-1-0.8-1.4,0.2-2.3c0.4-0.3,0.7-0.5,1.1-0.8
			c0.5-0.3,1-0.7,1.5-1.1c0.9-0.6,2.4-0.4,3.1,0.5c0.1,0.2,0.1,0.5,0.1,0.7c-0.1,0.6-0.4,1-1,1.3c-0.8,0.5-1.7,0.9-2.4,1.7
			c0.1,0.7,0.2,1.4,0.4,2.2c0.5,2,1,4,1.5,6c0.2,0.6,0.3,1.3,0.5,1.9c0.3,0.6,0.6,1.1,0.9,1.6c0,0.8-0.2,1.4-1.1,1.7
			s-1.8,0.1-2.5-0.5c-1.3-1.1-2.7-2.1-4.2-2.9c-1.6-0.9-3.4-1.7-5.2-2.2c-1.4-0.4-2.9-0.6-4.4-0.8c0,1.2-0.1,2.2-0.1,3.2
			c-0.1,1.2-0.1,2.4-0.1,3.6c0,0.8,0,1.7,0.2,2.5c0.3,1.4,0.8,2.8,1.2,4.2c0.2,0.6,0.6,0.9,1.2,1c2.1,0.4,4.1,0.8,6.2,1.3
			c0.6,0.1,1.2,0.3,1.8,0.5c0.7,0.3,1.1,0.8,1,1.6c-0.4,0.5-1,0.9-1.7,1.1s-1.4,0.2-1.9-0.5c-0.2-0.3-0.6-0.6-0.9-0.7
			c-1.5-0.5-3-0.8-4.5-1c-0.1,0.3-0.2,0.4-0.2,0.6c0.3,2.2,0.7,4.4,0.9,6.6c0.2,1.8,0.3,3.5,0.7,5.2c0.2,0.9,0.5,1.9,0.7,2.8
			c0.3,1.6,0.6,3.2,0.8,4.8c0.2,1.4,0.6,2.7,1.2,4c0.4,0.7,0.5,1.5,0.4,2.3c-0.1,0.7-0.1,1.5,0,2.3c0.1,0.6,0.3,1.1,0.5,1.7
			c0.1,0.5,0.4,1,0.6,1.5c0.8,2,1.6,4.1,2.3,6.1c0.2,0.5,0.3,1.1,0.4,1.6c0,0.5-0.3,0.9-0.8,1.1c-0.4,0.2-0.9,0.1-1.2-0.2
			c-0.2-0.3-0.5-0.6-0.6-0.9c-0.4-1-0.8-2-1.2-2.9c-0.5-1.1-1-2.2-1.5-3.3c-0.8-1.8-1.4-3.7-1.6-5.7c-0.5-4.4-1-8.8-2-13.2
			c-0.5-2.4-0.9-4.9-1.2-7.3c-0.2-1.6-0.5-3.2-0.8-4.8c-0.5,0-0.6,0.3-0.6,0.6c-0.1,2-0.8,3.9-0.9,5.9c0,0.6-0.3,1.2-0.4,1.8
			c-0.3,2.3-0.5,4.7-0.8,7c-0.2,1.3-0.3,2.5-0.5,3.8c-0.3,2.2-0.7,4.4-1,6.6c-0.1,1.2,0,2.4,0,3.6c0,0.7,0,1.3-0.1,2
			c-0.1,0.9-0.2,1.7,0.3,2.5c0.1,0.2,0.1,0.5,0.1,0.7c-0.1,1.4-0.1,2.7-0.2,4c-0.1,1.2-1.2,1.7-2.2,1.1c-0.7-0.4-1.1-0.9-1-1.8
			c0.2-1.6,0.3-3.1,0.4-4.7c0.1-1.3,0.3-2.5,0.3-3.8c0.1-2.2,0.3-4.4,0.7-6.6c0.4-2.7,0.6-5.4,0.9-8.1
			C495.5,81.2,495.8,77.6,496.4,74"/>
		<path d="M496.3,22.5c-0.2-0.2-0.4-0.4-0.9-0.7c-0.1,0.3-0.3,0.5-0.3,0.7c0,0.8,0,1.5,0,2.2c0.2,2.6,0.9,5.1,1.5,7.6
			c0.2,0.7,0.5,1.4,0.9,2c1.2,2,2.3,1.5,3.4,0.4c1-1,1.4-2.3,1.7-3.6c0.7-2.5,0.1-4.9-0.8-7.2c-0.4-1-1-1.9-1.8-2.7
			c-0.6-0.6-1.1-0.6-1.7-0.2c-0.6,0.4-1.1,0.9-1.7,1.4C496.6,22.5,496.4,22.5,496.3,22.5 M500.7,16.1c0.1,0.1,0.3,0.2,0.5,0.3
			c-0.1,0.1-0.2,0.4-0.3,0.4c-0.3,0.1-0.5,0.1-0.8,0.1c-1.3,0.1-2.3,0.7-3,1.9c0.7-0.1,1.3-0.2,1.9-0.3c1.6-0.2,2.9,0.3,3.8,1.6
			c0.8,1.1,1.5,2.3,1.8,3.6c0.4,1.6,1,3.1,1.1,4.8c0.1,2.1-0.2,4.1-1.2,6c-0.2,0.3-0.4,0.6-0.6,0.9c-1.3,2-3.2,2.7-5.6,2.5
			c-0.6,0-1-0.2-1.4-0.5c-0.8-0.6-1.3-1.4-1.7-2.2c-1-2.2-1.5-4.5-2-6.8c-0.1-0.9-0.2-1.8-0.4-2.7c-0.2-1.1,0-2.3,0-3.4
			c0-0.2,0-0.3,0.1-0.4c0.9-1.5,1.4-3.3,2.8-4.5S498.8,15.8,500.7,16.1"/>
		<path class="st0" d="M553.2,39.9c0.4-0.4,0.3-0.9,0.3-1.2c0-0.6-0.1-1.1,0-1.6c0.1-1,0-1.9-0.1-2.8c0-0.4,0-0.7,0-1.1
			c0-0.5,0-1-0.2-1.5c-0.1-0.2-0.1-0.5-0.2-0.7c-0.2-1.2-0.3-2.3-0.4-3.5c-0.1-1.3-0.3-2.7-0.4-4c0-0.5,0-0.9-0.5-1.3
			c-0.1-0.1-0.2-0.3-0.2-0.5c-0.2-1.7-0.6-3.4-0.6-5.1c0-1.4-0.1-2.9-0.2-4.3c0-0.3-0.1-0.5-0.6-0.5c-0.4,0.6-1,0.7-1.8,0.7
			c-1.6,0-3.1,0.1-4.7,0.1c-0.2,0-0.5,0-0.7,0.1c-1.3,0.3-2.7,0.2-4.1,0.3c-1.9,0.2-3.8,0.2-5.7,0.3c-0.2,0-0.4,0.1-0.8,0.2
			c0.3,0.5,0.3,1,0.1,1.4c-0.1,0.2-0.1,0.4-0.1,0.5c-0.1,1.5,0.1,3.1-0.2,4.6c-0.1,0.7,0,1.5-0.1,2.2s0.2,1.5-0.1,2.2
			c0,0.1,0,0.1,0,0.2c0,0.6,0.1,1.2,0.1,1.9c0,0.8,0,1.7-0.1,2.5c0,1.2,0,2.4-0.1,3.6c-0.1,1.1,0.1,2.1,0.2,3.2
			c0.1,0.6,0.2,1.2,0.3,1.8c0.1,0.4,0.1,0.9,0.4,1.3c0.5,0.1,1.1,0.2,1.6,0.2c1.3,0.1,2.6,0.1,3.9,0.2c1.2,0.1,2.3,0.1,3.5,0.2
			c0.3,0,0.5,0,0.8,0c1.6,0,3.3,0,4.9-0.1c0.8,0,1.6,0,2.3,0C551,39.4,552.2,39.2,553.2,39.9 M530,13.9c-0.4,0-0.6,0.1-0.8,0.1
			c-0.3,0-0.5-0.1-0.7-0.3c-1.5-1.3-2.1-3-1.8-4.9c0.1-0.6,0.3-1.2,1.1-1.4c0.7-0.2,1.6,0.3,1.7,1c0.1,0.3,0,0.6-0.3,0.9
			c-0.8,1-0.5,1.7,0.8,1.9c0.9,0.1,1.9,0.2,2.8,0.1c1.9-0.2,3.9-0.3,5.8-0.5c1.9-0.2,3.8-0.1,5.7-0.2c1-0.1,2-0.2,3.1-0.3
			c-0.1-0.7-0.3-1.3-0.3-2c0-0.6,0.1-1.2,0.2-1.9c-0.3,0-0.5,0-0.7,0c-2.2,0-4.4,0-6.6,0c-0.8,0-1.6,0.1-2.5,0.1s-1.8,0.1-2.7,0
			c-0.7-0.1-1.4,0.1-2.1,0.1c-1.4,0.2-2.8,0-4.2-0.1c-0.3,0-0.5-0.2-0.8-0.2c-0.4-0.1-0.5-0.4-0.5-0.8c0-0.3,0.2-0.6,0.6-0.7
			c0.6-0.2,1.3-0.4,2-0.2c1.4,0.3,2.8,0.2,4.2,0.2c0.7,0,1.4-0.1,2.1-0.2c0.5,0,1.1-0.1,1.6-0.1c1.4,0,2.9-0.1,4.3,0
			c2,0,4.1-0.1,6.1-0.3c0.1,0,0.2,0,0.2,0c1.5-0.3,2.1,0.6,2.2,1.9c0,0.1-0.1,0.3-0.2,0.5c0.3,0,0.5,0,0.8,0
			c0.7,0.1,1.2,0.4,1.2,1.1c0.1,0.6,0,1.2,0,1.8c0,1.6-0.1,3.3-0.2,4.9c0,0.8-0.1,1.5,0,2.3c0.2,1.7,0.3,3.4,0.6,5.1
			c0.1,1,0.3,2,0.3,3c0,0.6,0.1,1.2,0.2,1.9c0.1,1.1,0.2,2.2,0.4,3.3c0,0.3,0.1,0.7,0.2,1c0.3,1.1,0.5,2.3,0.6,3.4
			c0.1,0.9,0.1,1.8,0.4,2.6c0.1,0.3,0,0.6,0,0.9c-0.1,0.7,0,1.5,0.3,2.1c0.1,0.3,0.2,0.6,0.2,0.8c0,0.9,0,1.8-0.3,2.7
			c-0.1,0.1-0.3,0.2-0.4,0.2c-1,0.4-1.7,0.1-2.1-0.9c-0.1-0.3-0.2-0.6-0.5-0.9c-0.4-0.5-0.9-0.7-1.6-0.7c-1.6,0-3.2,0-4.8,0
			c-0.2,0-0.4,0-0.6,0c-0.9-0.3-1.9-0.2-2.8-0.2c-0.2,0-0.5,0-0.7,0c-2.5-0.3-4.9-0.3-7.4-0.5c-1.1-0.1-2.2,0-3.2,0.4
			c-0.7,0.2-1.6-0.3-1.6-1c0-0.6-0.1-1.2,0.3-1.8c0.3-0.6,0.4-1.2,0.4-1.9c0-1.6,0-3.2,0-4.7c0-2.6,0-5.1-0.1-7.7c0-1.7,0-3.4,0-5.1
			c0-1.2-0.1-2.3-0.1-3.5C530.1,14.9,530.1,14.5,530,13.9"/>
		<path class="st0" d="M536.4,31.9c0.7,0,1.3,0.7,1.3,1.3c0,0.1-0.1,0.4-0.2,0.4c-0.6,0.1-0.6,0.6-0.8,0.9c-0.2,0.2-0.4,0.4-0.7,0.6
			c-0.1,0.1-0.4,0.1-0.6,0.1c-0.6-0.2-1.1-0.5-1.3-1.2c-0.1-0.4,0-0.7,0.4-1c0.2-0.1,0.3-0.2,0.5-0.2c0.2-0.1,0.4-0.2,0.5-0.4
			C535.8,32.1,536,32,536.4,31.9"/>
		<path class="st0" d="M537.6,25.9c0.8,0,1.3,0.5,1.3,1c0,0.2-0.1,0.4-0.2,0.5c-0.3,0.4-0.8,0.5-1.3,0.3s-0.8-0.5-1-1
			c-0.1-0.2,0.2-0.6,0.5-0.7C537.2,26,537.5,25.9,537.6,25.9"/>
		<path class="st0" d="M538.4,30.5c0,0.5-0.6,0.8-1.1,0.7c-0.2-0.1-0.4-0.2-0.6-0.3c-0.5-0.3-0.6-0.8-0.4-1.1
			c0.2-0.3,0.9-0.5,1.3-0.4C538,29.5,538.4,30,538.4,30.5"/>
		<path class="st0" d="M539.7,24.5c0.6-0.3,1.1-0.4,1.6,0c0.3,0.2,0.6,0.2,0.9,0.2c0.5,0.1,1.1,0.2,1.6,0.4c0.6,0.3,0.7,1.2,0.1,1.6
			c-0.1,0.1-0.3,0.1-0.4,0.2c-0.1,0-0.2,0-0.3,0c-0.5,0-0.9-0.3-1.3-0.5c-0.4-0.2-0.9-0.1-1.3-0.2C539.7,25.8,539.6,25.5,539.7,24.5
			"/>
		<path class="st0" d="M547.3,25.4c0.1,0.3,0.2,0.6,0.3,0.9c0.1,0.3-0.1,0.5-0.3,0.6c-0.6,0.3-1.6,0.2-2.1-0.3
			c-0.4-0.4-0.2-1.4,0.3-1.6c0.2-0.1,0.4-0.1,0.7-0.1c0-0.1-0.1-0.2-0.1-0.3c-0.1-0.9,0.3-1.3,1.2-1.3c0.2,0,0.4,0,0.6,0.1
			c0.7,0.2,0.9,0.8,0.4,1.3C548.1,24.8,547.7,25.1,547.3,25.4"/>
		<path class="st0" d="M547.3,22.3c-0.5,0-0.9-0.2-1.2-0.5c-0.4-0.5-0.2-1.2,0.5-1.2c0.8-0.1,1.2,0,1.5,0.6
			C548.4,21.8,548.1,22.3,547.3,22.3"/>
		<path class="st0" d="M546.6,18.4c-0.4,0.4-0.6,0.7-0.9,1c-0.5,0.5-1,0.5-1.5,0c-0.4-0.3-0.4-0.7-0.1-1.1c0.2-0.3,0.5-0.5,0.7-0.8
			c0.1-0.1,0.2-0.3,0.3-0.5c-0.2-0.1-0.3-0.2-0.5-0.2s-0.4,0-0.6,0c-0.4,0-0.8-0.2-0.9-0.6c-0.1-0.3,0.1-0.8,0.5-1
			c0.2-0.1,0.4-0.1,0.5-0.1c0.9,0,1.8,0.2,2.5,0.8c0.2-0.1,0.4-0.2,0.6-0.4c0.4-0.5,1-0.4,1.5-0.3c0.8,0.2,1.1,1,0.6,1.5
			c-0.2,0.3-0.5,0.5-0.8,0.9c0.1,0.2,0.3,0.5,0.5,0.9c0.1,0.3,0.2,0.6-0.1,0.9c-0.4,0.3-0.9,0.4-1.3,0.1c-0.2-0.2-0.4-0.3-0.6-0.5
			C546.9,18.8,546.9,18.7,546.6,18.4"/>
	</g>
	<g id="_x32_">
		<path d="M226.7,24.4c0.4-1.5,0.7-3,0-4.5c-0.4-0.8-0.6-1.9-1.6-2.1c-0.9,0.8-1.2,2-1.3,3.2c-0.3,3.1-0.3,6.2,0.3,9.2
			c0.5,2.6,1.6,4.9,3.4,6.5c0.3,0.3,0.7,0.5,1,0.6c0.6,0.3,1.2,0,1.5-0.6c0.2-0.5,0.5-1.1,0.6-1.7c0.6-3.6,0.4-7.1-0.4-10.6
			c-0.1-0.4-0.2-0.7-0.4-1.1C228.8,23.8,228,25.1,226.7,24.4 M221.4,24.4c0-0.7-0.1-1.4-0.1-2.1c0-1.6,0.1-3.3,0.5-4.8
			c0.4-1.4,1.2-2.2,2.4-2.3s2.4,0,3.4,1.1c0.4,0.4,0.8,0.7,1.4,0.7c0.9,0,1.6,0.6,2,1.5c0.2,0.5,0.4,0.9,0.6,1.4
			c1.6,4.6,2,9.5,1.7,14.4c-0.1,1.9-0.6,3.7-2,4.8c-0.8,0.7-1.7,1.1-2.7,0.7c-0.5-0.2-1-0.3-1.4-0.6c-2.9-2-4.9-4.9-5.5-9
			c-0.3-1.9-0.3-3.8-0.5-5.8C221.3,24.4,221.4,24.4,221.4,24.4"/>
		<path d="M229.1,69c0.2,0.2,0.4,0.2,0.4,0.4c0.4,1.8,0.8,3.6,1,5.4c0.3,2.1,0.3,4.2,0.5,6.3c0,0.2,0,0.3,0,0.5
			c0.6,2,0.6,4.1,0.8,6.2c0.5,4.5,1.2,9,1.3,13.7c0,0.4,0,0.8,0.1,1.2c0.3,1.2,0.3,2.5,0.3,3.7c0,0.8,0,1.6,0.1,2.3
			c0,0.7,0.4,1.3,0.9,1.7c0.4,0.3,0.8,0.5,1.2,0.2c0.5-0.3,1-1.1,0.9-1.7c-0.8-2.8-0.6-5.8-1-8.7c-0.6-4.4-1.2-8.7-1.7-13.1
			c-0.2-1.6-0.2-3.2-0.4-4.9c-0.1-1.6-0.4-3.2-0.5-4.8c-0.4-3.7-0.8-7.4-1.1-11.1c-0.3-3.5-0.6-7-0.8-10.4c0-0.6,0-1.2,0-2.1
			c0.6,0.4,0.9,0.7,1.3,1c3,3.2,5.9,6.6,8,10.9c-0.3,0.8-1,1.1-1.6,1.5c-0.5,0.3-1,0.6-1.5,1c-0.9,0.6-1.2,1.6-1,2.8
			c0.1,0.5,0.2,1.1,0.4,1.5c0.3,0.7,0.6,1.4,0.9,2c0.6,1,1.1,1.9,1.2,3.1c0.1,0.7,0.6,1,1.2,0.9c1-0.2,1.5-1,1.4-2.1
			c-0.1-1.3-0.4-2.6-1-3.8c-0.2-0.4-0.4-0.8-0.5-1.2c-0.2-0.6-0.1-1.1,0.4-1.4c0.9-0.7,1.7-1.3,2.6-1.9c0.3-0.2,0.7-0.5,0.9-0.8
			c0.4-0.5,0.4-1.4,0.1-1.9c-2.1-2.9-4.1-5.7-6.2-8.5c-1.8-2.4-3.7-4.7-5.6-7c-0.4-0.6-0.7-1.2-1.1-1.9c-0.3-0.5-0.6-0.8-1.1-0.7
			c-0.6,0.1-1.3,0-1.9,0.4c-1.7,1.2-3.6,1.5-5.4,2c-2.2,0.6-4.5,1-6.7,1.4c-0.8,0.2-1.6,0.3-2.4,0.6c-0.4,0.1-0.7,0.3-1,0.5
			c-0.5,0.3-0.6,1-0.5,1.6c0.1,0.4,0.3,0.7,0.4,1.1c0.8,1.8,1.6,3.7,2.5,5.5c0.5,1.1,1.1,2.1,1.8,3c1.1,1.6,2,3.4,2.7,5.4
			c-0.4,0.5-0.8,1.1-1.2,1.4c-1.4,1.1-2.3,2.7-3.4,4.1c-0.7,0.8-0.3,2,0.6,2.4c1,0.5,1.9,0.1,2.4-1.2c0.4-1.4,1.2-2.1,2.1-2.9
			c0.4-0.3,0.8-0.6,1.1-0.8c0.4-0.3,0.9-0.5,1.5-0.9c0.2-0.5,0.5-1.2,0.7-1.8c-0.1-0.3-0.1-0.5-0.2-0.7c-2.3-2.9-3.8-6.4-5.7-9.6
			c-0.9-1.4-1.3-3-1.6-4.6c0.4-0.8,1-0.8,1.6-1c2.1-0.5,4.2-0.9,6.4-1.3c0.8-0.2,1.6-0.4,2.4-0.6c0.8-0.2,1.4,0.2,1.3,1.4
			c0,2.8,0,5.6-0.1,8.4c-0.1,3.5-0.2,7-0.3,10.5c0,2.8-0.2,5.6-0.6,8.3c-0.3,2.6-0.3,5.3-0.6,7.9c-0.2,2.5-0.6,4.9-0.9,7.4
			c-0.3,2.2-0.6,4.5-1.2,6.6c-0.5,1.7-0.6,3.5-0.8,5.2c-0.2,1.6,1,2.8,2.2,2.6c1-0.2,1.8-1.3,1.4-2.5c-0.5-1.7-0.3-3.4,0-5.1
			c0.4-2.7,0.7-5.4,1-8.1c0-0.2,0.1-0.5,0.1-0.7c-0.1-3.3,0.8-6.4,0.7-9.7c0-0.4,0.1-0.9,0.2-1.4c0.5-2.6,0.6-5.2,0.8-7.9
			C229,72.6,229.2,70.9,229.1,69"/>
		<path d="M275.5,37.9c0.6-0.5,1.2-0.6,1.9-0.1c0.9,0.6,1.9-0.2,2.2-1.6c0.1-0.5,0.2-1,0.2-1.5c0-1.6,0-3.3-0.2-4.9
			c-0.2-2.7-1.2-5.1-2-7.4c-0.1-0.3-0.4-0.6-0.7-0.8c-0.2-0.1-0.6-0.2-0.7,0c-0.6,0.8-1.1,1.6-1.9,1.8c-0.1,0-0.2,0.4-0.3,0.6
			c-0.1,0.7-0.3,1.3-0.4,2c-0.3,3,0,6,0.6,8.9C274.3,36.1,274.7,37,275.5,37.9 M282.9,30.3c-0.2,1.5-0.2,2.4-0.3,3.3
			c-0.1,1.3-0.2,2.6-0.4,3.8c-0.2,1.4-0.9,2.4-1.9,3c-2.2,1.4-4.3,1.1-6.3-0.5c-1.1-0.9-1.6-2.4-2.1-3.9c-0.7-2.4-0.8-4.9-0.9-7.3
			c-0.1-2.4,0.4-4.7,1-7c1.2-3.9,3.8-4.3,6.1-2.6c2.4,1.8,3.8,4.7,4.2,8.4C282.4,28.6,282.3,29.7,282.9,30.3"/>
		<path d="M278.8,54.4c0-0.1,0-0.2-0.1-0.2c0,0-0.1,0-0.1,0.1S278.6,54.5,278.8,54.4C278.7,54.5,278.7,54.4,278.8,54.4 M279.4,55.4
			c-0.7,0.7-0.6,1.4-0.6,2.1c0.1,1.5,0.4,2.9,0,4.3c0,0.1,0,0.3,0,0.5c0.3,4.6,0.6,9.1,1,13.7c0.2,2.7,0.7,5.4,1,8.2
			c0.2,1.6,0.4,3.2,0.5,4.9c0.1,2.5,0.5,5,0.9,7.4c0.2,1.6,0.5,3.2,1.5,4.4c0.2,0.2,0.3,0.7,0.4,1.2c0.1,1,0.4,1.8,0.9,2.5
			s0.6,2.1,0.1,2.8c-0.2,0.3-0.6,0.6-1,0.6c-1.3,0.1-2.5-1.4-2.8-3.2c-0.2-1.5-0.5-3-0.8-4.5c-0.8-3.8-1.1-7.6-1.5-11.5
			c-0.4-4-1.1-8-1.6-12c0-0.1-0.2-0.2-0.4-0.5c-0.1,2.2-0.3,4.2-0.3,6.2c-0.1,3.6-0.3,7.2-0.7,10.8c-0.4,2.9-0.4,5.8-0.6,8.7
			c-0.1,1.5-0.3,2.9-0.4,4.4c-0.1,1.4-0.3,2.7-0.4,4.1c-0.1,1.2-0.5,1.6-1.4,1.4c-0.1,0-0.3,0-0.4-0.1c-0.8-0.3-1.2-1-1-2.2
			c0.1-0.8,0.3-1.7,0.5-2.5c0.5-2.5,0.7-5.1,0.9-7.7c0.3-3.9,0.8-7.9,1.1-11.8c0.1-1.7,0.1-3.4,0.2-5.2c0.2-3.7,0.5-7.4,0.7-11.1
			c0.1-1.6,0.1-3.3,0.2-4.9c0.1-3.1,0.2-6.2,0.3-9.3c0-0.3,0-0.7,0-1.1c-0.6-0.3-1.1-0.6-1.7-0.9c-1.9,1.1-8.8,6.5-9.7,7.6
			c-0.2,0.2-0.3,0.5-0.4,0.8c0.5,0.5,1.1,0.4,1.5,0.4c2.2-0.1,4.2,1.1,6.3,1.8c0.3,0.1,0.6,0.4,0.8,0.6c0.9,0.8,1,2,0.1,3
			c-0.3,0.3-0.6,0.7-0.9,0.9c-1.1,0.5-2.1,0.9-2.7,2.5c-0.3,0.8-1.3,0.4-1.5-0.5c-0.3-0.9-0.3-1.9,0-2.7c0.2-0.6,0.5-1.1,0.8-1.7
			c-0.1-0.7-0.5-0.6-0.8-0.7c-1.8-0.6-3.6-0.9-5.5-0.8c-0.6,0-1.1,0.1-1.6-0.4c-0.4-0.4-0.5-1.1-0.2-1.6c0.2-0.3,0.3-0.5,0.5-0.8
			c0.7-0.8,1.4-1.6,2-2.4c1.3-1.6,2.7-3,4.3-4.1c2.3-1.6,4.5-3.6,6.7-5.5c0.6-0.5,1.1-1.2,1.6-1.9c0.5-0.7,1.1-1.1,1.8-1.2
			c1-0.2,1.8,0.1,2.3,1.3c0.4,0.9,0.9,1.7,1.2,2.6c1.5,3.7,3.7,6.5,6.1,9.2c0,0,0.1,0,0.2,0c0.4-0.6,0.3-1.4,0.3-2.2
			c0-3.7-0.4-7.4-1.5-10.9c-0.1-0.4-0.2-0.8-0.4-1.2c-0.8-1.8-0.3-3.5,0-5.2c0.1-0.5,0.4-0.9,0.8-0.9c0.4,0,0.7,0.3,0.9,0.8
			c0.1,0.5,0.3,1,0.4,1.5c0.7,3.7,1.4,7.4,2,11.1c0.3,2,0.3,4.1,0.4,6.2c0.1,1.2,0.1,2.4,0.1,3.6c0,0.9-0.4,1.5-1,1.6
			c-0.8,0.2-1.5-0.1-2.1-0.8c-2.4-2.6-4.7-5.3-6.5-8.7C280,56.2,279.7,55.9,279.4,55.4"/>
		<path d="M323.3,54.4c0,0,0-0.1,0.1-0.2l-0.1-0.1C323.3,54.1,323.2,54.2,323.3,54.4C323.2,54.4,323.2,54.5,323.3,54.4 M321.7,56.5
			c-1.9,3.3-4.2,6-6.5,8.7c-0.6,0.7-1.3,1-2.1,0.8c-0.6-0.1-1-0.7-1-1.6c0-1.2,0-2.4,0.1-3.6c0.1-2.1,0.1-4.2,0.4-6.2
			c0.6-3.7,1.3-7.4,2-11.1c0.1-0.5,0.2-1,0.4-1.5s0.4-0.8,0.9-0.8c0.4,0,0.7,0.3,0.8,0.9c0.3,1.7,0.8,3.5,0,5.2
			c-0.2,0.4-0.2,0.8-0.4,1.2c-1.1,3.5-1.4,7.1-1.5,10.9c0,0.7-0.1,1.5,0.3,2.2c0.1,0,0.2,0,0.2,0c2.3-2.7,4.6-5.4,6.1-9.2
			c0.4-0.9,0.8-1.8,1.2-2.6c0.6-1.1,1.4-1.5,2.3-1.3c0.7,0.2,1.3,0.6,1.8,1.2c0.5,0.7,1,1.4,1.6,1.9c2.2,1.9,4.4,3.9,6.7,5.5
			c1.6,1.1,3,2.5,4.3,4.1c0.7,0.8,1.3,1.6,2,2.4c0.2,0.2,0.4,0.5,0.5,0.8c0.3,0.5,0.2,1.2-0.2,1.6c-0.5,0.5-1.1,0.4-1.6,0.4
			c-1.9-0.1-3.7,0.2-5.5,0.8c-0.3,0.1-0.7,0-0.8,0.7c0.2,0.5,0.5,1.1,0.8,1.7c0.4,0.9,0.3,1.8,0,2.7c-0.3,0.9-1.2,1.3-1.5,0.5
			c-0.6-1.6-1.7-2-2.7-2.5c-0.3-0.2-0.7-0.5-0.9-0.9c-0.9-1-0.8-2.2,0.1-3c0.3-0.2,0.5-0.5,0.8-0.6c2.1-0.7,4.1-1.8,6.3-1.8
			c0.5,0,1,0.2,1.5-0.4c-0.2-0.3-0.2-0.6-0.4-0.8c-0.9-1.1-7.8-6.5-9.7-7.6c-0.6,0.3-1.1,0.6-1.7,0.9c0,0.5,0,0.8,0,1.1
			c0.1,3.1,0.2,6.2,0.3,9.3c0.1,1.6,0.1,3.3,0.2,4.9c0.2,3.7,0.5,7.4,0.7,11.1c0.1,1.7,0.1,3.5,0.2,5.2c0.3,3.9,0.8,7.9,1.1,11.8
			c0.2,2.6,0.4,5.1,0.9,7.7c0.2,0.8,0.4,1.7,0.5,2.5c0.2,1.1-0.2,1.8-1,2.2c-0.1,0.1-0.2,0.1-0.4,0.1c-0.9,0.2-1.3-0.2-1.4-1.4
			c-0.1-1.4-0.3-2.7-0.4-4.1c-0.1-1.5-0.3-2.9-0.4-4.4c-0.2-2.9-0.2-5.9-0.6-8.7c-0.4-3.6-0.6-7.2-0.7-10.8c-0.1-2-0.2-4-0.3-6.2
			c-0.2,0.3-0.3,0.4-0.4,0.5c-0.6,4-1.2,7.9-1.6,12c-0.4,3.9-0.7,7.7-1.5,11.5c-0.3,1.5-0.6,3-0.8,4.5c-0.3,1.7-1.5,3.2-2.8,3.2
			c-0.3,0-0.8-0.3-1-0.6c-0.5-0.8-0.4-2.1,0.1-2.8c0.5-0.7,0.8-1.5,0.9-2.5c0-0.4,0.2-0.9,0.4-1.2c1-1.1,1.2-2.8,1.5-4.4
			c0.4-2.4,0.8-4.9,0.9-7.4c0.1-1.6,0.3-3.3,0.5-4.9c0.3-2.7,0.8-5.4,1-8.2c0.4-4.5,0.7-9.1,1-13.7c0-0.2,0-0.4,0-0.5
			c-0.4-1.4-0.1-2.9,0-4.3c0-0.7,0.2-1.4-0.6-2.1C322.2,55.8,321.9,56.1,321.7,56.5"/>
		<path d="M327.8,34.9c0.6-2.9,0.9-5.9,0.6-8.9c-0.1-0.7-0.2-1.3-0.4-2c-0.1-0.2-0.2-0.6-0.3-0.6c-0.8-0.3-1.4-1-1.9-1.8
			c-0.1-0.2-0.5-0.1-0.7,0c-0.3,0.2-0.6,0.4-0.7,0.8c-0.9,2.4-1.9,4.7-2,7.4c-0.1,1.6-0.1,3.3-0.2,4.9c0,0.5,0.1,1,0.2,1.5
			c0.3,1.4,1.2,2.2,2.2,1.6c0.7-0.5,1.3-0.4,1.9,0.1C327.2,37,327.5,36,327.8,34.9 M319.6,27.4c0.3-3.8,1.7-6.7,4.2-8.4
			c2.4-1.7,4.9-1.3,6.1,2.6c0.7,2.3,1.1,4.6,1,7c-0.1,2.5-0.1,5-0.9,7.3c-0.5,1.5-1,3-2.1,3.9c-2,1.6-4.1,2-6.3,0.5
			c-1-0.6-1.7-1.6-1.9-3c-0.2-1.3-0.3-2.5-0.4-3.8c-0.1-0.9-0.2-1.8-0.3-3.3C319.6,29.7,319.5,28.5,319.6,27.4"/>
		<path class="st0" d="M338.7,22.3c-0.4,0-0.7-0.2-1-0.5s-0.2-0.7,0.2-0.9c0.1,0,0.2-0.1,0.3-0.1c0.3-0.1,0.6-0.2,1-0.3
			c0.6-0.2,0.9-0.1,1.2,0.3c0.3,0.4,0.2,1-0.3,1.2C339.7,22.2,339.2,22.2,338.7,22.3"/>
		<path class="st0" d="M341.5,14.9c-0.3,0-0.6,0-0.8-0.1c-0.6-0.2-1.2-0.5-1.8-0.7c-0.4-0.2-0.6-0.5-0.9-0.8
			c-0.1-0.2-0.1-0.4,0.1-0.5c0.1-0.1,0.3-0.2,0.5-0.1c0.2,0,0.4,0.1,0.6,0.2c0.6,0.3,1.3,0.6,2,0.6c0.4,0,0.6,0.2,0.8,0.5
			c0.2,0.2,0.1,0.7-0.1,0.9C341.8,14.8,341.6,14.8,341.5,14.9"/>
		<path class="st0" d="M347,9.3c-0.1,0.1-0.2,0.3-0.3,0.3c-0.1,0.1-0.4,0-0.5,0c-0.4-0.2-0.8-0.5-1-1s-0.4-1.1-0.5-1.6
			c-0.1-0.3,0.2-0.7,0.5-0.7c0.5-0.1,1.1,0.2,1.2,0.7c0.1,0.2,0.1,0.5,0,0.7c0,0.5,0,0.9,0.4,1.3C346.9,9.1,347,9.2,347,9.3"/>
		<path class="st0" d="M353.2,5c0.1,0,0.2,0,0.3,0.1c0.5,0.1,0.8,0.6,0.6,1.1s-0.3,1-0.3,1.6c0,0.2-0.1,0.5-0.3,0.6
			c-0.3,0.1-0.6,0-0.8-0.2c-0.1-0.2-0.3-0.5-0.3-0.7c-0.1-0.6-0.1-1.1,0-1.7C352.4,5.2,352.7,5,353.2,5"/>
		<path class="st0" d="M362.9,9.5c-0.3,0.8-1,1.1-1.6,1.6c-0.2,0.2-0.5,0.3-0.8,0.4c-0.2,0.1-0.5,0.2-0.7,0
			c-0.3-0.2-0.4-0.5-0.3-0.8c0.1-0.2,0.2-0.4,0.3-0.6c0.5-0.5,1-0.9,1.5-1.3c0.3-0.2,0.9-0.1,1.3,0.3C362.7,9.2,362.8,9.4,362.9,9.5
			"/>
		<path class="st0" d="M365,20.3c-0.4-0.1-0.8-0.1-1.2-0.2c-0.2,0-0.3-0.1-0.5-0.2c-0.2-0.2-0.4-0.3-0.4-0.7c0-0.2,0.3-0.4,0.7-0.3
			c0.6,0.1,1.1,0,1.6-0.2c0.5-0.1,0.9,0,1.2,0.5c0.3,0.4,0.2,0.7-0.3,0.9c-0.1,0-0.2,0.1-0.3,0.1C365.6,20.2,365.3,20.2,365,20.3
			C365,20.2,365,20.2,365,20.3"/>
		<path class="st0" d="M361,26.7c0.1,0.1,0.4,0.1,0.5,0.3c0.4,0.4,0.9,0.7,1.5,0.9c0.3,0.1,0.5,0.4,0.6,0.7c0,0.2,0.1,0.4-0.1,0.6
			c-0.2,0.2-0.5,0.3-0.8,0.2c-0.9-0.5-1.7-1-2.3-1.8c0,0-0.1-0.1-0.1-0.2c-0.2-0.4,0-0.7,0.4-0.7C360.7,26.7,360.8,26.7,361,26.7"/>
		<path class="st0" d="M350.5,29.2c0.2-0.9,0.7-1.7,1.4-2.2c0.1-0.1,0.2-0.3,0.3-0.4c0.3-0.3,0.6-0.6,1-0.6c0.3,0,0.5-0.1,0.8-0.1
			c1.7-0.3,3-1.2,4-2.6c0.7-1.1,1.1-2.3,0.9-3.5c-0.2-1.5-0.6-2.9-1.4-4.3c-0.3-0.5-0.6-0.9-1.1-1.1c-1.1-0.6-2.2-1.2-3.4-1.7
			c-1.6-0.6-3.1-0.3-4.4,0.5c-1.1,0.6-1.9,1.6-2.7,2.6c-0.4,0.6-0.7,1.3-0.9,2.1c-0.2,1.2-0.1,2.3,0.1,3.5c0.3,1.5,0.8,2.7,2,3.5
			c0.1,0.5,0.1,0.8,0.2,1.2c0.2,0.8,0.3,1.6,0.5,2.3c0,0.2,0.1,0.4,0.1,0.6C348.9,29,349.6,29.3,350.5,29.2 M351.6,31
			c-0.5,0.1-0.9,0-1.3-0.2c-0.5-0.1-0.9-0.3-1.4-0.4c-0.5-0.1-0.9-0.1-1.4-0.1c-1.1,0.2-2-0.9-1.6-1.9c0.2-0.4,0.2-0.8,0.1-1.3
			c-0.2-0.9-0.5-1.8-1.1-2.5s-1-1.6-1.3-2.5c-0.2-0.7-0.3-1.4-0.5-2c-0.2-0.8,0-1.7,0-2.5c0.1-1.2,0.6-2.2,1.3-3.1
			c0.4-0.5,0.8-1,1.2-1.5c1.6-1.5,3.6-2.3,5.8-2.3c0.2,0,0.5,0,0.7,0.1c1.3,0.5,2.6,1,3.9,1.6c0.4,0.2,0.8,0.4,1.1,0.7
			c0.9,0.5,1.5,1.3,1.9,2.2c0.1,0.1,0.1,0.3,0.1,0.4c0.7,1.1,0.9,2.4,1.2,3.6c0.2,1,0.2,2-0.1,3c-0.3,0.9-0.9,1.8-1.6,2.5
			c-1,1-2.1,1.8-3.5,2.1c-0.1,0-0.3,0.1-0.4,0.1c-1.1,0.2-1.7,1-2.2,1.9c-0.3,0.6-0.6,1.1-0.8,1.7C351.8,30.8,351.7,30.9,351.6,31"
			/>
		<path class="st0" d="M347.8,33c-0.2-0.2-0.3-0.3-0.6-0.2C347.4,33.1,347.6,33,347.8,33 M349.3,33.6c0,0.4,0.4,0.8,0,1.3
			c-0.4,0.1-0.8,0.2-1.3-0.1c-0.4-0.2-0.9-0.4-1.3-0.6c-0.2-0.1-0.3-0.2-0.4-0.3c-0.7-0.6-0.7-0.8,0.2-1.3c-0.1-0.2-0.3-0.3-0.3-0.5
			c-0.2-0.5,0.1-0.9,0.6-0.9c1,0.1,1.9,0.4,2.8,0.8c0.6,0.3,0.7,0.9,0.1,1.4C349.6,33.4,349.4,33.5,349.3,33.6"/>
		<path class="st0" d="M352.1,22c-0.5,1.5-1,2.8-1.5,4.2c-0.1,0.2-0.2,0.4-0.3,0.6c-0.2,0.3-0.4,0.3-0.7,0.2
			c-0.2-0.1-0.4-0.3-0.3-0.6c0.2-1.1,0.5-2.1,0.7-3.2c0.1-0.4,0.2-0.8,0.3-1.3c-0.5-0.1-0.9-0.2-1.3-0.3c-0.2-0.1-0.4-0.1-0.6-0.2
			c-0.1-0.1-0.3-0.3-0.2-0.4c0.1-0.1,0.2-0.3,0.3-0.3c0.1-0.1,0.2,0,0.3,0c1,0,2,0,3,0c0.5,0,0.9,0.2,1.4,0.2c0.1,0,0.2,0.1,0.3,0.1
			c0.3,0.2,0.4,0.6,0.3,0.8c-0.2,0.3-0.5,0.5-0.9,0.4C352.7,22.1,352.5,22.1,352.1,22"/>
	</g>
	<g id="_x31_">
		<path class="st2" d="M24.7,20.3c-0.6,0.1-0.8,0.5-1.1,1c-1.2,2.6-1.8,5.2-1.1,8.1c0.1,0.6,0.1,1.1,0.2,1.7
			c0.4,2.2,1.5,3.8,3.6,4.9c1.7,0.9,3,0.5,3.7-1.3c0.6-1.4,0.8-2.9,0.8-4.4c0-3.7-0.9-7.1-2.7-10.3c-0.3-0.5-0.5-1-1.4-1.3
			C26.3,19.6,25.6,20.1,24.7,20.3 M32,35.6c-0.9,2.1-3.3,3.3-5.5,2.8c-3.1-0.8-5.4-2.5-6-5.9c-0.1-0.7-0.3-1.4-0.4-2
			c-0.7-3.4-0.3-6.8,1.2-10c0.3-0.6,0.7-1.1,1.1-1.5c0.9-0.8,1.8-1.6,2.7-2.4c0.2-0.2,0.6-0.3,0.9-0.3c1.3-0.1,2.5,0.1,3.3,1.1
			c0.6,0.7,1.2,1.4,1.5,2.2c1.1,3,2,6,2.2,9.3C33.2,31.1,32.9,33.4,32,35.6"/>
		<path class="st2" d="M11.6,62.4c1.7,0.8,3.5,1.2,5.2,1.7c1.8,0.5,3.6,1,5.5,1.5c0-0.4,0.1-0.8,0-1c-0.3-0.7-0.3-1.3,0.2-1.9
			c0.6-0.7,0.7-1.5,0.8-2.3c0.2-2.6,0.4-5.3,0.6-7.9c0-0.5-0.1-1-0.1-1.7C22.4,51.6,14.7,59,11.6,62.4 M36,53.5
			c0.1-1.5,0.1-3,0.2-4.5c0.1-1.8-0.2-3.5-0.4-5.2c0-0.3-0.2-0.6-0.4-0.8c-0.7-0.9-0.8-1.1-0.2-2c0.3-0.5,0.7-0.9,1.1-1.3
			c0.6-0.5,0.9-1,1.2-1.7c0.1-0.4,0.2-0.7,0.4-1.1c0.2-0.5,0.9-0.8,1.5-0.6c0.5,0.1,0.9,0.7,0.9,1.3c0,0.3-0.1,0.6-0.2,0.9
			c-0.3,0.8-0.6,1.7-1,2.4c-0.5,0.9-0.7,1.7-0.5,2.7c0.4,3.1,0.3,6.3,0.2,9.4c-0.1,1.7,0,3.4,0.2,5.1c0.2,1.4-0.4,1.7-1.3,2.2
			s-1.6,0.3-2.1-0.5c-1-1.4-2.1-2.7-3.3-3.9c-0.4-0.3-0.7-0.8-1-1.2c-1.3-1.7-2.6-3.4-3.9-5.1c-0.1-0.1-0.2-0.1-0.4-0.2
			c-0.3,0.5-0.3,1-0.4,1.6c-0.1,2.7-0.2,5.4-0.4,8.1c-0.2,1.8-0.2,3.6,0.6,5.3c0.1,0.3,0,0.6,0,0.9c0,0.4,0,0.7,0,1.1
			c2.1,0.9,4.3,1,6.5,1.4c0.2,0,0.5,0,0.7-0.1c1.1-0.6,2-0.1,2.8,0.3c0.6,0.9,0.3,1.6-0.3,2.2c-0.6,0.6-1.5,1.1-2.3,0.7
			c-1.3-0.6-2.7-0.6-4.1-1c-1-0.3-2.1-0.6-3.1-0.6c-0.4,0.6-0.1,1.2,0,1.7c0.2,1.6,0.6,3.1,0.7,4.7c0.1,3.7,0.9,7.4,1.3,11.1
			c0.2,1.9,0.4,3.9,0.6,5.8c0.2,2.2,0.4,4.4,0.7,6.6c0.3,2,0.7,4,1.1,6c0.1,0.5,0.3,1,0.6,1.4c0.5,0.9,0.4,1.7,0.1,2.6
			s-1.4,1.6-2.2,1.5c-0.6,0-1-0.4-1-0.9c0-1,0-2,0-3c0-0.6,0.1-1.3,0-1.9c-0.3-2.1-0.6-4.1-0.9-6.2c-0.3-2.4-1.1-4.7-0.8-7.1
			c0-0.2,0-0.4-0.1-0.6c-0.1-0.7-0.1-1.5-0.2-2.2c-0.2-1.2-0.4-2.5-0.5-3.7c0-0.1-0.1-0.2-0.1-0.3c0,0-0.1,0-0.3,0
			c0,0.4-0.1,0.8-0.1,1.2c0.2,3.7,0.2,7.3-0.7,10.9C25,97.5,25,98.1,25,98.8c-0.1,2.2-0.6,4.4-1.5,6.4c-0.2,0.4-0.3,0.8-0.5,1.2
			c-1,1.9-1.9,3.9-2.9,5.8c-0.4,0.7-0.9,1.2-1.7,1.4c-0.5,0.1-0.9-0.1-1.2-0.5c-0.3-0.3-0.3-0.7-0.1-1.1c0.8-1.3,1.5-2.6,2.3-3.9
			c0.9-1.5,1.5-3,1.8-4.8c0.1-0.6,0.3-1.2,0.5-1.8c0.5-1.2,0.5-2.5,0.3-3.7c-0.2-0.9-0.1-1.6,0.5-2.3c0.4-0.5,0.7-1.1,0.8-1.7
			c0.3-2.4,0.9-4.7,0.8-7.1c-0.1-3.3-0.2-6.5-0.6-9.8c-0.1-1-0.2-1.9-0.1-2.8c0.2-1.7,0.3-3.5,0.1-5.4c-0.4-0.2-0.9-0.4-1.3-0.6
			c-4.1-1.2-8.3-2.3-12.5-3.1c-0.4-0.1-0.8-0.1-1.1-0.3c-0.9-0.3-1.2-1.4-0.6-2.1c0.3-0.3,0.6-0.5,0.9-0.7c2.3-1.8,4.5-3.7,6.5-5.9
			c0.8-0.9,1.7-1.7,2.6-2.6c1.9-1.7,3.7-3.5,5.3-5.5c0.6-0.8,1.2-1.5,1.3-2.6c0.1-1,1-1.6,2-1.6s2,0.6,2.2,1.5
			c0.4,1.6,1.2,3.1,2.2,4.4c0.2,0.3,0.5,0.6,0.6,0.9c0.9,1.7,2.3,3,3.6,4.4c0.2,0.3,0.6,0.4,1.1,0.7C35.8,54.8,35.9,54.1,36,53.5"/>
		<path d="M70.2,69.1c0.2,0.2,0.4,0.2,0.4,0.4c0.4,1.8,0.8,3.6,1,5.4c0.3,2.1,0.3,4.2,0.5,6.2c0,0.2,0,0.3,0,0.5
			c0.6,2,0.6,4.1,0.8,6.2c0.5,4.5,1.3,9,1.3,13.6c0,0.4,0,0.8,0.1,1.2c0.3,1.2,0.3,2.4,0.3,3.7c0,0.8,0,1.6,0.1,2.3
			c0,0.7,0.4,1.3,0.9,1.7c0.4,0.3,0.8,0.5,1.3,0.2c0.6-0.3,1-1.1,0.9-1.6c-0.8-2.8-0.6-5.8-1-8.7c-0.6-4.4-1.2-8.7-1.7-13.1
			c-0.2-1.6-0.2-3.2-0.4-4.9c-0.2-1.6-0.4-3.2-0.5-4.8c-0.4-3.7-0.8-7.4-1.1-11.1c-0.3-3.5-0.6-6.9-0.8-10.4c0-0.6,0-1.2,0-2.1
			c0.6,0.4,1,0.7,1.3,1c3,3.2,6,6.6,8,10.9c-0.3,0.8-1,1.1-1.6,1.5c-0.5,0.3-1,0.6-1.5,1c-0.9,0.6-1.2,1.6-1,2.8
			c0.1,0.5,0.2,1.1,0.4,1.5c0.3,0.7,0.6,1.4,0.9,2c0.6,1,1.1,1.9,1.2,3.1c0.1,0.7,0.6,1,1.2,0.9c1-0.2,1.5-1,1.4-2.1
			c-0.1-1.3-0.4-2.6-1-3.7c-0.2-0.4-0.4-0.8-0.5-1.2c-0.2-0.6-0.1-1.1,0.4-1.4c0.9-0.7,1.8-1.3,2.6-1.9c0.3-0.2,0.7-0.5,0.9-0.8
			c0.4-0.5,0.4-1.4,0.1-1.9C83,62.6,81,59.8,78.8,57c-1.8-2.4-3.8-4.7-5.6-7c-0.4-0.6-0.7-1.2-1.1-1.9c-0.3-0.5-0.6-0.8-1.1-0.7
			c-0.6,0.1-1.4,0-1.9,0.4c-1.7,1.2-3.6,1.5-5.5,2c-2.2,0.6-4.5,1-6.8,1.4c-0.8,0.2-1.6,0.3-2.4,0.6c-0.4,0.1-0.7,0.3-1.1,0.5
			c-0.5,0.3-0.6,1-0.5,1.6c0.1,0.4,0.3,0.7,0.4,1c0.8,1.8,1.6,3.7,2.5,5.5c0.5,1.1,1.1,2.1,1.8,3c1.1,1.6,2,3.4,2.8,5.4
			c-0.4,0.5-0.8,1.1-1.2,1.4c-1.4,1.1-2.3,2.7-3.4,4.1c-0.7,0.8-0.4,2,0.6,2.4c1,0.5,2,0.1,2.4-1.2c0.4-1.4,1.2-2.1,2.1-2.9
			c0.4-0.3,0.8-0.6,1.2-0.8c0.5-0.3,0.9-0.5,1.5-0.9c0.2-0.5,0.5-1.2,0.7-1.8c-0.1-0.3-0.1-0.5-0.2-0.7c-2.3-2.9-3.8-6.4-5.7-9.6
			c-0.9-1.4-1.3-3-1.6-4.6c0.4-0.8,1-0.8,1.6-1c2.1-0.5,4.3-0.9,6.4-1.3c0.8-0.2,1.6-0.4,2.4-0.6s1.4,0.2,1.4,1.4
			c0,2.8,0,5.6-0.1,8.4c-0.1,3.5-0.2,7-0.3,10.5c0,2.8-0.2,5.6-0.6,8.3c-0.3,2.6-0.4,5.3-0.6,7.9c-0.2,2.5-0.6,4.9-0.9,7.4
			c-0.3,2.2-0.6,4.5-1.2,6.6c-0.5,1.7-0.6,3.5-0.8,5.2c-0.2,1.6,1,2.8,2.3,2.6c1-0.2,1.8-1.3,1.4-2.5c-0.5-1.7-0.3-3.4,0-5.1
			c0.4-2.7,0.7-5.4,1-8.1c0-0.2,0.1-0.5,0.1-0.7c-0.1-3.3,0.9-6.4,0.7-9.7c0-0.4,0.1-0.9,0.2-1.4c0.5-2.6,0.6-5.2,0.8-7.8
			C70,72.6,70.3,70.9,70.2,69.1"/>
		<path d="M117.7,36.1c0.6-2.9,0.9-5.9,0.6-8.9c-0.1-0.7-0.2-1.3-0.4-2c-0.1-0.2-0.2-0.6-0.3-0.6c-0.8-0.3-1.4-1-2-1.8
			c-0.1-0.2-0.5-0.1-0.7,0c-0.3,0.2-0.6,0.4-0.7,0.8c-0.9,2.4-1.9,4.7-2.1,7.4c-0.1,1.6-0.1,3.2-0.2,4.9c0,0.5,0.1,1,0.2,1.5
			c0.3,1.4,1.3,2.2,2.2,1.6c0.7-0.5,1.3-0.4,1.9,0.1C117.1,38.1,117.5,37.2,117.7,36.1 M109.5,28.6c0.3-3.8,1.7-6.7,4.2-8.4
			c2.4-1.7,5-1.3,6.2,2.6c0.7,2.3,1.1,4.6,1.1,7c-0.1,2.5-0.1,5-0.9,7.3c-0.5,1.5-1,3-2.1,3.9c-2,1.6-4.2,2-6.4,0.5
			c-1-0.6-1.7-1.6-1.9-3c-0.2-1.3-0.3-2.5-0.4-3.8c-0.1-0.9-0.2-1.8-0.3-3.3C109.5,30.8,109.4,29.7,109.5,28.6"/>
		<path d="M67.7,24.5c0.4-1.5,0.7-3,0-4.5c-0.4-0.8-0.7-1.9-1.7-2.1c-1,0.8-1.2,2-1.3,3.2c-0.3,3.1-0.3,6.2,0.4,9.2
			c0.6,2.6,1.6,4.9,3.4,6.5c0.3,0.3,0.7,0.5,1,0.6c0.6,0.3,1.2,0,1.5-0.6c0.3-0.5,0.5-1.1,0.6-1.7c0.6-3.6,0.4-7.1-0.4-10.6
			c-0.1-0.4-0.2-0.7-0.4-1.1C69.8,23.9,69,25.2,67.7,24.5 M62.4,24.5c0-0.7-0.1-1.4-0.1-2.1c0-1.6,0.1-3.3,0.5-4.8
			c0.4-1.4,1.2-2.2,2.4-2.3c1.2-0.1,2.4,0,3.4,1.1c0.4,0.4,0.8,0.7,1.4,0.7c0.9,0,1.6,0.6,2,1.5c0.2,0.5,0.4,0.9,0.6,1.4
			c1.6,4.6,2,9.4,1.7,14.4c-0.1,1.9-0.6,3.6-2,4.8c-0.8,0.7-1.7,1.1-2.7,0.7c-0.5-0.2-1-0.3-1.4-0.6c-2.9-2-5-4.9-5.5-9
			c-0.3-1.9-0.3-3.8-0.5-5.8C62.3,24.5,62.3,24.5,62.4,24.5"/>
		<path d="M113.2,55.5c0,0,0-0.1,0.1-0.2l-0.1-0.1C113.2,55.2,113.1,55.3,113.2,55.5C113.1,55.5,113.2,55.6,113.2,55.5 M111.6,57.6
			c-1.9,3.3-4.2,6-6.6,8.6c-0.7,0.7-1.3,1-2.1,0.8c-0.6-0.1-1-0.7-1-1.6c0-1.2,0-2.4,0.1-3.6c0.1-2.1,0.1-4.2,0.4-6.2
			c0.6-3.7,1.3-7.4,2-11.1c0.1-0.5,0.2-1,0.4-1.5s0.4-0.8,0.9-0.8c0.4,0,0.7,0.3,0.8,0.9c0.3,1.7,0.8,3.5,0,5.2
			c-0.2,0.4-0.2,0.8-0.4,1.2c-1.1,3.5-1.5,7.1-1.5,10.9c0,0.7-0.1,1.5,0.3,2.2c0.1,0,0.2,0,0.2,0c2.4-2.7,4.6-5.4,6.1-9.1
			c0.4-0.9,0.8-1.8,1.3-2.6c0.6-1.1,1.4-1.5,2.3-1.3c0.7,0.2,1.3,0.6,1.9,1.2c0.5,0.7,1,1.4,1.6,1.9c2.2,1.9,4.4,3.9,6.7,5.4
			c1.6,1.1,3,2.5,4.4,4.1c0.7,0.8,1.4,1.6,2,2.4c0.2,0.2,0.4,0.5,0.5,0.7c0.3,0.5,0.2,1.2-0.2,1.6c-0.5,0.5-1.1,0.4-1.7,0.4
			c-1.9-0.1-3.7,0.2-5.5,0.8c-0.3,0.1-0.7,0-0.8,0.7c0.2,0.5,0.5,1.1,0.8,1.7c0.4,0.9,0.3,1.8,0,2.7c-0.3,0.9-1.2,1.3-1.6,0.5
			c-0.6-1.6-1.7-2-2.8-2.5c-0.4-0.2-0.7-0.5-1-0.9c-0.9-1-0.8-2.2,0.1-3c0.3-0.2,0.5-0.5,0.8-0.6c2.1-0.7,4.1-1.8,6.4-1.8
			c0.5,0,1,0.2,1.6-0.4c-0.2-0.3-0.2-0.6-0.4-0.8c-0.9-1.1-7.9-6.4-9.8-7.6c-0.6,0.3-1.1,0.6-1.7,0.9c0,0.5,0,0.8,0,1.1
			c0.1,3.1,0.2,6.2,0.3,9.3c0.1,1.6,0.1,3.3,0.2,4.9c0.2,3.7,0.5,7.4,0.7,11.1c0.1,1.7,0.1,3.5,0.2,5.2c0.3,3.9,0.8,7.9,1.1,11.8
			c0.2,2.6,0.4,5.1,0.9,7.6c0.2,0.8,0.4,1.7,0.5,2.5c0.2,1.1-0.2,1.8-1,2.1c-0.1,0.1-0.3,0.1-0.4,0.1c-0.9,0.2-1.3-0.2-1.4-1.4
			c-0.1-1.4-0.3-2.7-0.4-4.1c-0.1-1.5-0.3-2.9-0.4-4.4c-0.2-2.9-0.2-5.9-0.6-8.7c-0.4-3.6-0.6-7.2-0.7-10.8c-0.1-2-0.2-4-0.3-6.2
			c-0.2,0.3-0.4,0.4-0.4,0.5c-0.6,4-1.2,7.9-1.6,11.9c-0.4,3.8-0.7,7.7-1.5,11.4c-0.3,1.5-0.6,3-0.8,4.5c-0.3,1.7-1.5,3.2-2.8,3.2
			c-0.3,0-0.8-0.3-1-0.6c-0.5-0.8-0.4-2.1,0.1-2.8c0.5-0.7,0.8-1.5,0.9-2.5c0-0.4,0.2-0.9,0.4-1.1c1-1.1,1.3-2.8,1.5-4.4
			c0.4-2.4,0.8-4.9,0.9-7.4c0.1-1.6,0.3-3.2,0.5-4.9c0.3-2.7,0.8-5.4,1-8.2c0.4-4.5,0.7-9.1,1-13.6c0-0.2,0-0.4,0-0.5
			c-0.4-1.4-0.1-2.9,0-4.3c0-0.7,0.2-1.4-0.6-2.1C112.1,56.9,111.8,57.3,111.6,57.6"/>
		<path d="M171.6,65.3c-1.5-2-2.9-4.1-4-6.3c-0.1-0.2-0.1-0.3-0.3-0.5c-1.1-1.3-2.2-2.7-3.3-4c-0.1-0.1-0.2-0.1-0.5-0.2
			c-0.1,0.5-0.3,1-0.3,1.5c0,1.6,0.1,3.1,0.1,4.7c0,0.7,0,1.3,0.4,1.9c0.3,0.5,0.2,1,0,1.6c-0.4,0.8-0.5,1.6-0.1,2.5
			c1.4-0.1,2.8-0.2,4.2-0.2c1.3,0,2.7,0.1,4.1,0C171.8,65.8,171.8,65.6,171.6,65.3 M164.6,76c0.6,3.6,0.9,7.2,1.3,10.8
			c0.3,2.7,0.5,5.4,0.9,8.1c0.4,2.2,0.6,4.4,0.7,6.6c0,1.3,0.2,2.5,0.3,3.8c0.1,1.6,0.2,3.1,0.4,4.7c0.1,0.9-0.3,1.4-1,1.8
			c-1,0.6-2.1,0.1-2.2-1.1c-0.1-1.3-0.1-2.6-0.2-4c0-0.2,0-0.5,0.1-0.7c0.5-0.8,0.4-1.6,0.3-2.5c-0.1-0.7-0.1-1.3-0.1-2
			c0-1.2,0.1-2.4,0-3.6c-0.3-2.2-0.7-4.4-1-6.6c-0.2-1.3-0.3-2.5-0.5-3.8c-0.3-2.3-0.5-4.7-0.8-7c-0.1-0.6-0.4-1.2-0.4-1.8
			c-0.1-2-0.8-3.9-0.9-5.9c0-0.3-0.1-0.6-0.6-0.6c-0.3,1.6-0.6,3.2-0.8,4.8c-0.3,2.4-0.7,4.9-1.2,7.3c-1,4.4-1.5,8.8-2,13.2
			c-0.2,2-0.8,3.9-1.6,5.7c-0.5,1.1-1,2.2-1.5,3.3c-0.4,0.9-0.8,1.9-1.2,2.9c-0.1,0.3-0.4,0.6-0.6,0.9c-0.3,0.3-0.8,0.4-1.2,0.2
			c-0.5-0.2-0.8-0.6-0.8-1.1c0.1-0.5,0.2-1.1,0.4-1.6c0.7-2,1.5-4.1,2.3-6.1c0.2-0.5,0.5-1,0.6-1.5c0.2-0.6,0.4-1.1,0.5-1.7
			c0.1-0.8,0.1-1.6,0-2.3c-0.1-0.8,0-1.6,0.4-2.3c0.6-1.3,1-2.6,1.2-4c0.2-1.6,0.5-3.2,0.8-4.8c0.2-0.9,0.5-1.9,0.7-2.8
			c0.4-1.7,0.5-3.4,0.7-5.2c0.2-2.2,0.6-4.4,0.9-6.6c0-0.2-0.1-0.3-0.2-0.6c-1.5,0.2-3,0.5-4.5,1c-0.3,0.1-0.7,0.4-0.9,0.7
			c-0.5,0.7-1.2,0.7-1.9,0.5s-1.3-0.6-1.7-1.1c-0.1-0.8,0.3-1.3,1-1.6c0.6-0.2,1.2-0.4,1.8-0.5c2.1-0.5,4.1-0.9,6.2-1.3
			c0.6-0.1,1-0.4,1.2-1c0.4-1.4,0.9-2.8,1.2-4.2c0.2-0.8,0.2-1.7,0.2-2.5c0-1.2,0-2.4-0.1-3.6c0-1-0.1-2-0.1-3.2
			c-1.5,0.2-3,0.4-4.4,0.8c-1.8,0.5-3.6,1.3-5.2,2.2c-1.5,0.8-2.9,1.8-4.2,2.9c-0.7,0.6-1.6,0.8-2.5,0.5s-1.1-0.9-1.1-1.7
			c0.3-0.5,0.6-1,0.9-1.6c0.2-0.6,0.3-1.3,0.5-1.9c0.5-2,1-4,1.5-6c0.2-0.8,0.3-1.5,0.4-2.2c-0.7-0.8-1.6-1.2-2.4-1.7
			c-0.6-0.3-0.9-0.7-1-1.3c0-0.2,0-0.5,0.1-0.7c0.7-0.9,2.2-1.1,3.1-0.5c0.5,0.4,1,0.8,1.5,1.1c0.4,0.3,0.7,0.5,1.1,0.8
			c1,0.9,1.1,1.3,0.2,2.3c-0.3,0.3-0.5,0.7-0.6,1.1c-0.2,1.3-0.5,2.6-0.8,3.9s-0.3,2.6,0,4c0.8-0.2,1.3-0.6,1.9-0.9
			c2.1-1.1,4.3-2.1,6.6-2.7c1.2-0.3,2.5-0.6,3.2-1.8c0.1-0.1,0.2-0.2,0.3-0.2c0.8-0.3,1.4-0.8,2.1-1.2c1-0.5,2.3-0.4,2.8,1
			c0.3,1.1,0.9,2,1.5,2.9c0.4,0.6,0.8,1.2,1.2,1.9c1.9,3.2,3.8,6.3,5.7,9.5c0.8,1.4,1.8,2.7,3.2,3.6c0.2,0.1,0.3,0.4,0.4,0.6
			c0.1,0.8-0.5,1.6-1.4,1.6c-0.5,0-1,0-1.5-0.2c-2.7-0.9-5.6-0.7-8.4-0.6c-0.4,0-0.7,0.2-1.1,0.4C163.8,71.3,164.2,73.7,164.6,76"/>
		<path d="M164.7,24.5c-0.1,0-0.3,0-0.3-0.1c-0.6-0.5-1.1-1-1.7-1.4c-0.6-0.4-1.1-0.4-1.7,0.2c-0.8,0.8-1.4,1.7-1.8,2.7
			c-0.9,2.3-1.5,4.7-0.8,7.2c0.3,1.3,0.7,2.6,1.7,3.6c1.1,1.1,2.2,1.6,3.4-0.4c0.4-0.6,0.7-1.3,0.9-2c0.6-2.5,1.3-5,1.5-7.6
			c0-0.7,0-1.4,0-2.2c0-0.2-0.2-0.4-0.3-0.7C165.1,24.1,164.9,24.3,164.7,24.5 M160.3,18.1c1.9-0.3,3.6,0.1,5,1.3s1.9,3,2.8,4.5
			c0.1,0.1,0.1,0.2,0.1,0.4c0,1.1,0.2,2.3,0,3.4c-0.2,0.9-0.3,1.8-0.4,2.7c-0.5,2.3-1,4.6-2,6.8c-0.4,0.8-0.9,1.6-1.7,2.2
			c-0.4,0.3-0.8,0.5-1.4,0.5c-2.4,0.2-4.3-0.5-5.6-2.5c-0.2-0.3-0.4-0.6-0.6-0.9c-1-1.9-1.3-3.9-1.2-6c0.1-1.7,0.7-3.2,1.1-4.8
			c0.3-1.3,1-2.5,1.8-3.6c0.9-1.3,2.2-1.8,3.8-1.6c0.6,0.1,1.2,0.2,1.9,0.3c-0.7-1.2-1.7-1.8-3-1.9c-0.3,0-0.5,0-0.8-0.1
			c-0.1,0-0.2-0.3-0.3-0.4C160,18.3,160.2,18.2,160.3,18.1"/>
	</g>
	<g id="Calque_9">
	</g>
</g>
<g id="Fleches">
	<path class="st2" d="M181.9,76.4c-0.2,0-0.4,0.1-0.6,0.1c0.1,0.1,0.1,0.1,0.2,0.2c0.1,0,0.4,0.1,0.3,0.3c0,0.1-0.1,0.3-0.2,0.4
		c-0.3,0.3-0.7,0.2-1,0.1s-0.6-0.2-0.9-0.4c0.1-0.3,0.2-0.5,0.3-0.8c-0.1,0-0.1-0.1-0.3-0.1c0-0.1,0-0.3,0.1-0.4
		c0.3-0.4,0.4-0.9,0.7-1.3s0.6-0.9,0.9-1.3c0.7-0.9,1.3-1.8,2-2.6c0.4-0.5,1-1.1,1.4-1.6c0.5-0.6,1.1-1.3,1.6-1.9
		c0.2-0.2,0.5-0.4,0.7-0.6c0.3-0.3,0.5-0.5,0.7-0.8c0.1-0.1,0.1-0.3,0.1-0.5c0-0.1,0-0.3,0-0.5c-0.1-0.1-0.2-0.2-0.4-0.4
		c-0.1-0.2-0.3-0.4-0.4-0.4c-0.3-0.1-0.4-0.4-0.4-0.6c0-0.4-0.2-0.7-0.4-0.9c-0.5-0.5-0.8-1.1-1-1.7c-0.1-0.3-0.2-0.7-0.4-1
		c0-0.1-0.2-0.2-0.3-0.2c-0.3-0.4-0.7-0.8-0.7-1.4c0-0.1-0.1-0.1-0.2-0.2c-0.1-0.1-0.1-0.1-0.1-0.2c0-0.5-0.3-0.9-0.7-1.2
		c-0.1-0.1-0.2-0.2-0.2-0.3c-0.3-0.7-0.7-1.5-0.9-2.2c-0.2-0.8-0.6-1.5-0.6-2.3c0-0.5,0.1-0.6,0.6-0.7c0.4,0,0.7,0,1.1,0
		c0.1,0,0.1,0,0.1,0.1c0.2,0.3,0.5,0.7,0.5,1s0.1,0.5,0.3,0.7c-0.1,0.1-0.1,0.2-0.2,0.4c0,0,0,0,0.1,0c0.1,0.1,0.2,0.1,0.3,0.2
		c0.2,0.6,0.4,1.2,0.8,1.8c0.2,0.4,0.3,0.8,0.5,1.2c0.4,0.9,0.8,1.8,1.3,2.6c0.2,0.3,0.3,0.6,0.4,0.9c0.1,0.2,0.3,0.4,0.4,0.7
		c0.3,0.4,0.5,1,0.8,1.3c0.4,0.4,0.4,0.9,0.8,1.2c0,0.3,0.2,0.5,0.4,0.7c0.2,0.3,0,0.5-0.1,0.7c0.3,0.2,0.7,0.4,0.9,0.6
		c0.1,0.1,0.2,0.3,0.2,0.4c-0.2,0.5-0.4,1.1-0.8,1.4c-0.1,0.1-0.2,0.1-0.2,0.2c-0.2,0.2-0.4,0.5-0.7,0.7c-0.2,0.2-0.6,0.4-0.7,0.8
		c0,0.1-0.2,0.3-0.3,0.4c-0.6,0.6-1.2,1.2-1.7,1.8c-0.4,0.5-0.8,1.1-1.3,1.6c-0.6,0.6-1.1,1.4-1.6,2.1c-0.4,0.5-0.7,1.1-1.1,1.7
		c-0.1,0.1-0.1,0.3-0.2,0.3C181.8,76,182,76.2,181.9,76.4"/>
	<path class="st2" d="M366.9,76.4c-0.2,0-0.4,0.1-0.6,0.1c0.1,0.1,0.1,0.1,0.2,0.2c0.1,0,0.4,0.1,0.3,0.3c0,0.1-0.1,0.3-0.2,0.4
		c-0.3,0.3-0.7,0.2-1,0.1s-0.6-0.2-0.9-0.4c0.1-0.3,0.2-0.5,0.3-0.8c-0.1,0-0.1-0.1-0.3-0.1c0-0.1,0-0.3,0.1-0.4
		c0.3-0.4,0.4-0.9,0.7-1.3s0.6-0.9,0.9-1.3c0.7-0.9,1.3-1.8,2-2.6c0.4-0.5,1-1.1,1.4-1.6c0.5-0.6,1.1-1.3,1.6-1.9
		c0.2-0.2,0.5-0.4,0.7-0.6c0.3-0.3,0.5-0.5,0.7-0.8c0.1-0.1,0.1-0.3,0.1-0.5c0-0.1,0-0.3,0-0.5c-0.1-0.1-0.2-0.2-0.4-0.4
		c-0.1-0.2-0.3-0.4-0.4-0.4c-0.3-0.1-0.4-0.4-0.4-0.6c0-0.4-0.2-0.7-0.4-0.9c-0.5-0.5-0.8-1.1-1-1.7c-0.1-0.3-0.2-0.7-0.4-1
		c0-0.1-0.2-0.2-0.3-0.2c-0.3-0.4-0.7-0.8-0.7-1.4c0-0.1-0.1-0.1-0.2-0.2c-0.1-0.1-0.1-0.1-0.1-0.2c0-0.5-0.3-0.9-0.7-1.2
		c-0.1-0.1-0.2-0.2-0.2-0.3c-0.3-0.7-0.7-1.5-0.9-2.2c-0.2-0.8-0.6-1.5-0.6-2.3c0-0.5,0.1-0.6,0.6-0.7c0.4,0,0.7,0,1.1,0
		c0.1,0,0.1,0,0.1,0.1c0.2,0.3,0.5,0.7,0.5,1s0.1,0.5,0.3,0.7c-0.1,0.1-0.1,0.2-0.2,0.4c0,0,0,0,0.1,0c0.1,0.1,0.2,0.1,0.3,0.2
		c0.2,0.6,0.4,1.2,0.8,1.8c0.2,0.4,0.3,0.8,0.5,1.2c0.4,0.9,0.8,1.8,1.3,2.6c0.2,0.3,0.3,0.6,0.4,0.9c0.1,0.2,0.3,0.4,0.4,0.7
		c0.3,0.4,0.5,1,0.8,1.3c0.4,0.4,0.4,0.9,0.8,1.2c0,0.3,0.2,0.5,0.4,0.7c0.2,0.3,0,0.5-0.1,0.7c0.3,0.2,0.7,0.4,0.9,0.6
		c0.1,0.1,0.2,0.3,0.2,0.4c-0.2,0.5-0.4,1.1-0.8,1.4c-0.1,0.1-0.2,0.1-0.2,0.2c-0.2,0.2-0.4,0.5-0.7,0.7c-0.2,0.2-0.6,0.4-0.7,0.8
		c0,0.1-0.2,0.3-0.3,0.4c-0.6,0.6-1.2,1.2-1.7,1.8c-0.4,0.5-0.8,1.1-1.3,1.6c-0.6,0.6-1.1,1.4-1.6,2.1c-0.4,0.5-0.7,1.1-1.1,1.7
		c-0.1,0.1-0.1,0.3-0.2,0.3C366.8,76,367,76.2,366.9,76.4"/>
	<path class="st2" d="M551.9,76.4c-0.2,0-0.4,0.1-0.6,0.1c0.1,0.1,0.1,0.1,0.2,0.2c0.1,0,0.4,0.1,0.3,0.3c0,0.1-0.1,0.3-0.2,0.4
		c-0.3,0.3-0.7,0.2-1,0.1s-0.6-0.2-0.9-0.4c0.1-0.3,0.2-0.5,0.3-0.8c-0.1,0-0.1-0.1-0.3-0.1c0-0.1,0-0.3,0.1-0.4
		c0.3-0.4,0.4-0.9,0.7-1.3s0.6-0.9,0.9-1.3c0.7-0.9,1.3-1.8,2-2.6c0.4-0.5,1-1.1,1.4-1.6c0.5-0.6,1.1-1.3,1.6-1.9
		c0.2-0.2,0.5-0.4,0.7-0.6c0.3-0.3,0.5-0.5,0.7-0.8c0.1-0.1,0.1-0.3,0.1-0.5c0-0.1,0-0.3,0-0.5c-0.1-0.1-0.2-0.2-0.4-0.4
		c-0.1-0.2-0.3-0.4-0.4-0.4c-0.3-0.1-0.4-0.4-0.4-0.6c0-0.4-0.2-0.7-0.4-0.9c-0.5-0.5-0.8-1.1-1-1.7c-0.1-0.3-0.2-0.7-0.4-1
		c0-0.1-0.2-0.2-0.3-0.2c-0.3-0.4-0.7-0.8-0.7-1.4c0-0.1-0.1-0.1-0.2-0.2c-0.1-0.1-0.1-0.1-0.1-0.2c0-0.5-0.3-0.9-0.7-1.2
		c-0.1-0.1-0.2-0.2-0.2-0.3c-0.3-0.7-0.7-1.5-0.9-2.2c-0.2-0.8-0.6-1.5-0.6-2.3c0-0.5,0.1-0.6,0.6-0.7c0.4,0,0.7,0,1.1,0
		c0.1,0,0.1,0,0.1,0.1c0.2,0.3,0.5,0.7,0.5,1s0.1,0.5,0.3,0.7c-0.1,0.1-0.1,0.2-0.2,0.4c0,0,0,0,0.1,0c0.1,0.1,0.2,0.1,0.3,0.2
		c0.2,0.6,0.4,1.2,0.8,1.8c0.2,0.4,0.3,0.8,0.5,1.2c0.4,0.9,0.8,1.8,1.3,2.6c0.2,0.3,0.3,0.6,0.4,0.9c0.1,0.2,0.3,0.4,0.4,0.7
		c0.3,0.4,0.5,1,0.8,1.3c0.4,0.4,0.4,0.9,0.8,1.2c0,0.3,0.2,0.5,0.4,0.7c0.2,0.3,0,0.5-0.1,0.7c0.3,0.2,0.7,0.4,0.9,0.6
		c0.1,0.1,0.2,0.3,0.2,0.4c-0.2,0.5-0.4,1.1-0.8,1.4c-0.1,0.1-0.2,0.1-0.2,0.2c-0.2,0.2-0.4,0.5-0.7,0.7c-0.2,0.2-0.6,0.4-0.7,0.8
		c0,0.1-0.2,0.3-0.3,0.4c-0.6,0.6-1.2,1.2-1.7,1.8c-0.4,0.5-0.8,1.1-1.3,1.6c-0.6,0.6-1.1,1.4-1.6,2.1c-0.4,0.5-0.7,1.1-1.1,1.7
		c-0.1,0.1-0.1,0.3-0.2,0.3C551.8,76,552,76.2,551.9,76.4"/>
	<g>
		<line class="st3" x1="0" y1="0" x2="740" y2="0"/>
	</g>
</g>
<g id="Reperes">
</g>
</svg>
