<?xml version="1.0" encoding="UTF-8"?>
<svg xmlns="http://www.w3.org/2000/svg" width="185.9" height="200" version="1.1" viewBox="0 0 185.9 200" xml:space="preserve">
<style type="text/css">
	.st0{fill:#F2F2F2;}
	.st1{fill:#FFFFFF;}
	.st2{fill:#CCCCCC;}
	.st3{fill:#E6E6E6;}
	.st4{fill:#D80669;}
	.st5{fill:#A0616A;}
	.st6{enable-background:new    ;}
	.st7{font-family:'SourceSansPro-SemiBold';}
	.st8{font-size:69.51px;}
</style>
<g transform="matrix(.2646 0 0 .2646 -996.3 113.7)">
	<g transform="matrix(.3216 0 0 .3216 982.9 -431.6)">
		<path class="st0" d="m10039 1339-944.3 243.2c-66.7 17.1-134.6-23-151.9-89.7l-285.6-1109c-17.1-66.7 23-134.6 89.7-151.9l878.6-226.3 224.9 100.7 278.4 1081c17 66.7-23.1 134.6-89.8 151.9z"/>
		<path class="st1" d="m8756 266.7c-47.5 12.3-76 60.7-63.9 108.2l285.6 1109c12.3 47.5 60.7 76 108.2 63.9l944.3-243.2c47.5-12.3 76-60.7 63.9-108.2l-274.1-1064-197.6-88.5z"/>
		<path class="st0" d="m9848 112.1-146.1 37.6c-22.2 5.7-44.9-7.7-50.6-29.9l-27.8-107.9c-0.4-1.4 0.5-2.8 1.9-3.2 0.6-0.1 1.2-0.1 1.7 0.1l221.4 98.3c1.3 0.6 1.9 2.1 1.3 3.4-0.4 0.8-1.1 1.4-1.8 1.6z"/>
		<path class="st2" d="m9771 1059-429.9 110.7c-11.1 2.9-22.4-3.8-25.3-14.9s3.8-22.4 14.9-25.3l429.9-110.7c11.1-2.9 22.4 3.8 25.3 14.9s-3.7 22.4-14.9 25.3z"/>
		<path class="st2" d="m9872 1106-512.9 132.1c-11.1 2.9-22.4-3.8-25.3-14.9s3.8-22.4 14.9-25.3l512.9-132.1c11.1-2.9 22.4 3.8 25.3 14.9s-3.8 22.4-14.9 25.3z"/>
		<circle class="st3" cx="9166" cy="1230" r="73.4"/>
		<path class="st1" d="m9726 867-571 147c-34.4 8.8-69.4-11.9-78.2-46.2l-119.7-464.8c-8.8-34.4 11.9-69.4 46.2-78.2l571-147c34.4-8.8 69.4 11.9 78.2 46.2l119.7 464.8c8.8 34.4-11.9 69.4-46.2 78.2z"/>
		<path class="st3" d="m9726 867-571 147c-34.4 8.8-69.4-11.9-78.2-46.2l-119.7-464.8c-8.8-34.4 11.9-69.4 46.2-78.2l571-147c34.4-8.8 69.4 11.9 78.2 46.2l119.7 464.8c8.8 34.4-11.9 69.4-46.2 78.2zm-720.8-434.9c-30.3 7.8-48.5 38.7-40.8 69l119.7 464.8c7.8 30.3 38.7 48.5 69 40.8l571-147c30.3-7.8 48.5-38.7 40.8-69l-119.7-464.9c-7.8-30.3-38.7-48.5-69-40.8z"/>
		<path class="st0" d="m9545 434.1-288.2 74.2c-5.2 1.5-10.7-1.4-12.5-6.5-1.7-5.2 1.3-10.8 6.5-12.5 0.2-0.1 0.3-0.1 0.5-0.1l293.3-75.5c11.9 5.9 8.8 18.2 0.4 20.4z"/>
		<path class="st0" d="m9558 484.6-288.2 74.2c-5.2 1.5-10.7-1.4-12.5-6.5-1.7-5.2 1.3-10.8 6.5-12.5 0.2-0.1 0.3-0.1 0.5-0.1l293.3-75.5c11.9 5.9 8.8 18.2 0.4 20.4z"/>
		<path class="st3" d="m9215 603.6-87.9 22.6c-6 1.5-12.1-2.1-13.6-8l-26.7-103.8c-1.5-6 2.1-12.1 8-13.6l87.9-22.6c6-1.5 12.1 2.1 13.6 8l26.7 103.8c1.6 6-2 12.1-8 13.6z"/>
		
			<path class="st0" d="m9584 588.3-439.8 113.2c-5.2 1.5-10.7-1.4-12.5-6.5-1.7-5.2 1.3-10.8 6.5-12.5 0.2-0.1 0.3-0.1 0.5-0.1l445-114.5c11.8 6 8.7 18.3 0.3 20.4z"/>
			<path class="st0" d="m9597 638.9-439.8 113.2c-5.2 1.5-10.7-1.4-12.5-6.5-1.7-5.2 1.3-10.8 6.5-12.5 0.2-0.1 0.3-0.1 0.5-0.1l445-114.5c11.8 5.9 8.7 18.2 0.3 20.4z"/>
			<path class="st0" d="m9610 689.4-439.8 113.2c-5.2 1.5-10.7-1.4-12.5-6.5-1.7-5.2 1.3-10.8 6.5-12.5 0.2-0.1 0.3-0.1 0.5-0.1l445-114.5c11.8 6 8.7 18.2 0.3 20.4z"/>
			<path class="st0" d="m9623 740-439.8 113.2c-5.2 1.5-10.7-1.4-12.5-6.5-1.7-5.2 1.3-10.8 6.5-12.5 0.2-0.1 0.3-0.1 0.5-0.1l445-114.5c11.9 5.9 8.8 18.2 0.3 20.4z"/>
			<path class="st0" d="m9636 790.5-439.8 113.2c-5.2 1.5-10.7-1.4-12.5-6.5-1.7-5.2 1.3-10.8 6.5-12.5 0.2-0.1 0.3-0.1 0.5-0.1l445-114.5c11.9 6 8.8 18.2 0.3 20.4z"/>
		
		<path class="st1" d="m9172 1256c-1.6 0.4-3.3 0.3-4.8-0.3h-0.1l-20-8.5c-3.9-1.7-5.7-6.2-4.1-10.1 1.7-3.9 6.2-5.7 10.1-4.1l13 5.5 17-39.9c1.7-3.9 6.2-5.7 10.1-4.1l-0.1 0.3 0.1-0.3c3.9 1.7 5.7 6.2 4.1 10.1l-20 47c-1.1 2.2-3 3.8-5.3 4.4z"/>
		<path class="st3" d="m10402 1762h-975.1c-68.9-0.1-124.6-55.9-124.7-124.7v-1145c0.1-68.9 55.9-124.6 124.7-124.7h907.2l192.7 153.6v1116c-0.1 68.8-55.9 124.6-124.8 124.6z"/>
		<path class="st1" d="m9426 403.2c-49 0.1-88.8 39.8-88.8 88.8v1145c0.1 49 39.8 88.8 88.8 88.8h975.1c49-0.1 88.8-39.8 88.8-88.8v-1099l-169.3-135z"/>
		<path class="st4" d="m10212 736.2h-444c-11.5 0-20.8-9.3-20.8-20.8s9.3-20.8 20.8-20.8h443.9c11.5 0 20.8 9.3 20.8 20.8 0.1 11.5-9.2 20.8-20.7 20.8z"/>
		<path class="st4" d="m10298 806.3h-529.7c-11.5 0-20.8-9.3-20.8-20.8s9.3-20.8 20.8-20.8h529.6c11.5 0 20.8 9.3 20.8 20.8s-9.3 20.8-20.7 20.8z"/>
		
			<path class="st2" d="m10212 1009h-444c-11.5 0-20.8 9.3-20.8 20.7 0 11.5 9.3 20.8 20.7 20.8h0.1 443.9c11.5 0 20.8-9.3 20.7-20.8 0.1-11.4-9.2-20.7-20.6-20.7z"/>
			<path class="st2" d="m10298 1079h-529.7c-11.5 0-20.8 9.3-20.8 20.7 0 11.5 9.3 20.8 20.7 20.8h0.1 529.6c11.5 0 20.8-9.3 20.7-20.8 0.1-11.4-9.2-20.7-20.6-20.7z"/>
			<path class="st2" d="m10212 1364h-444c-11.5 0-20.8-9.3-20.8-20.8s9.3-20.8 20.8-20.8h443.9c11.5 0 20.8 9.3 20.8 20.8s-9.2 20.8-20.7 20.8z"/>
			<path class="st2" d="m10298 1435h-529.7c-11.5 0-20.8-9.3-20.8-20.8s9.3-20.8 20.8-20.8h529.6c11.5 0 20.8 9.3 20.8 20.8s-9.3 20.8-20.7 20.8z"/>
		
		<circle class="st4" cx="9583" cy="750.5" r="73.4"/>
		<path class="st1" d="m9576 778.5c-1.7 0-3.3-0.5-4.6-1.5l-0.1-0.1-17.3-13.2c-3.4-2.6-4-7.4-1.4-10.7 2.6-3.4 7.4-4 10.7-1.4l11.2 8.6 26.4-34.4c2.6-3.4 7.4-4 10.7-1.4l-0.2 0.2 0.2-0.2c3.4 2.6 4 7.4 1.4 10.7l-31.1 40.5c-1.3 1.8-3.5 2.9-5.9 2.9z"/>
		
			<path class="st2" d="m9664 1065c0 40.5-32.8 73.4-73.4 73.4-0.6 0-1.3 0-1.9-0.1-40.5-1-72.5-34.7-71.5-75.3 1-40.5 34.7-72.5 75.3-71.5 39.8 1.1 71.5 33.7 71.5 73.5z"/>
			<circle class="st2" cx="9583" cy="1379" r="73.4"/>
			<path class="st2" d="m10523 525.8h-150.9c-22.9 0-41.5-18.6-41.5-41.5v-111.5c0-1.4 1.2-2.6 2.6-2.6 0.6 0 1.2 0.2 1.6 0.6l189.9 150.4c1.1 0.9 1.3 2.5 0.4 3.6-0.5 0.7-1.3 1-2.1 1z"/>
		
		
			<path class="st4" d="m9664 1065c0 40.5-32.8 73.4-73.4 73.4-0.6 0-1.3 0-1.9-0.1-19.2-48-13.9-102.4 14.2-145.7 35.3 6.1 61.1 36.7 61.1 72.4z"/>
			<path class="st4" d="m9747 1030c0-11.5 9.3-20.8 20.8-20.8h110.6c6.5 13.1 11.1 27.1 13.6 41.5h-124.3c-11.4 0-20.7-9.2-20.7-20.7z"/>
			<path class="st4" d="m9895 1079c0 14-1.8 28-5.5 41.5h-121.4c-11.5 0-20.8-9.3-20.8-20.7 0-11.5 9.3-20.8 20.7-20.8h0.1z"/>
		
		<path d="m10169 1335c-6.5 10.7-20.5 14.1-31.2 7.6l-264.6-161.4c-10.7-6.5-14.1-20.5-7.6-31.2s20.5-14.1 31.2-7.6l264.6 161.4c10.8 6.5 14.2 20.5 7.6 31.2z"/>
		<path d="m9904 1174c-52.2 85.5-163.8 112.6-249.3 60.4s-112.6-163.8-60.4-249.3 163.8-112.6 249.3-60.4 112.5 163.7 60.4 249.3zm-271-165.3c-39.1 64.2-18.8 147.9 45.3 187 64.2 39.1 147.9 18.8 187-45.3s18.8-147.9-45.3-187c-64.2-39.1-147.8-18.8-187 45.3z"/>
		
			<circle class="st5" cx="10485" cy="1016" r="92.8"/>
			<path class="st5" d="m10479 1536c-7-21.9 5-45.3 26.9-52.3 1.5-0.5 3-0.9 4.6-1.2 1.8-0.4 3.7-0.6 5.5-0.7l97.8-156.9-89.3-84.9c-14.2-13.6-14.7-36.2-1.1-50.4s36.2-14.7 50.4-1.1l0.3 0.3 123.3 121.6 0.2 0.3c7.8 11.9 6.9 27.6-2.2 38.5l-137 162c0.4 1.3 0.7 2.6 1 4 4.5 22.5-10.1 44.4-32.7 48.9-1.5 0.3-3.1 0.5-4.7 0.7-1.2 0.1-2.4 0.2-3.5 0.2-18-0.2-33.9-11.9-39.5-29z"/>
			<polygon class="st5" points="10332 2129 10332 2307 10286 2307 10264 2129"/>
		
		<path d="m10344 2352h-149.4v-1.9c0-32.1 26-58.2 58.2-58.2h91.3z"/>
		<polygon class="st5" points="10702 2090 10793 2243 10753 2267 10643 2125"/>
		<path d="m10826 2276-128.4 76.4-1-1.6c-16.4-27.6-7.4-63.3 20.2-79.7l78.4-46.7z"/>
		<path d="m10258 2229c-31-365.5-49.5-705 64-843.5l0.9-1.1 191 76.4 0.3 0.7c0.6 1.4 64.2 141.1 49.3 235.1l47.1 216.7 153.6 257.2c4.8 8.1 2.2 18.5-5.9 23.3-0.6 0.4-1.2 0.7-1.9 1l-66.7 29.4c-7.8 3.4-16.9 0.5-21.3-6.7l-167.1-272.4-94.4-209c-1.3-2.9-4.6-4.1-7.5-2.8-1.8 0.8-3.1 2.6-3.3 4.6l-52.3 491.7c-0.9 8.7-8.2 15.2-16.9 15.2h-51.9c-8.9-0.2-16.2-7-17-15.8z"/>
		<path class="st4" d="m10323 1388-0.9-0.4-0.1-1c-7.1-49.9 1.3-105.4 25.1-164.9 24.2-60.2 88.9-93.5 151.9-78.4 35.5 8.8 65.8 32 83.4 64.1 17.4 31.8 20.6 69.4 9 103.7-30 87.7-68.9 169.7-69.3 170.5l-0.8 1.7z"/>
		<path class="st5" d="m10114 1264c18-14.2 44.2-11.2 58.4 6.9 1 1.2 1.9 2.5 2.7 3.9 1 1.6 1.8 3.2 2.6 4.9l181.2 36.6 48.3-113.4c7.7-18.1 28.6-26.6 46.7-18.9s26.6 28.6 18.9 46.7c-0.1 0.2-0.2 0.5-0.3 0.7l-70.7 158.1-0.2 0.3c-8.4 11.5-23.4 16.1-36.8 11.4l-199.8-71.6c-1.1 0.8-2.2 1.6-3.3 2.3-19.5 12.1-45.2 6.1-57.3-13.5-0.8-1.3-1.6-2.7-2.3-4.1-0.5-1.1-1-2.2-1.4-3.2-6.1-16.9-0.8-35.9 13.3-47.1z"/>
		<path d="m10821 1115c-8.9-15.8-22-30.4-39.2-36.2-22.2-7.6-46.3 0.5-69.2 5.9-17.6 4.1-36 6.7-53.8 3.2s-34.9-13.8-43-30c-11.9-23.8-1.9-52.2-2.6-78.9-1.4-52.9-45.3-94.6-98.2-93.3-7.6 0.2-15.1 1.3-22.5 3.3-21.9-6.3-41.7-6.9-55.3 9.9-35.5 0-64.3 28.8-64.3 64.3h61.4c-2.9 15.7 0.4 31.8 9.3 45.1 10.8 15.9 29.7 27.5 33.3 46.4 3.5 18.3-9 35.7-22 49.1-13.1 13.3-28.3 26.5-32.3 44.8-2.5 13.8 0.3 28.1 8 39.9 7.6 11.7 17 22.1 27.9 30.7 49.1 42 107.4 71.9 170.2 87.1 44.2 10.6 92.6 13.4 133.7-6.2 66.2-31.6 94.2-110.8 62.7-177-1.2-2.8-2.6-5.5-4.1-8.1z"/>
		<path class="st2" d="m10834 2356h-718.1c-2.1 0-3.8-1.7-3.8-3.8s1.7-3.8 3.8-3.8h718.1c2.1 0 3.8 1.7 3.8 3.8s-1.7 3.8-3.8 3.8z"/>
	</g>
	
	<text class="st4 st7 st8" transform="matrix(3.78 0 0 3.78 1132 -110.9)"> </text>
	
</g>
</svg>
