<?xml version="1.0" encoding="utf-8"?>
<!-- Generator: Adobe Illustrator 27.4.0, SVG Export Plug-In . SVG Version: 6.00 Build 0)  -->
<svg xmlns="http://www.w3.org/2000/svg" xmlns:xlink="http://www.w3.org/1999/xlink" version="1.1" id="Calque_1" x="0px" y="0px" viewBox="0 0 302.3 200" style="enable-background:new 0 0 302.3 200;" xml:space="preserve">
<style type="text/css">
	.st0{fill:#3F3D56;}
	.st1{fill:#2F2E41;}
	.st2{fill:#FFB8B8;}
	.st3{fill:#D9066A;}
	.st4{fill:#A0616A;}
	.st5{fill:#CCCCCC;}
</style>
<path class="st0" d="M297.3,0.5H15.3c-2.2,0-4,1.8-4,4.1v191c0,2.2,1.8,4,4,4.1h281.9c1.2,0,2.3-0.5,3.1-1.4c0,0,0.1-0.1,0.1-0.1  c0.2-0.3,0.4-0.6,0.6-1c0.2-0.5,0.3-1,0.3-1.5V4.5C301.3,2.3,299.5,0.5,297.3,0.5z M300.2,195.6c0,0.6-0.2,1.1-0.5,1.6  c-0.3,0.4-0.7,0.8-1.1,1c-0.4,0.2-0.9,0.3-1.3,0.3H15.3c-1.6,0-2.9-1.3-2.9-2.9V4.5c0-1.6,1.3-2.9,2.9-2.9h281.9  c1.6,0,2.9,1.3,2.9,2.9V195.6z"/>
<rect x="11.9" y="16.7" class="st0" width="288.9" height="1.2"/>
<circle class="st0" cx="21.7" cy="9.1" r="3.5"/>
<circle class="st0" cx="31.7" cy="9.1" r="3.5"/>
<circle class="st0" cx="41.7" cy="9.1" r="3.5"/>
<path class="st1" d="M139.9,115.1c-3.5-2.3-5.2-7.5-4.4-12.3c0.9-4.8,4.1-8.9,7.9-10.7c3.8-1.7,8.2-1.4,11.7,0.8  c3.5,2.2,8.5,3.3,10.2,7.6c1.3,3.3-0.3,10-2.1,13.3c-1.5,2.8-4.3,4.1-7,4.6c-6,1.2-12.2-0.2-17-3.9L139.9,115.1z"/>
<polygon class="st2" points="138.1,140.6 135.3,145.4 135,146.1 134.4,147 126.3,147 126.8,146.1 128.2,143.7 131.6,138   135.3,139.5 "/>
<path class="st1" d="M125.6,147l-1.5-0.9L124,146l9.4-17.1c0.8-1.5,2.2-2.6,3.8-3.1c1-0.3,2.1-0.3,3.1-0.1c0.6,0.1,1.2,0.3,1.7,0.7  c0.2,0.1,0.4,0.3,0.6,0.4c0.8,0.6,1.4,1.3,1.9,2.1c1.1,2,1,4.5-0.2,6.5l-3.6,5.8l-3.1,4.9l-0.6,0.9L125.6,147L125.6,147z"/>
<circle class="st2" cx="149.8" cy="109.8" r="11.4"/>
<path class="st3" d="M161.2,147h-25.6l0.1-0.3c-0.1-0.2-0.1-0.4-0.2-0.6c-0.1-0.2-0.1-0.4-0.2-0.6c-0.4-1.9-0.4-4,0-5.9  c1.4-7,7.1-12.6,7.1-12.6c0.1-0.1,0.2-0.1,0.3-0.2c0.8-0.6,1.8-1.1,2.7-1.5c4.2-1.7,8.6-1,11.6-0.1c1,0.3,2,0.7,3,1.1  c0.3,0.2,0.5,0.3,0.5,0.3l0.3,8.9l0.4,10.7L161.2,147z"/>
<path class="st1" d="M173.1,146.1l-2-10l-2-10.1c-0.2-0.8-0.8-1.5-1.7-1.7l-4.1-0.7l-3.9-0.7c-0.8-0.1-1.5,0.2-2,0.8  c-0.3,0.4-0.4,0.8-0.5,1.3c0,0.3,0.1,0.6,0.2,0.8c2,4.7,2,12.1,1.5,20.2c0,0.3,0,0.6-0.1,0.9h14.6L173.1,146.1z"/>
<path class="st1" d="M145.4,125.2c-0.3-1.1-1.4-1.8-2.6-1.5c-0.3,0.1-0.5,0.2-0.8,0.4l-1.8,1.6l-7.3,6.6c-0.2,0.2-0.4,0.5-0.5,0.7  c-0.8,2-2.4,5.8-4.3,10.6c-0.3,0.8-0.6,1.6-0.9,2.4c-0.1,0.3-0.2,0.6-0.4,0.9h12c0.1-0.3,0.2-0.6,0.3-0.9c0.5-1.7,1.1-3.3,1.6-4.9  c1.5-4.7,2.8-8.9,3.8-12.3c0.3-0.9,0.5-1.8,0.8-2.6C145.5,125.9,145.5,125.6,145.4,125.2z"/>
<polygon class="st2" points="175.8,147 176.5,147 176.4,146.7 176.1,146.1 171.8,135.7 171.1,136.1 165.7,139.3 168.5,146.1   168.9,147 173.3,147 "/>
<path class="st1" d="M171.3,127.5c-1.2-3.2-4.8-4.9-8-3.8c-0.2,0.1-0.4,0.1-0.6,0.2c-1.1,0.5-2,1.3-2.7,2.3  c-0.3,0.4-0.5,0.8-0.7,1.3c-0.6,1.6-0.6,3.4,0.1,4.9l1.3,3l4.8,10.7l0.4,0.9h9.7l0.7-0.3l1.7-0.7l0.2-0.1L171.3,127.5z"/>
<path class="st1" d="M158.7,96.7c0.8,0.2,1.7-0.1,2.1-0.8c0.4-0.7,0.5-1.6,0.2-2.4c-0.3-0.8-0.8-1.4-1.5-2c-0.7-0.7-1.6-1.1-2.6-1.4  c-1-0.2-2,0-2.8,0.6c-0.8,0.6-1.1,1.7-0.8,2.7c0.3,0.9,1.1,1.4,1.9,1.9c1.6,0.8,3.3,1.3,5.1,1.5L158.7,96.7z"/>
<path class="st1" d="M160.9,109.4c-1.8,0.3-1.6-0.7-2.3-2.4c-0.7-1.7-1.7-3.7-3.6-3.9c-1.5-0.1-2.8,1.1-4,2  c-2.2,1.6-5.1,2.4-7.6,1.4s-4.3-4-3.3-6.5c0.6-1.4,1.8-2.5,3.2-3c1.4-0.5,3-0.7,4.5-0.6c3.4,0.1,6.7,1,9.7,2.5  c2.1,1.1,4.1,2.6,4.9,4.8c0.8,2.2,1.3,5.3-0.9,5.9L160.9,109.4z"/>
<path class="st1" d="M157.8,90.7c-0.9-1.6-0.2-3.7,1.3-4.8s3.5-1.2,5.2-0.7c3.6,0.9,6.4,3.6,7.4,7.2c0.8,2.8,0.3,5.7,0.9,8.5  c1.4,6,7.4,9.8,13.4,8.4c0.2-0.1,0.4-0.1,0.7-0.2c1.9-0.6,3.8-1.9,4-3.9c0.4,4.7-2.2,9.1-6.5,10.9c-2.5,1-5.2,1.1-7.9,1  c-1.7,0-3.5-0.1-5.1-0.8c-2.2-1-4-2.9-4.8-5.2c-0.8-2.3-1-4.8-0.6-7.2c0.3-1.9,0.8-3.7,0.9-5.6s-0.1-3.9-1.3-5.4  c-1.2-1.5-3.4-2.3-5-1.3c-0.7,0.4-1.2,1-1.9,1.2c-0.7,0.2-1.7-0.2-1.7-0.9L157.8,90.7z"/>
<path class="st3" d="M235.6,147l0.1-0.9l2.6-27.3c0.9-0.7,1.8-1.3,2.8-1.8c5.4-2.7,10.6-1.4,13.4-0.3c0.7,0.3,1.5,0.6,2.2,1.1  l1.5,28.2l0.1,0.9H235.6z"/>
<ellipse transform="matrix(0.1602 -0.9871 0.9871 0.1602 109.3236 328.8014)" class="st2" cx="247.9" cy="100.2" rx="11.4" ry="11.4"/>
<path class="st1" d="M257.1,107.1c2.4-2.5,2.3-6.4-0.2-8.8c-1.2-1.1-2.8-1.8-4.5-1.7c-1.6,0.1-3.1,0.7-4.6,1.2  c-2.3,0.8-4.7,1-7.1,0.6c-2.4-0.4-4.6-1.6-6-3.6c-1.4-1.9-1.9-4.6-0.9-6.8c1.2-2.5,3.8-3.9,6.4-5c1-0.5,2.1-0.9,3.2-1.1  c1.1-0.2,2.3,0.1,3.2,0.8c0.7,0.6,1.1,1.5,1.9,2.1c0.9,0.6,2,0.6,3.1,0.7c6.4,0.6,11.1,6.4,10.5,12.8c-0.3,3.3-2.1,6.4-4.8,8.3  L257.1,107.1z"/>
<path class="st1" d="M242.8,121.8l-1.7-4.7l-0.1-0.3c-0.2-0.5-0.7-0.8-1.3-0.6c-0.1,0-0.1,0.1-0.2,0.1l-1.9,1.3c0,0-12.4,0-13.4,7.4  c0,0.1,0,0.2,0,0.4c0,0,0,0,0,0c-0.1,0.5-2.5,9.5-4.5,20.7c-0.1,0.3-0.1,0.6-0.2,0.9h26.9v0C247.3,135.8,246.8,125.4,242.8,121.8z"/>
<path class="st1" d="M274.9,146.1c-1.5-11.4-3.6-20.7-3.6-20.7c0-0.1,0-0.3-0.1-0.4c-1-7.4-13.4-7.4-13.4-7.4l-1.9-1.3  c-0.4-0.3-1.1-0.2-1.4,0.3c0,0.1-0.1,0.1-0.1,0.2l-1.8,5c-4,3.6-4.5,14-3.6,25.2l0,0H275C274.9,146.7,274.9,146.4,274.9,146.1z"/>
<path class="st3" d="M57,120l-2.8,26l-0.1,0.9h-7.5c0.1-0.3,0.2-0.6,0.3-0.9c2.1-7.3,5-17.9,4.7-20.7c-0.5-4.4,2.9-5.8,2.9-5.8  l0.2,0L57,120z"/>
<circle class="st4" cx="69" cy="100.6" r="11.4"/>
<path class="st3" d="M83.8,141.5c-0.6,1.1-1,2.2-1.4,3.3c-0.1,0.4-0.3,0.8-0.4,1.3c-0.1,0.3-0.2,0.6-0.2,0.9H51.7  c0-0.3,0.1-0.6,0.1-0.9c1.5-12.1,2.8-24.5,3-26.5c0-0.2,0-0.3,0-0.3c18-9.5,31.2,2.9,31.2,2.9s0,0.1,0,0.3  C86.3,124.2,87.8,134.4,83.8,141.5z"/>
<path class="st3" d="M82.4,144.8l-2-4.3l0.5-17.1l5.2-1l0.2,0c2.7,1.6,4.7,4,5.9,6.8c1,2.5,2.9,10.1,4.5,16.8  c0.1,0.3,0.1,0.6,0.2,0.9H83.4l-0.4-0.9L82.4,144.8z"/>
<path class="st0" d="M100.7,70.4h-66c-2.9,0-5.3,2.4-5.3,5.3v66c0,2.9,2.4,5.3,5.3,5.3h66c2.9,0,5.3-2.4,5.3-5.3v-66  C106.1,72.8,103.7,70.4,100.7,70.4z M105.2,141.7c0,2.4-2,4.4-4.4,4.4h-66c-2.4,0-4.4-2-4.4-4.4v-66c0-2.4,2-4.4,4.4-4.4h66  c2.4,0,4.4,2,4.4,4.4L105.2,141.7z M54.2,146.1l-0.1,0.9h27.6c0.1-0.3,0.2-0.6,0.2-0.9H54.2z"/>
<path class="st0" d="M189.3,70.4h-66c-2.9,0-5.3,2.4-5.3,5.3v66c0,2.9,2.4,5.3,5.3,5.3h66c2.9,0,5.3-2.4,5.3-5.3v-66  C194.6,72.8,192.2,70.4,189.3,70.4z M193.7,141.7c0,2.4-2,4.4-4.4,4.4h-66c-2.4,0-4.4-2-4.4-4.4v-66c0-2.4,2-4.4,4.4-4.4h66  c2.4,0,4.4,2,4.4,4.4V141.7z M135.5,146.1c0.1,0.2,0.1,0.4,0.2,0.6l-0.1,0.3h23.1c0-0.3,0-0.6,0.1-0.9H135.5z"/>
<path class="st0" d="M277.8,70.4h-66c-2.9,0-5.3,2.4-5.3,5.3v66c0,2.9,2.4,5.3,5.3,5.3h66c2.9,0,5.3-2.4,5.3-5.3v-66  C283.1,72.8,280.8,70.4,277.8,70.4z M282.2,141.7c0,2.4-2,4.4-4.4,4.4h-66c-2.4,0-4.4-2-4.4-4.4v-66c0-2.4,2-4.4,4.4-4.4h66  c2.4,0,4.4,2,4.4,4.4V141.7z M246.5,146.1c0,0.3,0,0.6-0.1,0.9h20c0-0.3,0.1-0.6,0.1-0.9H246.5z"/>
<path class="st5" d="M232.9,173.9H79.7c-2.1,0-3.7-1.7-3.7-3.7c0-2.1,1.7-3.7,3.7-3.7h153.3c2.1,0,3.7,1.7,3.7,3.7  C236.7,172.3,235,173.9,232.9,173.9z"/>
<path class="st3" d="M190,50.9h-67.3c-2.1,0-3.7-1.7-3.7-3.7s1.7-3.7,3.7-3.7H190c2.1,0,3.7,1.7,3.7,3.7S192,50.9,190,50.9z"/>
<path class="st1" d="M74.5,110.5c0.8,0.8,2.1,0.9,2.9,0.2c2.7-2,5-4.5,6.4-7.5c1.6-3.5,1.8-7.7-0.2-11c-1.6-2.8-4.5-4.6-7.4-6.1  c-1.1-0.6-2.3-1.1-3.6-1.4c-1.3-0.3-2.6-0.1-3.7,0.6c-1.1,0.7-1.7,2-1.4,3.3c-1.4-1.6-3.1-2.8-5.1-3.4c-1.2-0.5-2.6-0.6-3.9-0.3  c-1.8,0.5-3.2,2.1-3.9,3.9c-0.6,1.3-0.8,2.8-0.6,4.2c0.2,1.4,1,2.7,2.3,3.5c1.5,0.9,3.4,0.9,5.2,0.5c1.7-0.4,3.4-1,5.2-1.2  c1.8-0.2,3.7,0.3,4.8,1.7c0.8,1,0.9,2.3,1.1,3.5l0.9,6.4c0.1,0.9,0.3,1.8,0.7,2.7C74.3,110.3,74.4,110.4,74.5,110.5z"/>
</svg>
