<?xml version="1.0" encoding="UTF-8"?>
<svg xmlns="http://www.w3.org/2000/svg" width="300" height="190" version="1.1" viewBox="0 0 79.37 50.27"><rect width="79.38" height="50.27" fill="#fff" style="paint-order:fill markers stroke"/><g transform="matrix(.1665 0 0 .1665 -119.4 8.104)"><g fill="#e6e6e6"><ellipse class="st3" transform="matrix(1 -.001349 .001349 1 -.2269 1.079)" cx="800" cy="168.8" rx="59.1" ry="3.2"/><ellipse class="st3" transform="matrix(1 -.001349 .001349 1 -.2029 1.298)" cx="962" cy="151.1" rx="46.4" ry="2.5"/><ellipse class="st3" transform="matrix(1 -.001338 .001338 1 -.2244 1.497)" cx="1119" cy="168.5" rx="51.1" ry="7.6"/></g><path d="m808.7 80.9 6.6-1.6s2.6-0.5 1-4.7c-1.6-4.3-4.7-3.1-4.7-3.1l-5.9 1.4-2.3 0.6 3.3 3.9 0.3 2.6z"/><polygon points="805.4 85.5 807.9 84.9 809.9 77.9 807.9 76 810 75.5 805.4 71.8 803 72.2 801 70.6 802.4 70.2 802.5 69.8 800.9 68.7 795.9 69.5 793.8 76.6 804.5 85.3"/><polygon class="st4" points="804.5 84.1 798.2 79 799.7 74.3 805.9 79.5" fill="#ff9c3b"/><polygon class="st5" points="806.2 79.2 807.2 79.5 809.5 78.9 809.6 78.9 809.9 77.9 807.9 76 810 75.5 805.4 71.8 803 72.2 801 70.6 802.4 70.2 802.5 69.8 800.9 68.7 795.9 69.5 795.6 70.5" fill="none" stroke="#3f3d56" stroke-miterlimit="10"/><ellipse class="st4" transform="matrix(.1654 -.9862 .9862 .1654 599.9 847.8)" cx="800.9" cy="69.5" rx=".5" ry=".9" fill="#ff9c3b"/><ellipse class="st4" transform="matrix(.1654 -.9862 .9862 .1654 598.1 860.7)" cx="807.6" cy="77" rx=".5" ry=".9" fill="#ff9c3b"/><g fill="#ffb6b6"><path class="st6" d="m813.2 89.6-1.4-4.2s3.7-7.6-0.6-8.3-4.7 7.1-4.7 7.1l1.7 4.6z"/><ellipse class="st6" cx="786.2" cy="71.8" rx="11.5" ry="9.7"/><path class="st6" d="m790 78.7s0.7 7.2 2.4 7.7c1.6 0.6-15.2 4.6-15.2 4.6l5.1-4.8s-2.1-7.4-4.5-9.1z"/></g><path class="st4" d="m806.2 87.4 4.7-0.5s5.5 2.4 5.5 5.6 3.2 8.3 3.2 8.3 2.3 6.9-2.9 7.3c-5.2 0.5-9.9-7.3-9.9-7.3z" fill="#ff9c3b"/><path d="m808.8 126.2 9.3-5.4c3.1-1.8 7-1.8 10.1-0.2 1.3 0.7 2.2 1.7 2.2 2.9 0 3.7-9.6 12.2-9.6 12.2s-7.3 13.4-14.2 13.9c-4.6 0.3-9.1 0.9-13.6 1.7 0 0 3.2 9.7 1.4 12.5-1.7 2.7-8.4 5.9-9 5.6-0.6-0.2-8.7-6.6-12.2-15.6-3.5-9.1-5.8-15.9-2.6-16.4 3.5-0.5 38.2-11.2 38.2-11.2z"/><path d="m829.7 122.8s2-0.2 1.7 3.9c-0.3 4.2-1.2 19-2.6 22-1.4 2.9-1.7 6.3-1.2 7.6 0.6 1.2 1.7 3.2-0.3 3.4s-10.4-0.7-11.3-1c-0.9-0.2 3.5-9.7 2.9-10.3-0.6-0.5-1.2-11.9-1.2-11.9z"/><path d="m826.8 158.9s5-1.2 5.5 1.4c0 0 0.9 4.2-2.9 5.6-2.4 1-4.8 2.1-7 3.4 0 0-6.1 2-6.4-0.5-0.3-2.4 1.2-11.2 1.2-11.2z"/><path d="m794 161.9-9.3-6.3s1.7 7.8-0.6 9.3l-1 2.6 2.9 2c0.1 0 9.2-1.3 8-7.6z"/><path d="m781 151.1s6.1 1.4 5.2 6.6-2 10.7-2 10.7-0.3 13.7-4.7 14.7-5.5-1-5.5-1-5-10.7-3.5-13.9c1.8-3.9 4.3-8.2 3.5-9.5-0.9-1.3 0.6-8.3 7-7.6z"/><path class="st4" d="m777.5 83.7s2.3 0.2 6.1 0.7c3.7 0.5 6.4-2 8.4-1.4 2 0.5 18.9 3.9 18.9 3.9l-1.4 9.4c-0.5 3.1-1.7 6-3.2 8.9-2.4 4.6 1.2 18.9 4.6 21.6 3 2.4 7 2.9 2.6 7.1-4.3 4.2-11.9 7.8-27.3 6.6s-17.4-1-17.4-2.9 5.5-27.6 3.7-29.1c-1.7-1.4-2.6-2.9-2.6-3.7 0-0.5-1.8-6-3-9.6-0.9-2.5-0.6-5.2 0.9-7.6 0.5-0.9 1.2-1.5 1.8-1.6 2-0.2 0.6-1.4 2.1-1.4s2.3 0.2 3.2 0z" fill="#ff9c3b"/><path d="m799.7 65.3s-0.3-12-14.2-6.3c0 0-10.7-0.3-12.3 11.1l-1.4 12 1.6-1 1 1.3 2.8 0.2 0.8-2.1 1 2.3 22.8-0.9s-11-3.7-12.7-12.7l2.2 1.4z"/><ellipse cx="773.4" cy="60.6" rx="5.7" ry="4.8"/><path d="m779.1 58.7c-0.6-2.5-3.5-4.1-6.4-3.7 0.1 0 0.2-0.1 0.3-0.1 3.1-0.6 6.1 1.1 6.8 3.7 0.6 2.6-1.3 5.1-4.4 5.7-0.1 0-0.2 0.1-0.3 0.1 2.8-0.7 4.6-3.2 4-5.7z"/><ellipse cx="955.9" cy="41" rx="9.4" ry="7.9"/><path class="st7" d="m960.9 46.3s-0.1 4.9 0.4 5c0.6 0.1-7.8 2-7.8 2l-0.9-6.7z" fill="#ffb8b8"/><path class="st7" d="m894.8 88.1s-6.2 0-6.4-0.6c-0.1-0.6-1.4 4.9-1.4 4.9l2.5 0.7s4.8-1.8 5.2-1.8c0.6 0 0.1-3.2 0.1-3.2z" fill="#ffb8b8"/><path d="m888 90.2s1.2-3.2 2.5-3.3c0 0-4.8-2.7-5-3.5-0.1-0.8-1.8-3-2.5-2.2s-0.7 12.1 0.6 13.3 6.9-1.7 6.9-1.7-3.5-1.4-2.5-2.6z"/><polygon class="st7" points="966.1 141 960.9 141.8 960.9 135.9 965 135.9" fill="#ffb8b8"/><path d="m965 140.5s0.9-2.2 1.4-1.9c0.6 0.3 1.4 2.7 1.3 3.2-0.1 0.6-1.2 5.2-0.7 6.1s-2.1 5.1-5.4 4.8-3-2.8-3-2.8l1.2-3.7 0.4-5.8c0-0.1 3.7-0.5 4.8 0.1z"/><ellipse cx="959.2" cy="32.7" rx="3.9" ry="3.3"/><path d="m964.4 31c0-1.7-1.5-3.1-3.5-3.3h0.4c2.1 0 3.9 1.5 3.9 3.3s-1.7 3.3-3.9 3.3h-0.4c2-0.3 3.5-1.7 3.5-3.3z"/><ellipse class="st7" cx="955.9" cy="44.7" rx="5.9" ry="5" fill="#ffb8b8"/><path d="m967.7 79.5s-0.3 5.9-1.4 9.1c-1.2 3.1-5.2 25.2-4.4 26.9s5.2 20.1 4.2 21.2-5.7 0.7-5.7 0.7l-6.3-22.4s1.3-24.7-9.2-25.3-27.7-1-27.7-1-11.1 2.8-16 2.7c-5-0.1-7.8 1.1-7.8 1.1l-0.9-4.9 22-4s20.1-5.8 31.2-4.3c11.1 1.4 22 0.2 22 0.2z"/><path class="st4" d="m959.7 49.8s1.7-0.8 2.1 0 3.4 1.6 4.6 0.8c1.2-0.7 4 0.2 4 0.2l3.1 7.7s-1.6 6.7-3 10.4-2 11.4-1.4 12.1-11.4 3.6-17.2 1.8-7.1-3.8-7.1-3.8 6.4-7.6 4.3-11.2-0.4-7.6-0.4-7.6l-0.9-4 4.8-2.2s0.3-2.1 1.4-2.1c1.2-0.2 5.7-2.1 5.7-2.1z" fill="#ff9c3b"/><path class="st4" d="m950.9 55.8h-2.1c-1.2 0.9-1.7 2.3-1.4 3.6 0.6 2.2 3.1 9.6 3.1 9.6l2.1-4.6z" fill="#ff9c3b"/><path class="st7" d="m943.9 75.4s-4.3 3.9-1.1 5.9c3.1 2 3.9-4.7 3.9-4.7z" fill="#ffb8b8"/><path class="st4" d="m950 67.3-1 3.3-1.7 2.7s-5.8 3.2-5.8 4.4c0 0 2.5-2.8 5.8 0l2.9-5.9z" fill="#ff9c3b"/><ellipse cx="954.8" cy="39.4" rx="6.5" ry="3.3"/><path class="st7" d="m967.7 39.7s-4.6-2.1-6.4-0.6 5.5 3.9 5.5 3.9z" fill="#ffb8b8"/><path class="st4" d="m969.9 51.1 1-0.6s1.2-1.4 2.1-1c1 0.5 6.6-1.7 6.6-1.7s-2.1 0.8-2.1-0.6c0-1.3-0.3-1.2-1.7-1.2s-1.4 0.6-1.9-0.2c-0.6-0.8-0.3-1.3-1.3-0.8s-2.1 0.1-2.4-0.2-5.2-1-5.2-1 1.9-4.8 2.4-5.1c0.4-0.3 11.1 3.6 11.1 3.6s13.5 3.2 10 6.7c-3.5 3.6-16 9.1-16 9.1z" fill="#ff9c3b"/><path class="st4" d="m1075 21.2 22.3 0.1s36.7 16.4 11 50.5c0 0-10.6-2.1-22.1 5.1-0.1 0-6.8-54.4-11.2-55.7z" fill="#ff9c3b"/><path class="st8" d="m1082 21.4c4 14 8.5 50.2 8.5 50.2 10.4-6.5 19.9-5.5 21.8-5.2-1.2 1.9-2.4 3.7-3.7 5.5 0 0-10.6-2.1-22.1 5.1 0 0-6.8-54.4-11.1-55.7z" enable-background="new" opacity=".2"/><polygon points="1111 46.7 1135 43 1136 33.7 1131 33.7 1109 38.8"/><polygon class="st8" points="1135 43 1136 33.7 1131 33.7" enable-background="new" opacity=".2"/><ellipse cx="1110" cy="42.3" rx="2.8" ry="5.4"/><path d="m1124 155.6c-0.5 0-0.9-0.3-0.9-0.7v-112.6c0-0.4 0.4-0.7 0.9-0.7s0.9 0.3 0.9 0.7v112.6c-0.1 0.3-0.5 0.7-0.9 0.7z"/><path d="m1112 175.3c-0.5 0-0.9-0.3-0.9-0.7v-0.1l10.8-46.6-28.4 36.4c-0.2 0.3-0.8 0.4-1.2 0.2-0.3-0.2-0.5-0.6-0.2-1l30.7-39.4c0.2-0.3 0.8-0.4 1.2-0.2 0.3 0.2 0.4 0.5 0.3 0.7l-11.6 50.2c0.1 0.3-0.3 0.5-0.7 0.5z"/><path d="m1156 166.5c-0.3 0-0.6-0.1-0.7-0.3l-32.1-41.2c-0.2-0.3-0.2-0.7 0.2-1 0.4-0.2 0.9-0.1 1.2 0.2l32.1 41.2c0.2 0.3 0.2 0.7-0.2 1-0.2 0.1-0.4 0.1-0.5 0.1z"/></g></svg>
