<?xml version="1.0" encoding="UTF-8"?>
<svg xmlns="http://www.w3.org/2000/svg" width="300" height="190" version="1.1" viewBox="0 0 79.37 50.27"><rect width="79.38" height="50.27" fill="#fff" style="paint-order:fill markers stroke"/><g transform="translate(.7197 .1522)"><path class="st2" d="m72.13 33.93h-2.577c-0.1152 0-0.2304 0.05759-0.3024 0.144-0.3312-0.0576-0.648 0.1584-0.7056 0.4896-0.05759 0.3312 0.1584 0.648 0.4896 0.7056 0.1296 0.0288 0.2592 0.0144 0.3744-0.05759l0.216 0.6912c0.0576 0.1728 0.216 0.288 0.3888 0.288h1.67c0.1728 0 0.3312-0.1152 0.3888-0.288l0.4608-1.469c0.0576-0.216-0.05759-0.432-0.2736-0.504-0.0576 0.0144-0.1008 0-0.1296 0zm-2.995 1.181c-0.2448 0-0.432-0.1872-0.432-0.432s0.1872-0.432 0.432-0.432h0.0288c-0.0144 0.072-0.0144 0.144 0.0144 0.216l0.1872 0.6048c-0.08639 0.0288-0.1584 0.04319-0.2304 0.04319z" fill="#f0f0f0" stroke-width=".144"/><path class="st2" d="m9.363 32.1h-2.577c-0.1152 0-0.2304 0.0576-0.3024 0.144-0.3312-0.0576-0.648 0.1584-0.7056 0.4896-0.0576 0.3312 0.1584 0.648 0.4896 0.7056 0.1296 0.0288 0.2592 0.0144 0.3744-0.05759l0.3024 2.534c0.0576 0.1728 0.216 0.288 0.3888 0.288h1.67c0.1728 0 0.3312-0.1152 0.3888-0.288l0.36-3.297c0.0576-0.216-0.0576-0.432-0.2736-0.504-0.04319-0.0144-0.0864-0.0144-0.1152-0.0144zm-2.995 1.166c-0.2448 0-0.432-0.1872-0.432-0.432 0-0.2448 0.1872-0.432 0.432-0.432h0.0288c-0.0144 0.072-0.0144 0.144 0.0144 0.216l0.1872 0.6048c-0.0864 0.0288-0.1584 0.04319-0.2304 0.04319z" fill="#f0f0f0" stroke-width=".144"/><g fill="#e6e6e6" stroke-width=".144"><path class="st3" d="m39.79 29.99c0-0.3888-0.3168-0.6912-0.6912-0.6912s-0.6912 0.3168-0.6912 0.6912c0 0.3888 0.3168 0.6912 0.6912 0.6912h0.0288c0.1728 0.5616 0.2592 1.138 0.2736 1.728 0.0144 0.3024-0.0144 0.5904-0.0576 0.8784-0.0288 0.216-0.0864 0.4464-0.288 0.5472-0.144 0.072-0.0144 0.3024 0.1296 0.2304 0.2304-0.1008 0.3456-0.3456 0.3888-0.5904 0.05759-0.3024 0.0864-0.6192 0.072-0.9216 0-0.648-0.1008-1.296-0.2736-1.915 0.2592-0.1296 0.4176-0.36 0.4176-0.648z"/><path class="st3" d="m39.59 34.2s-0.936-2.304 1.872-4.032z"/><path class="st3" d="m39.53 34.16s-0.288-1.642-2.491-1.627z"/></g><path class="st2" d="m41.1 36.17h-3.845c-0.144 0-0.288-0.08639-0.3456-0.216l-0.8352-1.714c-0.1008-0.1872-0.0144-0.432 0.1872-0.5184 0.0576-0.0288 0.1152-0.04319 0.1728-0.04319h5.515c0.216 0 0.3888 0.1728 0.3888 0.3888 0 0.05759-0.0144 0.1152-0.0432 0.1728l-0.8352 1.714c-0.072 0.144-0.2016 0.216-0.36 0.216z" fill="#f0f0f0" stroke-width=".144"/><path class="st4" d="m73.93 36.29h-69.92c-0.0576 0-0.0864-0.0288-0.0864-0.0864 0-0.05759 0.0288-0.0864 0.0864-0.0864h69.92c0.0576 0 0.0864 0.0288 0.0864 0.0864s-0.0288 0.0864-0.0864 0.0864z" fill="#3f3d56" stroke-width=".144"/><g fill="#96f"><polygon class="st1" transform="matrix(.144 0 0 .144 -93.95 10.6)" points="822.5 82.1 840.9 91.6 841 98.6 841.9 161.4 845.6 176.8 778.2 176.8 783.4 152.3 781 143.1 769.2 98.6 767.9 93.5 769.1 92.3 791.1 81.4"/><path class="st1" d="m29.67 36.06h-2.534l-0.6912-5.04 0.1872-6.22 0.0288-0.8496 0.4752-0.1584c0.36 0.2592 0.6624 0.6048 0.8784 1.008 0.3168 0.5472 0.5616 1.325 0.504 2.361 0 0 0.0576 1.224 0 2.045-0.0288 0.5616 0.6192 4.089 1.152 6.854z" stroke-width=".144"/><path class="st1" d="m18.52 31.15-0.0144 0.0576-0.6768 4.838h-2.909c0.2304-2.75 0.504-6.177 0.4752-6.724-0.0576-0.8208 0-2.045 0-2.045-0.072-1.123 0.2304-1.944 0.5904-2.491 0.1728-0.2736 0.3888-0.5184 0.6336-0.7488 0.05759-0.0432 0.1152-0.1008 0.1728-0.1296l0.4752 0.1584 0.1152 0.72z" stroke-width=".144"/></g><g stroke-width=".144"><path class="st5" d="m18.85 18.1c0 1.728 1.411 3.139 3.139 3.139 1.728 0 3.139-1.411 3.139-3.139 0-1.728-1.411-3.139-3.139-3.139-1.728 0-3.125 1.382-3.139 3.11v0.0288z" fill="#ffb7b7"/><path d="m31.98 35.55c0 0.3744-0.3024 0.6768-0.6768 0.6768h-18.03c-0.3744 0-0.6768-0.3024-0.6768-0.6768s0.3024-0.6768 0.6768-0.6768h0.2016c-0.0144-0.04319-0.0144-0.072-0.0144-0.1152v-9.216c0-0.3168 0.2592-0.5904 0.5904-0.5904h16.5c0.3168 0 0.5904 0.2592 0.5904 0.5904v9.216c0 0.04319-0.0144 0.0864-0.0144 0.1152h0.2016c0.3456 0.0144 0.648 0.3168 0.648 0.6768z"/><path class="st6" d="m22.65 30.23c-0.576 0-1.037-0.4608-1.037-1.037s0.4608-1.037 1.037-1.037 1.037 0.4608 1.037 1.037-0.4608 1.037-1.037 1.037zm0-1.901c-0.4752 0-0.864 0.3888-0.864 0.864s0.3888 0.864 0.864 0.864c0.4752 0 0.864-0.3888 0.864-0.864 0-0.4896-0.3888-0.864-0.864-0.864z" fill="#fff"/><circle class="st6" cx="22.29" cy="28.83" r=".9503" fill="#fff"/><path d="m51.58 20.81v-1.858c0-2.318 1.872-4.19 4.19-4.19 2.318 0 4.19 1.872 4.19 4.19v1.858c0 0.5184-0.4176 0.936-0.9359 0.936h-5.673l-0.4608-0.9935v0.9935h-0.36c-0.5328 0-0.9503-0.4176-0.9503-0.936z"/><path class="st7" d="m58.82 26.73 0.1872 1.958 0.072 0.8928 0.1296 1.411 0.0144 0.1872 0.1008 1.152v0.0144c0.144 0.4464 0.5472 0.7488 1.008 0.7344l4.867-0.0864 1.368-0.0288c0.0288 0.04319 0.05759 0.072 0.072 0.1008 0.2448 0.3024 0.6048 0.4752 0.9935 0.4896 0.3888 0.0144 0.7632-0.1296 1.037-0.4032 0.0288-0.0288 0.0576-0.0576 0.072-0.0864 0.36-0.4608 0.4032-1.094 0.0864-1.584-0.216-0.3168-0.5472-0.5472-0.9216-0.6048-0.3744-0.0576-0.7632 0.04319-1.051 0.288-0.04319 0.0288-0.08639 0.072-0.1296 0.1152l-1.512-0.216-3.787-0.5472-0.1584-2.203v-0.0288l-0.1296-1.757c-0.04319-0.6048-0.5616-1.08-1.166-1.08-0.1008 0-0.1872 0.0144-0.288 0.0432-0.1008 0.0288-0.2016 0.072-0.3024 0.1296-0.3744 0.2448-0.6048 0.6624-0.5616 1.109z" fill="#9e616a"/><circle class="st7" cx="55.94" cy="19.11" r="2.75" fill="#9e616a"/><path class="st1" d="m59.6 23.67 0.504-0.1728s0.9935 0.4176 0.9935 1.166 0.1728 3.744 0.1728 3.744l-2.246 0.2592z" fill="#96f"/><path class="st7" d="m48.99 36.16h1.987l0.6768-5.673 0.2448-2.045 0.0288-0.2736 0.1872-1.512c0.0288-0.576-0.4176-1.08-0.9935-1.094-0.216-0.0144-0.4176 0.04319-0.6048 0.1584-0.0432 0.0288-0.072 0.05759-0.1152 0.08639-0.2304 0.1872-0.36 0.4752-0.3744 0.7632l-0.1728 1.67z" fill="#9e616a"/><path class="st1" d="m51.96 28.43-2.246-0.2592s0.1728-2.995 0.1728-3.744c0-0.7488 0.9935-1.166 0.9935-1.166l0.504 0.1728z" fill="#96f"/><path class="st8" d="m51.22 36.16h9.388c-0.3024-1.138-0.7056-2.246-1.21-3.312-0.072-0.1728-0.1296-0.2592-0.1296-0.2592s-4.003-0.072-6.494 0.9216c-0.1584 0.072-0.3024 0.1728-0.4176 0.3024-0.432 0.432-0.8064 1.282-1.138 2.347z" fill="#2f2e41"/><path class="st1" d="m53.19 22.77s-0.072-0.0432 4.665 0.1296l1.987 0.5472 0.2592 0.072s-0.2592 4.997-0.9216 5.904c-0.6624 0.9216-0.504 1.411-0.3312 1.498 0.1728 0.08639 0.5904-0.0864 0.3312 0.3312-0.2592 0.4176-0.5904 0.1728-0.2592 0.4176 0.3312 0.2448 0.504 1.166 0.504 1.166l-7.315 0.9935s-0.2592-3.254-0.9216-4.91c-0.6624-1.67-0.8352-2.333-0.8352-2.333l0.504-3.326z" fill="#96f"/><path d="m52.98 17.55c0-1.498 1.21-2.707 2.707-2.707 1.498 0 2.707 1.224 2.707 2.707v1.224h-5.414z"/><path d="m64.9 35.47v0.2448c0 0.3024-0.2304 0.5328-0.5328 0.5328h-17.73c-0.3024 0-0.5328-0.2304-0.5328-0.5328v-0.2448c0-0.3024 0.2304-0.5328 0.5328-0.5328h0.3168c-0.0144-0.0288-0.0144-0.072-0.0144-0.1152v-9.043c0-0.2448 0.2016-0.4464 0.4464-0.4464h16.24c0.2448 0 0.4464 0.2016 0.4464 0.4464v9.043c0 0.0432-0.0144 0.072-0.0144 0.1152h0.3168c0.2736 0 0.5184 0.2304 0.5184 0.5328z"/><path class="st6" d="m55.86 30.43c-0.5616 0-1.008-0.4608-1.008-1.008 0-0.5616 0.4608-1.008 1.008-1.008s1.008 0.4608 1.008 1.008c0 0.5472-0.4464 1.008-1.008 1.008zm0-1.857c-0.4608 0-0.8352 0.3744-0.8352 0.8352 0 0.4608 0.3744 0.8352 0.8352 0.8352 0.4608 0 0.8352-0.3744 0.8352-0.8352 0-0.4608-0.3744-0.8352-0.8352-0.8352z" fill="#fff"/><circle class="st6" cx="55.51" cy="29.06" r=".9216" fill="#fff"/><path d="m25.53 15.51c-0.2592-0.1872-0.4608-0.4464-0.6048-0.7344-0.05759-0.1008-0.1152-0.216-0.216-0.288l-0.5904 0.4608 0.36-0.6336c-0.9216-0.5616-2.736-0.2592-2.736-0.2592-1.872-1.008-2.563 0.2448-2.808 1.037-0.1008 0.288-0.2592 0.5472-0.4896 0.7488-0.4608 0.4464 0.2736 1.296 0.2736 1.296v0.05759l0.1728 1.181s0.1728-0.792 0.6336-1.339c0.288-0.3456 0.7632-0.5616 0.9935-0.5472 2.837 0.0576 3.369 0.1728 3.369 0.1728s0.4752 0.2592 0.6912 0.36c0.6768 0.3456 0.5184 1.613 0.5184 1.613l0.5184-2.246c0.1008-0.5328 0.04319-0.792-0.08639-0.8784z"/></g></g></svg>
