<?xml version="1.0" encoding="UTF-8"?>
<svg xmlns="http://www.w3.org/2000/svg" width="300" height="190" version="1.1" viewBox="0 0 79.37 50.27"><rect width="79.38" height="50.27" fill="#fff" style="paint-order:fill markers stroke"/><g transform="matrix(.1584 0 0 .1584 -109.9 9.298)"><path class="st2" d="m916 149.1c-3.8 1.3-8 0.6-11.2-2-3.9-3.3-5.2-8.7-6.2-13.7l-3-14.8 6.2 4.2c4.4 3 9 6.2 12 10.7 3 4.4 4.4 10.5 1.9 15.3" fill="#e6e6e6"/><path class="st3" d="m915.4 167.1c0.6-4.6 1.3-9.1 0.9-13.8-0.4-4.1-1.7-8.1-4.2-11.4-1.3-1.7-3-3.2-4.8-4.4-0.5-0.3-0.9 0.5-0.5 0.8 3.2 2.1 5.7 5 7.1 8.5 1.5 3.9 1.8 8.2 1.5 12.4-0.1 2.5-0.5 5-0.9 7.5-0.1 0.3 0.1 0.5 0.3 0.5 0.3 0.3 0.6 0.1 0.6-0.1z" fill="#f2f2f2"/><path class="st2" d="m909.4 159c-1.7 2.5-4.4 3.9-7.4 3.8-3.8-0.2-6.9-2.8-9.7-5.3l-8.3-7.3 5.5-0.3c4-0.2 8-0.4 11.8 0.9 3.8 1.2 7.3 4.2 7.9 8.1" fill="#e6e6e6"/><path class="st3" d="m917.2 169.7c-3-5.3-6.5-11.2-12.7-13.1-1.7-0.5-3.6-0.7-5.4-0.5-0.6 0.1-0.4 0.9 0.1 0.9 3-0.3 6 0.5 8.5 2.2 2.4 1.7 4.3 3.9 5.9 6.4 1 1.5 1.9 3 2.7 4.6 0.4 0.4 1.2 0 0.9-0.5z" fill="#f2f2f2"/><path class="st4" d="m997.8 63.1-65.6 54.4c-1.7 1.4-4.2 1.2-5.7-0.5l-27.7-33.3c-1.4-1.7-1.2-4.2 0.5-5.7l65.7-54.5c1.7-1.4 4.2-1.2 5.7 0.5l27.7 33.3c1.4 1.8 1.1 4.4-0.6 5.8z" fill="#ccc"/><path class="st5" d="m995.2 61.4-64 53.1c-0.9 0.7-2.2 0.6-2.9-0.3l-26.4-31.8c-0.7-0.9-0.6-2.2 0.3-2.9l64-53.1c0.9-0.7 2.2-0.6 2.9 0.3l26.4 31.8c0.7 0.8 0.6 2.2-0.3 2.9z" fill="#fff"/><g fill="#ccc"><path class="st4" d="m998.1 72.5-13.1-1.2 9.5-7.4 5.1 6.2c0.4 0.5 0.5 1.1 0.2 1.7-0.1 0.2-0.2 0.3-0.4 0.5-0.4 0.1-0.9 0.3-1.3 0.2z"/><path class="st4" d="m971.7 49-32.4 26.9c-0.9 0.7-2.1 0.6-2.8-0.3s-0.6-2.1 0.3-2.8l32.4-26.9c0.9-0.7 2.1-0.6 2.8 0.3 0.7 0.8 0.5 2-0.3 2.8z"/><path class="st4" d="m955.9 51.3-21.9 18.1c-0.9 0.7-2.1 0.6-2.8-0.3s-0.6-2.1 0.3-2.8l21.8-18.1c0.9-0.7 2.1-0.6 2.8 0.3s0.5 2.1-0.2 2.8z"/></g><circle class="st1" cx="922" cy="82.2" r="6.1" fill="#3c9"/><g fill="#e6e6e6"><circle class="st2" cx="970.6" cy="68" r="2"/><circle class="st2" cx="975.9" cy="63.6" r="2"/><circle class="st2" cx="981.2" cy="59.2" r="2"/></g><polygon class="st6" points="950 148.9 950 166.3 954.5 166.3 956.6 148.9" fill="#ffb8b8"/><path d="m948.8 164.8h8.9c3.1 0 5.6 2.5 5.6 5.6v0.2h-14.5z"/><polygon class="st6" points="933.8 148.9 933.8 166.3 938.3 166.3 940.4 148.9" fill="#ffb8b8"/><path d="m932.7 164.8h8.9c3.1 0 5.6 2.5 5.6 5.6v0.2h-14.5z"/><path d="m938.3 161h-3.8c-0.9 0-1.6-0.7-1.7-1.6l-0.1-3.4c-1-26.7-2-54.4 4.2-66.8l0.1-0.1 20.5-0.7 4.1 37.7c0.2 1.6 0.1 3.2-0.2 4.8l-5.4 28.6c-0.1 0.8-0.9 1.4-1.7 1.3l-4.3-0.1c-0.9-0.1-1.6-0.8-1.6-1.7l3.4-26.5c0.1-1.1 0-2.3-0.3-3.4l-4.2-14.7c-0.1-0.3-0.4-0.5-0.7-0.4-0.2 0.1-0.3 0.3-0.4 0.5l-6.3 45.1c-0.1 0.8-0.7 1.4-1.6 1.4z"/><circle class="st6" cx="940.8" cy="41.6" r="9" fill="#ffb8b8"/><path class="st1" d="m956.6 91.2h-18.7c-0.9 0-1.7-0.7-1.7-1.7v-0.3l0.9-6.3-5.4-14.9c-2.1-5.7 0.9-12 6.5-14 0.7-0.3 1.5-0.5 2.2-0.5 4.8-0.7 9.3 1.9 11.4 6.2l1.2 2.5 5 27c0.2 0.9-0.4 1.8-1.3 1.9 0.1 0.1-0.1 0.1-0.1 0.1z" fill="#3c9"/><path class="st6" d="m917.2 107c2.1-0.5 3.4-2.6 3-4.7-0.1-0.2-0.1-0.5-0.2-0.7l14.5-32.8-8.3-2.1-11.6 32.9c-1.9 1-2.7 3.4-1.7 5.4 0.7 1.5 2.5 2.4 4.3 2z" fill="#ffb8b8"/><path class="st1" d="m932.5 74.6-8.1-3.8c-0.9-0.4-1.3-1.5-0.9-2.3 0.1-0.1 0.1-0.1 0.1-0.2l4.9-7.4c1.2-2.4 4.1-3.5 6.5-2.3s3.5 4 2.3 6.5l-2.5 8.5c-0.3 0.9-1.3 1.5-2.2 1.2 0-0.1 0-0.1-0.1-0.2z" fill="#3c9"/><path class="st6" d="m977.8 22.6c0.7 2.1-0.5 4.3-2.6 5-0.2 0.1-0.5 0.1-0.7 0.1l-20.8 29.2-6-6.1 22.3-26.9c-0.1-2.2 1.5-4.1 3.7-4.2 1.9-0.1 3.5 1.1 4.1 2.9z" fill="#ffb8b8"/><path class="st1" d="m958.6 53.5c0.1 0.5-0.1 1-0.5 1.4l-6 6.5c-1.5 2.2-4.6 2.8-6.8 1.3s-2.8-4.6-1.3-6.8l3.8-8c0.4-0.9 1.5-1.3 2.4-0.8 0.1 0.1 0.1 0.1 0.2 0.1l7.4 5c0.5 0.3 0.8 0.8 0.8 1.3z" fill="#3c9"/><path d="m952.6 37.8c0-0.8-0.1-1.7-0.3-2.4-1.5-5.4-6.8-8.6-12.2-7.7-1.1-0.3-2.1-0.5-3.2-0.5-5.7 0-10.6 4.2-11.4 9.8l-4.5 28h23.5l3.8-24.4c0.1-0.9 0.2-1.9 0.1-2.7z"/><path class="st4" d="m981.8 170.8h-77.3c-0.2 0-0.4-0.1-0.4-0.4s0.1-0.4 0.4-0.4h77.3c0.2 0 0.4 0.1 0.4 0.4s-0.2 0.4-0.4 0.4z" fill="#ccc"/><g fill="#a0616a"><path class="st7" d="m1101 62.3c2.1-0.2 3.8 1.3 4 3.3v0.7l12 5.3-5.7 3.7-10.5-5.6c-2.1-0.3-3.4-2.2-3.1-4.2 0.2-1.8 1.6-3.1 3.3-3.2z"/><circle class="st7" cx="1149" cy="46.6" r="9"/><polygon class="st7" points="1133 157.7 1133 175.1 1128 175.1 1126 157.7"/></g><path d="m1134 179.4h-14.5v-0.2c0-3.1 2.5-5.6 5.6-5.6h8.9z"/><polygon class="st7" points="1152 157.7 1152 175.1 1147 175.1 1145 157.7" fill="#a0616a"/><path d="m1153 179.4h-14.5v-0.2c0-3.1 2.5-5.6 5.6-5.6h8.9z"/><path d="m1151 171.4h-0.2l-6.5-0.8c-0.8-0.1-1.4-0.7-1.5-1.5l-1.9-43.2c0-0.3-0.3-0.5-0.6-0.5-0.2 0-0.4 0.1-0.5 0.3l-4.9 16.4-1 26.4c-0.1 0.9-0.8 1.6-1.7 1.6h-0.1l-5.7-0.7c-0.9-0.1-1.5-0.8-1.5-1.7l0.5-24.8 3.8-39h0.2l23.5 0.9-0.2 65c-0.1 0.8-0.8 1.6-1.7 1.6z"/><path d="m1152 108.3s-0.1 0 0 0l-23.7-0.6c-0.9 0-1.7-0.8-1.6-1.7v-0.2l4.6-33.4c0.6-4.6 3-8.7 6.9-11.3 3.3-2.3 7.5-3 11.4-2.1 8.3 2.1 13.2 11 11 19.8l-6.9 28.3c-0.3 0.7-1 1.2-1.7 1.2z"/><path d="m1121 81.8c-1.6 0-3.1-0.5-4.4-1.3l-13.8-9.1c-0.8-0.5-1-1.5-0.5-2.3l0.2-0.2 2.1-2.2c0.5-0.5 1.2-0.7 1.8-0.4l15.4 6.2 14.3-10.2c2.6-1.9 6.4-1.3 8.3 1.4 1.9 2.6 1.3 6.4-1.4 8.3-0.3 0.2-0.5 0.3-0.9 0.5l-17.7 8.5c-1.1 0.5-2.3 0.8-3.4 0.8z"/><path d="m1152 55.2c1.5 0.3 3.4 0.7 4.5-0.5 0.2-0.2 0.4-0.5 0.5-0.7l1.5-2.2c1.1-1.7 2.2-3.4 2.7-5.4 1.1-4.7-1.8-9.4-6.4-10.5h-0.1c-2.1-0.5-4.2-1.3-6.4-1.1s-4.8 0.1-6.6-1.1c0.1 0.5 0.7 2.9 0.7 2.9s-2.8 2.5-3.3 3.2c2.6-1.2 5.7 0 6.9 2.6 0.2 0.4 0.3 0.9 0.4 1.3 0.1 1 0.1 2.1 0.7 2.8 0.5 0.7 1.5 1 2.3 1.5 2.4 1.4 3.5 4.4 2.5 7z"/><path class="st4" d="m1141 111.5h-74.7c-2 0-3.5-1.6-3.5-3.5v-38c0-2 1.6-3.5 3.5-3.5h74.6c2 0 3.5 1.6 3.5 3.5v38c0.1 2-1.4 3.5-3.4 3.5z" fill="#ccc"/><path class="st5" d="m1141 109h-73c-1 0-1.9-0.8-1.9-1.9v-36.2c0-1 0.8-1.9 1.9-1.9h72.9c1 0 1.9 0.8 1.9 1.9v36.3c0 1-0.8 1.8-1.8 1.8z" fill="#fff"/><g fill="#ccc"><path class="st4" d="m1136 118.1-8.2-8.2 10.5 0.3v6.9c0 0.5-0.3 1.1-0.9 1.3-0.2 0.1-0.3 0.1-0.5 0.1-0.3 0-0.6-0.1-0.9-0.4z"/><path class="st4" d="m1132 87.4h-36.9c-0.9 0-1.7-0.8-1.7-1.7s0.8-1.7 1.7-1.7h36.9c0.9 0 1.7 0.8 1.7 1.7s-0.8 1.7-1.7 1.7z"/><path class="st4" d="m1120 80.1h-24.9c-0.9 0-1.7-0.8-1.7-1.7s0.8-1.7 1.7-1.7h24.9c0.9 0 1.7 0.8 1.7 1.7s-0.8 1.7-1.7 1.7z"/></g><circle class="st1" cx="1080" cy="82" r="5.4" fill="#3c9"/><g fill="#e6e6e6"><circle class="st2" cx="1120" cy="99.6" r="1.7"/><circle class="st2" cx="1126" cy="99.6" r="1.7"/><circle class="st2" cx="1132" cy="99.6" r="1.7"/></g><path class="st7" d="m1140 107c0.2-2.1 2.1-3.5 4.1-3.2 0.2 0 0.4 0.1 0.7 0.1l7.6-10.7 2.4 6.4-7.6 9.1c-0.7 1.9-2.8 2.9-4.8 2.2-1.6-0.5-2.6-2.2-2.4-3.9z" fill="#a0616a"/><path d="m1149 106.5h-0.3c-0.5-0.1-0.9-0.3-1.2-0.7l-1.6-2.6c-0.3-0.6-0.3-1.3 0.1-1.9l9.7-13.4-6.4-16.3c-1.2-3 0.3-6.4 3.2-7.6 3-1.3 6.5 0.1 7.7 3.2 0.1 0.3 0.3 0.7 0.3 1.1l3.9 19.2c0.5 2.8-0.4 5.6-2.4 7.5l-12.1 11.2c-0.2 0.1-0.5 0.3-0.9 0.3z"/><path class="st4" d="m1170 180.3h-77.4c-0.2 0-0.4-0.1-0.4-0.4 0-0.2 0.1-0.4 0.4-0.4h77.3c0.2 0 0.4 0.1 0.4 0.4s-0.1 0.4-0.3 0.4z" fill="#ccc"/><path class="st4" d="m813 85.5h-74.6c-2 0-3.5-1.6-3.5-3.5v-38c0-2 1.6-3.5 3.5-3.5h74.6c2 0 3.5 1.6 3.5 3.5v38c0.1 1.9-1.5 3.5-3.5 3.5z" fill="#ccc"/><path class="st5" d="m812.1 82.9h-72.9c-1 0-1.9-0.8-1.9-1.9v-36.2c0-1 0.8-1.9 1.9-1.9h72.9c1 0 1.9 0.8 1.9 1.9v36.2c0 1.1-0.9 1.9-1.9 1.9z" fill="#fff"/><g fill="#ccc"><path class="st4" d="m807.9 92.1-8.2-8.2 10.5 0.3v6.9c0 0.5-0.3 1.1-0.9 1.3-0.2 0.1-0.3 0.1-0.5 0.1-0.3 0-0.6-0.2-0.9-0.4z"/><path class="st4" d="m803.3 61.3h-36.9c-0.9 0-1.7-0.8-1.7-1.7s0.8-1.7 1.7-1.7h36.9c0.9 0 1.7 0.8 1.7 1.7s-0.8 1.7-1.7 1.7z"/><path class="st4" d="m791.2 54.1h-24.9c-0.9 0-1.7-0.8-1.7-1.7s0.8-1.7 1.7-1.7h24.9c0.9 0 1.7 0.8 1.7 1.7 0.1 0.9-0.7 1.7-1.7 1.7z"/></g><circle class="st1" cx="751.1" cy="56" r="5.4" fill="#3c9"/><g fill="#e6e6e6"><circle class="st2" cx="791.9" cy="73.6" r="1.7"/><circle class="st2" cx="797.9" cy="73.6" r="1.7"/><circle class="st2" cx="803.9" cy="73.6" r="1.7"/></g><g fill="#ffb8b8"><path class="st6" d="m809.9 36.8c-1.9 0.7-2.9 2.8-2.2 4.7 0.1 0.2 0.1 0.4 0.3 0.6l-8.6 9.9 6.7 0.9 7.1-9.5c1.7-1.1 2.2-3.4 1.1-5.2-1-1.4-2.7-2-4.4-1.4z"/><path class="st6" d="m752.6 40.8c0.7 1.9-0.3 4-2.2 4.7-0.2 0.1-0.4 0.1-0.6 0.2l-2.1 12.9-5-4.6 2.8-11.6c-0.2-2.1 1.3-3.8 3.3-4.1 1.6-0.2 3.2 0.9 3.8 2.5z"/><polygon class="st6" points="766 154.2 766 171.5 770.5 171.5 772.6 154.2"/></g><path d="m764.8 170h8.9c3.1 0 5.6 2.5 5.6 5.6v0.2h-14.5z"/><polygon class="st6" points="742.9 154.2 742.9 171.5 747.4 171.5 749.6 154.2" fill="#ffb8b8"/><path d="m741.8 170h8.9c3.1 0 5.6 2.5 5.6 5.6v0.2h-14.5z"/><circle class="st6" cx="765" cy="44.1" r="9" fill="#ffb8b8"/><path d="m764 165.7-0.7-47.4c0-0.3-0.3-0.5-0.5-0.5s-0.5 0.2-0.5 0.4l-12.3 46.3c-0.2 0.8-0.9 1.3-1.7 1.3l-6.7-0.2c-0.9-0.1-1.6-0.8-1.6-1.7v-0.1l10.4-59.7v-0.2l28.8 1.4h0.2l-6.2 60.5c-0.1 0.9-0.8 1.5-1.7 1.5h-6c-0.8 0.1-1.5-0.6-1.5-1.6z"/><path d="m786.8 109.3-41.9-3.4c-0.9-0.1-1.6-0.9-1.5-1.8 0-0.1 0.1-0.3 0.1-0.4l6.6-18.3 0.4-21.6c0.1-3.3 2.8-5.9 6-5.8h0.1l2.8-2.5h10.2l0.9 1.2 7.1 1.1c2.6 0.4 4.6 2.4 5 5.1l6 44.7c0.1 0.9-0.5 1.7-1.4 1.9-0.2-0.2-0.3-0.2-0.4-0.2 0.1 0 0 0 0 0z"/><path d="m778.6 59.8 17.9-5.2 8.1-10.7c0.5-0.6 1.3-0.8 2-0.5l5 2.2c0.9 0.3 1.3 1.3 0.9 2.2 0 0.1-0.1 0.1-0.1 0.2l-6 10.4c-1 1.7-2.4 3-4.3 3.8l-21 9.3z"/><path d="m744.4 67.6c-2.2-1.6-3.4-4.2-3.2-6.8l0.8-10.4c0.1-0.9 0.8-1.5 1.7-1.5l5.9 0.1c0.9 0 1.7 0.7 1.7 1.7v0.3l-1.1 5.6 7.8 3.3-6.6 12.8z"/><path d="m770.3 33.3s-9.4-5.1-14.6 0.9 2 15.3 2 15.3l10.1 1.3s0.4-6.9 2.8-6.7 9.9-8.5-0.3-10.8z"/><path class="st4" d="m796.7 176.4h-77.3c-0.2 0-0.4-0.1-0.4-0.4 0-0.2 0.1-0.4 0.4-0.4h77.3c0.2 0 0.4 0.1 0.4 0.4 0 0.2-0.2 0.4-0.4 0.4z" fill="#ccc"/></g></svg>
