<?xml version="1.0" encoding="UTF-8"?>
<!-- Created with Inkscape (http://www.inkscape.org/) -->
<svg xmlns="http://www.w3.org/2000/svg" width="259.3mm" height="155.05mm" version="1.1" viewBox="0 0 259.3 155.05" xml:space="preserve"><g transform="translate(2.0685 -36.105)"><path d="m-2.0663 183.81 0.0022-7.3422 3.3293-12.965 168.82-0.1331 3.26 12.926v14.856h-175.42zm115.62-2.4474v-3.7042h-56.356v7.4083h56.356zm125.94-0.60643c-0.65826-0.18681-1.7405-0.6435-2.4049-1.0149-1.5978-0.89303-45.225-34.582-46.952-36.256l-1.3408-1.3-1.0404 0.83368c-5.1171 4.1001-11.904 7.2423-18.9 8.7498-2.3735 0.51148-3.5873 0.60035-8.3344 0.61028-4.8574 0.0102-5.939-0.0677-8.599-0.61944-15.262-3.1654-27.862-13.315-34.921-28.13-3.7308-7.8306-5.3675-15.196-5.3675-24.155 0-6.8722 0.82685-11.999 2.9232-18.124 6.5144-19.035 22.9-31.891 41.707-32.724 9.4708-0.41961 18.928 2.2776 27.276 7.7794 10.745 7.0809 18.619 18.613 21.925 32.11 1.9873 8.1127 2.0015 18.047 0.0374 26.123-0.36498 1.5009-0.66361 2.8297-0.66361 2.953s0.50601 0.47015 1.1245 0.77085c1.2503 0.6079 45.704 34.88 47.509 36.628 1.3513 1.3082 3.1146 4.7247 3.4907 6.7633 0.79179 4.2917-0.0601 7.3478-3.4271 12.294-2.2705 3.3356-3.9639 4.9696-6.2676 6.0476-1.4616 0.68395-2.1301 0.82983-4.1601 0.90774-1.458 0.056-2.894-0.0421-3.6155-0.24683zm-75.461-44.645c11.601-1.4547 21.479-9.8245 25.694-21.77 1.5492-4.3913 1.9846-7.1597 1.9846-12.618 0-4.0404-0.10104-5.3635-0.57887-7.5797-1.6535-7.6693-4.8014-13.719-9.9019-19.029-5.1797-5.3926-11.457-8.7918-18.282-9.8995-2.4238-0.3934-7.7625-0.3245-10.165 0.13118-13.026 2.4711-23.052 13.386-25.514 27.777-0.68947 4.0302-0.56084 10.495 0.28549 14.348 4.0401 18.393 19.761 30.736 36.478 28.64zm-153.4-38.225v-61.781l148.3 0.13322v4.101c0 3.036-0.082 4.0852-0.31591 4.0398-0.17375-0.0337-1.8071 0.0526-3.6297 0.19173-5.6847 0.4339-10.77 1.6924-15.369 3.8035l-2.3812 1.0931-114.04 0.26458-0.06686 48.22-0.06686 48.22h106.94l2.8217 1.8925c7.025 4.7115 14.992 7.6096 23.261 8.4617l2.9766 0.30671v2.8329h-148.43z" stroke-width=".26458"/><path d="m38.389 117.34v-10.457l8.8635 0.145 0.06922 10.385 0.06921 10.385h-9.002zm17.992-12.561v-23.019h8.7312v46.038h-8.7312zm17.992 6.35v-16.669h8.9958v33.338h-8.9958zm17.992-6.35v-23.019h8.7312v46.038h-8.7312z" fill="#d80669" stroke-width=".26458"/><path transform="scale(.26458)" d="m215.65 685.66 0.36495-13.823 212.8-0.65777v28.303h-213.53z" fill="#d80669" stroke-width="0" style="paint-order:fill markers stroke"/></g></svg>
