<?xml version="1.0" encoding="UTF-8"?>
<svg xmlns="http://www.w3.org/2000/svg" width="300" height="190" version="1.1" viewBox="0 0 79.37 50.27"><rect width="79.38" height="50.27" fill="#fff" style="paint-order:fill markers stroke"/><g transform="matrix(.607 0 0 .607 14.57 12.5)"><g id="Mode_Isolation" transform="matrix(.2646 0 0 .2646 -210.3 -5.703)"><rect class="st2" x="733.5" y="36" width="245.7" height="136.3" fill="#fff"/></g><path class="st1" d="m63.2 11.12c2.011-1.111 4.524-0.8996 6.694-0.1323s4.128 1.984 6.244 2.91c6.429 2.805 14.21 2.355 20.27-1.164 0.5821 1.349-0.02646 2.858-0.7144 4.128-0.6615 1.296-1.429 2.672-1.164 4.101 0.344 1.826 2.275 2.91 3.043 4.604 0.7408 1.614 0.344 3.493-0.2117 5.159-0.5821 1.667-1.296 3.36-1.217 5.106 0.07937 1.773 1.376 3.625 3.122 3.625-2.619 0.3969-5.292 0.8202-7.885 0.3969-2.593-0.4233-5.212-1.799-6.429-4.154-0.6085-1.164-0.8467-2.54-1.535-3.651-1.191-1.905-3.466-2.805-5.609-3.492-2.143-0.6879-4.445-1.349-5.953-2.99-1.429-1.588-1.905-3.81-2.672-5.821-1.296-3.36-3.519-6.271-6.429-8.387" fill="#09f" stroke-width=".2646"/><path d="m65.53 2.764c-0.7144-0.344-1.588-0.4233-2.302-0.1323s-1.217 1.085-0.979 1.773c0.1058 0.3175 0.344 0.6085 0.2646 0.926-0.07937 0.2646-0.3175 0.3969-0.5821 0.5292-0.2646 0.1058-0.5292 0.2117-0.6879 0.3969-0.1852 0.2117-0.2117 0.5292 0 0.6615 0.07937 0.05292 0.1588 0.07938 0.2381 0.1058 0.1058 0.1058 0.1588 0.2646 0.1058 0.4233-0.07938 0.1588-0.1588 0.291-0.291 0.3704-0.2646 0.2117-0.5821 0.4762-0.5027 0.7673 0.07938 0.1588 0.2117 0.291 0.3704 0.344 0.1588 0.05292 0.344 0.07938 0.5292 0.07938l7.461 0.2381c0.2646 0.02646 0.4762 0 0.7408-0.02646 0.2381-0.05292 0.4498-0.1852 0.5821-0.3969 0.1588-0.2646 0.05292-0.5821-0.1323-0.8467-0.1852-0.2646-0.4233-0.4233-0.635-0.6615-0.2117-0.2381-0.3704-0.5027-0.344-0.7938 0.02646-0.2381 0.1852-0.4233 0.291-0.6615 0.1058-0.2117 0.1588-0.4762 0.02646-0.6615-0.2117-0.2646-0.6879-0.2646-0.926-0.5027-0.1588-0.2117-0.1323-0.4762-0.1588-0.7144-0.02646-0.6085-0.4498-1.164-1.058-1.429-0.6085-0.2646-1.296-0.2117-1.905 0.1323z" stroke-width=".2646"/><polygon class="st3" transform="matrix(.2646 0 0 .2646 -210.3 -5.703)" points="1026 156.1 1033 158 1028 175.1 1023 173.7" fill="#a0616a"/><path d="m61.56 41.84-3.784-1.138 0.02646-0.05292c0.2646-0.7938 1.085-1.27 1.905-1.032l2.302 0.6879z" stroke-width=".2646"/><polygon class="st3" transform="matrix(.2646 0 0 .2646 -210.3 -5.703)" points="1060 157.5 1067 157.5 1067 175.2 1062 175.2" fill="#a0616a"/><path d="m72.17 41.84h-3.942v-0.05292c0-0.8467 0.6879-1.535 1.535-1.535h2.408z" stroke-width=".2646"/><path d="m70.32 37.11c-0.2117 0-0.3704-0.1588-0.3969-0.344l-1.693-10.56c-0.02646-0.1588-0.1852-0.291-0.3704-0.2646-0.1058 0.02646-0.2117 0.1058-0.2646 0.2117l-4.392 10.56c-0.07938 0.2117-0.3175 0.291-0.5292 0.2381l-1.588-0.5292c-0.2117-0.07937-0.344-0.291-0.291-0.4762l3.598-15.9c0.02646-0.1588 0.1588-0.291 0.3175-0.3175l4.815-1.111c0.1058-0.02646 0.2646 0 0.344 0.07937 3.175 2.302 2.91 9.842 2.302 18.02-0.02646 0.2117-0.1852 0.3704-0.3969 0.3969l-1.482 0.07937c0.05292-0.07937 0.02646-0.07937 0.02646-0.07937z" stroke-width=".2646"/><circle class="st3" transform="rotate(-71.57)" cx="14.36" cy="64.57" r="2.434" fill="#a0616a" stroke-width=".2646"/><g stroke-width=".2646"><path d="m66.35 20.65c-0.5556 0-1.085-0.1058-1.588-0.344l-0.02646-0.02646v-0.02646l-2.037-5.318-0.02646-0.926c-0.05292-1.217 0.8996-2.275 2.117-2.302h0.2117l2.17 0.1058c1.164 0.07937 2.09 1.032 2.09 2.196 0.07938 0.1058 0.4498 0.9525-0.344 1.773-0.02646 0.1852-0.291 2.064 0.7408 3.096l0.02646 0.02646-0.02646 0.02646c-0.02646 0.05292-1.349 1.72-3.307 1.72z"/><path class="st3" d="m69.18 19.91c0.5292-0.1852 0.7938-0.7673 0.6085-1.296-0.02646-0.05292-0.05292-0.1058-0.07937-0.1588l2.328-2.699-1.826-0.2381-1.931 2.593c-0.4762 0.291-0.5821 0.926-0.2646 1.402 0.2381 0.3969 0.7144 0.5556 1.164 0.3969z" fill="#a0616a"/><path d="m70.64 17.85c-0.07937 0-0.1588-0.02646-0.2646-0.07937l-1.164-0.7673c-0.2117-0.1323-0.2646-0.3969-0.1323-0.6085l0.8467-1.402c0.1852-0.291 0.07938-0.6879-0.2117-0.8467-0.02646-0.02646-0.05292-0.02646-0.07938-0.02646l-2.408-1.085c-0.6085-0.2646-0.926-0.926-0.7938-1.588 0.1588-0.7673 0.8996-1.27 1.667-1.085 0.1058 0.02646 0.2646 0.07937 0.344 0.1323l3.625 1.852c0.926 0.4762 1.296 1.614 0.8202 2.566-0.05292 0.07937-0.1058 0.1588-0.1588 0.2646l-1.773 2.461c-0.02646 0.1323-0.1852 0.2117-0.3175 0.2117z"/><path d="m63.26 6.098c0.6615-0.07938 1.244-0.7408 1.164-1.402-0.02646 0.5821 0.3969 1.085 0.979 1.164 0.291 0.02646 0.6615-0.07938 0.926 0.1058 0.291 0.1852 0.3969 0.5821 0.7144 0.7673 0.291 0.1588 0.6879-0.07938 0.8467-0.344 0.1588-0.291 0.1058-0.6615 0.02646-0.979-0.4498-1.455-2.011-2.275-3.466-1.826-0.4233 0.1323-0.8202 0.3704-1.164 0.6879-0.291 0.291-0.5292 0.6615-0.5556 1.058-0.02646 0.3969 0.1588 0.8467 0.5292 1.032z"/><path class="st3" d="m57.62-0.3051c0.4762 0.2646 0.6615 0.8731 0.3969 1.349-0.02646 0.05292-0.07937 0.1058-0.1058 0.1588l1.905 2.99-1.852-0.02646-1.535-2.858c-0.4233-0.3704-0.4233-1.005-0.07938-1.429" fill="#a0616a"/><path d="m59.16 1.838 2.461 5.794 2.593 4.366c0.3969 0.6615 0.1588 1.535-0.5027 1.931-0.1058 0.05292-0.2117 0.1058-0.291 0.1323-0.6615 0.2117-1.402-0.1058-1.693-0.7673l-4.948-10.61c-0.1058-0.2117 0-0.4762 0.2117-0.6085 0.02646 0 0.02646-0.02646 0.05292-0.02646l1.614-0.5292c0.02646-0.02646 0.07937-0.02646 0.1058-0.02646 0.1323 0.02646 0.3175 0.1588 0.3969 0.344z"/><path d="m82.18 41.92h-75.25c-0.05292 0-0.1058-0.05292-0.1058-0.1058 0-0.05292 0.05292-0.1058 0.1058-0.1058h75.27c0.05292 0 0.1058 0.05292 0.1058 0.1058-0.02646 0.07937-0.07937 0.1058-0.1323 0.1058z"/></g><g transform="matrix(.2646 0 0 .2646 -210.3 -5.703)"><g fill="#3f3d56"><path class="st4" d="m972.2 36h-232.3c-4 0-7.3 3.2-7.3 7.3v122.5c0 4 3.2 7.3 7.3 7.3h232.3c4 0 7.3-3.2 7.3-7.3v-122.6c0-4-3.3-7.2-7.3-7.2zm6.6 129.7c0 3.6-3 6.6-6.6 6.6h-232.3c-3.6 0-6.6-3-6.6-6.6v-122.5c0-3.6 3-6.6 6.6-6.6h232.3c3.6 0 6.6 3 6.6 6.6z"/><path class="st4" d="m960.8 55.8h-209.4c-0.2 0-0.3-0.1-0.3-0.3s0.1-0.3 0.3-0.3h209.4c0.2 0 0.3 0.1 0.3 0.3s-0.1 0.3-0.3 0.3z"/><path class="st4" d="m810.5 158.1c-0.2 0-0.3-0.1-0.3-0.3v-113.9c0-0.2 0.1-0.3 0.3-0.3s0.3 0.1 0.3 0.3v113.9c0.1 0.2-0.1 0.3-0.3 0.3z"/><path class="st4" d="m862.8 158.1c-0.2 0-0.3-0.1-0.3-0.3v-113.9c0-0.2 0.1-0.3 0.3-0.3s0.3 0.1 0.3 0.3v113.9c0.1 0.2-0.1 0.3-0.3 0.3z"/><path class="st4" d="m915 158.1c-0.2 0-0.3-0.1-0.3-0.3v-113.9c0-0.2 0.1-0.3 0.3-0.3s0.3 0.1 0.3 0.3v113.9c0.1 0.2-0.1 0.3-0.3 0.3z"/></g><g fill="#09f"><path class="st1" d="m777 91.5h-12.7c-0.9 0-1.6-0.7-1.6-1.6v-14.9c0-0.9 0.7-1.6 1.6-1.6h12.7c0.9 0 1.6 0.7 1.6 1.6v15c-0.1 0.8-0.8 1.5-1.6 1.5z"/><path class="st1" d="m794.9 134.1h-12.7c-0.9 0-1.6-0.7-1.6-1.6v-14.9c0-0.9 0.7-1.6 1.6-1.6h12.7c0.9 0 1.6 0.7 1.6 1.6v14.9c0 0.9-0.7 1.6-1.6 1.6z"/><path class="st1" d="m835.8 100.6h-12.7c-0.9 0-1.6-0.7-1.6-1.6v-15c0-0.9 0.7-1.6 1.6-1.6h12.7c0.9 0 1.6 0.7 1.6 1.6v15c-0.1 0.9-0.8 1.6-1.6 1.6z"/><path class="st1" d="m888.8 84.3h-12.7c-0.9 0-1.6-0.7-1.6-1.6v-14.9c0-0.9 0.7-1.6 1.6-1.6h12.7c0.9 0 1.6 0.7 1.6 1.6v14.9c-0.1 0.9-0.8 1.6-1.6 1.6z"/><path class="st1" d="m937.5 84.3h-12.7c-0.9 0-1.6-0.7-1.6-1.6v-14.9c0-0.9 0.7-1.6 1.6-1.6h12.7c0.9 0 1.6 0.7 1.6 1.6v14.9c0 0.9-0.7 1.6-1.6 1.6z"/></g><path class="st5" d="m960 88.4h-12.7c-0.9 0-1.6-0.7-1.6-1.6v-14.9c0-0.9 0.7-1.6 1.6-1.6h12.7c0.9 0 1.6 0.7 1.6 1.6v14.9c0 0.9-0.7 1.6-1.6 1.6z" fill="#e6e6e6"/><path class="st5" d="m950 115.1h-12.7c-0.9 0-1.6-0.7-1.6-1.6v-15c0-0.9 0.7-1.6 1.6-1.6h12.7c0.9 0 1.6 0.7 1.6 1.6v14.9c-0.1 1-0.8 1.7-1.6 1.7z" fill="#e6e6e6"/><path class="st6" d="m907.1 109.6h-12.7c-0.9 0-1.6-0.7-1.6-1.6v-15c0-0.9 0.7-1.6 1.6-1.6h12.7c0.9 0 1.6 0.7 1.6 1.6v15c-0.1 0.9-0.8 1.6-1.6 1.6z" fill="#b6e9ff"/><path class="st5" d="m882.5 115.1h-12.7c-0.9 0-1.6-0.7-1.6-1.6v-15c0-0.9 0.7-1.6 1.6-1.6h12.7c0.9 0 1.6 0.7 1.6 1.6v14.9c0 1-0.7 1.7-1.6 1.7z" fill="#e6e6e6"/><path class="st5" d="m829.5 138.6h-12.7c-0.9 0-1.6-0.7-1.6-1.6v-14.9c0-0.9 0.7-1.6 1.6-1.6h12.7c0.9 0 1.6 0.7 1.6 1.6v14.9c0 0.9-0.7 1.6-1.6 1.6z" fill="#e6e6e6"/><path class="st6" d="m765.5 118.9h-12.7c-0.9 0-1.6-0.7-1.6-1.6v-14.9c0-0.9 0.7-1.6 1.6-1.6h12.7c0.9 0 1.6 0.7 1.6 1.6v14.9c0 0.9-0.7 1.6-1.6 1.6z" fill="#b6e9ff"/><path class="st5" d="m801.2 91.5h-12.7c-0.9 0-1.6-0.7-1.6-1.6v-14.9c0-0.9 0.7-1.6 1.6-1.6h12.7c0.9 0 1.6 0.7 1.6 1.6v15c-0.1 0.8-0.8 1.5-1.6 1.5z" fill="#e6e6e6"/><g fill="#ccc"><path class="st7" d="m790.8 50.1h-19.8c-0.8 0-1.4-0.6-1.4-1.4s0.6-1.4 1.4-1.4h19.7c0.8 0 1.4 0.6 1.4 1.4 0.1 0.8-0.5 1.4-1.3 1.4z"/><path class="st7" d="m846.5 50.1h-19.7c-0.8 0-1.4-0.6-1.4-1.4s0.6-1.4 1.4-1.4h19.7c0.8 0 1.4 0.6 1.4 1.4s-0.6 1.4-1.4 1.4z"/><path class="st7" d="m898.8 50.1h-19.8c-0.8 0-1.4-0.6-1.4-1.4s0.6-1.4 1.4-1.4h19.7c0.8 0 1.4 0.6 1.4 1.4 0.1 0.8-0.5 1.4-1.3 1.4z"/><path class="st7" d="m947.6 50.1h-19.7c-0.8 0-1.4-0.6-1.4-1.4s0.6-1.4 1.4-1.4h19.7c0.8 0 1.4 0.6 1.4 1.4s-0.6 1.4-1.4 1.4z"/></g></g><rect class="st2" x="48.52" y="38.11" width=".291" height="1.799" fill="#fff" stroke-width=".2646"/></g></svg>
