<?xml version="1.0" encoding="UTF-8" standalone="no"?>
<!-- Created with Inkscape (http://www.inkscape.org/) -->
<svg xmlns:inkscape="http://www.inkscape.org/namespaces/inkscape" xmlns:sodipodi="http://sodipodi.sourceforge.net/DTD/sodipodi-0.dtd" xmlns="http://www.w3.org/2000/svg" xmlns:svg="http://www.w3.org/2000/svg" width="32.316441mm" height="32.248421mm" viewBox="0 0 32.316441 32.248421" version="1.1" id="svg1" xml:space="preserve" inkscape:version="1.3 (0e150ed6c4, 2023-07-21)" sodipodi:docname="videoIcone.svg"><sodipodi:namedview id="namedview1" pagecolor="#ffffff" bordercolor="#000000" borderopacity="0.25" inkscape:showpageshadow="2" inkscape:pageopacity="0.0" inkscape:pagecheckerboard="true" inkscape:deskcolor="#d1d1d1" inkscape:document-units="mm" inkscape:zoom="2.8970539" inkscape:cx="41.248802" inkscape:cy="106.14231" inkscape:window-width="1920" inkscape:window-height="1009" inkscape:window-x="-8" inkscape:window-y="-8" inkscape:window-maximized="1" inkscape:current-layer="layer1"/><defs id="defs1"/><g inkscape:label="Calque 1" inkscape:groupmode="layer" id="layer1" transform="translate(43.518301,-66.582362)"><path style="fill:#ffffff;stroke-width:0.999998" d="m -37.164717,97.263732 c -1.614492,-0.98446 -1.603947,-3.405912 0.01922,-4.409075 2.244189,-1.386984 4.860202,0.595273 4.045087,3.065118 -0.333933,1.011828 -1.465883,1.813161 -2.561236,1.813161 -0.40346,0 -1.079837,-0.211142 -1.503055,-0.469204 z m -4.793384,-1.504729 c -1.032657,-0.601466 -0.215602,-1.692067 1.267666,-1.692067 0.71157,0 0.749637,0.04968 0.749637,0.978088 0,0.941994 -0.02929,0.977814 -0.79469,0.970653 -0.43709,-0.004 -0.987262,-0.119593 -1.222613,-0.256674 z m 10.575572,-0.713979 v -0.978088 h 8.941128 c 5.695732,0 9.112794,0.09187 9.414085,0.253125 0.260138,0.139219 0.472976,0.465452 0.472976,0.724963 0,0.25951 -0.212838,0.585744 -0.472976,0.724963 -0.301291,0.161247 -3.718353,0.253125 -9.414085,0.253125 h -8.941128 z m -9.225885,-5.497485 c -0.434437,-0.18886 -1.011706,-0.707218 -1.282823,-1.151907 -0.469806,-0.770571 -0.492947,-1.216012 -0.492947,-9.489052 0,-8.276171 0.02302,-8.718231 0.493483,-9.489937 0.941514,-1.544269 0.876748,-1.537849 14.738482,-1.46084 11.828507,0.06571 12.55724,0.09518 13.204376,0.533779 1.375277,0.932118 1.393577,1.069678 1.392588,10.465985 -8.51e-4,8.013688 -0.03383,8.68545 -0.460176,9.384676 -0.964462,1.581609 -0.864475,1.570844 -14.491699,1.560251 -10.016612,-0.0078 -12.458629,-0.07358 -13.101284,-0.352955 z m 16.259188,-3.308609 c 1.845489,-0.816347 3.132203,-2.047538 4.015919,-3.842631 0.694705,-1.411143 0.803656,-1.884238 0.803656,-3.489719 0,-1.602099 -0.109432,-2.079555 -0.796502,-3.475194 -1.419657,-2.883724 -3.894529,-4.425205 -7.148382,-4.452392 -1.612966,-0.01348 -2.055657,0.08687 -3.482826,0.789463 -2.856483,1.406244 -4.433102,3.941488 -4.439064,7.138123 -0.0074,3.747836 2.266656,6.707665 5.952792,7.749367 1.42826,0.403625 3.650427,0.221723 5.094407,-0.417017 z m -5.892202,-3.338493 c -0.08965,-0.08966 -0.163017,-1.908687 -0.163017,-4.042285 0,-3.146237 0.06635,-3.904738 0.351216,-4.014044 0.193172,-0.07413 1.541093,0.554075 2.995397,1.396 3.334718,1.930542 3.989044,2.382156 3.989044,2.753225 0,0.276981 -6.337841,4.070119 -6.800641,4.070119 -0.11494,0 -0.282336,-0.07335 -0.371999,-0.163015 z" id="path1"/></g></svg>
